<?xml version="1.0" encoding="utf-8"?>
<!-- Generator: Adobe Illustrator 21.0.2, SVG Export Plug-In . SVG Version: 6.00 Build 0)  -->
<svg version="1.2" baseProfile="tiny" id="Publicdomainvectors.org"
	 xmlns="http://www.w3.org/2000/svg" xmlns:xlink="http://www.w3.org/1999/xlink" x="0px" y="0px" viewBox="0 0 612 792"
	 xml:space="preserve">
<g>
	<path fill="#9EA5AC" stroke="#9EA5AC" d="M0.1,0.1c0,21.5,0,40.7,0,40.7c10.2-10.9,23.6-25.3,38-40.7C38.1,0.1,0.1,0.1,0.1,0.1z"/>
	<path fill="#9299A0" stroke="#9299A0" d="M38.1,0.1c-14.3,15.4-27.8,29.8-38,40.7v26.7c33,11.9,98.2,35.3,98.2,35.3
		s7.6-52,15.1-102.7C113.4,0.1,38.1,0.1,38.1,0.1z"/>
	<path fill="#8A9298" stroke="#8A9298" d="M113.4,0.1c-7.5,50.7-15.1,102.7-15.1,102.7l190.2-55.6c0,0-23.8-21.1-53.1-47.1
		C235.4,0.1,113.4,0.1,113.4,0.1z"/>
	<path fill="#8C939A" stroke="#8C939A" d="M235.4,0.1c29.3,26,53.1,47.1,53.1,47.1s2.8-23.8,5.4-47.1C293.9,0.1,235.4,0.1,235.4,0.1
		z"/>
	<path fill="#7E868B" stroke="#7E868B" d="M293.9,0.1c-2.7,23.3-5.4,47.1-5.4,47.1l132.6,1.3c0,0-32.2-24.5-63.5-48.4
		C357.6,0.1,293.9,0.1,293.9,0.1z"/>
	<path fill="#82898F" stroke="#82898F" d="M357.5,0.1C388.8,23.9,421,48.5,421,48.5s-1.3-21.8-3-48.4C418,0.1,357.5,0.1,357.5,0.1z"
		/>
	<path fill="#81898E" stroke="#81898E" d="M418.1,0.1c1.6,26.6,3,48.4,3,48.4S450.4,26,484.3,0.1H418.1z"/>
	<path fill="#777F84" stroke="#777F84" d="M484.3,0.1c-33.9,25.9-63.2,48.4-63.2,48.4l122.5,56.1c0,0,12.6-55,24-104.5
		C567.6,0.1,484.3,0.1,484.3,0.1z"/>
	<path fill="#777F85" stroke="#777F85" d="M612.1,0.1c-24.6,0-44.5,0-44.5,0c-11.4,49.5-24,104.5-24,104.5s30.5-10,68.5-22.5V0.1z"
		/>
	<path fill="#868D93" stroke="#868D93" d="M0.1,188c5.8-0.6,9.2-0.9,9.2-0.9s-4.1-18.7-9.2-41.6C0.1,145.5,0.1,188,0.1,188z"/>
	<path fill="#858C92" stroke="#858C92" d="M0.1,145.5c5.1,23,9.2,41.6,9.2,41.6l89-84.3c0,0-65.2-23.4-98.2-35.3
		C0.1,67.5,0.1,145.5,0.1,145.5z"/>
	<path fill="#7A8186" stroke="#7A8186" d="M98.3,102.8l-89,84.3l87.3-9.3L98.3,102.8z"/>
	<path fill="#6E767A" stroke="#6E767A" d="M98.3,102.8l-1.7,75l161.8,78L98.3,102.8z"/>
	<path fill="#71797D" stroke="#71797D" d="M98.3,102.8l160,153l30.1-208.6L98.3,102.8z"/>
	<path fill="#60686A" stroke="#60686A" d="M288.5,47.2l-30.1,208.6l156.1,9.4L288.5,47.2z"/>
	<path fill="#687073" stroke="#687073" d="M288.5,47.2l126,218l6.6-216.7L288.5,47.2z"/>
	<path fill="#61696C" stroke="#61696C" d="M421.1,48.5l-6.6,216.7l129.1-160.6L421.1,48.5z"/>
	<path fill="#575F61" stroke="#575F61" d="M543.6,104.6L414.4,265.2l195.1-60.7L543.6,104.6z"/>
	<path fill="#666E71" stroke="#666E71" d="M612.1,82c-38,12.5-68.5,22.5-68.5,22.5l66,99.9c0,0,0.9-1,2.6-2.9L612.1,82L612.1,82z"/>
	<path fill="#60686A" stroke="#60686A" d="M612.1,201.5c-1.7,1.9-2.6,2.9-2.6,2.9s0.9,0,2.6,0V201.5z"/>
	<path fill="#737B80" stroke="#737B80" d="M0.1,230.1c5.3-25,9.2-43,9.2-43s-3.4,0.3-9.2,0.9C0.1,188,0.1,230.1,0.1,230.1z"/>
	<path fill="#646C6F" stroke="#646C6F" d="M0.1,375.1c47.1-6.3,129.6-17.4,129.6-17.4L9.3,187.1c0,0-3.8,18-9.2,43
		C0.1,230.1,0.1,375.1,0.1,375.1z"/>
	<path fill="#6A7276" stroke="#6A7276" d="M9.3,187.1l120.4,170.6l-33.2-180L9.3,187.1z"/>
	<path fill="#60686A" stroke="#60686A" d="M96.6,177.8l33.2,180l128.6-102L96.6,177.8z"/>
	<path fill="#495152" stroke="#495152" d="M258.3,255.8l-128.6,102L261.8,416L258.3,255.8z"/>
	<path fill="#495152" stroke="#495152" d="M258.3,255.8l3.5,160.1l152.6-150.7L258.3,255.8z"/>
	<path fill="#3A4243" stroke="#3A4243" d="M414.4,265.2L261.9,415.9l197.6-70.7L414.4,265.2z"/>
	<path fill="#404848" stroke="#404848" d="M414.4,265.2l45,80.1l94.3-16.2L414.4,265.2z"/>
	<path fill="#4A5153" stroke="#4A5153" d="M414.4,265.2L553.8,329l55.7-124.6L414.4,265.2z"/>
	<path fill="#424A4A" stroke="#424A4A" d="M612.1,207.4c-1.7-1.9-2.6-2.9-2.6-2.9L553.8,329c0,0,25.3,5.9,58.3,13.5V207.4z"/>
	<path fill="#4A5153" stroke="#4A5153" d="M612.1,204.5c-1.7,0-2.6,0-2.6,0s0.9,1,2.6,2.9V204.5z"/>
	<path fill="#474E50" stroke="#474E50" d="M0.1,557.2c51.2-9.5,125.8-23.3,125.8-23.3s-79.7-78-125.8-123.2V557.2z"/>
	<path fill="#454D4D" stroke="#454D4D" d="M0.1,410.7c46.1,45.1,125.8,123.2,125.8,123.2l3.9-176.2c0,0-82.5,11.1-129.6,17.4
		L0.1,410.7L0.1,410.7z"/>
	<path fill="#3A4141" stroke="#3A4141" d="M129.7,357.7l-3.9,176.2l136-118L129.7,357.7z"/>
	<path fill="#313939" stroke="#313939" d="M261.9,415.9l-136,118l114.8-6.8L261.9,415.9z"/>
	<path fill="#282F2F" stroke="#282F2F" d="M261.9,415.9l-21.2,111.2l189.1-28.7L261.9,415.9z"/>
	<path fill="#252C2C" stroke="#252C2C" d="M261.9,415.9l167.9,82.5l29.7-153.2L261.9,415.9z"/>
	<path fill="#1D2424" stroke="#1D2424" d="M459.5,345.2l-29.7,153.2l163,5.8L459.5,345.2z"/>
	<path fill="#282F2F" stroke="#282F2F" d="M459.5,345.2l133.3,159l-39-175.2L459.5,345.2z"/>
	<path fill="#232A2A" stroke="#232A2A" d="M612.1,342.6c-33-7.6-58.3-13.5-58.3-13.5l39,175.2c0,0,7.5-5.6,19.3-14.5V342.6z"/>
	<path fill="#1A2120" stroke="#1A2120" d="M612.1,489.7c-11.8,8.9-19.3,14.5-19.3,14.5s7.6,3,19.3,7.5V489.7z"/>
	<path fill="#3F4647" stroke="#3F4647" d="M0.1,661.5C30.7,630.4,125.9,534,125.9,534S51.3,547.7,0.1,557.2V661.5z"/>
	<path fill="#363E3E" stroke="#363E3E" d="M0.1,670.4c30.9-1.8,127.5-7.6,127.5-7.6l-1.7-128.9c0,0-95.1,96.5-125.8,127.5
		C0.1,661.4,0.1,670.4,0.1,670.4z"/>
	<path fill="#313838" stroke="#313838" d="M125.9,533.9l1.7,128.9l113.1-135.7L125.9,533.9z"/>
	<path fill="#252C2C" stroke="#252C2C" d="M240.7,527.1L127.6,662.9l174.7-12.3L240.7,527.1z"/>
	<path fill="#1D2424" stroke="#1D2424" d="M240.7,527.1l61.5,123.4l127.5-152.1L240.7,527.1z"/>
	<path fill="#252626" stroke="#252626" d="M429.8,498.4L302.2,650.5l106.5,6.4L429.8,498.4z"/>
	<path fill="#222122" stroke="#222122" d="M429.8,498.4l-21,158.6l134.5,35.7L429.8,498.4z"/>
	<path fill="#252626" stroke="#252626" d="M429.8,498.4l113.5,194.2l49.5-188.4L429.8,498.4z"/>
	<path fill="#262627" stroke="#262627" d="M612.1,511.7c-11.6-4.5-19.3-7.5-19.3-7.5l-49.5,188.4c0,0,31.8-23.8,68.8-51.6V511.7z"/>
	<path fill="#1A1A1A" stroke="#1A1A1A" d="M612.1,641.1c-37,27.8-68.8,51.6-68.8,51.6s30.3-1.7,68.8-3.9V641.1z"/>
	<path fill="#333A3A" stroke="#333A3A" d="M147.8,790.6c10.3-4,16.6-6.4,16.6-6.4S36.3,700.7,0.1,677.1c0,0,0,63.9,0,113.5H147.8z"
		/>
	<path fill="#2E3535" stroke="#2E3535" d="M0.1,677.1c36.1,23.6,164.2,107.1,164.2,107.1l-36.8-121.3c0,0-96.6,5.7-127.5,7.6v6.6
		H0.1z"/>
	<path fill="#212828" stroke="#212828" d="M127.6,662.9l36.8,121.3l78.4,4.4L127.6,662.9z"/>
	<path fill="#1B2222" stroke="#1B2222" d="M127.6,662.9l115.2,125.8l59.5-138.1L127.6,662.9z"/>
	<path fill="#1F1E1F" stroke="#1F1E1F" d="M425.8,790.6c-36.5-41.4-123.5-140-123.5-140l-59.5,138.1c0,0,7.4,0.7,19.4,1.9H425.8z"/>
	<path fill="#0F0E0F" stroke="#0F0E0F" d="M437.7,790.6C429,750.5,408.8,657,408.8,657l-106.5-6.4c0,0,87.1,98.7,123.5,140H437.7z"
		/>
	<path fill="#040304" stroke="#040304" d="M457.3,790.6c28.5-32.5,86-97.9,86-97.9L408.8,657c0,0,20.3,93.5,28.9,133.6H457.3z"/>
	<path stroke="#000000" d="M541.7,790.6c0.7-44.1,1.6-97.9,1.6-97.9s-57.4,65.4-86,97.9H541.7z"/>
	<path stroke="#000000" d="M612.1,790.6c0-17.6,0-33,0-33c-35.4-33.4-68.8-64.9-68.8-64.9s-0.9,53.9-1.6,97.9H612.1z"/>
	<path stroke="#000000" d="M612.1,688.7c-38.4,2.2-68.8,3.9-68.8,3.9s33.4,31.5,68.8,64.9V688.7z"/>
	<path fill="#202323" stroke="#202323" d="M252.7,790.6c-6.4-1.2-9.9-1.9-9.9-1.9s-2.7,0.7-7.4,1.9H252.7z"/>
	<path fill="#293030" stroke="#293030" d="M235.3,790.6c4.8-1.2,7.4-1.9,7.4-1.9l-78.4-4.4c0,0-6.3,2.4-16.6,6.4L235.3,790.6
		L235.3,790.6z"/>
	<path fill="#040304" stroke="#040304" d="M262.2,790.6c-12-1.2-19.4-1.9-19.4-1.9s3.6,0.7,9.9,1.9H262.2z"/>
</g>
</svg>
