<?xml version="1.0" encoding="utf-8"?>
<!-- Generator: Adobe Illustrator 21.0.2, SVG Export Plug-In . SVG Version: 6.00 Build 0)  -->
<svg version="1.1" id="Publicdomainvectors.org" xmlns="http://www.w3.org/2000/svg" xmlns:xlink="http://www.w3.org/1999/xlink"
	 x="0px" y="0px" viewBox="0 0 792 612" style="enable-background:new 0 0 792 612;" xml:space="preserve">
<style type="text/css">
	.st0{fill:#F8D20E;}
	.st1{fill:#E81269;}
	.st2{fill:#2D6EA0;}
	.st3{fill:#B7223C;}
	.st4{fill:#F4971F;}
	.st5{fill:#EC5D26;}
	.st6{fill:#1689CA;}
	.st7{fill:#4AB1C7;}
</style>
<g>
	<path class="st0" d="M791.7,476.7c-7.3,2.1-14.2,4.1-20.8,6c-17.5,5-32.9,9.5-46.7,13.4c-12.3,3.5-23.4,6.7-33.4,9.6
		c-17.4,5-32.1,9.2-44.5,12.8c-20.1,5.8-35.7,10.3-48,13.8c-10.1,2.9-18.4,5.3-25.4,7.3c-11.2,3.2-19.8,5.7-26.5,7.6
		c-5.4,1.6-9.9,2.9-13.6,3.9c0,0,0,0,0,0c0,0-43.9,0-101.3,0c0,23.3,0,44.4,0,61.2h10.9c0-14.2,0-31.3,0-50.3c52,0,90.4,0,90.4,0v0
		c3.8-0.1,8.2-0.3,13.7-0.4c6.7-0.2,15.3-0.5,26.5-0.8c7-0.2,15.4-0.5,25.5-0.8c12.4-0.4,27.9-0.9,48.1-1.5
		c12.5-0.4,27.1-0.9,44.6-1.4c10-0.3,21.1-0.7,33.4-1.1c13.8-0.4,29.2-0.9,46.7-1.5c6.5-0.2,13.3-0.4,20.5-0.7V476.7z"/>
	<path class="st0" d="M0.9,554.6c0.2,0,0.5,0,0.7,0c17.5,0.6,33,1,46.7,1.5c12.3,0.4,23.4,0.7,33.4,1.1c17.4,0.6,32.1,1,44.6,1.4
		c20.2,0.6,35.7,1.1,48.1,1.5c10.1,0.3,18.4,0.6,25.5,0.8c11.2,0.4,19.8,0.6,26.5,0.8c5.4,0.2,9.9,0.3,13.7,0.4v0c0,0,38.4,0,90.4,0
		c0,19,0,36.2,0,50.3h10.9c0-16.8,0-37.9,0-61.2c-57.4,0-101.3,0-101.3,0c0,0,0,0,0,0c-3.7-1.1-8.2-2.4-13.6-3.9
		c-6.7-1.9-15.3-4.4-26.5-7.6c-7-2-15.4-4.4-25.4-7.3c-12.4-3.6-27.9-8-48-13.8c-12.5-3.6-27.1-7.8-44.5-12.8
		c-10-2.9-21.1-6.1-33.4-9.6c-13.7-4-29.2-8.4-46.7-13.4c-0.3-0.1-0.7-0.2-1-0.3V554.6z"/>
	<path class="st1" d="M791.7,389.2c-7.4,4.3-14.5,8.4-21.2,12.2c-17.5,10.1-32.9,19-46.6,26.9c-12.3,7.1-23.3,13.5-33.3,19.3
		c-17.4,10.1-32,18.5-44.5,25.7c-20.1,11.6-35.6,20.6-47.9,27.7c-10,5.8-18.4,10.6-25.4,14.7c-11.2,6.5-19.7,11.4-26.4,15.3
		c-5.4,3.1-9.9,5.7-13.6,7.9c0,0,0,0,0,0c0,0-50.3,0-113.6,0c0,28.2,0,53.8,0,73.5H430c0-17.2,0-38.8,0-62.6c58.1,0,102.8,0,102.8,0
		c0,0,0,0,0,0c0,0,0,0,0.1,0h0.1v0c3.7-1.2,8.2-2.6,13.5-4.4c6.7-2.2,15.3-4.9,26.5-8.5c7-2.3,15.4-4.9,25.4-8.2
		c12.3-4,27.9-9,48-15.4c12.5-4,27.1-8.7,44.5-14.3c10-3.2,21.1-6.8,33.4-10.7c13.7-4.4,29.2-9.4,46.7-15c6.6-2.1,13.5-4.4,20.8-6.7
		V389.2z"/>
	<path class="st1" d="M0.9,472.9c0.3,0.1,0.7,0.2,1,0.3c17.5,5.6,32.9,10.6,46.7,15c12.3,4,23.3,7.5,33.4,10.7
		c17.4,5.6,32.1,10.3,44.5,14.3c20.1,6.5,35.7,11.5,48,15.4c10.1,3.2,18.4,5.9,25.4,8.2c11.2,3.6,19.8,6.4,26.5,8.5
		c5.4,1.7,9.8,3.2,13.5,4.4v0h0.1c0,0,0,0,0.1,0c0,0,0,0,0,0c0,0,44.6,0,102.8,0c0,23.9,0,45.5,0,62.6h10.9c0-19.7,0-45.3,0-73.5
		c-63.4,0-113.6,0-113.6,0c0,0,0,0,0,0c-3.7-2.2-8.2-4.7-13.6-7.9c-6.7-3.9-15.2-8.8-26.4-15.3c-7-4.1-15.4-8.9-25.4-14.7
		c-12.3-7.1-27.8-16.1-47.9-27.7c-12.5-7.2-27.1-15.7-44.5-25.7c-10-5.8-21-12.2-33.3-19.3c-13.7-7.9-29.1-16.8-46.6-26.9
		c-0.4-0.3-0.9-0.5-1.3-0.8V472.9z"/>
	<path class="st2" d="M791.7,301.7c-7.5,6.5-14.7,12.7-21.5,18.6c-17.4,15.1-32.8,28.5-46.5,40.4c-12.2,10.6-23.3,20.2-33.2,28.9
		c-17.4,15.1-31.9,27.8-44.4,38.6c-20.1,17.4-35.6,30.9-47.9,41.6c-10,8.7-18.4,16-25.4,22.1c-11.2,9.7-19.7,17.1-26.4,23
		c-5.4,4.7-9.9,8.6-13.6,11.8c0,0,0,0,0,0c0,0-57,0-126,0c0,33,0,63.3,0,85.9h10.9c0-20.1,0-46.2,0-75c64.1,0,115.2,0,115.2,0v0
		c3.7-2.3,8.2-5,13.6-8.3c6.7-4.1,15.2-9.3,26.4-16.2c7-4.3,15.4-9.4,25.4-15.5c12.3-7.5,27.8-17,47.9-29.3
		c12.5-7.6,27.1-16.6,44.4-27.2c10-6.1,21-12.9,33.3-20.4c13.7-8.4,29.1-17.8,46.6-28.5c6.7-4.1,13.7-8.4,21.1-12.9V301.7z"/>
	<path class="st2" d="M0.9,391.2c0.4,0.3,0.9,0.5,1.3,0.8c17.5,10.7,32.9,20.1,46.6,28.5C61,428,72,434.8,82,440.9
		c17.4,10.6,32,19.6,44.4,27.2c20.1,12.3,35.6,21.8,47.9,29.3c10,6.1,18.4,11.2,25.4,15.5c11.2,6.9,19.7,12.1,26.4,16.2
		c5.4,3.3,9.8,6,13.6,8.3v0c0,0,51.1,0,115.2,0c0,28.7,0,54.9,0,75h10.9c0-22.6,0-52.8,0-85.9c-69.1,0-126,0-126,0c0,0,0,0,0,0
		c-3.7-3.3-8.2-7.1-13.6-11.8c-6.7-5.8-15.2-13.2-26.4-23c-7-6.1-15.4-13.3-25.4-22.1c-12.3-10.7-27.8-24.2-47.9-41.6
		c-12.4-10.8-27-23.5-44.4-38.6c-10-8.7-21-18.2-33.2-28.9c-13.7-11.9-29.1-25.2-46.5-40.4c-0.5-0.5-1.1-0.9-1.6-1.4V391.2z"/>
	<path class="st3" d="M791.7,232.3c-9.3,0-15.7,0-15.7,0c-2,2.4-4.1,4.7-6,7c-17.4,20.2-32.7,38-46.4,53.8
		c-12.2,14.2-23.2,26.9-33.2,38.5c-17.3,20.1-31.9,37-44.3,51.4c-10.7,12.4-20,23.2-28.2,32.8c-7.3,8.4-13.8,16-19.6,22.7
		c-10,11.6-18.3,21.3-25.4,29.4c-11.2,13-19.7,22.8-26.4,30.6c-5.4,6.3-9.9,11.4-13.6,15.8v0c0,0-63.9,0-138.4,0
		c0,37.8,0,72.8,0,98.2h10.9c0-22.9,0-53.7,0-87.3c69.7,0,127.5,0,127.5,0c0,0,0,0,0,0c0,0,0,0,0,0h0v0c3.7-3.4,8.2-7.4,13.6-12.3
		c6.7-6.1,15.2-13.7,26.4-23.8c7-6.3,15.3-13.9,25.4-22.9c12.3-11.1,27.8-25.1,47.9-43.2c12.4-11.2,27-24.4,44.4-40.1
		c10-9,21-19,33.2-30c13.7-12.3,29-26.2,46.5-41.9c6.8-6.1,13.9-12.6,21.5-19.4V232.3z"/>
	<path class="st3" d="M0.9,309.5c0.5,0.5,1.1,1,1.6,1.5c17.4,15.7,32.8,29.6,46.5,41.9c12.2,11,23.3,21,33.2,30
		c17.4,15.7,31.9,28.8,44.4,40.1c20.1,18.1,35.6,32.1,47.9,43.2c10,9.1,18.4,16.6,25.4,22.9c11.2,10.1,19.7,17.8,26.4,23.8
		c5.4,4.9,9.8,8.9,13.6,12.3v0h0c0,0,0,0,0,0c0,0,0,0,0,0c0,0,57.8,0,127.5,0c0,33.6,0,64.4,0,87.3h10.9c0-25.4,0-60.4,0-98.2
		c-74.5,0-138.4,0-138.4,0v0c-3.7-4.3-8.2-9.5-13.6-15.8c-6.7-7.8-15.2-17.6-26.4-30.6c-7-8.1-15.3-17.8-25.4-29.4
		c-5.8-6.7-12.3-14.3-19.6-22.7c-8.2-9.5-17.5-20.3-28.2-32.8c-12.4-14.4-27-31.3-44.3-51.4c-10-11.6-21-24.3-33.2-38.5
		c-13.6-15.8-29-33.6-46.4-53.8c-0.7-0.8-1.3-1.5-2-2.3V309.5z"/>
	<path class="st4" d="M226.2,612.5c5.4-4.7,9.9-8.6,13.6-11.9v0h0c0,0,0,0,0,0v0c0,0,20.6,0,52.1,0c0,4.2,0,8.1,0,11.9h-10.9
		c0-0.3,0-0.7,0-1c-25.3,0-41.2,0-41.2,0c0,0,0,0,0,0c-0.3,0.3-0.6,0.6-0.9,1H226.2z"/>
	<path class="st4" d="M546.5,612.5c-5.4-4.7-9.9-8.6-13.6-11.9v0h0c0,0,0,0,0,0v0c0,0-20.6,0-52.1,0c0,4.2,0,8.1,0,11.9h10.9
		c0-0.3,0-0.7,0-1c25.3,0,41.2,0,41.2,0c0,0,0,0,0,0c0.3,0.3,0.6,0.6,0.9,1H546.5z"/>
	<path class="st5" d="M198.1,612.5c0.5-0.3,1.1-0.6,1.6-0.9c11.2-6.5,19.8-11.5,26.5-15.4c5.4-3.2,9.9-5.8,13.7-7.9c0,0,0,0,0,0.1
		c0,0,26.1,0,64.4,0c0,8.8,0,16.9,0,24.2h-10.9c0-4.2,0-8.6,0-13.3c-32.3,0-53.5,0-53.5,0c-3.8,3.1-8.2,6.9-13.7,11.4
		c-0.7,0.6-1.5,1.2-2.3,1.9H198.1z"/>
	<path class="st5" d="M574.6,612.5c-0.5-0.3-1.1-0.6-1.6-0.9c-11.2-6.5-19.8-11.5-26.5-15.4c-5.4-3.2-9.9-5.8-13.7-7.9
		c0,0,0,0,0,0.1c0,0-26.1,0-64.4,0c0,8.8,0,16.9,0,24.2h10.9c0-4.2,0-8.6,0-13.3c32.3,0,53.5,0,53.5,0c3.8,3.1,8.2,6.9,13.7,11.4
		c0.7,0.6,1.5,1.2,2.3,1.9H574.6z"/>
	<path class="st6" d="M114.6,612.5c4-1.2,7.9-2.3,11.6-3.4c20.2-5.9,35.8-10.4,48.1-14c10.1-2.9,18.4-5.4,25.5-7.4
		c11.2-3.3,19.8-5.8,26.5-7.7c5.4-1.6,9.8-2.9,13.6-4v0h0c0,0,0,0,0.1,0c0,0,0,0,0,0c0,0,31.8,0,76.7,0c0,13.5,0,25.9,0,36.5h-10.9
		c0-7.7,0-16.3,0-25.7c-39.1,0-65.8,0-65.8,0c0,0,0,0,0,0c-3.8,2.1-8.2,4.5-13.7,7.5c-6.7,3.7-15.3,8.4-26.5,14.5
		c-2.1,1.1-4.3,2.3-6.6,3.6H114.6z"/>
	<path class="st6" d="M658.1,612.5c-4-1.2-7.9-2.3-11.6-3.4c-20.2-5.9-35.8-10.4-48.1-14c-10.1-2.9-18.4-5.4-25.5-7.4
		c-11.2-3.3-19.8-5.8-26.5-7.7c-5.4-1.6-9.8-2.9-13.6-4v0h0c0,0,0,0-0.1,0c0,0,0,0,0,0c0,0-31.8,0-76.7,0c0,13.5,0,25.9,0,36.5H467
		c0-7.7,0-16.3,0-25.7c39.1,0,65.8,0,65.8,0c0,0,0,0,0,0c3.8,2.1,8.2,4.5,13.7,7.5c6.7,3.7,15.3,8.4,26.5,14.5
		c2.1,1.1,4.3,2.3,6.6,3.6H658.1z"/>
	<path class="st7" d="M0.9,564.1c0.2,0,0.4,0,0.6,0c17.5,0,33-0.1,46.8-0.1c12.3,0,23.4,0,33.4-0.1c17.4,0,32.1-0.1,44.6-0.1
		c20.2,0,35.7-0.1,48.1-0.1c10.1,0,18.4,0,25.5-0.1c11.2,0,19.8,0,26.5-0.1c5.4,0,9.8,0,13.5,0c0,0,37.8,0,89.1,0
		c0,18.4,0,35.1,0,48.9h-10.9c0-11,0-23.9,0-38c-45.6,0-78.1,0-78.1,0c0,0,0,0,0,0c-3.8,1-8.2,2.1-13.7,3.5
		c-6.7,1.7-15.3,3.9-26.5,6.8c-7.1,1.8-15.4,4-25.5,6.6c-12.4,3.2-27.9,7.2-48.1,12.4c-9.7,2.5-20.7,5.3-33.3,8.6c0,0-40.5,0-92,0
		V564.1z"/>
	<path class="st7" d="M791.7,564.1c-7.2,0-14,0-20.5,0c-17.5,0-33-0.1-46.8-0.1c-12.3,0-23.4,0-33.4-0.1c-17.4,0-32.1-0.1-44.6-0.1
		c-20.2,0-35.7-0.1-48.1-0.1c-10.1,0-18.4,0-25.5-0.1c-11.2,0-19.8,0-26.5-0.1c-5.4,0-9.8,0-13.5,0c0,0-37.8,0-89.1,0
		c0,18.4,0,35.1,0,48.9h10.9c0-11,0-23.9,0-38c45.6,0,78.1,0,78.1,0c0,0,0,0,0,0c3.8,1,8.2,2.1,13.7,3.5c6.7,1.7,15.3,3.9,26.5,6.8
		c7,1.8,15.4,4,25.5,6.6c12.4,3.2,27.9,7.2,48.1,12.4c9.7,2.5,20.7,5.3,33.3,8.6c0,0,51.3,0,111.8,0V564.1z"/>
</g>
</svg>
