<!--?xml version="1.0" encoding="UTF-8" standalone="no" ?-->
<svg xmlns="http://www.w3.org/2000/svg" xmlns:xlink="http://www.w3.org/1999/xlink" version="1.1" width="550" height="550" xml:space="preserve"><desc>Created with Fabric.js 1.5.0</desc><defs><style type="text/css">@import url("http://fonts.googleapis.com/css?family=Lato:400,300|Lobster|Architects+Daughter|Roboto|Oswald|Montserrat|Lora|PT+Sans|Ubuntu|Roboto+Slab|Fjalla+One|Indie+Flower|Playfair+Display|Poiret+One|Dosis|Oxygen|Lobster|Play|Shadows+Into+Light|Pacifico|Dancing+Script|Kaushan+Script|Gloria+Hallelujah|Black+Ops+One|Lobster+Two|Satisfy|Pontano+Sans|Domine|Russo+One|Handlee|Courgette|Special+Elite|Amaranth|Vidaloka");@import url(http://localhost:8000/wordpress/wp-content/themes/fb/config/index.php?name=banderole&desc=-%20ext%C3%A9rieur%3Cbr%20%3E%3C/iframe%3E-%20Jet%20550%3Cbr%20/%3E-%20j%E2%80%99ai%20d%C3%A9j%C3%A0%20cr%C3%A9e%20la%20maquette%3Cbr%20/%3E-%20l%20&%20h%20sup%C3%A9rieure%20%C3%A0%202m%3Cbr%20/%3E-%20P%204-5J%20/%20L%203-4J%3C/br%3E-%202.2%20x%202.5%20mcss/fonts.css);</style></defs><defs></defs><g transform="translate(275 275)">
<image xlink:href="http://localhost:8000/wordpress/wp-content/themes/fb/config/dummy_data/products/oriflammes/aile54x240.png" x="-75" y="-275" style="stroke: none; stroke-width: 1; stroke-dasharray: ; stroke-linecap: butt; stroke-linejoin: miter; stroke-miterlimit: 10; fill: rgb(0,0,0); fill-rule: nonzero; opacity: 1;" width="150" height="550" preserveAspectRatio="none"></image>
</g>
<path d="M 496 99 Q 496 99 496.5 99 Q 497 99 496.75 98 Q 496.5 97 496 95.5 Q 495.5 94 495 94 Q 494.5 94 494.5 93.5 Q 494.5 93 494 93 Q 493.5 93 489 93 Q 484.5 93 476 93 Q 467.5 93 456 94 Q 444.5 95 429 95 Q 413.5 95 396.5 97 Q 379.5 99 362 100.5 Q 344.5 102 330 104.5 Q 315.5 107 301.5 110 Q 287.5 113 272 118.5 Q 256.5 124 243.5 128.5 Q 230.5 133 220.5 137.5 Q 210.5 142 201.5 145.5 Q 192.5 149 187.5 151 Q 182.5 153 177.5 155.5 Q 172.5 158 168.5 159.5 Q 164.5 161 161 162.5 Q 157.5 164 156 164 Q 154.5 164 153.5 164.5 Q 152.5 165 152 165 Q 151.5 165 151 165.5 Q 150.5 166 148.5 167 Q 146.5 168 144 168.5 Q 141.5 169 140 170 Q 138.5 171 137 172 Q 135.5 173 133.5 175 Q 131.5 177 130 179 Q 128.5 181 127 185.5 Q 125.5 190 123.5 215.5 Q 121.5 241 122 245 Q 122.5 249 123 252.5 Q 123.5 256 124 259 Q 124.5 262 124.5 263.5 Q 124.5 265 125 266.5 Q 125.5 268 126.5 270 Q 127.5 272 129 273.5 Q 130.5 275 133 277.5 Q 135.5 280 139.5 283 Q 143.5 286 150 289.5 Q 156.5 293 168 297 Q 179.5 301 200 303.5 Q 220.5 306 248 307 Q 275.5 308 302 308 Q 328.5 308 359 307.5 Q 389.5 307 414 302 Q 438.5 297 455 289 Q 471.5 281 484 271.5 Q 496.5 262 502.5 254.5 Q 508.5 247 511.5 241.5 Q 514.5 236 515.5 230 Q 516.5 224 516.5 221 Q 516.5 218 514.5 215.5 Q 512.5 213 507.5 210 Q 502.5 207 493.5 204 Q 484.5 201 466 199 Q 447.5 197 419 193 Q 390.5 189 347.5 189 Q 304.5 189 257.5 189 Q 210.5 189 164.5 192 Q 118.5 195 83.5 200.5 Q 48.5 206 25 211.5 Q 1.5 217 -16 224.5 Q -33.5 232 -40.5 237 Q -47.5 242 -52 246.5 Q -56.5 251 -59 255 Q -61.5 259 -63 261.5 Q -64.5 264 -65.5 265.5 Q -66.5 267 -66.5 267.5 Q -66.5 268 -66 268 Q -65.5 268 -65 268 Q -64.5 268 -62.5 268 Q -60.5 268 -55.5 268 Q -50.5 268 -45 268 Q -39.5 268 -32 267 Q -24.5 266 -16 265.5 Q -7.5 265 2.5 264.5 Q 12.5 264 19.5 262 Q 26.5 260 31.5 259 Q 36.5 258 38.5 257 Q 40.5 256 41.5 256 Q 42.5 256 43 256 Q 43.5 256 44.5 256.5 Q 45.5 257 47 259 Q 48.5 261 49 263.5 Q 49.5 266 49.5 267.5 Q 49.5 269 50 270.5 Q 50.5 272 51 273 Q 51.5 274 51.5 274.5 Q 51.5 275 52.5 275.5 Q 53.5 276 54 276 Q 54.5 276 56 276 Q 57.5 276 61.5 274.5 Q 65.5 273 69 270.5 Q 72.5 268 76.5 265 Q 80.5 262 83.5 257.5 Q 86.5 253 88.5 250 Q 90.5 247 92.5 244 Q 94.5 241 96 238 Q 97.5 235 99 233 Q 100.5 231 101.5 230.5 Q 102.5 230 104 230 Q 105.5 230 106 230 Q 106.5 230 107.5 230 Q 108.5 230 110 231.5 Q 111.5 233 113 237 Q 114.5 241 115.5 246 Q 116.5 251 117 257 Q 117.5 263 120 269.5 Q 122.5 276 123 285.5 Q 123.5 295 124 302 Q 124.5 309 126.5 319.5 Q 128.5 330 131 337.5 Q 133.5 345 138 355 Q 142.5 365 144.5 370 Q 146.5 375 149 381.5 Q 151.5 388 152.5 391.5 Q 153.5 395 156 399 Q 158.5 403 162 406 Q 165.5 409 167 411 Q 168.5 413 171 414.5 Q 173.5 416 178.5 418.5 Q 183.5 421 193.5 423 Q 203.5 425 218 426 Q 232.5 427 255 425.5 Q 277.5 424 296.5 419.5 Q 315.5 415 331.5 407 Q 347.5 399 357 389.5 Q 366.5 380 375.5 368.5 Q 384.5 357 388.5 344.5 Q 392.5 332 395.5 322 Q 398.5 312 398.5 302.5 Q 398.5 293 398.5 286 Q 398.5 279 396 272.5 Q 393.5 266 390.5 260 Q 387.5 254 381 247 Q 374.5 240 364.5 232 Q 354.5 224 347.5 219 Q 340.5 214 332 209 Q 323.5 204 318.5 202 Q 313.5 200 306 198 Q 298.5 196 290 194 Q 281.5 192 275 192 Q 268.5 192 261.5 192 Q 254.5 192 244.5 195 Q 234.5 198 227.5 203 Q 220.5 208 212.5 215 Q 204.5 222 198.5 236.5 Q 192.5 251 187.5 262 Q 182.5 273 179.5 290 Q 176.5 307 175 320.5 Q 173.5 334 171.5 344.5 Q 169.5 355 167.5 366 Q 165.5 377 165 382.5 Q 164.5 388 164.5 391 Q 164.5 394 164.5 395.5 Q 164.5 397 164.5 398.5 Q 164.5 400 166 401.5 Q 167.5 403 172 405 Q 176.5 407 184 408 Q 191.5 409 200 409 Q 208.5 409 221.5 408 Q 234.5 407 248 404.5 Q 261.5 402 269.5 398 Q 277.5 394 283.5 388.5 Q 289.5 383 294.5 378 Q 299.5 373 302 365 Q 304.5 357 305.5 349 Q 306.5 341 307.5 336 Q 308.5 331 309 325 Q 309.5 319 309.5 312.5 Q 309.5 306 307.5 301 Q 305.5 296 302.5 291 Q 299.5 286 297 283 Q 294.5 280 291.5 278 Q 288.5 276 285 275.5 Q 281.5 275 276.5 274.5 Q 271.5 274 265.5 274.5 Q 259.5 275 253.5 278.5 Q 247.5 282 240 291 Q 232.5 300 224 312.5 Q 215.5 325 210 343 Q 204.5 361 201 383 Q 197.5 405 196.5 426 Q 195.5 447 195.5 459.5 Q 195.5 472 196 480 Q 196.5 488 199 493 Q 201.5 498 204.5 498.5 Q 207.5 499 214 499 Q 220.5 499 227.5 499 Q 234.5 499 243.5 496 Q 252.5 493 264 485 Q 275.5 477 281.5 471.5 Q 287.5 466 293.5 456 Q 299.5 446 303 425 Q 306.5 404 306.5 393.5 Q 306.5 383 304.5 378.5 Q 302.5 374 301 372 Q 299.5 370 296.5 368.5 Q 293.5 367 289 367 Q 284.5 367 282 370 Q 279.5 373 275.5 382.5 Q 271.5 392 267.5 407.5 Q 263.5 423 257.5 443.5 Q 251.5 464 249 484 Q 246.5 504 244 519 Q 241.5 534 240 544.5 Q 238.5 555 237.5 561 Q 236.5 567 236.5 568 Q 236.5 569 237.5 569.5 Q 238.5 570 241.5 570 Q 244.5 570 248 568 Q 251.5 566 257.5 560.5 Q 263.5 555 270 544 Q 276.5 533 281.5 524 Q 286.5 515 291.5 504 Q 296.5 493 301.5 485 Q 306.5 477 310.5 472.5 Q 314.5 468 317 464.5 Q 319.5 461 322 459 Q 324.5 457 325 455.5 Q 325.5 454 325.5 454.5 Q 325.5 455 325.5 457 Q 325.5 459 326 462.5 Q 326.5 466 328 469 Q 329.5 472 334.5 473.5 Q 339.5 475 354 474.5 Q 368.5 474 380 470 Q 391.5 466 400.5 462 Q 409.5 458 417.5 450 Q 425.5 442 432 433.5 Q 438.5 425 442.5 412 Q 446.5 399 447 390.5 Q 447.5 382 441 356.5 Q 434.5 331 424 322.5 Q 413.5 314 406.5 309.5 Q 399.5 305 390 302 Q 380.5 299 369.5 297 Q 358.5 295 350 295 Q 341.5 295 334 295 Q 326.5 295 320 295 Q 313.5 295 308 295.5 Q 302.5 296 299 297 Q 295.5 298 292 298.5 Q 288.5 299 287 299 Q 285.5 299 285 299 Q 284.5 299 284 299 Q 283.5 299 283.5 297.5 Q 283.5 296 283.5 294.5 Q 283.5 293 283.5 291.5 Q 283.5 290 284 289 L 284.5 288" style="stroke: #000000; stroke-width: 30; stroke-dasharray: ; stroke-linecap: round; stroke-linejoin: round; stroke-miterlimit: 10; fill: none; fill-rule: nonzero; opacity: 1;" transform="translate(225 331.5) translate(-225, -331.5) " stroke-linecap="round"></path>
</svg>