<!--?xml version="1.0" encoding="UTF-8" standalone="no" ?-->
<svg xmlns="http://www.w3.org/2000/svg" xmlns:xlink="http://www.w3.org/1999/xlink" version="1.1" width="550" height="550" xml:space="preserve"><desc>Created with Fabric.js 1.5.0</desc><defs><style type="text/css">@import url("http://fonts.googleapis.com/css?family=Lato:400,300|Lobster|Architects+Daughter|Roboto|Oswald|Montserrat|Lora|PT+Sans|Ubuntu|Roboto+Slab|Fjalla+One|Indie+Flower|Playfair+Display|Poiret+One|Dosis|Oxygen|Lobster|Play|Shadows+Into+Light|Pacifico|Dancing+Script|Kaushan+Script|Gloria+Hallelujah|Black+Ops+One|Lobster+Two|Satisfy|Pontano+Sans|Domine|Russo+One|Handlee|Courgette|Special+Elite|Amaranth|Vidaloka");@import url(http://designtailor.veepixel.com/v1/index.htmlcss/fonts.css);</style></defs><defs></defs><g transform="translate(275 275)">
<image xlink:href="http://designtailor.veepixel.com/v1/dummy_data/products/t_shirts/20.png" x="-250" y="-275" style="stroke: none; stroke-width: 1; stroke-dasharray: ; stroke-linecap: butt; stroke-linejoin: miter; stroke-miterlimit: 10; fill: rgb(0,0,0); fill-rule: nonzero; opacity: 1;" width="500" height="550" preserveAspectRatio="none"></image>
</g>
<g style="stroke: none; stroke-width: 1; stroke-dasharray: ; stroke-linecap: butt; stroke-linejoin: miter; stroke-miterlimit: 10; fill: #000000; fill-rule: nonzero; opacity: 1;" transform="translate(275.024825 258.024825) scale(0.35 0.35)">
<path d="m 240.804 112.435 c -10.231 0 -18.521 8.074 -18.521 18.032 c 0 9.959 8.289 18.032 18.521 18.032 c -10.231 0 -18.521 8.075 -18.521 18.034 c 0 9.958 8.289 18.032 18.521 18.032 c 18.516 0 41.664 -36.066 41.664 -36.066 s -23.15 -36.064 -41.664 -36.064 z" style="stroke: none; stroke-width: 1; stroke-dasharray: ; stroke-linecap: butt; stroke-linejoin: miter; stroke-miterlimit: 10; fill: #000000; fill-rule: nonzero; opacity: 1;" transform="" stroke-linecap="round"></path>
<path d="m 214.369 148.5 c -1.873 -2.656 -3.336 -5.611 -4.318 -8.771 h -15.743 c -1.597 -30.617 -11.548 -59.557 -29.03 -84.169 c -18.602 -26.19 -45.07 -45.758 -74.527 -55.104 c -2.964 -0.938 -6.196 -0.411 -8.704 1.427 c -2.509 1.835 -3.991 4.757 -3.991 7.865 v 129.98 h -18.949 l -29.597 -29.598 c -3.427 -3.425 -8.98 -3.425 -12.407 0 c -3.426 3.426 -3.426 8.981 0 12.407 l 25.964 25.964 l -25.964 25.964 c -3.426 3.426 -3.426 8.981 0 12.407 c 1.714 1.712 3.958 2.569 6.204 2.569 c 2.245 0 4.49 -0.857 6.203 -2.569 l 29.599 -29.599 h 18.947 v 129.979 c 0 3.107 1.482 6.03 3.991 7.865 c 1.691 1.239 3.712 1.883 5.758 1.883 c 0.988 0 1.98 -0.15 2.946 -0.456 c 29.457 -9.345 55.925 -28.913 74.526 -55.102 c 17.482 -24.612 27.434 -53.552 29.03 -84.169 h 15.743 c 0.983 -3.16 2.445 -6.116 4.319 -8.773 z m -116.817 124.615 v -115.842 h 77.205 c -3.148 50.989 -33.476 96.215 -77.205 115.842 z m 0 -133.387 v -115.842 c 43.73 19.628 74.058 64.854 77.205 115.843 h -77.205 z" style="stroke: none; stroke-width: 1; stroke-dasharray: ; stroke-linecap: butt; stroke-linejoin: miter; stroke-miterlimit: 10; fill: #000000; fill-rule: nonzero; opacity: 1;" transform="" stroke-linecap="round"></path>
</g>
	<g transform="translate(278.61 455.8) scale(0.96 0.96)">
		<text font-family="carme" font-size="32" font-weight="normal" style="stroke: none; stroke-width: 1; stroke-dasharray: ; stroke-linecap: butt; stroke-linejoin: miter; stroke-miterlimit: 10; fill: #000000; fill-rule: nonzero; opacity: 1;"><tspan x="-62.4141" y="7.1872" fill="#000000">New Text</tspan></text>
	</g>
	<g transform="translate(219.3 382.96) rotate(193.82) scale(0.93 0.93)">
		<text font-family="montserrat" font-size="32" font-style="italic" font-weight="bold" text-decoration=" underline line-through" style="stroke: none; stroke-width: 1; stroke-dasharray: ; stroke-linecap: butt; stroke-linejoin: miter; stroke-miterlimit: 10; fill: #ed0000; fill-rule: nonzero; opacity: 0.79;"><tspan x="-26.704" y="7.1872" fill="#ed0000">erg</tspan></text>
	</g>
<path d="M 176.5 199 Q 176.5 199 177 199 Q 177.5 199 177.25 200 Q 177 201 177 207.5 Q 177 214 177 222.5 Q 177 231 177 239.5 Q 177 248 177.5 255.5 Q 178 263 179.5 269 Q 181 275 182 278 Q 183 281 184 284 Q 185 287 185 288 Q 185 289 185.5 289.5 L 186 290" style="stroke: #000000; stroke-width: 30; stroke-dasharray: ; stroke-linecap: round; stroke-linejoin: round; stroke-miterlimit: 10; fill: none; fill-rule: nonzero; opacity: 1;" transform="translate(181.25 244.5) translate(-181.25, -244.5) " stroke-linecap="round"></path>
	<g transform="translate(284.91 145.03) rotate(16.55)">
		<text font-family="carme" font-size="32" font-weight="normal" style="stroke: none; stroke-width: 1; stroke-dasharray: ; stroke-linecap: butt; stroke-linejoin: miter; stroke-miterlimit: 10; fill: #000000; fill-rule: nonzero; opacity: 1;"><tspan x="-16" y="7.1872" fill="#000000">bn</tspan></text>
	</g>
<g style="stroke: none; stroke-width: 1; stroke-dasharray: ; stroke-linecap: butt; stroke-linejoin: miter; stroke-miterlimit: 10; fill: #000000; fill-rule: nonzero; opacity: 1;" transform="translate(223.025 223.025) scale(0.35 0.35)">
<path d="m 166.961 146.992 c -2.918 0 -5.714 1.191 -7.875 3.354 c -3.226 3.232 -8.461 3.235 -11.691 0.007 c -1.615 -1.612 -2.424 -3.727 -2.425 -5.844 c -0.001 -2.115 0.805 -4.231 2.418 -5.848 c 4.195 -4.199 4.493 -10.737 0.663 -14.572 c -1.728 -1.73 -4.087 -2.683 -6.644 -2.683 c -2.917 0 -5.714 1.191 -7.874 3.354 c -6.301 6.314 -5.89 27.205 -3.434 42.872 c 4.976 0.756 12.741 1.693 20.621 1.693 c 0.002 0 0.003 0 0.004 0 c 15.463 0 20.679 -3.553 22.203 -5.079 c 4.199 -4.204 4.502 -10.738 0.677 -14.569 c -1.727 -1.732 -4.087 -2.685 -6.643 -2.685 z" style="stroke: none; stroke-width: 1; stroke-dasharray: ; stroke-linecap: butt; stroke-linejoin: miter; stroke-miterlimit: 10; fill: #000000; fill-rule: nonzero; opacity: 1;" transform="" stroke-linecap="round"></path>
<path d="m 199.091 98.578 c -13.87 -13.891 -32.043 -20.836 -50.222 -20.834 c -18.173 0.001 -36.351 6.946 -50.219 20.834 c -27.737 27.781 -27.735 72.813 0.001 100.594 c 13.868 13.887 32.044 20.829 50.22 20.829 s 36.352 -6.942 50.22 -20.829 c 27.734 -27.778 27.733 -72.813 0 -100.594 z m -14.463 77.35 c -6.669 6.682 -17.762 9.932 -33.903 9.932 c -0.001 0 -0.001 0 -0.004 0 c -14.867 0 -28.816 -2.85 -29.402 -2.971 c -3.232 -0.668 -5.758 -3.193 -6.424 -6.425 c -1.61 -7.81 -8.846 -47.565 6.938 -63.387 c 5.29 -5.293 12.24 -8.204 19.575 -8.204 c 6.979 0 13.494 2.676 18.345 7.536 c 4.936 4.942 7.429 11.447 7.503 18.05 c 6.866 0.074 13.266 2.744 18.051 7.534 c 10.257 10.276 9.952 27.293 -0.679 37.935 z" style="stroke: none; stroke-width: 1; stroke-dasharray: ; stroke-linecap: butt; stroke-linejoin: miter; stroke-miterlimit: 10; fill: #000000; fill-rule: nonzero; opacity: 1;" transform="" stroke-linecap="round"></path>
<path d="m 88.412 88.356 c 7.945 -7.958 17.185 -14.146 27.236 -18.39 c 6.73 -22.947 1.08 -48.793 -16.965 -66.863 c -1.655 -1.656 -3.822 -2.702 -6.148 -2.966 c -0.801 -0.09 -1.601 -0.137 -2.378 -0.137 c -14.18 0 -17.883 13.468 -19.873 20.702 c -1.051 3.822 -2.243 8.154 -3.996 9.91 c -0.757 0.759 -1.189 1.094 -3.505 1.094 c -0.817 0 -1.637 -0.038 -2.456 -0.074 c -1.065 -0.047 -2.166 -0.095 -3.36 -0.095 c -4.716 0 -11.727 0.742 -18.133 7.16 c -7.65 7.661 -7.274 16.322 -7.049 21.498 c 0.192 4.44 0.036 4.934 -1.026 5.997 c -1.748 1.751 -6.067 2.942 -9.879 3.994 c -7.256 2.001 -22.355 6.167 -20.533 22.266 c 0.263 2.321 1.304 4.484 2.955 6.138 c 12.736 12.76 29.674 19.786 47.691 19.786 c 6.572 0 12.993 -0.948 19.125 -2.755 c 4.161 -9.914 10.245 -19.203 18.294 -27.265 z" style="stroke: none; stroke-width: 1; stroke-dasharray: ; stroke-linecap: butt; stroke-linejoin: miter; stroke-miterlimit: 10; fill: #000000; fill-rule: nonzero; opacity: 1;" transform="" stroke-linecap="round"></path>
<path d="m 296.653 204.553 c -0.263 -2.322 -1.304 -4.487 -2.956 -6.141 c -12.738 -12.758 -29.676 -19.783 -47.694 -19.783 c -6.142 0 -12.15 0.832 -17.915 2.42 c -4.165 10.322 -10.418 19.99 -18.761 28.346 c -8.229 8.239 -17.844 14.58 -28.313 18.829 c -6.196 22.647 -0.438 47.915 17.301 65.675 c 1.654 1.656 3.822 2.702 6.148 2.966 c 0.802 0.091 1.601 0.136 2.376 0.136 c 14.181 0 17.885 -13.465 19.873 -20.699 c 1.052 -3.822 2.244 -8.153 3.996 -9.909 c 0.759 -0.76 1.192 -1.097 3.518 -1.097 c 0.816 0 1.631 0.039 2.447 0.074 c 1.06 0.047 2.155 0.094 3.344 0.094 c 4.721 -0.001 11.736 -0.742 18.145 -7.161 c 7.65 -7.659 7.273 -16.32 7.049 -21.494 c -0.193 -4.439 -0.037 -4.932 1.025 -5.995 c 1.748 -1.751 6.068 -2.943 9.88 -3.994 c 7.258 -2.006 22.357 -6.171 20.537 -22.267 z" style="stroke: none; stroke-width: 1; stroke-dasharray: ; stroke-linecap: butt; stroke-linejoin: miter; stroke-miterlimit: 10; fill: #000000; fill-rule: nonzero; opacity: 1;" transform="" stroke-linecap="round"></path>
</g>
<g style="stroke: none; stroke-width: 1; stroke-dasharray: ; stroke-linecap: butt; stroke-linejoin: miter; stroke-miterlimit: 10; fill: #000000; fill-rule: nonzero; opacity: 1;" transform="translate(223.025 223.025) scale(0.35 0.35)">
<path d="m 245.234 84.705 c 0 -5.775 -4.683 -10.458 -10.458 -10.458 h -172.552 c -5.775 0 -10.458 4.683 -10.458 10.458 v 45.491 h 193.469 v -45.491 z m -169.939 35.033 c -5.773 0 -10.458 -4.686 -10.458 -10.458 c 0 -5.773 4.685 -10.457 10.458 -10.457 c 5.782 0 10.458 4.684 10.458 10.457 c 0 5.773 -4.676 10.458 -10.458 10.458 z m 29.281 0 c -5.772 0 -10.457 -4.686 -10.457 -10.458 c 0 -5.773 4.685 -10.457 10.457 -10.457 c 5.772 0 10.458 4.684 10.458 10.457 c 0 5.773 -4.685 10.458 -10.458 10.458 z m 29.282 0 c -5.773 0 -10.458 -4.686 -10.458 -10.458 c 0 -5.773 4.685 -10.457 10.458 -10.457 c 5.782 0 10.458 4.684 10.458 10.457 c 0 5.773 -4.675 10.458 -10.458 10.458 z m 29.282 0 c -5.773 0 -10.458 -4.686 -10.458 -10.458 c 0 -5.773 4.685 -10.457 10.458 -10.457 c 5.782 0 10.458 4.684 10.458 10.457 c 0 5.773 -4.676 10.458 -10.458 10.458 z m 29.282 0 c -5.774 0 -10.458 -4.686 -10.458 -10.458 c 0 -5.773 4.685 -10.457 10.458 -10.457 c 5.771 0 10.457 4.684 10.457 10.457 c 0 5.773 -4.686 10.458 -10.457 10.458 z m 29.281 0 c -5.773 0 -10.458 -4.686 -10.458 -10.458 c 0 -5.773 4.685 -10.457 10.458 -10.457 c 5.782 0 10.458 4.684 10.458 10.457 c 0 5.773 -4.676 10.458 -10.458 10.458 z" style="stroke: none; stroke-width: 1; stroke-dasharray: ; stroke-linecap: butt; stroke-linejoin: miter; stroke-miterlimit: 10; fill: #000000; fill-rule: nonzero; opacity: 1;" transform="" stroke-linecap="round"></path>
<path d="m 180.989 61.175 c 6.527 -7.879 9.743 -15.266 9.743 -22.372 c 0 -14.763 -11.818 -26.773 -26.345 -26.773 c -5.962 0 -11.468 2.023 -15.887 5.429 c -4.42 -3.405 -9.927 -5.429 -15.889 -5.429 c -14.526 0 -26.345 12.011 -26.345 26.773 c 0 7.106 3.216 14.494 9.743 22.372 h 64.98 z" style="stroke: none; stroke-width: 1; stroke-dasharray: ; stroke-linecap: butt; stroke-linejoin: miter; stroke-miterlimit: 10; fill: #000000; fill-rule: nonzero; opacity: 1;" transform="" stroke-linecap="round"></path>
<path d="m 279.745 153.726 c 0 -5.775 -4.683 -10.457 -10.458 -10.457 h -241.574 c -5.775 0 -10.458 4.682 -10.458 10.457 v 63.27 h 262.49 v -63.27 z m -219.09 51.765 c -5.773 0 -10.458 -4.686 -10.458 -10.457 c 0 -5.773 4.685 -10.458 10.458 -10.458 c 5.782 0 10.468 4.684 10.468 10.458 c 0 5.772 -4.686 10.457 -10.468 10.457 z m 29.281 0 c -5.773 0 -10.458 -4.686 -10.458 -10.457 c 0 -5.773 4.685 -10.458 10.458 -10.458 c 5.782 0 10.458 4.684 10.458 10.458 c 0 5.772 -4.675 10.457 -10.458 10.457 z m 29.283 0 c -5.773 0 -10.458 -4.686 -10.458 -10.457 c 0 -5.773 4.685 -10.458 10.458 -10.458 c 5.782 0 10.457 4.684 10.457 10.458 c 0 5.772 -4.675 10.457 -10.457 10.457 z m 29.281 0 c -5.773 0 -10.458 -4.686 -10.458 -10.457 c 0 -5.773 4.685 -10.458 10.458 -10.458 c 5.782 0 10.458 4.684 10.458 10.458 c 0 5.772 -4.676 10.457 -10.458 10.457 z m 29.282 0 c -5.773 0 -10.458 -4.686 -10.458 -10.457 c 0 -5.773 4.685 -10.458 10.458 -10.458 c 5.782 0 10.457 4.684 10.457 10.458 c 0 5.772 -4.675 10.457 -10.457 10.457 z m 29.282 0 c -5.774 0 -10.458 -4.686 -10.458 -10.457 c 0 -5.773 4.684 -10.458 10.458 -10.458 c 5.782 0 10.458 4.684 10.458 10.458 c -0.001 5.772 -4.676 10.457 -10.458 10.457 z m 29.281 0 c -5.772 0 -10.457 -4.686 -10.457 -10.457 c 0 -5.773 4.685 -10.458 10.457 -10.458 c 5.783 0 10.458 4.684 10.458 10.458 c 0 5.772 -4.675 10.457 -10.458 10.457 z" style="stroke: none; stroke-width: 1; stroke-dasharray: ; stroke-linecap: butt; stroke-linejoin: miter; stroke-miterlimit: 10; fill: #000000; fill-rule: nonzero; opacity: 1;" transform="" stroke-linecap="round"></path>
<path d="m 286.542 229.544 h -276.084 c -5.775 0 -10.458 4.683 -10.458 10.458 c 0 5.775 4.683 10.458 10.458 10.458 h 127.584 v 13.596 h -24.053 c -5.775 0 -10.458 4.682 -10.458 10.457 s 4.683 10.458 10.458 10.458 h 69.021 c 5.775 0 10.457 -4.683 10.457 -10.458 s -4.682 -10.457 -10.457 -10.457 h -24.053 v -13.596 h 127.584 c 5.775 0 10.458 -4.683 10.458 -10.458 c 0.001 -5.775 -4.682 -10.458 -10.457 -10.458 z" style="stroke: none; stroke-width: 1; stroke-dasharray: ; stroke-linecap: butt; stroke-linejoin: miter; stroke-miterlimit: 10; fill: #000000; fill-rule: nonzero; opacity: 1;" transform="" stroke-linecap="round"></path>
</g>
<g style="stroke: none; stroke-width: 1; stroke-dasharray: ; stroke-linecap: butt; stroke-linejoin: miter; stroke-miterlimit: 10; fill: #000000; fill-rule: nonzero; opacity: 1;" transform="translate(263.025 88.025) scale(0.35 0.35)">
<path d="m 216.463 40.66 c 23.806 0 41.594 -10.733 41.594 -20.331 c 0 -9.597 -17.788 -20.329 -41.594 -20.329 c -23.736 0 -41.473 10.732 -41.473 20.329 c 0 9.598 17.737 20.331 41.473 20.331 z" style="stroke: none; stroke-width: 1; stroke-dasharray: ; stroke-linecap: butt; stroke-linejoin: miter; stroke-miterlimit: 10; fill: #000000; fill-rule: nonzero; opacity: 1;" transform="" stroke-linecap="round"></path>
<path d="m 216.523 119.903 c 22.901 0 41.533 -18.632 41.533 -41.533 v -34.249 c -10.213 6.924 -24.949 11.205 -41.594 11.205 c -7.977 0 -15.508 -0.996 -22.318 -2.791 c 5.979 5.568 9.437 12.312 9.437 19.651 v 45.64 c 4.075 1.342 8.424 2.077 12.942 2.077 z" style="stroke: none; stroke-width: 1; stroke-dasharray: ; stroke-linecap: butt; stroke-linejoin: miter; stroke-miterlimit: 10; fill: #000000; fill-rule: nonzero; opacity: 1;" transform="" stroke-linecap="round"></path>
<path d="m 261.085 138.559 c -3.915 -1.618 -8.422 -0.725 -11.417 2.271 l -22.668 22.668 v -29.923 c -3.396 0.644 -6.896 0.995 -10.477 0.995 c -3.583 0 -7.079 -0.357 -10.475 -1.005 v 152.958 c 0 5.785 4.69 10.477 10.475 10.477 c 5.785 0 10.477 -4.691 10.477 -10.477 v -44.543 c 0.354 -0.363 0.692 -0.746 0.998 -1.168 l 37.562 -51.857 c 1.295 -1.787 1.991 -3.939 1.991 -6.145 v -34.571 c 0.001 -4.239 -2.551 -8.058 -6.466 -9.68 z" style="stroke: none; stroke-width: 1; stroke-dasharray: ; stroke-linecap: butt; stroke-linejoin: miter; stroke-miterlimit: 10; fill: #000000; fill-rule: nonzero; opacity: 1;" transform="" stroke-linecap="round"></path>
<path d="m 136.904 185.438 v 101.086 c 0 5.785 4.691 10.477 10.477 10.477 c 5.785 0 10.477 -4.691 10.477 -10.477 v -101.086 c -3.397 0.644 -6.896 0.989 -10.477 0.989 c -3.581 0 -7.08 -0.346 -10.477 -0.989 z" style="stroke: none; stroke-width: 1; stroke-dasharray: ; stroke-linecap: butt; stroke-linejoin: miter; stroke-miterlimit: 10; fill: #000000; fill-rule: nonzero; opacity: 1;" transform="" stroke-linecap="round"></path>
<path d="m 147.32 51.857 c -23.737 0 -41.473 10.732 -41.473 20.329 s 17.735 20.33 41.473 20.33 c 23.806 0 41.594 -10.733 41.594 -20.33 s -17.788 -20.329 -41.594 -20.329 z" style="stroke: none; stroke-width: 1; stroke-dasharray: ; stroke-linecap: butt; stroke-linejoin: miter; stroke-miterlimit: 10; fill: #000000; fill-rule: nonzero; opacity: 1;" transform="" stroke-linecap="round"></path>
<path d="m 105.848 95.998 v 34.229 c 0 22.901 18.632 41.533 41.533 41.533 c 22.901 0 41.533 -18.632 41.533 -41.533 v -34.249 c -10.213 6.925 -24.949 11.206 -41.594 11.206 c -16.59 0 -31.282 -4.274 -41.472 -11.186 z" style="stroke: none; stroke-width: 1; stroke-dasharray: ; stroke-linecap: butt; stroke-linejoin: miter; stroke-miterlimit: 10; fill: #000000; fill-rule: nonzero; opacity: 1;" transform="" stroke-linecap="round"></path>
<path d="m 36.704 44.141 v 34.23 c 0 22.901 18.633 41.533 41.534 41.533 c 4.519 0 8.867 -0.734 12.942 -2.078 v -45.639 c 0 -7.347 3.458 -14.098 9.435 -19.67 c -6.843 1.806 -14.415 2.81 -22.438 2.81 c -16.59 -0.001 -31.281 -4.274 -41.473 -11.186 z" style="stroke: none; stroke-width: 1; stroke-dasharray: ; stroke-linecap: butt; stroke-linejoin: miter; stroke-miterlimit: 10; fill: #000000; fill-rule: nonzero; opacity: 1;" transform="" stroke-linecap="round"></path>
<path d="M 78.178 40.66 c 23.806 0 41.594 -10.733 41.594 -20.331 C 119.771 10.732 101.983 0 78.178 0 C 54.44 0 36.704 10.732 36.704 20.329 C 36.704 29.927 54.44 40.66 78.178 40.66 z" style="stroke: none; stroke-width: 1; stroke-dasharray: ; stroke-linecap: butt; stroke-linejoin: miter; stroke-miterlimit: 10; fill: #000000; fill-rule: nonzero; opacity: 1;" transform="" stroke-linecap="round"></path>
<path d="m 67.762 133.575 v 27.685 l -20.43 -20.43 c -2.996 -2.996 -7.502 -3.89 -11.417 -2.271 c -3.915 1.622 -6.467 5.441 -6.467 9.68 v 34.571 c 0 2.206 0.696 4.358 1.991 6.145 l 36.322 50.146 v 47.422 c 0 5.785 4.69 10.477 10.477 10.477 c 5.785 0 10.476 -4.691 10.476 -10.477 v -152.96 c -3.396 0.648 -6.894 1.007 -10.476 1.007 c -3.581 -2.84217e-14 -7.08 -0.351 -10.476 -0.995 z" style="stroke: none; stroke-width: 1; stroke-dasharray: ; stroke-linecap: butt; stroke-linejoin: miter; stroke-miterlimit: 10; fill: #000000; fill-rule: nonzero; opacity: 1;" transform="" stroke-linecap="round"></path>
</g>
</svg>