<svg version="1.1" id="Layer_1" xmlns="http://www.w3.org/2000/svg" xmlns:xlink="http://www.w3.org/1999/xlink" x="22px" y="6px" width="400px" height="400px" viewBox="22 6 55 87" enable-background="22 6 55 87" xml:space="preserve"><desc>Copyright Opto 22</desc> <desc>Created with Snap</desc><defs/><g xmlns="http://www.w3.org/2000/svg">
<g id="shape">
	<path fill="#1A1A1A" d="M50,93.2c-1,0-2.1-0.3-3-0.9c-2.2-0.2-5.7-0.7-6.5-2.1l-1.6-2.9l0.5-0.5c0.1-0.1,0.1-0.3,0-0.4
		c-0.9-0.9-0.9-2.3,0-3.2c0.1-0.1,0.1-0.3,0-0.4c-0.9-0.9-0.9-2.3,0-3.2c0.1-0.1,0.1-0.3,0-0.4c-0.4-0.4-0.6-0.9-0.6-1.4l-0.2-0.1
		L38,76.5v-0.2c0-12.6-3.6-17.8-7.1-22.9c-0.1-0.2-0.7-0.9-1.2-1.4c-4.6-5.1-7.1-11.6-7.1-18.5C22.5,18.3,34.8,6,50,6
		c15.2,0,27.5,12.3,27.5,27.5c0,6.8-2.5,13.4-7.1,18.5c0,0,0,0,0,0s-1.4,1.6-1.5,1.8c-4,5.8-6.9,10.8-6.9,22.5v0.2l-0.7,1.3
		c0,0.5-0.3,1-0.6,1.4c-0.1,0.1-0.1,0.1-0.1,0.2c0,0.1,0,0.1,0.1,0.2c0.4,0.4,0.7,1,0.7,1.6s-0.2,1.2-0.7,1.6
		c-0.1,0.1-0.1,0.1-0.1,0.2c0,0.1,0,0.1,0.1,0.2c0.9,0.9,0.9,2.3,0,3.2c0,0-0.1,0.1-0.1,0.1l0.5,1l-1.4,2.6
		c-0.9,1.4-4.4,1.9-6.6,2.1C52.1,92.9,51,93.2,50,93.2z"></path>
</g>
<g id="dark">
	<path fill="#E6E6E6" d="M40.1,87.5l1.2,2.2c0.5,0.8,3,1.4,6,1.6c0.9,0.6,1.8,0.9,2.7,0.9s1.9-0.3,2.7-0.9c3-0.2,5.5-0.9,6-1.6
		l1.2-2.2l-0.4-0.8c0-0.4,0.1-0.8,0.4-1c0.5-0.5,0.5-1.3,0-1.8c-0.5-0.5-0.5-1.3,0-1.8c0.5-0.5,0.5-1.3,0-1.8
		c-0.5-0.5-0.5-1.3,0-1.8c0.5-0.5,0.5-1.3,0-1.8c0,1.4-4.5,2.6-9.9,2.6s-10.9-1.6-9.9-2.6c-0.5,0.5-0.5,1.3,0,1.8
		c0.5,0.5,0.5,1.3,0,1.8c-0.5,0.5-0.5,1.3,0,1.8c0.5,0.5,0.5,1.3,0,1.8c-0.5,0.5-0.5,1.3,0,1.8C40.6,86.2,40.6,87,40.1,87.5z"></path>
</g>
<g id="shadow">
	<path fill="#1A1A1A" d="M59.9,84.2c0,2-4.5,3.5-9.9,3.5c5.5,0,9.9-1.2,9.9-2.6V84.2z"></path>
	<path fill="#1A1A1A" d="M59.9,80.9c0,2-4.5,3.5-9.9,3.5c5.5,0,9.9-1.2,9.9-2.6V80.9z"></path>
	<path fill="#1A1A1A" d="M59.9,77.7c0,2-4.5,3.5-9.9,3.5c5.5,0,9.9-1.2,9.9-2.6V77.7z"></path>
	<path fill="#1A1A1A" d="M50,89.8c-4.2,0-8.3-0.9-9.6-1.8l1.1,2c1.9,0.7,5.2,1.3,8.5,1.3c3.4,0,6.5-0.4,8.2-1.1l1.1-2.1
		C58,89.1,54.3,89.8,50,89.8z"></path>
	<path fill="#1A1A1A" d="M39.8,76.6c0,1.3,4.6,2.3,10.2,2.3s10.2-1,10.2-1.8v0.1c0,1.1-4.6,2.1-10.2,2.1s-10.2-0.9-10.2-2.1"></path>
</g>
<g id="light">
	<path fill="#FFFFFF" d="M60.2,77.4l0.4-0.3l0.4-0.8c0-12.2,3.2-17.5,7.1-23.1c0.1-0.2,1.6-1.9,1.6-1.9c4.3-4.7,6.9-10.9,6.9-17.8
		C76.5,18.9,64.6,7,50,7S23.5,18.9,23.5,33.5c0,6.9,2.6,13.1,6.9,17.8c0,0,1.1,1.2,1.3,1.5c3.9,5.7,7.3,11,7.3,23.4l0.4,0.7l0.5,0.4
		c0,0,3.9,1.5,10.2,1.5S60.2,77.4,60.2,77.4z"></path>
</g>
</g></svg>
