<svg version="1.1" id="Layer_1" xmlns="http://www.w3.org/2000/svg" xmlns:xlink="http://www.w3.org/1999/xlink" x="29px" y="0px" width="400px" height="400px" viewBox="29 0 40 100" enable-background="29 0 40 100" xml:space="preserve"><desc>Copyright Opto 22</desc> <desc>Created with Snap</desc><defs/><g xmlns="http://www.w3.org/2000/svg">
<g id="shape">

		<path fill="#231F20" d="M48.1,100.8c-4.6,0-8.6-1.4-10.2-3.7l-0.2-0.2l0.1-0.3c0.2-0.3,0.2-0.7,0.2-1.1c0-0.2,0-0.3-0.1-0.5
			c-0.9-1.1-1.4-2.3-1.4-3.5c0-0.6,0.6-1.2,1.2-1c0.1-0.3,0.2-0.6,0.2-1c-0.9-1.1-1.5-2.3-1.5-3.6c0-0.3,0.2-0.7,0.4-0.9l-1.5-0.8
			c-1.6-0.9-2.9-3-2.9-4.8v-8.9c0-1.8,1.3-4,2.9-4.9l2.7-1.4l0-4c0.3-1.7,1.4-7.4,5.4-9.5c0,0,0,0,0,0c-0.9-0.4-1.8-0.7-2.7-0.9
			l-0.4,0c-2,0-4-0.1-5.7-0.3c-0.7-0.1-1.2-0.2-1.7-0.3c-3.6-0.9-3.6-3.9-3.6-4.4c0-0.4,0.4-3.9,4.8-3.9c2.6,0,5.1,0.3,7.5,0.8
			c2.1-0.1,5-0.3,7.9-1c-4.8-0.7-10.1-1-15.2-0.8l-0.2,0c-0.3,0-0.6,0-0.8,0c-2.7-0.1-4-2.1-4.1-3.9c-0.1-1.4,0.7-3.9,4-4.4
			c0.3,0,0.7-0.1,1.3-0.1c5.6-0.6,10.5-1.4,14.5-2.4c-3-0.3-6-0.5-8.9-0.3c-3.5,0.6-5.8,0.8-5.8,0.8c-0.3,0-0.6,0-0.9,0
			c-2.6,0-4-1.9-4.2-3.6c-0.2-1.7,0.7-3.9,3.3-4.6c0.2-0.1,0.6-0.1,1-0.2c1.8-0.3,3.8-0.5,5.9-0.6c2.6-0.5,7.3-1.5,11.8-3.1
			C50.2,17.1,49,17,47.8,17c-4.1,0-8,0.8-11.8,2.4l-0.8,0.3c-2.2,0.9-4.6,0-5.5-2.1c-0.1-0.1-1.4-3.3,1.8-5.2l0-0.1l0.7-0.3
			c8.5-3.8,14.7-6.9,16.9-8.5c1.2-0.9,5.6-2.6,9.9-2.6c2.1,0,3.9,0.4,5.4,1.1c2.9,1.4,4.5,4.1,4.6,7.6c0,2.1-0.5,4.1-1.6,6
			c0.4,0.5,0.8,1,1.1,1.6c2.3,4.1,1.5,7.5,0.5,9.5c-0.2,0.4-0.5,0.8-0.7,1.2c0.8,1.4,1,2.9,0.7,4.4c-0.4,1.9-1,3.7-1.9,5.3
			c1.4,1.3,1.7,2.4,1.8,3c1.2,4.9-3.2,10.5-7.3,13.7c-1.2,1-2.4,1.8-3.7,2.5v6.7l3.5,1.9c1.6,0.9,2.9,3,2.9,4.9v8.9
			c0,1.8-1.3,4-2.9,4.8L59,85.5v1.6c0.3,0.2,0.6,0.5,0.6,0.9c0,1-0.6,2-1.6,2.8c0,0,0,0,0,0c0,0.7,0.2,1.3,0.7,1.7
			c0.5,0.1,0.9,0.5,0.9,1c0,0.6-0.2,1.2-0.6,1.7C58.7,98.4,54,100.8,48.1,100.8z M38.8,96.7c1.5,1.8,5.2,3,9.3,3
			c5.3,0,9.8-2.1,9.9-4.6l0-0.2l0.1-0.1c0.3-0.4,0.5-0.8,0.5-1.2l-0.2,0l-0.2-0.2c-0.7-0.7-1.2-1.6-1.2-2.6c0-0.1,0-0.2,0-0.3l0-0.2
			l0.2-0.2c0.6-0.4,1.4-1.2,1.4-2.1h-0.5L58,87.5v-2.6l3-1.6c1.3-0.7,2.4-2.5,2.4-4v-8.9c0-1.5-1.1-3.3-2.4-4l-4.1-2.2v-7.9l0.3-0.1
			c1.3-0.7,2.5-1.5,3.8-2.5c3.9-3.1,8-8.3,6.9-12.7c-0.1-0.6-0.4-1.6-1.8-2.7l-0.3-0.3l0.2-0.4c0.9-1.6,1.6-3.4,2-5.3
			c0.3-1.3,0-2.7-0.7-3.9L67,28.1l0.2-0.3c0.3-0.4,0.6-0.9,0.8-1.4c1-1.9,1.6-4.9-0.5-8.6c-0.3-0.6-0.7-1.2-1.2-1.7l-0.3-0.3
			l0.2-0.3c1.2-1.8,1.7-3.7,1.7-5.7c-0.1-3.1-1.5-5.5-4-6.7c-1.4-0.7-3-1-4.9-1c-4.1,0-8.2,1.6-9.4,2.4c-2.3,1.6-8.5,4.7-17.1,8.6
			l-0.2,0.1v0l0,0c-2.8,1.4-1.8,3.9-1.7,4.1c0.7,1.5,2.5,2.3,4.2,1.5l0.8-0.3c3.9-1.7,8-2.5,12.2-2.5c1.9,0,3.8,0.2,5.5,0.5l1.6,0.3
			l-1.5,0.6c-4.9,2.1-10.7,3.3-13.7,3.9c-2.2,0.1-4.1,0.3-5.9,0.6c-0.4,0.1-0.7,0.1-0.9,0.2c-2,0.5-2.7,2.1-2.5,3.5
			c0.2,1.3,1.2,2.7,3.2,2.7c0.2,0,0.5,0,0.8,0c0,0,2.3-0.2,5.8-0.8c0.8,0,1.6-0.1,2.3-0.1c3,0,6.2,0.2,9.2,0.7l2.5,0.4L52,29.2
			c-4.5,1.2-10.3,2.3-17.1,3c-0.5,0.1-1,0.1-1.2,0.1c-3.1,0.4-3.1,2.8-3.1,3.3c0.1,1.4,1.1,2.9,3.2,2.9c0.2,0,0.4,0,0.7,0l0.1,0
			c5.9-0.2,12.1,0.2,17.6,1.2l1.9,0.3l-1.8,0.6c-3.7,1.2-7.7,1.6-10.3,1.7l-0.1,0l-0.1,0c-2.3-0.5-4.8-0.8-7.3-0.8
			c-3.4,0-3.7,2.5-3.8,3c0,0.6,0,2.7,2.8,3.4c0.4,0.1,1,0.2,1.6,0.3c1.6,0.2,3.6,0.3,5.5,0.3l0.5,0l0.1,0c1.4,0.4,2.8,0.9,4,1.5
			l1.1,0.6l-1.2,0.4c-0.3,0.1-0.7,0.2-1,0.4c-3.6,1.9-4.6,7.2-4.9,8.7l0,0.3l0,4.2L36,66.5c-1.3,0.7-2.4,2.5-2.4,4v8.9
			c0,1.5,1.1,3.3,2.4,4l2.2,1.2v1.3h-0.5c-0.1,1.1,0.4,2.1,1.3,3.1L39,89l0,0.2c0,0.1,0,0.1,0,0.2c0,0.7-0.2,1.4-0.6,2l-0.3,0.5
			l-0.4-0.4c-0.1,1.1,0.3,2.1,1.1,3l0.1,0.1l0,0.1c0.1,0.3,0.1,0.6,0.1,0.9C39,95.9,39,96.3,38.8,96.7z M45.3,61.5l0.2-1
			c0.3-1.1,0.7-2.2,1-2.9l0.2-0.4l0.4,0.2c1,0.4,2,0.6,3.1,0.7l0.5,0V61l-0.6-0.2c-1.2-0.3-2.8-0.2-3.9,0.2L45.3,61.5z M47.2,58.5
			c-0.2,0.4-0.3,0.8-0.5,1.3c0.9-0.2,2-0.3,3-0.1V59C48.9,58.9,48,58.7,47.2,58.5z M55.2,50.3L54.9,50c-0.6-0.7-1.3-1.4-2.1-2
			l-0.7-0.6l0.9-0.3c2.9-0.9,5.5-2,7.6-3.5l1.8-1.3l-1.1,1.9c-0.9,1.6-2.9,4.1-5.8,5.9L55.2,50.3z M54.1,47.8
			c0.4,0.4,0.8,0.8,1.2,1.2c1.5-1,2.8-2.2,3.7-3.3C57.5,46.5,55.9,47.2,54.1,47.8z M60.1,35.4l-0.4-0.1c-0.6-0.2-1.2-0.3-1.8-0.5
			l-1.5-0.4l1.5-0.5c0.9-0.3,1.8-0.7,2.6-1.1l1.2-0.5l-0.5,1.2c-0.2,0.6-0.5,1.2-0.9,1.7L60.1,35.4z M61.9,24.5l-0.3-0.1
			c-1.1-0.4-2.3-0.8-3.6-1.2l-1.3-0.3l1.2-0.6c1.2-0.6,2.3-1.2,3.3-1.9l0.4-0.3l0.3,0.4c0.1,0.1,0.2,0.3,0.3,0.4
			c0.8,1.4,0.6,2.2,0.3,2.7c-0.1,0.1-0.2,0.3-0.4,0.6L61.9,24.5z M59.5,22.6c0.7,0.2,1.4,0.5,2.1,0.7c0,0,0-0.1,0-0.1
			c0.1-0.2,0.3-0.6-0.3-1.7C60.8,21.9,60.2,22.2,59.5,22.6z M61,12.5l-0.4-0.2c-2-0.9-4.3-1.5-6.8-1.9l-1.7-0.3l1.6-0.7
			c1.3-0.5,3.7-1.1,5.5-1.1c0.9,0,1.6,0.1,2.1,0.4c0.4,0.2,0.5,0.6,0.5,1.3c0,0.3,0,1.1-0.6,2.1L61,12.5z M55.9,9.8
			c1.6,0.4,3.2,0.9,4.6,1.5c0.3-0.6,0.3-1,0.3-1.2c0-0.4-0.1-0.5-0.1-0.5c-0.2-0.1-0.6-0.2-1.5-0.2C58.2,9.3,57,9.5,55.9,9.8z"></path>

</g>
<g id="linear">
	<linearGradient class="linear" id="SVGID_1_" gradientUnits="userSpaceOnUse" x1="37.6477" y1="88.0253" x2="58.5193" y2="88.0253">
		<stop offset="0" style="stop-color:#FFFFFF"></stop>
		<stop offset="1" style="stop-color:#000000"></stop>
	</linearGradient>
	<path class="linear" fill="url(#SVGID_1_)" d="M58.5,88.5V81c0-2.9-4.7-5.2-10.4-5.2S37.6,78.1,37.6,81v6.2c0.6,0.6,0.9,1.3,0.9,2.2
		c0,0.8-0.3,1.6-0.9,2.2v1.8c0.6,0.6,0.9,1.3,0.9,2.2c0,0.5-0.1,0.9-0.3,1.3c1.4,2,5.3,3.5,9.8,3.5c5.8,0,10.4-2.3,10.4-5.2v-1.9
		c-0.7-0.6-1.1-1.4-1.1-2.3C57.4,89.9,57.9,89,58.5,88.5z"></path>
</g>
<g id="light">

		<path fill="#F2F2F2" d="M33.1,79.4c0,1.7,1.2,3.6,2.6,4.4l10.1,5.4c1.5,0.8,3.8,0.8,5.3,0l10.1-5.4c1.5-0.8,2.6-2.8,2.6-4.4v-8.9
			c0-1.7-1.2-3.6-2.6-4.4l-10.1-5.4c-1.5-0.8-3.8-0.8-5.3,0L35.7,66c-1.5,0.8-2.6,2.8-2.6,4.4V79.4z"></path>
		<path fill="none" stroke="#000000" stroke-width="0.5514" stroke-miterlimit="10" d="M33.1,79.4c0,1.7,1.2,3.6,2.6,4.4l10.1,5.4
			c1.5,0.8,3.8,0.8,5.3,0l10.1-5.4c1.5-0.8,2.6-2.8,2.6-4.4v-8.9c0-1.7-1.2-3.6-2.6-4.4l-10.1-5.4c-1.5-0.8-3.8-0.8-5.3,0L35.7,66
			c-1.5,0.8-2.6,2.8-2.6,4.4V79.4z"></path>

</g>
<g id="hlight">
	<path fill="#FFFFFF" d="M42.3,69.4c-1.7,0-3-1.3-3-3l0-6.1c0.2-1.6,1.3-6.8,4.8-8.7c0.8-0.4,1.7-0.7,2.6-0.6
		c-1.4-0.9-3.2-1.8-5.5-2.4c-2.3,0-4.4-0.1-6.2-0.4c-1.4-0.2-4.5-0.6-4.3-3.6c0-0.5,0.4-2.9,3.7-2.9c2.8,0,5.3,0.3,7.5,0.8
		c3.8-0.1,8.4-0.7,12.3-2.5c-4.9-1.1-11.8-1.9-19.7-1.6l-0.1,0c-3.1,0-3.7-1.8-3.8-2.9c-0.2-2.9,2.5-3.2,4.3-3.4
		c9.2-1.1,15.4-2.4,19.5-3.8c-4-0.8-9-1.4-14-1.2c-3.5,0.6-5.9,0.8-6,0.8c-3.3,0.2-3.8-2-3.9-2.6c-0.1-1.1,0.1-3,3.3-3.5
		c1.8-0.3,3.8-0.5,6-0.6c4.5-0.8,10.7-2.4,15.3-4.6c-5.1-1.4-12.2-1.5-19.6,1.6l-0.3,0.1c-0.1,0-0.2,0.1-0.3,0.1l-0.2,0.1l0,0
		c-2.6,0.9-3.7-0.7-4-1.5c-0.1-0.3-1-2.6,1.6-4l0,0l0.1,0c0.1,0,0.1-0.1,0.2-0.1c8.6-3.8,14.8-7,17.1-8.6c1.6-1.2,9.3-3.9,14.2-1.4
		c2.5,1.3,3.9,3.6,4,6.6c0,2.3-0.7,4.3-1.9,6.1c0.6,0.6,1.1,1.3,1.5,2c2.1,3.7,1.4,6.7,0.5,8.5c-0.3,0.6-0.7,1.1-1.1,1.7
		c0.9,1.3,1.3,2.7,1,4.2c-0.4,2.2-1.2,4.1-2.3,5.8c1.2,0.9,2,1.8,2.2,2.9c1.1,4.4-3.1,9.5-6.9,12.6c-1.4,1.1-2.7,2-4.1,2.6v6.1
		c0,1.7-1.3,3-3,3s-3-1.3-3-3v-4.5c-1.4,0-2.8-0.3-4-0.8c-0.5,0.6-1.2,2.3-1.5,3.9v5.4C45.3,68.1,44,69.4,42.3,69.4z M51.9,47.3
		c1.4,1.1,2.5,2.2,3.2,3.1c0.4-0.3,0.9-0.6,1.3-0.9C60,47,61.7,44,62,42.8c-0.1-0.1-0.2-0.1-0.3-0.2C58.9,44.9,55.5,46.4,51.9,47.3z
		 M55.9,34.4c1.5,0.3,2.9,0.7,4.2,1.1c0.7-1,1.3-2.2,1.6-3.5C60.1,32.9,58.2,33.7,55.9,34.4z M56.5,22.9c2,0.5,3.9,1.1,5.5,1.7
		c0.3-0.3,0.5-0.7,0.7-0.9c0.2-0.3,0.6-1.2-0.3-2.8c-0.2-0.3-0.4-0.5-0.6-0.8C60.1,21.1,58.3,22.1,56.5,22.9z M52.2,10.2
		c3.3,0.4,6.3,1.2,8.8,2.4c0.6-0.9,0.9-1.7,0.9-2.6c0-1.1-0.4-1.3-0.6-1.4c-2-1.1-7,0.3-8.1,0.9C52.9,9.8,52.5,10,52.2,10.2z"></path>
	<path fill="#FFFFFF" d="M60.8,68.2c0,0-10.2,5.3-11.3,5.7c-1.2,0.3-8-3.2-8-3.2s14.5-5.6,15.9-5.5C58.8,65.3,61.7,67.2,60.8,68.2z"></path>
</g>
<g id="shadow">

		<path fill="#808080" d="M61.9,22.7c0.4,0.7,0.5,1.1,0.5,1.4c0.1-0.1,0.2-0.3,0.2-0.4c0.1-0.3,0.4-0.8,0.1-1.9
			c-0.3,0.2-0.6,0.4-0.9,0.6C61.8,22.5,61.9,22.6,61.9,22.7z"></path>
		<path fill="#808080" d="M68.5,20.1c0.9,2.7,0.3,4.9-0.5,6.4c-3,5.9-13.3,9.7-32.3,11.9c-0.4,0.2-0.8,0.3-1.3,0.3
			c-2,0-3-0.8-3.4-1.6c0.3,1.6,1.7,2.9,3.4,2.9c0.1,0,0.2,0,0.3,0c4.8-0.4,29-2.6,33.8-12C69.4,26.1,70,23.4,68.5,20.1z"></path>

	<path fill="#808080" d="M61.3,8.6c-2-1.1-7,0.3-8.1,0.9c-3.2,2.2-11,5.9-17.2,8.7c-0.1,0.1-0.2,0.1-0.3,0.2l-0.3,0.1
		c-0.1,0-0.2,0.1-0.3,0.1l-0.2,0.1l0,0c-0.5,0.2-1,0.3-1.4,0.3c-1.3,0-2-0.7-2.4-1.3c0,0.2,0.1,0.5,0.2,0.7c0.6,1.3,1.9,2.1,3.2,2.1
		c0.5,0,0.9-0.1,1.4-0.3l0.2-0.1c3.1-1.3,12.4-5.3,17.4-8.8c1.3-0.7,6-1.8,7.6-0.9c0.1,0.1,0.3,0.2,0.3,1c0,0.2,0,0.3,0,0.5
		c0.3-0.6,0.5-1.2,0.5-1.8C61.9,8.9,61.5,8.7,61.3,8.6z"></path>
	<path fill="#808080" d="M62,42.8c0,0,0,0.1,0,0.1C62,42.9,62,42.8,62,42.8z"></path>
	<path fill="#808080" d="M40.9,48.7c-2.1,0-4.1-0.1-5.8-0.4c-1.2-0.2-3.7-0.5-4.2-2.5c-0.1,0.2-0.1,0.4-0.1,0.5
		c-0.2,3,3,3.4,4.3,3.6c1.7,0.2,3.7,0.4,5.8,0.4c10.4,0,24.3-3.3,27-16.3c0.1-0.5,0.1-0.9-0.1-1.4C65,45.4,51.2,48.7,40.9,48.7z"></path>
	<path fill="#808080" d="M67.9,43.3c-0.4,3.8-3.8,7.8-7,10.4c-3.5,2.8-7.1,4.2-10.3,4.2c-1.4,0-2.7-0.3-3.8-0.8c0,0,0,0,0,0
		c-0.2,0.2-0.4,0.6-0.7,1.1c0.2,0.2,0.4,0.3,0.6,0.4c1.2,0.6,2.5,0.9,3.9,0.9c3.2,0,6.8-1.5,10.3-4.2C64.6,52.4,68.5,47.6,67.9,43.3
		z"></path>
	<path fill="#808080" d="M53.3,17.6c-0.2,0-0.4-0.1-0.5-0.4c-0.1-0.3,0.1-0.6,0.4-0.7c7.2-2.3,7.8-6.3,7.8-6.3
		c0-0.3,0.3-0.5,0.6-0.5c0.3,0,0.5,0.3,0.5,0.6c0,0.2-0.6,4.7-8.5,7.3C53.4,17.6,53.3,17.6,53.3,17.6z"></path>
	<path fill="#808080" d="M48,51.3c-1.7,0-2.9-0.1-3.1-0.1c-0.3,0-0.5-0.3-0.5-0.6c0-0.3,0.3-0.5,0.6-0.5c0.1,0,7.2,0.6,10-1
		c0.3-0.1,0.6,0,0.7,0.2c0.1,0.3,0,0.6-0.2,0.7C53.7,51.1,50.4,51.3,48,51.3z"></path>
	<path fill="#808080" d="M51.7,29.3c-0.3,0-0.5-0.2-0.5-0.4c-0.1-0.3,0.1-0.6,0.4-0.7c0.1,0,6.5-1.5,9.8-4.6c0.2-0.2,0.6-0.2,0.8,0
		c0.2,0.2,0.2,0.6,0,0.8c-3.5,3.4-10.1,4.9-10.4,4.9C51.8,29.3,51.7,29.3,51.7,29.3z"></path>
	<path fill="#808080" d="M51.1,41.3c-0.2,0-0.5-0.2-0.5-0.4c-0.1-0.3,0.1-0.6,0.4-0.7c0.1,0,6.9-1.8,9.3-7.2
		c0.1-0.3,0.4-0.4,0.7-0.3c0.3,0.1,0.4,0.4,0.3,0.7c-2.5,5.9-9.7,7.8-10,7.8C51.2,41.3,51.1,41.3,51.1,41.3z"></path>
	<path fill="#808080" d="M32.5,29.3c0.6,0.2,1.3,0.5,2.2,0.5c0.2,0,0.4,0,0.5,0c0.3,0,33.9-3.1,33.6-18.8c0-0.5-0.1-1.1-0.2-1.7
		C68.4,9,68.2,8.8,68,8.6c-0.1-0.4-0.3-0.7-0.4-1c0.2,0.7,0.3,1.5,0.4,2.3c0,0,0,0,0,0c0,0,0,0,0,0c0.3,15.3-33.1,18.4-33.4,18.4
		c-0.2,0-0.3,0-0.5,0c-1.8,0-3.1-0.7-3.5-1.5c0,0.1,0,0.2,0,0.3C30.6,27.6,31.3,28.5,32.5,29.3z"></path>
	<path fill="#808080" d="M48.1,92.7c-6.1,0-11-3.1-11-6.8c0-0.3,0.2-0.6,0.6-0.6s0.6,0.2,0.6,0.6c0,3.2,4.4,5.7,9.9,5.7
		c0.3,0,0.6,0.2,0.6,0.6S48.4,92.7,48.1,92.7z"></path>
	<path fill="#808080" d="M48.1,98.3c-6.1,0-11-3.1-11-6.8c0-0.3,0.2-0.6,0.6-0.6s0.6,0.2,0.6,0.6c0,3.2,4.4,5.7,9.9,5.7
		c0.3,0,0.6,0.2,0.6,0.6S48.4,98.3,48.1,98.3z"></path>
</g>
</g></svg>
