<svg version="1.1" id="Layer_1" xmlns="http://www.w3.org/2000/svg" xmlns:xlink="http://www.w3.org/1999/xlink" x="1px" y="17px" width="400px" height="400px" viewBox="1 17 96 57" enable-background="1 17 96 57" xml:space="preserve"><desc>Copyright Opto 22</desc> <desc>Created with Snap</desc><defs/><g xmlns="http://www.w3.org/2000/svg">
<g id="shape">

	<path fill="#666666" d="M43.476,43.01c-1.289-1.003-3.976-1.148-3.976-1.148c-0.549-0.03-1.398,0.154-1.886,0.408
			c0,0-2.074,1.078-2.074,2.977c0,1.899,1.326,3.439,2.961,3.439c0.348,0,0.348,0,0.348,0c0.352-0.116,1.074-0.326,1.606-0.467
			c0,0,2.156-0.572,3.021-1.34C44.765,45.732,44.543,43.84,43.476,43.01z"></path>

	<path fill="#666666" d="M96.771,51.176l0.287-17.049L74.851,17.365l-26.648,2.722l0.037,4.056
		c-1.966,0.067-4.547,0.157-6.588,0.234c-5.74,0.215-10.268,0.669-10.841,1.051c-0.573,0.382-1.958,1.672-1.958,1.672l10.555-1.242
		l-9.217,1.242l-0.555,1.736l-0.036-0.274l-5.327,0.699c-0.533,0.069-0.934,0.527-0.934,1.064v0.958h-0.39v3.084
		c-1.023,0.03-2.081,0.089-3.169,0.184c-4.394,0.382-7.546,0.955-9.074,1.337s-1.839,2.865-1.839,2.865v0.955v3.266l-2.173-0.122
		l0.002,0.032c-0.001,0-0.001,0-0.002,0c-1.477,0-2.674,1.391-2.674,3.106c0,1.715,1.197,3.106,2.674,3.106
		c0.216,0,0.424-0.038,0.625-0.094l1.547-0.136v1.282c-2.629,1.684-4.357,4.501-5.227,6.223l-2.295-0.043v5.731l4.595,0.715
		c0.476,6.904,4.584,8.604,4.584,8.604l7.307,0.86c0,0,5.592,0.002,6.655-7.964l7.615,0.46l4.736-0.439
		c0.324,7.814,3.539,9.384,3.478,9.345l7.641,0.86c0,0,5.573-0.021,5.97-10.995l2.245-0.117c0,0.001,0,0.008,0,0.008l0.764-0.048
		l4.926-1.116c0.273,0,0.538-0.035,0.797-0.09c0.035-0.007,0.071-0.012,0.105-0.02c0.024-0.006,0.049-0.008,0.073-0.014l0.324-0.057
		c0.416,0.14,0.854,0.221,1.311,0.221c0.456,0,0.887-0.097,1.302-0.236c0.339,0.09,0.691,0.141,1.054,0.141
		c1.073,0,2.047-0.431,2.826-1.124c0.348,2.698,1.417,4.444,1.417,4.444l5.158,0.382c0,0,1.146-0.573,1.146-1.528
		c0.764,0.382,2.77,0.191,2.77,0.191s1.571-1.163,1.634-5.638l1.954,0.177c0,0,0.201-1.245,0.266-3.174l6.415-0.724l0.688-0.732
		c-0.035,0.394-0.061,0.819-0.061,1.312c0,2.865,0.573,4.012,0.573,4.012l3.152,0.143l0.287-0.716h1.146c0,0,0.43-0.716,0.43-3.725
		s-0.287-3.582-0.287-3.582l-2.756-0.086l0.554-0.589L96.771,51.176z M24.388,31.282l0.015-1.03l4.377-0.574l-3.333,4.399v-2.795
		H24.388z M27.845,34.441c-0.446-0.027-0.903-0.048-1.372-0.064l2.407-3.178L27.845,34.441z M33.304,34.817
		c-0.739-0.046-1.463-0.077-2.157-0.077c-0.052-0.007-0.109-0.012-0.162-0.018l-1.836-0.38l1.659-5.335
		c0.061-0.195,0.264-0.308,0.461-0.256l1.749,0.455c0.168,0.044,0.286,0.196,0.286,0.37V34.817z M47.766,35.695l-10.698-0.977
		v-4.468c0-0.633,0.513-1.146,1.146-1.146L48.23,28.29l0.013,3.911L47.766,35.695z"></path>
</g>
<g id="dark">
	<path fill="#333333" d="M74.851,17.365l-26.648,2.722l0.231,5.34c2.483-2.627,12.656,1.982,12.656,1.982l0.047,23.628l13.427-0.148
		"></path>
	<polyline fill="#333333" points="79.269,23.643 79.521,24.731 79.269,25.337 79.269,27.585 79.521,28.571 79.269,29.707
		79.269,32.435 79.269,33.825 79.521,34.735 79.269,35.77 79.416,36.856 79.343,37.761 79.345,39.788 79.218,41.682 79.269,44.259
		79.521,45.496 79.269,46.557 79.269,47.594 	"></polyline>
	<polyline fill="#333333" points="83.238,47.456 83.466,46.472 83.238,45.924 83.238,43.891 83.466,43 83.238,41.972 83.238,39.505
		83.238,38.248 83.466,37.426 83.238,36.489 83.371,35.507 83.305,34.689 83.306,32.856 83.192,31.143 83.238,28.813 83.466,27.695
		83.238,26.735 83.238,25.797 	"></polyline>
	<polyline fill="#333333" points="86.824,28.089 87.042,29.03 86.824,29.555 86.824,31.499 87.042,32.352 86.824,33.335
		86.824,35.695 86.824,36.897 87.042,37.684 86.824,38.58 86.951,39.52 86.888,40.302 86.889,42.056 86.78,43.695 86.824,45.924
		87.042,46.994 86.824,47.912 86.824,48.809 	"></polyline>
	<polyline fill="#333333" points="90.044,30.226 90.247,31.099 90.044,31.586 90.044,33.39 90.247,34.181 90.044,35.093
		90.044,37.283 90.044,38.398 90.247,39.128 90.044,39.96 90.162,40.832 90.104,41.558 90.105,43.184 90.003,44.705 90.044,46.773
		90.247,47.766 90.044,48.617 90.044,49.45 	"></polyline>
	<polyline fill="#333333" points="92.897,32.766 93.062,33.477 92.897,33.874 92.897,35.344 93.062,35.989 92.897,36.732
		92.897,38.516 92.897,39.425 93.062,40.02 92.897,40.697 92.993,41.408 92.945,41.999 92.946,43.325 92.864,44.564 92.897,46.249
		93.062,47.058 92.897,47.752 92.897,48.431 	"></polyline>
	<polyline fill="#333333" points="95.362,33.981 95.52,34.662 95.362,35.041 95.362,36.447 95.52,37.064 95.362,37.775
		95.362,39.482 95.362,40.352 95.52,40.921 95.362,41.569 95.454,42.249 95.408,42.815 95.409,44.083 95.33,45.268 95.362,46.881
		95.52,47.654 95.362,48.318 95.362,48.967 	"></polyline>
	<polygon fill="#333333" points="21.213,38.647 21.213,52.531 25.415,52.541 25.415,38.437 	"></polygon>
	<path fill="#333333" d="M29.771,38.219l-3.591,0.18v14.145l3.628,0.009c0.423,0.001,0.766-0.341,0.766-0.764V38.982
		C30.573,38.545,30.207,38.197,29.771,38.219z"></path>
	<path fill="#333333" d="M37.068,34.719v-4.468c0-0.633,0.513-1.146,1.146-1.146l10.342-0.841c0.112-1.585,0-2.361-0.073-2.666
		l-9.075,0.259l-9.217,1.242l-2.579,8.071l9.122-0.478L37.068,34.719z"></path>
	<path fill="#333333" d="M50.316,35.661l-0.001,0.004c-0.037,0.246,0.121,0.48,0.363,0.536l8.581,2.006
		c0.301,0.07,0.588-0.159,0.586-0.467l-0.043-8.517c-0.001-0.2-0.127-0.379-0.316-0.447l-7.162-2.579
		c-0.283-0.102-0.589,0.08-0.634,0.378l-0.233,1.543L50.316,35.661z"></path>

	<path fill="#333333" d="M15.291,38.943l-3.095,0.155c-0.407,0.02-0.726,0.356-0.726,0.763v11.883c0,0.421,0.341,0.763,0.762,0.764
			l3.058,0.008V38.943z"></path>
	<polygon fill="#333333" points="16.055,38.905 16.055,52.518 20.448,52.529 20.448,38.685 		"></polygon>

	<polygon points="90.319,54.417 92.473,51.749 90.653,51.79 88.361,54.655 	"></polygon>
	<polygon points="87.143,54.631 89.417,51.749 87.596,51.79 85.208,54.894 	"></polygon>
	<polyline points="82.343,53.461 82.677,54.321 83.752,53.796 	"></polyline>
</g>
<g id="shadow">
	<path fill="#000000" d="M46.452,35.533c0.393,0.003,0.7-0.005,0.884-0.028c0.046-0.198,0.083-0.375,0.126-0.565
		c-2.967-2.774-5.714,0.279-5.714,0.279l1.345,0.119C43.921,34.886,45.143,34.602,46.452,35.533z"></path>
	<path d="M96.341,51.892l-2.756-0.086l-2.483,2.643c-0.035,0.394-0.061,0.819-0.061,1.312c0,2.865,0.573,4.012,0.573,4.012
		l3.152,0.143l0.287-0.716h1.146c0,0,0.43-0.716,0.43-3.725S96.341,51.892,96.341,51.892z"></path>
	<path d="M9.942,63.395L5.94,62.773c0.476,6.904,4.584,8.604,4.584,8.604l7.307,0.86c0,0,5.592,0.002,6.655-7.964L9.942,63.395z"></path>
	<path d="M49.294,52.506h-2.324c-1.243,1.876-1.688,4.203-1.688,4.203l-1.146,0.573l-0.382,5.158l-1.337,1.337l-5.579,0.517
		c0.324,7.814,3.539,9.384,3.478,9.345l7.641,0.86c0,0,5.994-0.018,5.994-12.25C53.951,53.27,49.294,52.506,49.294,52.506z
		 M48.339,68.553c-3.63-1.528-2.101-9.361,0.573-10.316C51.205,59.001,51.396,67.598,48.339,68.553z"></path>
	<path d="M81.77,57.855c-0.191-5.349-1.528-5.731-1.528-5.731h-8.979c0,0-0.297,0.632-0.644,1.624
		c0.739,0.783,1.205,1.883,1.205,3.11c0,1.716-0.906,3.185-2.208,3.874c0.3,2.881,1.457,4.763,1.457,4.763l5.158,0.382
		c0,0,1.146-0.573,1.146-1.528c0.764,0.382,2.77,0.191,2.77,0.191S81.961,63.204,81.77,57.855z"></path>
</g>
<g id="light">
	<path fill="#E6E6E6" d="M66.973,52.573l-0.409,0.005c-0.047,0.004-0.095,0.008-0.142,0.011c1.54,0.818,2.612,2.557,2.612,4.589
		c0,1.737-0.781,3.267-1.97,4.186l1.63-0.287c1.294-0.756,2.186-2.251,2.186-3.995C70.881,54.638,69.143,52.659,66.973,52.573z"></path>
	<path fill="#E6E6E6" d="M69.394,52.872c1.204,0.917,1.996,2.46,1.996,4.21c0,1.149-0.353,2.197-0.927,3.049
		c0.83-0.788,1.36-1.959,1.36-3.271C71.823,55.047,70.816,53.504,69.394,52.872z"></path>
	<path fill="#CCCCCC" d="M94.909,54.662c0,0,0.645,1.289-0.072,2.579L94.909,54.662z"></path>
	<path fill="#CCCCCC" d="M96.007,54.495c0,0,0.645,1.289-0.072,2.579L96.007,54.495z"></path>
	<polygon fill="#E6E6E6" points="1.345,56.327 41.844,57.091 44.136,57.282 43.754,62.44 42.417,63.777 32.101,64.732 9.942,63.395
		1.345,62.058 	"></polygon>
	<path fill="#E6E6E6" d="M35.444,56.804l8.692,0.478l1.146-0.573c0,0,1.337-7.068,5.922-6.495s4.967,13.181,4.967,13.181
		l0.764-0.048c0,0-0.191-13.325-5.349-14.28c-5.158-0.955-8.708-0.748-10.507,0.048C38.597,50.214,35.636,54.13,35.444,56.804z"></path>
	<path fill="#CCCCCC" d="M48.912,58.237c-2.674,0.955-4.203,8.788-0.573,10.316C51.396,67.598,51.205,59.001,48.912,58.237z"></path>
	<path fill="#E6E6E6" d="M75.97,61.294c0,0-0.764-2.483,0-4.776C76.894,57.543,77.729,58.476,75.97,61.294z"></path>
	<path fill="#E6E6E6" d="M79.669,56.136c0,0-0.573,2.865,0,4.012C81.006,57.855,79.669,56.136,79.669,56.136z"></path>

	<path fill="#E6E6E6" d="M61.862,62.232c0.273,0,0.538-0.035,0.797-0.09C62.4,62.196,62.135,62.232,61.862,62.232z"></path>
	<path fill="#E6E6E6" d="M62.436,52.626l-0.575,0.007c0.158,0,0.308,0.033,0.462,0.052C62.361,52.664,62.399,52.647,62.436,52.626z
			"></path>
	<path fill="#E6E6E6" d="M62.764,62.121c0.024-0.006,0.049-0.008,0.073-0.014l0.324-0.057c-0.03-0.01-0.058-0.026-0.088-0.036
			C62.97,62.048,62.871,62.096,62.764,62.121z"></path>
	<path fill="#E6E6E6" d="M64.472,52.652c-0.193,0-0.383,0.016-0.568,0.045h-1.468c2.1,0.316,3.724,2.304,3.724,4.735
			c0,1.853-0.951,3.442-2.327,4.242l0.112-0.011c0.173,0.025,0.349,0.039,0.528,0.039c2.238,0,4.053-2.026,4.053-4.525
			S66.711,52.652,64.472,52.652z"></path>

</g>
<g id="misc">
	<path fill="#B3B3B3" d="M60.661,27.362c0,0-8.788-2.316-9.934-1.17c-1.146,1.146-1.624,9.122-1.624,9.122L48.53,48.112h-0.764
		c0,0,0.955-8.023,0-9.934c-0.955-1.91-11.749-3.295-11.749-3.295s9.79,0.812,11.319,0.621c1.91-8.214,1.098-10.077,1.098-10.077
		c2.483-2.627,12.656,1.982,12.656,1.982l0.048,24.094l-0.382-0.191L60.661,27.362z"></path>
	<path fill="#E6E6E6" d="M43.014,35.289c0,0-0.191,0-0.525-0.048c-0.334-0.048-0.263-0.501-0.263-0.501
		c-0.382-0.621,1.958-2.197,2.921-1.258l0.47,0.35c0,0-0.621-0.143-1.098-0.048"></path>
	<path fill="#752700" d="M55.224,34.7l-0.716,0.716c0,0,0.845-1.133,1.282-0.71"></path>
	<path fill="#E6E6E6" d="M43.858,33.912c-0.43,0.716,0.573,1.17,0.573,1.17c-0.019,0.011-0.594,0.585-1.361-0.024
		c-0.561-0.446-0.263-0.86-0.263-0.86"></path>
	<path fill="#E6E6E6" d="M44.311,33.697c-0.43,0.716,0.573,1.266,0.573,1.266c-0.301,0.143-0.296,0.565-1.218-0.167
		c-0.561-0.446-0.215-0.86-0.215-0.86"></path>

	<path fill="#E6E6E6" d="M50.782,34.7l1.576-1.003l-0.43-0.86h0.184c-0.09-0.225-0.121-0.469-0.111-0.72
			c0.333-0.504,0.538-1.121,0.542-1.73l0.376,0.376c0,0,0.428-1.285-0.642-2.356c-0.012-0.012-0.025-0.019-0.037-0.03
			c-0.152-0.281-0.376-0.513-0.723-0.656l-0.06,0.395l-0.558,3.69l-0.583,3.854l-0.001,0.004l1.613-0.678L50.782,34.7z"></path>

	<path fill="#BC4512" d="M57.277,37.637c-0.311-0.642-0.334-2.221-1.488-2.93s-2.172-0.887-2.172-0.887l-0.829-0.982h-0.86
		l0.43,0.86L50.782,34.7l1.146,0.287l-1.613,0.678l0.363,0.536l3.112,0.695L57.277,37.637z"></path>
</g>
<g id="hlight">
	<path fill="#FFFFFF" d="M33.63,36.459c0,0,9.552,0.191,13.945,0.955c-5.731-1.528-11.653-2.674-16.429-2.674L33.63,36.459z"></path>
	<path fill="#FFFFFF" d="M31.146,34.74c-3.057-0.382-6.973-0.573-11.366-0.191s-7.546,0.955-9.074,1.337s-1.839,2.865-1.839,2.865
		v0.955c0,0,0.31-2.483,1.839-2.865c1.528-0.382,4.68-0.955,9.074-1.337s8.31-0.191,11.366,0.191c3.033,0.379,3.248,3.63,3.248,3.63
		V38.37C34.394,38.37,34.179,35.119,31.146,34.74z"></path>
	<path fill="#FFFFFF" d="M61.091,27.648c0,0-10.172-4.847-12.656-2.221c0,0-3.248,0.143-9.026,0.43
		c-5.779,0.287-10.555,1.242-10.555,1.242s1.385-1.289,1.958-1.672c0.573-0.382,5.101-0.835,10.841-1.051
		c3.821-0.143,9.552-0.334,9.552-0.334L61.091,27.648z"></path>
	<path fill="#FFFFFF" d="M6.312,56.9c0,0,17.575,0.573,23.115,0.382s10.698,0.382,10.698,0.382s-6.495,0.191-16.811,0.382
		S6.312,56.9,6.312,56.9z"></path>
	<path fill="#FFFFFF" d="M49.7,61.15l-1.098-0.287c0,0-0.955,0.764-1.337,2.674c0.764,0.573,1.194,0.358,1.194,0.358L49.7,61.15z"></path>
	<path fill="#FFFFFF" d="M38.501,42.307c-1.398,0-2.531,1.316-2.531,2.939s1.133,2.939,2.531,2.939c1.398,0,2.531-1.316,2.531-2.939
		S39.899,42.307,38.501,42.307z M38.175,47.594c-1.719-0.573-1.719-2.292-1.719-2.292l2.045-0.055
		C38.501,45.247,38.748,46.878,38.175,47.594z M38.581,42.747c0,0,3.056-0.024,1.767,4.131
		C40.348,45.016,40.013,43.464,38.581,42.747z"></path>
	<path fill="#F2F2F2" d="M6.694,43.329c-1.265,0-2.29,1.191-2.29,2.66s1.025,2.66,2.29,2.66c1.265,0,2.29-1.191,2.29-2.66
		S7.959,43.329,6.694,43.329z M6.513,48.478c-1.719-0.573-1.719-2.292-1.719-2.292l2.045-0.055
		C6.839,46.13,7.086,47.761,6.513,48.478z M8.089,47.881c0-1.862-0.334-3.415-1.767-4.131C6.322,43.75,9.378,43.726,8.089,47.881z"></path>
	<path fill="#E6E6E6" d="M40.085,42.198l2.674,0.573c0,0,0.764,0.716,0.907,1.289c-1.146-0.43-2.436-0.716-2.436-0.716
		S41.088,42.771,40.085,42.198z"></path>
</g>
</g></svg>
