<svg version="1.1" id="Layer_1" xmlns="http://www.w3.org/2000/svg" xmlns:xlink="http://www.w3.org/1999/xlink" x="1px" y="31px" width="400px" height="400px" viewBox="1 31 97 54" enable-background="1 31 97 54" xml:space="preserve"><desc>Copyright Opto 22</desc> <desc>Created with Snap</desc><defs/><g xmlns="http://www.w3.org/2000/svg">
<g id="shape">
	<path fill="#CCCCCC" stroke="#000000" stroke-width="0.7021" stroke-miterlimit="10" d="M67.3,85"></path>
	<path fill="#B3B3B3" d="M33.7,64l0.2,0.8L35,65l7.2-0.7l-0.3-1.8l5.5-0.4c0,0,0.6-0.4,1-1.2l0.5,1.1l2.4,0.3l0.1-0.4
		c0.2,1.8,1.1,3.1,2.2,3.2l4.2,0.3c0.7,0.1,1.5-0.5,2-1.3c0.2,0.2,0.5,0.3,0.7,0.3l4.1,0.3c1.4,0.1,2.6-1.8,2.8-4.2
		c0.1-2-0.5-3.7-1.5-4.3h1.3c0.2,0.2,0.3,0.5,0.4,0.8c0.6,1.5,0.9,2.8,0.9,2.8l4,0.3c0,0-0.7-2.4-1.5-3.8h9.9
		c-0.1,1.4,0.5,2.6,1.3,2.6l2.4,0.2c0.3,0,0.6-0.1,0.9-0.4c0.1,0.1,0.2,0.1,0.4,0.1l2.2,0.1c0.3,0,0.7-0.2,0.9-0.5
		c0.2,0.7,0.6,1.2,1.1,1.3l2.4,0.2c0.4,0,0.8-0.3,1.1-0.8c0.1,0.1,0.3,0.1,0.4,0.2l2.3,0.2c0.8,0.1,1.5-1,1.6-2.4
		c0.1-1.4-0.5-2.6-1.2-2.6l-0.6-0.5c0,0,2.2-1,2.5-5.1c0.4-5.3-2.2-6.4-2.2-6.4L50.6,31.9c0,0-8.3-0.4-9.4,9.7
		c-0.7,6.6,2.2,9.9,2.2,9.9l-0.9,0.1L41.2,52l0,1.7l1.3,0.3v1.4l2.2,0.1l-3.9-0.1l0,2l-1.1,0c0,0,0.4-0.5,0.4-1.6s0.1-14.2,0.2-14.7
		C40.3,40.6,40,39,40,39s-1.3-0.2-3.2-0.4v-2.4c0,0-0.2-0.3-0.7-0.3c-0.5,0-0.6,0.3-0.6,0.3v2.2c-4.6-0.5-11.6-0.8-16.2,0.6
		l-0.6,1.1l1.1,0.5L18.3,46c0,0-10.4,1.1-13.8,4.5l-0.8,5.6c0,0-1.4,0.3-1.4,2l0.2,1.3l-0.6,0.9c-0.1,0.2-0.2,0.5-0.2,0.7L2,62.7
		c0.1,0.4,0.4,0.7,0.8,0.8c1,0.2,2.9,0.7,5,1.1c1.1,0.2,0.5,0.2,0.5,0.2c0.4,1,2.2,2.8,4.7,3c2.5,0.2,4-1.9,4-1.9l3.9,0.7
		c0,0,1.6,3.7,4.1,3.8l3.1,0c0,0,4.4-1.6,4.1-6.3c0-0.2,0-0.3,0-0.5L33.7,64z"></path>
	<path fill="#808080" d="M12.5,58.3"></path>
</g>
<g id="dark">
	<path fill="#666666" d="M57.7,42.3c0,5.9-3.6,9.1-4.9,9.5l32.9,1.4c0-0.1,0-0.1,0-0.2c0-0.1,0-0.2,0.1-0.2c0,0,0-0.1,0-0.1
		c0.1-0.2,0.4-0.3,0.6-0.3c0,0,0,0,0,0l8.7,0.5c0,0,0,0,0,0c0,0,0.1,0,0.1,0c0,0,0.1,0,0.1,0c0,0,0,0,0,0l0,0
		c0.1,0.1,0.2,0.3,0.1,0.5l0.6,0c0,0,2.2-1,2.5-5.1c0-0.2,0-0.4,0-0.6L57.7,42.3z"></path>
	<path fill="#666666" d="M36.8,35.9c0,0-0.2-0.3-0.7-0.3s-0.6,0.3-0.6,0.3v2.5h1.4V35.9z"></path>
	<path fill="#666666" d="M39.1,46.6h-1.4v-6h1.4c0.3,0,0.5,0.2,0.5,0.5v5C39.6,46.4,39.4,46.6,39.1,46.6z"></path>
	<polygon fill="#666666" points="40.8,55.4 41.1,57.3 47.9,57.6 48.8,62 51.2,62.3 52.7,56.6 53.3,55.8 	"></polygon>
	<path fill="#666666" d="M41.8,57.9c1.7,0,2.3,3.2,0.1,4.6l-0.1-1.4L41,60.9v-1.8l-0.6-0.2C40.4,58.9,40.9,57.9,41.8,57.9z"></path>
	<path fill="#666666" d="M51.3,51.8c0,0-0.9-2.5-1.3-4.3v4.3H51.3z"></path>
	<path fill="#666666" d="M45.8,47.7c0,0,0.4,2.4,1.1,4.2l-1-0.1L45.8,47.7z"></path>
	<polygon fill="#666666" points="53.9,55.5 43.4,55 43.4,53.9 53.9,54.4 	"></polygon>
	<path fill="#666666" d="M22.5,61.6l0.7-1.1l-4.4,0.7l4.6-0.9c0,0.1,2-3.7,6-3.1c4,0.6,4.6,7.6,4.6,7.6L35,65c0,0-0.3-5.7-2.6-7.4
		c-2.2-1.7-5.4-1.4-7.7,0.8"></path>
</g>
<g id="light">
	<path fill="#E6E6E6" d="M15.1,60.2c0,0,1.6,0.1,2.3-0.2c0.7-0.3,1.6-1.7,1.4-2s-1.4-0.4-2.8-0.5s-2.5,0.3-3.1,1
		c-0.6,0.7-0.3,1.4,0.4,1.5S15.1,60.2,15.1,60.2z"></path>
	<path fill="#E6E6E6" d="M98.2,44c-0.2-0.6-0.5-1-0.8-1.3l-43.1-9.2c1,0.8,1.9,1.9,2.6,3.6l41.5,7.2C98.3,44.2,98.2,44.1,98.2,44
		L98.2,44z"></path>
	<path fill="#E6E6E6" d="M50.6,31.9c0,0,7.1,0.5,7.1,10.4c0,0-2.8-3-8.7-3.1c-4.6-0.1-7.8,2.5-7.8,2.5
		C42.3,31.5,50.6,31.9,50.6,31.9z"></path>
	<path fill="#E6E6E6" d="M20,40.3c5.9-0.7,12.1-1.1,12.2-0.4c0.1,0.7-0.7,2.6-1.2,4.6c-0.6,2-2.2,1.4-4.2,1.2c-3.3-0.3-8,0.2-8,0.2
		L20,40.3z"></path>
	<path fill="#E6E6E6" d="M37.7,46.6v-6h0.8c-0.6-0.3-1.8-0.1-2.3-0.3c0,0-1.5-0.1-2,0.4c-0.5,0.5-1.8,4.8-1.7,5.5
		c0.1,0.7,5.4,0.6,5.8,0.4c0,0,0,0,0-0.1H37.7z"></path>
	<path fill="#E6E6E6" d="M18.5,55.8l-0.1-7.6l0.6-0.6c0,0,0.4-0.8,1-1c0.6-0.1,1.3,0.6,1.1,1.4s-0.3,1.1-1,1.3
		c-0.7,0.1-0.8-0.8-0.8-0.8l-0.4,0l0.2,8"></path>
	<path fill="#E6E6E6" d="M15.6,52c0.2-0.3,0.7-0.3,0.7-0.3l2.1-1.8l-1.8,2L15.6,52z"></path>
	<path fill="#E6E6E6" d="M19.3,51.5l1.8,1.8c0,0,0.5,0,0.5,0.4c0,0.4,0,0.4,0,0.4l-2.5-2.5L19.3,51.5z"></path>
	<path fill="#E6E6E6" d="M38.8,46.6L38.8,46.6l-0.2,0l0.1,1.3l-6.1,0.7c0,0.1,0,0.1,0.2,0.2l6.1-0.7L38.8,46.6z"></path>
	<polygon fill="#E6E6E6" points="34.2,39.9 34.2,40 38.2,40.2 38.2,40.6 38.4,40.6 38.4,40.6 38.4,40.1 	"></polygon>
</g>
<g id="shadow">
	<path d="M96.8,54l-2.3-0.2c-0.4,0-0.7,0.2-1,0.6c-0.2-0.1-0.3-0.2-0.5-0.2l-2.4-0.2c-0.7,0-1.3,0.7-1.6,1.9h-8.1
		c-0.1,1.4,0.5,2.6,1.3,2.6l2.4,0.2c0.3,0,0.6-0.1,0.9-0.4c0.1,0.1,0.2,0.1,0.4,0.1l2.2,0.1c0.3,0,0.7-0.2,0.9-0.5
		c0.2,0.7,0.6,1.2,1.1,1.3l2.4,0.2c0.4,0,0.8-0.3,1.1-0.8c0.1,0.1,0.3,0.1,0.4,0.2l2.3,0.2c0.8,0.1,1.5-1,1.6-2.4
		C98.1,55.3,97.6,54.1,96.8,54z M93.6,57c-0.1,0.8-0.5,1.5-1,1.5c-0.3,0-0.6-0.4-0.7-0.9c0.1,0,0.4,0,0.5-0.5
		c0.1-0.5-0.4-0.6-0.4-0.6s0,0-0.1,0.1c0.1-0.6,0.5-1.1,0.9-1C93.3,55.4,93.6,56.1,93.6,57z M97.4,56.6c-0.1,0.8-0.5,1.4-0.9,1.4
		c-0.3,0-0.6-0.4-0.7-0.9c0,0,0,0,0,0c0.2,0,0.4-0.3,0.4-0.3s0.1-0.4,0.1-0.5c0-0.1-0.4-0.4-0.5-0.5c0.2-0.5,0.5-0.8,0.8-0.8
		C97.2,55.1,97.5,55.8,97.4,56.6z"></path>
	<path d="M57,52c0,0,0.6-0.5,0.8-1.2l0.7,0.1L58.5,52L57,52z"></path>
	<path d="M60,52c0,0,0.6-0.5,0.8-1.2l0.7,0.1l-0.1,1.2L60,52z"></path>
	<path d="M63.3,52.2c0,0,0.6-0.5,0.8-1.2l0.7,0.1l-0.1,1.2L63.3,52.2z"></path>
	<path d="M66,52.3c0,0,0.6-0.5,0.8-1.2l0.7,0.1l-0.1,1.2L66,52.3z"></path>
	<path d="M9.6,62.2L5,61.3c0,0,0,1.8,0.4,2.1c0,0,0.1,0,0.1,0.1v-1.6l3.8,0.7L9.2,64C9.7,63.7,9.6,62.2,9.6,62.2z"></path>
	<polygon points="4.6,59.1 5.3,51.4 8,51.9 7.9,52.8 7.6,52.1 5.5,51.7 	"></polygon>
	<polygon points="8.6,52.2 11.5,52.3 10.8,60.2 11,52.5 	"></polygon>
	<path d="M65.7,54.8c0,0,1.2,0.5,1.8,2c0.6,1.5,0.9,2.8,0.9,2.8l4,0.3c0,0-1.3-4.6-2.4-4.8c-1-0.3-13.3-0.5-13.3-0.5"></path>
	<path d="M86.8,52.5C86.9,52.5,86.9,52.5,86.8,52.5l8.6,0.6c0,0,0,0,0,0c-0.1-0.1-0.2-0.1-0.2-0.1l-8.7-0.5
		C86.6,52.3,86.7,52.4,86.8,52.5z"></path>
	<path d="M42.9,61l5.4-0.1c-0.4,0.8-1,1.2-1,1.2l-5.5,0.4L42.9,61z"></path>
	<g>
		<polygon points="7.7,53.3 5.5,52.9 7.6,53.7 		"></polygon>
		<polygon points="7.6,54 5.4,53.7 7.5,54.5 		"></polygon>
		<polygon points="7.5,54.8 5.3,54.5 7.4,55.3 		"></polygon>
		<polygon points="7.5,55.6 5.2,55.2 7.4,56.1 		"></polygon>
		<polygon points="7.4,56.4 5.1,56 7.3,56.9 		"></polygon>
		<polygon points="7.3,57.2 5,56.8 7.2,57.7 		"></polygon>
		<polygon points="7.2,58 4.9,57.6 7.2,58.5 		"></polygon>
		<polygon points="7.2,58.8 4.8,58.3 7.1,59.3 		"></polygon>
	</g>
	<g>
		<polygon points="10.5,53.4 8.3,53.3 10.4,53.8 		"></polygon>
		<polygon points="10.5,54.1 8.3,54 10.4,54.6 		"></polygon>
		<polygon points="10.4,54.9 8.2,54.8 10.4,55.3 		"></polygon>
		<polygon points="10.4,55.6 8.1,55.5 10.3,56 		"></polygon>
		<polygon points="10.4,56.3 8,56.2 10.3,56.8 		"></polygon>
		<polygon points="10.3,57.1 7.9,56.9 10.3,57.5 		"></polygon>
		<polygon points="10.3,57.8 7.8,57.6 10.2,58.2 		"></polygon>
		<polygon points="10.3,58.5 7.8,58.3 10.2,58.9 		"></polygon>
		<polygon points="10.3,59.3 7.7,59 10.2,59.7 		"></polygon>
	</g>
	<path d="M32.2,64.2c-0.3-4.2-3-5.9-5.5-5.5c-2.4,0.4-3.8,1.7-5.1,4.6L21.5,65c0,0-3.6,0.5-5.8,0.7c-1.8,0.1-7.5-0.9-7.5-0.9
		c0.4,1,2.2,2.8,4.7,3c2.5,0.2,4-1.9,4-1.9l3.9,0.7c0,0,1.6,3.7,4.1,3.8l3.1,0C28.1,70.5,32.5,68.9,32.2,64.2z M30,65.4
		c-0.4,1.9-1.9,3.2-3.5,2.9c-1.6-0.3-2.6-2.1-2.2-4c0.4-1.9,1.9-3.2,3.5-2.9C29.4,61.7,30.4,63.5,30,65.4z"></path>
	<polygon points="35.5,63.5 35.4,64 41.2,63.4 41.1,63 	"></polygon>
	<polygon points="35.2,62 35.1,62.5 40.9,62 40.9,61.5 	"></polygon>
	<path d="M58.4,56.2l-4.2-0.3c-1.4-0.1-2.7,1.9-2.9,4.4c-0.2,2.5,0.8,4.7,2.3,4.8l4.2,0.3c1.4,0.1,2.7-1.9,2.9-4.4
		C60.8,58.4,59.8,56.3,58.4,56.2z M59.5,60.9c-0.1,1.5-0.9,2.6-1.7,2.5c-0.6,0-1.1-0.7-1.2-1.6c0.2,0,0.8-0.1,0.8-0.9
		c0.1-0.9-0.7-1.1-0.7-1.1s0,0-0.1,0.1c0.3-1.1,0.9-1.9,1.6-1.8C59.1,58.2,59.6,59.4,59.5,60.9z"></path>
	<path d="M65.1,55.7l-4.1-0.3c-1.1-0.1-2.1,1.1-2.5,2.7c0.7,0.3,1.1,1.4,1,2.7c-0.1,0.9-0.3,1.6-0.7,2.1c0.4,0.8,1,1.3,1.6,1.4
		l4.1,0.3c1.4,0.1,2.6-1.8,2.8-4.2C67.5,57.9,66.5,55.8,65.1,55.7z M66.2,60.3c-0.1,1.4-0.8,2.5-1.6,2.4c-0.6,0-1-0.7-1.2-1.6
		c0,0,0.1,0,0.1,0c0.3,0,0.7-0.5,0.7-0.5s0.1-0.7,0.1-0.8c0-0.2-0.6-0.7-0.8-0.9c0.3-0.8,0.8-1.4,1.4-1.4
		C65.8,57.7,66.3,58.8,66.2,60.3z"></path>
	<ellipse transform="matrix(0.9824 0.1867 -0.1867 0.9824 12.5965 -3.9746)" cx="27.4" cy="64.9" rx="1.2" ry="1.4"></ellipse>
	<path d="M21.6,63.3c1.3-2.8,2.7-4.2,5.1-4.6s5.2,1.3,5.5,5.5c0-0.2,0-0.3,0-0.5l1.5,0.2l0.2,0.8c0,0-0.6-7-4.6-7.6
		c-2.3-0.4-4,0.8-5,1.8l-1.9,2.7l0.7-1.1L21.6,63.3z"></path>
	<path d="M20.2,40.7c0,0,6.8,0.1,11.5-1.2c0,0-2.7,0-6.8,0.3S20,40.3,20,40.3L20.2,40.7z"></path>
</g>
<g id="hlight">
	<path fill="#FFFFFF" d="M29.1,62.4c0,0-1-1-2.4-0.7s-2.4,2.6-2.4,2.6l1.3,0.4c0,0-0.3-0.6,0.8-1.7c0.4-0.4,1.4-0.2,2.1,0
		C28.8,62.5,29.1,62.4,29.1,62.4z"></path>
	<path fill="#FFFFFF" d="M87,52.8l8.6,0.5c0-0.1,0-0.2-0.1-0.2l-8.6-0.5C86.9,52.6,87,52.7,87,52.8z"></path>
	<path fill="#FFFFFF" d="M46.9,57.8l-5.2,0.1c0.7,0,1.1,0.5,1.4,1.1l4.6-0.1C47.7,58.4,46.9,57.8,46.9,57.8z"></path>
	<polygon fill="#FFFFFF" points="71.6,54.5 89.1,54.8 88.8,54.4 71.3,54 	"></polygon>
	<polygon fill="#FFFFFF" points="6,51 8.3,51.6 7.4,59.1 7.5,59.5 8.3,51.6 12.9,51.7 8.3,51.3 	"></polygon>
	<path fill="#FFFFFF" d="M29,55.6c-5.9-0.8-9.8,0.2-9.8,0.2s1.3,0.7,2.4,0.8C23.4,55.9,25.3,55.4,29,55.6z"></path>
	<path fill="#FFFFFF" d="M21.3,61.8c0,0-5.6,0.6-6.8,0.5s-12-2.4-12-2.4s10.4,2.5,12.1,2.6S21.3,61.8,21.3,61.8z"></path>
	<path fill="#FFFFFF" d="M32.5,38.1c-4.3-0.3-9.6-0.3-13.3,0.8l-0.6,1.1c0,0,3.9-1.2,11.5-1.2l3.1-0.4L32.5,38.1z"></path>
	<path fill="#FFFFFF" d="M21,47.9c0.1-0.8-0.6-1.5-1.1-1.4c-0.6,0.1-1,1-1,1l-0.6,0.6l0.9-0.3c0,0,0.4-0.7,0.8-0.7S21,47.9,21,47.9z
		"></path>
	<path fill="#FFFFFF" d="M38.6,46.6h-0.1v1.2l-5.8,0.6c0,0-0.1,0.1-0.1,0.2l6.1-0.7L38.6,46.6z"></path>
	<polygon fill="#FFFFFF" points="38.5,40 34.1,39.8 34.2,39.9 38.4,40.1 38.4,40.6 38.5,40.5 	"></polygon>
</g>
</g></svg>
