<svg version="1.1" id="Layer_1" xmlns="http://www.w3.org/2000/svg" xmlns:xlink="http://www.w3.org/1999/xlink" x="23px" y="0px" width="400px" height="400px" viewBox="23 0 54 99" enable-background="23 0 54 99" xml:space="preserve"><desc>Copyright Opto 22</desc> <desc>Created with Snap</desc><defs/><g xmlns="http://www.w3.org/2000/svg">
<g id="shape">
	<path fill="#808285" d="M23.713,18.209L23.713,18.209c0.007-0.073,0.019-0.144,0.028-0.216c0-0.001,0-0.001,0-0.001
		c0.01-0.081,0.024-0.161,0.036-0.241c0.008-0.053,0.014-0.107,0.024-0.16c0.002-0.012,0.003-0.025,0.006-0.037l0-0.001
		c0.016-0.085,0.036-0.17,0.055-0.255l0-0.001c0.029-0.131,0.06-0.261,0.097-0.391l0-0.001c0.025-0.089,0.052-0.177,0.081-0.265
		l0-0.001c0.01-0.031,0.022-0.061,0.032-0.092c0.021-0.062,0.042-0.124,0.065-0.185c0.012-0.032,0.021-0.064,0.033-0.096
		c0,0,0,0,0-0.001c0.033-0.089,0.067-0.178,0.104-0.266c0,0,0,0,0,0c0.052-0.124,0.108-0.246,0.166-0.368l0,0
		c0.04-0.085,0.08-0.171,0.123-0.256l0,0c0.005-0.01,0.011-0.02,0.017-0.03c0.024-0.045,0.051-0.09,0.075-0.136
		c0.041-0.074,0.081-0.148,0.123-0.222c0.001-0.001,0.001-0.002,0.002-0.003c0.042-0.073,0.081-0.148,0.126-0.22c0,0,0,0,0,0
		c0.081-0.132,0.169-0.262,0.257-0.392v-0.4c0-3.383,2.538-6.46,6.686-8.764c4.555-2.604,11.165-4.243,18.524-4.243
		c7.359,0,13.969,1.639,18.524,4.243c4.149,2.304,6.686,5.381,6.686,8.764v0.4c0.088,0.13,0.177,0.26,0.258,0.392c0,0,0,0,0,0
		c0.09,0.147,0.17,0.297,0.251,0.446c0.024,0.045,0.051,0.09,0.075,0.135c0.173,0.334,0.319,0.674,0.444,1.017
		c0.022,0.062,0.044,0.124,0.065,0.186c0.045,0.133,0.087,0.267,0.124,0.402c0.031,0.116,0.06,0.231,0.086,0.348l0,0.001
		c0.022,0.097,0.043,0.195,0.061,0.293c0.01,0.053,0.015,0.107,0.024,0.161c0.058,0.37,0.096,0.742,0.096,1.12
		c0,0.084-0.002,0.168-0.004,0.252l-0.545,64.157c0,0.116-0.002,0.232-0.007,0.347c-0.01,0.263-0.033,0.523-0.066,0.782
		c-0.009,0.069-0.023,0.137-0.034,0.205c-0.029,0.191-0.059,0.383-0.1,0.572c-0.015,0.071-0.036,0.142-0.053,0.213
		c-0.045,0.187-0.093,0.374-0.149,0.559c-0.019,0.063-0.042,0.126-0.063,0.188c-0.064,0.194-0.132,0.386-0.208,0.577
		c-0.021,0.051-0.043,0.102-0.064,0.153c-0.085,0.203-0.176,0.405-0.275,0.604c-0.019,0.038-0.039,0.076-0.058,0.114
		c-0.109,0.214-0.225,0.425-0.35,0.635c-0.014,0.023-0.028,0.047-0.042,0.07c-0.135,0.224-0.279,0.446-0.432,0.665
		c-0.007,0.011-0.015,0.021-0.022,0.032c-0.163,0.232-0.335,0.461-0.516,0.686c-0.602,1.037-1.4,2.018-2.369,2.929
		c-0.005,0.005-0.01,0.01-0.016,0.014c-0.636,0.597-1.345,1.164-2.12,1.696c-0.021,0.014-0.041,0.028-0.062,0.043
		c-0.77,0.524-1.602,1.014-2.492,1.465c-0.025,0.013-0.049,0.026-0.075,0.039c-0.434,0.219-0.882,0.428-1.343,0.627
		c-0.047,0.02-0.094,0.04-0.141,0.06c-0.46,0.197-0.93,0.386-1.413,0.563c-0.002,0.001-0.004,0.002-0.006,0.002
		c-0.477,0.174-0.967,0.337-1.465,0.491c-0.081,0.025-0.163,0.05-0.245,0.075c-0.497,0.15-1.001,0.292-1.517,0.421
		c-0.019,0.005-0.038,0.009-0.057,0.013c-0.493,0.122-0.997,0.233-1.507,0.336c-0.097,0.02-0.192,0.04-0.29,0.058
		c-0.517,0.1-1.041,0.19-1.572,0.269c-0.093,0.014-0.187,0.026-0.281,0.039c-0.487,0.068-0.98,0.128-1.478,0.179
		c-0.082,0.008-0.163,0.018-0.245,0.026c-0.544,0.051-1.094,0.09-1.65,0.119c-0.123,0.006-0.247,0.011-0.37,0.017
		c-0.57,0.024-1.143,0.041-1.724,0.041c-0.58,0-1.154-0.017-1.724-0.041c-0.124-0.005-0.248-0.01-0.371-0.017
		c-0.556-0.029-1.106-0.067-1.65-0.119c-0.081-0.008-0.161-0.018-0.242-0.026c-0.5-0.05-0.994-0.11-1.483-0.179
		c-0.092-0.013-0.185-0.024-0.276-0.038c-0.532-0.079-1.056-0.169-1.574-0.269c-0.097-0.019-0.193-0.039-0.29-0.058
		c-0.511-0.103-1.016-0.214-1.51-0.336c-0.017-0.004-0.035-0.008-0.052-0.012c-0.517-0.129-1.021-0.271-1.518-0.421
		c-0.082-0.025-0.163-0.049-0.244-0.075c-0.499-0.155-0.989-0.317-1.466-0.492c-0.002-0.001-0.004-0.001-0.005-0.002
		c-0.484-0.177-0.955-0.367-1.416-0.564c-0.046-0.02-0.092-0.039-0.138-0.058c-0.461-0.2-0.909-0.409-1.344-0.628
		c-0.025-0.013-0.049-0.025-0.074-0.038c-0.89-0.452-1.723-0.942-2.493-1.466c-0.021-0.014-0.041-0.028-0.061-0.042
		c-0.775-0.532-1.483-1.098-2.119-1.695c-0.006-0.006-0.012-0.011-0.018-0.017c-0.968-0.911-1.766-1.892-2.367-2.929l0,0
		c0,0,0,0,0,0c-0.18-0.224-0.351-0.451-0.513-0.682c-0.005-0.007-0.01-0.014-0.015-0.022c-0.154-0.22-0.3-0.443-0.436-0.669
		c-0.011-0.018-0.022-0.037-0.033-0.055c-0.127-0.213-0.246-0.428-0.358-0.646c-0.016-0.031-0.033-0.062-0.048-0.093
		c-0.102-0.204-0.195-0.41-0.283-0.617c-0.019-0.044-0.039-0.089-0.057-0.133c-0.078-0.194-0.148-0.39-0.214-0.587
		c-0.019-0.058-0.041-0.115-0.059-0.173c-0.058-0.187-0.108-0.376-0.154-0.565c-0.016-0.067-0.036-0.133-0.051-0.2
		c-0.042-0.189-0.074-0.379-0.103-0.57c-0.01-0.067-0.025-0.134-0.034-0.201c-0.034-0.257-0.059-0.515-0.07-0.775
		c-0.006-0.137-0.009-0.274-0.009-0.412l-3.073-64.027c-0.007-0.127-0.01-0.254-0.01-0.382
		C23.681,18.65,23.693,18.429,23.713,18.209z"></path>
</g>
<g id="linear">

	<linearGradient class="linear" id="SVGID_1_" gradientUnits="userSpaceOnUse" x1="23.0563" y1="58.6151" x2="77.6852" y2="58.6151">
		<stop offset="0" style="stop-color:#FFFFFF"></stop>
		<stop offset="1" style="stop-color:#788C96"></stop>
	</linearGradient>
	<path class="linear" fill="url(#SVGID_1_)" d="M50.374,32.557c14.578,0,26.426-5.991,26.688-13.432l-0.545,64.157c0,0.116-0.002,0.232-0.007,0.347
		c-0.309,8.027-11.326,14.478-24.87,14.478c-13.508,0-24.501-6.416-24.867-14.413c-0.006-0.137-0.009-0.274-0.009-0.412
		l-3.073-64.027C24.086,26.635,35.881,32.557,50.374,32.557z"></path>

	<linearGradient class="linear" id="SVGID_2_" gradientUnits="userSpaceOnUse" x1="23.0665" y1="23.3676" x2="77.6808" y2="23.3676">
		<stop offset="0" style="stop-color:#FFFFFF"></stop>
		<stop offset="1" style="stop-color:#788C96"></stop>
	</linearGradient>
	<path class="linear" fill="url(#SVGID_2_)" d="M25.293,14.179c-0.085,0.432-0.129,0.871-0.129,1.315c0,7.138,11.287,12.924,25.21,12.924
		c13.923,0,25.21-5.786,25.21-12.924c0-0.444-0.044-0.882-0.129-1.315c1.043,1.464,1.612,3.045,1.612,4.694
		c0,0.084-0.001,0.168-0.004,0.252C76.8,26.566,64.951,32.557,50.374,32.557c-14.493,0-26.288-5.921-26.683-13.302
		c-0.007-0.127-0.01-0.254-0.01-0.382C23.681,17.223,24.25,15.643,25.293,14.179z"></path>
</g>
<g id="radial">
	<radialGradient class="radial" id="SVGID_3_" cx="40" cy="18.6666" r="26.0283" gradientUnits="userSpaceOnUse">
		<stop offset="0" style="stop-color:#FFFFFF"></stop>
		<stop offset="1" style="stop-color:#939598"></stop>
	</radialGradient>
	<path class="radial" fill="url(#SVGID_3_)" d="M42.597,9.817l2.665-0.985c1.87-0.691,3.952-0.499,5.664,0.523l0.368,0.22l-7.084,2.62l-1.781-1.063
		c-0.247-0.148-0.392-0.372-0.454-0.613C42.051,10.216,42.256,9.943,42.597,9.817z M56.532,12.775l-7.081,2.618l0.289,0.171
		c1.839,1.088,4.07,1.29,6.075,0.549l2.443-0.903c0.341-0.126,0.546-0.399,0.622-0.701c-0.062-0.242-0.208-0.467-0.458-0.615
		L56.532,12.775z M50.374,4.737c12.221,0,22.296,4.694,23.758,10.756C72.67,21.556,62.595,26.25,50.374,26.25
		c-12.221,0-22.296-4.694-23.758-10.756C28.077,9.431,38.153,4.737,50.374,4.737z M39.249,11.119c0.04,0.63,0.534,1.292,1.5,1.868
		l7.925,4.721c1.024,0.61,2.399,1.009,3.814,1.18c-1.108,1.507-1.131,3.118,0.202,4.335c2.267,2.07,6.669,2.613,11.855,0.318
		s5.912-5.108,3.645-7.178c-1.368-1.249-3.843-1.791-6.53-1.612c-0.002-0.115-0.005-0.21-0.008-0.263
		c-0.038-0.63-0.533-1.294-1.5-1.87l-7.925-4.721c-2.155-1.284-5.86-1.666-8.232-0.849l-2.851,0.982
		c-1.189,0.409-1.823,1.045-1.891,1.739C39.23,9.997,39.235,10.898,39.249,11.119z M53.79,18.984
		c-0.966,1.28-1.001,2.656,0.134,3.692c1.906,1.74,5.607,2.197,9.967,0.267c4.36-1.93,4.97-4.295,3.064-6.035
		c-1.117-1.02-3.112-1.478-5.295-1.367c-0.002,0.128-0.006,0.235-0.012,0.295c-0.067,0.694-0.702,1.33-1.891,1.739l-2.851,0.982
		C56.006,18.867,54.915,19.003,53.79,18.984z"></path>
</g>
<g id="light">
	<path opacity="0.29" fill="#FFFFFF" d="M23.906,24.038l2.95,59.651c0,0.138,0.003,0.275,0.009,0.412
		c0.366,7.997,11.359,14.413,24.867,14.413c13.544,0,24.561-6.451,24.87-14.478c0.004-0.115,0.007-0.231,0.007-0.347l0.418-59.666
		c-0.768,4.107-5.076,7.683-11.34,9.918c-0.195,1.049-0.397,2.431-0.327,3.345c0.127,1.647,1.267,2.407,1.394,4.308
		c0.127,1.901-0.887,5.322-0.887,7.856l-1.52-0.127c0.76-0.507,2.027-3.674,1.267-4.055c0,0,1.394-3.421,0.127-4.435
		c-1.267-1.014-2.027-3.928-1.521-4.942c0.229-0.457-0.059-0.939-0.443-1.331c-3.013,0.891-6.396,1.487-10.004,1.716
		c-0.346,1.034-0.763,2.699-0.323,3.797c0.676,1.689,0.676,4.393,0.676,5.406c0,1.014-2.027,6.082-1.689,7.096
		c0.338,1.014,1.689,4.73,1.689,4.73l-0.145,0.097c0.159,0.291,0.305,0.622,0.406,0.992c0.38,1.394-0.887,1.774-1.901,1.774
		s-1.52-1.52-1.014-2.281c0.436-0.654,1.244-1.492,1.462-1.714c-0.589-1.334-1.343-3.243-1.343-4.274
		c0-1.689,1.689-4.393,1.689-6.42c0-2.027-1.014-5.406-1.014-5.406l0.115-3.727c-0.634,0.023-1.272,0.039-1.917,0.039
		C36.604,36.386,25.218,30.968,23.906,24.038z M70.535,58.031c-1.014,0-1.521-1.52-1.014-2.281s1.521-1.774,1.521-1.774
		s1.014,0.887,1.394,2.281S71.549,58.031,70.535,58.031z M69.162,66.429l0.845-0.338c0,2.027-0.676,5.406,0.338,8.109
		c1.014,2.703,1.943,5.406,1.267,8.109c-0.676,2.703-1.014,5.068-0.338,7.096c0,0-0.845-0.676-1.183-3.379s-0.253-4.393,0.084-7.096
		s0.418-1.91-1.014-5.406C67.868,70.365,68.757,66.793,69.162,66.429z M64.051,51.436c0.507-0.76,1.521-1.774,1.521-1.774
		s1.014,0.887,1.394,2.281c0.38,1.394-0.887,1.774-1.901,1.774C64.051,53.716,63.544,52.196,64.051,51.436z M52.725,71.027
		c0.507-0.76,1.52-1.774,1.52-1.774s1.014,0.887,1.394,2.281s-0.887,1.774-1.901,1.774C52.725,73.308,52.218,71.788,52.725,71.027z
		 M42.976,48.184c1.014,0,2.027-0.676,2.027,1.014c0,2.267-1.014,3.379-1.014,5.406c0,2.027,0.338,5.744,1.014,8.109
		c-1.361-0.756-2.314-0.631-2.954-0.263c-0.522,0.836-1.101,1.277-1.101,1.277s0.312-0.823,1.101-1.277
		c0.605-0.969,1.133-2.472,0.588-4.467c-1.014-3.717,1.183-7.433,0.169-7.771c-1.014-0.338-1.858-2.365-2.196-3.717
		C40.273,45.143,41.962,48.184,42.976,48.184z"></path>
</g>
<g id="dark">
	<path fill="#788C96" d="M70.224,86.914c0,0,1.014,0.887,1.394,2.281c0.38,1.394-0.887,1.774-1.901,1.774
		c-1.014,0-1.52-1.52-1.014-2.281C69.211,87.927,70.224,86.914,70.224,86.914z"></path>
	<path fill="#788C96" d="M70.839,58.205c3.843-1.014,2.219-2.126-0.088-4.609c0,0,0.866,1.193,1.414,2.661
		C72.714,57.725,70.839,58.205,70.839,58.205z"></path>
	<path fill="#788C96" d="M71.745,66.767c0,1.52,3.97,4.055,0.127,5.068"></path>
	<path fill="#788C96" d="M76.004,46.156c0,1.52,2.281,3.801,0,5.322"></path>
	<path fill="#788C96" d="M74.314,31.289c0,1.52,2.281,3.801,0,5.322"></path>
	<path fill="#788C96" d="M54.321,58.357c0.38,1.394-0.887,1.774-1.901,1.774s-1.52-1.52-1.014-2.281c0,0-0.24,1.186,1.137,1.416
		C53.921,59.495,54.321,58.357,54.321,58.357z"></path>
	<path fill="#788C96" d="M54.245,69.253c0,0,1.014,0.887,1.394,2.281c0.38,1.394-0.887,1.774-1.901,1.774
		c0,0,2.205-0.481,1.491-1.91C54.515,69.97,54.245,69.253,54.245,69.253z"></path>
</g>
<g id="shadow">
	<polygon fill="#788C96" points="26.96,86.265 26.947,85.015 24.197,22.299 25.46,23.799 	"></polygon>
</g>
<g id="hlight">
	<path fill="#FFFFFF" d="M43.943,26.726c0.125,0,0.234-0.092,0.251-0.22c0.019-0.139-0.078-0.266-0.217-0.285
		c-8.896-1.2-15.945-4.923-17.96-9.486c-0.056-0.128-0.205-0.186-0.334-0.129c-0.128,0.057-0.186,0.206-0.129,0.334
		c2.115,4.793,9.148,8.542,18.354,9.783C43.92,26.726,43.932,26.726,43.943,26.726z"></path>
	<path fill="#FFFFFF" d="M50.374,27.023c0.07,0,0.126-0.057,0.126-0.126s-0.057-0.126-0.126-0.126c-2.174,0-4.333-0.143-6.415-0.423
		c-0.067-0.014-0.133,0.039-0.143,0.108c-0.009,0.069,0.04,0.133,0.109,0.143C46.019,26.88,48.189,27.023,50.374,27.023z"></path>
	<path fill="#FFFFFF" d="M71.653,8.696l0.364-0.353c-3.026-3.124-8.483-5.464-14.973-6.421L56.97,2.423
		C63.352,3.365,68.703,5.651,71.653,8.696z"></path>
	<path fill="#FFFFFF" d="M56.988,2.298l0.037-0.251c-2.153-0.317-4.391-0.479-6.652-0.479v0.254
		C52.622,1.823,54.847,1.982,56.988,2.298z"></path>
	<rect x="64.48" y="4.597" fill="#FFFFFF" width="0.507" height="2.027"></rect>
	<path fill="#FFFFFF" d="M33.216,29.356c-3.812-1.641-6.716-3.819-8.269-6.307l2.789-1.866v-1.52
		c1.659,1.731,4.051,3.243,6.969,4.432v1.52L33.216,29.356z"></path>
	<path fill="#FFFFFF" d="M25.244,13.719c0-7.172,11.272-13.006,25.129-13.006c13.856,0,25.13,5.834,25.13,13.006
		S64.23,26.726,50.374,26.726C36.517,26.726,25.244,20.891,25.244,13.719z M25.75,13.719c0,6.893,11.046,12.5,24.624,12.5
		c13.577,0,24.623-5.607,24.623-12.5c0-6.892-11.046-12.5-24.623-12.5C36.796,1.22,25.75,6.827,25.75,13.719z"></path>
	<path fill="#FFFFFF" d="M56.906,16.784c-2.372,0.817-6.076,0.435-8.232-0.849l-7.925-4.721l-1.5-0.854
		c0.04,0.63,0.534,1.292,1.5,1.868l7.925,4.721c2.155,1.284,5.86,1.666,8.232,0.849"></path>
	<path fill="#FFFFFF" d="M59.032,13.719l-2.5-1.451c0,0-1.723-0.407-2.23-0.407c-0.507,0-2.281-1.183-2.281-1.183l0.177-1.297
		c0,0-3.134-1.913-5.499-1.913c3.886,0.169,4.971,0.514,5.526,0.933c0.556,0.419,5.751,2.995,7.102,4.178s0.211,1.985,0.211,1.985
		L59.032,13.719z"></path>
	<path fill="#FFFFFF" d="M43.074,32.292c0.124,0,0.232-0.091,0.251-0.217c0.02-0.139-0.076-0.267-0.215-0.288
		c-9.734-1.416-17.117-5.605-18.807-10.673c-0.044-0.133-0.187-0.206-0.32-0.16c-0.133,0.044-0.205,0.188-0.16,0.32
		c1.749,5.249,9.292,9.572,19.215,11.015C43.05,32.291,43.063,32.292,43.074,32.292z"></path>
	<path fill="#FFFFFF" d="M50.374,32.684c0.07,0,0.126-0.057,0.126-0.127s-0.057-0.127-0.126-0.127c-2.473,0-4.923-0.174-7.281-0.517
		c-0.078-0.015-0.134,0.038-0.144,0.107c-0.011,0.069,0.037,0.133,0.106,0.144C45.426,32.509,47.888,32.684,50.374,32.684z"></path>
</g>
</g></svg>
