<svg id="Icons" xmlns="http://www.w3.org/2000/svg" viewBox="0 0 46.71 45.08"><title>751-recycling-symbol</title><g id="_Group_" data-name=" Group "><ellipse id="_Ellipse_" data-name=" Ellipse " cx="23.23" cy="43.58" rx="17" ry="1.5" style="fill:#45413c;opacity:0.15000000596046448;isolation:isolate"/><g id="_Group_2" data-name=" Group 2"><path id="_Path_" data-name=" Path " d="M26.83,2.42H20.64A5.41,5.41,0,0,0,16,5.12L9.83,15.78l9.66,5.55,9.2-15.65a2.16,2.16,0,0,0-1.86-3.26Z" transform="translate(-0.77 -1.92)" style="fill:#46b000;stroke:#45413c;stroke-linecap:round;stroke-linejoin:round"/><path id="_Path_2" data-name=" Path 2" d="M35.06,10.13l-2.87-5a5.41,5.41,0,0,0-4.68-2.7H20.64A5.4,5.4,0,0,0,16,5v.12a1.88,1.88,0,0,1,3.23,0l6.22,10.55-1.71,1,10.6,3.24,2.5-10.8Z" transform="translate(-0.77 -1.92)" style="fill:#6dd627"/><g id="_Group_3" data-name=" Group 3"><path id="_Path_3" data-name=" Path 3" d="M19.19,5.14l.64,1.08a5.41,5.41,0,0,1,2.65-.7h6.86a5.41,5.41,0,0,1,4.28,2.1l-1.43-2.5a5.41,5.41,0,0,0-4.68-2.7H20.64A5.4,5.4,0,0,0,16,5v.12a1.88,1.88,0,0,1,3.19,0Z" transform="translate(-0.77 -1.92)" style="fill:#9ceb60"/></g><path id="_Path_4" data-name=" Path 4" d="M35.06,10.13l-2.87-5a5.41,5.41,0,0,0-4.68-2.7H20.64A5.4,5.4,0,0,0,16,5v.12a1.88,1.88,0,0,1,3.23,0l6.22,10.55-1.71,1,10.6,3.24,2.5-10.8Z" transform="translate(-0.77 -1.92)" style="fill:none;stroke:#45413c;stroke-linecap:round;stroke-linejoin:round"/></g><g id="_Group_4" data-name=" Group 4"><path id="_Path_5" data-name=" Path 5" d="M2.29,35.48l3.1,5.36a5.4,5.4,0,0,0,4.68,2.7H22V32.4L4.19,32.24a2.16,2.16,0,0,0-1.9,3.24Z" transform="translate(-0.77 -1.92)" style="fill:#46b000;stroke:#45413c;stroke-linecap:round;stroke-linejoin:round"/><path id="_Path_6" data-name=" Path 6" d="M4.85,24.51,2,29.49A5.39,5.39,0,0,0,2,34.9l3.43,5.94A5.38,5.38,0,0,0,10,43.54h.1a1.88,1.88,0,0,1-1.61-2.8l6-10.67,1.71,1-2.5-10.8L3.11,23.5Z" transform="translate(-0.77 -1.92)" style="fill:#6dd627"/><path id="_Path_7" data-name=" Path 7" d="M7.53,25.79l7-2.12-.79-3.41L3.11,23.5l1.74,1L2,29.49A5.39,5.39,0,0,0,2,34.9l1,1.79a5.45,5.45,0,0,1,.55-4Z" transform="translate(-0.77 -1.92)" style="fill:#9ceb60"/><path id="_Path_8" data-name=" Path 8" d="M4.85,24.51,2,29.49A5.39,5.39,0,0,0,2,34.9l3.43,5.94A5.38,5.38,0,0,0,10,43.54h.1a1.88,1.88,0,0,1-1.61-2.8l6-10.67,1.71,1-2.5-10.8L3.11,23.5Z" transform="translate(-0.77 -1.92)" style="fill:none;stroke:#45413c;stroke-linecap:round;stroke-linejoin:round"/></g><g id="_Group_5" data-name=" Group 5"><path id="_Path_9" data-name=" Path 9" d="M43.16,40.22l3.09-5.36a5.39,5.39,0,0,0,0-5.41L40,18.55l-9.63,5.6,9,16.05a2.17,2.17,0,0,0,3.76,0Z" transform="translate(-0.77 -1.92)" style="fill:#46b000;stroke:#45413c;stroke-linecap:round;stroke-linejoin:round"/><path id="_Path_10" data-name=" Path 10" d="M32.37,43.49h5.77a5.4,5.4,0,0,0,4.68-2.7l3.43-5.94a5.4,5.4,0,0,0,0-5.32v-.09a1.88,1.88,0,0,1-1.62,2.79l-12.26.11v-2l-8.1,7.56,8.1,7.57Z" transform="translate(-0.77 -1.92)" style="fill:#6dd627"/><path id="_Path_11" data-name=" Path 11" d="M45.84,35.47a5.43,5.43,0,0,0,.46-5.93v-.09a1.88,1.88,0,0,1-1.62,2.79l-12.26.11v-2l-8.1,7.56L26,39.55l4.23-3.94Z" transform="translate(-0.77 -1.92)" style="fill:#9ceb60"/><path id="_Path_12" data-name=" Path 12" d="M32.37,43.49h5.77a5.4,5.4,0,0,0,4.68-2.7l3.43-5.94a5.4,5.4,0,0,0,0-5.32v-.09a1.88,1.88,0,0,1-1.62,2.79l-12.26.11v-2l-8.1,7.56,8.1,7.57Z" transform="translate(-0.77 -1.92)" style="fill:none;stroke:#45413c;stroke-linecap:round;stroke-linejoin:round"/></g></g></svg>