<svg id="Capa_1" data-name="Capa 1" xmlns="http://www.w3.org/2000/svg" viewBox="0 0 28 28"><title>11</title><circle cx="14" cy="14" r="13.5" style="fill:#67dde0"/><path d="M13.5,2.5c3,4,0,6-2,9s4,4,3,7,1,5,1,6a1,1,0,0,1-1,1c-2,0-5-2-7-4s1-5-1-6,0-2-3-4c0,0,.66-5.59,8.64-8.44" transform="translate(-2 -2)" style="fill:#75ea9c"/><path d="M22.5,4.5s-4,6,0,9-1,6,6,8C28.5,21.5,33.08,10.21,22.5,4.5Z" transform="translate(-2 -2)" style="fill:#75ea9c"/><circle cx="14" cy="14" r="13.5" style="fill:none;stroke:#4d5152;stroke-miterlimit:10"/><path d="M22.5,4.5s-4,6,0,9-1,6,6,8" transform="translate(-2 -2)" style="fill:none;stroke:#4d5152;stroke-miterlimit:10"/><path d="M3.5,11.5c3,2,1,3,3,4s-1,4,1,6,5,4,7,4a1,1,0,0,0,1-1c0-1-2-3-1-6s-5-4-3-7,5-5,2-9" transform="translate(-2 -2)" style="fill:none;stroke:#4d5152;stroke-miterlimit:10"/></svg>