<svg version="1.1" id="Layer_1" xmlns="http://www.w3.org/2000/svg" xmlns:xlink="http://www.w3.org/1999/xlink" x="0px" y="16px" width="99px" height="67px" viewBox="0 16 99 67" enable-background="0 16 99 67" xml:space="preserve"><desc>Copyright Opto 22</desc> <desc>Created with Snap</desc><defs/><g xmlns="http://www.w3.org/2000/svg">
	<g id="shape">
		<path fill="#B3B3B3" d="M22.374,65.066c1.169-1.165,2.281-2.178,3.106-2.738c1.493-1.015,3.706-0.872,3.706-0.872l0.779-0.296
			c2.714-0.206,5.971-0.673,8.065-1.514c2.536-1.018,6.079-3.06,8.282-4.706l1.418-0.54c3.854-0.704,14.593-2.392,20.517-0.741
			c5.923,1.651,8.997,0.738,10.159,2.4c1.162,1.662,1.196,7.297,2.949,9.631c1.754,2.334,1.43-1.257,1.975-2.332
			c0.545-1.076,2.967-1.713,4.419-2.095c1.453-0.383,2.335-1.754,5.046-4.435c2.711-2.682,6.152,0.555,6.422-1.173
			c0.27-1.728-6.352-4.852-8.503-5.943c-2.151-1.091-6.848-0.838-7.608-1.363c-0.76-0.525-7.473-7.146-9.604-8.552
			c-2.131-1.407,0.421-0.37-9.784-4.518c-10.205-4.148-15.955-3.567-20.196-6.696c-4.241-3.13-4.904-7.615-5.266-9.384
			c-0.362-1.769,1.33-3.405-2.355-2.849c-4.483,0.676-7.778,12.351-10.933,14.528c-3.155,2.177-13.8,8.552-19.279,17.243
			C0.21,56.812,1.604,58.568,1.064,62.024c-1.093,6.996,1.097,10.067,3.462,12.758c-0.127,0.609-0.26,6.306,0.576,8.288
			c0.551,1.305,2.309,1.101,4.995-3.645c2.686-4.746,4.906-5.951,6.46-7.914c0.202-0.255,0.464-0.574,0.768-0.935L22.374,65.066z"></path>
	</g>
	<g id="light">
		<path d="M24.864,31.268c-0.922,2.003-8.244,6.054-12.006,10.254c-3.761,4.2-7.711,8.865-8.527,11.668
			c2.059-2.406,7.294-7.305,8.807-8.635c1.514-1.33,3.425-3.905,4.771-5.087c1.346-1.183,5.362-4.415,6.896-6.061
			c1.534-1.647,3.527-5.485,4.302-7.657C26.273,30.327,24.864,31.268,24.864,31.268z"></path>
	</g>
	<g id="dark">
		<path d="M15.974,59.653c-0.303-0.345-0.649-0.319-0.996-0.116l-0.813-0.43c-1.284,0.661-1.823,1.916-2.447,3.368
			c-0.279,0.649-0.068,1.321-0.453,2.025l0.377,0.48c0.408-0.746,0.72-1.471,0.995-2.111c0.332-0.772,0.878-1.529,1.465-2.129
			c0.018,0.129,0.075,0.259,0.19,0.391c0.408,0.464,0.894,0.258,1.358-0.15C16.115,60.572,16.382,60.117,15.974,59.653z"></path>
		<path d="M8.797,81.593l-1.439,0.656c0.947-2.592,2.755-7.617,2.773-7.678l0.958-1.713C11.07,72.919,9.754,78.974,8.797,81.593z"></path>
		<path d="M28.613,29.805l-0.429-0.153c0.647-0.337,1.313-1.312,2.639-1.853c1.786-0.728,2.532-1.646,4.28-1.529
			c2.264,0.146,6.176,1.932,6.877,2.34l-0.753,0.114c-0.485-0.283-3.954-1.313-6.188-1.457c-1.458-0.101-2.625,0.537-4.24,1.411
			C30.151,29.029,29.438,29.414,28.613,29.805z"></path>
	</g>
	<g id="hlight">
		<path fill="#E6E6E6" d="M48.295,53.009c0.565-1.391-4.781,0.327-7.774-0.025c-2.992-0.351-4.129,0.051-4.129,0.051l-2.768,2.059
			c0,0,4.375-0.625,5.375-0.75s4.875,0.125,5.875-0.125L48.295,53.009z"></path>
		<path fill="#E6E6E6" d="M48.295,53.009c-0.566,1.392-6.519,5.133-10.266,6.637c-3.746,1.504-11.224,1.815-12.636,1.566
			c0,0,9.606-0.493,14.231-2.993S48.295,53.009,48.295,53.009z"></path>
	</g>
	<g id="shadow">
		<path fill="#808080" d="M22.236,65.205c1.351,1.198,4.539,1.649,4.942,2.786c0.403,1.137-2.268,3.186-4.689,3.823
			c-2.421,0.637-5.098-1.606-5.098-1.606"></path>
	</g>
</g></svg>