<svg version="1.1" id="Layer_1" xmlns="http://www.w3.org/2000/svg" xmlns:xlink="http://www.w3.org/1999/xlink" x="2px" y="26px" width="96px" height="48px" viewBox="2 26 96 48" enable-background="2 26 96 48" xml:space="preserve"><desc>Copyright Opto 22</desc> <desc>Created with Snap</desc><defs/><g xmlns="http://www.w3.org/2000/svg">
<g id="shape">
	<path fill="#EB9119" d="M98.2,43.6c0-0.2,0-0.5,0-0.8c-0.2-1-1.7-3.6-3.2-5.6c-0.8-1.1-2.3-2.3-3.6-2.9c-1.1-0.5-3.3-1.8-5.4-2.6
		c-1.5-0.6-3.8-1.1-5.6-1.5c-1.7-0.6-4.4-1.4-7.4-1.8v-0.2c0-0.3,0.2-0.5-0.3-0.5c-0.5,0-0.5,0.2-0.6,0.5c-0.1,0,0,0-0.1,0
		c-2.2-0.2-4.4-0.3-6.7-0.3c-3.7-0.1-7.2-0.1-10.6-0.2c-2.7-0.1-5.3-0.4-7.8-0.5c-1.7,0-3.3,0.1-4.9,0.1c-0.1-0.4-0.5-0.7-0.9-0.7
		c-0.5,0-0.9,0.4-0.9,0.8c-1.7,0.1-3.3,0.3-4.9,0.5c-3.1,0.3-6.4,0.3-9.4,0.6c-5.1,0.4-9.6,1.2-11.6,2.6c-1.7,1.2-3.4,2.2-4.7,3.5
		c-1.1,1.1-2.6,2.3-3.8,3.1c-1.2,0.9-3.9,2.8-2.9,5v0.3C3,42.9,3.7,43,3.8,43c-1.2,2.7-1.6,5.7-1.6,9.2c0,0.4,0.2,0.8,0.2,1.2
		c0,0.1,0.1,0.3,0.1,0.4c0,0.3,0.1,0.5,0.1,0.8c0,0.1,0.1,0.3,0.1,0.4c0,0.2,0.1,0.5,0.1,0.7c0,0.1,0.1,0.3,0.1,0.4
		c0,0.1,0,0.1,0,0.2c0,0.1,0.1,0.2,0.1,0.3c0.1,0.3,0.2,0.6,0.3,0.9c0,0.1,0.1,0.3,0.1,0.4c0.1,0.3,0.2,0.6,0.4,0.9
		c0,0.1,0.1,0.2,0.1,0.3C4,59.6,4.2,60,4.4,60.4c0,0.1,0.1,0.2,0.1,0.3c0.2,0.3,0.3,0.6,0.5,0.8c0.1,0.1,0.2,0.2,0.2,0.4
		c0.2,0.2,0.3,0.5,0.5,0.7C5.9,62.7,6,62.8,6,62.9c0.2,0.3,0.4,0.5,0.7,0.8c0,0,0.1,0.1,0.1,0.1c0.3,0.3,0.6,0.6,0.9,0.9
		C7.8,64.8,7.9,64.9,8,65c0.2,0.2,0.4,0.4,0.7,0.6c0.1,0,0.1,0.1,0.1,0.1c0,0,0.1,0,0.1,0.1c0.6,0.5,1.2,0.9,1.8,1.4
		c0,0,0.1,0.1,0.1,0.1c0.7,0.4,1.4,0.9,2.1,1.2c0,0,0.1,0,0.1,0.1c0.7,0.4,1.4,0.7,2.1,1c0.1,0,0.1,0.1,0.2,0.1
		c0.7,0.3,1.4,0.6,2.1,0.9c0.1,0,0.1,0,0.2,0.1c0.8,0.3,1.5,0.6,2.3,0.8c0,0,0,0,0.1,0c0.7,0.2,1.5,0.5,2.2,0.7c0.1,0,0.1,0,0.2,0.1
		c0.7,0.2,1.4,0.4,2,0.5c0.1,0,0.1,0,0.2,0c0.7,0.2,1.4,0.3,2,0.5c9.4,2.2,35.1,1.6,47.3,0.3c12.2-1.3,23.8-7.2,23.8-22.5
		c0-1.8-0.1-3.4-0.3-4.9C97.9,45.4,98.3,44.6,98.2,43.6z"></path>
</g>
<g id="dark">
	<path fill="#534741" d="M98.2,42.8c-0.2-1-1.7-3.6-3.2-5.6c-0.8-1.1-2.3-2.3-3.6-2.9c-1.1-0.5-3.3-1.8-5.4-2.6
		c-1.9-0.8-4.2-1.3-6.7-2c-1.6-0.4-3.3-1.1-5.1-1.3c-2.8-0.4-5.7-0.5-8.9-0.6c-3.7-0.1-7.2-0.1-10.6-0.2c-2.7-0.1-5.3-0.4-7.8-0.5
		c-4.2,0-8,0.3-11.6,0.7c-3.1,0.3-6.4,0.3-9.4,0.6c-5.1,0.4-9.6,1.2-11.6,2.6c-1.7,1.2-3.4,2.2-4.7,3.5c-1.1,1.1-1.9,2.3-3.1,3.1
		c-1.2,0.9-3.5,2.8-2.3,5c1.3,2.2,3.8,1.9,5.3,3.1s-0.7,0.3,2,2.5c3,2.4,2.1,2.9,5,2.2c2.7-0.6,3.4,0,5.3,1.3c1.9,1.3,3.1,3.4,5,3.4
		c1.9,0,1.6-1.9,3.8-0.3c2.2,1.6,1.3,1.3,3.4,1.3s3.4-1.6,4.4,0c0.9,1.6,2.2,1.3,4.7,1.3c2.5,0,4.5-2,6.1,0.2
		c1.6,2.2,2.1,0.7,4.6,0.4c2.5-0.3,3.4,0.3,5.6,0.3c2.2,0,3.4-3,7.2-1.8c3.8,1.3,4.5-1.9,8.1-0.9c1.4,0.4,2.6-1.6,4.7-0.8
		c2.9,1,6.2-0.6,6.9-0.7c1.3-0.3,0.9-1.3,2.8-1.9c1.9-0.6,2.2-3.1,4.4-3.8c2.2-0.6,2.1-1.2,3-1.9C97.5,45.6,98.5,44.4,98.2,42.8z
		 M51.9,45.7c-11.6,0-20.4-2.5-20.4-2.5c1.9-1.3,3.8-3.3,5-2.4c1.3,0.9,3.4-0.9,5.3,0.3c1.9,1.3,3.1-1.9,4.4-0.6s4.4-0.3,5.9,0.6
		c1.6,0.9,4.1-0.9,5.6,0c1.6,0.9,2.8-1.3,4.7,0c1.9,1.3,4.7-0.3,5.3,0.6c0.6,0.9,2.5,2.4,2.5,2.4S63.5,45.7,51.9,45.7z"></path>
</g>
<g id="light">
	<path fill="#DB6F1D" d="M88.9,55l-1.6,2.5c0,0-0.9,0.6-2.2,0.3c2.2,1.3,2.2,1.3,2.2,1.3L87,61.5c0,0-0.3,1.6-1.9,1.6
		c1.3,0.6,1.6,2.5,1.6,2.5s1.3-2.2,2.8-2.2c-1.3-1.3-0.3-2.8-0.3-2.8s0.9-1.6,2.2-1.6C89.9,58.1,88.9,55,88.9,55z"></path>
	<path fill="#DB6F1D" d="M51.9,45.7c-11.6,0-20.4-2.5-20.4-2.5c1.9-1.3,3.8-2.5,5-1.6c1.3,0.9,3.4-0.9,5.3,0.3
		c1.9,1.3,3.1-1.9,4.4-0.6c1.3,1.3,4.4-0.3,5.9,0.6c1.6,0.9,4.1-0.9,5.6,0c1.6,0.9,2.8-1.3,4.7,0c1.9,1.3,4.7-0.3,5.3,0.6
		c0.6,0.9,2.5,1.6,2.5,1.6S63.5,45.7,51.9,45.7z"></path>
	<path fill="#DB6F1D" d="M5.3,60c1.3,0.6,2.5,3.4,4.1,4.4c1.6,0.9,3.1,2.8,3.1,2.8c1.3,0,3.4,2.2,4.7,2.2s3.4,1.3,5.9,1.9
		s5.3,0.6,5.3,0.6s2.8,0.6,4.1,0.6s5.3,0.6,6.3,0.3c0.9-0.3,2.8,0.3,4.7,0.3s5.6-0.3,5.6-0.3s2.2,0.6,4.4,0s5.6,0.3,5.6,0.3l3.4-0.6
		c0,0,3.1,0.3,4.1-0.3s4.7,0,4.7,0l3.4-0.3l4.1-1.3c0,0,1.9-0.3,2.8-0.6c0.9-0.3,2.2-0.9,2.2-0.9l1.6-1.6l4.1-1.6l2.2-2.2l1.9-1.6
		c0,0,0-1.6,0.9-2.2c0.9-0.6,0.6-1.6,0.9-3.1c0.3-1.6,2.2-5.9,2.2-5.9c0,15.3-11.6,21.3-23.8,22.5c-12.2,1.3-37.9,1.9-47.3-0.3
		c-5.4-1.3-12.7-3.3-17.8-7.5c-2.8-2.3-5-5.3-5.9-9.3c-0.3-1.3-0.5-2.7-0.5-4.2L5.3,60z"></path>
	<path fill="#DB6F1D" d="M17.5,55.9c0,0,0.6,3.4-1.3,4.4c1.3,0.6,1.3,2.2,0.3,3.1c1.3,0.6,3.4,0.3,3.4,1.9c0.6-2.5-0.3-3.1,0.6-3.8
		C20,60.9,18.8,60.3,20,59S17.5,58.1,17.5,55.9z"></path>
	<path fill="#DB6F1D" d="M55.7,73.4c0,0,0.9-3.4,0.6-5.6c0.9,3.8,2.8,5.3,2.8,5.3L55.7,73.4z"></path>
	<path fill="#DB6F1D" d="M74.8,71.9c0,0,0.9-1.6,0.9-4.1c0.9,2.2,1.3,4.1,1.3,4.1H74.8z"></path>
	<path fill="#DB6F1D" d="M23.2,71.2c0,0-1.9-2.2-2.8-4.4c0,3.4,1.6,4.7,1.6,4.7L23.2,71.2z"></path>
	<path fill="#DB6F1D" d="M30.1,62.8c0.4-1.9-0.6,1.6-0.6,1.6l-0.3,1.3c0,0-0.1,2,1.3,0.9C31.9,65.3,29.7,64.4,30.1,62.8z"></path>
	<path fill="#DB6F1D" d="M63.2,64.7l-0.3,2.8c0,0,0.3-0.9,1.6-0.6c1.3,0.3-0.9,0.3,0-1.9C63.6,66.2,63.2,64.7,63.2,64.7z"></path>
	<path fill="#DB6F1D" d="M72.9,58.4c0.9,2.2,2.8,1.6,2.8,1.6s-0.9-1.6-1.9,0.6C72.9,62.8,72.9,58.4,72.9,58.4z"></path>
	<path fill="#DB6F1D" d="M8.4,51.5c0,0-0.3,2.5-1.6,3.4c2.5-0.9,2.2,1.9,2.2,1.9S8.4,55.3,10,54C7.5,55,8.4,51.5,8.4,51.5z"></path>
	<path fill="#DB6F1D" d="M7.5,47.8c-1.3,0.6-1.9,1.9-0.9,3.4C5,50,4.1,52.8,4.1,52.8S3.4,51.5,5,50C5.3,46.8,7.5,47.8,7.5,47.8z"></path>
	<path fill="#DB6F1D" d="M93.3,50.3c0,0,1.9,1.6,0,3.1c1.3-0.9,2.8,0.9,2.8,0.9s0.9-0.6-1.6-1.9C95.5,50.3,93.3,50.3,93.3,50.3z"></path>
	<path fill="#DB6F1D" d="M37.6,63.1l2.2-0.9c0,0,0,0.3,0.3,1.6c0.3,1.3,1.6-0.6,1.6-0.6l1.6,1.6L37.6,63.1z"></path>
	<path fill="#DB6F1D" d="M56,64.7c0.3-0.9,2.5-1.6,2.5-1.6l0.9,1.3l0.9-2.2l1.3,1.3L56,64.7z"></path>
</g>
<g id="shadow">
	<path fill="#000000" d="M69.7,43.6c-2.3-1.3-2.6-2.2-2.6-2.2c7.5,0.2,8.1,1.3,8.1,1.3s-5.6,2.8-25,2.8s-22.5-4.1-22.5-4.1s3.7-1.3,7.6-0.8
		c-3.5,2-3.2,2.6-3.2,2.6s5.8,2.3,19.4,2.3S69.7,43.6,69.7,43.6z"></path>
	<path d="M4.2,42.8c1.3,2.3,3.8,2,5.3,3.3c1.6,1.3-0.7,0.3,2,2.7c3,2.5,2.1,3,5,2.3c2.7-0.7,3.4,0,5.3,1.3c1.9,1.3,3.1,3.6,5,3.6
		c1.9,0,1.6-2,3.8-0.3c2.2,1.7,1.3,1.3,3.4,1.3s3.4-1.7,4.4,0c0.9,1.7,2.2,1.3,4.7,1.3c2.5,0,4.5-2.2,6.1,0.2
		c1.6,2.3,2.1,0.7,4.6,0.4c2.5-0.3,3.4,0.3,5.6,0.3c2.2,0,3.4-3.2,7.2-1.9c3.8,1.3,4.5-2,8.1-1c1.4,0.4,2.6-1.6,4.7-0.9
		c2.9,1.1,6.2-0.6,6.9-0.8c1.3-0.3,0.9-1.3,2.8-2c1.9-0.7,2.2-3.3,4.4-4c2.2-0.7,2.1-1.3,3-2c1-0.8,1.9-2,1.6-3.6v-0.3
		c0.3,1.6-0.6,2.7-1.6,3.4c-0.9,0.7-0.8,1.3-3,1.9c-2.2,0.6-2.5,3.1-4.4,3.8c-1.9,0.6-1.6,1.6-2.8,1.9c-0.7,0.2-4,1.8-6.9,0.7
		c-2-0.7-3.3,1.2-4.7,0.8c-3.6-1-4.4,2.2-8.1,0.9c-3.8-1.3-5,1.8-7.2,1.8c-2.2,0-3.1-0.6-5.6-0.3c-2.5,0.3-3.1,1.8-4.6-0.4
		c-1.6-2.2-3.5-0.2-6.1-0.2c-2.5,0-3.8,0.3-4.7-1.3c-0.9-1.6-2.2,0-4.4,0s-1.3,0.3-3.4-1.3c-2.2-1.6-1.9,0.3-3.8,0.3
		c-1.9,0-3.1-2.2-5-3.4c-1.9-1.3-2.6-1.9-5.3-1.3c-2.9,0.7-2,0.2-5-2.2c-2.7-2.2-0.4-1.3-2-2.5s-4.1-0.9-5.3-3.1V42.8z"></path>
	<path d="M36.6,41.6c1.3,0.9,3.4-0.9,5.3,0.3c1.9,1.3,3.1-1.9,4.4-0.6c1.3,1.3,4.4-0.3,5.9,0.6c1.6,0.9,4.1-0.9,5.6,0
		c1.6,0.9,2.8-1.3,4.7,0c1.9,1.3,4.7-0.3,5.3,0.6c0.6,0.9,2.5,1.6,2.5,1.6s-1.9-1.5-2.5-2.4c-0.6-0.9-3.4,0.6-5.3-0.6
		c-1.9-1.3-3.1,0.9-4.7,0c-1.6-0.9-4.1,0.9-5.6,0c-1.6-0.9-4.7,0.6-5.9-0.6c-1.3-1.3-2.5,1.9-4.4,0.6c-1.9-1.3-4.1,0.6-5.3-0.3
		c-1.3-0.9-3.1,1.1-5,2.4C33.5,41.9,35.3,40.6,36.6,41.6z"></path>
	<path d="M27.5,41.4c0,0,0.6-2.8,6.1-3.9c-4.2,2.5-3.3,3.5,0.6,3.5s-2.6,2.1-2.6,2.1L27.5,41.4z"></path>
	<path d="M75.1,42.6c0,0-0.8-3.2-6.7-4.1c3.3,1.7,3.5,2.9,1.9,3.5C68.6,42.7,75.1,42.6,75.1,42.6z"></path>
</g>
<g id="hlight">
	<path fill="#FFFFFF" d="M97.7,44c0,0-2-5.8-4.1-7.5c-2.1-1.7-6.6-3.8-6.6-3.8s6.7,2.2,8.8,5.8C97.9,42.1,97.7,44,97.7,44z"></path>
	<path fill="#00BD00" d="M38.1,35.8c0,0.4-0.4,0.8-0.9,0.8c-0.5,0-0.9-0.4-0.9-0.8l0.4-1.5c0-0.4,0.4-0.8,0.9-0.8s0.9,0.4,0.9,0.8
		L38.1,35.8z"></path>
	<path fill="#00BD00" d="M62.3,35.2c0,0.4,0.4,0.8,0.9,0.8c0.5,0,0.9-0.4,0.9-0.8l-0.4-1.5c0-0.4-0.4-0.8-0.9-0.8S62,33.3,62,33.8
		L62.3,35.2z"></path>
	<path fill="#00BD00" d="M30.7,46.7c0,0.4,0.4,0.8,0.9,0.8c0.5,0,0.9-0.4,0.9-0.8l-0.4-1.5c0-0.4-0.4-0.8-0.9-0.8s-0.9,0.4-0.9,0.8
		L30.7,46.7z"></path>
	<path fill="#00BD00" d="M89.5,40.4c0,0.4,0.4,0.8,0.9,0.8c0.5,0,0.9-0.4,0.9-0.8l-0.4-1.5c0-0.4-0.4-0.8-0.9-0.8
		c-0.5,0-0.9,0.4-0.9,0.8L89.5,40.4z"></path>
	<path fill="#D415FF" d="M81.3,39.7c0,0.4,0.4,0.8,0.9,0.8c0.5,0,0.9-0.4,0.9-0.8l-0.4-1.5c0-0.4-0.4-0.8-0.9-0.8
		c-0.5,0-0.9,0.4-0.9,0.8L81.3,39.7z"></path>
	<path fill="#FCEE21" d="M17.5,35.4c-0.4,0-0.7-0.3-0.7-0.8c0-0.4,0.3-0.8,0.7-0.8h1.9c0.4,0,0.7,0.3,0.7,0.8c0,0.4-0.3,0.8-0.7,0.8
		H17.5z"></path>
	<path fill="#FFFFFF" d="M84,33.9c-0.4-0.1-0.6-0.5-0.5-0.9c0.1-0.4,0.5-0.7,0.9-0.6l1.9,0.4c0.4,0.1,0.6,0.5,0.5,0.9
		c-0.1,0.4-0.5,0.7-0.9,0.6L84,33.9z"></path>
	<path fill="#FCEE21" d="M45.2,32.5c-0.4,0.1-0.8-0.2-0.8-0.7c-0.1-0.4,0.2-0.8,0.6-0.9l1.9-0.3c0.4-0.1,0.8,0.2,0.8,0.7
		c0.1,0.4-0.2,0.8-0.6,0.9L45.2,32.5z"></path>
	<path fill="#D415FF" d="M27.1,32.2c-0.4,0-0.7-0.3-0.7-0.8s0.3-0.8,0.7-0.8H29c0.4,0,0.7,0.3,0.7,0.8s-0.3,0.8-0.7,0.8H27.1z"></path>
	<path fill="#FFFFFF" d="M78.5,43.7c-0.4,0-0.7-0.3-0.7-0.8c0-0.4,0.3-0.8,0.7-0.8h1.9c0.4,0,0.7,0.3,0.7,0.8c0,0.4-0.3,0.8-0.7,0.8
		H78.5z"></path>
	<path fill="#FCEE21" d="M79.2,36.6c0,0.3,0.4,0.5,0.9,0.5c0.5,0,0.9-0.2,0.9-0.5v-1.3c0-0.3-0.4-0.5-0.9-0.5
		c-0.5,0-0.9,0.2-0.9,0.5V36.6z"></path>
	<path fill="#FCEE21" d="M80.5,48.1c0,0.3,0.4,0.5,0.9,0.5s0.9-0.2,0.9-0.5v-1.3c0-0.3-0.4-0.5-0.9-0.5s-0.9,0.2-0.9,0.5V48.1z"></path>
	<path fill="#FCEE21" d="M38.3,50.3c0,0.3,0.4,0.5,0.9,0.5s0.9-0.2,0.9-0.5V49c0-0.3-0.4-0.5-0.9-0.5s-0.9,0.2-0.9,0.5V50.3z"></path>
	<path fill="#FFFFFF" d="M28.3,45.9c0,0.3,0.4,0.5,1,0.5s1-0.2,1-0.5v-1.5c0-0.3-0.4-0.5-1-0.5s-1,0.2-1,0.5V45.9z"></path>
	<path fill="#FFFFFF" d="M55.6,31.3c-0.1-0.4-0.5-0.8-0.9-0.8c-0.5,0-0.9,0.4-0.9,0.9c0,0.2,0.1,0.4,0.2,0.6
		c0.1,0.4,0.5,0.8,0.9,0.8c0.5,0,0.9-0.4,0.9-0.9C55.9,31.6,55.8,31.4,55.6,31.3z"></path>
	<path fill="#FFFFFF" d="M66.1,47.8c-0.1-0.4-0.5-0.8-0.9-0.8c-0.5,0-0.9,0.4-0.9,0.9c0,0.2,0.1,0.4,0.2,0.6
		c0.1,0.4,0.5,0.8,0.9,0.8c0.5,0,0.9-0.4,0.9-0.9C66.4,48.1,66.3,47.9,66.1,47.8z"></path>
	<path fill="#FFFFFF" d="M44.4,49.8C44.4,49.4,44,49,43.5,49c-0.5,0-0.9,0.4-0.9,0.9c0,0.2,0.1,0.4,0.2,0.6c0.1,0.4,0.5,0.8,0.9,0.8
		c0.5,0,0.9-0.4,0.9-0.9C44.7,50.2,44.6,50,44.4,49.8z"></path>
	<path fill="#FFFFFF" d="M10.6,39c0.1-0.4,0.5-0.8,0.9-0.8c0.5,0,0.9,0.4,0.9,0.9c0,0.2-0.1,0.4-0.2,0.6c-0.1,0.4-0.5,0.8-0.9,0.8
		c-0.5,0-0.9-0.4-0.9-0.9C10.4,39.4,10.4,39.2,10.6,39z"></path>
	<path fill="#FFFFFF" d="M42.1,27.3c-0.1-0.4-0.5-0.8-0.9-0.8c-0.5,0-0.9,0.4-0.9,0.9c0,0.2,0.1,0.4,0.2,0.6
		c0.1,0.4,0.5,0.8,0.9,0.8c0.5,0,0.9-0.4,0.9-0.9C42.3,27.7,42.2,27.5,42.1,27.3z"></path>
	<path fill="#D415FF" d="M18.7,41.7c0.1-0.6,0.6-1,1.2-1c0.7,0,1.2,0.5,1.2,1.2c0,0.3-0.1,0.6-0.3,0.8c-0.1,0.6-0.6,1-1.2,1
		c-0.7,0-1.2-0.5-1.2-1.2C18.4,42.2,18.5,42,18.7,41.7z"></path>
	<path fill="#D415FF" d="M58.2,49.5c0,0.5,0.4,0.9,1,0.9c0.6,0,1-0.4,1-0.9l-0.4-1.7c0-0.5-0.4-0.9-1-0.9c-0.6,0-1,0.4-1,0.9
		L58.2,49.5z"></path>
	<path fill="#FFFFFF" d="M45.1,27.3c4.4,0.6,22.5,0.8,26.5,0.8s11.3,2.7,11.3,2.7s-6.2-1.9-10.5-2c-4.2-0.1-16.4-0.9-19.5-0.7
		C49.7,28.3,45.1,27.3,45.1,27.3z"></path>
	<path fill="#D415FF" d="M64,29.8c-0.4,0-0.8-0.4-0.8-0.9s0.4-0.9,0.8-0.9h2.2c0.4,0,0.8,0.4,0.8,0.9s-0.4,0.9-0.8,0.9H64z"></path>
	<path fill="#FCEE21" d="M72.5,29.5c0,0.3,0.4,0.5,0.9,0.5s0.9-0.2,0.9-0.5v-1.3c0-0.3-0.4-0.5-0.9-0.5s-0.9,0.2-0.9,0.5V29.5z"></path>
	<path fill="#FFFFFF" d="M10.4,34.4c1.5-1.5,4.4-4.2,7.1-4.6c2.7-0.4,15.4-1,18.6-1.9c-5.2,1.5-16.7,1.7-19.2,2.7
		C14.4,31.7,10.4,34.4,10.4,34.4z"></path>
</g>
</g></svg>