<svg version="1.1" id="Layer_1" xmlns="http://www.w3.org/2000/svg" xmlns:xlink="http://www.w3.org/1999/xlink" x="1px" y="9px" width="93px" height="81px" viewBox="1 9 93 81" enable-background="1 9 93 81" xml:space="preserve"><desc>Copyright Opto 22</desc> <desc>Created with Snap</desc><defs/><g xmlns="http://www.w3.org/2000/svg">
<g id="shadow">
	<path d="M92.679,74.417h-1.336c0,0-0.095-0.954-0.381-1.145c-0.859-0.286-1.336,0.191-1.336,0.191s0.286-0.954,0-1.145
		c-0.763-0.668-1.335-0.572-1.335-0.572s0.477-0.954,0.191-1.526c-1.049-0.572-1.908-0.382-1.908-0.382s0.477-1.049-0.191-1.335
		c-0.668-0.286-1.526-0.572-1.526-0.572s0.095-0.763-0.191-1.336c-1.336-0.763-1.908-0.763-1.908-0.763s0-1.145-0.167-1.646
		c-1.169-0.548-2.695-0.453-2.695-0.453s0.191-1.049-0.191-1.526c-1.145-0.382-3.434-0.382-3.434-0.382s0.191-0.859-0.095-1.431
		c-1.717-0.095-3.53,0.477-3.53,0.477s-0.095-1.24-0.763-1.717c-1.431,0-3.22,0.286-3.22,0.286s-0.215-1.049-0.787-1.24
		c-1.145,0.095-3.625,0.954-3.625,0.954s-0.477-0.763-1.335-0.978c-0.954,0.501-3.816,1.741-3.816,1.741s0.191-0.572-0.191-1.145
		c-0.572,0.095-2.862,1.908-2.862,1.908s-0.191-0.477-0.382-0.954c-1.526,0.668-4.77,4.197-4.77,4.197s-0.286-0.763-0.954-1.145
		c-0.763,0.668-1.526,1.336-4.579,5.151c-2.531,3.164-1.767,6.85-1.432,8.018l-0.14,0.032c-0.043-0.305-1.137-8.021-0.856-9.143
		c0.21-0.838,1.648-5.666,3.976-10.215l0.99-0.481c0,0,3.736-0.445,5.07-1.11c1.333-0.665,3.354-0.404,3.933-0.775
		c0.579-0.371,1.268-1.11,1.268-1.11s2.109-0.534,2.897-1.855c0.907-0.644,1.689-1.238,2.219-1.735l-0.622-0.481
		c0,0,2.339-1.058,3.203-2.554c0.055-0.601-0.721-0.733-0.721-0.733s2.219-1.735,2.734-3.384c-0.196-0.502-0.45-0.458-0.45-0.458
		s1.349-2.065,1.71-3.364c-0.469-0.831-0.694-0.852-0.694-0.852s1.232-2.037,1.681-3.299l-1.649-0.515c0,0,1.116-1.594,1.554-3.068
		c-0.448-0.405-1.474-0.438-1.474-0.438s0.826-1.409,0.953-3.124C69.316,26.782,68.387,27,68.387,27s0.4-1.387,0.395-2.326
		c-0.234-0.416-1.125-0.285-1.125-0.285s0.406-2.114,0.527-3.102c-0.273-0.328-1.628-0.089-1.628-0.089s0.132-0.776,0.395-2.326
		c-0.256-0.842-0.874-0.383-0.874-0.383l0.208-0.95l-0.218-0.929l-0.218-0.929l-0.141-1.104l-0.184-1.956l0.208-0.95l-0.064-1.278
		l-1.312,1.091l-0.537,1.224c0,0-0.912-0.296-1.201-0.111c-0.607,0.671-0.362,1.3-0.362,1.3s-0.759-0.645-1.048-0.459
		c-0.918,0.43-1.061,0.993-1.061,0.993s-0.682-0.82-1.321-0.788c-0.946,0.731-1.116,1.594-1.116,1.594s-0.769-0.859-1.3-0.362
		c-0.53,0.496-1.137,1.168-1.137,1.168s-0.661-0.394-1.3-0.362c-1.235,0.917-1.465,1.441-1.465,1.441s-1.048-0.46-1.574-0.508
		c-0.972,0.85-1.498,2.286-1.498,2.286s-0.884-0.596-1.474-0.438c-0.809,0.895-1.729,2.992-1.729,2.992s-0.71-0.519-1.349-0.487
		c-0.777,1.534-0.981,3.424-0.981,3.424s-1.174-0.411-1.879,0.009c-0.574,1.311-1.031,3.064-1.031,3.064s-1.047-0.225-1.452,0.222
		c-0.372,1.087-0.582,3.703-0.582,3.703s-0.891,0.13-1.432,0.83c0.075,1.075,0.062,4.194,0.062,4.194s-0.448-0.405-1.125-0.285
		c-0.143,0.563,0.598,3.387,0.598,3.387s-0.514-0.017-1.027-0.034c-0.001,0.865,0.52,2.464,1.02,3.802
		c-0.106-0.125-0.217-0.246-0.335-0.351c-0.577-0.176-0.863,0.557-0.863,0.557s-1.249-2.525-2.759-3.364
		c-0.532,0.09-0.54,0.348-0.54,0.348s-1.748-1.739-2.948-2.357c-0.909,0.291-0.975,0.507-0.975,0.507s-1.745-1.62-2.889-2.315
		l-0.839,1.51c0,0-1.335-1.416-2.689-2.144c-0.487,0.356-0.728,1.355-0.728,1.355s-1.212-1.095-2.865-1.567
		c-0.532,0.09-0.508,1.044-0.508,1.044s-1.277-0.673-2.198-0.859c-0.455,0.145-0.507,1.044-0.507,1.044s-1.987-0.826-2.931-1.146
		c-0.376,0.201-0.417,1.576-0.417,1.576s-0.733-0.287-2.198-0.859c-0.876,0.08-0.552,0.778-0.552,0.778L8.43,36.642l-0.954,0.025
		l-0.954,0.025l-1.109-0.086l-1.952-0.217l-0.888-0.397l-1.265-0.196l0.803,1.506L3.2,38.076c0,0-0.475,0.833-0.352,1.154
		c0.534,0.731,1.199,0.618,1.199,0.618s-0.786,0.612-0.663,0.933c0.235,0.986,0.757,1.24,0.757,1.24S3.2,42.522,3.102,43.155
		c0.524,1.074,1.334,1.416,1.334,1.416s-0.996,0.579-0.618,1.2c0.379,0.62,0.913,1.35,0.913,1.35s-0.52,0.567-0.618,1.199
		c0.647,1.396,1.114,1.727,1.114,1.727S4.564,50.98,4.41,51.485c0.635,1.124,1.935,1.93,1.935,1.93S5.582,54.16,5.617,54.77
		c0.712,0.974,2.579,2.3,2.579,2.3s-0.653,0.59-0.751,1.222c1.345,1.072,3.154,1.655,3.154,1.655s-0.64,1.066-0.372,1.842
		c1.167,0.828,2.791,1.631,2.791,1.631s-0.433,0.98-0.077,1.467c0.989,0.585,3.508,1.322,3.508,1.322s-0.053,0.899,0.523,1.57
		c1.068,0.144,4.119,0.79,4.119,0.79s-0.487,0.356-0.507,1.044c0.522,0.254,3.438,0.102,3.438,0.102s-0.12,0.5-0.241,0.999
		c1.631,0.339,6.319-0.66,6.319-0.66s-0.209,0.788,0.115,1.485c1.009-0.102,2.018-0.205,6.716-1.548
		c1.809-0.517,3.102-1.538,4.011-2.598c-0.003,0.005-0.007,0.013-0.011,0.017c1.145,2.862,0.572,9.158,0.572,9.158l0.105-0.026
		c-0.083,0.593-0.728,4.837-2.852,9.085l1.86,0.715c0.286-1.717,2.146-6.296,2.719-8.013c0.25-0.751,0.624-1.352,0.965-1.79
		l0.871,0.741c0,0,1.908,3.244,3.053,4.197c1.145,0.954,1.717,2.91,2.289,3.291c0.572,0.381,1.526,0.715,1.526,0.715
		s1.336,1.717,2.862,1.908c0.954,0.572,1.812,1.049,2.48,1.335l0.191-0.763c0,0,1.908,1.717,3.625,1.908
		c0.572-0.191,0.381-0.954,0.381-0.954s2.48,1.336,4.197,1.145c0.381-0.381,0.238-0.596,0.238-0.596s2.433,0.406,3.768,0.215
		c0.572-0.763,0.501-0.978,0.501-0.978s2.361,0.31,3.697,0.215L73.79,87.2c0,0,1.908,0.382,3.434,0.191
		c0.191-0.572-0.191-1.527-0.191-1.527s1.622,0.191,3.243-0.381c0.382-0.381-0.191-1.145-0.191-1.145s1.431-0.191,2.289-0.572
		c0.286-0.381-0.191-1.145-0.191-1.145s2.099-0.477,3.053-0.763c0.191-0.381-0.572-1.526-0.572-1.526s0.763-0.191,2.289-0.572
		c0.668-0.572,0-0.954,0-0.954l0.954-0.191l0.763-0.572l0.763-0.572l0.954-0.572l1.717-0.954l0.954-0.191l1.145-0.572L92.679,74.417
		z M42.499,62.478c0,0,0.322-3.749-0.058-5.19c-0.158-0.597-0.135-1.276-0.073-1.913c1.017,0.632,2.037,0.982,2.82,1.176
		c-0.33,0.509-0.536,0.841-0.536,0.841c-0.295,1.475-1.123,3.863-1.933,5.948L42.499,62.478z"></path>
</g>
<g id="shape">
	<path fill="#5A863C" d="M92.464,73.702h-1.336c0,0-0.095-0.954-0.381-1.145c-0.14-0.047-0.266-0.068-0.386-0.079
		c-0.03-0.003-0.058-0.004-0.086-0.005c-0.101-0.004-0.194,0-0.278,0.014c-0.006,0.001-0.015,0-0.022,0.001c0,0.001,0,0.001,0,0.001
		c-0.366,0.065-0.564,0.259-0.564,0.259s0.286-0.954,0-1.145c-0.135-0.118-0.261-0.206-0.382-0.281c0.002,0,0.003-0.001,0.005-0.001
		c-0.014-0.009-0.026-0.012-0.04-0.02c-0.112-0.067-0.217-0.122-0.313-0.16c-0.005-0.002-0.01-0.005-0.015-0.007
		c-0.101-0.039-0.187-0.063-0.265-0.079c-0.006-0.001-0.015-0.005-0.021-0.006c0,0.001,0,0.001,0,0.002
		c-0.189-0.036-0.304-0.021-0.304-0.021s0.477-0.954,0.191-1.526c-1.049-0.572-1.908-0.382-1.908-0.382s0.477-1.049-0.191-1.335
		c-0.668-0.286-1.526-0.572-1.526-0.572s0.095-0.763-0.191-1.336c-1.336-0.763-1.908-0.763-1.908-0.763s0-1.145-0.167-1.646
		c-1.169-0.548-2.695-0.453-2.695-0.453s0.191-1.049-0.191-1.526c-0.707-0.236-1.849-0.326-2.62-0.36
		c-0.013-0.066-0.03-0.123-0.051-0.165c-0.24-0.013-0.488-0.014-0.737-0.007c0,0,0,0,0,0.001c0.031-0.206,0.064-0.593-0.015-0.955
		c0.001,0,0.002,0,0.004,0c-0.002-0.01-0.007-0.018-0.009-0.027c-0.024-0.104-0.055-0.206-0.101-0.299
		c-0.309-0.017-0.618-0.008-0.922,0.011c-0.028,0.002-0.057-0.001-0.085,0.001c0,0.002,0,0.003-0.001,0.005
		c-1.35,0.096-2.522,0.46-2.522,0.46s-0.065-0.774-0.421-1.334c0.002,0,0.003-0.001,0.005-0.001
		c-0.006-0.01-0.017-0.016-0.023-0.026c-0.09-0.136-0.193-0.263-0.324-0.356c-0.157,0-0.318,0.004-0.481,0.01c0,0,0,0,0,0.001
		c-1.321,0.05-2.739,0.275-2.739,0.275s-0.201-0.961-0.724-1.206c0.004-0.001,0.007-0.001,0.012-0.002
		c-0.024-0.012-0.049-0.024-0.074-0.032c-0.11,0.009-0.235,0.027-0.366,0.049c-0.001,0-0.001,0-0.002,0l0,0
		c-1.235,0.206-3.257,0.905-3.257,0.905s-0.477-0.763-1.335-0.978c-0.954,0.501-3.816,1.741-3.816,1.741s0.191-0.572-0.191-1.145
		c-0.572,0.095-2.862,1.908-2.862,1.908s-0.191-0.477-0.382-0.954c-1.526,0.668-4.77,4.197-4.77,4.197s-0.286-0.763-0.954-1.145
		c-0.763,0.668-1.526,1.336-4.579,5.151c-0.177,0.221-0.334,0.446-0.48,0.671c-0.047,0.072-0.087,0.145-0.131,0.217
		c-0.094,0.155-0.184,0.311-0.264,0.467c-0.043,0.083-0.082,0.165-0.122,0.248c-0.071,0.15-0.137,0.3-0.197,0.45
		c-0.032,0.08-0.065,0.16-0.094,0.24c-0.059,0.163-0.111,0.325-0.159,0.487c-0.018,0.063-0.04,0.126-0.057,0.188
		c-0.055,0.203-0.101,0.405-0.14,0.604c-0.245-2.15-0.412-4.097-0.301-4.544c0.33-1.321,1.885-6.274,4.248-10.704l0.234-0.114
		c0,0,3.736-0.445,5.07-1.11c1.333-0.665,3.354-0.404,3.933-0.775c0.58-0.371,1.268-1.11,1.268-1.11s2.109-0.534,2.897-1.855
		c0.907-0.644,1.689-1.238,2.219-1.735l-0.622-0.481c0,0,2.339-1.057,3.203-2.554c0.055-0.601-0.721-0.732-0.721-0.732
		s2.219-1.735,2.734-3.385c-0.196-0.502-0.45-0.458-0.45-0.458s1.349-2.065,1.71-3.364c-0.469-0.831-0.694-0.852-0.694-0.852
		s1.232-2.037,1.681-3.299l-1.649-0.515c0,0,1.116-1.594,1.554-3.068c-0.448-0.405-1.474-0.438-1.474-0.438s0.826-1.409,0.953-3.124
		c-0.196-0.503-1.125-0.285-1.125-0.285s0.4-1.387,0.395-2.326c-0.234-0.416-1.125-0.285-1.125-0.285s0.406-2.114,0.527-3.102
		c-0.273-0.328-1.628-0.089-1.628-0.089s0.132-0.776,0.395-2.326c-0.256-0.841-0.874-0.383-0.874-0.383l0.208-0.95l-0.218-0.929
		l-0.218-0.929l-0.141-1.104l-0.184-1.956l0.208-0.95l-0.064-1.278l-1.312,1.091l-0.537,1.224c0,0-0.912-0.296-1.201-0.111
		c-0.607,0.671-0.362,1.3-0.362,1.3s-0.759-0.645-1.048-0.459c-0.918,0.43-1.061,0.993-1.061,0.993s-0.682-0.82-1.321-0.788
		c-0.946,0.731-1.116,1.594-1.116,1.594s-0.769-0.859-1.3-0.362c-0.53,0.496-1.137,1.168-1.137,1.168s-0.661-0.394-1.3-0.362
		c-1.235,0.917-1.465,1.441-1.465,1.441s-1.048-0.46-1.574-0.508c-0.972,0.85-1.498,2.286-1.498,2.286s-0.884-0.596-1.474-0.438
		c-0.809,0.895-1.729,2.992-1.729,2.992s-0.71-0.519-1.349-0.487c-0.777,1.534-0.981,3.424-0.981,3.424s-1.174-0.411-1.879,0.009
		c-0.574,1.311-1.031,3.064-1.031,3.064s-1.047-0.225-1.452,0.222c-0.372,1.087-0.582,3.703-0.582,3.703s-0.891,0.13-1.432,0.83
		c0.076,1.075,0.062,4.194,0.062,4.194s-0.448-0.405-1.125-0.285c-0.143,0.563,0.598,3.387,0.598,3.387s-0.514-0.016-1.027-0.034
		c-0.001,0.865,0.52,2.464,1.02,3.802c0,0,0,0-0.001-0.001c-0.106-0.125-0.216-0.245-0.335-0.351
		c-0.577-0.176-0.863,0.557-0.863,0.557s-1.249-2.525-2.759-3.364c-0.532,0.09-0.54,0.348-0.54,0.348s-1.748-1.74-2.948-2.357
		c-0.909,0.291-0.975,0.507-0.975,0.507s-1.745-1.62-2.889-2.315l-0.839,1.51c0,0-1.335-1.416-2.689-2.144
		c-0.487,0.356-0.728,1.355-0.728,1.355s-1.212-1.095-2.865-1.567c-0.532,0.09-0.508,1.044-0.508,1.044s-1.277-0.673-2.198-0.859
		c-0.455,0.145-0.507,1.044-0.507,1.044s-1.987-0.826-2.931-1.146c-0.376,0.201-0.417,1.576-0.417,1.576s-0.733-0.287-2.198-0.859
		c-0.876,0.08-0.552,0.778-0.552,0.778L8.21,35.926l-0.954,0.025l-0.954,0.025L5.198,35.89l-1.952-0.217l-0.888-0.397L1.093,35.08
		l0.802,1.506l1.089,0.774c0,0-0.475,0.833-0.352,1.154c0.534,0.731,1.199,0.618,1.199,0.618s-0.786,0.612-0.663,0.933
		c0.235,0.986,0.757,1.24,0.757,1.24s-0.941,0.502-1.039,1.134c0.524,1.074,1.334,1.416,1.334,1.416s-0.996,0.579-0.618,1.2
		c0.379,0.62,0.913,1.35,0.913,1.35s-0.52,0.567-0.618,1.199C4.546,49,5.013,49.331,5.013,49.331s-0.663,0.933-0.817,1.438
		c0.635,1.124,1.935,1.93,1.935,1.93s-0.763,0.745-0.728,1.355c0.712,0.974,2.579,2.3,2.579,2.3s-0.653,0.59-0.751,1.222
		c1.345,1.072,3.154,1.655,3.154,1.655s-0.64,1.066-0.372,1.842c1.167,0.828,2.791,1.631,2.791,1.631s-0.433,0.98-0.077,1.467
		c0.989,0.585,3.508,1.322,3.508,1.322s-0.053,0.899,0.523,1.57c1.068,0.144,4.119,0.79,4.119,0.79s-0.487,0.356-0.507,1.044
		c0.522,0.254,3.438,0.102,3.438,0.102s-0.12,0.5-0.241,0.999c1.631,0.339,6.319-0.66,6.319-0.66s-0.209,0.788,0.115,1.485
		c1.009-0.102,2.018-0.205,6.716-1.548c0.406-0.116,0.778-0.265,1.133-0.427c0.081-0.037,0.162-0.074,0.241-0.113
		c0.339-0.168,0.66-0.348,0.954-0.547c0.023-0.015,0.042-0.032,0.065-0.048c0.281-0.195,0.537-0.402,0.778-0.616
		c0.048-0.043,0.097-0.084,0.143-0.128c0.247-0.23,0.476-0.465,0.682-0.704c0.004-0.005,0.009-0.009,0.013-0.014
		c-0.003,0.004-0.007,0.012-0.009,0.016c1.145,2.862,0.572,9.158,0.572,9.158l0.105-0.026c-0.002,0.015-0.006,0.038-0.008,0.058
		c-0.004,0.026-0.007,0.049-0.012,0.083c-0.01,0.064-0.022,0.141-0.036,0.231c-0.001,0.003-0.001,0.005-0.001,0.009
		c-0.015,0.094-0.034,0.203-0.055,0.324c-0.005,0.029-0.012,0.065-0.018,0.096c-0.017,0.096-0.036,0.195-0.057,0.304
		c-0.009,0.045-0.019,0.097-0.029,0.144c-0.02,0.103-0.041,0.208-0.065,0.321c-0.013,0.061-0.028,0.129-0.042,0.193
		c-0.024,0.11-0.048,0.222-0.075,0.34c-0.016,0.071-0.034,0.146-0.051,0.219c-0.028,0.12-0.057,0.242-0.088,0.368
		c-0.02,0.082-0.042,0.167-0.064,0.252c-0.032,0.126-0.066,0.255-0.101,0.387c-0.024,0.091-0.05,0.184-0.076,0.278
		c-0.037,0.134-0.076,0.27-0.116,0.408c-0.029,0.098-0.058,0.198-0.088,0.298c-0.042,0.14-0.086,0.282-0.131,0.425
		c-0.033,0.105-0.066,0.21-0.101,0.316c-0.048,0.147-0.099,0.297-0.15,0.447c-0.037,0.107-0.073,0.214-0.111,0.322
		c-0.055,0.155-0.113,0.312-0.172,0.469c-0.04,0.109-0.08,0.217-0.122,0.327c-0.063,0.162-0.129,0.327-0.196,0.491
		c-0.043,0.107-0.085,0.213-0.13,0.321c-0.077,0.182-0.158,0.367-0.24,0.551c-0.04,0.091-0.078,0.182-0.12,0.273
		c-0.126,0.276-0.258,0.553-0.396,0.829l1.388,0.534c-0.006,0.031-0.016,0.07-0.021,0.099l0.492,0.082h0.001l0,0l0.493,0.082
		c0.191-1.147,1.177-3.792,1.896-5.723c0.334-0.896,0.629-1.688,0.804-2.214c0.227-0.681,0.566-1.22,0.877-1.621l0.486,0.414
		c0,0,1.908,3.244,3.053,4.198c1.145,0.954,1.717,2.91,2.289,3.291c0.572,0.381,1.526,0.715,1.526,0.715s1.336,1.717,2.862,1.908
		c0.954,0.572,1.812,1.049,2.48,1.335l0.191-0.763c0,0,1.908,1.717,3.625,1.908c0.572-0.191,0.381-0.954,0.381-0.954
		s2.48,1.336,4.197,1.145c0.382-0.382,0.238-0.596,0.238-0.596s2.433,0.406,3.768,0.215c0.572-0.763,0.501-0.978,0.501-0.978
		s2.361,0.31,3.697,0.215l-0.191-1.717c0,0,1.908,0.382,3.434,0.191c0.191-0.572-0.191-1.526-0.191-1.526s1.622,0.191,3.243-0.381
		c0.382-0.382-0.191-1.145-0.191-1.145s1.431-0.191,2.289-0.572c0.286-0.381-0.191-1.145-0.191-1.145s2.099-0.477,3.053-0.763
		c0.191-0.381-0.572-1.526-0.572-1.526s0.763-0.191,2.289-0.572c0.668-0.572,0-0.954,0-0.954l0.954-0.191l0.763-0.572l0.763-0.572
		l0.954-0.572l1.717-0.954l0.954-0.191l1.145-0.572L92.464,73.702z M43.351,72.904c0-0.003,0-0.006-0.001-0.009
		C43.351,72.898,43.351,72.901,43.351,72.904z M43.458,74.032c0.005,0.031,0.01,0.061,0.015,0.092
		c-0.005-0.032-0.011-0.063-0.016-0.096C43.458,74.029,43.458,74.031,43.458,74.032z M43.548,74.535
		c0.003,0.016,0.006,0.032,0.009,0.047c-0.005-0.025-0.01-0.049-0.015-0.075C43.544,74.517,43.546,74.525,43.548,74.535z
		 M43.64,74.946c-0.001-0.004-0.002-0.01-0.003-0.014C43.637,74.936,43.638,74.941,43.64,74.946z M46.699,55.904L46.699,55.904
		l0.336-0.163L46.699,55.904z M44.973,55.835c-0.017,0.027-0.03,0.047-0.047,0.073c-0.058,0.089-0.111,0.173-0.16,0.249
		c-0.018,0.028-0.033,0.051-0.049,0.077c-0.046,0.073-0.087,0.136-0.123,0.193c-0.009,0.015-0.017,0.027-0.026,0.041
		c-0.032,0.051-0.058,0.091-0.078,0.124c-0.033,0.052-0.054,0.086-0.054,0.086c-0.036,0.182-0.081,0.378-0.133,0.585
		c-0.017,0.068-0.039,0.144-0.057,0.215c-0.038,0.144-0.075,0.288-0.118,0.441c-0.025,0.087-0.053,0.18-0.079,0.269
		c-0.043,0.146-0.085,0.29-0.131,0.441c-0.031,0.1-0.065,0.205-0.098,0.308c-0.047,0.148-0.093,0.295-0.144,0.447
		c-0.033,0.101-0.069,0.204-0.103,0.306c-0.054,0.16-0.107,0.319-0.163,0.481c-0.034,0.098-0.07,0.198-0.105,0.296
		c-0.059,0.167-0.118,0.334-0.179,0.502c-0.036,0.099-0.072,0.197-0.109,0.295c-0.062,0.169-0.125,0.339-0.188,0.507
		c-0.035,0.092-0.069,0.183-0.104,0.274c-0.065,0.172-0.131,0.344-0.196,0.513c-0.009,0.022-0.017,0.044-0.026,0.067l-0.218-0.861
		c0,0,0.322-3.749-0.058-5.19c-0.044-0.167-0.072-0.342-0.091-0.52c-0.007-0.062-0.008-0.125-0.013-0.187
		c-0.008-0.117-0.013-0.235-0.014-0.353c0-0.076,0.002-0.153,0.004-0.229c0.004-0.106,0.009-0.211,0.016-0.316
		c0.006-0.083,0.011-0.166,0.019-0.248c0.002-0.02,0.004-0.039,0.006-0.059C43.171,55.292,44.191,55.642,44.973,55.835z
		 M76.126,61.11c-0.032,0-0.07,0-0.07,0S76.082,61.109,76.126,61.11z M76.673,61.124c-0.061-0.002-0.125-0.005-0.179-0.006
		C76.549,61.119,76.61,61.121,76.673,61.124z M76.34,61.114c-0.049-0.001-0.097-0.002-0.134-0.003
		C76.245,61.112,76.286,61.112,76.34,61.114z"></path>
</g>
<g id="light">
	<path fill="#8EB566" d="M68.234,37.015c0,0,1.232-2.037,1.681-3.299l-1.649-0.515c0,0,1.116-1.594,1.554-3.068
		c-0.448-0.405-1.474-0.438-1.474-0.438s0.826-1.409,0.953-3.124c-0.196-0.503-1.125-0.285-1.125-0.285s0.4-1.387,0.395-2.326
		c-0.234-0.416-1.125-0.285-1.125-0.285s0.406-2.114,0.527-3.102c-0.273-0.328-1.628-0.089-1.628-0.089s0.132-0.776,0.395-2.326
		c-0.256-0.841-0.874-0.383-0.874-0.383l0.208-0.95l-0.218-0.929l-0.218-0.929l-0.141-1.104l-0.184-1.956l0.208-0.95l-0.064-1.278
		l-1.312,1.091l-0.537,1.224c0,0-0.912-0.296-1.201-0.111c-0.607,0.671-0.362,1.3-0.362,1.3s-0.759-0.645-1.048-0.459
		c-0.918,0.43-1.061,0.993-1.061,0.993s-0.682-0.82-1.321-0.788c-0.946,0.731-1.116,1.594-1.116,1.594s-0.769-0.859-1.3-0.362
		c-0.53,0.496-1.137,1.168-1.137,1.168s-0.661-0.394-1.3-0.362c-1.235,0.917-1.465,1.441-1.465,1.441s-1.048-0.46-1.574-0.508
		c-0.972,0.85-1.498,2.286-1.498,2.286s-0.884-0.596-1.474-0.438c-0.809,0.895-1.729,2.992-1.729,2.992s-0.71-0.519-1.349-0.487
		c-0.777,1.534-0.981,3.424-0.981,3.424s-1.174-0.411-1.879,0.009c-0.574,1.311-1.031,3.064-1.031,3.064s-1.047-0.225-1.452,0.222
		c-0.372,1.087-0.582,3.703-0.582,3.703s-0.891,0.13-1.432,0.83c0.076,1.075,0.062,4.194,0.062,4.194s-0.448-0.405-1.125-0.285
		c-0.143,0.563,0.598,3.387,0.598,3.387s-0.514-0.016-1.027-0.034c-0.001,0.866,0.52,2.465,1.021,3.803
		c1.05,1.241,1.515,3.303,1.515,3.303l0.597-0.512c0.379,0.62,0.803,1.506,1.249,2.525c1.134,1.039,1.229,3.213,1.229,3.213
		s0.584,0.824,0.83,1.467c0.144,0.375-0.022,1.191-0.11,2.089c2.093,1.301,4.206,1.415,4.206,1.415l1.324-0.643
		c0,0,3.736-0.445,5.07-1.11c1.333-0.665,3.354-0.404,3.933-0.775c0.58-0.371,1.268-1.11,1.268-1.11s2.109-0.534,2.897-1.855
		c0.907-0.644,1.689-1.238,2.219-1.735l-0.622-0.481c0,0,2.339-1.057,3.203-2.554c0.055-0.601-0.721-0.732-0.721-0.732
		s2.219-1.735,2.734-3.385c-0.196-0.502-0.45-0.458-0.45-0.458s1.349-2.065,1.71-3.364C68.459,37.035,68.234,37.015,68.234,37.015z"></path>
	<path fill="#8EB566" d="M45.861,56.008c-0.267-0.04-0.624-0.111-1.048-0.223c-0.255,0.397-0.42,0.661-0.444,0.699l-0.065,0.166
		c-0.282,1.409-1.075,3.709-1.86,5.741l0.202,0.798c0,0-0.503,1.919-2.076,3.661l0.04,0.1c1.087,2.718,0.544,8.865,0.545,8.88
		c-0.01,0.053-1.028,5.356-2.91,8.843l0.88,0.475c1.957-3.624,2.971-8.908,3.02-9.18c0.023-0.255,0.542-6.136-0.519-9.157
		c0.771-1.432,3.058-7.086,3.641-9.874C45.356,56.794,45.571,56.453,45.861,56.008z"></path>
</g>
<g id="dark">
	<path fill="#517837" d="M92.464,73.702h-0.382l-0.381,0.191l-0.954,0.191l-1.717,0.954l-0.954,0.572l-0.763,0.572l-0.763,0.572
		l-0.954,0.191c0,0,0.668,0.381,0,0.954c-1.526,0.381-2.289,0.572-2.289,0.572s0.763,1.145,0.572,1.526
		c-0.954,0.286-3.053,0.763-3.053,0.763s0.477,0.763,0.191,1.145c-0.859,0.381-2.289,0.572-2.289,0.572s0.572,0.763,0.191,1.145
		c-1.622,0.572-3.243,0.381-3.243,0.381s0.382,0.954,0.191,1.527c-1.526,0.191-3.434-0.191-3.434-0.191l0.191,1.717
		c-1.335,0.095-3.697-0.215-3.697-0.215s0.072,0.215-0.501,0.978c-1.335,0.191-3.768-0.215-3.768-0.215s0.143,0.215-0.238,0.596
		c-1.717,0.191-4.197-1.145-4.197-1.145s0.191,0.763-0.381,0.954c-1.717-0.191-3.625-1.908-3.625-1.908l-0.191,0.763
		c-0.668-0.286-1.526-0.763-2.48-1.335c-1.526-0.191-2.862-1.908-2.862-1.908s-0.501-0.176-0.994-0.417
		c0.219,0.397,0.416,0.715,0.613,0.847c0.572,0.381,1.526,0.715,1.526,0.715s1.336,1.717,2.862,1.908
		c0.954,0.572,1.812,1.049,2.48,1.335l0.191-0.763c0,0,1.908,1.717,3.625,1.908c0.572-0.191,0.381-0.954,0.381-0.954
		s2.48,1.336,4.197,1.145c0.381-0.381,0.238-0.596,0.238-0.596s2.433,0.406,3.768,0.215c0.572-0.763,0.501-0.978,0.501-0.978
		s2.361,0.31,3.697,0.215l-0.191-1.717c0,0,1.908,0.382,3.434,0.191c0.191-0.572-0.191-1.527-0.191-1.527s1.622,0.191,3.243-0.381
		c0.382-0.381-0.191-1.145-0.191-1.145s1.431-0.191,2.289-0.572c0.286-0.381-0.191-1.145-0.191-1.145s2.099-0.477,3.053-0.763
		c0.191-0.381-0.572-1.526-0.572-1.526s0.763-0.191,2.289-0.572c0.668-0.572,0-0.954,0-0.954l0.954-0.191l0.763-0.572l0.763-0.572
		l0.954-0.572l1.717-0.954l0.954-0.191l1.145-0.572L92.464,73.702z"></path>
	<path fill="#517837" d="M27.881,53.764c0,0,0.954-3.434,1.336-8.204c0.191,5.724-0.572,9.158-0.572,9.158L27.881,53.764z"></path>
	<path fill="#517837" d="M32.078,57.579c0,0,1.097-3.768,1.097-7.202c0,0,0.048,5.485-0.334,7.012
		C32.46,58.915,32.078,57.579,32.078,57.579z"></path>
	<path fill="#517837" d="M24.828,51.665c0,0,0-5.723,0.191-10.493c-1.145,8.967-1.145,9.73-1.145,9.73L24.828,51.665z"></path>
	<path fill="#517837" d="M20.44,47.849c0,0,0-3.625-0.381-7.822c-0.382,5.533-0.572,7.25-0.572,7.25L20.44,47.849z"></path>
	<polygon fill="#517837" points="16.815,45.56 16.052,40.79 12.236,39.454 11.854,41.553 	"></polygon>
	<polygon fill="#517837" points="10.71,40.599 11.091,37.165 8.42,36.593 3.246,35.674 	"></polygon>
	<path fill="#517837" d="M75.96,59.679c-1.717-0.095-3.53,0.477-3.53,0.477s-0.095-1.24-0.763-1.717c-1.431,0-3.22,0.286-3.22,0.286
		s-0.215-1.049-0.787-1.24c-1.145,0.095-3.625,0.954-3.625,0.954s-0.477-0.763-1.335-0.978c-0.954,0.501-3.816,1.741-3.816,1.741
		s0.191-0.572-0.191-1.145c-0.572,0.095-2.862,1.908-2.862,1.908s-0.191-0.477-0.382-0.954c-1.526,0.668-4.77,4.197-4.77,4.197
		s-0.286-0.763-0.954-1.145c-0.763,0.668-1.526,1.336-4.579,5.151l3.612-0.203c0.736-0.81,1.138-1.163,1.54-1.514
		c0.668,0.381,0.954,1.145,0.954,1.145s3.243-3.53,4.77-4.197c0.191,0.477,0.382,0.954,0.382,0.954s2.289-1.812,2.862-1.908
		c0.381,0.572,0.191,1.145,0.191,1.145s2.862-1.24,3.816-1.741c0.859,0.215,1.335,0.262,1.335,0.262s2.48-0.859,3.625-0.954
		c0.572,0.191,0.787,0.525,0.787,0.525s1.789-0.286,3.22-0.286c0.668,0.477,0.763,0.93,0.763,0.93s1.552-0.369,3.079-0.413
		C76.122,60.688,76.173,60.104,75.96,59.679z"></path>
	<path fill="#517837" d="M46.483,48.135c0,0-3.434-2.576-8.013-7.727C43.335,46.99,46.483,48.135,46.483,48.135z"></path>
	<path fill="#517837" d="M46.483,43.842c0,0-4.865-3.72-7.155-8.586C43.049,42.697,46.483,43.842,46.483,43.842z"></path>
	<path fill="#517837" d="M47.914,38.691c-5.151-3.148-7.155-6.582-7.155-6.582L47.914,38.691z"></path>
	<path fill="#517837" d="M50.776,75.036c0,0,0.286,3.72,1.145,6.296C51.921,77.04,50.776,75.036,50.776,75.036z"></path>
	<path fill="#517837" d="M55.641,75.323c0,0,0.569-0.534,0.844,0.875c0.303,1.55,0.325,5.15,0.587,7.424
		C56.499,77.04,55.641,75.323,55.641,75.323z"></path>
	<path fill="#517837" d="M61.078,75.609c0,0,1.002,5.724,2.433,9.158l-2.146-10.589L61.078,75.609z"></path>
	<path fill="#517837" d="M68.591,75.323l1.932,8.586c0,0-1.717-3.72-2.862-9.158L68.591,75.323z"></path>
	<path fill="#517837" d="M46.769,54.717c0,0,0.286-18.03,15.454-38.635C44.48,39.836,46.769,54.717,46.769,54.717z"></path>
	<path fill="#517837" d="M86.931,69.886c0,0,0.572-0.095,1.335,0.572c0.005,0.004,0.009,0.009,0.015,0.014
		c0.082-0.308,0.127-0.684-0.015-0.968c-0.403-0.22-0.777-0.326-1.086-0.375C87.106,69.534,86.931,69.886,86.931,69.886z"></path>
	<path fill="#517837" d="M81.398,63.971c0,0,0.343,0.002,1.113,0.353c-0.023-0.309-0.064-0.64-0.135-0.854
		c-0.323-0.152-0.674-0.253-1.012-0.322C81.398,63.576,81.398,63.971,81.398,63.971z"></path>
	<path fill="#517837" d="M85.214,67.978c0,0,0.523-0.114,1.25,0.106c-0.052-0.124-0.143-0.231-0.296-0.297
		c-0.261-0.112-0.55-0.224-0.807-0.318C85.319,67.745,85.214,67.978,85.214,67.978z"></path>
	<path fill="#517837" d="M83.497,66.07c0,0,0.562,0.187,1.13,0.41c-0.028-0.198-0.081-0.41-0.176-0.601
		c-0.382-0.218-0.699-0.372-0.96-0.483C83.535,65.765,83.497,66.07,83.497,66.07z"></path>
	<path fill="#517837" d="M78.536,61.873c0,0,0.497-0.03,1.141,0.044c-0.036-0.16-0.094-0.31-0.187-0.426
		c-0.257-0.086-0.573-0.151-0.906-0.203C78.584,61.61,78.536,61.873,78.536,61.873z"></path>
</g>
<g id="hlight">
	<path fill="#8EB566" d="M45.029,75.037c0,0,12.425-3.53,42.761-0.668c-24.422-1.336-41.697,0.114-42.069,0.859
		C45.911,74.846,45.029,75.037,45.029,75.037z"></path>
	<path fill="#8EB566" d="M6.322,38.118c21.177,15.645,24.802,18.316,33.961,26.52l1.144,1.526c0,0-2.289-2.242-4.961-4.531
		l-3.243,1.288c0,0,1.717-0.954,2.48-1.717c-0.763-0.763-3.625-3.053-3.625-3.053s-1.908,0.954-3.625,1.336
		c2.099-0.954,2.671-1.908,2.671-1.908l-3.053-2.671c0,0-3.053,1.145-4.579,1.526c1.908-0.954,3.768-2.051,3.768-2.051l-3.625-2.886
		c0,0-4.722,1.884-5.485,1.884c1.145-0.954,4.579-2.48,4.579-2.48l-3.673-2.767c0,0-3.387,1.622-4.722,1.812
		c2.289-1.145,3.959-2.504,3.959-2.504"></path>
	<path fill="#8EB566" d="M49.822,73.987c0,0,1.717-3.243,3.434-6.105c-0.954,2.289-2.48,6.105-2.48,6.105H49.822z"></path>
	<path fill="#8EB566" d="M55.927,73.129c0,0,1.145-3.816,3.816-7.822c-2.099,4.96-3.196,7.799-3.196,7.799L55.927,73.129z"></path>
	<path fill="#8EB566" d="M62.223,72.819c0,0,1.717-4.006,4.579-7.822c-2.862,5.533-4.03,7.655-4.03,7.655L62.223,72.819z"></path>
	<path fill="#8EB566" d="M68.811,72.824c0,0,2.155-3.789,5.427-7.26c-3.464,5.177-4.863,7.155-4.863,7.155L68.811,72.824z"></path>
	<path fill="#8EB566" d="M75.49,72.987c0,0,2.277-3.231,5.417-6.06c-3.533,4.363-4.944,6.022-4.944,6.022L75.49,72.987z"></path>
	<path fill="#93C552" d="M47.055,54.789c0,0,0.286-18.03,15.454-38.635C44.766,39.907,47.055,54.789,47.055,54.789z"></path>
	<path fill="#93C552" d="M47.628,48.994c0,0,3.72,0.859,12.878-0.572C49.345,50.424,47.628,48.994,47.628,48.994z"></path>
	<path fill="#93C552" d="M48.486,44.701c0,0,6.01,1.145,15.168-0.572C53.638,44.987,48.486,44.701,48.486,44.701z"></path>
	<path fill="#93C552" d="M51.348,40.122c0,0,4.007,0.572,12.592-0.286C54.782,40.122,51.348,40.122,51.348,40.122z"></path>
</g>
</g></svg>