<svg version="1.1" id="Layer_1" xmlns="http://www.w3.org/2000/svg" xmlns:xlink="http://www.w3.org/1999/xlink" x="0px" y="7px" width="99px" height="86px" viewBox="0 7 99 86" enable-background="0 7 99 86" xml:space="preserve"><desc>Copyright Opto 22</desc> <desc>Created with Snap</desc><defs/><g xmlns="http://www.w3.org/2000/svg">
<g id="shape">
	<path fill="#E6E6E6" d="M96.716,45.684h-5.561l-1.529,2.649l-4.171-7.225H74.609l-1.588,2.751v0H67.45l-2.889-5.005l2.785-4.824
		l0,0h3.176l5.423-9.393l-4.171-7.225h3.059l2.781-4.816l-2.781-4.816H69.27l-2.781,4.816l1.529,2.649h-8.343l-5.423,9.393
		l1.588,2.751l-2.785,4.824h-5.779l-2.785-4.824h0l1.588-2.751l-5.423-9.393h-8.343l1.529-2.649l-2.781-4.816h-5.561l-2.781,4.816
		l2.781,4.816h3.059l-4.171,7.225l5.423,9.393h3.176l2.785,4.824l-2.889,5.005h-5.571l-1.588-2.751H14.879l-4.171,7.225
		l-1.529-2.649H3.617L0.836,50.5l2.781,4.816h5.561l1.529-2.649l4.171,7.225h10.846l1.588-2.751h5.571l2.889,5.005l-2.785,4.824l0,0
		h-3.176l-5.423,9.393l4.171,7.225h-3.059l-2.781,4.816l2.781,4.816h5.561l2.781-4.816l-1.529-2.649h8.343l5.423-9.393l-1.588-2.751
		l2.785-4.824h5.779l2.785,4.824l-1.588,2.751l5.423,9.393h8.343l-1.529,2.649l2.781,4.816h5.561l2.781-4.816l-2.781-4.816h-3.059
		l4.171-7.225l-5.423-9.393h-3.176l0,0l-2.785-4.824l2.889-5.005h5.571l1.588,2.751h10.846l4.171-7.225l1.529,2.649h5.561
		l2.781-4.816L96.716,45.684z M56.9,46.612L54.656,50.5l2.244,3.887h-4.489l-2.245,3.888l-2.245-3.888h-4.489l2.244-3.888
		l-2.244-3.887h4.489l2.244-3.887l2.244,3.887H56.9z"></path>
</g>
</g></svg>