<svg version="1.1" id="Layer_1" xmlns="http://www.w3.org/2000/svg" xmlns:xlink="http://www.w3.org/1999/xlink" x="14px" y="2px" width="70px" height="95px" viewBox="14 2 70 95" enable-background="14 2 70 95" xml:space="preserve"><desc>Copyright Opto 22</desc> <desc>Created with Snap</desc><defs/><g xmlns="http://www.w3.org/2000/svg">
	<g id="shape">
		<path fill="#0071BC" d="M84.542,62.789c0-19.234-30.648-38.17-34.827-60.46c-4.179,22.289-34.827,41.225-34.827,60.46
			s15.593,34.827,34.827,34.827S84.542,82.023,84.542,62.789z"></path>
	</g>
	<g id="dark">
		<path fill="#005187" d="M79.759,60.789c0-16.635-26.439-33.012-30.044-52.289C46.11,27.777,19.671,44.154,19.671,60.789
			c0,0,12.386-23.789,30.299-23.789S79.759,60.789,79.759,60.789z"></path>
		<path fill="#005187" d="M14.888,62.789C14.888,76.712,30.481,88,49.715,88s34.827-11.288,34.827-25.211
			c0,19.234-15.593,34.827-34.827,34.827S14.888,82.023,14.888,62.789z"></path>
	</g>
	<g id="hlight">
		<path fill="#FFFFFF" d="M80.259,61.039c0,0-0.759-10.789-6.509-16.289C63.272,34.727,52,13.25,52,13.25s5.042,27.181,12.5,37.25
			C69.5,57.25,73.018,53.327,80.259,61.039z"></path>
	</g>
</g></svg>