<svg version="1.1" id="Layer_1" xmlns="http://www.w3.org/2000/svg" xmlns:xlink="http://www.w3.org/1999/xlink" x="0px" y="22px" width="98px" height="65px" viewBox="0 22 98 65" enable-background="0 22 98 65" xml:space="preserve"><desc>Copyright Opto 22</desc> <desc>Created with Snap</desc><defs/><g xmlns="http://www.w3.org/2000/svg">
<g id="shape">
	<path fill="#666666" d="M97.683,62.107c-0.187-0.934-0.81-2.619-1.762-4.404l0.587,0.489c-1.176-8.61-7.632-19.373-15.07-23.677
		c-3.122-1.808-5.675,1.564-6.458,4.304l-0.299,1.126c-5.078-2.218-11.1-4.847-15.161-6.997c-6.461-3.42-15.363-5.902-18.786-7.045
		c-3.112-1.037-6.368-1.977-11.388-1.794c-0.283-0.26-0.606-0.541-1.001-0.848c-1.854-1.442-4.482-0.697-5.436,0.05
		c-0.664,0.52-1.263,1.544-1.767,2.776c-2.969,1.493-5.771,3.609-9.635,5.416c-2.671,1.25-2.965,4.475-2.371,6.163
		c0.596,1.688,3.864,5.061,3.864,5.061s7.431,4.573,9.215,4.573c3.826,2.118,8.605,4.235,10.691,6c0,0,3.522,7.437,5.088,8.612
		c-7.827,2.738-13.632,7.173-14.677,7.435l1.515-1.014l-1.124-0.161c0,0-1.173-0.389-2.739-1.564
		c-1.566-1.176-0.783-3.915-1.957-3.915s-1.566,1.175-0.783,2.739c0.783,1.567-0.391,4.306-1.957,4.306
		c-1.566,0-4.11-1.566-6.066-1.566c-1.957,0-7.436-1.564-7.827,0c-0.392,1.566,1.957,1.566,4.305,1.566
		c2.348,0,8.023,1.566,7.24,2.74c-0.782,1.172-4.5,0.782-6.066,1.174c-1.566,0.391-6.655-0.391-7.045,1.173
		c-0.391,1.566,2.348,1.176,3.914,0.783c1.565-0.39,6.066-0.391,8.415-0.391c2.348,0,2.348,0.391,1.565,2.74
		c-0.782,2.348-1.174,4.306,0,4.306c1.174,0,1.958-3.523,4.306-5.479c2.348-1.957,6.458-1.959,10.371-3.132
		c3.914-1.174,12.524-5.48,12.524-5.48s3.914-1.173,4.697-2.74c0.472-0.943,0.233-3.449-0.459-5.977l0.385,0.656
		c5.614,2.595,9.85,5.253,11.513,6.602c1.739,1.414,4.446,3.54,6.175,3.808c1.218,0.189,5.282,0.644,5.282,0.644l1.351,1.731
		c-5.684,1.592-8.826,3.93-10.187,3.718c-1.92-0.3-2.686-1.504-3.071-3.009c-0.384-1.503-3.072-3.608-3.839-2.404
		c-0.767,1.202,1.152,2.707,0,3.909c-1.151,1.204-3.071,2.707-6.909,3.609c-3.839,0.902-9.597,2.405-7.293,3.008
		c2.303,0.602,9.597-0.903,11.515-0.602c1.92,0.302,3.839,2.406,2.303,3.308c-1.535,0.904-2.687,3.308-1.152,3.308
		c1.535,0,3.072-3.006,5.759-4.812c2.686-1.804,19.743-1.995,24.839-2.83c3.633-0.597,8.78-4.665,11.942-7.187l0.211-0.001
		c-0.01-0.052-0.026-0.109-0.038-0.161c0.959-1.279,3.073-4.144,3.14-3.989C98.072,68.761,98.464,66.021,97.683,62.107z"></path>
</g>
<g id="dark">
	<path fill="#333333" d="M32.907,40.776c1.566-0.39,5.871,1.957,9.001,3.523c3.13,1.565,11.351,3.913,11.351,3.913
		s-3.132-1.956-4.697-2.739c-1.566-0.784-7.045-5.871-8.219-6.654c-1.174-0.782-7.045-2.348-7.045-2.348s1.368,1.195,1.035,2.362
		C34,40,32.907,40.776,32.907,40.776z"></path>
	<path fill="#333333" d="M19.6,36.864l-5.088,1.174c0,0,2.348,0,4.305,0.782C18.817,38.819,18.2,37.727,19.6,36.864z"></path>
	<path fill="#4D4D4D" d="M76.667,36l1.5,6.167c0,0-1.971-1.611-3.485-2.222C75.333,37.833,76.667,36,76.667,36z"></path>
</g>
<g id="light">
	<path fill="#F8D27C" d="M21.816,35.543c0.459-1.625,4.133-2.03,6.199-0.812C30.081,35.95,31,37.98,31,38.793
		c-1.148,1.015-5.741,2.03-7.348,1.422C22.045,39.604,21.356,37.168,21.816,35.543z"></path>
</g>
<g id="shadow">
	<path d="M24.51,38.82c-1.578-0.281-2.621-1.832-2.621-1.832s1.514-1.095,3.093-0.813c1.579,0.28,2.624,1.832,2.624,1.832
		S26.092,39.101,24.51,38.82z"></path>
</g>
<g id="hlight">
	<path fill="#FFFFFF" d="M21.856,34.416c1.184-1.186,4.343-2.37,6.316-1.186c1.974,1.186,4.541,4.74,4.935,5.726
		c0,0-2.441-5.956-5.608-6.623C24.333,31.667,21.856,34.416,21.856,34.416z"></path>
	<path fill="#FFFFFF" d="M77.667,51c-2.833-0.5-6.5,0.333-8.333,2.167c-9.925,9.925,1.929,19.898,1.929,19.898
		c-3.13-2.739-8.943-14.39,0-20.352C73.333,51.333,77.667,51,77.667,51z"></path>
	<path fill="#FFFFFF" d="M37.995,61.913c-7.827,2.738-13.632,7.173-14.677,7.435"></path>
	<path fill="#FFFFFF" d="M46.605,65.432c0.783-1.564-0.391-7.435-2.348-10.566L46.605,65.432z"></path>
	<path fill="#FFFFFF" d="M74.681,39.945c-5.078-2.218-11.1-4.847-15.161-6.997c-6.461-3.42-15.363-5.902-18.786-7.045
		c-3.112-1.037-6.368-1.977-11.388-1.794c0,0,8.82,0.891,20.32,5.391S63.5,35.167,66.5,36.833
		C69.5,38.5,74.681,39.945,74.681,39.945z"></path>
	<path fill="#FFFFFF" d="M96.508,58.192c-1.176-8.61-7.632-19.373-15.07-23.677c-3.122-1.808-5.675,1.564-6.458,4.304
		c0,0,3.019-6.319,6.686-3.319c3.667,3,7,5.667,9.5,10.167S96.508,58.192,96.508,58.192z"></path>
	<path fill="#FFFFFF" d="M21.143,26.087c-2.969,1.493-5.771,3.609-9.635,5.416c0,0,2.492-0.836,5.825-2.503
		S21.143,26.087,21.143,26.087z"></path>
</g>
</g></svg>