<svg version="1.1" id="Layer_1" xmlns="http://www.w3.org/2000/svg" xmlns:xlink="http://www.w3.org/1999/xlink" x="2px" y="18px" width="96px" height="51px" viewBox="2 18 96 51" enable-background="2 18 96 51" xml:space="preserve"><desc>Copyright Opto 22</desc> <desc>Created with Snap</desc><defs/><g xmlns="http://www.w3.org/2000/svg">
<g id="shape">
	<path d="M49.608,69.898c-36.875,0-43.019-8.941-43.07-9.032c-0.52-0.909-0.522-2.791-0.452-4.069L5.916,56.76
		c-1.197-0.255-1.856-0.396-1.986-0.949c-0.048-0.204-0.022-0.515,0.376-0.834c0.256-0.205,0.262-0.495,0.249-0.991
		c-0.013-0.488-0.031-1.181,0.538-1.648c-0.097-0.373-0.016-0.769,0.053-1.108c0.124-0.607,0.125-0.811-0.107-0.989
		c-1.256-0.963-1.179-2.521-1.123-3.658c0.011-0.221,0.021-0.433,0.021-0.627c0-0.491,0.059-0.99,0.169-1.459
		c-0.332,0.035-0.604,0.08-0.815,0.132l-0.485,0.122l-0.121-0.485c-0.206-0.824,0.274-2.338,0.373-2.633l0.093-0.281l2.073-0.377
		c-0.628-0.929-0.396-2.69,0.601-4.811c2.499-5.322,8.991-11.604,18.897-10.917c6.768-4.033,14.748-6.252,22.488-6.252
		c7.424,0,14.163,2.035,19.507,5.886c2.201-0.486,4.389-0.732,6.506-0.732c6.605,0,12.508,2.445,15.789,6.541
		c1.906,2.379,2.724,5.092,2.335,7.705l0.107-0.001l5.036,2.519l-2.14,2.407l-0.346-0.179c-0.002-0.001-0.068-0.035-0.191-0.09
		c-0.021,0.306-0.071,0.737-0.187,1.109c-0.037,0.12-0.334,1.205,0.642,2.462c0.95,1.223,0.441,2.742,0.281,3.142
		c-0.014,0.197-0.067,0.629-0.272,1.085l3.027,0.497c0.199,0.033,0.665,0.11,0.748,0.534c0.082,0.419-0.277,0.641-0.625,0.854
		c-0.432,0.265-1.083,0.665-1.198,1.273c-0.084,0.44,0.11,0.98,0.579,1.604c0.569,0.76,0.708,1.444,0.413,2.034
		c-0.466,0.933-1.964,1.406-4.45,1.406l0,0c-0.385,0-0.786-0.013-1.197-0.036c0.048,0.522,0.045,1.046-0.105,1.874
		C91.014,63.395,82.607,69.898,49.608,69.898z"></path>
</g>
<g id="dark">
	<path fill="#42210B" d="M6.59,41.795c0.135-0.12,0.267-0.231,0.382-0.313C7.405,41.172,4.16,42.097,6.59,41.795z"></path>
	<path fill="#42210B" d="M93.874,46.926c-0.905-1.167-0.905-2.333-0.724-2.917c0.181-0.583,0.181-1.361,0.181-1.361l-0.724-0.583
		l-0.905-0.194l-1.448-0.583c0,0-73.143-1.361-80.565,0c-1.503,0.276-2.48,0.43-3.098,0.507c-0.504,0.446-1.067,1.048-1.067,1.048
		c-0.724,0.583-1.086,1.944-1.086,3.111s-0.362,2.917,0.905,3.889c1.267,0.972-1.267,2.917,1.81,3.111
		c3.078,0.194,4.164,1.167,5.25,1.167c1.086,0,4.164,0.778,4.888,0.778s1.267,1.978,2.716,2.173
		c1.448,0.194,5.612,0.895,6.156,0.895c0.543,0,1.81-0.701,3.259-0.506c1.448,0.194,1.992,0.778,2.897,0.972s3.44-0.194,3.44-0.194
		l1.629-0.194l1.992,0.583l3.44-0.003c0,0,1.992,0.855,5.069,0.855c3.078,0,6.518-0.235,6.518-0.235l4.345-0.272l1.267-0.154
		l2.354-0.583h1.448c0,0,1.267-0.037,1.81-0.231c0.543-0.194,2.173-0.506,2.173-0.506s1.267-0.077,1.991,0.312
		c0.724,0.389,2.354,0.389,2.354,0.389l2.535-0.657l2.354-0.392l2.354-0.309l2.897-0.972l2.535-0.312l1.267-0.852l2.173-1.167
		l1.086,0.194l1.629-0.778l1.991-1.361c1.086-0.583,1.086-1.944,1.086-1.944S94.779,48.093,93.874,46.926z"></path>
	<path d="M56.488,49.393h-3.259c0,0-2.444,0-4.888,0.634c-2.444,0.634-3.259,0.181-4.345-0.362
		c-1.086-0.543-2.173-0.272-2.987-0.272c-0.815,0-2.716,0-4.074,0.272s-2.444-1.358-4.345-1.358c-1.901,0-4.074,0.272-5.975-0.272
		s-3.53,0.815-5.16-1.086c-1.629-1.901-6.246-1.358-7.061-1.901c0,0,0,0,8.962,0.815c8.962,0.815,16.837,0.815,20.911,1.086
		c4.074,0.272,14.665,2.444,14.665,2.444H56.488z"></path>
	<path d="M88.261,44.776c0,0-1.901,0.543-3.53,1.086c-1.629,0.543-2.987,0.543-3.802,0.815c-0.815,0.272-2.716,0-4.617,0.543
		c-1.901,0.543-3.259,0.815-5.16,0.543c0,0-2.173,0.815-3.802,0.815h-1.901c0,0,1.901-1.901,7.875-2.987
		c5.975-1.086,10.953-2.806,13.488-3.44c2.535-0.634,4.707,0.996,4.707,0.996L88.261,44.776z"></path>
</g>
<g id="light">
	<path fill="#BF7411" d="M90.796,55.096c0,3.693,0.543,3.711,0.181,5.703c-0.362,1.992-7.876,8.6-41.369,8.6
		S7.696,61.885,6.972,60.618c-0.724-1.267-0.362-5.431,0-6.699c0,0,8.69,7.242,42.546,7.242S90.796,55.096,90.796,55.096z"></path>
	<path fill="#BF7411" d="M5.657,40.731C3.83,38.529,10.592,24.68,24.843,25.755c12.635-7.593,30.015-8.95,41.762-0.339
		c16.343-3.727,27.57,6.846,23.51,15.315c0,0-8.518,6.036-43.243,6.036S5.657,40.731,5.657,40.731z"></path>
</g>
<g id="shadow">
	<path fill="#FBB03B" d="M57.156,46.57c-3.146,0.124-6.555,0.197-10.283,0.197c-0.056,0-0.108-0.001-0.163-0.001
		c12.694,1.663,16.839,3.984,16.839,3.984v-2.173C63.163,47.654,60.611,47.014,57.156,46.57z"></path>
	<path fill="#FCE280" d="M64.433,26.503c0,0,0.655,3.699,6.086,7.32c-4.345-4.526-5.341-6.699-5.341-6.699L64.433,26.503z"></path>
	<path fill="#FCE280" d="M25.438,27.305c0,0,3.078,3.983,1.992,9.595c2.716-6.518-1.992-10.32-1.992-10.32V27.305z"></path>
	<path fill="#FCE280" d="M34.672,28.573c-1.448,0.362-1.629,1.992,0.724,1.086C37.749,28.754,34.672,28.573,34.672,28.573z"></path>
	<path fill="#FCE280" d="M56.397,31.107c-1.267-0.724-1.629,0.181-0.543,1.086C56.94,33.099,56.397,31.107,56.397,31.107z"></path>
	<path fill="#FCE280" d="M53.319,24.409c-1.629,0-0.724,1.267,0.543,1.086S53.319,24.409,53.319,24.409z"></path>
	<path fill="#FCE280" d="M16.205,31.107c0,0,0.543,0.724,0,1.448c-0.543,0.724-1.81-1.086-0.905-1.267
		C16.205,31.107,16.205,31.107,16.205,31.107z"></path>
	<path fill="#FCE280" d="M81.744,29.025c0,0-3.53-1.086-2.173,0.543C80.929,31.198,82.558,30.383,81.744,29.025z"></path>

		<path fill="#FBB03B" d="M6.438,41.26l-2.907,0.529c0,0-0.543,1.629-0.362,2.354c2.503-0.626,10.132,0.099,13.798,0.425
			C10.713,43.373,7.701,41.996,6.438,41.26z"></path>
		<path fill="#FBB03B" d="M58.552,46.514c2.552,0.64,4.791,1.58,4.997,1.521c0,0,0.278-0.999,1.436-1.921
			C62.986,46.272,60.854,46.409,58.552,46.514z"></path>
		<path fill="#FBB03B" d="M91.339,38.892l-0.595,0.008c-0.138,0.617-0.341,1.229-0.629,1.831c0,0-0.712,0.501-2.545,1.214
			c3.652-0.836,6.666,0.749,6.666,0.749l1.448-1.629L91.339,38.892z"></path>

</g>
<g id="hlight">
	<path fill="#39B54A" d="M97.223,51.837c-1.629-0.272-3.259-0.543-3.259-0.543s-0.215,0.004-0.605,0.012
		c-0.112,0.106-0.239,0.205-0.391,0.287l-1.991,1.361l-1.629,0.778l-1.086-0.194l-2.173,1.167l-1.267,0.852l-2.535,0.312
		l-2.897,0.972l-2.354,0.309l-2.354,0.392l-2.535,0.657c0,0-1.629,0-2.354-0.389c-0.724-0.389-1.991-0.312-1.991-0.312
		s-1.629,0.312-2.173,0.506c-0.543,0.194-1.81,0.231-1.81,0.231h-1.448l-2.354,0.583l-1.267,0.154l-4.345,0.272
		c0,0-3.44,0.235-6.518,0.235c-3.078,0-5.069-0.855-5.069-0.855l-3.44,0.003l-1.992-0.583l-1.629,0.194c0,0-2.535,0.389-3.44,0.194
		s-1.448-0.778-2.897-0.972c-1.448-0.194-2.716,0.506-3.259,0.506c-0.543,0-4.707-0.701-6.156-0.895
		c-1.448-0.194-1.992-2.173-2.716-2.173s-3.802-0.778-4.888-0.778c-1.086,0-2.173-0.972-5.25-1.167
		c-0.764-0.048-1.181-0.205-1.398-0.427c-1.361,0.545-0.137,2.041-1.137,2.841c-1.358,1.086,4.345,0.543,6.518,3.259
		s5.16,3.53,8.419,1.901c3.259-1.629,8.147-2.173,10.32,0.543s-0.815,4.888,4.345,4.617c5.16-0.272,4.345-2.444,8.962-2.173
		c4.617,0.272,6.518-3.259,8.962-1.086c2.444,2.173,0-1.629,4.888-1.358c4.888,0.272,11.134-1.358,11.134-1.358l7.875-0.815
		c0,0,7.332-2.173,11.134-1.086c3.802,1.086,11.677,1.358,9.233-1.901C93.964,52.652,98.852,52.109,97.223,51.837z"></path>
</g>
<g id="Layer_1" display="none">
	<path display="inline" fill="#D9CD9F" stroke="#000000" stroke-miterlimit="10" d="M48.884,49.755
		c-29.87,0.364-41.55,2.897-41.912,4.164c-0.362,1.267-0.724,5.431,0,6.699c0.724,1.267,9.143,8.781,42.636,8.781
		s41.007-6.608,41.369-8.6c0.362-1.992-0.181-2.01-0.181-5.703C90.796,52.109,78.575,49.393,48.884,49.755z"></path>
	<path display="inline" fill="#BF7411" d="M90.796,55.096c0,3.693,0.543,3.711,0.181,5.703c-0.362,1.992-7.876,8.6-41.369,8.6
		S7.696,61.885,6.972,60.618c-0.724-1.267-0.362-5.431,0-6.699c0,0,8.69,7.242,42.546,7.242S90.796,55.096,90.796,55.096z"></path>
	<path display="inline" fill="#39B54A" d="M8.42,52.38c-5.202-0.473-2.444,1.901-3.802,2.987s4.345,0.543,6.518,3.259
		s5.16,3.53,8.419,1.901c3.259-1.629,8.147-2.173,10.32,0.543s-0.815,4.888,4.345,4.617s4.345-2.444,8.962-2.173
		c4.617,0.272,6.518-3.259,8.962-1.086s0-1.629,4.888-1.358s11.134-1.358,11.134-1.358l7.876-0.815c0,0,7.332-2.173,11.134-1.086
		c3.802,1.086,11.677,1.358,9.233-1.901c-2.444-3.259,2.444-3.802,0.815-4.074c-1.629-0.272-3.259-0.543-3.259-0.543
		S14.394,52.923,8.42,52.38z"></path>
	<path display="inline" fill="#42210B" d="M5.523,42.843c-0.724,0.583-1.086,1.944-1.086,3.111s-0.362,2.917,0.905,3.889
		c1.267,0.972-1.267,2.917,1.81,3.111s4.164,1.167,5.25,1.167s4.164,0.778,4.888,0.778s1.267,1.978,2.716,2.173
		s5.612,0.895,6.156,0.895s1.81-0.701,3.259-0.506s1.992,0.778,2.897,0.972c0.905,0.194,3.44-0.194,3.44-0.194l1.629-0.194
		l1.992,0.583l3.44-0.003c0,0,1.992,0.855,5.069,0.855s6.518-0.235,6.518-0.235l4.345-0.272l1.267-0.154l2.354-0.583h1.448
		c0,0,1.267-0.037,1.81-0.231c0.543-0.194,2.173-0.506,2.173-0.506s1.267-0.077,1.992,0.312c0.724,0.389,2.354,0.389,2.354,0.389
		l2.535-0.657l2.354-0.392l2.354-0.309l2.897-0.972l2.535-0.312l1.267-0.852l2.173-1.167l1.086,0.194l1.629-0.778l1.992-1.361
		c1.086-0.583,1.086-1.944,1.086-1.944s0.724-1.556-0.181-2.722c-0.905-1.167-0.905-2.333-0.724-2.917
		c0.181-0.583,0.181-1.361,0.181-1.361l-0.724-0.583l-0.905-0.194l-1.448-0.583c0,0-73.143-1.361-80.565,0s-2.173-0.194-2.716,0.194
		S5.523,42.843,5.523,42.843z"></path>
	<path display="inline" fill="#FBB03B" d="M13.489,39.979l-9.958,1.81c0,0-0.543,1.629-0.362,2.354
		c2.897-0.724,12.673,0.362,15.208,0.543c1.926,0.138,24.968,1.007,36.479,1.258c3.638,0.079,8.388,2.179,8.692,2.092
		c0,0,0.715-2.583,4.662-3.277c6.668-1.173,16.101-1.811,18.603-2.607c3.983-1.267,7.423,0.543,7.423,0.543l1.448-1.629
		l-4.345-2.173L13.489,39.979z"></path>
	<path display="inline" fill="#FBB03B" d="M63.548,48.035v2.173c0,0,2.444-3.53,7.061-4.345c4.617-0.815,12.492-3.802,12.492-3.802
		s-4.074,1.086-7.332,1.629c-3.259,0.543-7.332,0.815-9.505,2.173C64.092,47.22,63.548,48.035,63.548,48.035z"></path>
	<path display="inline" fill="#FBB03B" d="M63.548,50.751c0,0-6.789-3.802-29.601-5.16c0,0,28.243-0.272,29.601,2.987V50.751z"></path>
	<path display="inline" fill="#BF7411" d="M5.657,40.731C3.83,38.529,10.592,24.68,24.843,25.755
		c12.635-7.593,30.015-8.95,41.762-0.339c16.343-3.727,27.57,6.846,23.51,15.315c0,0-8.518,6.036-43.243,6.036
		S5.657,40.731,5.657,40.731z"></path>
	<path display="inline" fill="#FCE280" d="M64.433,26.503c0,0,0.655,3.699,6.086,7.32c-4.345-4.526-5.341-6.699-5.341-6.699
		L64.433,26.503z"></path>
	<path display="inline" fill="#FCE280" d="M25.438,27.305c0,0,3.078,3.983,1.992,9.595c2.716-6.518-1.992-10.32-1.992-10.32V27.305z
		"></path>
	<path display="inline" fill="#FCE280" d="M34.672,28.573c-1.448,0.362-1.629,1.992,0.724,1.086
		C37.749,28.754,34.672,28.573,34.672,28.573z"></path>
	<path display="inline" fill="#FCE280" d="M56.397,31.107c-1.267-0.724-1.629,0.181-0.543,1.086
		C56.94,33.099,56.397,31.107,56.397,31.107z"></path>
	<path display="inline" fill="#FCE280" d="M53.319,24.409c-1.629,0-0.724,1.267,0.543,1.086S53.319,24.409,53.319,24.409z"></path>
	<path display="inline" fill="#FCE280" d="M16.205,31.107c0,0,0.543,0.724,0,1.448c-0.543,0.724-1.81-1.086-0.905-1.267
		C16.205,31.107,16.205,31.107,16.205,31.107z"></path>
	<path display="inline" d="M14.394,45.048c0.815,0.543,5.431,0,7.061,1.901c1.629,1.901,3.259,0.543,5.16,1.086
		c1.901,0.543,4.074,0.272,5.975,0.272s2.987,1.629,4.345,1.358c1.358-0.272,3.259-0.272,4.074-0.272
		c0.815,0,1.901-0.272,2.987,0.272c1.086,0.543,1.901,0.996,4.345,0.362c2.444-0.634,4.888-0.634,4.888-0.634h3.259h2.444
		c0,0-10.591-2.173-14.665-2.444c-4.074-0.272-11.949-0.272-20.911-1.086C14.394,45.048,14.394,45.048,14.394,45.048z"></path>
	<path display="inline" d="M91.52,43.147l-3.259,1.629c0,0-1.901,0.543-3.53,1.086c-1.629,0.543-2.987,0.543-3.802,0.815
		c-0.815,0.272-2.716,0-4.617,0.543c-1.901,0.543-3.259,0.815-5.16,0.543c0,0-2.173,0.815-3.802,0.815h-1.901
		c0,0,1.901-1.901,7.876-2.987c5.975-1.086,10.953-2.806,13.488-3.44C89.347,41.517,91.52,43.147,91.52,43.147z"></path>
	<path display="inline" fill="#FCE280" d="M81.744,29.025c0,0-3.53-1.086-2.173,0.543C80.929,31.198,82.558,30.383,81.744,29.025z"></path>
</g>
</g></svg>