<svg id="Icons" xmlns="http://www.w3.org/2000/svg" viewBox="0 0 43.52 43.64"><title>24</title><g id="_Group_" data-name=" Group "><ellipse id="_Ellipse_" data-name=" Ellipse " cx="24.38" cy="41.58" rx="15.77" ry="2.06" style="fill:#45413c;opacity:0.15000000596046448;isolation:isolate"/><path id="_Path_" data-name=" Path " d="M45,10.12A9.66,9.66,0,0,0,43,3.7a2,2,0,0,0-2.79-.46L40,3.41a2,2,0,0,0,0,2.8,5.46,5.46,0,0,1,1.58,3.91c0,3.22-1.61,6.64-7.68,8A8.38,8.38,0,0,0,32.31,18l-11.82.58a3.57,3.57,0,0,1-3.3-1.84l-1.67-3.88a5,5,0,0,0-1.68-1.58A8.35,8.35,0,0,0,13,9.41a5.06,5.06,0,0,0-2-2A.69.69,0,0,0,10,8l-.23,2.55a5.27,5.27,0,0,0-3.91,2.11l-.79,1.19L2.88,16a1.31,1.31,0,0,0-.3,1.38l.74,3.22a3.19,3.19,0,0,0,2.06,1.93l3.84,1.15a2.76,2.76,0,0,1,1.88,2l.82,3.41a9.11,9.11,0,0,0,3.35,4.54,27.48,27.48,0,0,1,.25,3.55,45.75,45.75,0,0,1-1,5.18A1.37,1.37,0,0,0,15.88,44h.89a1.36,1.36,0,0,0,1.2-.71c.94-1.71,3.26-6.06,3.69-8a8.8,8.8,0,0,0,2.08-.46L27,33.59a4.62,4.62,0,0,1,2.87-.08,13.46,13.46,0,0,0,2.5.48,7.31,7.31,0,0,0,3,3.84l-.51,4.65A1.37,1.37,0,0,0,36.07,44h1.69a1.37,1.37,0,0,0,1.33-1l1.8-7.19a11.44,11.44,0,0,1-.69-3.42L40.62,27a8.33,8.33,0,0,0-2-6.13l-.27-.28A11,11,0,0,0,45,10.12Z" transform="translate(-2 -2.36)" style="fill:#fc9"/><g id="_Group_2" data-name=" Group 2"><path id="_Path_2" data-name=" Path 2" d="M3.62,19.63a1.4,1.4,0,0,1,.32-1.49l2.43-2.31.85-1.28a5.69,5.69,0,0,1,4.21-2.27l.25-2.75a.73.73,0,0,1,.8-.65l.2,0A4.93,4.93,0,0,0,11,7.44.69.69,0,0,0,10,8l-.23,2.55A5.27,5.27,0,0,0,5.9,12.65l-.79,1.19L2.88,16a1.31,1.31,0,0,0-.3,1.38l.74,3.22a3.11,3.11,0,0,0,.79,1.19Z" transform="translate(-2 -2.36)" style="fill:#ffe8d1"/><path id="_Path_3" data-name=" Path 3" d="M19.34,18.9a3.86,3.86,0,0,0,3.56,2l12.72-.62a8.85,8.85,0,0,1,1.71.17A15.57,15.57,0,0,0,40,19.6c2.87-1.81,4.91-4.82,5-9.48A9.64,9.64,0,0,0,43,3.7a2,2,0,0,0-2.79-.46L40,3.41a2,2,0,0,0,0,2.8,5.46,5.46,0,0,1,1.58,3.91c0,3.22-1.61,6.64-7.68,8A8.38,8.38,0,0,0,32.31,18l-11.82.58a3.62,3.62,0,0,1-1.42-.26Z" transform="translate(-2 -2.36)" style="fill:#ffe8d1"/></g><path id="_Path_4" data-name=" Path 4" d="M45,10.12A9.66,9.66,0,0,0,43,3.7a2,2,0,0,0-2.79-.46L40,3.41a2,2,0,0,0,0,2.8,5.46,5.46,0,0,1,1.58,3.91c0,3.22-1.61,6.64-7.68,8A8.38,8.38,0,0,0,32.31,18l-11.82.58a3.57,3.57,0,0,1-3.3-1.84l-1.67-3.88a5,5,0,0,0-1.68-1.58A8.35,8.35,0,0,0,13,9.41a5.06,5.06,0,0,0-2-2A.69.69,0,0,0,10,8l-.23,2.55a5.27,5.27,0,0,0-3.91,2.11l-.79,1.19L2.88,16a1.31,1.31,0,0,0-.3,1.38l.74,3.22a3.19,3.19,0,0,0,2.06,1.93l3.84,1.15a2.76,2.76,0,0,1,1.88,2l.82,3.41a9.11,9.11,0,0,0,3.35,4.54,27.48,27.48,0,0,1,.25,3.55,45.75,45.75,0,0,1-1,5.18A1.37,1.37,0,0,0,15.88,44h.89a1.36,1.36,0,0,0,1.2-.71c.94-1.71,3.26-6.06,3.69-8a8.8,8.8,0,0,0,2.08-.46L27,33.59a4.62,4.62,0,0,1,2.87-.08,13.46,13.46,0,0,0,2.5.48,7.31,7.31,0,0,0,3,3.84l-.51,4.65A1.37,1.37,0,0,0,36.07,44h1.69a1.37,1.37,0,0,0,1.33-1l1.8-7.19a11.44,11.44,0,0,1-.69-3.42L40.62,27a8.33,8.33,0,0,0-2-6.13l-.27-.28A11,11,0,0,0,45,10.12Z" transform="translate(-2 -2.36)" style="fill:none;stroke:#45413c;stroke-linecap:round;stroke-linejoin:round"/><path id="_Path_5" data-name=" Path 5" d="M21.66,35.24c.43-2.39.72-5,.72-5" transform="translate(-2 -2.36)" style="fill:none;stroke:#45413c;stroke-linecap:round;stroke-linejoin:round"/><path id="_Path_6" data-name=" Path 6" d="M35.41,37.83S31.21,35.6,32,29.6" transform="translate(-2 -2.36)" style="fill:none;stroke:#45413c;stroke-linecap:round;stroke-linejoin:round"/><path id="_Path_7" data-name=" Path 7" d="M9.16,15.16a1.1,1.1,0,1,1-1.1-1.1,1.1,1.1,0,0,1,1.1,1.1Z" transform="translate(-2 -2.36)" style="fill:#45413c"/><path id="_Path_8" data-name=" Path 8" d="M10.27,17.86c0,.3.5.55,1.1.55s1.1-.25,1.1-.55-.49-.55-1.1-.55S10.27,17.55,10.27,17.86Z" transform="translate(-2 -2.36)" style="fill:#ffaa54"/></g></svg>