<svg version="1.1" id="Layer_1" xmlns="http://www.w3.org/2000/svg" xmlns:xlink="http://www.w3.org/1999/xlink" x="0px" y="24px" width="100px" height="53px" viewBox="0 24 100 53" enable-background="0 24 100 53" xml:space="preserve"><desc>Copyright Opto 22</desc> <desc>Created with Snap</desc><defs/><g xmlns="http://www.w3.org/2000/svg">
<g id="shape">
	<path fill="#CCCCCC" d="M100,71.704l-6.726-8.582c0,0-6.726-2.641-8.52-3.961c-1.794-1.32-5.83-7.262-6.278-9.243
		c-0.448-1.981-7.175-5.282-8.52-6.602c-1.345-1.32-4.484-7.935-4.484-7.935l-3.587-3.949L50.224,24.17L39.91,34.073
		c0,0-6.726,2.641-9.417,6.602S18.386,52.558,18.386,52.558s-4.933,9.903-8.072,11.223C7.175,65.102,0,71.704,0,71.704H100z"></path>
	<path fill="#CCCCCC" d="M4.185,70.508c0,0,10.164,2.392,13.453,6.278c2.99,0.299,12.257,0.299,14.948-0.897
		c2.691-1.196,16.143-0.897,16.143-0.897s13.752,2.392,16.144,2.392c2.392,0,10.463-2.99,14.051-3.886
		c3.587-0.897,12.855,0.598,12.855,0.598s6.764-1.495,8.109-2.392"></path>
</g>
<g id="dark">
	<path fill="#808080" d="M30.493,41.011c2.691-3.961,11.099-8.209,11.099-8.209c-3.333,1.234-2.644,5.434-2.466,5.269
		C41.205,36.143,30.493,41.011,30.493,41.011z"></path>
	<path fill="#808080" d="M38.789,55.66c-1.573,4.053,7.175-7.823,12.108-9.803s8.52-6.041,8.52-6.041
		c-2.691-2.641-2.466-3.376-5.157-6.677c2.915,3.974,2.703,4.752,2.13,6.677C55.825,41.713,40.583,51.038,38.789,55.66z"></path>
	<path fill="#808080" d="M59.193,39.815c0,0,3.587,3.301,4.484,6.602c0.897,3.301,4.933,3.961,8.072,5.942
		C65.471,47.077,62.78,41.136,59.193,39.815z"></path>
	<path fill="#808080" d="M34.081,42.655c0,0,4.036,0,4.484,3.301c0.448,3.301,0.897,3.301,2.691,4.621
		C37.22,49.917,36.771,42.655,34.081,42.655z"></path>
	<path fill="#808080" d="M34.081,42.655c-1.794,3.488-2.242,6.627-2.242,6.627s-5.381,0.448-8.969,3.587
		c4.036-4.484,7.175-5.381,7.175-5.381L34.081,42.655z"></path>
	<path fill="#808080" d="M31.819,53.948c0,0,6.055,3.633,4.238,6.66s1.211,3.027,4.238,5.449c3.027,2.422,5.449,5.449,5.449,5.449
		s0.605-4.844-3.027-7.265C39.084,61.819,37.268,56.37,31.819,53.948z"></path>
	<path fill="#808080" d="M31.819,53.948c0,0-5.651,3.835-8.073,5.045s0.983,4.965-2.22,7.064c-5.853,3.835-9.082,0.605-12.109,4.238
		c6.055-4.238,9.082-1.816,10.293-6.66S23.948,56.975,31.819,53.948z"></path>
	<path fill="#808080" d="M21.226,66.92c0,0,2.392,1.495,2.691,3.886c1.794-2.392,2.392-2.093,4.783-2.691s-2.691-1.196-4.185-0.299
		c-2.392-1.196-1.794-3.886-1.794-3.886L21.226,66.92z"></path>
	<path fill="#808080" d="M78.924,53.467c0,0-1.495,2.99-0.299,3.886c1.196,0.897,6.129,1.806,6.129,1.806s-1.046-0.909-3.438-3.301
		c-2.392-2.392-2.84-5.942-2.84-5.942L78.924,53.467z"></path>
	<path fill="#808080" d="M91.779,74.095c0,0-4.185-3.886-6.577-4.783c-2.392-0.897-4.783-1.794-4.783-1.794s4.484,1.196,7.175,1.794
		c-0.299-1.495-0.299-3.288,1.196-3.886c-0.897,1.794-0.598,3.288,0,4.783L91.779,74.095z"></path>
	<path fill="#808080" d="M18.834,75.889c0,0,0.299-2.392,5.082-5.082C17.339,72.301,18.834,75.889,18.834,75.889z"></path>
	<path fill="#808080" d="M65.965,61.569c0,0-5.247-0.807-7.669-2.422c-2.422-1.615,0.404-5.247-2.825-6.862
		c3.633,2.018,2.018,3.633,4.036,5.247C61.525,59.147,65.965,61.569,65.965,61.569z"></path>
	<path fill="#808080" d="M14.35,59.596c0,0-4.484,4.933-7.623,6.726c6.278-2.242,5.605-2.691,6.502-4.036
		C14.126,60.941,14.35,59.596,14.35,59.596z"></path>
	<path fill="#808080" d="M65.022,61.39c0,0,5.381,0.448,9.865,1.794s7.175,5.381,7.175,5.381S75.785,64.529,71.3,64.08
		C66.816,63.632,65.022,61.39,65.022,61.39z"></path>
	<path fill="#808080" d="M68.61,62.735c-1.794-2.691-0.897-4.484,2.242-6.278C69.507,60.941,71.3,64.08,71.3,64.08L68.61,62.735z"></path>
</g>
<g id="hlight">
	<polygon fill="#F2F2F2" points="39.91,34.073 50.224,24.17 61.883,31.432 65.471,35.381 61.435,36.278 61.435,38.968 
		57.848,36.726 54.26,33.139 52.018,36.726 47.085,36.278 42.601,37.623 42.152,34.484 	"></polygon>
</g>
</g></svg>