<svg version="1.1" id="Layer_1" xmlns="http://www.w3.org/2000/svg" xmlns:xlink="http://www.w3.org/1999/xlink" x="0px" y="2px" width="98px" height="78px" viewBox="0 2 98 78" enable-background="0 2 98 78" xml:space="preserve"><desc>Copyright Opto 22</desc> <desc>Created with Snap</desc><defs/><g xmlns="http://www.w3.org/2000/svg">
<g id="dark">
	<path fill="#CCCCCC" d="M1.328,48.784c0-12.793,10.188-23.182,22.889-23.559c0.653-12.753,11.2-22.892,24.115-22.892
		c11.275,0,20.744,7.728,23.402,18.177c0,0-8.067-12.51-20.734-2.843c-12-6-22.667,4.667-23.667,14.333
		C7,33,1.328,48.784,1.328,48.784z"></path>
	<path fill="#CCCCCC" d="M79.667,16.333C61.964,15.625,39,12,21.333,14S-5,16.667,6.667,21.333S23,22,37,22s18.667-0.667,34,0.333
		s28.333,1,19-2S88,16.667,79.667,16.333z"></path>
</g>
<g id="shape">
	<path fill="#999999" d="M65.08,75.812c-2.149,1.454-4.741,2.304-7.531,2.304c-1.432,0-2.81-0.228-4.104-0.643
		c-2.808,1.799-6.138,2.855-9.72,2.855c-4.362,0-8.363-1.546-11.484-4.12c-2.305,0.752-4.761,1.171-7.317,1.171
		c-13.031,0-23.594-10.563-23.594-23.594c0-12.793,10.188-23.182,22.889-23.559c0.653-12.753,11.2-22.892,24.115-22.892
		c11.275,0,20.744,7.728,23.402,18.177c8.16,2.885,14.017,10.647,14.017,19.795c0,0.24-0.028,0.473-0.036,0.711
		c7.316,2.573,13.123,9.526,13.123,17.722c0,5.287-0.247,8.682-3.76,12.098c0,0-7.484,7.809-14.857,1.174
		C71.005,83.277,65.08,75.812,65.08,75.812z"></path>
</g>
<g id="light">
	<path fill="#CCCCCC" d="M3.828,56.284c0.338-14.118,10.188-23.182,22.889-23.559c0.09,0.021,17.693,2.087,18.449,19.108
		C35.167,34.167,14.167,32.833,3.828,56.284z"></path>
	<path fill="#CCCCCC" d="M80.388,48.158c-2.365,0-4.579,0.516-6.496,1.408c-1.992-3.698-6.389-6.273-11.505-6.273
		c-5.574,0-10.295,3.054-11.981,7.289c-1.207-0.307-2.493-0.478-3.831-0.478c-6.852,0-12.406,4.356-12.406,9.73
		c0,3.628,2.537,6.787,6.291,8.46c-0.038-0.28-0.059-0.564-0.059-0.852c0-4.447,4.597-8.053,10.267-8.053
		c1.107,0,2.171,0.141,3.17,0.396c1.395-3.505,5.302-6.032,9.915-6.032c4.234,0,7.872,2.131,9.521,5.191
		c1.587-0.738,3.418-1.165,5.376-1.165c5.967,0,10.806,3.918,10.865,8.768c2.467-1.946,4.007-4.668,4.007-7.686
		C93.524,52.95,87.643,48.158,80.388,48.158z"></path>
	<path fill="#CCCCCC" d="M31.667,31.667c-4.333-4-3-10,2.333-11C35,12,43.333,12.333,44.333,19C52.667,18.333,55,24.667,51,28.667
		c-2.333-6.333-7.333-5.333-8.667-5.333c-3.333-2,0.333,2.333-7.333,2C31.413,25.177,31.667,31.667,31.667,31.667z"></path>
	<path fill="#CCCCCC" d="M44,12c3-5.333,8.667-6.333,11-1c6.333-2.333,9,1.333,7,5.667C60,10.333,54.667,13,54.667,13
		S47.952,9.183,44,12z"></path>
	<path fill="#CCCCCC" d="M73.667,28.667c0,0,11.333-5.333,20.333,7.667C83.667,31.667,77.667,32,70.333,37
		C69,27.667,61,25,56,27.333C72.333,22.333,73.667,28.667,73.667,28.667z"></path>
	<path fill="#CCCCCC" d="M4.947,71c11.323-2.831,9.667-2.333,15.667-2.667c6-0.333,6-2.667-1.667-3.667
		c-7.667-1,1.667-2.333,12.667-2c11,0.333-11,6,5,7s33.333,5,13,5.333s-17,1-31.333,1S-4.386,73.333,4.947,71z"></path>
</g>
</g></svg>