<svg id="Icons" xmlns="http://www.w3.org/2000/svg" viewBox="0 0 32 42.5"><title>656-fire</title><g id="_Group_" data-name=" Group "><ellipse id="_Ellipse_" data-name=" Ellipse " cx="16" cy="41" rx="11.5" ry="1.5" style="fill:#45413c;opacity:0.15000000596046448;isolation:isolate"/><g id="_Group_2" data-name=" Group 2"><path id="_Path_" data-name=" Path " d="M14.44,30.61c.76-2.36-1.79-6.71,3.43-8.61-.82,4.86,5.94,6.25,4.4,11.1Z" transform="translate(-8 -4.5)" style="fill:#ff6242;stroke:#45413c;stroke-linecap:round;stroke-linejoin:round"/><path id="_Path_2" data-name=" Path 2" d="M33.5,12.5c.9,2.49.61,3.94-.5,5C27.92,14.3,21.86,12,20.88,5,10.5,13,26,24,18.5,27c-3.71,1.49-7-2-6.5-5.91A11.07,11.07,0,0,0,8.5,29c0,6.9,6.94,12.5,15.5,12.5C43.6,41.5,42,15.5,33.5,12.5Z" transform="translate(-8 -4.5)" style="fill:#ff6242;stroke:#45413c;stroke-linecap:round;stroke-linejoin:round"/><path id="_Path_3" data-name=" Path 3" d="M31,28c-1.5,4.5-5.52,6.29-9.09,6.48a5,5,0,0,0,4.59,3C32.12,37.5,36,31.5,31,28Z" transform="translate(-8 -4.5)" style="fill:#ffe500;stroke:#45413c;stroke-linecap:round;stroke-linejoin:round"/></g></g></svg>