<svg id="Icons" xmlns="http://www.w3.org/2000/svg" viewBox="0 0 46.13 45.95"><title>29</title><g id="_Group_" data-name=" Group "><ellipse id="_Ellipse_" data-name=" Ellipse " cx="23.14" cy="44.45" rx="9.23" ry="1.5" style="fill:#45413c;opacity:0.15000000596046448;isolation:isolate"/><path id="_Path_" data-name=" Path " d="M17.94,16.88V8.28a.4.4,0,0,1,.73-.23L23.47,15a.39.39,0,0,0,.54.09L24.1,15l5.34-6.14a.4.4,0,0,1,.71.29L29.64,16a.4.4,0,0,0,.57.39l3.37-1.57a.4.4,0,0,1,.55.5l-1.49,4.2a.41.41,0,0,0,.26.52h0l9.61,2.74a.4.4,0,0,1,0,.77l-8.93,2.71a.39.39,0,0,0-.27.48l0,.07,4.48,9.52a.4.4,0,0,1-.55.53l-9.91-5.1a.41.41,0,0,0-.55.19h0l-5,10.65a.4.4,0,0,1-.76-.13L19.64,30.4a.39.39,0,0,0-.66-.25l-5.2,4.49a.4.4,0,0,1-.63-.47l2.62-6a.4.4,0,0,0-.21-.53l-.13,0-10-.79A.4.4,0,0,1,5.31,26l9.93-4a.4.4,0,0,0,.22-.52l0-.08-3-4.31a.4.4,0,0,1,.39-.63l4.74.75A.4.4,0,0,0,17.94,16.88Z" transform="translate(-0.86 -1.05)" style="fill:#ff6242;stroke:#45413c;stroke-linecap:round;stroke-linejoin:round"/><polygon id="_Path_2" data-name=" Path 2" points="22.89 18.37 25.7 15.96 26.11 18.77 28.52 18.37 27.71 20.78 31.73 21.58 27.71 23.99 30.93 29.21 24.91 26 22.5 31.61 21.3 25.6 18.09 26.4 19.29 23.99 15.68 23.59 18.89 21.58 17.68 18.77 20.5 18.77 20.5 15.56 22.89 18.37" style="fill:#ffe500;stroke:#45413c;stroke-linecap:round;stroke-linejoin:round"/><path id="_Path_3" data-name=" Path 3" d="M25.85,5.61,25.46,2a.4.4,0,0,1,.35-.45h.06l2.47.11a.41.41,0,0,1,.33.61l-2.08,3.5a.4.4,0,0,1-.74-.16Z" transform="translate(-0.86 -1.05)" style="fill:#ff6242;stroke:#45413c;stroke-linecap:round;stroke-linejoin:round"/><path id="_Path_4" data-name=" Path 4" d="M6.48,18.68,3.52,16a.41.41,0,0,0-.58,0l-.06.09L1.4,19.4a.4.4,0,0,0,.42.56l4.44-.59a.4.4,0,0,0,.22-.69Z" transform="translate(-0.86 -1.05)" style="fill:#ff6242;stroke:#45413c;stroke-linecap:round;stroke-linejoin:round"/><path id="_Path_5" data-name=" Path 5" d="M42.06,28.07l4.07.29a.4.4,0,0,1,.34.55l-1.16,2.9a.4.4,0,0,1-.67.12l-2.91-3.19a.4.4,0,0,1,.33-.67Z" transform="translate(-0.86 -1.05)" style="fill:#ff6242;stroke:#45413c;stroke-linecap:round;stroke-linejoin:round"/><path id="_Path_6" data-name=" Path 6" d="M5.63,35.48l-3.43.6a.41.41,0,0,0-.21.69l1.8,1.77a.39.39,0,0,0,.55,0l.06-.07L6,36.1a.4.4,0,0,0-.37-.62Z" transform="translate(-0.86 -1.05)" style="fill:#ff6242;stroke:#45413c;stroke-linecap:round;stroke-linejoin:round"/></g></svg>