<svg version="1.1" id="Layer_1" xmlns="http://www.w3.org/2000/svg" xmlns:xlink="http://www.w3.org/1999/xlink" x="1px" y="1px" width="97px" height="97px" viewBox="1 1 97 97" enable-background="1 1 97 97" xml:space="preserve"><desc>Copyright Opto 22</desc> <desc>Created with Snap</desc><defs/><g xmlns="http://www.w3.org/2000/svg">
<g id="shape">
	<circle fill="#00467F" cx="49.999" cy="50" r="48.973"></circle>
</g>
<g id="dark">

			<path fill="#C69C6D" d="M50.39,60.191c0,0,0.979,0.127,1.363,0.052c0.384-0.076-0.384,0.075-0.384,0.075l-0.171,0.749l0.611,0.28
				l0.949,0.372c0,0,0.846-0.962,1.46-1.081c0.614-0.119,1.68,0.868,1.68,0.868l1.161,0.649l0.594,0.599l0.441,0.633l0.379,0.722
				l0.251-0.766l0.72-0.378l0.427,0.554l-0.632,0.838l0.441,0.63l0.538-0.503l0.355-0.625l0.629-0.043l0.178,0.919l0.135,0.691
				l0.361,1.043l0.632-0.439l0.059,0.306l0.164,0.843l0.552-0.028l0.059,0.306l0.383-0.073l0.395,0.399L64.9,68.11l0.412,0.476
				l0.415,0.078l0.383-0.072l0.242,0.429l0.722,0.019l0.642,0.034l0.555-0.823l0.142-0.506l0.211,0.676l0.613-0.119l0.233-0.444
				l0.581,0.126L69.9,67.218c0,0-0.167-0.447-0.398-0.403c-0.229,0.047-0.229,0.047-0.229,0.047l-0.229-0.354l-0.134-0.689
				l-0.336-0.096l-0.12-0.613l-0.076-0.384l-0.501-0.536l-0.516-0.618l0.234-0.841l0.309-0.459L67.894,61.4l0.063-0.489
				l-0.426-0.554l-0.549-0.37l-0.076-0.385l-0.353-0.17l-0.136-0.292l0.372-0.549l0.308-0.459l-0.406-0.875l0.065-0.886l0.023-1.517
				l-0.598-0.201l-0.705,0.057l-0.439-0.631l-0.583-0.125l-0.723,0.378l-0.103-0.536l-0.861,0.485l-0.149-1.163l-0.442-0.235
				l-0.503-0.537l-1.009-0.283l-0.675,0.213l-0.459,0.087l-1.114-0.816l-0.399-0.001L57.24,50.82l-0.322,0.381l-0.551,0.028
				l-0.716-0.815l-0.503-0.538l-0.846,0.563l-0.511,1.054l-0.509,0.655l-0.182-0.52l0.19-1.071l-0.536,0.105l-0.343,1.1
				l-0.189,0.674l-0.219,0.917l-0.293,0.535l-0.157,0.826l0.043,0.629l-0.355,0.624l0.088,0.461l-0.434,1.04l0.303,0.738
				l-0.249,0.764l-0.065,0.491L50.39,60.191z"></path>
			<path fill="#C69C6D" d="M81.614,50.536l0.457,0.708l0.257,0.506l-0.048,0.567l0.936-0.501l0.366,0.247l0.348,0.569l0.399,0.002
				l0.019-1.118l-0.331-1.288l-0.056-0.309c0,0-0.262-0.106-0.461-0.308c-0.198-0.199-0.916-0.219-0.916-0.219l-0.445-0.233
				l-0.263,0.29l-0.353,0.627L81.614,50.536z"></path>
			<path fill="#C69C6D" d="M78.878,48.124l0.402,0.638l0.905,0.144l0.689-0.135l0.358-0.627l0.443-0.167
				c0,0,0.248-0.367,0.477-0.411c0.23-0.045,0.629-0.043,0.629-0.043l0.362,0.646l1.084,0.664l0.083-0.81
				c0,0,0.321,0.017,0.442,0.232c0.123,0.215,0.24,0.828,0.24,0.828l0.278-0.213l-0.314-1.612l0.19-1.07l-0.314-1.212l-0.41-0.475
				l-0.846,0.163l-0.278,0.611l-0.8,0.793l-0.843,0.164l-0.234,0.442l-0.89,0.531l-0.735-0.096l-0.156,0.429l-0.749-0.173
				l-0.399,0.198L78.878,48.124z"></path>
			<path fill="#C69C6D" d="M55.508,42.722l0.902,0.142c0,0,0.357-0.625,0.313-0.855c-0.045-0.229-0.365-0.647-0.595-0.602
				c-0.229,0.047-0.735-0.094-0.735-0.094l-0.142,0.903l1.8,1.081l0.219-0.519l-0.102-1.333l0.384-0.074l0.938-0.501
				c0,0,0.226,0.753-0.081,0.811c-0.306,0.06-0.555,0.428-0.555,0.428l1.165,0.251l0.764-0.149l-0.602,0.993l-1.102,0.054
				l0.073,0.383l0.518,0.616c0,0-0.175,1.146-0.647,0.762c-0.472-0.385-0.796-0.005-0.978-0.527
				c-0.182-0.521-0.182-0.521-0.182-0.521L55.508,42.722z"></path>
			<path fill="#C69C6D" d="M43.02,98.383l-2.015-1.357c0,0-3.494,0.043-4.072-0.481c-0.581-0.524-0.581-0.524-0.581-0.524
				l-2.355-0.657L31.923,93.7l-1.708-1.417c0,0-1.859-2.185-2.437-2.709c-0.578-0.524-1.526-1.295-1.643-1.909
				c-0.121-0.612-1.161-1.047-1.279-1.659c-0.118-0.615,0.533-2.174,0.934-2.57c0.398-0.399,0.219-1.317,0.219-1.317l-0.328-1.686
				l-0.456-0.708l0.187-0.673l0.01-1.593l-0.179-0.92l-0.084-1.256l-0.728-1.291l-0.518-1.015l-0.117-0.611l-0.205-1.871
				l-0.114-1.41l-0.18-0.921l-1.219-1.354l-0.698-1.138l-0.15-0.766l-0.766,0.149l-0.607-0.679l0.766-0.148l0.737-0.303
				l-1.194-0.404l-1.588-0.805l-1.469-0.191c0,0-1.467-0.988-1.892-1.542c-0.256-0.333-0.997-1.086-1.683-1.818
				c-0.46-0.486-0.895-0.961-1.149-1.29c-0.64-0.831-0.64-0.831-0.64-0.831l2.655,2.188l1.401,1.478c0,0,0.72,0.549,1.367,0.846
				c0.282,0.131,0.554,0.215,0.741,0.178l-0.147-0.768l-0.209-1.074l0.095-1.133l-0.266-1.379l0.369-0.55
				c0,0,1.125-1.175,1.277-0.805c0.153,0.368,0.96,0.848,0.96,0.848s1.01,0.677,0.996,0.204c-0.012-0.477-0.348-0.968-0.348-0.968
				l0.174-0.75c0,0,0.343-1.1,0.555-0.824c0.214,0.277,0.624,0.753,0.624,0.753l0.18,0.921l0.672,0.188l0.452-0.963
				c0,0,0.722-0.78,1.228-0.637c0.504,0.141,1.606,0.484,1.606,0.484s0.854,0.709,0.912,1.015c0.062,0.307,0.603,1.874,0.603,1.874
				l0.742,1.764c0,0,0.941,1.565,1,1.874c0.062,0.309,1.14,1.77,1.275,2.458c0.135,0.689,2.417,0.565,2.922,0.706
				c0.504,0.138,0.314,1.21,0.314,1.21l0.211,0.676c0,0,1.504-0.054,1.607,0.483c0.103,0.536,0.913,1.015,0.913,1.015l0.764,0.647
				l-0.158,0.826l1.712,0.623l0.271,0.583l0.938-0.501c0,0,0.273,0.582,0.778,0.724c0.504,0.143,1.177,0.328,1.562,0.256
				c0.383-0.074,0.98-0.272,0.98-0.272s-0.576-0.923-0.072-1.179c0.509-0.259,1.562,0.251,1.562,0.251l-0.632,0.84l0.241,0.829
				l0.649-0.761l0.528-1.377c0,0-0.992-0.603-1.036-0.834c-0.047-0.229,1.593-0.389,1.593-0.389l0.527,1.489l-0.483,1.606
				l0.117,1.41l0.563,0.448L47,73.023l-0.129-1.486l0.37-0.948l0.259,0.505l0.642,0.435l0.548,0.37l0.478-0.812l-0.147-0.766
				l0.354-0.227c0,0,1.007,0.678,1.169,1.521c0.165,0.844-0.432,1.04-0.432,1.04l-1.045,0.361l-0.569,0.35l-0.376,1.746
				l-1.165,0.147l-0.189,1.07c0,0-0.861,0.488-0.971,0.746c-0.107,0.26-0.452,1.361-0.452,1.361l0.318,1.212l0.792,0.401l0.27,0.982
				l0.522,0.218c0,0,0.767-0.149,1.103-0.056c0.336,0.094,2.137,1.175,2.137,1.175l1.102,0.343c0,0,1.395-0.191,1.593,0.01
				c0.198,0.2,1.493,1.539,1.493,1.539s1.176,0.727,1.223,0.16c0.051-0.567-0.205-1.471-0.205-1.471L54.9,82.15
				c0,0,0.971-1.145,0.835-1.436c-0.136-0.293-0.423-1.35-0.423-1.35s-1.058,0.285-1.146-0.176c-0.091-0.46,0.175-1.544,0.175-1.544
				s-0.441-0.633-0.559-1.246c-0.12-0.614,0.019-0.719,0.325-0.779c0.309-0.059,1.195,0.007,1.195,0.007l0.629-0.44
				c0,0,0.812,0.079,1.148,0.174c0.337,0.092,1.118,0.019,1.318,0.222c0.197,0.198-0.114,1.053,0.482,1.257
				c0.596,0.203,1.254,0.313,1.531,0.101c0.278-0.213,0.762-1.819,0.686-2.201c-0.074-0.385,0.689,0.262,0.689,0.262l1.832,1.237
				c0,0,0.774,1.121,1.326,1.093c0.551-0.026,1.613-0.71,1.613-0.71s0.932,0.296,1.345,0.375c0.413,0.078,1.336-0.5,1.412-0.114
				c0.074,0.381,0.267,1.378,0.267,1.378s0.101,0.936,0.392,0.798c0.293-0.136,1.171-0.543,1.171-0.543l1.056-0.287
				c0,0,0.059,0.705,0.362,0.646c0.31-0.061,0.489,0.463,0.489,0.463s-0.657-0.112-0.919,0.178
				c-0.262,0.291-1.322,0.974-1.322,0.974s-0.923,0.576-1.275,0.406c-0.351-0.169-0.273-0.584-0.315-0.813
				c-0.045-0.23-0.194-1.396-0.194-1.396L68.49,78.79l-0.558,1.224l-1.015,0.914l-1.614,0.711l-1.894,1.721
				c0,0-0.697,1.33-0.913,1.848c0.478-0.81,1.975-2.532,2.544-2.882c0.567-0.349,1.041,0.037,1.041,0.037l0.209,1.072l0.595,0.203
				l0.751,0.174l0.985-0.67l0.036-1.041c0,0,0.722-0.379,0.858-0.088c0.136,0.291-0.219,0.918-0.219,0.918s-1.676,1.201-1.786,1.461
				c-0.107,0.259-0.142,0.904-0.448,0.963c-0.308,0.059-0.967,0.348-0.967,0.348l0.463-0.885l-0.687,0.132l-0.42,0.719l-1.26,1.279
				l-0.525,0.58l0.178,0.919l-0.001,0.399l-0.706,0.456l-0.844,0.163l-0.414,0.318l-0.342,0.705l-0.691,0.134l-0.019,0.72
				l0.598,0.202c0,0-0.529,1.375-0.835,1.434c-0.308,0.061-1.35,0.422-1.35,0.422l-0.602,0.595l-0.706,0.456l-0.248,0.367
				c0,0,0.872,0.388,1.194,0.403c0.321,0.017,0.454,0.706,0.454,0.706L58.09,96.09l-1.164-0.25l-1.069-0.587
				c0,0-1.226,0.237-1.548,0.222c-0.322-0.017-1.256,0.085-1.256,0.085s-1.197,0.391-1.98,0.465
				c-0.779,0.07-2.495-0.151-2.495-0.151s-1.502,0.053-1.745,0.02c-0.246-0.032-0.706,0.058-1.091,0.133
				c-0.384,0.074-0.815,0.716-0.815,0.716l1.266,0.788l3.001,0.69l3.598,0.095l2.648,0.521 M49.945,68.949
				c0,0,2.625-0.829,3.066-0.597c0.445,0.232,0.792,1.2,0.792,1.2l0.373,1.916l0.7,0.74l-1.979,0.463l0.792,1.201l1.413-0.514
				l1.282,0.468c0,0,1.038,0.432,1.27,0.388c0.231-0.043,0.537-0.103,1.15-0.224c0.614-0.117,1.153-0.222,1.153-0.222l-1.041-0.436
				l-0.565-0.048l1.132-0.3l0.416-0.32c0,0-0.412-0.476-0.716-0.815c-0.304-0.337-1.085-0.266-1.085-0.266s-1.223-0.556-0.914-1.016
				c0.308-0.458,1.18-0.072,1.18-0.072l0.549,0.371l0.342-0.702c0,0,0.417-0.717,0.281-1.009c-0.138-0.291,0.106,0.139-0.841-0.235
				c-0.947-0.373-0.947-0.373-0.947-0.373s-0.313,0.857-1.059,0.285c-0.748-0.569-0.903-0.143-1.237-0.634
				c-0.335-0.491-1.021-1.154-1.021-1.154l-1.118-0.019c0,0-0.704-0.341-1.007-0.681c-0.306-0.339-1.271-0.39-1.271-0.39
				s0.739-0.7,0.128-0.979c-0.61-0.279-0.613,0.118-0.613,0.118s-1.103,0.055-1.044,0.363c0.059,0.307,1.407,0.284,1.222,0.557
				c-0.183,0.275-0.278,0.611-0.769,0.549c-0.489-0.065-0.811-0.083-0.885-0.465c-0.074-0.384-0.682-1.46-0.561-0.846
				c0.118,0.614-0.271,1.485-0.271,1.485l0.684,1.059l-0.749-0.17l-0.299-1.535c0,0,0.28-0.611,0.035-0.642
				c-0.245-0.033-1.166,0.546-0.987,1.465c0.179,0.922,0.924,1.892,1.398,1.877C48.798,68.775,49.945,68.949,49.945,68.949z
				 M37.81,69.559l1.977-0.066l1.971,0.73l0.308-0.456l-0.639-0.434l1.103-0.454l-0.821-0.954c0,0-0.212-0.673-0.257-0.904
				c-0.041-0.232-0.315-1.213-0.315-1.213s0.015,0.476-0.552,0.426c-0.567-0.049-0.857,0.087-0.949-0.374
				c-0.09-0.459-0.733-0.492-0.733-0.492l-0.715-0.817c0,0-0.969-2.118-1.414-1.951c-0.444,0.167-1.31,1.447-1.31,1.447
				s-0.738,0.702-0.512,1.054c0.23,0.355,1.087,0.267,1.087,0.267l1.491-0.926l-0.125,0.581c0,0-0.539,0.503-0.465,0.887
				c0.076,0.382-0.157,0.825,0.103,0.934c0.262,0.109,1.209,0.082,1.542,0.974c-1.191-0.406-1.681-0.868-1.607-0.485
				c0.076,0.383,0.069,1.578,0.408,1.672C37.722,69.099,37.81,69.559,37.81,69.559z M43.977,67.723
				c0.051-0.567,0.018-0.321,0.018-0.321l0.434-1.042l-0.332-0.889l-1.058-0.113l0.474,0.784l-1.045,0.362
				c0,0,0.974,1.323,1.172,1.522C43.64,68.027,43.929,68.289,43.977,67.723z M46.018,64.303c0,0,0.566,0.448,1.56,0.254
				c0.998-0.196,2.012-1.109,2.012-1.109s-0.151,0.031-1.102,0.055c-0.949,0.026-1.993,0.387-2.097-0.147
				c-0.105-0.538-0.625-0.755-0.625-0.755s-0.687-0.264-0.78,0.073c-0.095,0.337,0.532,0.693,0.532,0.693L46.018,64.303z
				 M45.172,67.729c0,0,0.617-0.517,0.68-1.007c0.063-0.492,0.34-0.704,0.631-0.839c0.292-0.136-0.38-0.323-0.852-0.708
				c-0.474-0.386-0.722,0.379-0.632,0.837c0.09,0.461,0.069,1.182,0.069,1.182L45.172,67.729z M47.42,62.915
				c0,0,1.318-0.175,1.533-0.298c0.215-0.122,0.543-0.899,0.388-1.27c-0.149-0.366-0.607-0.676-0.421-0.951
				c0.185-0.275-0.004-2.068,0.456-2.156c0.459-0.091,0.528-1.376,0.528-1.376l-0.194-0.998c0,0-1.172,1.341-1.096,1.726
				c0.073,0.382-0.711,0.854-0.576,1.543c0.136,0.691,0.022,1.747,0.022,1.747s-0.95,0.025-0.828,0.241
				c0.121,0.214,0.668,0.983,0.668,0.983L47.42,62.915z M42.702,63.198c0,0,0.055,0.704,0.362,0.646
				c0.307-0.061,1.224,0.158,1.224,0.158l-0.055-1.102l-0.932-0.295L42.702,63.198z M40.31,63.185
				c0.461-0.091,0.304,0.337,0.536,0.294c0.229-0.046,0.399-0.396,0.399-0.396s0.003-0.397-0.162-0.846
				c-0.168-0.443-0.83,0.241-0.83,0.241s-0.26-0.107-0.304-0.338c-0.044-0.229-0.329-1.289-0.329-1.289s-0.968,0.349-0.785,0.87
				c0.179,0.52-0.128,0.979,0.223,1.149c0.351,0.17,0.503,0.54,0.503,0.54L40.31,63.185z M41.613,60.465l-0.258-0.905
				c0,0-0.52,0.18-0.475,0.409c0.044,0.231-0.113,1.056-0.113,1.056l0.458-0.089L41.613,60.465z M43.816,60.751
				c0,0,0.566,0.051,0.796,0.005c0.23-0.045-0.318-0.414-0.318-0.414l-0.752-0.172l-0.803-1.276c0,0-0.249,0.366-0.095,0.734
				C42.794,59.996,43.816,60.751,43.816,60.751z M45.824,60.441l0.549,0.37l-0.164-0.844c0,0-0.257-0.507-0.194-0.997
				c0.065-0.488,0.158-0.826-0.087-0.858c-0.246-0.032-0.552,0.426-0.552,0.426l0.361,1.044c0,0-0.62,1.312-0.266,1.086
				C45.824,60.441,45.824,60.441,45.824,60.441z M49.738,73.606l-0.39,1.269l0.317,0.813l0.756-0.625c0,0,0.442-0.166,0.918-0.179
				c0.475-0.012,0.675-0.211,0.537-0.501c-0.134-0.293-0.656-0.509-0.656-0.509l-0.701-0.342L49.738,73.606z"></path>
			<path fill="#C69C6D" d="M14.838,27.954c0,0,1.581-0.465,2.068-0.003c0.487,0.461,0.993,0.603,0.993,0.603
				s-0.562-1.245-0.913-1.414c-0.35-0.17-0.731-0.494-0.731-0.494l-0.949-0.373c0,0-0.471-0.782-0.716-0.815
				c-0.244-0.032,0.29,0.259-0.218,0.518c-0.505,0.259-0.048,0.567-0.048,0.567s0.781-0.073,0.828,0.157
				c0.044,0.23-0.172,0.75-0.172,0.75L14.838,27.954z"></path>
			<path fill="#C69C6D" d="M12.532,26.732c0,0,0.618-0.914,0.835-1.036c0.215-0.122,1.012-0.516,1.012-0.516
				s-0.441-0.632-0.486-0.859c-0.044-0.23-0.038-1.425-0.038-1.425s-0.702-0.341-0.687-0.664c0.019-0.321,0.639-1.633,0.748-1.895
				c0.109-0.26,0.574-1.544,0.574-1.544l0.767-0.149c0,0,0.771-0.945,0.897-1.528c0.127-0.579,0.697-1.326,0.697-1.326
				s-0.335-0.493-0.428-0.157c-0.095,0.337-0.106-0.139-0.558,0.824c-0.449,0.962-0.032,0.642-0.449,0.962
				c-0.413,0.32-0.876,0.808-0.876,0.808s-0.369,0.151-0.647,0.763c-0.28,0.611-0.589,1.068-0.881,1.602
				c-0.293,0.536-0.987,1.067-0.942,1.298c0.044,0.229-0.157,0.826,0.256,0.905c0.412,0.078,0.026,0.55,0.026,0.55
				s-0.277,0.614,0.335,0.492c0.614-0.118,0.614-0.118,0.614-0.118s0.55,0.371,0.24,0.828c-0.309,0.458-1.138,0.697-1.138,0.697
				l0.106,0.538L12.532,26.732z"></path>
			<path fill="#C69C6D" d="M97.678,60.302l-1.054-0.512l-0.907-2.21l0.01-1.991c0,0-0.347-1.365-0.606-1.474
				c-0.259-0.108-0.876-2.455-0.876-2.455l-0.512-1.412l0.328-1.179l-0.288-3.523l-0.54-2.364l-1.431-4.496l0.376-1.345
				c0,0,0.277-0.612,0.493-0.733c0.215-0.121-0.037-1.425-0.037-1.425l-0.248-2.497c0,0-0.704-2.807-0.749-3.038
				c-0.047-0.231-0.965-0.052-1.288-0.069c-0.321-0.016-0.647-2.1-0.647-2.1l-1.135-2.564l-0.818-1.752l-1.504-2.413
				c0,0-0.623-1.153-0.851-1.109c-0.23,0.047-0.465,0.886-0.465,0.886l-0.16,1.226c0,0,0.624,0.753,0.745,0.967
				c0.123,0.216,0.712,1.612,0.712,1.612s0.072,1.182,0.008,1.67c-0.065,0.491-0.965-0.05-0.965-0.05l-0.88-1.261
				c0,0-1.085-1.062-1.373-1.323c-0.29-0.264-1.511-1.219-1.768-1.725c-0.259-0.509-1.109-2.013-1.274-2.457
				c-0.167-0.447-1.725-1.497-2.184-1.406c-0.46,0.09,0.329,1.686,0.419,2.146c0.088,0.46,0.102,0.935,0.102,0.935l-1.29,0.331
				l1.877,1.464l0.034-0.643c0,0-0.697-1.136-0.485-0.86c0.212,0.278,1.768,1.327,1.844,1.71c0.074,0.384-0.293,0.536-0.293,0.536
				l-0.43-0.157c0,0,0.685,1.06,0.806,1.675c0.117,0.613,1.94,0.576,1.94,0.576l1.333,0.299l0.339-0.704l0.902,0.541
				c0,0,0.147,0.766,0.695,1.535c0.548,0.769,1.19,1.201,1.19,1.201l0.216-0.518l0.445-0.167l1.268,0.389l-0.218,0.918l-0.189,0.672
				l-0.281,1.009L87.14,31.08l0.023,1.348l-0.408,1.591c0,0-0.147,2.098,0.001,2.864c0.15,0.768,0.583-0.273,0.583-0.273
				l0.633-1.236c0,0,0.096-0.735,0.179-1.547c0.079-0.812-0.281-1.855-0.281-1.855l0.52-0.182l0.364,1.045l0.431-0.243l1.082,0.664
				c0,0-0.539,0.104-0.813-0.082c-0.274-0.184-0.492,0.335-0.492,0.335l0.054,1.104l-0.192,1.869l-0.313,1.253l-0.402,0.795
				l0.043,0.627l0.76,1.048l0.866,1.184l0.697,1.535l0.481,1.657l0.47,0.783l0.596,0.602c0,0,0.596,0.201,0.731,0.494
				c0.136,0.293,0.351,0.569,0.456,1.105c0.103,0.537,0.446,2.301,0.446,2.301s-0.493,0.732-0.512,1.056
				c-0.016,0.321-0.112,1.056-0.112,1.056s-0.308,0.459-0.693,0.532c-0.383,0.077-0.826-0.156-1.177-0.326
				c-0.353-0.172-1.041-0.037-1.378-0.131c-0.336-0.094,0.161-1.224,0.161-1.224l-0.255-0.905l0.029-3.111
				c0,0-0.87-0.387-1.639-0.238c-0.766,0.149-1.586,2.059-1.586,2.059s-0.54-1.964-0.509-2.208c0.033-0.245-0.924-1.891-1.212-2.151
				c-0.291-0.26-1.007-1.078-1.007-1.078l-0.731-0.893l-0.165-0.843l-0.897-1.337l-0.828,0.639c0,0-0.405,0.794-0.788,0.869
				c-0.383,0.073-1.022-0.756-1.022-0.756l-0.837-1.03l0.629-0.043l0.764,0.248l0.235-1.239l0.932,0.695l-0.087-1.257l0.343-1.102
				l-1.325-1.493c0,0-0.804-1.274-1.263-1.584c-0.457-0.31-0.532-0.692-0.532-0.692l-0.459-0.309l-1.487,0.13l-0.333-0.494
				c0,0-0.112,0.658-0.342,0.705c-0.231,0.044-0.81-0.481-0.81-0.481l-1.135-0.097c0,0,0.303,1.135,0.346,1.365
				c0.045,0.23-0.414,0.717-0.414,0.717s-0.464,0.488-0.924,0.577c-0.459,0.09-1.02-0.754-1.02-0.754L70.576,34.7
				c0,0-1.319,0.575-1.231,1.035c0.091,0.459,0.98,0.525,1.241,0.236c0.262-0.289,0.737-0.301,1.104-0.056
				c0.365,0.247,1.434,0.835,2.292,0.747c0.859-0.088,0.909-0.653,1.018-0.914c0.109-0.26,0.492-0.333,1.106-0.454
				c0.613-0.118,0.55-0.027,1.282,0.466c0.734,0.496,0.781-0.071,1.104-0.053c0.322,0.016,0.93,0.693,1.143,0.97
				c0.213,0.278,0.24,1.226,0.24,1.226s-0.892,0.732-1.57,0.943c-0.673,0.21-0.756,1.418-0.756,1.418l0.488,0.464l0.993,0.604
				c0,0,0.512,1.411,0.588,1.794c0.074,0.384-0.8,0.393-0.8,0.393l-1.149,0.225l-1.637-0.238l-2.074-2.065l-1.356-1.246
				c0,0-1.33-0.297-2.099-0.15c-0.766,0.15-2.936-0.78-2.936-0.78l-0.873-0.389l-1.02-0.756l-0.901-0.541l-0.671-0.586l-0.268-1.378
				l0.706-0.456l-0.454-0.707l-0.314-1.611l-0.388-1.992c0,0,0.003-0.398,0.68-1.007c0.678-0.611,1.467,0.588,1.467,0.588
				l0.496,2.132c0,0,0.145-1.301,0.437-1.438c0.292-0.136,0.876-0.806,0.876-0.806l-0.331-1.288l-0.296,0.933l-0.672-0.189
				l-0.227-0.753l-0.673,0.213c0,0-1.306,0.651-1.425,0.038c-0.118-0.612-0.118-0.612-0.118-0.612l-0.752,0.226
				c0,0-1.323,0.972-1.523,0.773c-0.196-0.2,0.741-0.701,0.651-1.161c-0.09-0.46-0.704-0.341-0.704-0.341s-2.315,0.371-2.757,0.139
				c-0.444-0.232-0.012-0.476-0.012-0.476l1.257-0.484l0.757-1.021c0,0-1.599,1.186-2.656,1.073c-1.056-0.112-2.079-0.47-2.079-0.47
				l-0.3,1.33c0,0-1.743-3.24-2.146-2.845c-0.398,0.398-0.3,2.13-0.3,2.13s-0.614,0.118-1.232,1.034
				c-0.617,0.916-1.182,0.467-1.182,0.467l0.208-1.791l0.578-1.942c0,0,0.559-1.62,1.202-1.586c0.643,0.034,0.643,0.034,0.643,0.034
				s-0.808-0.48-0.958-1.247c-0.146-0.766-0.585,0.672-0.585,0.672l-1.126,1.573c0,0-0.537,0.104-0.627-0.356
				c-0.088-0.462-0.88-1.262-0.88-1.262s0.405,1.274,0.664,1.781c0.257,0.507,1.023,0.358,1.023,0.358l-0.313,1.653l-1.205,1.585
				c0,0,0.526-0.978,0.315-1.254c-0.215-0.277-0.355,0.228-0.355,0.228s-1.154,1.02-1.351,0.423c-0.196-0.6-0.686-0.662-0.686-0.662
				l0.069-1.288l-0.395-0.798l-0.069,1.684c0,0,0.288,0.661,0.515,1.013c0.23,0.354,0.748,0.572,0.27,0.982
				c-0.476,0.412-1.654,0.085-1.81,0.512c-0.156,0.429-0.266,1.087-0.821,1.512c-0.552,0.427-0.8,0.792-1.076,1.005
				c-0.278,0.213-0.632,0.443-0.632,0.443l-0.471-0.388c0,0-0.691,0.134-1.018,0.914c-0.325,0.781-0.877,0.809-0.877,0.809
				s-0.245-0.034-1.104,0.054c-0.857,0.087-1.603-0.881-1.184-1.599c0.417-0.717,0.978-2.339,0.978-2.339l-1.34,1.295l-1.396,0.591
				c0,0-0.509,0.655-0.812,0.317c-0.307-0.339-1.076,0.208-1.076,0.208l-0.11,0.658c0,0-1.078,1.006-1.46,0.682
				c-0.381-0.323-2.228-1.636-2.214-1.16c0.012,0.473-0.008,1.193-0.008,1.193l-0.77,0.947l-0.784,0.47l1.052,0.91
				c0,0-0.19,1.07-0.879,1.206c-0.691,0.134-1.1-0.744-1.27-0.392c-0.169,0.352,0.117,1.013,0.117,1.013s0.226,0.753-0.237,0.841
				c-0.457,0.09-0.901-0.142-0.901-0.142l-0.463,0.487c0,0-0.644,0.362-0.706,0.854c-0.066,0.489-0.237,0.841-0.498,1.132
				c-0.26,0.288-1.073,0.208-1.319,0.574c-0.248,0.365-0.083,0.811-0.083,0.811l-0.724,0.779l0.011,1.27l-0.526,0.58l1.239,0.236
				l-1.476,4.267l-1.051,1.555l-0.95,0.426c0,0-0.766-0.249-0.596-0.601c0.171-0.353,0.164-2.021,0.164-2.021
				s-0.709,0.853-0.813,0.318c-0.105-0.539-0.083-1.656-0.083-1.656l-1.848,1.552c0,0-0.231-2.42-0.442-3.094
				c-0.211-0.676-1.106-2.015-1.106-2.015l0.437-1.836l-0.359-1.441l-0.687-0.663l-1.117-0.021l-0.669-0.983l-0.629,0.041
				l-0.176-1.316l-0.383,0.074c0,0,0.125-0.582,0.036-1.043c-0.088-0.458-0.406-1.272-0.406-1.272s2.207-0.312,2.695,0.15
				c0,0,1.25,0.912,1.292,1.937c0.041,1.027,1.184,1.999,1.014,2.349c-0.169,0.353,0.391,1.199,0.391,1.199l0.61,0.676l-0.238-1.226
				l-0.409-0.877c0,0,1.228-0.636,1.154-1.02c-0.074-0.382-0.299-1.533-0.299-1.533l-0.851-1.107c0,0,1.545-2.291,1.469-2.674
				c-0.073-0.384,1.866-2.272,1.777-2.732c-0.09-0.46-0.512-4.675,0.105-5.192c-0.567-0.05-1.519,0.375-1.519,0.375l-0.204,0.994
				l-1.46,0.68c0,0-0.2-0.199-0.899-0.937c-0.699-0.74-0.88-1.66-0.88-1.66l0.408-1.59l0.705-2.923l1-0.99l0.512-1.055l0.11-0.658
				l0.526-0.979l-0.456-0.704l-0.799,0.393l-0.32-0.417c0,0-0.748-0.569,0.157-0.826c0.908-0.255,1.307-0.653,1.307-0.653
				l0.169-0.35l-1.118-0.022l-0.766,0.149l-0.674-0.189l0.035,0.039C23.228,8.042,31.378,3.731,40.649,1.927
				C67.201-3.236,92.91,14.102,98.072,40.651c1.292,6.637,1.176,13.221-0.138,19.446L97.678,60.302z"></path>
			<path fill="#C69C6D" d="M50.43,32.571c0,0,4.079-0.714,4.403-1.094c0.321-0.384,1.648-2.151,1.574-2.536
				c-0.073-0.383,0.686,1.06,0.544,1.566c-0.142,0.504-1.08,1.403-1.201,1.187c-0.121-0.214-0.536-0.293-0.536-0.293
				s0.905,0.143,0.106,0.537c-0.8,0.392-1.494,1.325-1.815,1.308c-0.321-0.017-1.394-0.207-1.699-0.147
				c-0.307,0.059-1.212,0.315-1.212,0.315L50.43,32.571z"></path>
			<path fill="#C69C6D" d="M70.974,55.55l0.158-1.226l-0.306-0.337l-0.149-0.768l0.572-0.746l0.69-0.136l0.844-0.163l0.607,0.676
				c0,0,0,0,0.076,0.385c0.074,0.381,0.163,0.842,0.163,0.842l-0.036,1.041l-0.34,0.703l-0.49,0.335l-0.508,0.258
				c0,0-0.876,0.408-0.92,0.178c-0.045-0.228-0.196-0.599-0.196-0.599L70.974,55.55z"></path>

</g>
</g></svg>