<?xml version="1.0" encoding="UTF-8"?>
<svg viewBox="0 0 464.44876 376.49963" xmlns="http://www.w3.org/2000/svg">
 <defs>
  <filter id="m">
   <feGaussianBlur stdDeviation=".849"/>
  </filter>
  <filter id="k">
   <feGaussianBlur stdDeviation=".8245"/>
  </filter>
  <filter id="l">
   <feGaussianBlur stdDeviation="3.6193"/>
  </filter>
  <filter id="p">
   <feGaussianBlur stdDeviation=".3952"/>
  </filter>
  <filter id="o" x="-.27454" y="-.8224" width="1.5491" height="2.6448">
   <feGaussianBlur stdDeviation="7.637"/>
  </filter>
  <filter id="n" x="-.21598" y="-.57614" width="1.432" height="2.1523">
   <feGaussianBlur stdDeviation="7.4942"/>
  </filter>
  <filter id="q" x="-.15667" y="-.51062" width="1.3133" height="2.0212">
   <feGaussianBlur stdDeviation="8.9803"/>
  </filter>
  <filter id="j" x="-.0397" y="-.15165" width="1.0794" height="1.3033">
   <feGaussianBlur stdDeviation="7.6568"/>
  </filter>
  <linearGradient id="i" x1="1199.8" x2="1435.6" y1="977.08" y2="972.85" gradientTransform="matrix(1.3158 0 0 .31571 -1318.1 131.16)" gradientUnits="userSpaceOnUse">
   <stop offset="0"/>
   <stop stop-opacity="0" offset="1"/>
  </linearGradient>
  <linearGradient id="h" x1="244.04" x2="240.97" y1="407.48" y2="108.26" gradientUnits="userSpaceOnUse">
   <stop offset="0"/>
   <stop stop-color="#2f2f2f" offset=".7902"/>
   <stop offset="1"/>
  </linearGradient>
  <linearGradient id="g" x1="449.56" x2="377.48" y1="749.06" y2="679.34" gradientTransform="matrix(.53986 0 0 .85106 116.35 -306.58)" gradientUnits="userSpaceOnUse">
   <stop stop-color="#898989" offset="0"/>
   <stop stop-color="#525252" offset="1"/>
  </linearGradient>
  <linearGradient id="f" x1="-177.94" x2="-80.499" y1="554.61" y2="568.89" gradientUnits="userSpaceOnUse">
   <stop stop-color="#3a3a3a" offset="0"/>
   <stop stop-color="#505050" offset="1"/>
  </linearGradient>
  <linearGradient id="e" x1="422.29" x2="453.43" gradientUnits="userSpaceOnUse">
   <stop stop-opacity="0" offset="0"/>
   <stop stop-color="#f8f8f8" offset="1"/>
  </linearGradient>
  <linearGradient id="d" x1="-683.52" x2="-656.26" y1="238.99" y2="249.4" gradientUnits="userSpaceOnUse">
   <stop stop-color="#333" offset="0"/>
   <stop stop-color="#333" stop-opacity="0" offset="1"/>
  </linearGradient>
  <linearGradient id="c" x1="159.44" x2="301.27" gradientUnits="userSpaceOnUse">
   <stop stop-color="#8e8e8e" offset="0"/>
   <stop stop-color="#d4d4d4" offset="1"/>
  </linearGradient>
  <radialGradient id="b" cx="-528.1" cy="481.1" r="59.375" gradientTransform="matrix(1.4062 .1727 -.26663 2.171 1157.7 -693.45)" gradientUnits="userSpaceOnUse">
   <stop stop-color="#ccc" stop-opacity="0" offset="0"/>
   <stop stop-color="#d6d6d6" stop-opacity=".3588" offset=".6408"/>
   <stop stop-opacity="0" offset="1"/>
  </radialGradient>
  <radialGradient id="a" cx="381.56" cy="623.56" r="191.44" gradientTransform="matrix(.56704 -.00509 .01959 .89755 88.093 -303.43)" gradientUnits="userSpaceOnUse">
   <stop offset="0"/>
   <stop stop-color="#2a2a2a" offset=".7581"/>
   <stop offset="1"/>
  </radialGradient>
 </defs>
 <g transform="translate(-110.16 -87.468)">
  <path transform="matrix(.85106 0 0 .85106 97.008 38.408)" d="m383.02 348.74c-4.1366 0-8.2374 0.0608-12.295 0.1776-1.1594 0.0334-2.302 0.0757-3.4541 0.11838h-126.28v0.01l-1.3158-0.01c-42.972 0-81.976 6.4128-110.7 16.851h-3.4952l-12.912 6.9653-0.041 0.0198c-2.6944 1.3368-5.2507 2.7128-7.6483 4.1338l-1.9738 1.0556h0.2057c-14.75 9.1534-23.233 19.91-23.233 31.413 0 33.378 71.546 60.438 159.79 60.438l1.3159-0.01h139.56v-0.29601c0.8243 5e-3 1.64 0.01 2.4672 0.01 88.247 0 159.79-27.061 159.79-60.438s-71.546-60.438-159.79-60.438z" fill="url(#i)" filter="url(#j)"/>
  <path d="m225.3 97.468c-57.076 0-103.35 73.18-103.35 163.43s46.274 163.4 103.35 163.4c0.28544 0 0.5662-0.0231 0.85105-0.0265h90.265v-75.292c-1.6935-0.0331-3.3641-0.19-5.0266-0.50531-1.6711-0.31696-3.3423-0.7972-4.9733-1.383s-3.2315-1.2894-4.8138-2.1276-3.1295-1.7981-4.6542-2.8723-3.0362-2.2699-4.4947-3.5638-2.8719-2.6783-4.2553-4.1755-2.7162-3.1031-4.0159-4.7872-2.5693-3.4644-3.7766-5.3191-2.3514-3.789-3.4574-5.7978-2.1687-4.0768-3.1649-6.2233-1.9415-4.3543-2.8191-6.6223-1.6966-4.595-2.4468-6.968-1.4337-4.7989-2.0478-7.2606-1.153-4.966-1.6224-7.4999-0.85429-5.0963-1.1702-7.6861-0.56442-5.2164-0.71804-7.8457c-0.21327-3.041-0.31191-6.0789-0.29259-9.0956s0.16025-5.992 0.39897-8.9627 0.59217-5.9269 1.0372-8.8297 0.98424-5.7508 1.6224-8.5637 1.3628-5.5965 2.1808-8.2978 1.7279-5.3311 2.7127-7.8988 2.053-5.061 3.1914-7.4733 2.3381-4.7329 3.617-6.968 2.6364-4.4001 4.0425-6.4361 2.8681-3.9562 4.3882-5.7712 3.0863-3.5076 4.7074-5.0797 3.291-3.0277 5-4.3351 3.4558-2.4632 5.2393-3.484 3.6071-1.8941 5.4521-2.6064c1.845-0.7123 3.7184-1.267 5.6116-1.6489 1.4989-0.30238 3.0262-0.42225 4.5479-0.50532v-74.919h-90.265v0.02655c-0.28485-0.0034-0.56561-0.02655-0.85105-0.02655z" fill="url(#h)"/>
  <path d="m319.2 165.95c-12.566 0-24.233 6.1495-33.829 16.649 17.292 12.27 29.255 38.806 29.255 69.574 0 35.243-15.709 64.961-37.127 74.015 10.723 16.682 25.446 26.994 41.702 26.994 32.797 0 59.361-41.913 59.361-93.616s-26.564-93.616-59.361-93.616z" fill="url(#g)" stroke="#b3b3b3" stroke-width="1.7021"/>
  <path transform="matrix(.85106 0 -.34565 .7777 -68.904 -274.99)" d="m483.83 538.8 103.03 1.1725c-2.2304 13.256-2.2698 27.332-2.2619 41.59l-104.85-0.39083c0.417-15.512-0.2933-34.477 4.0873-42.371z" fill="#fff" fill-opacity=".2533" filter="url(#q)"/>
  <path d="m319.2 165.95c-12.566 0-24.233 6.1495-33.829 16.649 17.292 12.27 29.255 38.806 29.255 69.574 0 35.243-15.709 64.961-37.127 74.015 10.723 16.682 25.446 26.994 41.702 26.994 32.797 0 59.361-41.913 59.361-93.616s-26.564-93.616-59.361-93.616z" fill="url(#b)"/>
  <path transform="matrix(1.2145 -.40985 -.48591 .86532 -416.51 -119.43)" d="m973.14 939.46 55.995 20.742c1.8637 8.8035 2.722 15.227 3.3542 24.817l-60.831-23.675c2.8957-5.7263 1.7868-13.421 1.4825-21.885z" fill="#ececec" fill-opacity=".4178" filter="url(#n)"/>
  <path transform="matrix(.88447 -.19645 -.08326 .50296 -467.08 -14.132)" d="m1036.5 964.37c-0.1037 5.1395 0.9686 15.695 0.2493 21.469l-60.171-8.4699c0.61239-6.8694 1.3913-17.987 1.56-17.802 0 0 49.351 4.7757 58.362 4.8026z" fill="#ececec" fill-opacity=".4267" filter="url(#o)"/>
  <g transform="matrix(.85106 0 0 .85106 405.2 -242.2)">
   <path d="m-131.9 484.97c-0.743-0.0121-1.5053-1e-3 -2.25 0.0312-5.1962 0.0802-10.292 1.2995-15.219 3.4688 0.32993 24.719 4.737 49.888 0.5625 74.188-3.2637 5.9981-10.989 2.1366-16.094 1.4688-10.098-2.523-19.739-6.6722-29.875-9.2812-2.3097 9.733-3.6667 20-3.875 30.469 14.271 6.6001 31.038 8.8665 42.281 20.406 4.6498 9.0244-1.2887 19.332-3.125 28.438-4.0023 12.375-8.6383 24.601-12.938 36.938 5.7995 7.2352 12.3 12.989 19.25 16.719 8.1266-18.987 12.956-39.701 24.781-56.562 4.2649-0.0515 5.8028 5.9142 8.6562 8.375 8.3653 11.742 14.576 24.693 21.969 37.031 3.8783 1.0484 7.09 2.3277 13.916-1.1245-8.8765-17.523-18.498-55.242-21.697-74.719 1.1335-11.335 12.926-17.298 20.688-23.906 5.3877-3.9064 10.845-7.7158 16.156-11.719-0.07647-10.845 16.294-26.491-7.5625-29.75-13.46 7.7921-25.076 19.489-40.406 23.094-4.507-1.9726-3.8724-8.789-5.1562-13-3.147-19.855-3.2996-40.118-5.25-60.156-1.6016-0.23041-3.1979-0.38008-4.8125-0.40625z" fill="url(#f)"/>
   <path transform="translate(-47.241 13.12)" d="m-73.844 473.88c-0.743-0.0121-1.5053-1e-3 -2.25 0.0312-3.7786 0.0583-7.5067 0.7209-11.156 1.9062 0.58513 28.83 5.4181 70.189-1.1562 79.594-6.4607 9.2417-31.512-3.2779-49.188-7.7188-1.4854 7.1468-2.4592 14.56-2.8438 22.094 17.377 8.065 43.723 13.489 47.312 26.406 3.2997 11.874-9.9084 42.611-18.25 67.375 3.9766 4.4245 8.2422 8.1611 12.719 11.062 3.4712-8.5834 7.0514-18.413 10.597-27.543 6.3073-16.244 12.504-30.276 17.778-31.145 7.8634-1.2951 21.552 26.427 33.5 46.625 4.029-4.3644 7.7649-9.4072 11.094-15-11.237-21.795-27.43-47.433-25.719-60.156 1.7224-12.807 24.094-25.465 40-37.781-1.3227-7.3876-3.1666-14.558-5.4375-21.312-16.779 10.138-38.442 28.44-45.781 21.656-7.4287-6.8665-7.7697-47.904-10.5-76.062-0.2389-8e-3 -0.47963-0.0274-0.71875-0.0312z" fill="#808080" filter="url(#k)"/>
   <path d="m-128.61 493.25c-4.1445-0.72069-0.51663 5.412-1.6007 7.6242 0.70868 22.802 4.9053 46.319-1.0243 68.688-4.5543 9.268-16.531 9.7207-25.194 6.811-8.7389-1.9613-17.075-5.3788-25.65-7.936-0.0695 4.0553-4.0172 11.22 2.0938 12.188 14.72 5.9358 32.978 9.395 41.938 23.75 5.7165 12.753-1.2631 26.49-4.4335 38.92-3.3678 10.783-8.2939 21.381-10.942 32.111 3.0316 5.659 4.1061-0.0277 5.3805-3.4285 6.467-16.303 10.749-34.663 23.463-47.353 7.6602-4.4955 16.119 2.0405 19.844 8.625 7.6871 9.9165 13.281 21.207 19.531 32.062 2.6938-2.359 4.5613-6.1941 1.3273-8.9223-8.8699-17.881-22.215-35.145-22.734-55.796 2.3769-15.959 18.212-24.294 29.685-33.367 2.3986-3.3078 10.567-4.4307 9.1586-9.195-1.0105-2.3364-0.46371-9.9193-4.207-5.8828-11.713 7.637-23.665 18.685-38.48 18.195-10.795-3.2132-11.794-16.444-13.144-25.802-2.463-16.96-2.7174-34.23-4.2623-51.323l-0.75 0.0312z" fill="#e6e6e6" fill-opacity=".6763" filter="url(#l)"/>
   <path transform="matrix(.84623 0 0 .84623 -488.89 50.011)" d="m451.43 645.93a13.571 25 0 1 1 -27.143 0 13.571 25 0 1 1 27.143 0z" fill="#808080" filter="url(#p)" stroke="url(#e)" stroke-width="4"/>
   <path transform="matrix(.3225 -.22158 .10409 .6865 68.268 279.59)" d="m-652.05 265.45-20.108-0.52806-9.5964-17.678 10.511-17.15 20.108 0.52806 9.5964 17.678z" fill="#666" stroke="url(#d)" stroke-width="6.0675"/>
  </g>
  <path d="m318.94 97.824c-57.076 0-103.35 72.948-103.35 162.92s46.274 162.92 103.35 162.92 103.35-72.948 103.35-162.92-46.274-162.92-103.35-162.92zm0.57361 74.414c9.4858 0.15376 18.774 4.534 26.943 11.968 21.983 17.787 32.738 61.2 26.808 98.483-5.592 39.85-31.329 68.012-56.821 66.303-27.24-0.50831-51.022-38.569-53.48-80.637-3.4124-48.656 23.791-95.613 54.644-96.089 0.63378-0.0277 1.274-0.0369 1.9064-0.0266z" fill="url(#a)"/>
  <path transform="matrix(.85106 0 0 .85106 122.72 41.265)" d="m231.22 153.88c-0.743-0.0121-1.4741-1e-3 -2.2188 0.0312-36.253 0.55928-68.228 55.735-64.219 112.91 2.888 49.431 30.836 94.153 62.844 94.75 29.953 2.0086 60.179-31.083 66.75-77.906 6.9678-43.808-5.6693-94.819-31.5-115.72-9.5985-8.735-20.51-13.882-31.656-14.062z" fill="none" filter="url(#m)" stroke="url(#c)" stroke-linecap="round" stroke-width="10"/>
  <path transform="matrix(4.6808 0 0 1.5648 2694.5 -497.62)" d="m-510.38 487.56a0.50508 3.9143 0 1 1 -1.0102 0 0.50508 3.9143 0 1 1 1.0102 0z" fill="#333"/>
 </g>
</svg>
