<svg version="1.1" id="Layer_1" xmlns="http://www.w3.org/2000/svg" xmlns:xlink="http://www.w3.org/1999/xlink" x="0px" y="0px" width="99px" height="99px" viewBox="0 0 99 99" enable-background="0 0 99 99" xml:space="preserve"><desc>Copyright Opto 22</desc> <desc>Created with Snap</desc><defs/><g xmlns="http://www.w3.org/2000/svg">
<g id="shape">
	<polygon fill="#F8D27C" points="50.137,24.613 60.533,0.706 60.305,26.775 79.526,9.162 68.716,32.885 93.438,24.613 
		73.913,41.888 99.863,44.387 75,52.226 97.69,65.064 71.788,62.113 87.294,83.07 64.832,69.839 70.474,95.29 55.335,74.067 
		50.137,99.613 44.939,74.067 29.8,95.29 35.442,69.839 12.98,83.07 28.486,62.113 2.584,65.064 25.274,52.226 0.411,44.387 
		26.361,41.888 6.836,24.613 31.558,32.885 20.748,9.162 39.969,26.775 39.741,0.706 	"></polygon>
</g>
<g id="hlight">
	<path fill="#FFFFFF" d="M66.458,49.811c0-8.2-6.647-14.847-14.847-14.847c-4.702,0-8.885,2.192-11.606,5.602
		c2.537-2.024,5.747-3.241,9.245-3.241c8.2,0,14.847,6.647,14.847,14.847c0,3.498-1.217,6.707-3.241,9.245
		C64.266,58.696,66.458,54.512,66.458,49.811z"></path>
	<path fill="#FFFFFF" d="M33.308,49.249c0-4.444,1.547-8.522,4.118-11.746c-4.333,3.456-7.118,8.772-7.118,14.746
		c0,10.418,8.446,18.864,18.864,18.864c5.974,0,11.289-2.785,14.746-7.118c-3.224,2.571-7.301,4.118-11.746,4.118
		C41.754,68.113,33.308,59.667,33.308,49.249z"></path>
	<path fill="#FFFFFF" d="M69.918,50.867c0,4.444-1.547,8.522-4.118,11.746c4.333-3.456,7.118-8.772,7.118-14.746
		c0-10.418-8.446-18.864-18.864-18.864c-5.974,0-11.289,2.785-14.746,7.118c3.224-2.571,7.301-4.118,11.746-4.118
		C61.473,32.003,69.918,40.449,69.918,50.867z"></path>
</g>
</g></svg>