<svg version="1.1" id="Layer_1" xmlns="http://www.w3.org/2000/svg" xmlns:xlink="http://www.w3.org/1999/xlink" x="0px" y="4px" width="98px" height="87px" viewBox="0 4 98 87" enable-background="0 4 98 87" xml:space="preserve"><desc>Copyright Opto 22</desc> <desc>Created with Snap</desc><defs/><g xmlns="http://www.w3.org/2000/svg">
<g id="shadow">
	<path fill="#1A1A1A" d="M62.1,72.5c-0.9-0.3-3.4-0.7-4.3-0.9c-2.8-0.8-6.1,2.2-7.3,6.8S50.3,87.2,53,88c0.9,0.3,3.4,0.7,4.3,0.9
		c2.8,0.8,6.1-2.2,7.3-6.8S64.8,73.3,62.1,72.5z M62.6,81.5c-0.7,2.6-2.6,4.3-4.2,3.9c-1.6-0.5-2.3-2.9-1.5-5.5
		c0.7-2.6,2.6-4.3,4.2-3.9C62.6,76.4,63.3,78.9,62.6,81.5z"></path>
	
		<ellipse transform="matrix(0.9615 0.2748 -0.2748 0.9615 24.3611 -13.0287)" fill="#1A1A1A" cx="58.7" cy="80.4" rx="1.9" ry="3.1"></ellipse>
	<path fill="#1A1A1A" d="M93.1,39.7c-0.6-0.1-2.3-0.2-3-0.3c-1.9-0.3-3.9,2-4.4,5.1c-0.5,3.1,0.6,6,2.5,6.3c0.6,0.1,2.3,0.2,3,0.3
		c1.9,0.3,3.9-2,4.4-5.1C96.2,42.8,95,40,93.1,39.7z M94.1,45.7c-0.3,1.8-1.4,3.1-2.5,2.9c-1.1-0.2-1.7-1.8-1.4-3.5
		c0.3-1.8,1.4-3.1,2.5-2.9C93.8,42.4,94.4,44,94.1,45.7z"></path>
	
		<ellipse transform="matrix(0.9867 0.1627 -0.1627 0.9867 8.5824 -14.2614)" fill="#1A1A1A" cx="91.4" cy="45.3" rx="1.2" ry="1.9"></ellipse>
	<path fill="#1A1A1A" d="M66.5,72.9l-2,2.2c0,0-0.2-3.9-5.8-3.9C58.7,71.2,62.3,67.5,66.5,72.9z"></path>
</g>
<g id="shape">
	<path fill="#CCCCCC" d="M95.7,8.9c0,0-3.2-1.3-15.1-3.2C69.9,4,61.4,4.9,61.4,4.9C30.5,15.5,19.7,28.4,19.7,28.4l-9.1,18.7l-8,8.3
		c0,0-1.6,2.9-1.6,10.9C1,74.3,0.7,77,2.6,78c3,1.6,27.7,10.7,34.1,11.7c6.4,1.1,11.2,3.7,17.6-3.2l1.4-1.5
		c-0.4-1.3-0.6-2.8-0.6-4.4c0-6,3-10.9,6.7-10.9c1.8,0,3.5,1.2,4.7,3.2L89,47.7c-0.3-0.9-0.5-1.9-0.5-3c0-3.4,1.7-6.2,3.8-6.2
		c1.1,0,2.1,0.8,2.8,2.1l2.4-3.2C100.2,20.6,95.7,8.9,95.7,8.9z M25.9,32.8l-0.1,4.2l-8.5,5.7l0.4-5.7l0.1-1.4l2.4-4.9
		c0,0,2.1,0.7,5.7,1.7L25.9,32.8z"></path>
</g>
<g id="dark">
	<path fill="#333333" d="M41.5,50.3c0-1,0.4-1.9,1.2-2.6c0.4-0.3,0.8-0.5,1.3-0.7c0,0,1.7-3,5.4-3c1.5-0.9,0.5-2.7,0.8-4.1
		c0.5-1.9,1.7-2.2,1.7-2.2l3.9,0.4c-12.3-1.4-23.4-4.1-29.8-5.9l-0.1,4.7l-8.5,5.7l0.2-6.7l-4.4,8.8l7.7,0.3c0,0,3.2,1.4,12.8,3.6
		C36.4,49.3,39.1,49.8,41.5,50.3C41.5,50.3,41.5,50.3,41.5,50.3z"></path>
	<path fill="#333333" d="M50,47.9c-2.4-1.7-4.6-1.3-5.5-1.1c0.6-0.2,1.4-0.2,2.1-0.1c2.7,0.4,4.9,2.6,4.9,4.9c0,0.2-0.1,0.3-0.3,0.4
		c0.6,0.1,1.1,0.2,1.4,0.2C52.5,51.6,51.3,48.8,50,47.9z"></path>
	<path fill="#333333" d="M44.3,46.9C44.1,46.9,44,47,44,47C44.1,47,44.2,46.9,44.3,46.9z"></path>
	<path fill="#333333" d="M46.4,49.6c1.1,0.2,2.1,1.1,2.1,2c0.8,0.1,1.5,0.3,2.1,0.4c-0.1-0.1-0.1-0.2-0.1-0.3c0-1.8-1.8-3.6-4-3.9
		c-1.2-0.2-2.3,0.1-3,0.7c-0.5,0.5-0.8,1.1-0.8,1.8c0,0.1,0,0.2-0.1,0.2c0.6,0.1,1.3,0.2,1.9,0.4C44.4,50,45.3,49.4,46.4,49.6z"></path>
	<path fill="#333333" d="M59.1,38.9l0,7.2l1.4,0.2c0.3,0,0.5,0.3,0.5,0.6l3.2,1.7L64.2,49l4.4-3.6l-0.5-12L59.1,38.9z"></path>
	<path fill="#333333" d="M50.6,57.2c-21.4-0.9-37.7-9.2-37.9-9.3l0.5-0.9c0.2,0.1,16.3,8.3,37.5,9.2L50.6,57.2z"></path>
	<path fill="#333333" d="M70.9,61.8h-0.5c0-20-1.2-29-1.2-29.1l0.5-0.1C69.7,32.7,70.9,41.8,70.9,61.8z"></path>
	<path fill="#333333" d="M66.6,69.4c0,0-2.9-2.5-6.2-1.6l-0.1-0.5c3.5-0.9,6.5,1.6,6.6,1.7L66.6,69.4z"></path>
	
		<rect x="82.1" y="8" transform="matrix(0.6214 0.7835 -0.7835 0.6214 48.0878 -56.3816)" fill="#333333" width="0.5" height="27.2"></rect>
	<path fill="#333333" d="M42.1,67.7l-0.1,0c-0.2,0-19.2-1.5-36.7-10.6l0.2-0.4c16.7,8.7,34.7,10.4,36.4,10.6l5.1-5.9l0.4,0.3
		L42.1,67.7z"></path>
	
		<rect x="53.6" y="37.9" transform="matrix(0.9766 0.2149 -0.2149 0.9766 11.3458 -10.4637)" fill="#333333" width="0.5" height="18.1"></rect>
</g>
<g id="light">
	<path fill="#E6E6E6" d="M20.9,45.1l-7.7-0.4l-0.6,1.1c14.4,8.2,39.2,10,39.2,10l0.7-3.4c-2.2-0.3-10-1.5-18.9-3.7
		C24.1,46.3,20.9,45.1,20.9,45.1z"></path>
	<path fill="#E6E6E6" d="M15.6,36l-2.9-0.5c-0.3-0.1-0.7,0.2-0.7,0.5v7.8l3.8-7.7C15.7,36.1,15.7,36.1,15.6,36z"></path>
	<path fill="#E6E6E6" d="M60.4,56.4l-3.2-0.5c-0.3,0-0.5-0.3-0.5-0.6v-8.9c0-0.4,0.3-0.6,0.7-0.6l3.2,0.5c0.3,0,0.5,0.3,0.5,0.6v8.9
		C61,56.2,60.7,56.5,60.4,56.4z"></path>
	<path fill="#E6E6E6" d="M61.1,76c-1.6-0.5-3.5,1.3-4.2,3.9c-0.7,2.6-0.1,5.1,1.5,5.5c1.6,0.5,3.5-1.3,4.2-3.9
		C63.3,78.9,62.6,76.4,61.1,76z M60.5,80.9c-0.5,1.7-1.7,2.8-2.7,2.5c-1-0.3-1.4-1.9-1-3.5c0.5-1.7,1.7-2.8,2.7-2.5
		C60.5,77.7,61,79.3,60.5,80.9z"></path>
	<path fill="#E6E6E6" d="M92.7,42.2c-1.1-0.2-2.2,1.1-2.5,2.9c0.2-1.1,0.8-1.8,1.5-1.7s1,1.1,0.9,2.1c-0.2,1.1-0.8,1.8-1.5,1.7
		s-1-1.1-0.9-2.1c-0.3,1.8,0.3,3.4,1.4,3.5c1.1,0.2,2.2-1.1,2.5-2.9S93.8,42.4,92.7,42.2z"></path>
</g>
<g id="hlight">
	<path fill="#FFFFFF" d="M3.2,58.8c0,0,1.7,0.9,2.5,2.1c0.5,0.8,0.5,1.8,0.5,3.6c0,5.5-4.2,1.4-4.3-0.6C1.7,60.7,2.1,58.5,3.2,58.8z
		"></path>
	<path fill="#FFFFFF" d="M39.1,72.3c0.4-1.3,5.4-3.2,5.7,1.4c0.4,4.6-2.5,5.2-5,5.5S38.7,73.4,39.1,72.3z"></path>
	<g>
		<path fill="#FFFFFF" d="M21.6,67.9c-9.1-2.7-12.1-4.3-12.1-4.3c-1-0.5-1.7-0.1-1.7,1V72c0,1.1,0.8,2.4,1.8,2.9l3.5,1.8
			c1,0.5,2.6,1.2,3.7,1.5l7.5,2.3c1.1,0.3,2.8,0.7,3.9,0.9l5.3,0.8c1.1,0.2,2-0.6,2-1.7l0.3-7.8c0-1.1-0.8-2-1.9-2.1
			C33.8,70.7,30.7,70.6,21.6,67.9z M19.9,76.8c0,0.3-0.9,0.3-1.9,0l-6.9-2.4c-1-0.4-1.9-0.9-1.9-1.3s0.9-0.3,1.9,0l6.9,2.4
			C19.1,75.9,19.9,76.5,19.9,76.8z M20.2,74.7c0,0.3-0.9,0.3-1.9,0l-6.9-2.4c-1-0.4-1.9-0.9-1.9-1.3s0.9-0.3,1.9,0l6.9,2.4
			C19.3,73.8,20.2,74.3,20.2,74.7z M20.2,72.1c0,0.3-0.9,0.3-1.9,0l-6.9-2.4c-1-0.4-1.9-0.9-1.9-1.3s0.9-0.3,1.9,0l6.9,2.4
			C19.3,71.2,20.2,71.8,20.2,72.1z M20.2,69.8c0,0.3-0.9,0.3-1.9,0l-6.9-2.4c-1-0.4-1.9-0.9-1.9-1.3s0.9-0.3,1.9,0l6.9,2.4
			C19.3,68.9,20.2,69.5,20.2,69.8z M32.9,80.3c0,0.3-0.9,0.4-1.9,0.1l-7.9-1.9c-1.1-0.3-1.9-0.7-1.9-1.1s0.9-0.4,1.9-0.1l7.9,1.9
			C32.1,79.4,32.9,79.9,32.9,80.3z M33.2,78c0,0.3-0.9,0.4-1.9,0.1l-7.9-1.9c-1.1-0.3-1.9-0.7-1.9-1.1s0.9-0.4,1.9-0.1l7.9,1.9
			C32.3,77.1,33.2,77.6,33.2,78z M33.2,75.4c0,0.3-0.9,0.4-1.9,0.1l-7.9-1.9c-1.1-0.3-1.9-0.7-1.9-1.1s0.9-0.4,1.9-0.1l7.9,1.9
			C32.3,74.6,33.2,75.1,33.2,75.4z M33.2,73.1c0,0.3-0.9,0.4-1.9,0.1l-7.9-1.9c-1.1-0.3-1.9-0.7-1.9-1.1s0.9-0.4,1.9-0.1l7.9,1.9
			C32.3,72.3,33.2,72.8,33.2,73.1z"></path>
	</g>
	<path fill="#FFFFFF" d="M1,69.9c0,4.7,0.1,6.5,1.6,7.4c3,1.6,27.7,10.7,34.1,11.7c6.4,1.1,11.2,3.7,17.6-3.2l-1.1-1.6
		c0,0-2.1-1.6-5.3-0.5c-4.9,1.6-4.5,2.5-11.4,0.5c-2.9-0.8-5.9-0.7-15.5-3.4c-9.2-2.6-9.8-4-13.6-6.1c-3.1-1.7-5.3-2.1-5.3-2.1
		L1,68.8L1,69.9z"></path>
	<path fill="#FFFFFF" d="M55.7,38.4c-19-2.2-35.4-7.5-35.6-7.6l0.2-0.5c0.2,0.1,16.5,5.3,35.5,7.5L55.7,38.4z"></path>
</g>
</g></svg>