<svg version="1.1" id="Layer_1" xmlns="http://www.w3.org/2000/svg" xmlns:xlink="http://www.w3.org/1999/xlink" x="1px" y="19px" width="100px" height="60px" viewBox="1 19 100 60" enable-background="1 19 100 60" xml:space="preserve"><desc>Copyright Opto 22</desc> <desc>Created with Snap</desc><defs/><g xmlns="http://www.w3.org/2000/svg">
<g id="shape">
	<path fill="#CCCCCC" d="M98.965,50.113c-1.918-2.157-1.918-2.637-1.918-2.637v-6.233l-1.678-5.514l-1.558-0.08
		c0,0-4.435-9.269-6.353-12.625c1.4-0.921,1.878-2.158,1.878-2.158S70.425,18.8,57.733,19.469
		c-11.022,0.58-16.061,3.556-16.061,3.556L17.7,41.243l-3.596,0.24c0,0-8.39,5.753-9.829,8.39c-1.438,2.637-0.959,1.918-0.959,1.918
		l-0.24,4.555c0,0-1.918,2.637-1.918,5.034s-0.24,5.034,0,6.472c0.24,1.438,1.438,3.596,1.438,3.596l1.199-0.479
		c0,0-1.438-15.342,11.986-15.342s13.664,15.822,13.664,15.822l44.348-0.959c0,0-0.24-15.821,13.904-15.821
		c11.027,0,11.626,12.585,11.626,12.585s1.318-0.839,1.638-2.197C101.258,63.799,100.883,52.27,98.965,50.113z M64.685,35.49
		c-3.116,1.199-29.486,4.075-29.486,4.075s-0.24-3.196-1.918-5.354c1.678-2.397,8.89-8.006,14.263-9.749
		c4.435-1.438,13.304-1.598,17.14-1.558C64.685,22.904,64.685,32.613,64.685,35.49z M68.041,35.729
		c-1.199,0.479-1.199,0.479-1.199,0.479s0.479-8.031-0.24-13.065c2.157,0,4.075-0.12,5.753,2.277
		c1.678,2.397,2.397,7.431,2.397,7.431S69.24,33.812,68.041,35.729z"></path>
	<circle fill="#CCCCCC" cx="15.886" cy="67.799" r="11.227"></circle>
	<circle fill="#CCCCCC" cx="87.083" cy="67" r="11.227"></circle>
</g>
<g id="dark">
	<path d="M29.426,68.571l29.746-2.157c0,0,2.397-0.719,4.794-1.678c2.397-0.959,3.356-2.637,3.356-2.637l16.581-21.815
		c0,0,1.159-2.397,2.597-2.877c0.375-0.125,1.157-0.299,2.108-0.488c0,0-7.382-14.375-10.019-16.533l-0.295-0.47
		c-6.314-0.433-14.215-0.783-20.561-0.449c-11.022,0.58-16.061,3.556-16.061,3.556L17.7,41.243l6.472-1.199
		c0,0,16.447-14.112,22.294-16.061c6.472-2.157,24.212-3.116,26.609,0s4.075,11.746,3.596,15.102
		c-0.479,3.356-10.548,19.178-15.102,22.054c-4.555,2.877-32.612,5.514-32.612,5.514L29.426,68.571z"></path>
	<path d="M84.941,42.681c0,0,2.165-0.973,2.357-0.24c0.23,0.876-2.179,3.739-3.836,4.834c-1.844,1.219-3.875,2.357-3.875,2.357
		L84.941,42.681z"></path>
</g>
<g id="light">
	<circle fill="#B3B3B3" cx="15.886" cy="67.799" r="6.473"></circle>
	<circle fill="#B3B3B3" cx="87.083" cy="67" r="6.473"></circle>
	<path fill="#F2F2F2" d="M33.282,34.211c0,0-4.486,1.662-3.596,4.155c1.199,3.356,5.673,1.318,5.673,1.318l-0.16-0.12
		C35.199,39.565,34.96,36.369,33.282,34.211z"></path>
	<path fill="#B3B3B3" d="M76.072,40.003c0,0-7.565-0.213-7.778-2.957c-0.209-2.691,7.778-3.649,7.778-3.649"></path>
</g>
<g id="shadow">
	<path fill="#000000" d="M88.725,72.478c0,0.4-0.692,0.543-1.545,0.543s-1.545-0.143-1.545-0.543c0-0.4,0.692-0.724,1.545-0.724
		S88.725,72.078,88.725,72.478z"></path>
	<path d="M92.228,69.618c0.292,0.273-0.076,0.876-0.659,1.499s-1.16,1.03-1.452,0.757c-0.292-0.273-0.056-1,0.527-1.623
		C91.227,69.628,91.936,69.345,92.228,69.618z"></path>
	<path d="M92.229,64.404c0.392-0.08,0.67,0.569,0.841,1.405c0.17,0.836,0.168,1.542-0.224,1.622s-0.848-0.533-1.018-1.369
		C91.658,65.226,91.837,64.484,92.229,64.404z"></path>
	<path d="M88.296,61.439c0.182-0.356,0.863-0.168,1.623,0.22c0.76,0.389,1.31,0.831,1.128,1.187
		c-0.182,0.356-0.946,0.329-1.705-0.059C88.582,62.399,88.114,61.795,88.296,61.439z"></path>
	<path d="M83.59,62.606c-0.159-0.367,0.419-0.773,1.202-1.112s1.475-0.482,1.634-0.115c0.159,0.367-0.347,0.939-1.13,1.278
		S83.749,62.973,83.59,62.606z"></path>
	<path d="M81.499,66.936c-0.383-0.114-0.324-0.818-0.081-1.636c0.243-0.818,0.577-1.44,0.96-1.327s0.498,0.869,0.255,1.687
		C82.39,66.479,81.882,67.05,81.499,66.936z"></path>
	<path d="M83.627,71.444c-0.326,0.232-0.844-0.247-1.34-0.942c-0.496-0.694-0.781-1.341-0.455-1.573
		c0.326-0.232,0.991,0.142,1.487,0.837C83.815,70.46,83.953,71.212,83.627,71.444z"></path>
	<path d="M17.528,73.277c0,0.4-0.692,0.543-1.545,0.543s-1.545-0.143-1.545-0.543c0-0.4,0.692-0.724,1.545-0.724
		S17.528,72.877,17.528,73.277z"></path>
	<path d="M21.031,70.417c0.292,0.273-0.076,0.876-0.659,1.499c-0.583,0.623-1.16,1.03-1.452,0.757c-0.292-0.273-0.056-1,0.527-1.623
		C20.03,70.428,20.739,70.144,21.031,70.417z"></path>
	<path d="M21.032,65.203c0.392-0.08,0.67,0.569,0.841,1.405c0.17,0.836,0.168,1.542-0.224,1.622
		c-0.392,0.08-0.848-0.533-1.018-1.369C20.461,66.025,20.64,65.283,21.032,65.203z"></path>
	<path d="M17.099,62.238c0.182-0.356,0.863-0.168,1.623,0.22c0.76,0.389,1.31,0.831,1.128,1.187
		c-0.182,0.356-0.946,0.33-1.705-0.059C17.385,63.198,16.917,62.594,17.099,62.238z"></path>
	<path d="M12.393,63.405c-0.159-0.367,0.419-0.773,1.202-1.112c0.783-0.339,1.475-0.482,1.634-0.115
		c0.159,0.367-0.347,0.939-1.13,1.278C13.316,63.795,12.552,63.772,12.393,63.405z"></path>
	<path d="M10.302,67.735c-0.383-0.114-0.324-0.818-0.081-1.636c0.243-0.818,0.577-1.44,0.96-1.327
		c0.383,0.114,0.498,0.869,0.255,1.687C11.193,67.278,10.685,67.849,10.302,67.735z"></path>
	<path d="M12.43,72.243c-0.326,0.232-0.844-0.247-1.34-0.942c-0.496-0.694-0.781-1.341-0.455-1.573
		c0.326-0.232,0.991,0.142,1.487,0.837C12.618,71.259,12.756,72.011,12.43,72.243z"></path>
	<path d="M31.954,65.774c-1.149-1.851-2.685-4.939-3.473-9.144c-1.273-6.788-0.955-11.165-0.482-15.416l0.497,0.056
		c-0.468,4.211-0.784,8.548,0.477,15.268c0.774,4.127,2.279,7.157,3.406,8.972L31.954,65.774z"></path>
</g>
<g id="hlight">
	<circle fill="#F2F2F2" cx="15.886" cy="67.799" r="4.195"></circle>
	<circle fill="#F2F2F2" cx="87.083" cy="67" r="4.195"></circle>
	<path fill="#F2F2F2" d="M12.666,45.318c0,0-4.954,5.354-7.112,5.593c-1.735,0.193,0.04-2.237,2.197-3.676
		C9.909,45.798,11.467,45.079,12.666,45.318z"></path>
	<path fill="#F2F2F2" d="M95.369,35.73l-1.558-0.08c0,0-4.435-9.269-6.353-12.625l0.309-0.33c0,0,5.724,7.362,7.402,12.875"></path>
	<path fill="#F2F2F2" d="M69.147,37.233c0.101,1.609,5.327,1.052,6.393,0.093c1.065-0.959,0.746-2.65-0.959-2.757
		C72.876,34.463,69.04,35.528,69.147,37.233z"></path>
</g>
<g id="other">
	<path fill="#ED1C24" d="M90.883,39.79c0,0.852,3.729,2.024,4.582,1.811c0.852-0.213,0.599-3.309-0.173-3.916
		C93.799,36.514,90.883,38.725,90.883,39.79z"></path>
	<path fill="#ED1C24" d="M91.069,45.304c0,1.751,4.395,2.122,4.821,2.051c0.639-0.107,1.279-3.942,0.213-4.795
		C95.038,41.708,91.069,43.599,91.069,45.304z"></path>
	<path d="M18.803,67.799c0-0.471-0.114-0.914-0.312-1.308c0.073-0.11,0.116-0.242,0.116-0.383c0-0.382-0.31-0.693-0.693-0.693
		c-0.098,0-0.19,0.021-0.275,0.057c-0.488-0.369-1.094-0.59-1.753-0.59c-1.049,0-1.965,0.555-2.479,1.386
		c-0.003,0-0.005-0.001-0.008-0.001c-0.382,0-0.693,0.31-0.693,0.693c0,0.226,0.11,0.425,0.277,0.551
		c-0.009,0.095-0.015,0.191-0.015,0.288c0,1.611,1.306,2.917,2.917,2.917c0.009,0,0.018-0.001,0.027-0.001
		c0.124,0.185,0.336,0.308,0.576,0.308c0.354,0,0.642-0.266,0.684-0.609C18.138,69.938,18.803,68.947,18.803,67.799z"></path>
	<path d="M90,67c0-0.471-0.114-0.914-0.312-1.308c0.073-0.11,0.116-0.242,0.116-0.383c0-0.382-0.31-0.693-0.693-0.693
		c-0.098,0-0.19,0.021-0.275,0.057c-0.488-0.369-1.094-0.59-1.753-0.59c-1.049,0-1.965,0.555-2.479,1.386
		c-0.003,0-0.005-0.001-0.008-0.001c-0.382,0-0.693,0.31-0.693,0.693c0,0.226,0.11,0.425,0.277,0.551
		c-0.009,0.095-0.015,0.191-0.015,0.288c0,1.611,1.306,2.917,2.917,2.917c0.009,0,0.018-0.001,0.027-0.001
		c0.124,0.185,0.336,0.308,0.576,0.308c0.354,0,0.642-0.266,0.684-0.609C89.335,69.139,90,68.148,90,67z"></path>
	<path d="M98.311,67c0,6.201-5.027,11.227-11.227,11.227c-6.201,0-11.227-5.027-11.227-11.227s5.027-11.227,11.227-11.227
		C93.284,55.773,98.311,60.799,98.311,67z M87.083,58.609c-4.634,0-8.391,3.757-8.391,8.391s3.757,8.391,8.391,8.391
		c4.634,0,8.391-3.757,8.391-8.391S91.717,58.609,87.083,58.609z"></path>
	<path d="M27.114,67.799c0,6.201-5.027,11.227-11.227,11.227S4.659,74,4.659,67.799s5.027-11.227,11.227-11.227
		S27.114,61.598,27.114,67.799z M15.886,59.408c-4.634,0-8.391,3.757-8.391,8.391c0,4.634,3.757,8.391,8.391,8.391
		s8.391-3.757,8.391-8.391C24.277,63.165,20.52,59.408,15.886,59.408z"></path>
</g>
</g></svg>