<?xml version="1.0" encoding="utf-8"?>
<!-- Generator: Adobe Illustrator 21.0.2, SVG Export Plug-In . SVG Version: 6.00 Build 0)  -->
<svg version="1.1" id="Layer_1" xmlns="http://www.w3.org/2000/svg" xmlns:xlink="http://www.w3.org/1999/xlink" x="0px" y="0px"
	 viewBox="0 0 114 102" style="enable-background:new 0 0 114 102;" xml:space="preserve">
<style type="text/css">
	.st0{fill:none;}
	.st1{opacity:0.2;fill:url(#SVGID_1_);}
	.st2{fill:#91918B;}
	.st3{fill:#BABAB4;}
	.st4{fill:#A6A69F;}
	.st5{fill:#E58F70;}
	.st6{fill:#DD7C5E;}
	.st7{fill:#DD6F47;}
	.st8{fill:#CE6746;}
	.st9{fill:#7C7D77;}
</style>
<g>
	<g>
		<g>
			<g>
				<g>
					<g>
						<g>
							<g>
								<g>
									<polygon class="st0" points="40.7,51.8 40.7,51.8 40.7,51.8 40.7,51.8 40.7,51.8 40.7,51.8 40.7,51.8 40.7,51.8 40.7,51.8 
										40.7,51.8 									"/>
								</g>
							</g>
						</g>
					</g>
				</g>
			</g>
			<g>
				<polygon class="st0" points="40.8,51.8 40.8,51.8 40.8,51.8 40.8,51.8 40.8,51.8 40.8,51.9 40.8,51.9 40.8,51.9 40.8,51.9 
					40.8,51.9 				"/>
			</g>
		</g>
	</g>
	<linearGradient id="SVGID_1_" gradientUnits="userSpaceOnUse" x1="80.5807" y1="103.0529" x2="75.0384" y2="51.0409">
		<stop  offset="0" style="stop-color:#000000;stop-opacity:0"/>
		<stop  offset="1" style="stop-color:#000000"/>
	</linearGradient>
	<polygon class="st1" points="47.9,64.2 106,98.5 108.4,97.1 51.2,62.9 	"/>
	<g>
		<g>
			<path class="st2" d="M49.7,53.1c-0.7,0.7-0.7,0.7-1.4,1.4c-1.6,1.6-1.6,4.1,0,5.7c0.2,0.2,0.4,0.3,0.5,0.4
				c-1.1-1.6-0.9-3.7,0.5-5.1c0.7-0.7,0.7-0.7,1.4-1.4c0.8-0.8,0.8-2,0-2.8c-0.2-0.2-0.4-0.3-0.6-0.4C50.4,51.6,50.3,52.5,49.7,53.1
				z"/>
			<path class="st3" d="M54.9,61.2c1.4-1.4,32.5-32.5,33.2-33.2c0.6-0.6,1.5-0.7,2.2-0.4c-0.1-0.2-0.2-0.4-0.4-0.6
				c-0.8-0.8-2-0.8-2.8,0c-0.7,0.7-31.8,31.8-33.2,33.2c-1.4,1.4-3.5,1.5-5.1,0.4c0.1,0.2,0.3,0.4,0.5,0.6
				C50.8,62.7,53.4,62.7,54.9,61.2z"/>
			<path class="st4" d="M56.8,63c1.4-1.4,32.5-32.5,33.2-33.2c0.6-0.6,0.7-1.5,0.4-2.2c-0.7-0.3-1.6-0.2-2.2,0.4L55.9,60.2
				c-1.2,1.2-2.7,1.9-4.4,1.8c-1.6,0-2.2-0.7-2.7-1.4c-0.7-0.5-1.3-1.1-1.4-2.7c0-1.6,0.6-3.2,1.8-4.4l0.4-0.4
				c0.6-0.6,0.7-1.5,0.4-2.2c-0.7-0.3-1.6-0.2-2.2,0.4c-0.7,0.7,0,0-1.4,1.4c-1.5,1.5-2.3,3.5-2.3,5.5c-0.1,4,3.2,7.3,7.2,7.2
				C53.3,65.3,55.2,64.5,56.8,63z"/>
		</g>
		<g>
			<path class="st5" d="M91.5,21.5c-1.6-1.4-3.7-2.8-5-3.5c-0.9-0.5-2-1-2.9-1.4c-0.5-0.2-1.2-0.5-1.8-0.7c-0.4-0.1-0.8-0.2-1.3-0.4
				c1.1,0.5,5.6,2.9,8.4,12.1l4.4-4.4C92.6,22.5,91.9,21.9,91.5,21.5z"/>
			<path class="st6" d="M100.9,35.4c-0.1-0.4-0.5-1.7-1.3-3.3c-1.9-4.1-4.4-7-6.2-8.8L89,27.7c0,0,0,0,0,0.1
				c9,2.8,11.6,7.1,12.1,8.3C101,35.8,100.9,35.5,100.9,35.4z"/>
		</g>
		<g>
			<g>
				<path class="st0" d="M80.3,15.5c0.1,0,0.2,0.1,0.2,0.1C80.4,15.5,80.3,15.5,80.3,15.5z"/>
				<path class="st7" d="M89,27.7c-2.9-9.2-7.4-11.7-8.5-12.2c-0.1,0-0.2-0.1-0.2-0.1c0,0,0,0,0,0s0,0,0,0c-0.1,0-0.2-0.1-0.2-0.1
					c-0.8-0.2-1.9-0.5-2.7-0.6c-0.6-0.1-1.3-0.2-1.9-0.3c-0.8-0.1-2-0.1-2.9-0.1c-1.2,0-2.8,0.1-4,0.3c-1,0.1-2.3,0.5-3.3,0.7
					c-1.8,0.5-4.4,1.6-6.3,2.7c-3.3,1.9-5,3.6-5.8,4.3L51,37.3C51,37.3,69.6,21.6,89,27.7z"/>
			</g>
			<path class="st8" d="M99,56.9c1-2,2.2-4.4,3-8.7c0.4-2,0.3-4.1,0.3-5c0-1.2-0.2-2.8-0.4-4c-0.1-1-0.5-2.3-0.8-3.2
				c-0.6-1.2-3.1-5.6-12.1-8.3c6.2,19.6-9.6,38.1-9.6,38.1l0,0l0.1,0l14.7-2.3C97,60.7,98.8,57.3,99,56.9z"/>
		</g>
		<g>
			<path class="st5" d="M51,37.3l10.8,17.5l27.1-27.1C69.6,21.7,51,37.3,51,37.3z"/>
			<path class="st6" d="M89,27.7C89,27.7,88.9,27.7,89,27.7L61.8,54.8l17.6,11l0,0C79.4,65.8,95.1,47.3,89,27.7z"/>
		</g>
		<g>
			<path class="st9" d="M87.3,26.6c0.6-0.5,1.2-0.7,1.9-0.5c0.3,0.1,0.5,0.3,0.6,0.8c-0.1-0.4-0.3-0.7-0.6-0.8
				c0.2,0.1,0.5,0.2,0.9,0.5c0.2,0.2,0.3,0.3,0.3,0.4c0,0,0.1,0.2,0.2,0.4c0.1,0.3,0.2,1.2-0.5,1.9c-0.2,0.2-0.6,0.3-1,0.2
				c-0.9-0.2-1.8-1.1-2-2C87,27.2,87.1,26.8,87.3,26.6z"/>
		</g>
	</g>
</g>
</svg>
