<svg xmlns="http://www.w3.org/2000/svg" xmlns:xlink="http://www.w3.org/1999/xlink" viewBox="0 0 77.98 84.54"><defs><style>.cls-1{isolation:isolate;}.cls-2{fill:none;}.cls-3{opacity:0.15;mix-blend-mode:multiply;fill:url(#Degradado_sin_nombre_4);}.cls-4{fill:#93c1cf;}.cls-5{fill:#658cba;}.cls-6{fill:#a6a69f;}.cls-7{fill:#77989e;}.cls-8{fill:#86aeb7;}.cls-9{fill:#dedcd9;}.cls-10{fill:#c9c9c9;}.cls-11{fill:#86a3a9;}</style><linearGradient id="Degradado_sin_nombre_4" x1="59.28" y1="87.17" x2="32.17" y2="41.17" gradientUnits="userSpaceOnUse"><stop offset="0" stop-opacity="0"/><stop offset="0.14" stop-opacity="0.53"/><stop offset="1"/></linearGradient></defs><title>alliance</title><g class="cls-1"><g id="Layer_1" data-name="Layer 1"><polygon class="cls-2" points="10.65 39.97 10.64 39.97 10.64 39.98 10.63 39.97 10.64 39.98 10.64 40.05 10.65 40.05 10.65 40.05 10.65 40.05 10.65 40.04 10.65 39.97"/><polygon class="cls-3" points="34.09 49.71 17.03 59.61 60.9 84.54 77.98 74.76 34.09 49.71"/><polygon class="cls-2" points="10.79 40.04 10.78 40.04 10.78 40.04 10.78 40.04 10.78 40.04 10.78 40.12 10.79 40.12 10.79 40.12 10.8 40.12 10.79 40.11 10.79 40.04"/><g class="cls-1"><polygon class="cls-4" points="5 42.76 5 42.04 5.35 42.25 5 42.76"/><polygon class="cls-5" points="4.99 46.12 21.9 36.29 33.96 43.26 17.05 53.09 4.99 46.12"/><polygon class="cls-6" points="17.05 53.09 33.96 43.26 33.94 49.78 17.03 59.61 17.05 53.09"/><polygon class="cls-4" points="5 39.6 5.02 35.52 8.65 37.62 6.59 40.52 5 39.6"/><polygon class="cls-7" points="17.06 49.01 33.97 39.18 33.96 43.26 17.05 53.09 17.06 49.01"/><polygon class="cls-6" points="17.06 46.56 33.98 36.73 33.97 39.18 17.06 49.01 17.06 46.56"/><polygon class="cls-7" points="17.08 42.48 33.99 32.66 33.98 36.73 17.06 46.56 17.08 42.48"/><polygon class="cls-4" points="11.94 32.99 9.88 35.88 5.02 33.08 5.03 29 11.94 32.99"/><polygon class="cls-6" points="17.08 40.04 34 30.21 33.99 32.66 17.08 42.48 17.08 40.04"/><polygon class="cls-7" points="17.09 35.96 34.01 26.13 34 30.21 17.08 40.04 17.09 35.96"/><polygon class="cls-6" points="17.1 33.52 34.02 23.69 34.01 26.13 17.09 35.96 17.1 33.52"/><polygon class="cls-4" points="5.04 26.56 5.05 22.48 15.24 28.36 13.18 31.25 5.04 26.56"/><polygon class="cls-7" points="17.11 29.44 34.03 19.61 34.02 23.69 17.1 33.52 17.11 29.44"/><polygon class="cls-6" points="17.12 27 34.03 17.17 34.03 19.61 17.11 29.44 17.12 27"/><polygon class="cls-7" points="17.12 25.71 34.04 15.88 34.03 17.17 17.12 27 17.12 25.71"/><polygon class="cls-8" points="5 42.76 4.99 46.12 17.05 53.09 17.06 49.01 5.35 42.25 5 42.76"/><polygon class="cls-8" points="6.59 40.52 17.06 46.56 17.08 42.48 8.65 37.62 6.59 40.52"/><polygon class="cls-8" points="9.88 35.88 17.08 40.04 17.09 35.96 11.94 32.99 9.88 35.88"/><polygon class="cls-8" points="13.18 31.25 17.1 33.52 17.11 29.44 15.24 28.36 13.18 31.25"/><polygon class="cls-8" points="16.47 26.62 17.12 27 17.12 25.71 16.47 26.62"/><polygon class="cls-4" points="5.06 20.03 5.07 15.96 17.13 22.93 17.12 25.71 16.47 26.62 5.06 20.03"/><polygon class="cls-8" points="17.13 22.93 34.05 13.1 34.04 15.88 17.12 25.71 17.13 22.93"/><polygon class="cls-9" points="17.13 22.93 17.14 19.66 0.11 9.83 0 49.78 17.03 59.61 17.05 53.09 4.99 46.12 5 42.76 5 42.04 5.35 42.25 17.06 49.01 17.06 46.56 6.59 40.52 5 39.6 5.02 35.52 8.65 37.62 17.08 42.48 17.08 40.04 9.88 35.88 5.02 33.08 5.03 29 11.94 32.99 17.09 35.96 17.1 33.52 13.18 31.25 5.04 26.56 5.05 22.48 15.24 28.36 17.11 29.44 17.12 27 16.47 26.62 5.06 20.03 5.07 15.96 17.13 22.93"/><polygon class="cls-6" points="17.14 19.66 34.06 9.83 34.05 13.1 17.13 22.93 17.14 19.66"/><polygon class="cls-10" points="0.11 9.83 17.03 0 34.06 9.83 17.14 19.66 0.11 9.83"/></g><g class="cls-1"><polygon class="cls-4" points="24.86 54.22 24.86 53.51 25.22 53.72 24.86 54.22"/><polygon class="cls-6" points="36.91 64.55 53.82 54.72 53.8 61.25 36.89 71.08 36.91 64.55"/><polygon class="cls-4" points="24.87 51.07 24.88 46.99 28.51 49.09 26.45 51.98 24.87 51.07"/><polygon class="cls-7" points="36.92 60.47 53.84 50.65 53.82 54.72 36.91 64.55 36.92 60.47"/><polygon class="cls-8" points="24.86 54.22 25.22 53.72 36.92 60.47 36.91 64.55 24.85 57.59 24.86 54.22"/><polygon class="cls-6" points="36.93 58.03 53.84 48.2 53.84 50.65 36.92 60.47 36.93 58.03"/><polygon class="cls-8" points="26.45 51.98 28.51 49.09 36.94 53.95 36.93 58.03 26.45 51.98"/><polygon class="cls-4" points="31.81 44.46 29.75 47.35 24.89 44.55 24.9 40.47 31.81 44.46"/><polygon class="cls-6" points="36.95 51.51 53.86 41.68 53.85 44.12 36.94 53.95 36.95 51.51"/><polygon class="cls-8" points="29.75 47.35 31.81 44.46 36.96 47.43 36.95 51.51 29.75 47.35"/><polygon class="cls-6" points="36.96 44.99 53.88 35.16 53.87 37.6 36.96 47.43 36.96 44.99"/><polygon class="cls-4" points="24.9 38.02 24.91 33.95 35.1 39.83 33.04 42.72 24.9 38.02"/><polygon class="cls-11" points="36.98 40.91 53.89 31.08 53.88 35.16 36.96 44.99 36.98 40.91"/><polygon class="cls-8" points="33.04 42.72 35.1 39.83 36.98 40.91 36.96 44.99 33.04 42.72"/><polygon class="cls-6" points="36.98 38.47 53.9 28.64 53.89 31.08 36.98 40.91 36.98 38.47"/><polygon class="cls-11" points="36.99 37.18 53.9 27.35 53.9 28.64 36.98 38.47 36.99 37.18"/><polygon class="cls-8" points="36.98 38.47 36.34 38.09 36.99 37.18 36.98 38.47"/><polygon class="cls-4" points="24.92 31.5 24.93 27.43 36.99 34.39 36.99 37.18 36.34 38.09 24.92 31.5"/><polygon class="cls-11" points="36.99 34.39 53.91 24.56 53.9 27.35 36.99 37.18 36.99 34.39"/><polygon class="cls-9" points="36.99 34.39 37 31.13 19.98 21.3 19.86 61.24 36.89 71.08 36.91 64.55 24.85 57.59 24.86 54.22 24.86 53.51 25.22 53.72 36.92 60.47 36.93 58.03 26.45 51.98 24.87 51.07 24.88 46.99 28.51 49.09 36.94 53.95 36.95 51.51 29.75 47.35 24.89 44.55 24.9 40.47 31.81 44.46 36.96 47.43 36.96 44.99 33.04 42.72 24.9 38.02 24.91 33.95 35.1 39.83 36.98 40.91 36.98 38.47 36.34 38.09 24.92 31.5 24.93 27.43 36.99 34.39"/><polygon class="cls-6" points="37 31.13 53.92 21.3 53.91 24.56 36.99 34.39 37 31.13"/><polygon class="cls-10" points="19.98 21.3 36.89 11.47 53.92 21.3 37 31.13 19.98 21.3"/></g><polygon class="cls-7" points="53.84 48.2 53.85 44.12 44.05 49.82 39.11 56.76 53.84 48.2"/><polygon class="cls-11" points="36.93 58.03 39.11 56.76 44.05 49.82 36.94 53.95 36.93 58.03"/><polygon class="cls-11" points="36.96 47.43 36.95 51.51 47.01 45.66 51.95 38.72 36.96 47.43"/><polygon class="cls-7" points="47.01 45.66 53.86 41.68 53.87 37.6 51.95 38.72 47.01 45.66"/></g></g></svg>