<svg xmlns="http://www.w3.org/2000/svg" xmlns:xlink="http://www.w3.org/1999/xlink" viewBox="0 0 78.76 80.03"><defs><style>.cls-1{isolation:isolate;}.cls-2{fill:none;}.cls-3{opacity:0.15;mix-blend-mode:multiply;fill:url(#Degradado_sin_nombre_4);}.cls-4{fill:#a6a69f;}.cls-5{fill:#dedcd9;}.cls-6{fill:#d3d3d3;}.cls-7{fill:#93c1cf;}.cls-8{fill:#86aeb7;}.cls-9{fill:#77989e;}.cls-10{fill:#86a3a9;}</style><linearGradient id="Degradado_sin_nombre_4" x1="60.86" y1="82.83" x2="38.68" y2="45.2" gradientUnits="userSpaceOnUse"><stop offset="0" stop-opacity="0"/><stop offset="0.14" stop-opacity="0.53"/><stop offset="1"/></linearGradient></defs><title>alliance2</title><g class="cls-1"><g id="Layer_1" data-name="Layer 1"><g class="cls-1"><path class="cls-2" d="M100.94,65.43v3.27a2,2,0,0,1-1.17,1.63V67.06A2,2,0,0,0,100.94,65.43Z" transform="translate(-22.18 -11.51)"/></g><polygon class="cls-2" points="0 51.03 0.02 51.03 0.02 51.03 0.02 50.94 0 50.94 0 51.03"/><polygon class="cls-2" points="18.51 40.25 18.5 40.25 18.5 40.26 18.49 40.25 18.5 40.26 18.5 40.33 18.51 40.33 18.51 40.33 18.51 40.33 18.51 40.32 18.51 40.25"/><polygon class="cls-2" points="0.19 51.34 0.19 51.39 0.24 51.39 0.24 51.39 0.24 51.34 0.19 51.34 0.19 51.34"/><polygon class="cls-3" points="38.94 52.83 27.7 59.45 63.48 80.03 74.75 73.51 38.94 52.83"/><polygon class="cls-2" points="0.31 51.05 0.33 51.05 0.33 51.05 0.33 50.96 0.31 50.96 0.31 51.05"/><polygon class="cls-2" points="18.65 40.32 18.64 40.32 18.64 40.32 18.64 40.32 18.64 40.32 18.64 40.4 18.65 40.4 18.65 40.4 18.66 40.4 18.65 40.39 18.65 40.32"/><polygon class="cls-2" points="0.51 51.35 0.51 51.4 0.55 51.4 0.55 51.4 0.55 51.35 0.51 51.35 0.51 51.35"/><polygon class="cls-4" points="27.82 15.43 39.1 8.88 38.98 52.9 27.7 59.45 27.82 15.43"/><g class="cls-1"><path class="cls-5" d="M47.88,23.27A4.68,4.68,0,0,1,50,26.95l-.12,44L37.11,63.59l.13-44c0-1.35,1-1.89,2.13-1.22Z" transform="translate(-22.18 -11.51)"/><path class="cls-5" d="M37.86,18.21l11.28-6.55a1.5,1.5,0,0,1,1.51.15L39.37,18.36A1.5,1.5,0,0,0,37.86,18.21Z" transform="translate(-22.18 -11.51)"/><polygon class="cls-6" points="17.19 6.84 28.47 0.29 36.98 5.21 25.7 11.76 17.19 6.84"/><path class="cls-4" d="M47.88,23.27l11.28-6.55a4.68,4.68,0,0,1,2.12,3.67L50,26.95A4.68,4.68,0,0,0,47.88,23.27Z" transform="translate(-22.18 -11.51)"/></g><g class="cls-1"><path class="cls-5" d="M53.46,27.22l11.28-6.55a1.5,1.5,0,0,1,1.51.15L55,27.37A1.5,1.5,0,0,0,53.46,27.22Z" transform="translate(-22.18 -11.51)"/><polygon class="cls-4" points="43.43 24.44 54.71 17.89 54.58 61.91 43.3 68.46 43.43 24.44"/><polygon class="cls-6" points="32.79 15.85 44.07 9.3 52.59 14.22 41.31 20.77 32.79 15.85"/><path class="cls-5" d="M63.49,32.29A4.67,4.67,0,0,1,65.61,36l-.12,44L52.72,72.6l.12-44c0-1.35,1-1.89,2.13-1.22Z" transform="translate(-22.18 -11.51)"/><path class="cls-4" d="M63.49,32.29l11.28-6.55a4.67,4.67,0,0,1,2.12,3.67L65.61,36A4.67,4.67,0,0,0,63.49,32.29Z" transform="translate(-22.18 -11.51)"/></g><polygon class="cls-7" points="23.47 46.4 23.45 52.11 19.2 49.65 19.21 43.94 23.47 46.4"/><polygon class="cls-7" points="19.22 41.5 19.24 35.79 23.5 38.25 23.48 43.96 19.22 41.5"/><polygon class="cls-7" points="23.47 46.4 23.45 52.11 19.2 49.65 19.21 43.94 23.47 46.4"/><polygon class="cls-7" points="19.22 41.5 19.24 35.79 23.5 38.25 23.48 43.96 19.22 41.5"/><polygon class="cls-8" points="23.56 46.4 23.56 52.11 19.2 49.65 19.2 43.94 23.56 46.4"/><polygon class="cls-7" points="23.56 13.79 23.56 19.5 19.2 17.04 19.2 11.33 23.56 13.79"/><polygon class="cls-8" points="39.17 55.41 39.17 61.12 34.81 58.66 34.81 52.95 39.17 55.41"/><polygon class="cls-7" points="39.17 22.8 39.17 28.51 34.81 26.05 34.81 20.34 39.17 22.8"/><polygon class="cls-8" points="23.56 35.8 23.56 30.1 21.94 29.18 20.82 34.25 23.56 35.8"/><polygon class="cls-7" points="19.2 33.34 20.82 34.25 21.94 29.18 19.2 27.64 19.2 33.34"/><polygon class="cls-8" points="39.17 52.97 39.17 47.26 35.94 45.44 34.81 50.51 39.17 52.97"/><polygon class="cls-7" points="34.81 50.51 35.94 45.44 34.81 44.8 34.81 50.51"/><polygon class="cls-8" points="39.17 44.81 39.17 39.11 37.55 38.2 36.42 43.26 39.17 44.81"/><polygon class="cls-7" points="34.81 42.35 36.42 43.26 37.55 38.2 34.81 36.65 34.81 42.35"/><polygon class="cls-8" points="39.17 30.96 38.04 36.02 39.17 36.66 39.17 30.96"/><polygon class="cls-7" points="34.81 28.5 34.81 34.2 38.04 36.02 39.17 30.96 34.81 28.5"/><polygon class="cls-7" points="19.2 19.49 19.2 25.19 22.42 27 23.54 21.95 22.42 27 23.55 21.94 19.2 19.49"/><polygon class="cls-8" points="22.42 27 23.56 27.65 23.56 21.95 23.55 21.94 22.42 27"/><polygon class="cls-7" points="20.34 36.43 19.2 35.79 19.2 41.5 19.22 41.51 19.22 41.5 20.34 36.43"/><polygon class="cls-8" points="23.56 38.25 20.34 36.43 19.22 41.5 19.22 41.51 23.56 43.96 23.56 38.25"/><polygon class="cls-9" points="46.84 60.91 51.18 58.45 51.18 52.75 46.84 55.21 46.84 60.91"/><polygon class="cls-10" points="51.18 20.14 46.84 22.6 46.84 28.3 51.18 25.84 51.18 20.14"/><polygon class="cls-9" points="46.84 52.76 51.18 50.3 51.18 44.6 47.97 46.42 46.84 52.76 46.84 52.76"/><polygon class="cls-9" points="51.18 42.15 51.18 36.45 49.57 37.36 48.45 43.7 51.18 42.15"/><polygon class="cls-10" points="46.84 30.75 46.84 36.46 50.06 34.64 51.18 28.3 46.84 30.75"/><polygon class="cls-9" points="50.06 34.64 51.18 34 51.18 28.3 51.18 28.3 50.06 34.64"/><polygon class="cls-10" points="46.84 52.76 47.97 46.42 46.84 47.06 46.84 52.76"/><polygon class="cls-10" points="46.84 44.61 48.45 43.7 49.57 37.36 46.84 38.91 46.84 44.61"/></g></g></svg>