<svg xmlns="http://www.w3.org/2000/svg" xmlns:xlink="http://www.w3.org/1999/xlink" viewBox="0 0 64.33 73.82"><defs><style>.cls-1{isolation:isolate;}.cls-2{fill:none;}.cls-3{opacity:0.15;mix-blend-mode:multiply;fill:url(#Degradado_sin_nombre_3);}.cls-4{fill:#75c3be;}.cls-5{fill:#85ded8;}.cls-6{fill:#aee9e5;}.cls-7{fill:#94d0cc;}.cls-8{fill:#668ebd;}.cls-9{fill:#75a2d8;}.cls-10{fill:#84acdc;}</style><linearGradient id="Degradado_sin_nombre_3" x1="47.28" y1="75.55" x2="22.69" y2="33.83" gradientUnits="userSpaceOnUse"><stop offset="0" stop-opacity="0"/><stop offset="1"/></linearGradient></defs><title>plastic_bottle</title><g class="cls-1"><g id="Layer_1" data-name="Layer 1"><g class="cls-1"><path class="cls-2" d="M100.94,65.43v3.27a2,2,0,0,1-1.17,1.63V67.06A2,2,0,0,0,100.94,65.43Z" transform="translate(-40.68 -23.31)"/></g><polygon class="cls-2" points="0.01 28.45 0 28.45 0 28.46 0 28.45 0 28.46 0 28.54 0.01 28.54 0.01 28.53 0.01 28.54 0.01 28.53 0.01 28.45"/><polygon class="cls-3" points="25.46 40.93 8.87 50.6 47.7 73.82 64.33 64.25 25.46 40.93"/><polygon class="cls-3" points="25.46 40.93 8.87 50.6 47.7 73.82 64.33 64.25 25.46 40.93"/><polygon class="cls-2" points="0.16 28.52 0.15 28.52 0.15 28.53 0.15 28.52 0.15 28.53 0.15 28.6 0.16 28.6 0.16 28.6 0.16 28.6 0.16 28.59 0.16 28.52"/><path class="cls-2" d="M68.84,56.44c0,.1,0,.21-.08.31s-.1.24-.15.36-.08.2-.13.3-.11.18-.17.27l.07.13.08-.15.09-.2a4.83,4.83,0,0,0,.36-1.23C68.89,56.29,68.86,56.37,68.84,56.44Z" transform="translate(-40.68 -23.31)"/><path class="cls-2" d="M68.35,57.86l-.05.08,0,0c.07.12.15.24.21.36s.08.2.12.29.1.23.14.35,0,.2.07.3l0,.17c0-.1,0-.21,0-.3v-.06a4.28,4.28,0,0,0-.28-.86l-.09-.2-.1-.2v0Z" transform="translate(-40.68 -23.31)"/><path class="cls-2" d="M68.39,45.64l-.05.08,0,0c.07.12.15.23.21.35s.08.2.12.29.1.23.14.35,0,.2.07.3.06.24.08.35,0,.2,0,.31,0,.21,0,.31c0-.21,0-.36,0-.49s0-.17,0-.26,0-.15,0-.22l0-.17,0-.19c0-.13-.08-.27-.13-.42L68.59,46l-.07-.15-.12-.24Z" transform="translate(-40.68 -23.31)"/><path class="cls-2" d="M68.25,57.75l0,.05.07.13.08-.13-.07-.12Z" transform="translate(-40.68 -23.31)"/><path class="cls-4" d="M68.43,57.91q-.12-.22.05.12Z" transform="translate(-40.68 -23.31)"/><path class="cls-4" d="M68.82,58.94a4.59,4.59,0,0,0-.25-.71,4.24,4.24,0,0,1,.28.86Z" transform="translate(-40.68 -23.31)"/><path class="cls-4" d="M68.55,58.18,68.48,58Q68.62,58.36,68.55,58.18Z" transform="translate(-40.68 -23.31)"/><path class="cls-4" d="M68.54,57.45l-.09.2a.62.62,0,0,0,.09-.2Z" transform="translate(-40.68 -23.31)"/><path class="cls-4" d="M45.67,57.57c-.07-.12-.14-.23-.2-.35C45.53,57.34,45.61,57.47,45.67,57.57Z" transform="translate(-40.68 -23.31)"/><path class="cls-4" d="M69,55.53a4.27,4.27,0,0,1-.09.7,4.83,4.83,0,0,1-.36,1.23A5.33,5.33,0,0,0,69,55.53C69,55.61,69,56.12,69,55.53Z" transform="translate(-40.68 -23.31)"/><path class="cls-4" d="M69,55.42v-.06A.17.17,0,0,0,69,55.42Z" transform="translate(-40.68 -23.31)"/><path class="cls-4" d="M69,48c0-.21,0-.36,0-.49C69,47.73,69,47.9,69,48Z" transform="translate(-40.68 -23.31)"/><path class="cls-4" d="M68.85,46.7l0,.19A1.36,1.36,0,0,0,68.85,46.7Z" transform="translate(-40.68 -23.31)"/><path class="cls-5" d="M69,60.14q0,.34,0-.18v.18S69,60.08,69,60.14Z" transform="translate(-40.68 -23.31)"/><path class="cls-5" d="M68.9,59.46v0l0,.16,0-.19Z" transform="translate(-40.68 -23.31)"/><path class="cls-5" d="M68.64,40.05Z" transform="translate(-40.68 -23.31)"/><path class="cls-6" d="M45,60.19q0,3,0,6a8.41,8.41,0,0,0,.64,3.94,7.47,7.47,0,0,0,1.18,1.72V61.21C45.68,60.93,45,60.59,45,60.19Z" transform="translate(-40.68 -23.31)"/><path class="cls-5" d="M69,60.66c-.19,1.9-16.62,1.93-22.16.54V71.89a11.83,11.83,0,0,0,5.88,3.28c5.08,1.27,12.43.46,15.39-4.48a7.41,7.41,0,0,0,.9-4q0-3.23,0-6.47Z" transform="translate(-40.68 -23.31)"/><path class="cls-2" d="M68.94,59.65l0-.19v0Z" transform="translate(-40.68 -23.31)"/><path class="cls-4" d="M69,60.26a6.5,6.5,0,0,0-.12-1.11l0,.3,0,.19,0-.16v0a4.61,4.61,0,0,0-.6-1.51.57.57,0,0,0,.08-.13s0,0,0,0l.08-.16-.08.15-.07-.13h0l.07.12-.08.13-.07-.13C66.39,60.69,54,61.15,48.33,59.29a6.52,6.52,0,0,1-1.53,4.56,7.29,7.29,0,0,0,.55.48,15.19,15.19,0,0,0,8.53,2.81,18.06,18.06,0,0,0,8.91-1.61c2.12-1,4.38-3,4.18-5.58Z" transform="translate(-40.68 -23.31)"/><path class="cls-7" d="M45.78,57.75l-.08.13h0c-1.3,2.12-.53,4.38,1.1,6a6.52,6.52,0,0,0,1.53-4.56A4.91,4.91,0,0,1,45.78,57.75Z" transform="translate(-40.68 -23.31)"/><path class="cls-4" d="M45.1,43.74a4,4,0,0,1-.06-.66Q45.06,43.41,45.1,43.74Z" transform="translate(-40.68 -23.31)"/><path class="cls-4" d="M45.13,43.91c0-.06,0-.11,0-.17Z" transform="translate(-40.68 -23.31)"/><path class="cls-4" d="M68.94,44l0-.15S68.95,43.93,68.94,44Z" transform="translate(-40.68 -23.31)"/><path class="cls-4" d="M69,43.15s0,.06,0,.09,0,0,0,0S69,43.16,69,43.15Z" transform="translate(-40.68 -23.31)"/><path class="cls-4" d="M69,43.84c0-.2,0-.4.06-.6A4.09,4.09,0,0,1,69,43.84Z" transform="translate(-40.68 -23.31)"/><path class="cls-5" d="M46.8,48.47V58.94a9.13,9.13,0,0,0,1.1.89A16.29,16.29,0,0,0,57,62.28c4.15,0,11.72-1.51,12-6.86C69,53,69,50.5,69,48,69,48.14,52.33,49,46.8,48.47Z" transform="translate(-40.68 -23.31)"/><path class="cls-6" d="M45,48q0,2.13,0,4.25a24.92,24.92,0,0,0,0,3.7h0a5.29,5.29,0,0,0,1.74,3V48.47C45.7,48.37,45,48.2,45,48Z" transform="translate(-40.68 -23.31)"/><path class="cls-7" d="M48.19,47.78a6.46,6.46,0,0,1-3.06-3.87,5.06,5.06,0,0,0,.52,1.61A5.83,5.83,0,0,0,45,48a5.16,5.16,0,0,0,1.81,3.68h0l.16.13a6.69,6.69,0,0,0,1.33-3.91Z" transform="translate(-40.68 -23.31)"/><path class="cls-4" d="M66,47.75a16.4,16.4,0,0,1-9,2.3h0a16.77,16.77,0,0,1-8.69-2.2A6.69,6.69,0,0,1,47,51.77a11.22,11.22,0,0,0,3.52,2h0c5.07,1.91,12.49,1.75,16.68-2.12h0a4.67,4.67,0,0,0,1.14-6,.57.57,0,0,0,.07-.13l.12.24a1.37,1.37,0,0,0-.12-.24A5.32,5.32,0,0,0,68.94,44,6.43,6.43,0,0,1,66,47.75Z" transform="translate(-40.68 -23.31)"/><path class="cls-6" d="M53.1,33.43v0c-.21-.11-.43-.21-.63-.34a3.74,3.74,0,0,1-.77-.69l-.54.28a12.48,12.48,0,0,0-4.56,4.53,10.65,10.65,0,0,0-1.52,6.5,5.35,5.35,0,0,0,1.71,3h0C46.8,36.39,53.1,33.43,53.1,33.43Z" transform="translate(-40.68 -23.31)"/><path class="cls-5" d="M68.64,40.05a11.86,11.86,0,0,0-6.22-7.62h0l-.36.38h0a3,3,0,0,1-.41.29,8,8,0,0,1-4.59,1.24h0a8.57,8.57,0,0,1-4-.94v0s-6.3,3-6.3,13.27h0a9.44,9.44,0,0,0,1.64,1.24A16.84,16.84,0,0,0,57,50.06h0a16.29,16.29,0,0,0,9.07-2.38c1.53-1,2.94-2.58,2.94-4.54A11.82,11.82,0,0,0,68.64,40.05Z" transform="translate(-40.68 -23.31)"/><path class="cls-8" d="M63,26.76v0a3.52,3.52,0,0,0-.29-.74v0a3.32,3.32,0,0,0-.37-.56l0,0a5.08,5.08,0,0,0-.58-.59l0,0a5.26,5.26,0,0,0-.51-.38c-.42-.3-1.17,0-1.17,0l-6.41,3.29a2.51,2.51,0,0,0-1.36,2.24v1.73a2.4,2.4,0,0,0,.3,1.44h0c.1.07.18.15.3.22a8.59,8.59,0,0,0,4.29,1.06h0a8.68,8.68,0,0,0,4.19-1c.15-.08.27-.18.4-.27h0c.13-.09.28-.17.39-.27l0,0a2.38,2.38,0,0,0,1-1.91V29.27h0V27.63A4.06,4.06,0,0,0,63,26.76Z" transform="translate(-40.68 -23.31)"/><path class="cls-9" d="M52.18,29.91a2.51,2.51,0,0,1,1.36-2.24L60,24.38s.76-.28,1.17,0l-.31-.19-.23-.13-.29-.14-.35-.14,0,0h0a8.12,8.12,0,0,0-2.11-.43,8.73,8.73,0,0,0-1.35,0h0c-.25,0-.48,0-.7.08h-.06a7.6,7.6,0,0,0-.77.17c-.24.07-.47.14-.69.23l-.19.08c-.28.12-.5.23-.63.3a7.25,7.25,0,0,0-.66.45l-.11.09a4.54,4.54,0,0,0-.42.39l-.08.08a4,4,0,0,0-.35.44l0,0c0,.07-.08.14-.12.21a3.55,3.55,0,0,0-.17.31l0,.13a3.5,3.5,0,0,0-.15.47l0,.11a4.17,4.17,0,0,0-.08.68c0,.49,0,1.06,0,1.63v1.64A2.34,2.34,0,0,0,52,32.75l0,0a4.78,4.78,0,0,0,.4.29,2.4,2.4,0,0,1-.3-1.44Z" transform="translate(-40.68 -23.31)"/><path class="cls-10" d="M60.46,24.76a3.11,3.11,0,0,0-.51-.38,6.23,6.23,0,0,0-5.65-.06,3.09,3.09,0,0,0-.58.42c-1,.88-.81,2.06.5,2.85.1.06.21.1.31.15a5.07,5.07,0,0,0,1.06.38c.2,0,.4-.08.6-.1-.2,0-.4.06-.6.1a6.74,6.74,0,0,0,3,0A8.32,8.32,0,0,0,57.15,28a8.32,8.32,0,0,1,1.43.15,5.06,5.06,0,0,0,1.07-.38l.23-.11C61.25,26.88,61.46,25.66,60.46,24.76Z" transform="translate(-40.68 -23.31)"/></g></g></svg>