<svg xmlns="http://www.w3.org/2000/svg" xmlns:xlink="http://www.w3.org/1999/xlink" viewBox="0 0 91.45 77.37"><defs><style>.cls-1{isolation:isolate;}.cls-2{fill:none;}.cls-3{opacity:0.15;mix-blend-mode:multiply;fill:url(#Degradado_sin_nombre_3);}.cls-4{fill:#c2c1be;}.cls-5{fill:#7c7d77;}.cls-6{fill:#dedcd9;}.cls-7{fill:#75a2d9;}.cls-8{fill:#94b7e1;}.cls-9{fill:#61615f;}.cls-10{fill:#efeeec;}.cls-11{fill:#60853b;}.cls-12{fill:#9cc376;}.cls-13{fill:#80b24f;}.cls-14{fill:#eabe53;}.cls-15{fill:#cda649;}.cls-16{fill:#efcc79;}</style><linearGradient id="Degradado_sin_nombre_3" x1="73.38" y1="74.14" x2="59.65" y2="50.84" gradientUnits="userSpaceOnUse"><stop offset="0" stop-opacity="0"/><stop offset="1"/></linearGradient></defs><title>positioning</title><g class="cls-1"><g id="Layer_1" data-name="Layer 1"><g class="cls-1"><path class="cls-2" d="M100.94,65.43v3.27a2,2,0,0,1-1.17,1.63V67.06A2,2,0,0,0,100.94,65.43Z" transform="translate(-22.18 -19.68)"/></g><polygon class="cls-2" points="0 42.86 0.02 42.86 0.02 42.86 0.02 42.77 0 42.77 0 42.86"/><polygon class="cls-2" points="18.51 32.08 18.5 32.08 18.5 32.09 18.49 32.08 18.5 32.09 18.5 32.16 18.51 32.16 18.51 32.16 18.51 32.16 18.51 32.15 18.51 32.08"/><polygon class="cls-2" points="0.19 43.17 0.19 43.22 0.24 43.22 0.24 43.22 0.24 43.17 0.19 43.17 0.19 43.17"/><polygon class="cls-3" points="68.64 50.58 43.39 65.24 66.06 77.37 91.45 62.79 68.64 50.58"/><polygon class="cls-3" points="68.64 50.58 43.39 65.24 66.06 77.37 91.45 62.79 68.64 50.58"/><polygon class="cls-2" points="0.31 42.88 0.33 42.88 0.33 42.88 0.33 42.79 0.31 42.79 0.31 42.88"/><polygon class="cls-2" points="18.65 32.15 18.64 32.15 18.64 32.15 18.64 32.15 18.64 32.16 18.64 32.23 18.65 32.23 18.65 32.23 18.66 32.23 18.65 32.22 18.65 32.15"/><polygon class="cls-2" points="0.51 43.19 0.51 43.23 0.55 43.23 0.55 43.23 0.55 43.18 0.51 43.18 0.51 43.19"/><g class="cls-1"><polygon class="cls-4" points="43.39 45.78 64.54 33.5 64.5 46.53 43.39 58.82 43.39 45.78"/><polygon class="cls-5" points="43.39 58.82 43.39 65.24 1 40.76 5.05 36.7 43.39 58.82"/><path class="cls-5" d="M52.82,71.13V56.31L40.05,63.76Z" transform="translate(-22.18 -19.68)"/><path class="cls-6" d="M33.55,49.42l1.15-1.14a1.61,1.61,0,0,0,.49-1.21c0-.07,0-.13,0-.2l-4.37,2.54,4.25,2.51.82-1.16Z" transform="translate(-22.18 -19.68)"/><path class="cls-6" d="M27.23,56.39V37.64L40.05,45V63.76Z" transform="translate(-22.18 -19.68)"/><polygon class="cls-7" points="5.05 14.7 26.25 2.41 39.02 9.78 17.87 22.07 5.05 14.7"/><polygon class="cls-8" points="5.05 17.96 5.05 14.7 17.87 22.07 17.87 25.33 5.05 17.96"/><polygon class="cls-9" points="43.39 58.82 64.5 46.53 68.64 50.58 43.39 65.24 43.39 58.82"/><path class="cls-10" d="M40.05,41.75V35.24l12.77,7.37V71.13L40.05,63.76v-22Z" transform="translate(-22.18 -19.68)"/><polygon class="cls-11" points="43.39 42.52 64.55 30.23 64.54 33.5 43.39 45.78 43.39 42.52"/><polygon class="cls-12" points="30.64 35.15 43.39 42.52 43.39 45.78 30.64 38.41 30.64 35.15"/><polygon class="cls-13" points="30.64 35.15 51.82 22.86 64.55 30.23 43.39 42.52 30.64 35.15"/></g><g class="cls-1"><polygon class="cls-14" points="17.87 12.29 39.05 0 51.82 7.37 30.64 19.66 17.87 12.29"/><polygon class="cls-15" points="30.64 19.66 51.82 7.37 51.82 10.64 30.64 22.93 30.64 19.66"/><polygon class="cls-16" points="17.87 12.29 30.64 19.66 30.64 22.93 17.87 15.55 17.87 12.29"/></g><path class="cls-6" d="M52.82,58.09l12.75,7.37v13L52.82,71.13Z" transform="translate(-22.18 -19.68)"/><polygon class="cls-4" points="51.82 10.64 51.82 22.86 30.64 35.15 30.64 22.93 51.82 10.64"/><path class="cls-8" d="M34.7,48.29l-1.15,1.14,2.34,1.35-.82,1.16-4.25-2.51,2.72-2.68a.79.79,0,0,0,.18-.53A1.4,1.4,0,0,0,33,45c-.53-.31-.73.15-.77.38l-1.42-.82A1.37,1.37,0,0,1,33,43.4a4.18,4.18,0,0,1,2.18,3.68A1.61,1.61,0,0,1,34.7,48.29Z" transform="translate(-22.18 -19.68)"/><polygon class="cls-16" points="21.93 22.77 23.57 21.27 24.99 22.09 24.97 29.43 23.55 28.61 23.56 23.72 23.02 24.22 21.93 22.77"/><path class="cls-12" d="M61.24,67.73a.94.94,0,0,1-.61,1,3.21,3.21,0,0,1,.6,1.7c0,1.56-.79,1.87-2.13,1.09A5.45,5.45,0,0,1,57,68.73l1.29,0a1.86,1.86,0,0,0,.78,1.13c.57.33.75,0,.71-.28a1.87,1.87,0,0,0-1-1.18l-.06,0V66.94l.06,0c.21.12.88.46,1-.07a1.23,1.23,0,0,0-.71-1.1c-.6-.35-.77.2-.78.23L57.05,64.6a1.39,1.39,0,0,1,2.07-.42A3.94,3.94,0,0,1,61.24,67.73Z" transform="translate(-22.18 -19.68)"/></g></g></svg>