<svg xmlns="http://www.w3.org/2000/svg" xmlns:xlink="http://www.w3.org/1999/xlink" viewBox="0 0 83.66 52.74"><defs><style>.cls-1{isolation:isolate;}.cls-2{fill:none;}.cls-3{opacity:0.15;mix-blend-mode:multiply;fill:url(#Degradado_sin_nombre_4);}.cls-4{fill:#99aa5b;}.cls-5{fill:#d6e2a6;}.cls-6{fill:#c5d78d;}.cls-7{fill:#b8c486;}.cls-8{fill:#cbdb98;}.cls-9{fill:#b4cc6c;}.cls-10{fill:#8ba577;}.cls-11{fill:#a1bf8d;}</style><linearGradient id="Degradado_sin_nombre_4" x1="54.89" y1="47.23" x2="29.5" y2="2.83" gradientUnits="userSpaceOnUse"><stop offset="0" stop-opacity="0"/><stop offset="1"/></linearGradient></defs><title>solution2</title><g class="cls-1"><g id="Layer_1" data-name="Layer 1"><polygon class="cls-2" points="10.69 6.43 10.67 6.43 10.67 6.44 10.67 6.43 10.67 6.44 10.67 6.51 10.69 6.51 10.69 6.51 10.69 6.51 10.69 6.5 10.69 6.43"/><polygon class="cls-3" points="46.77 10.33 20.91 18.05 7.85 30.7 47.39 52.74 83.66 31.8 46.77 10.33"/><polygon class="cls-3" points="46.77 10.33 20.91 18.05 7.85 30.7 47.39 52.74 83.66 31.8 46.77 10.33"/><polygon class="cls-2" points="10.83 6.5 10.82 6.5 10.82 6.5 10.82 6.5 10.82 6.5 10.82 6.58 10.83 6.58 10.83 6.58 10.83 6.58 10.83 6.57 10.83 6.5"/><path class="cls-4" d="M63.24,67.44v4.08a2.49,2.49,0,0,1,1.46-2h0V65.41A2.49,2.49,0,0,0,63.24,67.44Z" transform="translate(-30 -45.34)"/><path class="cls-5" d="M73.32,67.31l-.05-.08,0-.08,0-.11a2.78,2.78,0,0,0-1.43-1.64,7.78,7.78,0,0,0-7.06,0h0v4.07a7.79,7.79,0,0,1,7.05,0,2.78,2.78,0,0,1,1.43,1.64l0,.11,0,.08.05.08a4.12,4.12,0,0,0,.41.33V67.65A3.82,3.82,0,0,1,73.32,67.31Z" transform="translate(-30 -45.34)"/><g class="cls-1"><path class="cls-6" d="M50.53,54.36v4.08A2.5,2.5,0,0,0,49,56.38a6.87,6.87,0,0,0-2.84-.82,2.38,2.38,0,0,1-1-.28.9.9,0,0,1-.52-.76V50.44a.9.9,0,0,0,.52.76,2.38,2.38,0,0,0,1,.28,6.87,6.87,0,0,1,2.84.82A2.5,2.5,0,0,1,50.53,54.36Z" transform="translate(-30 -45.34)"/><path class="cls-7" d="M75.94,53.94a6.74,6.74,0,0,1-2.82.82l-.14,0-.14,0-.13,0-.12,0a4.81,4.81,0,0,0-.58.27l-.07.05-.07.06-.07.07,0,.06,0,.07,0,.08,0,.07,0,.08v4.08l0-.08,0-.07,0-.08,0-.07,0-.06.07-.07.07-.06L72,59.2a5,5,0,0,1,.58-.27l.12,0,.13,0,.14,0h.14A6.75,6.75,0,0,0,75.92,58a2.49,2.49,0,0,0,1.46-2V51.9A2.48,2.48,0,0,1,75.94,53.94Z" transform="translate(-30 -45.34)"/><path class="cls-8" d="M71.63,55.67v4.08a.64.64,0,0,0,0,.08V55.75A.63.63,0,0,1,71.63,55.67Z" transform="translate(-30 -45.34)"/><path class="cls-8" d="M71.6,59.86V55.79s0,0,0,0v4.08S71.6,59.85,71.6,59.86Z" transform="translate(-30 -45.34)"/><path class="cls-9" d="M68.84,49.84a7.8,7.8,0,0,1,7.08,0l-19,11.06-7.81-4.51c1.94-1.13,1.94-3,0-4.09a6.87,6.87,0,0,0-2.84-.82,2.38,2.38,0,0,1-1-.28c-.71-.41-.77-1.16.27-1.77,4.23-2.46,10.94-4,11.29-4.1a24.28,24.28,0,0,0,7.11,6.56c1.42.82,3.33.46,3.53-.41A2.75,2.75,0,0,1,68.84,49.84Z" transform="translate(-30 -45.34)"/><path class="cls-10" d="M42.13,65.82l0-.08,0-.09,0-.07L42,65.49l-.08-.09-.07-.07-.09-.08-.11-.08-.11-.07L41.35,65c-4.26-2.46-11-4-11.34-4.1V65c.35.08,7.08,1.64,11.34,4.1l.15.09.11.07.11.08.09.08.07.08.08.09.06.08,0,.08,0,.09,0,.08,0,.07V65.89Z" transform="translate(-30 -45.34)"/><path class="cls-11" d="M42.15,66v4.08a.92.92,0,0,0,0-.09V65.89A.91.91,0,0,1,42.15,66Z" transform="translate(-30 -45.34)"/><path class="cls-11" d="M42.16,66v4.08a.29.29,0,0,0,0,0V66A.29.29,0,0,1,42.16,66Z" transform="translate(-30 -45.34)"/><path class="cls-8" d="M64.69,65.41l-7.8-4.5,19-11.06c2,1.13,2,3,0,4.1a6.74,6.74,0,0,1-2.82.82l-.14,0-.14,0-.13,0-.12,0a4.81,4.81,0,0,0-.58.27l-.07.05-.07.06-.07.07,0,.06,0,.07,0,.08,0,.07,0,.08a.63.63,0,0,0,0,.08s0,.06,0,.07a.68.68,0,0,0,0,.09l0,.07,0,.08,0,.09,0,.07.06.08.08.09.07.07.09.08.11.08.11.07.14.09c4.26,2.46,11,4,11.34,4.1a24,24,0,0,1-7,6.55l-.12.07-.13.06-.16.07-.13,0-.14,0-.16,0-.13,0-.14,0-.15,0-.13,0h-.81l-.14,0-.11,0-.11,0-.12,0-.1,0-.11,0-.1,0a3.82,3.82,0,0,1-.41-.33l-.05-.08,0-.08,0-.11a2.78,2.78,0,0,0-1.43-1.64A7.79,7.79,0,0,0,64.69,65.41Z" transform="translate(-30 -45.34)"/><path class="cls-7" d="M83.76,60.9V65a24,24,0,0,1-7,6.55l-.12.07-.13.06-.16.07-.13,0-.14,0-.16,0-.13,0-.14,0-.15,0-.13,0h-.81l-.14,0-.11,0-.11,0-.12,0-.1,0-.11,0-.1,0V67.65l.1,0,.11,0,.1,0,.13,0,.11,0,.11,0,.14,0h.81l.13,0,.15,0,.14,0,.13,0,.16,0,.14,0,.13,0,.16-.07.13-.06.12-.07A24,24,0,0,0,83.76,60.9Z" transform="translate(-30 -45.34)"/><path class="cls-10" d="M36.37,74V69.9A2.51,2.51,0,0,0,37.86,72V76A2.51,2.51,0,0,1,36.37,74Z" transform="translate(-30 -45.34)"/><path class="cls-11" d="M49.08,56.39l7.81,4.51L37.86,72c-2-1.13-2-3,0-4.1A6.8,6.8,0,0,1,40.66,67l.14,0,.14,0,.13,0,.13,0a4.8,4.8,0,0,0,.58-.27l.07-.05.06-.06L42,66.5l0-.06,0-.07,0-.08,0-.07,0-.08a.8.8,0,0,0,0-.08s0-.06,0-.07a.91.91,0,0,0,0-.09l0-.07,0-.08,0-.09,0-.07L42,65.49l-.08-.09-.07-.07-.09-.08-.11-.08-.11-.07L41.35,65c-4.26-2.46-11-4-11.34-4.1a23.94,23.94,0,0,1,7-6.55l.12-.07.13-.06.16-.07.13,0,.14,0,.16,0L38,54l.14,0,.15,0,.13,0h.81l.14,0,.11,0,.11,0,.13,0,.1,0,.1,0,.11.05.08,0,.34.29.05.08,0,.08,0,.11A2.78,2.78,0,0,0,42,56.4,7.79,7.79,0,0,0,49.08,56.39Z" transform="translate(-30 -45.34)"/><path class="cls-6" d="M57,76.47v4.08A24.44,24.44,0,0,0,49.85,74c-1.42-.82-3.32-.46-3.53.41A2.75,2.75,0,0,1,44.91,76a7.78,7.78,0,0,1-7.06,0V72a7.78,7.78,0,0,0,7.06,0,2.75,2.75,0,0,0,1.41-1.64c.2-.87,2.11-1.23,3.53-.41A24.39,24.39,0,0,1,57,76.47Z" transform="translate(-30 -45.34)"/><path class="cls-9" d="M68.53,70.6c.71.41.77,1.17-.27,1.77-4.23,2.46-10.93,4-11.29,4.1a24.39,24.39,0,0,0-7.11-6.55c-1.42-.82-3.32-.46-3.53.41A2.75,2.75,0,0,1,44.92,72a7.78,7.78,0,0,1-7.06,0l19-11.06,7.8,4.5c-1.95,1.13-1.94,3,0,4.09a6.85,6.85,0,0,0,2.84.82A2.37,2.37,0,0,1,68.53,70.6Z" transform="translate(-30 -45.34)"/><path class="cls-4" d="M68.26,72.37c-4.23,2.46-10.93,4-11.29,4.1v4.08c.35-.08,7.05-1.64,11.29-4.09.55-.32.79-.68.79-1V71.36C69.05,71.69,68.81,72.05,68.26,72.37Z" transform="translate(-30 -45.34)"/></g></g></g></svg>