<svg xmlns="http://www.w3.org/2000/svg" xmlns:xlink="http://www.w3.org/1999/xlink" viewBox="0 0 76.99 80.71"><defs><style>.cls-1{isolation:isolate;}.cls-2{fill:none;}.cls-3{opacity:0.15;mix-blend-mode:multiply;fill:url(#Degradado_sin_nombre_2);}.cls-4{fill:#535456;}.cls-5{fill:#68696b;}.cls-6{fill:#87898c;}.cls-7{fill:#81d8d2;}.cls-8{fill:#7bcdc7;}.cls-9{fill:#de7047;}.cls-10{fill:#9d4f32;}.cls-11{fill:#c15f40;}.cls-12{fill:#c96647;}.cls-13{fill:#cc7c66;}.cls-14{fill:#e88769;}.cls-15{fill:#71bcb5;}</style><linearGradient id="Degradado_sin_nombre_2" x1="66.64" y1="84.62" x2="45.91" y2="49.44" gradientUnits="userSpaceOnUse"><stop offset="0" stop-opacity="0"/><stop offset="1"/></linearGradient></defs><title>stats_area_chart</title><g class="cls-1"><g id="Layer_1" data-name="Layer 1"><polygon class="cls-2" points="5.67 32.9 5.65 32.9 5.65 32.91 5.65 32.9 5.65 32.91 5.65 32.99 5.67 32.99 5.67 32.98 5.67 32.99 5.67 32.98 5.67 32.9"/><polygon class="cls-3" points="43.91 57.9 38.31 61.25 71.36 80.71 76.98 77.46 43.91 57.9"/><polygon class="cls-3" points="43.91 57.9 38.31 61.25 71.36 80.71 76.98 77.46 43.91 57.9"/><polygon class="cls-2" points="5.81 32.97 5.8 32.97 5.8 32.98 5.8 32.97 5.8 32.98 5.8 33.05 5.81 33.05 5.81 33.05 5.81 33.05 5.81 33.04 5.81 32.97"/><g class="cls-1"><polygon class="cls-4" points="2.23 4.5 7.87 1.23 7.77 34.65 2.13 37.92 2.23 4.5"/><polygon class="cls-5" points="2.13 37.92 7.77 34.65 43.95 55.53 38.31 58.81 2.13 37.92"/><polygon class="cls-5" points="0.1 3.28 5.74 0 7.87 1.23 2.23 4.5 0.1 3.28"/><polygon class="cls-4" points="38.31 58.81 43.95 55.53 43.95 57.98 38.31 61.25 38.31 58.81"/><polygon class="cls-6" points="2.23 4.5 2.13 37.92 38.31 58.81 38.31 61.25 0 39.14 0.1 3.28 2.23 4.5"/><g class="cls-1"><polygon class="cls-7" points="26.96 52.26 26.99 41.48 31.97 41.05 31.93 55.13 26.96 52.26"/><polygon class="cls-8" points="31.93 55.13 31.97 41.05 36.95 40.62 36.9 57.99 31.93 55.13"/><polygon class="cls-8" points="7.13 30.57 7.1 40.79 2.13 37.92 2.15 31 7.13 30.57"/><polygon class="cls-7" points="12.1 31.76 12.07 43.66 7.1 40.79 7.13 30.57 10.88 30.25 12.1 31.76"/><polygon class="cls-8" points="17.06 37.92 17.04 46.52 12.07 43.66 12.1 31.76 17.06 37.92"/><polygon class="cls-9" points="7.17 17.08 7.13 30.57 2.15 31 2.17 24.09 7.17 17.08"/><polygon class="cls-7" points="22.02 41.9 22 49.39 17.04 46.52 17.06 37.92 20.37 42.05 22.02 41.9"/><polygon class="cls-10" points="7.37 16.79 13.01 13.52 17.77 19.42 12.13 22.7 7.37 16.79"/><polygon class="cls-11" points="7.17 17.08 7.37 16.79 12.13 22.7 12.1 31.76 10.88 30.25 7.13 30.57 7.17 17.08"/><polygon class="cls-9" points="17.09 28.86 17.06 37.92 12.1 31.76 12.13 22.7 17.09 28.86"/><polygon class="cls-12" points="12.13 22.7 17.77 19.42 22.72 25.59 17.09 28.86 12.13 22.7"/><polygon class="cls-10" points="17.09 28.86 22.72 25.59 23.65 26.73 18.01 30.01 17.09 28.86"/><polygon class="cls-8" points="22 49.39 22.02 41.9 26.99 41.48 26.96 52.26 22 49.39"/><polygon class="cls-13" points="20.73 26.18 26.37 22.9 27.7 22.79 22.06 26.07 20.73 26.18"/><polygon class="cls-11" points="18.01 30.01 20.73 26.18 22.06 26.07 22.02 41.9 20.37 42.05 17.06 37.92 17.09 28.86 18.01 30.01"/><polygon class="cls-14" points="22.06 26.07 27.7 22.79 32.68 22.36 27.04 25.64 22.06 26.07"/><polygon class="cls-9" points="22.02 41.9 22.06 26.07 27.04 25.64 26.99 41.48 22.02 41.9"/><polygon class="cls-15" points="36.95 40.62 42.59 37.34 42.54 54.72 36.9 57.99 36.95 40.62"/><polygon class="cls-13" points="27.04 25.64 32.68 22.36 37.65 21.94 32.02 25.21 27.04 25.64"/><polygon class="cls-11" points="27.04 25.64 32.02 25.21 31.97 41.05 26.99 41.48 27.04 25.64"/><polygon class="cls-10" points="36.99 24.79 42.63 21.51 42.59 37.34 36.95 40.62 36.99 24.79"/><polygon class="cls-14" points="32.02 25.21 37.65 21.94 42.63 21.51 36.99 24.79 32.02 25.21"/><polygon class="cls-9" points="32.02 25.21 36.99 24.79 36.95 40.62 31.97 41.05 32.02 25.21"/></g></g></g></g></svg>