<svg xmlns="http://www.w3.org/2000/svg" xmlns:xlink="http://www.w3.org/1999/xlink" viewBox="0 0 90.76 81.68"><defs><style>.cls-1{isolation:isolate;}.cls-2{fill:none;}.cls-3{opacity:0.15;mix-blend-mode:multiply;fill:url(#Degradado_sin_nombre_2);}.cls-4{fill:#535456;}.cls-5{fill:#68696b;}.cls-6{fill:#c4816c;}.cls-7{fill:#7d3f28;}.cls-8{fill:#e2987c;}.cls-9{fill:#87898c;}.cls-10{fill:#534c5c;}.cls-11{fill:#909c5c;}.cls-12{fill:#887c96;}.cls-13{fill:#9487a3;}.cls-14{fill:#71bcb5;}.cls-15{fill:#a4b269;}.cls-16{fill:#bed276;}.cls-17{fill:#eacc85;}.cls-18{fill:#af9865;}.cls-19{fill:#d1b37d;}.cls-20{fill:#7bcdc7;}.cls-21{fill:#81d8d2;}</style><linearGradient id="Degradado_sin_nombre_2" x1="80.3" y1="85.7" x2="58.76" y2="49.15" gradientUnits="userSpaceOnUse"><stop offset="0" stop-opacity="0"/><stop offset="1"/></linearGradient></defs><title>stats_histogram</title><g class="cls-1"><g id="Layer_1" data-name="Layer 1"><polygon class="cls-2" points="0 43.68 0.02 43.68 0.02 43.68 0.02 43.59 0 43.59 0 43.68"/><polygon class="cls-2" points="18.51 32.9 18.5 32.9 18.5 32.91 18.49 32.9 18.5 32.91 18.5 32.99 18.51 32.99 18.51 32.98 18.51 32.99 18.51 32.98 18.51 32.9"/><polygon class="cls-2" points="0.19 43.99 0.19 44.04 0.24 44.04 0.24 44.04 0.24 43.99 0.19 43.99 0.19 43.99"/><polygon class="cls-3" points="56.75 57.9 51.15 61.25 85.14 81.68 90.76 78.44 56.75 57.9"/><polygon class="cls-3" points="56.75 57.9 51.15 61.25 85.14 81.68 90.76 78.44 56.75 57.9"/><polygon class="cls-2" points="0.31 43.7 0.33 43.7 0.33 43.7 0.33 43.61 0.31 43.61 0.31 43.7"/><polygon class="cls-2" points="18.65 32.97 18.64 32.97 18.64 32.98 18.64 32.97 18.64 32.98 18.64 33.05 18.65 33.05 18.65 33.05 18.66 33.05 18.65 33.04 18.65 32.97"/><polygon class="cls-2" points="0.51 44.01 0.51 44.06 0.55 44.06 0.55 44.06 0.55 44.01 0.51 44.01 0.51 44.01"/><g class="cls-1"><polygon class="cls-4" points="15.07 4.5 20.71 1.23 20.61 34.65 14.97 37.92 15.07 4.5"/><polygon class="cls-5" points="14.97 37.92 20.61 34.65 56.8 55.53 51.16 58.81 14.97 37.92"/><polygon class="cls-6" points="22.11 25.71 22.07 42.02 14.97 37.92 15.02 21.62 22.11 25.71"/><polygon class="cls-7" points="22.11 25.71 27.75 22.44 27.71 38.74 22.07 42.02 22.11 25.71"/><polygon class="cls-8" points="15.02 21.62 20.66 18.34 27.75 22.44 22.11 25.71 15.02 21.62"/><polygon class="cls-5" points="12.94 3.28 18.58 0 20.71 1.23 15.07 4.5 12.94 3.28"/><polygon class="cls-4" points="51.16 58.81 56.8 55.53 56.79 57.98 51.15 61.25 51.16 58.81"/><polygon class="cls-9" points="15.07 4.5 14.97 37.92 51.16 58.81 51.15 61.25 12.84 39.14 12.94 3.28 15.07 4.5"/><polygon class="cls-10" points="50.46 53.51 56.1 50.23 56.09 55.13 50.45 58.4 50.46 53.51"/><polygon class="cls-11" points="43.39 40.45 49.03 37.17 48.99 51.03 43.35 54.31 43.39 40.45"/><polygon class="cls-12" points="50.46 53.51 50.45 58.4 43.35 54.31 43.37 49.41 50.46 53.51"/><polygon class="cls-13" points="43.37 49.41 49.01 46.14 56.1 50.23 50.46 53.51 43.37 49.41"/><polygon class="cls-14" points="36.34 22.49 41.98 19.22 41.9 46.94 36.26 50.21 36.34 22.49"/><polygon class="cls-15" points="36.3 36.35 43.39 40.45 43.35 54.31 36.26 50.21 36.3 36.35"/><polygon class="cls-16" points="36.3 36.35 41.94 33.08 49.03 37.17 43.39 40.45 36.3 36.35"/><polygon class="cls-17" points="22.16 8.6 27.8 5.32 34.9 9.42 29.26 12.7 22.16 8.6"/><polygon class="cls-18" points="29.26 12.7 34.9 9.42 34.81 42.84 29.17 46.12 29.26 12.7"/><polygon class="cls-19" points="29.26 12.7 29.17 46.12 22.07 42.02 22.16 8.6 29.26 12.7"/><polygon class="cls-20" points="36.34 22.49 36.26 50.21 29.17 46.12 29.25 18.4 36.34 22.49"/><polygon class="cls-21" points="29.25 18.4 34.88 15.12 41.98 19.22 36.34 22.49 29.25 18.4"/></g></g></g></svg>