<svg xmlns="http://www.w3.org/2000/svg" xmlns:xlink="http://www.w3.org/1999/xlink" viewBox="0 0 92.66 93.59"><defs><style>.cls-1{fill:#de7047;}.cls-2{isolation:isolate;}.cls-3{fill:none;}.cls-4{opacity:0.15;mix-blend-mode:multiply;fill:url(#Degradado_sin_nombre_5);}.cls-5{fill:#c9de91;}.cls-6{fill:#587aa2;}.cls-7{fill:#91b5e0;}.cls-8{fill:#75a2d9;}.cls-9{fill:#8da159;}.cls-10{fill:#bcd676;}.cls-11{fill:#e48c6c;}.cls-12{clip-path:url(#clip-path);}.cls-13{fill:#231f20;opacity:0.1;}</style><linearGradient id="Degradado_sin_nombre_5" x1="64.76" y1="89.29" x2="33.39" y2="33.98" gradientUnits="userSpaceOnUse"><stop offset="0" stop-opacity="0"/><stop offset="0.13" stop-opacity="0.34"/><stop offset="1"/></linearGradient><clipPath id="clip-path" transform="translate(-22.18 -5.98)"><path class="cls-1" d="M63.94,61.73V77.49c-9,1.39-19,0-26.09-4a16.62,16.62,0,0,1-7-7l.12-15.76a16.62,16.62,0,0,0,7,7C45.05,61.77,54.94,63.12,63.94,61.73Z"/></clipPath></defs><title>stats_pie_chart</title><g class="cls-2"><g id="Layer_1" data-name="Layer 1"><polygon class="cls-3" points="0 56.56 0.02 56.56 0.02 56.56 0.02 56.47 0 56.47 0 56.56"/><polygon class="cls-3" points="18.51 45.78 18.5 45.78 18.5 45.79 18.49 45.78 18.5 45.79 18.5 45.87 18.51 45.87 18.51 45.86 18.51 45.87 18.51 45.86 18.51 45.78"/><polygon class="cls-3" points="0.19 56.87 0.19 56.92 0.24 56.92 0.24 56.92 0.24 56.87 0.19 56.87 0.19 56.87"/><polygon class="cls-4" points="49.19 48.52 16.19 67.79 59.58 93.59 92.66 74.36 49.19 48.52"/><polygon class="cls-4" points="49.19 48.52 16.19 67.79 59.58 93.59 92.66 74.36 49.19 48.52"/><polygon class="cls-3" points="0.31 56.58 0.33 56.58 0.33 56.58 0.33 56.49 0.31 56.49 0.31 56.58"/><polygon class="cls-3" points="18.65 45.85 18.64 45.85 18.64 45.86 18.64 45.85 18.64 45.86 18.64 45.93 18.65 45.93 18.65 45.93 18.66 45.93 18.65 45.92 18.65 45.85"/><polygon class="cls-3" points="0.51 56.89 0.51 56.94 0.55 56.94 0.55 56.94 0.55 56.89 0.51 56.89 0.51 56.89"/><g class="cls-2"><polygon class="cls-5" points="34.81 15.64 34.7 56.4 15.82 45.02 15.82 4.58 34.81 15.64"/><polygon class="cls-6" points="34.81 26.64 34.7 56.4 8.82 60.45 8.82 30.69 34.81 26.64"/><path class="cls-7" d="M30,62.3V32.54a9.66,9.66,0,0,0,.94,4.13l-.12,29.76A9.52,9.52,0,0,1,30,62.3Z" transform="translate(-22.18 -5.98)"/><path class="cls-8" d="M57,32.62l-26.06,4C28.51,31.45,31,26.09,38,22Z" transform="translate(-22.18 -5.98)"/><path class="cls-9" d="M83.94,21.7V62.46c0,4-2.68,7.95-7.9,11a34.94,34.94,0,0,1-12.1,4V36.73a35.58,35.58,0,0,0,12.21-4C81.37,29.65,83.93,25.67,83.94,21.7Z" transform="translate(-22.18 -5.98)"/><path class="cls-10" d="M76,10.56c10.58,6.11,10.63,16,.12,22.12a35.58,35.58,0,0,1-12.21,4L57,21.62,38,10.56C48.51,4.45,65.45,4.45,76,10.56Z" transform="translate(-22.18 -5.98)"/><polygon class="cls-5" points="41.76 30.75 41.76 71.5 34.7 56.4 34.81 15.64 41.76 30.75"/><path class="cls-11" d="M57,46.62l7.07,15.11c-9,1.39-19,0-26.1-4a16.62,16.62,0,0,1-7-7Z" transform="translate(-22.18 -5.98)"/></g><line class="cls-3" x1="22.51" y1="77.39" x2="22.51" y2="38.52"/><path class="cls-1" d="M63.94,61.73V77.49c-9,1.39-19,0-26.09-4a16.62,16.62,0,0,1-7-7l.12-15.76a16.62,16.62,0,0,0,7,7C45.05,61.77,54.94,63.12,63.94,61.73Z" transform="translate(-22.18 -5.98)"/><g class="cls-12"><rect class="cls-13" x="24.82" y="31.54" width="27.94" height="47.48"/></g></g></g></svg>