<svg xmlns="http://www.w3.org/2000/svg" xmlns:xlink="http://www.w3.org/1999/xlink" viewBox="0 0 77.94 81.97"><defs><style>.cls-1{isolation:isolate;}.cls-2{fill:none;}.cls-3{opacity:0.15;mix-blend-mode:multiply;fill:url(#Degradado_sin_nombre_2);}.cls-4{fill:#535456;}.cls-5{fill:#68696b;}.cls-6{fill:#87898c;}.cls-7{fill:#759b4e;}.cls-8{fill:#a8bc6c;}.cls-9{fill:#a6c97d;}.cls-10{fill:#d3e892;}.cls-11{fill:#80b34f;}.cls-12{fill:#bcd676;}.cls-13{fill:#de7047;}</style><linearGradient id="Degradado_sin_nombre_2" x1="67.54" y1="85.96" x2="45.84" y2="49.14" gradientUnits="userSpaceOnUse"><stop offset="0" stop-opacity="0"/><stop offset="1"/></linearGradient></defs><title>stock_market</title><g class="cls-1"><g id="Layer_1" data-name="Layer 1"><polygon class="cls-2" points="5.67 32.9 5.65 32.9 5.65 32.91 5.65 32.9 5.65 32.91 5.65 32.99 5.67 32.99 5.67 32.98 5.67 32.99 5.67 32.98 5.67 32.9"/><polygon class="cls-3" points="43.91 57.9 38.31 61.25 72.31 81.97 77.94 78.73 43.91 57.9"/><polygon class="cls-3" points="43.91 57.9 38.31 61.25 72.31 81.97 77.94 78.73 43.91 57.9"/><polygon class="cls-2" points="5.81 32.97 5.8 32.97 5.8 32.98 5.8 32.97 5.8 32.98 5.8 33.05 5.81 33.05 5.81 33.05 5.81 33.05 5.81 33.04 5.81 32.97"/><g class="cls-1"><polygon class="cls-4" points="2.23 4.5 7.87 1.23 7.77 34.65 2.13 37.92 2.23 4.5"/><polygon class="cls-5" points="2.13 37.92 7.77 34.65 43.95 55.53 38.31 58.81 2.13 37.92"/><polygon class="cls-5" points="0.1 3.28 5.74 0 7.87 1.23 2.23 4.5 0.1 3.28"/><polygon class="cls-4" points="38.31 58.81 43.95 55.53 43.95 57.98 38.31 61.25 38.31 58.81"/><polygon class="cls-6" points="2.23 4.5 2.13 37.92 38.31 58.81 38.31 61.25 0 39.14 0.1 3.28 2.23 4.5"/><g class="cls-1"><polygon class="cls-7" points="7.37 16.79 13.01 13.52 17.77 19.42 12.13 22.7 7.37 16.79"/><polygon class="cls-8" points="12.13 22.7 17.77 19.42 22.72 25.59 17.09 28.86 12.13 22.7"/><polygon class="cls-7" points="17.09 28.86 22.72 25.59 23.65 26.73 18.01 30.01 17.09 28.86"/><polygon class="cls-9" points="20.73 26.18 26.37 22.9 27.7 22.79 22.06 26.07 20.73 26.18"/><polygon class="cls-10" points="22.06 26.07 27.7 22.79 32.68 22.36 27.04 25.64 22.06 26.07"/><polygon class="cls-9" points="27.04 25.64 32.68 22.36 37.65 21.94 32.02 25.21 27.04 25.64"/><polygon class="cls-11" points="7.17 17.08 7.13 30.57 7.1 40.79 12.07 43.66 12.1 31.76 12.13 22.7 7.37 16.79 7.17 17.08"/><polygon class="cls-11" points="18.01 30.01 17.09 28.86 17.06 37.92 17.04 46.52 22 49.39 22.02 41.9 22.06 26.07 20.73 26.18 18.01 30.01"/><polygon class="cls-11" points="27.04 25.64 26.99 41.48 26.96 52.26 31.93 55.13 31.97 41.05 32.02 25.21 27.04 25.64"/><polygon class="cls-7" points="36.99 24.79 36.95 40.62 36.9 57.99 42.54 54.72 42.59 37.34 42.63 21.51 36.99 24.79"/><polygon class="cls-10" points="32.02 25.21 37.65 21.94 42.63 21.51 36.99 24.79 32.02 25.21"/><polygon class="cls-12" points="2.15 31 2.13 37.92 7.1 40.79 7.13 30.57 7.17 17.08 2.17 24.09 2.15 31"/><polygon class="cls-12" points="12.1 31.76 12.07 43.66 17.04 46.52 17.06 37.92 17.09 28.86 12.13 22.7 12.1 31.76"/><polygon class="cls-12" points="22.02 41.9 22 49.39 26.96 52.26 26.99 41.48 27.04 25.64 22.06 26.07 22.02 41.9"/><polygon class="cls-12" points="32.02 25.21 31.97 41.05 31.93 55.13 36.9 57.99 36.95 40.62 36.99 24.79 32.02 25.21"/></g><path class="cls-13" d="M76.45,43.51l-.25-.72L76,42.44l-.26-.36-.22-.24-.26-.22-.18-.12L67.22,37c-.79-.45-1.42-.08-1.42.81a3.16,3.16,0,0,0,1,2.16L72.6,43.4l1-1.38-1,1.38,1.16.69L72.6,43.4l-1.39,2h0l-1.3,1.82a2.39,2.39,0,0,0,.52,2.53,2.52,2.52,0,0,0,.31.33,2.28,2.28,0,0,0,.39.29c.49.28,1,.27,1.23-.1l2-2.82,2-2.78.1-.19.06-.26v-.31C76.49,43.78,76.48,43.7,76.45,43.51Z" transform="translate(-35.02 -18.86)"/><path class="cls-13" d="M73.84,41.49l-17,1.46a4.62,4.62,0,0,0-3.37,1.93l-.17.24a.41.41,0,0,1-.66,0L43.84,34.26a1.86,1.86,0,0,0-3,.09l-3.67,5.3,0,6.38,6.12-8a.54.54,0,0,1,.85,0l8,9.89a1.26,1.26,0,0,0,2-.06h0a1.78,1.78,0,0,1,1.3-.74l18.79-1.61Z" transform="translate(-35.02 -18.86)"/></g></g></g></svg>