<svg xmlns="http://www.w3.org/2000/svg" xmlns:xlink="http://www.w3.org/1999/xlink" viewBox="0 0 91.07 82.38"><defs><style>.cls-1{isolation:isolate;}.cls-2{fill:none;}.cls-3{opacity:0.15;mix-blend-mode:multiply;fill:url(#Degradado_sin_nombre_5);}.cls-4{fill:#5e4231;}.cls-5{fill:#73513d;}.cls-6{fill:#7e5942;}.cls-7{fill:#f7d11a;}.cls-8{fill:#d8b717;}.cls-9{fill:#bda014;}.cls-10{fill:#f7c90b;}.cls-11{fill:#e9d77e;}</style><linearGradient id="Degradado_sin_nombre_5" x1="72.42" y1="81.86" x2="51.35" y2="46.1" gradientUnits="userSpaceOnUse"><stop offset="0" stop-opacity="0"/><stop offset="1"/></linearGradient></defs><title>trophy</title><g class="cls-1"><g id="Layer_1" data-name="Layer 1"><polygon class="cls-2" points="0 48.17 0.02 48.17 0.02 48.17 0.02 48.08 0 48.08 0 48.17"/><polygon class="cls-2" points="18.51 37.39 18.5 37.39 18.5 37.4 18.49 37.39 18.5 37.4 18.5 37.48 18.51 37.48 18.51 37.47 18.51 37.47 18.51 37.46 18.51 37.39"/><polygon class="cls-2" points="0.19 48.48 0.19 48.53 0.24 48.53 0.24 48.53 0.24 48.48 0.19 48.48 0.19 48.48"/><polygon class="cls-3" points="57.55 50.24 35.47 62.86 69.48 82.38 91.07 69.79 57.55 50.24"/><polygon class="cls-3" points="57.55 50.24 35.47 62.86 69.48 82.38 91.07 69.79 57.55 50.24"/><polygon class="cls-2" points="0.31 48.19 0.33 48.19 0.33 48.19 0.33 48.1 0.31 48.1 0.31 48.19"/><polygon class="cls-2" points="18.65 37.46 18.64 37.46 18.64 37.46 18.64 37.46 18.64 37.46 18.64 37.54 18.65 37.54 18.65 37.54 18.66 37.54 18.65 37.53 18.65 37.46"/><polygon class="cls-2" points="0.51 48.5 0.51 48.54 0.55 48.54 0.55 48.54 0.55 48.49 0.51 48.49 0.51 48.5"/><g class="cls-1"><polygon class="cls-4" points="35.47 53.39 49.56 45.2 57.55 50.24 35.47 62.86 35.47 53.39"/><polygon class="cls-5" points="20.71 44.87 34.81 36.68 49.56 45.2 35.47 53.39 20.71 44.87"/><polygon class="cls-6" points="35.47 53.39 35.47 62.86 12.09 50.47 20.71 44.87 35.47 53.39"/></g><g class="cls-1"><path class="cls-7" d="M37.8,19.89l3.52-2a1.61,1.61,0,0,1,1.59.21L49.69,22l-3.52,2L39.39,20.1A1.61,1.61,0,0,0,37.8,19.89Z" transform="translate(-22.18 -14.37)"/><path class="cls-8" d="M46.17,24l.31,2.62-3.55-2c-1.19-.69-1.73-.5-1.42,1.63,1.61,11.3,4,15.4,7.05,18.77l.77,2.41c-7.81-5.47-12.09-18.32-12.07-26.24,0-1.37.94-1.75,2.14-1.06Z" transform="translate(-22.18 -14.37)"/></g><path class="cls-9" d="M41,24.39c0,4.39,4.91,8.09,11.62,9.24V15.14C45.93,16.3,41,20,41,24.39Z" transform="translate(-22.18 -14.37)"/><path class="cls-8" d="M57.08,14.76a26.14,26.14,0,0,0-4.44.38V33.63a26.18,26.18,0,0,0,4.44.38C66,34,73.14,29.7,73.14,24.39S66,14.76,57.08,14.76Z" transform="translate(-22.18 -14.37)"/><path class="cls-9" d="M60.23,55.71s0,0,0,0a1,1,0,0,1-.31.67,4.35,4.35,0,0,1-3.16,1,4,4,0,0,1-.62-.14v3.5a4.72,4.72,0,0,0,3.18-.36,1.52,1.52,0,0,0,.92-1.26Z" transform="translate(-22.18 -14.37)"/><path class="cls-8" d="M54.84,56.68a1.11,1.11,0,0,1-.61-1c0,1,0,2.42,0,3.46a1.47,1.47,0,0,0,.83,1.2,3.63,3.63,0,0,0,1.06.41V57.3A4.59,4.59,0,0,1,54.84,56.68Z" transform="translate(-22.18 -14.37)"/><g class="cls-1"><path class="cls-10" d="M74,27v0c.66-2.87-.86-5.89-4.6-8.13.11-.75,0-1.24-.39-1.46a14.51,14.51,0,0,1,2.33,1.74,9.7,9.7,0,0,1,2,2.68,7.64,7.64,0,0,1,.78,2.55,7.16,7.16,0,0,1,0,1.38A10.87,10.87,0,0,1,74,27Z" transform="translate(-22.18 -14.37)"/><path class="cls-10" d="M69.26,47.81,70,44.47l.28-1.24,2.6-11.4c.37-1.62.73-3.25,1.12-4.87v0C73.72,28.27,70.78,41.2,69.26,47.81Z" transform="translate(-22.18 -14.37)"/><path class="cls-10" d="M74,27c-.32,1.35-3.26,14.28-4.77,20.88v0c.35-1.5,2-8.79,2.84-12.41C72.74,32.58,73.38,29.76,74,27Z" transform="translate(-22.18 -14.37)"/><path class="cls-10" d="M40.26,27.05c.67,2.81,1.32,5.62,2,8.43,2.15,9.2,2.37,10.14,2.91,12.4-1.55-6.6-4.57-19.51-4.89-20.86Z" transform="translate(-22.18 -14.37)"/><path class="cls-10" d="M45.15,47.88v0c-1.55-6.59-4.57-19.51-4.89-20.85.39,1.62.76,3.24,1.14,4.87l2.67,11.39.29,1.24Z" transform="translate(-22.18 -14.37)"/><path class="cls-10" d="M67.44,17.57h0c-5.45-3.28-14.47-3.37-20.15-.2s-5.87,8.39-.42,11.67,14.47,3.37,20.15.2,5.87-8.39.42-11.67h0c5.46,3.29,5.27,8.52-.42,11.7s-14.73,3.08-20.19-.2-5.27-8.52.42-11.7S62,14.28,67.44,17.57Z" transform="translate(-22.18 -14.37)"/></g><path class="cls-2" d="M47.25,17.37c-5.69,3.17-5.88,8.41-.42,11.7.34.21.7.4,1.06.58,5.51,2.71,13.79,2.6,19.13-.37,5.69-3.17,5.88-8.41.42-11.7S52.94,14.19,47.25,17.37Z" transform="translate(-22.18 -14.37)"/><path class="cls-7" d="M74.19,24.33a7.58,7.58,0,0,0-.69-2.41,9.6,9.6,0,0,0-1.71-2.44,14.74,14.74,0,0,0-1.35-1.21c-.4-.31-1-.67-1.39-.95a1.67,1.67,0,0,0-1.61.24c5.46,3.29,5.27,8.52-.42,11.7-5.34,3-13.62,3.08-19.13.37a5.6,5.6,0,0,0-.81,4c6.55,2.77,15.79,2.5,21.86-.88C71.83,31.14,73.53,29.08,74,27A7.65,7.65,0,0,0,74.19,24.33Z" transform="translate(-22.18 -14.37)"/><path class="cls-11" d="M47.89,29.64c-.37-.18-.72-.37-1.06-.58-5.46-3.29-5.27-8.52.42-11.7s14.73-3.08,20.2.2A1.67,1.67,0,0,1,69,17.33a23.88,23.88,0,0,0-11.58-3,27.4,27.4,0,0,0-6.16.63,20.84,20.84,0,0,0-5.58,2.07,14.14,14.14,0,0,0-2.81,2,9.81,9.81,0,0,0-1.79,2.21,7.8,7.8,0,0,0-1,3,7.27,7.27,0,0,0,0,1.47,10.46,10.46,0,0,0,.2,1.26c.48,2,2,3.9,4.58,5.45a17.74,17.74,0,0,0,2.24,1.12A5.6,5.6,0,0,1,47.89,29.64Z" transform="translate(-22.18 -14.37)"/><path class="cls-7" d="M47.09,33.62a17.74,17.74,0,0,1-2.24-1.12C42.26,31,40.74,29,40.26,27.05c.33,1.35,3.34,14.26,4.89,20.85a6.58,6.58,0,0,0,3.27,3.89,12.94,12.94,0,0,0,1.91.94l-3.25-19.1Z" transform="translate(-22.18 -14.37)"/><path class="cls-8" d="M68.94,32.75c-6.06,3.38-15.31,3.65-21.86.88h0l3.25,19.1C55,54.57,61.4,54.33,65.63,52a6.83,6.83,0,0,0,3.63-4.14C70.77,41.23,73.71,28.3,74,27,73.53,29.08,71.83,31.14,68.94,32.75Z" transform="translate(-22.18 -14.37)"/><path class="cls-7" d="M48.42,51.79a6.59,6.59,0,0,1-3.27-3.88,17,17,0,0,0,2.14,5.21A11.59,11.59,0,0,0,51,56.76l-.69-4A12.94,12.94,0,0,1,48.42,51.79Z" transform="translate(-22.18 -14.37)"/><path class="cls-8" d="M45.15,47.9h0v0Z" transform="translate(-22.18 -14.37)"/><path class="cls-8" d="M69.26,47.81v0h0Z" transform="translate(-22.18 -14.37)"/><path class="cls-8" d="M65.63,52c-4.23,2.36-10.64,2.6-15.29.76l.69,4a12.26,12.26,0,0,0,11.44.5,11.33,11.33,0,0,0,4.26-3.57,13.65,13.65,0,0,0,1.36-2.34,18.27,18.27,0,0,0,1.17-3.51A6.84,6.84,0,0,1,65.63,52Z" transform="translate(-22.18 -14.37)"/><g class="cls-1"><path class="cls-10" d="M70.47,51.38l-3.52,2a4.93,4.93,0,0,1-2.78.57l3.52-2A4.93,4.93,0,0,0,70.47,51.38Z" transform="translate(-22.18 -14.37)"/><path class="cls-8" d="M66.66,35.84l3.52-2L77,37.71l-3.52,2Z" transform="translate(-22.18 -14.37)"/><path class="cls-9" d="M73.81,53.48l-3.52,2c3.42-2,5.26-7.11,5.27-12.26a4.33,4.33,0,0,0-2.12-3.52l3.52-2a4.32,4.32,0,0,1,2.12,3.52C79.07,46.37,77.23,51.49,73.81,53.48Z" transform="translate(-22.18 -14.37)"/><path class="cls-7" d="M73.44,39.75a4.33,4.33,0,0,1,2.12,3.52c0,7.92-4.36,15.79-12.17,12.25L64.16,54c3,.13,5.46-1.17,7.14-10.58a2.66,2.66,0,0,0-1.41-3.27l-3.55-2,.32-2.26Z" transform="translate(-22.18 -14.37)"/></g></g></g></svg>