<svg xmlns="http://www.w3.org/2000/svg" xmlns:xlink="http://www.w3.org/1999/xlink" viewBox="0 0 53.7 72.76"><defs><style>.cls-1{fill:none;}.cls-2{isolation:isolate;}.cls-3{opacity:0.15;mix-blend-mode:multiply;fill:url(#Degradado_sin_nombre_4);}.cls-4{fill:#47475e;}.cls-5{fill:#707082;}.cls-6{fill:#90909e;}.cls-7{clip-path:url(#clip-path);}.cls-8{fill:#b3b3b3;}.cls-9{fill:#b8b8b8;}.cls-10{fill:#adadad;}.cls-11{fill:#a8a8a8;}.cls-12{fill:#dedcd9;}.cls-13{clip-path:url(#clip-path-2);}.cls-14{fill:#3e3e52;}.cls-15{fill:#dcdcdc;}.cls-16{fill:#a6a3a1;}</style><linearGradient id="Degradado_sin_nombre_4" x1="64.24" y1="88.49" x2="50.21" y2="64.67" gradientUnits="userSpaceOnUse"><stop offset="0" stop-opacity="0"/><stop offset="0.14" stop-opacity="0.53"/><stop offset="1"/></linearGradient><clipPath id="clip-path" transform="translate(-25.45 -18)"><path class="cls-1" d="M55.5,19.9l-.08,27.72c-.1,0-10.23,2.4-14.53,8.44-4.48,6.28-15,8.74-15.08,8.76l.08-27.72c.11,0,10.6-2.48,15.08-8.76C45.27,22.3,55.4,19.93,55.5,19.9Z"/></clipPath><clipPath id="clip-path-2" transform="translate(-25.45 -18)"><path class="cls-1" d="M25.9,37.11c.11,0,10.6-2.48,15.08-8.76C45.2,22.4,55.06,20,55.49,19.91l-.08,27.7c-.43.1-10.29,2.5-14.51,8.44-4.48,6.28-15,8.74-15.08,8.76l.08-27.7"/></clipPath></defs><title>checkered_flag</title><g class="cls-2"><g id="Layer_1" data-name="Layer 1"><polygon class="cls-1" points="15.24 33.77 15.23 33.77 15.23 33.77 15.23 33.77 15.23 33.77 15.23 33.85 15.24 33.85 15.24 33.84 15.24 33.85 15.24 33.84 15.24 33.77"/><path class="cls-3" d="M79.14,78.94l-22.64-13-1.32.9,9.87,6s-7.23,4-12.53,6.46-12.75,2.54-12.75,2.54l14,8.07a6.62,6.62,0,0,0,6.64,0l17.09-9.94h0Z" transform="translate(-25.45 -18)"/><polygon class="cls-1" points="15.39 33.83 15.38 33.83 15.38 33.84 15.38 33.83 15.38 33.84 15.38 33.91 15.39 33.91 15.39 33.91 15.39 33.91 15.39 33.9 15.39 33.83"/><path class="cls-4" d="M56,18.5V67c.55,0,1-.22,1-.5v-48Z" transform="translate(-25.45 -18)"/><path class="cls-5" d="M55,18.5v48c0,.28.45.5,1,.5V18.5Z" transform="translate(-25.45 -18)"/><ellipse class="cls-6" cx="30.55" cy="0.5" rx="1" ry="0.5"/><g class="cls-2"><g class="cls-2"><g class="cls-7"><g class="cls-2"><path class="cls-8" d="M55.5,19.9l-.08,27.72s-.81.19-2,.58l.08-27.72c1.21-.39,2-.57,2-.58" transform="translate(-25.45 -18)"/><path class="cls-9" d="M53.48,20.48,53.4,48.2a35,35,0,0,0-7.19,3.2l.08-27.72a35,35,0,0,1,7.19-3.2" transform="translate(-25.45 -18)"/><path class="cls-8" d="M46.29,23.68,46.21,51.4a21,21,0,0,0-3.38,2.5l.08-27.72a20.9,20.9,0,0,1,3.38-2.5" transform="translate(-25.45 -18)"/><path class="cls-10" d="M42.9,26.18,42.82,53.9a14.57,14.57,0,0,0-1.57,1.69l.08-27.72a14.57,14.57,0,0,1,1.57-1.69" transform="translate(-25.45 -18)"/><path class="cls-11" d="M41.33,27.87l-.08,27.72-.36.48-.37.49.08-27.72.37-.49.36-.48" transform="translate(-25.45 -18)"/><path class="cls-10" d="M40.6,28.84l-.08,27.72a15.15,15.15,0,0,1-1.63,1.75L39,30.59a15.14,15.14,0,0,0,1.63-1.75" transform="translate(-25.45 -18)"/><path class="cls-8" d="M39,30.59l-.08,27.72a21.77,21.77,0,0,1-3.52,2.6l.08-27.72A21.79,21.79,0,0,0,39,30.59" transform="translate(-25.45 -18)"/><path class="cls-9" d="M35.46,33.19,35.38,60.9a36.28,36.28,0,0,1-7.46,3.32L28,36.51a36.26,36.26,0,0,0,7.46-3.32" transform="translate(-25.45 -18)"/><path class="cls-8" d="M28,36.51l-.08,27.72c-1.26.4-2.07.59-2.1.6l.08-27.72s.84-.2,2.1-.6" transform="translate(-25.45 -18)"/></g><path class="cls-12" d="M43.62,39.29a27,27,0,0,1,6.45-3.79,49.05,49.05,0,0,0-4.44-4.64,21.36,21.36,0,0,0-2,1.45l0,7M29.7,49.67a31.76,31.76,0,0,0,7.53-3.91l0-7a31.73,31.73,0,0,1-7.53,3.91l0,7M51.15,42c1-.38,1.87-.68,2.58-.9a25.92,25.92,0,0,0-2.56-4.21V42M37.21,52.73a16.44,16.44,0,0,0,3.71-3.65,14.86,14.86,0,0,1,2.68-2.82l0-7a14.8,14.8,0,0,0-2.68,2.82,16.47,16.47,0,0,1-3.71,3.65l0,7M25.86,50.87l0,7a37.82,37.82,0,0,0,3.84-1.2l0-7a35,35,0,0,1-3.84,1.2M55.47,26.7l0-6.79,0,6.79m0,0,0,7,0-7m0,13.94,0,7,0-13.94,0,7M37.26,32l0,6.8A16.45,16.45,0,0,0,41,35.14a14.88,14.88,0,0,1,2.68-2.82V29.08l-1.92-1.69c-.26.31-.52.62-.75,1A16.46,16.46,0,0,1,37.26,32M25.9,37.11l0,6.8a37.69,37.69,0,0,0,3.84-1.2l0-6.8a34.81,34.81,0,0,1-3.84,1.2M43.58,53.23A28.35,28.35,0,0,1,51.13,49l0-7a28.37,28.37,0,0,0-7.56,4.24l0,7M29.66,63.61a31.74,31.74,0,0,0,7.53-3.91l0-7a31.74,31.74,0,0,1-7.53,3.91l0,7" transform="translate(-25.45 -18)"/><g class="cls-13"><path class="cls-4" d="M43.63,32.32a21.36,21.36,0,0,1,2-1.45c-.6-.55-1.07-1-2-1.79v3.24M29.74,35.9l0,6.8a31.73,31.73,0,0,0,7.53-3.91l0-6.8a31.73,31.73,0,0,1-7.53,3.91m7.49,9.85a16.47,16.47,0,0,0,3.71-3.65,14.8,14.8,0,0,1,2.68-2.82l0-7A14.88,14.88,0,0,0,41,35.14a16.45,16.45,0,0,1-3.71,3.65l0,7M25.88,43.9l0,7a35,35,0,0,0,3.84-1.2l0-7a38.48,38.48,0,0,1-3.84,1.2M43.6,46.26A28.37,28.37,0,0,1,51.15,42V36.92c-.33-.43-.77-1-1.1-1.41a27,27,0,0,0-6.45,3.79l0,7M29.68,56.64a31.74,31.74,0,0,0,7.53-3.91l0-7a31.76,31.76,0,0,1-7.53,3.91l0,7M51.13,49a34.61,34.61,0,0,1,4.27-1.38,16.78,16.78,0,0,0-1.68-6.49c-.71.22-1.59.52-2.58.9l0,7M37.19,59.69A16.46,16.46,0,0,0,40.9,56a14.85,14.85,0,0,1,2.68-2.82l0-7a14.86,14.86,0,0,0-2.68,2.82,16.44,16.44,0,0,1-3.71,3.65l0,7M25.84,57.85l0,7a37.86,37.86,0,0,0,3.84-1.2l0-7a38.63,38.63,0,0,1-3.84,1.2" transform="translate(-25.45 -18)"/><path class="cls-14" d="M43.65,25.52v3.55c.68.6,1.22,1.08,2,1.79a31.68,31.68,0,0,1,5.57-2.79l0-6.79a28.37,28.37,0,0,0-7.56,4.24m7.52,9.53a34.69,34.69,0,0,1,4.27-1.38l0-7a34.78,34.78,0,0,0-4.27,1.38l0,7m0,1.86V35.05l-1.11.45c.34.42.78,1,1.1,1.41m4.24,10.7,0-7c-.1,0-.73.18-1.7.48a17,17,0,0,1,1.68,6.49" transform="translate(-25.45 -18)"/></g></g></g><polygon class="cls-15" points="0.45 19.11 0.37 46.82 0 46.28 0.08 18.57 0.45 19.11"/><path class="cls-16" d="M55.13,19.37l.37.54c-.1,0-10.23,2.4-14.53,8.44-4.48,6.28-15,8.74-15.08,8.76l-.37-.54c.09,0,10.22-2.4,14.52-8.45C44.52,21.85,55,19.39,55.13,19.37Z" transform="translate(-25.45 -18)"/></g></g></g></svg>