<svg id="Icons" xmlns="http://www.w3.org/2000/svg" viewBox="0 0 40.53 45.24"><title>70</title><g id="_Group_" data-name=" Group "><path id="_Path_" data-name=" Path " d="M38.35,5.49a4.62,4.62,0,0,0-5-.38,4.59,4.59,0,0,0-3.9-2.81,4.66,4.66,0,0,0-3.92,1.35,4.57,4.57,0,0,0-5-.92c-2.52,1-3.89,3.51-2.61,6.78s5.41,7.87,7.92,6.89a2,2,0,0,0,.56-.34,2.53,2.53,0,0,0,1.5.83,2.34,2.34,0,0,0,1.29-.29,2.2,2.2,0,0,0,.7.88c2.21,1.56,7.33-1.91,9.35-4.78S40.56,7,38.35,5.49Z" transform="translate(-2.47 -1.76)" style="fill:#ff866e"/><path id="_Path_2" data-name=" Path 2" d="M20.54,5.67a4.57,4.57,0,0,1,5,.92,4.66,4.66,0,0,1,3.92-1.35,4.57,4.57,0,0,1,3.9,2.81,4.62,4.62,0,0,1,5,.38,4.9,4.9,0,0,1,1.85,2.39,4.61,4.61,0,0,0-1.85-5.33,4.62,4.62,0,0,0-5-.38,4.59,4.59,0,0,0-3.9-2.81,4.66,4.66,0,0,0-3.92,1.35,4.57,4.57,0,0,0-5-.92,4.7,4.7,0,0,0-2.89,5.91A4.66,4.66,0,0,1,20.54,5.67Z" transform="translate(-2.47 -1.76)" style="fill:#ffa694"/><path id="_Path_3" data-name=" Path 3" d="M38.35,5.49a4.62,4.62,0,0,0-5-.38,4.59,4.59,0,0,0-3.9-2.81,4.66,4.66,0,0,0-3.92,1.35,4.57,4.57,0,0,0-5-.92c-2.52,1-3.89,3.51-2.61,6.78s5.41,7.87,7.92,6.89a2,2,0,0,0,.56-.34,2.53,2.53,0,0,0,1.5.83,2.34,2.34,0,0,0,1.29-.29,2.2,2.2,0,0,0,.7.88c2.21,1.56,7.33-1.91,9.35-4.78S40.56,7,38.35,5.49Z" transform="translate(-2.47 -1.76)" style="fill:none;stroke:#45413c;stroke-linecap:round;stroke-linejoin:round"/><ellipse id="_Ellipse_" data-name=" Ellipse " cx="23.56" cy="43.7" rx="11.84" ry="1.54" style="fill:#45413c;opacity:0.15000000596046448;isolation:isolate"/><circle id="_Path_4" data-name=" Path 4" cx="24.07" cy="23.83" r="15.96" style="fill:#f0f0f0"/><path id="_Path_5" data-name=" Path 5" d="M26.54,14A15.94,15.94,0,0,1,42.33,27.78a16,16,0,1,0-31.58,0A15.94,15.94,0,0,1,26.54,14Z" transform="translate(-2.47 -1.76)" style="fill:#fff"/><circle id="_Path_6" data-name=" Path 6" cx="24.07" cy="23.83" r="15.96" style="fill:none;stroke:#45413c;stroke-linecap:round;stroke-linejoin:round"/><path id="_Path_7" data-name=" Path 7" d="M17.27,38.56c0,3-1.84,4.53-4.11,4.53S9,41.52,9,38.56s1.84-7.82,4.12-7.82S17.27,35.61,17.27,38.56Z" transform="translate(-2.47 -1.76)" style="fill:#ff866e"/><path id="_Path_8" data-name=" Path 8" d="M9.25,36.61a11.41,11.41,0,0,0,4.33.55A6.4,6.4,0,0,0,16.94,36c-.63-2.6-2.09-5.31-3.78-5.31S9.8,33.85,9.25,36.61Z" transform="translate(-2.47 -1.76)" style="fill:#ff6242"/><path id="_Path_9" data-name=" Path 9" d="M17.27,38.56c0,3-1.84,4.53-4.11,4.53S9,41.52,9,38.56s1.84-7.82,4.12-7.82S17.27,35.61,17.27,38.56Z" transform="translate(-2.47 -1.76)" style="fill:none;stroke:#45413c;stroke-linecap:round;stroke-linejoin:round"/><path id="_Path_10" data-name=" Path 10" d="M3.89,30.22S7,34.15,11.61,33.83s4.12-5.15,4.12-5.15Z" transform="translate(-2.47 -1.76)" style="fill:#ebcb00;stroke:#45413c;stroke-linecap:round;stroke-linejoin:round"/><path id="_Path_11" data-name=" Path 11" d="M11.61,20A7.49,7.49,0,0,0,7,22.07a14.57,14.57,0,0,0-4,7.36,1,1,0,0,0,.69,1.2c2.81.88,7.18.48,10,.19,3.09-.32,3-2.06,2.06-3.6S11,24.84,11.61,20Z" transform="translate(-2.47 -1.76)" style="fill:#ffe500"/><path id="_Path_12" data-name=" Path 12" d="M3.67,30.62a14.06,14.06,0,0,1,4.22-5.46A10.81,10.81,0,0,1,12,23.3a5.9,5.9,0,0,1-.39-3.3A7.49,7.49,0,0,0,7,22.07a14.53,14.53,0,0,0-4,7.36A1,1,0,0,0,3.67,30.62Z" transform="translate(-2.47 -1.76)" style="fill:#fff48c"/><path id="_Path_13" data-name=" Path 13" d="M11.61,20A7.49,7.49,0,0,0,7,22.07a14.57,14.57,0,0,0-4,7.36,1,1,0,0,0,.69,1.2c2.81.88,7.18.48,10,.19,3.09-.32,3-2.06,2.06-3.6S11,24.84,11.61,20Z" transform="translate(-2.47 -1.76)" style="fill:none;stroke:#45413c;stroke-linecap:round;stroke-linejoin:round"/><circle id="_Path_14" data-name=" Path 14" cx="17.74" cy="19.05" r="1.4" style="fill:#45413c;stroke:#45413c;stroke-linecap:round;stroke-linejoin:round"/><path id="_Path_15" data-name=" Path 15" d="M26.54,26.62c0,.55-.69,1-1.54,1s-1.55-.45-1.55-1,.69-1,1.55-1S26.54,26.07,26.54,26.62Z" transform="translate(-2.47 -1.76)" style="fill:#fcd"/></g></svg>