<svg id="Icons" xmlns="http://www.w3.org/2000/svg" viewBox="0 0 44.37 25.86"><title>73</title><ellipse id="_Ellipse_" data-name=" Ellipse " cx="22.53" cy="24.36" rx="15.5" ry="1.5" style="fill:#45413c;opacity:0.15000000596046448;isolation:isolate"/><path id="_Path_" data-name=" Path " d="M23.12,20.73A5,5,0,0,0,20,26.61a5,5,0,0,0,5.89,3.17l5.37-1.61-1.5-2.94L25.47,26.5a1.48,1.48,0,0,1-.85-2.83l19-5.68-.93-3.11Z" transform="translate(-2.02 -13.14)" style="fill:#ffe500"/><g id="_Group_" data-name=" Group "><path id="_Path_2" data-name=" Path 2" d="M23.12,22.47l6.51-2,2.54-.77,10.47-3.13.46,1.52.47-.15-.93-3.11L32.17,18l-2.54.76-6.51,2a5,5,0,0,0-3.25,5.54A4.94,4.94,0,0,1,23.12,22.47Z" transform="translate(-2.02 -13.14)" style="fill:#fff48c"/><path id="_Path_3" data-name=" Path 3" d="M25.47,26.5a1.47,1.47,0,0,1-1.62-.5,1.48,1.48,0,0,0,1.62,2.29h0L29.71,27l.73,1.43.77-.23-1.5-2.94Z" transform="translate(-2.02 -13.14)" style="fill:#fff48c"/></g><path id="_Path_4" data-name=" Path 4" d="M23.12,20.73A5,5,0,0,0,20,26.61a5,5,0,0,0,5.89,3.17l5.37-1.61-1.5-2.94L25.47,26.5a1.48,1.48,0,0,1-.85-2.83l19-5.68-.93-3.11Z" transform="translate(-2.02 -13.14)" style="fill:none;stroke:#45413c;stroke-linecap:round;stroke-linejoin:round"/><path id="_Rectangle_" data-name=" Rectangle " d="M40.29,15.26l2.26-.68h0l1.19,4h0l-2.26.68A1.18,1.18,0,0,1,40,18.47l-.52-1.72a1.18,1.18,0,0,1,.77-1.48Z" transform="translate(-2.02 -13.14)" style="fill:#ffe500"/><path id="_Path_5" data-name=" Path 5" d="M40.29,15.28a1.18,1.18,0,0,0-.79,1.47h0l.5,1.69A1.18,1.18,0,0,1,40.8,17l2.27-.67-.51-1.7Z" transform="translate(-2.02 -13.14)" style="fill:#fff48c"/><path id="_Rectangle_2" data-name=" Rectangle 2" d="M40.29,15.26l2.26-.68h0l1.19,4h0l-2.26.68A1.18,1.18,0,0,1,40,18.47l-.52-1.72a1.18,1.18,0,0,1,.77-1.48Z" transform="translate(-2.02 -13.14)" style="fill:none;stroke:#45413c;stroke-linecap:round;stroke-linejoin:round"/><path d="M45.84,17.31,45,14.49a1.18,1.18,0,1,0-2.26.67h0L43.57,18a1.18,1.18,0,1,0,2.27-.68Z" transform="translate(-2.02 -13.14)" style="fill:#ffe500"/><path id="_Path_6" data-name=" Path 6" d="M43.52,13.69a1.18,1.18,0,0,0-.79,1.47h0L43.27,17a1.18,1.18,0,0,1,2.26-.68h0L45,14.49A1.19,1.19,0,0,0,43.52,13.69Z" transform="translate(-2.02 -13.14)" style="fill:#fff48c"/><path d="M45.84,17.31,45,14.49a1.18,1.18,0,1,0-2.26.67h0L43.57,18a1.18,1.18,0,1,0,2.27-.68Z" transform="translate(-2.02 -13.14)" style="fill:none;stroke:#45413c;stroke-linecap:round;stroke-linejoin:round"/><path d="M30.48,29.25,27,17.57a.72.72,0,0,0-.92-.43l-1.47.44a.74.74,0,0,0-.54.87l3.5,11.68a1.54,1.54,0,0,0,2.93-.88Z" transform="translate(-2.02 -13.14)" style="fill:#ffe500"/><path d="M33.42,28.43,29.93,16.74a.74.74,0,0,0-.93-.43l-1.46.44a.72.72,0,0,0-.54.86h0l3.5,11.69a1.53,1.53,0,0,0,2.92-.88Z" transform="translate(-2.02 -13.14)" style="fill:#ffe500"/><path id="_Path_7" data-name=" Path 7" d="M28.12,26.72a1.45,1.45,0,0,1-1.85-.86l1.28,4.27a1.54,1.54,0,0,0,2.93-.88L29.2,25A1.46,1.46,0,0,1,28.12,26.72Z" transform="translate(-2.02 -13.14)" style="fill:#ebcb00"/><path id="_Path_8" data-name=" Path 8" d="M31.07,25.89A1.44,1.44,0,0,1,29.23,25v0l1.28,4.28a1.53,1.53,0,0,0,2.92-.88l-1.27-4.28a1.46,1.46,0,0,1-1.07,1.77Z" transform="translate(-2.02 -13.14)" style="fill:#ebcb00"/><path d="M30.48,29.25,27,17.57a.72.72,0,0,0-.92-.43l-1.47.44a.74.74,0,0,0-.54.87l3.5,11.68a1.54,1.54,0,0,0,2.93-.88Z" transform="translate(-2.02 -13.14)" style="fill:none;stroke:#45413c;stroke-linecap:round;stroke-linejoin:round"/><path d="M33.42,28.43,29.93,16.74a.74.74,0,0,0-.93-.43l-1.46.44a.72.72,0,0,0-.54.86h0l3.5,11.69a1.53,1.53,0,0,0,2.92-.88Z" transform="translate(-2.02 -13.14)" style="fill:none;stroke:#45413c;stroke-linecap:round;stroke-linejoin:round"/><path id="_Path_9" data-name=" Path 9" d="M32.17,18l-11,3.3c-6.5,2-17.82-3.9-17.82-3.9l6,20.08s6.23-11.11,12.74-13.06L32.54,21.3a1.48,1.48,0,0,1,.85,2.83l-1.15.35.93,3.11,1.72-.52a5,5,0,0,0,3.17-5.88A5,5,0,0,0,32.17,18Z" transform="translate(-2.02 -13.14)" style="fill:#ffe500"/><g id="_Group_2" data-name=" Group 2"><path id="_Path_10" data-name=" Path 10" d="M21.14,23l11-3.31A5,5,0,0,1,38,22.86a2.62,2.62,0,0,0,.09.38,4.27,4.27,0,0,0-.09-2A5,5,0,0,0,32.17,18l-11,3.3c-6.5,2-17.82-3.9-17.82-3.9l.59,2C6.31,20.53,15.52,24.68,21.14,23Z" transform="translate(-2.02 -13.14)" style="fill:#fff48c"/></g><path id="_Path_11" data-name=" Path 11" d="M32.17,18l-11,3.3c-6.5,2-17.82-3.9-17.82-3.9l6,20.08s6.23-11.11,12.74-13.06L32.54,21.3a1.48,1.48,0,0,1,.85,2.83l-1.15.35.93,3.11,1.72-.52a5,5,0,0,0,3.17-5.88A5,5,0,0,0,32.17,18Z" transform="translate(-2.02 -13.14)" style="fill:none;stroke:#45413c;stroke-linecap:round;stroke-linejoin:round"/><line id="_Path_12" data-name=" Path 12" x1="22.5" y1="1.63" x2="23.28" y2="4.23" style="fill:none;stroke:#45413c;stroke-linecap:round;stroke-linejoin:round"/><line id="_Path_13" data-name=" Path 13" x1="25.43" y1="0.75" x2="26.2" y2="3.35" style="fill:none;stroke:#45413c;stroke-linecap:round;stroke-linejoin:round"/><line id="_Path_14" data-name=" Path 14" x1="21.92" y1="1.8" x2="23.13" y2="1.43" style="fill:none;stroke:#45413c;stroke-linecap:round;stroke-linejoin:round"/><line id="_Path_15" data-name=" Path 15" x1="24.81" y1="0.92" x2="26.03" y2="0.56" style="fill:none;stroke:#45413c;stroke-linecap:round;stroke-linejoin:round"/><path id="_Path_16" data-name=" Path 16" d="M8.7,26.75c1.67,5.54,2,10.36.64,10.75S5.62,33.72,4,28.17,2,17.81,3.32,17.42,7,21.2,8.7,26.75Z" transform="translate(-2.02 -13.14)" style="fill:#ffe500"/><path id="_Path_17" data-name=" Path 17" d="M3.28,22.66c2-.58,4.91,3.43,6.58,9A39.58,39.58,0,0,0,8.7,26.75C7,21.2,4.63,17,3.32,17.42c-.87.26-1,2.47-.56,5.55A1.47,1.47,0,0,1,3.28,22.66Z" transform="translate(-2.02 -13.14)" style="fill:#ebcb00"/><path id="_Path_18" data-name=" Path 18" d="M8.7,26.75c1.67,5.54,2,10.36.64,10.75S5.62,33.72,4,28.17,2,17.81,3.32,17.42,7,21.2,8.7,26.75Z" transform="translate(-2.02 -13.14)" style="fill:none;stroke:#45413c;stroke-linecap:round;stroke-linejoin:round"/></svg>