<svg id="Icons" xmlns="http://www.w3.org/2000/svg" viewBox="0 0 46.24 43.73"><title>74</title><g id="_Group_" data-name=" Group "><ellipse id="_Ellipse_" data-name=" Ellipse " cx="13.17" cy="42.08" rx="12.68" ry="1.65" style="fill:#45413c;opacity:0.15000000596046448;isolation:isolate"/><path id="_Path_" data-name=" Path " d="M19.62,35.39c-1.4-.51-1.21-2.46-.61-3.85s1.74-2.53,2.8-2.34a7.11,7.11,0,0,0,1.73-2.91c1.2-2.8-1.16-6.5-4.8-8.07s-7.95-.74-9.15,2.06a7.1,7.1,0,0,0-.94,3.25c.88.64.89,2.13.23,3.65S7,30,5.67,29.38A8.58,8.58,0,0,0,2,33.8C.4,37.43,1,41.2,7.62,44s9.77.71,11.33-2.93A8.59,8.59,0,0,0,19.62,35.39Z" transform="translate(-0.76 -3.27)" style="fill:#dea47a"/><g id="_Group_2" data-name=" Group 2"><path id="_Path_2" data-name=" Path 2" d="M2.22,36.94a8.58,8.58,0,0,1,3.71-4.42c1.33.67,2.62-.83,3.22-2.2s.63-2.85-.12-3.53a3.12,3.12,0,0,1-.15.39C8.27,28.6,7,30,5.67,29.38A8.58,8.58,0,0,0,2,33.8a6.68,6.68,0,0,0-.34,5.1A9.18,9.18,0,0,1,2.22,36.94Z" transform="translate(-0.76 -3.27)" style="fill:#f0c2a1"/><path id="_Path_3" data-name=" Path 3" d="M9.85,23.42c1.2-2.8,5.52-3.62,9.15-2.06a8.87,8.87,0,0,1,4.68,4.51c.82-2.74-1.48-6.16-4.94-7.65-3.63-1.56-7.95-.74-9.15,2.06a7.1,7.1,0,0,0-.94,3.25,1.72,1.72,0,0,1,.65,1.15C9.48,24.22,9.69,23.79,9.85,23.42Z" transform="translate(-0.76 -3.27)" style="fill:#f0c2a1"/></g><path id="_Path_4" data-name=" Path 4" d="M19.62,35.39c-1.4-.51-1.21-2.46-.61-3.85s1.74-2.53,2.8-2.34a7.11,7.11,0,0,0,1.73-2.91c1.2-2.8-1.16-6.5-4.8-8.07s-7.95-.74-9.15,2.06a7.1,7.1,0,0,0-.94,3.25c.88.64.89,2.13.23,3.65S7,30,5.67,29.38A8.58,8.58,0,0,0,2,33.8C.4,37.43,1,41.2,7.62,44s9.77.71,11.33-2.93A8.59,8.59,0,0,0,19.62,35.39Z" transform="translate(-0.76 -3.27)" style="fill:none;stroke:#45413c;stroke-linecap:round;stroke-linejoin:round"/><polygon id="_Path_5" data-name=" Path 5" points="12.52 31.8 9.49 30.49 21.77 3.38 23.79 4.25 12.52 31.8" style="fill:#87898c;stroke:#45413c;stroke-linecap:round;stroke-linejoin:round"/><rect id="_Rectangle_" data-name=" Rectangle " x="21.12" y="4.29" width="4.41" height="6.61" rx="0.5" ry="0.5" transform="translate(6.36 22.74) rotate(-66.69)" style="fill:#f0c2a1"/><path id="_Rectangle_2" data-name=" Rectangle 2" d="M24.21,5.53l2.58,1.11a.5.5,0,0,1,.26.66l-1.38,3.21a.5.5,0,0,1-.66.26L22.43,9.66h0l1.78-4.13Z" transform="translate(-0.76 -3.27)" style="fill:#dea47a"/><rect id="_Rectangle_3" data-name=" Rectangle 3" x="21.12" y="4.29" width="4.41" height="6.61" rx="0.5" ry="0.5" transform="translate(6.36 22.74) rotate(-66.69)" style="fill:none;stroke:#45413c;stroke-linecap:round;stroke-linejoin:round"/><path id="_Rectangle_4" data-name=" Rectangle 4" d="M24.3,3.82l1.1.47a.5.5,0,0,1,.26.66L22.8,11.58h0l-2-.87h0l2.86-6.63A.5.5,0,0,1,24.3,3.82Z" transform="translate(-0.76 -3.27)" style="fill:#dea47a;stroke:#45413c;stroke-linecap:round;stroke-linejoin:round"/><polygon id="_Path_6" data-name=" Path 6" points="7.87 41.2 5.85 40.33 7.31 35.56 10.34 36.86 7.87 41.2" style="fill:#87898c;stroke:#45413c;stroke-linecap:round;stroke-linejoin:round"/><rect id="_Rectangle_5" data-name=" Rectangle 5" x="7.92" y="35.29" width="5.51" height="3.31" transform="translate(-28.23 28.85) rotate(-66.69)" style="fill:#f0c2a1;stroke:#45413c;stroke-linecap:round;stroke-linejoin:round"/><path id="_Path_7" data-name=" Path 7" d="M46.28,16.33a1.11,1.11,0,0,0-.22-1.55l-1.75-1.33a1.11,1.11,0,0,0-1.55.21l-13,17.12,1.76,1.34L43.19,16.75l1.75,1.33Z" transform="translate(-0.76 -3.27)" style="fill:#dea47a"/><path id="_Path_8" data-name=" Path 8" d="M41.58,17.21l1.33-1.75a1.1,1.1,0,0,1,1.54-.22h0l.87.66.8.61.15-.19a1.11,1.11,0,0,0-.22-1.55l-.87-.66-.88-.67a1.11,1.11,0,0,0-1.55.21l-1.33,1.76L29.77,30.78l1,.73Z" transform="translate(-0.76 -3.27)" style="fill:#f0c2a1"/><path id="_Path_9" data-name=" Path 9" d="M46.28,16.33a1.11,1.11,0,0,0-.22-1.55l-1.75-1.33a1.11,1.11,0,0,0-1.55.21l-13,17.12,1.76,1.34L43.19,16.75l1.75,1.33Z" transform="translate(-0.76 -3.27)" style="fill:none;stroke:#45413c;stroke-linecap:round;stroke-linejoin:round"/><path d="M29.77,30.78,26.1,35.61a1.1,1.1,0,1,0,1.76,1.33l1.33-1.75.88.67a1.11,1.11,0,0,0,1.55-.22l1.66-2.19Z" transform="translate(-0.76 -3.27)" style="fill:#87898c"/><path id="_Path_10" data-name=" Path 10" d="M29.19,35.19l.11.08.59-.78,1.66-2.2,1.66,1.26.07-.1-3.51-2.67L28.1,33l-.66.88L26.1,35.61a1.1,1.1,0,1,0,1.76,1.33Z" transform="translate(-0.76 -3.27)" style="fill:#bdbec0"/><path d="M29.77,30.78,26.1,35.61a1.1,1.1,0,1,0,1.76,1.33l1.33-1.75.88.67a1.11,1.11,0,0,0,1.55-.22l1.66-2.19Z" transform="translate(-0.76 -3.27)" style="fill:none;stroke:#45413c;stroke-linecap:round;stroke-linejoin:round"/><line id="_Path_11" data-name=" Path 11" x1="44.18" y1="14.81" x2="32.52" y2="30.18" style="fill:none;stroke:#45413c;stroke-linecap:round;stroke-linejoin:round"/><path id="_Path_12" data-name=" Path 12" d="M17.47,37.37c-.76-.33-1.55.83-2.06,2S14,41.88,13.07,41.48" transform="translate(-0.76 -3.27)" style="fill:none;stroke:#45413c;stroke-linecap:round;stroke-linejoin:round"/><path id="_Path_13" data-name=" Path 13" d="M5.64,32.33c.76.33.48,1.7,0,2.89S4.8,38,5.72,38.36" transform="translate(-0.76 -3.27)" style="fill:none;stroke:#45413c;stroke-linecap:round;stroke-linejoin:round"/></g></svg>