<svg id="Icons" xmlns="http://www.w3.org/2000/svg" viewBox="0 0 38.64 45.13"><title>512-palm-tree</title><g id="_Group_" data-name=" Group "><ellipse id="_Ellipse_" data-name=" Ellipse " cx="20.04" cy="43.63" rx="16.34" ry="1.5" style="fill:#45413c;opacity:0.15000000596046448;isolation:isolate"/><path id="_Path_" data-name=" Path " d="M28.43,44.14a.91.91,0,0,1-.91-1,51.8,51.8,0,0,0-1-12.65,66.72,66.72,0,0,0-3.37-12.31.91.91,0,0,1,1.44-1c2.38,2.09,5.76,6,8.41,12.93,2.76,7.15,3.47,11.27,3.65,13a.9.9,0,0,1-.79,1h-.11Z" transform="translate(-5.46 -1.87)" style="fill:#debb7e"/><path id="_Path_2" data-name=" Path 2" d="M31.74,27.09l-5.56,1.52a64.12,64.12,0,0,0-3-10.39.9.9,0,0,1,1.43-1A30,30,0,0,1,31.74,27.09Z" transform="translate(-5.46 -1.87)" style="fill:#b89558"/><path id="_Path_3" data-name=" Path 3" d="M28.43,44.14a.91.91,0,0,1-.91-1,51.8,51.8,0,0,0-1-12.65,66.72,66.72,0,0,0-3.37-12.31.91.91,0,0,1,1.44-1c2.38,2.09,5.76,6,8.41,12.93,2.76,7.15,3.47,11.27,3.65,13a.9.9,0,0,1-.79,1h-.11Z" transform="translate(-5.46 -1.87)" style="fill:none;stroke:#45413c;stroke-linecap:round;stroke-linejoin:round"/><path id="_Path_4" data-name=" Path 4" d="M24.38,16.92a.46.46,0,0,0,0-.48,10.84,10.84,0,0,0-8.76-5.3A11.58,11.58,0,0,0,6.1,14.66a.45.45,0,0,0,.35.77l2.69-.12a.46.46,0,0,1,.44.29l1.14,2.9a.45.45,0,0,0,.58.26l3.12-1.23a.45.45,0,0,1,.51.13l1.79,2.08a.46.46,0,0,0,.65,0L19.28,18a.47.47,0,0,1,.56,0L22,19.48a.45.45,0,0,0,.63-.11h0Z" transform="translate(-5.46 -1.87)" style="fill:#6dd627"/><path id="_Path_5" data-name=" Path 5" d="M6.48,15.43l2.15-.09a11.38,11.38,0,0,1,7-1.55,11.15,11.15,0,0,1,8,4.16l.72-1a.46.46,0,0,0,0-.48,10.84,10.84,0,0,0-8.76-5.3,11.58,11.58,0,0,0-9.52,3.52.45.45,0,0,0,.41.74Z" transform="translate(-5.46 -1.87)" style="fill:#9ceb60"/><path id="_Path_6" data-name=" Path 6" d="M24.38,16.92a.46.46,0,0,0,0-.48,10.84,10.84,0,0,0-8.76-5.3A11.58,11.58,0,0,0,6.1,14.66a.45.45,0,0,0,.35.77l2.69-.12a.46.46,0,0,1,.44.29l1.14,2.9a.45.45,0,0,0,.58.26l3.12-1.23a.45.45,0,0,1,.51.13l1.79,2.08a.46.46,0,0,0,.65,0L19.28,18a.47.47,0,0,1,.56,0L22,19.48a.45.45,0,0,0,.63-.11h0Z" transform="translate(-5.46 -1.87)" style="fill:none;stroke:#45413c;stroke-linecap:round;stroke-linejoin:round"/><path id="_Path_7" data-name=" Path 7" d="M22.72,17.63a.45.45,0,0,1-.35-.33c-.3-1.18-1.13-5.9,3.3-10.63A13.54,13.54,0,0,1,36.31,2.39a.45.45,0,0,1,.26.8l-2.41,2a.47.47,0,0,0-.14.52l1.25,3.14a.45.45,0,0,1-.25.59h0l-3.59,1.38a.45.45,0,0,0-.29.44l.06,3a.44.44,0,0,1-.42.46h0l-3,.07a.46.46,0,0,0-.43.34L26.59,18a.44.44,0,0,1-.53.33h0Z" transform="translate(-5.46 -1.87)" style="fill:#6dd627"/><g id="_Group_2" data-name=" Group 2"><path id="_Path_8" data-name=" Path 8" d="M25.67,10A13.38,13.38,0,0,1,34,5.79V5.72a.47.47,0,0,1,.14-.52l2.41-2a.45.45,0,0,0-.26-.8A13.54,13.54,0,0,0,25.67,6.67c-3.85,4.11-3.73,8.22-3.43,10A12.57,12.57,0,0,1,25.67,10Z" transform="translate(-5.46 -1.87)" style="fill:#9ceb60"/></g><path id="_Path_9" data-name=" Path 9" d="M22.72,17.63a.45.45,0,0,1-.35-.33c-.3-1.18-1.13-5.9,3.3-10.63A13.54,13.54,0,0,1,36.31,2.39a.45.45,0,0,1,.26.8l-2.41,2a.47.47,0,0,0-.14.52l1.25,3.14a.45.45,0,0,1-.25.59h0l-3.59,1.38a.45.45,0,0,0-.29.44l.06,3a.44.44,0,0,1-.42.46h0l-3,.07a.46.46,0,0,0-.43.34L26.59,18a.44.44,0,0,1-.53.33h0Z" transform="translate(-5.46 -1.87)" style="fill:none;stroke:#45413c;stroke-linecap:round;stroke-linejoin:round"/><path id="_Path_10" data-name=" Path 10" d="M23.74,17.33a.44.44,0,0,0-.45-.35c-1.32,0-6,.58-9.3,6a13.54,13.54,0,0,0-1.32,11.39.45.45,0,0,0,.84,0l1.27-2.85a.45.45,0,0,1,.46-.26l3.36.37a.45.45,0,0,0,.5-.39h0l.38-3.83a.47.47,0,0,1,.35-.4l2.93-.73a.46.46,0,0,0,.33-.55l-.74-3a.43.43,0,0,1,.15-.46l1.82-1.52a.45.45,0,0,0,.15-.45Z" transform="translate(-5.46 -1.87)" style="fill:#6dd627"/><path id="_Path_11" data-name=" Path 11" d="M13.88,26.26c2.63-4.29,7.76-6,10.44-6.54l-.58-2.39a.44.44,0,0,0-.45-.35c-1.32,0-6,.58-9.3,6a13.33,13.33,0,0,0-2,8.24A13.44,13.44,0,0,1,13.88,26.26Z" transform="translate(-5.46 -1.87)" style="fill:#9ceb60"/><path id="_Path_12" data-name=" Path 12" d="M23.74,17.33a.44.44,0,0,0-.45-.35c-1.32,0-6,.58-9.3,6a13.54,13.54,0,0,0-1.32,11.39.45.45,0,0,0,.84,0l1.27-2.85a.45.45,0,0,1,.46-.26l3.36.37a.45.45,0,0,0,.5-.39h0l.38-3.83a.47.47,0,0,1,.35-.4l2.93-.73a.46.46,0,0,0,.33-.55l-.74-3a.43.43,0,0,1,.15-.46l1.82-1.52a.45.45,0,0,0,.15-.45Z" transform="translate(-5.46 -1.87)" style="fill:none;stroke:#45413c;stroke-linecap:round;stroke-linejoin:round"/><path id="_Path_13" data-name=" Path 13" d="M23.15,18a.45.45,0,0,1,0-.56c.76-1.07,3.78-4.66,10.14-4.44a13.54,13.54,0,0,1,10.22,5.2.45.45,0,0,1-.43.72L40,18.38a.46.46,0,0,0-.48.24l-1.55,3a.44.44,0,0,1-.58.21h0L33.93,20a.45.45,0,0,0-.52.07l-2.23,2a.46.46,0,0,1-.65,0l-2-2.19A.47.47,0,0,0,28,19.8l-1.71,1.06a.46.46,0,0,1-.58-.08Z" transform="translate(-5.46 -1.87)" style="fill:#6dd627"/><path id="_Path_14" data-name=" Path 14" d="M24,19a11.91,11.91,0,0,1,9.23-3.37,13.39,13.39,0,0,1,8.08,3L43,18.9a.45.45,0,0,0,.43-.72A13.52,13.52,0,0,0,33.25,13c-6.36-.22-9.38,3.37-10.14,4.44a.45.45,0,0,0,0,.56Z" transform="translate(-5.46 -1.87)" style="fill:#9ceb60"/><path id="_Path_15" data-name=" Path 15" d="M23.15,18a.45.45,0,0,1,0-.56c.76-1.07,3.78-4.66,10.14-4.44a13.54,13.54,0,0,1,10.22,5.2.45.45,0,0,1-.43.72L40,18.38a.46.46,0,0,0-.48.24l-1.55,3a.44.44,0,0,1-.58.21h0L33.93,20a.45.45,0,0,0-.52.07l-2.23,2a.46.46,0,0,1-.65,0l-2-2.19A.47.47,0,0,0,28,19.8l-1.71,1.06a.46.46,0,0,1-.58-.08Z" transform="translate(-5.46 -1.87)" style="fill:none;stroke:#45413c;stroke-linecap:round;stroke-linejoin:round"/><path id="_Path_16" data-name=" Path 16" d="M37.8,45a.92.92,0,0,0,.62-1.57c-1.72-2.24-4.17-5.24-11.22-5.24a23.72,23.72,0,0,0-14.55,5.2A.91.91,0,0,0,13.23,45Z" transform="translate(-5.46 -1.87)" style="fill:#fffacf"/><path id="_Path_17" data-name=" Path 17" d="M13.23,45h.91A23.85,23.85,0,0,1,27.2,41c5.88,0,8.56,2.09,10.28,4.09h.32a.92.92,0,0,0,.62-1.57c-1.72-2.24-4.17-5.24-11.22-5.24a23.72,23.72,0,0,0-14.55,5.2A.91.91,0,0,0,13.23,45Z" transform="translate(-5.46 -1.87)" style="fill:#fffce5"/><path id="_Path_18" data-name=" Path 18" d="M37.8,45a.92.92,0,0,0,.62-1.57c-1.72-2.24-4.17-5.24-11.22-5.24a23.72,23.72,0,0,0-14.55,5.2A.91.91,0,0,0,13.23,45Z" transform="translate(-5.46 -1.87)" style="fill:none;stroke:#45413c;stroke-linecap:round;stroke-linejoin:round"/></g></svg>