<svg id="Icons" xmlns="http://www.w3.org/2000/svg" viewBox="0 0 34.46 45.75"><title>525-tangerine</title><g id="_Group_" data-name=" Group "><ellipse id="_Ellipse_" data-name=" Ellipse " cx="17.23" cy="44.18" rx="12.02" ry="1.57" style="fill:#45413c;opacity:0.15000000596046448;isolation:isolate"/><circle id="_Path_" data-name=" Path " cx="17.23" cy="27.02" r="16.73" style="fill:#ffaa54"/><path id="_Path_2" data-name=" Path 2" d="M24,15.72A16.74,16.74,0,0,1,40.59,30.36a18,18,0,0,0,.14-2.09,16.73,16.73,0,0,0-33.46,0,18,18,0,0,0,.14,2.09A16.74,16.74,0,0,1,24,15.72Z" transform="translate(-6.77 -1.25)" style="fill:#fc9"/><circle id="_Path_3" data-name=" Path 3" cx="17.23" cy="27.02" r="16.73" style="fill:none;stroke:#45413c;stroke-linecap:round;stroke-linejoin:round"/><path id="_Path_4" data-name=" Path 4" d="M15.57,14.15s-2.66-3.27-.9-6.85,1.66-5.55,1.66-5.55S21,3,20.77,7.75,15.57,14.15,15.57,14.15Z" transform="translate(-6.77 -1.25)" style="fill:#6dd627"/><path id="_Path_5" data-name=" Path 5" d="M16.27,8.93A16.31,16.31,0,0,0,18.64,3a7.24,7.24,0,0,0-2.31-1.25s.1,2-1.66,5.55.9,6.85.9,6.85l.14-.05A6,6,0,0,1,16.27,8.93Z" transform="translate(-6.77 -1.25)" style="fill:#9ceb60"/><path id="_Path_6" data-name=" Path 6" d="M15.57,14.15s-2.66-3.27-.9-6.85,1.66-5.55,1.66-5.55S21,3,20.77,7.75,15.57,14.15,15.57,14.15Z" transform="translate(-6.77 -1.25)" style="fill:none;stroke:#45413c;stroke-linecap:round;stroke-linejoin:round"/><path id="_Path_7" data-name=" Path 7" d="M14,17.6s.48.26,2.09-.53A2.43,2.43,0,0,0,17.69,15" transform="translate(-6.77 -1.25)" style="fill:none;stroke:#45413c;stroke-linecap:round;stroke-linejoin:round"/><path id="_Path_8" data-name=" Path 8" d="M15.57,14.15S15,10,16.42,8" transform="translate(-6.77 -1.25)" style="fill:none;stroke:#45413c;stroke-linecap:round;stroke-linejoin:round"/><path id="_Path_9" data-name=" Path 9" d="M17,16.47a3.07,3.07,0,0,1-.88.6,8.8,8.8,0,0,1-1,.41,7,7,0,0,0-3.26-2.9c-2.52-.94-3.13,2.21-3.53-1.11s2-3.91,5.15-1.47A11.63,11.63,0,0,1,17,16.47Z" transform="translate(-6.77 -1.25)" style="fill:#6dd627"/><path id="_Path_10" data-name=" Path 10" d="M17,16.47a3.65,3.65,0,0,1-.78.55,11.3,11.3,0,0,0-2.7-3c-2.63-2-4.66-2-5.09,0a1.34,1.34,0,0,0-.07-.51C8,10.14,10.29,9.56,13.48,12A11.63,11.63,0,0,1,17,16.47Z" transform="translate(-6.77 -1.25)" style="fill:#9ceb60"/><path id="_Path_11" data-name=" Path 11" d="M17,16.47a3.07,3.07,0,0,1-.88.6,8.8,8.8,0,0,1-1,.41,7,7,0,0,0-3.26-2.9c-2.52-.94-3.13,2.21-3.53-1.11s2-3.91,5.15-1.47A11.63,11.63,0,0,1,17,16.47Z" transform="translate(-6.77 -1.25)" style="fill:none;stroke:#45413c;stroke-linecap:round;stroke-linejoin:round"/></g></svg>