<svg id="Icons" xmlns="http://www.w3.org/2000/svg" viewBox="0 0 35.48 45.64"><title>531-strawberry-1</title><g id="_Group_" data-name=" Group "><ellipse id="_Ellipse_" data-name=" Ellipse " cx="18.84" cy="43.81" rx="15.27" ry="1.83" style="fill:#45413c;opacity:0.15000000596046448;isolation:isolate"/><path id="_Path_" data-name=" Path " d="M19.14,7.52,15.37,9.29c-11,5.17-12,20.74-1.55,26.9L27,43.63a7.53,7.53,0,0,0,11.12-5.22l2.63-14.58C43,11.1,29.89,2.47,19.14,7.52Z" transform="translate(-6.02 -1.36)" style="fill:#ff6242"/><path d="M15.41,14.91l3.77-1.77c9-4.23,19.72,1.17,21.56,10.54C42.91,11,29.85,2.49,19.14,7.52L15.37,9.29A15.43,15.43,0,0,0,6.78,26.23,15.27,15.27,0,0,1,15.41,14.91Z" transform="translate(-6.02 -1.36)" style="fill:#ff866e"/><path id="_Path_2" data-name=" Path 2" d="M19.14,7.52,15.37,9.29c-11,5.17-12,20.74-1.55,26.9L27,43.63a7.53,7.53,0,0,0,11.12-5.22l2.63-14.58C43,11.1,29.89,2.47,19.14,7.52Z" transform="translate(-6.02 -1.36)" style="fill:none;stroke:#45413c;stroke-linecap:round;stroke-linejoin:round"/><path id="_Path_3" data-name=" Path 3" d="M28.06,9.81l-1.39-1.3a.75.75,0,0,1,0-1.06l1-1A.75.75,0,0,0,27,5.13l-1.42.08a.75.75,0,0,1-.8-.7h0l-.11-1.9a.76.76,0,0,0-1.2-.6L19.12,5.33a.73.73,0,0,1-.75.09l-1.14-.48a9.08,9.08,0,0,1-1-1.39c-.45-1-2.76.22-2.35,1.1a7.57,7.57,0,0,1,.36,2L14,7.46a.76.76,0,0,1-.56.52L8.17,9.23a.76.76,0,0,0-.35,1.29l1.39,1.29a.76.76,0,0,1,0,1.07l-1,1a.76.76,0,0,0,.6,1.27l1.43-.09a.77.77,0,0,1,.8.72l.11,1.89a.75.75,0,0,0,1.21.56L16.76,15a.75.75,0,0,1,.76-.09L20,16a.76.76,0,0,0,1-.43l0,0,.78-2.64a.76.76,0,0,1,.55-.52l5.31-1.25a.76.76,0,0,0,.37-1.3Z" transform="translate(-6.02 -1.36)" style="fill:#6dd627"/><path d="M17.23,4.94a8.89,8.89,0,0,0,2.33,2l1.85-1.39a.75.75,0,0,1,1.21.56L22.73,8a.76.76,0,0,0,.8.72h0L25,8.67a.76.76,0,0,1,.6,1.28l-1,1a.77.77,0,0,0-.11.88l3.26-.77a.76.76,0,0,0,.34-1.29L26.7,8.47a.75.75,0,0,1,0-1.06l1-1A.75.75,0,0,0,27,5.13l-1.42.08a.75.75,0,0,1-.8-.7h0l-.11-1.9a.76.76,0,0,0-1.2-.6L19.12,5.33a.73.73,0,0,1-.75.09Z" transform="translate(-6.02 -1.36)" style="fill:#9ceb60"/><path id="_Path_4" data-name=" Path 4" d="M13.86,24.62c.62,1.33.51,2.69-.24,3s-1.88-.43-2.5-1.75-.51-2.69.25-3S13.24,23.3,13.86,24.62Z" transform="translate(-6.02 -1.36)" style="fill:#e04122;stroke:#45413c;stroke-linecap:round;stroke-linejoin:round"/><path id="_Path_5" data-name=" Path 5" d="M21.83,30.91c.62,1.33.51,2.69-.25,3s-1.87-.43-2.49-1.75-.51-2.69.24-3S21.21,29.59,21.83,30.91Z" transform="translate(-6.02 -1.36)" style="fill:#e04122;stroke:#45413c;stroke-linecap:round;stroke-linejoin:round"/><path id="_Path_6" data-name=" Path 6" d="M24.46,20.48c.62,1.33.51,2.69-.25,3s-1.87-.43-2.49-1.75-.51-2.69.24-3S23.84,19.16,24.46,20.48Z" transform="translate(-6.02 -1.36)" style="fill:#e04122;stroke:#45413c;stroke-linecap:round;stroke-linejoin:round"/><path id="_Path_7" data-name=" Path 7" d="M31.21,34.87c.62,1.32.51,2.68-.25,3s-1.87-.43-2.49-1.76-.51-2.68.24-3S30.59,33.54,31.21,34.87Z" transform="translate(-6.02 -1.36)" style="fill:#e04122;stroke:#45413c;stroke-linecap:round;stroke-linejoin:round"/><path id="_Path_8" data-name=" Path 8" d="M35.1,14.66c.62,1.32.51,2.68-.25,3S33,17.23,32.36,15.9s-.52-2.68.24-3S34.47,13.33,35.1,14.66Z" transform="translate(-6.02 -1.36)" style="fill:#e04122;stroke:#45413c;stroke-linecap:round;stroke-linejoin:round"/><path id="_Path_9" data-name=" Path 9" d="M34.16,25.13c.62,1.32.51,2.68-.25,3S32,27.7,31.42,26.37s-.51-2.68.24-3S33.54,23.8,34.16,25.13Z" transform="translate(-6.02 -1.36)" style="fill:#e04122;stroke:#45413c;stroke-linecap:round;stroke-linejoin:round"/><path id="_Path_10" data-name=" Path 10" d="M13.35,11.07c1.42-.67,1-5.54.57-6.42s1.9-2.07,2.35-1.1,3.3,4.6,5.3,3.66" transform="translate(-6.02 -1.36)" style="fill:none;stroke:#45413c;stroke-linecap:round;stroke-linejoin:round"/><path id="_Path_11" data-name=" Path 11" d="M28.06,9.81l-1.39-1.3a.75.75,0,0,1,0-1.06l1-1A.75.75,0,0,0,27,5.13l-1.42.08a.75.75,0,0,1-.8-.7h0l-.11-1.9a.76.76,0,0,0-1.2-.6L19.12,5.33a.73.73,0,0,1-.75.09l-1.14-.48a9.08,9.08,0,0,1-1-1.39c-.45-1-2.76.22-2.35,1.1a7.57,7.57,0,0,1,.36,2L14,7.46a.76.76,0,0,1-.56.52L8.17,9.23a.76.76,0,0,0-.35,1.29l1.39,1.29a.76.76,0,0,1,0,1.07l-1,1a.76.76,0,0,0,.6,1.27l1.43-.09a.77.77,0,0,1,.8.72l.11,1.89a.75.75,0,0,0,1.21.56L16.76,15a.75.75,0,0,1,.76-.09L20,16a.76.76,0,0,0,1-.43l0,0,.78-2.64a.76.76,0,0,1,.55-.52l5.31-1.25a.76.76,0,0,0,.37-1.3Z" transform="translate(-6.02 -1.36)" style="fill:none;stroke:#45413c;stroke-linecap:round;stroke-linejoin:round"/></g></svg>