<svg id="Icons" xmlns="http://www.w3.org/2000/svg" viewBox="0 0 43.16 43.52"><title>534-mushroom</title><ellipse id="_Ellipse_" data-name=" Ellipse " cx="21.54" cy="41.9" rx="12.4" ry="1.62" style="fill:#45413c;opacity:0.15000000596046448;isolation:isolate"/><path d="M31,33.68a50.23,50.23,0,0,1-.54-7.55H17.53A50.23,50.23,0,0,1,17,33.68c-.62,4.58-2.78,6.2-2.69,8.62S18.79,45,24,45s9.61-.27,9.7-2.7S31.63,38.26,31,33.68Z" transform="translate(-2.47 -2.98)" style="fill:#fff5e3"/><path d="M16.77,34.94a24.1,24.1,0,0,0,14.46,0c-.09-.4-.16-.82-.22-1.26a50.23,50.23,0,0,1-.54-7.55H17.53A50.23,50.23,0,0,1,17,33.68C16.93,34.12,16.86,34.54,16.77,34.94Z" transform="translate(-2.47 -2.98)" style="fill:#f7e5c6"/><path d="M31,33.68a50.23,50.23,0,0,1-.54-7.55H17.53A50.23,50.23,0,0,1,17,33.68c-.62,4.58-2.78,6.2-2.69,8.62S18.79,45,24,45s9.61-.27,9.7-2.7S31.63,38.26,31,33.68Z" transform="translate(-2.47 -2.98)" style="fill:none;stroke:#45413c;stroke-linecap:round;stroke-linejoin:round"/><path d="M24,3.48C10.82,3.48,2,16.21,3,23.06s11,7.38,21,7.38S44,29.9,45,23.06,37.18,3.48,24,3.48Z" transform="translate(-2.47 -2.98)" style="fill:#ff6242"/><path d="M3.6,24.9C5.78,18.14,13.49,10.05,24,10.05S42.22,18.14,44.4,24.9a6.68,6.68,0,0,0,.6-1.84c1-6.85-7.77-19.58-21-19.58S2,16.21,3,23.06A6.68,6.68,0,0,0,3.6,24.9Z" transform="translate(-2.47 -2.98)" style="fill:#ff866e"/><path d="M24,3.48C10.82,3.48,2,16.21,3,23.06s11,7.38,21,7.38S44,29.9,45,23.06,37.18,3.48,24,3.48Z" transform="translate(-2.47 -2.98)" style="fill:none;stroke:#45413c;stroke-linecap:round;stroke-linejoin:round"/><path d="M32,5.11C28.64,5,26,6.28,25.64,8.49c-.48,2.77,2.77,5.92,7.24,7,4.18,1,8-.06,8.82-2.46A23.29,23.29,0,0,0,32,5.11Z" transform="translate(-2.47 -2.98)" style="fill:#fff48c"/><path d="M38.18,15.67a4.6,4.6,0,0,0,3.52-2.61,23.29,23.29,0,0,0-9.7-8C28.64,5,26,6.28,25.64,8.49a3.54,3.54,0,0,0,.12,1.64A21.38,21.38,0,0,1,38.18,15.67Z" transform="translate(-2.47 -2.98)" style="fill:#fffacf"/><path d="M32,5.11C28.64,5,26,6.28,25.64,8.49c-.48,2.77,2.77,5.92,7.24,7,4.18,1,8-.06,8.82-2.46A23.29,23.29,0,0,0,32,5.11Z" transform="translate(-2.47 -2.98)" style="fill:none;stroke:#45413c;stroke-linecap:round;stroke-linejoin:round"/><path id="_Path_" data-name=" Path " d="M9,15c-2,1.35-3,3.89-2.14,5.72S10,23,12,21.65s2.93-3.86,2.1-5.69S10.94,13.72,9,15Z" transform="translate(-2.47 -2.98)" style="fill:#fff48c;stroke:#45413c;stroke-linecap:round;stroke-linejoin:round"/><path id="_Path_2" data-name=" Path 2" d="M29.82,23.43a3.14,3.14,0,1,1-3.14-3.24,3.19,3.19,0,0,1,3.14,3.24Z" transform="translate(-2.47 -2.98)" style="fill:#fff48c;stroke:#45413c;stroke-linecap:round;stroke-linejoin:round"/><path id="_Path_3" data-name=" Path 3" d="M18.62,8.64A1.79,1.79,0,0,1,17,10.48a1.64,1.64,0,0,1-1.93-1.29V9.1A1.81,1.81,0,0,1,16.7,7.26a1.64,1.64,0,0,1,1.91,1.32Z" transform="translate(-2.47 -2.98)" style="fill:#fffacf;stroke:#45413c;stroke-linecap:round;stroke-linejoin:round"/><path id="_Path_4" data-name=" Path 4" d="M38.32,22.35a1.79,1.79,0,1,0,2-1.61H40.1a1.7,1.7,0,0,0-1.78,1.62Z" transform="translate(-2.47 -2.98)" style="fill:#fff48c;stroke:#45413c;stroke-linecap:round;stroke-linejoin:round"/></svg>