<svg id="Icons" xmlns="http://www.w3.org/2000/svg" viewBox="0 0 43.76 40.35"><title>536-bread</title><g id="_Group_" data-name=" Group "><ellipse id="_Ellipse_" data-name=" Ellipse " cx="21.88" cy="38.46" rx="20.12" ry="1.89" style="fill:#45413c;opacity:0.15000000596046448;isolation:isolate"/><path id="_Path_" data-name=" Path " d="M23.37,7.15c-9.53,0-16,2.83-19.49,6.92L16.46,31,24,30.66V45.5l16.92-4A2.52,2.52,0,0,0,42.86,39V25.9a8.92,8.92,0,0,1,1.38-4.58,8,8,0,0,0,1.13-4.48C45,9.18,31.35,7.15,23.37,7.15Z" transform="translate(-2.12 -6.65)" style="fill:#b89558"/><path d="M43.87,22c.11-.22.24-.45.37-.67a8,8,0,0,0,1.13-4.48c-.35-7.66-14-9.69-22-9.69-9.53,0-16,2.83-19.49,6.92l8.73,11.77h1s9-8.49,18.65-9.85C38.94,15,44.19,15.64,43.87,22Z" transform="translate(-2.12 -6.65)" style="fill:#debb7e"/><path id="_Path_2" data-name=" Path 2" d="M23.37,7.15c-9.53,0-16,2.83-19.49,6.92L16.46,31,24,30.66V45.5l16.92-4A2.52,2.52,0,0,0,42.86,39V25.9a8.92,8.92,0,0,1,1.38-4.58,8,8,0,0,0,1.13-4.48C45,9.18,31.35,7.15,23.37,7.15Z" transform="translate(-2.12 -6.65)" style="fill:none;stroke:#45413c;stroke-linecap:round;stroke-linejoin:round"/><path id="_Path_3" data-name=" Path 3" d="M26.51,22.85A8.08,8.08,0,0,0,20.28,15L8.8,12.31a4.86,4.86,0,0,0-6.17,4.53,8.05,8.05,0,0,0,1.13,4.48A8.92,8.92,0,0,1,5.14,25.9V39.1a2.51,2.51,0,0,0,1.94,2.45L24,45.5V30a5.94,5.94,0,0,1,1.31-3.88A5,5,0,0,0,26.51,22.85Z" transform="translate(-2.12 -6.65)" style="fill:#f7e5c6"/><g id="_Group_2" data-name=" Group 2"><path id="_Path_4" data-name=" Path 4" d="M3.47,19.35A4.58,4.58,0,0,1,9.2,14.83l10.68,2.68a8,8,0,0,1,5.8,7.86,2.3,2.3,0,0,1,0,.26,4.87,4.87,0,0,0,.86-2.78A8.08,8.08,0,0,0,20.28,15L8.8,12.31a4.86,4.86,0,0,0-6.17,4.53,8,8,0,0,0,.94,4.09A8.23,8.23,0,0,1,3.47,19.35Z" transform="translate(-2.12 -6.65)" style="fill:#fff5e3"/></g><path id="_Path_5" data-name=" Path 5" d="M26.51,22.85A8.08,8.08,0,0,0,20.28,15L8.8,12.31a4.86,4.86,0,0,0-6.17,4.53,8.05,8.05,0,0,0,1.13,4.48A8.92,8.92,0,0,1,5.14,25.9V39.1a2.51,2.51,0,0,0,1.94,2.45L24,45.5V30a5.94,5.94,0,0,1,1.31-3.88A5,5,0,0,0,26.51,22.85Z" transform="translate(-2.12 -6.65)" style="fill:none;stroke:#45413c;stroke-linecap:round;stroke-linejoin:round"/></g></svg>