<svg id="Icons" xmlns="http://www.w3.org/2000/svg" viewBox="0 0 24.84 47"><title>572-tropical-drink</title><g id="_Group_" data-name=" Group "><ellipse id="_Ellipse_" data-name=" Ellipse " cx="13.68" cy="45.33" rx="11.16" ry="1.67" style="fill:#45413c;opacity:0.15000000596046448;isolation:isolate"/><g id="_Group_2" data-name=" Group 2"><path id="_Path_" data-name=" Path " d="M33.07,43.36c-.55-1.06-3.33-1.91-6.94-2.16a.87.87,0,0,1-.82-.86V33.27H22.69v7.07a.87.87,0,0,1-.82.86c-3.61.25-6.39,1.1-6.94,2.16a.41.41,0,0,0,.18.55h0c.85.44,3.58,1.58,8.87,1.58s8-1.14,8.87-1.58a.41.41,0,0,0,.21-.54Z" transform="translate(-10.32)" style="fill:#00b8f0;stroke:#45413c;stroke-linecap:round;stroke-linejoin:round"/><g id="_Group_3" data-name=" Group 3"><path id="_Path_2" data-name=" Path 2" d="M31.86,9.67c0-1-3.52-1.74-7.86-1.74s-7.86.78-7.86,1.74L14.82,25.84a9.18,9.18,0,0,0,18.36,0Z" transform="translate(-10.32)" style="fill:#00b8f0"/><path id="_Path_3" data-name=" Path 3" d="M32.19,13.71l-.33-4C31.86,8.71,28.34,8,24,8s-7.86.78-7.86,1.74L14.82,25.84a9.23,9.23,0,0,0,1,4.22,33.55,33.55,0,0,0,9.9-7.28A43.17,43.17,0,0,0,32.19,13.71Z" transform="translate(-10.32)" style="fill:#4acfff"/><ellipse id="_Ellipse_2" data-name=" Ellipse 2" cx="13.68" cy="9.67" rx="7.86" ry="1.75" style="fill:#00b8f0"/><path id="_Path_4" data-name=" Path 4" d="M31.86,9.67c0-1-3.52-1.74-7.86-1.74s-7.86.78-7.86,1.74L14.82,25.84a9.18,9.18,0,0,0,18.36,0Z" transform="translate(-10.32)" style="fill:none;stroke:#45413c;stroke-linecap:round;stroke-linejoin:round"/><path id="_Path_5" data-name=" Path 5" d="M31.86,9.67c0,1-3.52,1.75-7.86,1.75s-7.86-.78-7.86-1.75" transform="translate(-10.32)" style="fill:none;stroke:#45413c;stroke-linecap:round;stroke-linejoin:round"/></g><path id="_Path_6" data-name=" Path 6" d="M12.49,12.16a.87.87,0,0,1-1.2-.27l-.07-.13a5.68,5.68,0,0,1,9.51-5.88.86.86,0,0,1-.08,1.21l-.13.1Z" transform="translate(-10.32)" style="fill:#6dd627;stroke:#45413c;stroke-linecap:round;stroke-linejoin:round"/><g id="_Group_4" data-name=" Group 4"><path id="_Path_7" data-name=" Path 7" d="M17.88,16.23,17,25.84a7,7,0,0,0,14,0l-.87-9.61Z" transform="translate(-10.32)" style="fill:#ff8a14"/><path id="_Path_8" data-name=" Path 8" d="M24,25.84a21.15,21.15,0,0,1-6.91-.91l-.08.91a7,7,0,0,0,14,0l-.08-.91A21.15,21.15,0,0,1,24,25.84Z" transform="translate(-10.32)" style="fill:#ff6242"/><ellipse id="_Ellipse_3" data-name=" Ellipse 3" cx="13.68" cy="16.23" rx="6.12" ry="0.87" style="fill:#ff8a14"/><path id="_Path_9" data-name=" Path 9" d="M26.18,17.54h2.63V11.06a25.76,25.76,0,0,1-2.63.29Z" transform="translate(-10.32)" style="fill:#bf8df2;stroke:#45413c;stroke-linecap:round;stroke-linejoin:round"/><path id="_Path_10" data-name=" Path 10" d="M30.12,16.23c0,.48-2.74.87-6.12.87s-6.12-.39-6.12-.87L17,25.84A6.92,6.92,0,0,0,17.78,29a33.16,33.16,0,0,0,8-6.27,47,47,0,0,0,4.44-5.7Z" transform="translate(-10.32)" style="fill:#ffaa54"/><path id="_Path_11" data-name=" Path 11" d="M17.09,24.93l-.08.91A6.92,6.92,0,0,0,17.79,29a36.48,36.48,0,0,0,4.74-3.24A18.26,18.26,0,0,1,17.09,24.93Z" transform="translate(-10.32)" style="fill:#ff866e"/></g><path id="_Path_12" data-name=" Path 12" d="M29.82,6.28l3.36-4L31,.5,27.12,5.43a4.34,4.34,0,0,0-.94,2.7v3.22a25.76,25.76,0,0,0,2.63-.29v-2A4.31,4.31,0,0,1,29.82,6.28Z" transform="translate(-10.32)" style="fill:#9f5ae5;stroke:#45413c;stroke-linecap:round;stroke-linejoin:round"/></g></g></svg>