<svg id="Icons" xmlns="http://www.w3.org/2000/svg" viewBox="0 0 43.29 42.48"><title>498-spiral-shell</title><ellipse id="_Ellipse_" data-name=" Ellipse " cx="21.06" cy="40.6" rx="20.02" ry="1.88" style="fill:#45413c;opacity:0.15000000596046448;isolation:isolate"/><path id="_Path_" data-name=" Path " d="M5.36,10.82S2.29,8.6,4,6c1.6-2.44,3.09.44,3.09.44Z" transform="translate(-2.98 -4.52)" style="fill:#fff;stroke:#45413c;stroke-linecap:round;stroke-linejoin:round"/><path id="_Path_2" data-name=" Path 2" d="M7.58,16.58S4.3,17.07,4,13C3.79,9.3,7.13,6.4,7.13,6.4S11,4.82,12.88,7.73,7.58,16.58,7.58,16.58Z" transform="translate(-2.98 -4.52)" style="fill:#daedf7"/><path id="_Path_3" data-name=" Path 3" d="M4.18,14a8.68,8.68,0,0,1,1.35-3,4.84,4.84,0,0,1,5-2.18,3.69,3.69,0,0,1,2.33,1.58,2.72,2.72,0,0,0,0-2.64C11,4.82,7.13,6.4,7.13,6.4S3.79,9.3,4,13A5,5,0,0,0,4.18,14Z" transform="translate(-2.98 -4.52)" style="fill:#fff"/><path id="_Path_4" data-name=" Path 4" d="M7.58,16.58S4.3,17.07,4,13C3.79,9.3,7.13,6.4,7.13,6.4S11,4.82,12.88,7.73,7.58,16.58,7.58,16.58Z" transform="translate(-2.98 -4.52)" style="fill:none;stroke:#45413c;stroke-linecap:round;stroke-linejoin:round"/><path id="_Path_5" data-name=" Path 5" d="M8.9,25.82s-2-.61-3.09-4S5.64,15,8.9,11.67s4-4,4-4a6,6,0,0,1,5.31,1.76C20.63,11.89,8.9,25.82,8.9,25.82Z" transform="translate(-2.98 -4.52)" style="fill:#daedf7"/><path id="_Path_6" data-name=" Path 6" d="M8.9,15.34,11,13.17a5,5,0,0,1,6.76-.4l.07.06c.68-1.55.91-2.79.33-3.37a6,6,0,0,0-5.31-1.77s-.71.6-4,4c-3,3.09-4,6.18-3.31,9.31A12.13,12.13,0,0,1,8.9,15.34Z" transform="translate(-2.98 -4.52)" style="fill:#fff"/><path id="_Path_7" data-name=" Path 7" d="M8.9,25.82s-2-.61-3.09-4S5.64,15,8.9,11.67s4-4,4-4a6,6,0,0,1,5.31,1.77C20.63,11.89,8.9,25.82,8.9,25.82Z" transform="translate(-2.98 -4.52)" style="fill:none;stroke:#45413c;stroke-linecap:round;stroke-linejoin:round"/><path id="_Path_8" data-name=" Path 8" d="M36,43.88S22.89,48.69,14.21,40c-6.36-6.36-7.8-15-1.77-22.12s5.75-8.41,5.75-8.41S23.72,9.7,27,13s3.1,5.75,3.1,5.75L41.2,29.83Z" transform="translate(-2.98 -4.52)" style="fill:#daedf7"/><path id="_Path_9" data-name=" Path 9" d="M12.44,22.83c1.3-1.54,2.31-2.81,3.09-3.85A7.66,7.66,0,0,1,27,18c3.32,3.32,3.1,5.75,3.1,5.75l9.72,9.72,1.34-3.6-11-11.1S30.36,16.34,27,13s-8.85-3.54-8.85-3.54.16,1.42-5.75,8.41A14.76,14.76,0,0,0,8.8,30.22,15.65,15.65,0,0,1,12.44,22.83Z" transform="translate(-2.98 -4.52)" style="fill:#fff"/><path id="_Path_10" data-name=" Path 10" d="M36,43.88S22.89,48.69,14.21,40c-6.36-6.36-7.8-15-1.77-22.12s5.75-8.41,5.75-8.41S23.72,9.7,27,13s3.1,5.75,3.1,5.75L41.2,29.83Z" transform="translate(-2.98 -4.52)" style="fill:none;stroke:#45413c;stroke-linecap:round;stroke-linejoin:round"/><path id="_Path_11" data-name=" Path 11" d="M30.14,18.77s4-1.12,10,3.52c6.79,5.25,7.51,14.27,1.77,19.47-4.16,3.76-10.34,2.93-14.16-.89-3.65-3.65-4.25-9.9.45-14.6C32.38,22.07,30.14,18.77,30.14,18.77Z" transform="translate(-2.98 -4.52)" style="fill:#daedf7"/><path d="M30.39,23c.9-.15,4.36-.36,9.48,3.6a15.53,15.53,0,0,1,5.79,8,13.55,13.55,0,0,0-5.54-12.3c-6-4.64-10-3.52-10-3.52A4.85,4.85,0,0,1,30.39,23Z" transform="translate(-2.98 -4.52)" style="fill:#fff"/><path id="_Path_12" data-name=" Path 12" d="M30.14,18.77s4-1.12,10,3.52c6.79,5.25,7.51,14.27,1.77,19.47-4.16,3.76-10.34,2.93-14.16-.89-3.65-3.65-4.25-9.9.45-14.6C32.38,22.07,30.14,18.77,30.14,18.77Z" transform="translate(-2.98 -4.52)" style="fill:none;stroke:#45413c;stroke-linecap:round;stroke-linejoin:round"/><path id="_Path_13" data-name=" Path 13" d="M34.09,22c1.62,4.75-3.75,7-3.75,12.52,0,4.48,4.38,6.78,6.88,6.25,3.44-.73,5.63-3.12,5.63-8.13C42.85,26.32,34.09,22,34.09,22Z" transform="translate(-2.98 -4.52)" style="fill:#c0dceb"/><path id="_Path_14" data-name=" Path 14" d="M32.3,38.59c-1.54-4.76-.11-7.75,3.09-9.55a6.6,6.6,0,0,1,7,1c-1.89-4.87-8.3-8-8.3-8,1.62,4.75-3.75,7-3.75,12.52a6.14,6.14,0,0,0,2.28,4.82A6.11,6.11,0,0,1,32.3,38.59Z" transform="translate(-2.98 -4.52)" style="fill:#adc4d9"/><path id="_Path_15" data-name=" Path 15" d="M34.09,22c1.62,4.75-3.75,7-3.75,12.52,0,4.48,4.38,6.78,6.88,6.25,3.44-.73,5.63-3.12,5.63-8.13C42.85,26.32,34.09,22,34.09,22Z" transform="translate(-2.98 -4.52)" style="fill:none;stroke:#45413c;stroke-linecap:round;stroke-linejoin:round"/><path id="_Path_16" data-name=" Path 16" d="M34.09,22c-.86-2.06-4-3.22-4-3.22" transform="translate(-2.98 -4.52)" style="fill:#fffce5;stroke:#45413c;stroke-linecap:round;stroke-linejoin:round"/></svg>