<svg id="Icons" xmlns="http://www.w3.org/2000/svg" viewBox="0 0 38.68 43.92"><title>658-water-wave</title><path d="M44.5,27.88a5.53,5.53,0,0,1-3.7-1.63,5.58,5.58,0,0,1-7.89,0h0a5.59,5.59,0,0,1-9.54-4V21A12.09,12.09,0,0,0,27.1,44.5H44.5Z" transform="translate(-6.32 -1.08)" style="fill:#00b8f0"/><path d="M27.09,44.5a20.08,20.08,0,0,1-2.75-19,5.55,5.55,0,0,1-1-3.16V21a12.09,12.09,0,0,0,3.75,23.5Z" transform="translate(-6.32 -1.08)" style="fill:#009fd9"/><path d="M44.5,27.88a5.53,5.53,0,0,1-3.7-1.63,5.58,5.58,0,0,1-7.89,0h0a5.59,5.59,0,0,1-9.54-4V21A12.09,12.09,0,0,0,27.1,44.5H44.5Z" transform="translate(-6.32 -1.08)" style="fill:none;stroke:#45413c;stroke-linecap:round;stroke-linejoin:round"/><path d="M27.1,44.5a12.09,12.09,0,0,1,.1-24.18l.8,0c.8-1.13,1.49-2.36.61-4a2.18,2.18,0,0,1,.13-2.23A2.15,2.15,0,0,1,31,13.26a2.23,2.23,0,0,0,2.33-.63,2.2,2.2,0,0,0,.31-2.47h0a1.5,1.5,0,0,1,.56-2,1.74,1.74,0,0,1,1.52-.26l.86.26a2.63,2.63,0,0,0,2-.17l.38-.2A7.11,7.11,0,0,0,37.68,7,20.25,20.25,0,1,0,27.1,44.5Z" transform="translate(-6.32 -1.08)" style="fill:#fff"/><path d="M15.42,34.55a20.24,20.24,0,0,1-5.17-15.91A20,20,0,0,1,14.44,8.46a20.23,20.23,0,0,0,12.66,36A12.09,12.09,0,0,1,15.42,34.55Z" transform="translate(-6.32 -1.08)" style="fill:#f0f0f0"/><path d="M27.1,44.5a12.09,12.09,0,0,1,.1-24.18l.8,0c.8-1.13,1.49-2.36.61-4a2.18,2.18,0,0,1,.13-2.23A2.15,2.15,0,0,1,31,13.26a2.23,2.23,0,0,0,2.33-.63,2.2,2.2,0,0,0,.31-2.47h0a1.5,1.5,0,0,1,.56-2,1.74,1.74,0,0,1,1.52-.26l.86.26a2.63,2.63,0,0,0,2-.17l.38-.2A7.11,7.11,0,0,0,37.68,7,20.25,20.25,0,1,0,27.1,44.5Z" transform="translate(-6.32 -1.08)" style="fill:none;stroke:#45413c;stroke-linecap:round;stroke-linejoin:round"/><path id="_Path_" data-name=" Path " d="M44.5,32.39a5.52,5.52,0,0,1-3.09-1.46,5.52,5.52,0,0,1-7.6,0,8.54,8.54,0,0,1-13.4-7V22.47" transform="translate(-6.32 -1.08)" style="fill:none;stroke:#45413c;stroke-linecap:round;stroke-linejoin:round"/><path id="_Path_2" data-name=" Path 2" d="M44.49,39a5.11,5.11,0,0,1-1.64-1.16,5.58,5.58,0,0,1-7.89,0l0,0a11.64,11.64,0,0,1-17.62-10V25.62" transform="translate(-6.32 -1.08)" style="fill:none;stroke:#45413c;stroke-linecap:round;stroke-linejoin:round"/><path id="_Path_3" data-name=" Path 3" d="M43.48,12.62a1.14,1.14,0,0,0-.88-2.11h-.06a1.65,1.65,0,1,0,0,2A1.08,1.08,0,0,0,43.48,12.62Z" transform="translate(-6.32 -1.08)" style="fill:#fff;stroke:#45413c;stroke-linecap:round;stroke-linejoin:round"/><circle id="_Path_4" data-name=" Path 4" cx="26.14" cy="16.27" r="1.2" style="fill:#fff;stroke:#45413c;stroke-linecap:round;stroke-linejoin:round"/><circle id="_Path_5" data-name=" Path 5" cx="30.01" cy="1.7" r="1.2" style="fill:#fff;stroke:#45413c;stroke-linecap:round;stroke-linejoin:round"/><circle id="_Path_6" data-name=" Path 6" cx="25.78" cy="21.79" r="1.56" style="fill:#fff;stroke:#45413c;stroke-linecap:round;stroke-linejoin:round"/></svg>