<svg id="Icons" xmlns="http://www.w3.org/2000/svg" viewBox="0 0 38.93 42.59"><title>688-musical-note</title><path id="_Path_" data-name=" Path " d="M12.93,6.86a1,1,0,0,0-.93,1v21.8a5.94,5.94,0,0,0-4-.72,6,6,0,0,0,1.26,11.9A6.15,6.15,0,0,0,15,34.6V15.71l23-1.66V27.22a5.94,5.94,0,0,0-4-.72,6,6,0,0,0,1.26,11.91A6.17,6.17,0,0,0,41,32.17V5.91a1,1,0,0,0-1-1h-.07Z" transform="translate(-2.57 -4.41)" style="fill:#00b8f0"/><ellipse id="_Ellipse_" data-name=" Ellipse " cx="21.43" cy="41.09" rx="12" ry="1.5" style="fill:#45413c;opacity:0.15000000596046448;isolation:isolate"/><path id="_Path_2" data-name=" Path 2" d="M34,29.54a6,6,0,0,1,3.27.35.54.54,0,0,0,.75-.5V27.22a5.94,5.94,0,0,0-4-.72,6,6,0,0,0-4.92,5,6.13,6.13,0,0,0,.13,2.39A6,6,0,0,1,34,29.54Z" transform="translate(-2.57 -4.41)" style="fill:#4acfff"/><path id="_Path_3" data-name=" Path 3" d="M8,32a6.06,6.06,0,0,1,3.27.36.52.52,0,0,0,.51-.06.54.54,0,0,0,.24-.45v-2.2a5.94,5.94,0,0,0-4-.72,6,6,0,0,0-4.9,6.93q0,.25.11.49A6.06,6.06,0,0,1,8,32Z" transform="translate(-2.57 -4.41)" style="fill:#4acfff"/><path id="_Path_4" data-name=" Path 4" d="M39.93,4.92l-27,1.94a1,1,0,0,0-.93,1v3a1,1,0,0,1,.93-1L39.93,8A1,1,0,0,1,41,8.93S41,9,41,9V6a1,1,0,0,0-.91-1.08Z" transform="translate(-2.57 -4.41)" style="fill:#4acfff"/><path id="_Path_5" data-name=" Path 5" d="M12.93,6.86a1,1,0,0,0-.93,1v21.8a5.94,5.94,0,0,0-4-.72,6,6,0,0,0,1.26,11.9A6.15,6.15,0,0,0,15,34.6V15.71l23-1.66V27.22a5.94,5.94,0,0,0-4-.72,6,6,0,0,0,1.26,11.91A6.17,6.17,0,0,0,41,32.17V5.91a1,1,0,0,0-1-1h-.07Z" transform="translate(-2.57 -4.41)" style="fill:none;stroke:#45413c;stroke-linecap:round;stroke-linejoin:round"/></svg>