<svg id="Icons" xmlns="http://www.w3.org/2000/svg" viewBox="0 0 29.16 44.71"><title>708-microscope</title><g id="_Group_" data-name=" Group "><rect id="_Rectangle_" data-name=" Rectangle " x="26.2" y="6.32" width="4.47" height="3.96" transform="translate(-1.9 26.98) rotate(-61.33)" style="fill:#adc4d9;stroke:#45413c;stroke-linecap:round;stroke-linejoin:round"/><circle id="_Path_" data-name=" Path " cx="16.53" cy="10.6" r="5.22" style="fill:#c0dceb"/><path id="_Path_2" data-name=" Path 2" d="M28.44,8.31a5.22,5.22,0,0,0-7.08,2.07,5.44,5.44,0,0,0-.48,1.33,5.19,5.19,0,0,1,9.46,3.93,1.84,1.84,0,0,0,.17-.25,5.21,5.21,0,0,0-2.06-7.07Z" transform="translate(-9.41 -2.29)" style="fill:#daedf7"/><circle id="_Path_3" data-name=" Path 3" cx="16.53" cy="10.6" r="5.22" style="fill:none;stroke:#45413c;stroke-linecap:round;stroke-linejoin:round"/><path id="_Path_4" data-name=" Path 4" d="M22.4,37.28c-3.1,1-7.73-.64-8.77-3.75h0a3.4,3.4,0,0,0-.34,4.8l.09.1a9.61,9.61,0,0,0,10.14,2.19Z" transform="translate(-9.41 -2.29)" style="fill:#fff"/><path id="_Path_5" data-name=" Path 5" d="M20.2,37.58a7.71,7.71,0,0,1-6-3,10.62,10.62,0,0,1-1.2-.34A3.39,3.39,0,0,0,13,38,10,10,0,0,0,20.2,37.58Z" transform="translate(-9.41 -2.29)" style="fill:#f0f0f0"/><path id="_Path_6" data-name=" Path 6" d="M22.4,37.28c-3.1,1-7.73-.64-8.77-3.75h0a3.4,3.4,0,0,0-.34,4.8l.09.1a9.61,9.61,0,0,0,10.14,2.19Z" transform="translate(-9.41 -2.29)" style="fill:none;stroke:#45413c;stroke-linecap:round;stroke-linejoin:round"/><ellipse id="_Ellipse_" data-name=" Ellipse " cx="14.59" cy="42.86" rx="14.18" ry="1.85" style="fill:#45413c;opacity:0.15000000596046448;isolation:isolate"/><path id="_Path_7" data-name=" Path 7" d="M24.89,20.22a7.71,7.71,0,0,1,0,15.42v5.47a13.18,13.18,0,0,0,0-26.36Z" transform="translate(-9.41 -2.29)" style="fill:#fff"/><path id="_Path_8" data-name=" Path 8" d="M36.68,22.06a13.18,13.18,0,0,0-10.13-7.2A6.24,6.24,0,0,0,25,19a6.39,6.39,0,0,0,.12,1.25,7.71,7.71,0,0,1,7,4.94A6.22,6.22,0,0,0,36.68,22.06Z" transform="translate(-9.41 -2.29)" style="fill:#e0e0e0"/><path id="_Path_9" data-name=" Path 9" d="M24.89,20.22a7.71,7.71,0,0,1,0,15.42v5.47a13.18,13.18,0,0,0,0-26.36Z" transform="translate(-9.41 -2.29)" style="fill:none;stroke:#45413c;stroke-linecap:round;stroke-linejoin:round"/><rect id="_Rectangle_2" data-name=" Rectangle 2" x="16.06" y="11.97" width="14.26" height="11.87" rx="1.23" ry="1.23" transform="translate(-13.05 27.38) rotate(-61.33)" style="fill:#fff"/><path id="_Path_10" data-name=" Path 10" d="M26.89,23.51a1.25,1.25,0,0,1-1.68.49L17,19.48a1.23,1.23,0,0,1-.5-1.64l-1.3,2.39a1.22,1.22,0,0,0,.47,1.66h0l8.25,4.51a1.22,1.22,0,0,0,1.66-.47v0l5.66-10.34h0Z" transform="translate(-9.41 -2.29)" style="fill:#e0e0e0"/><rect id="_Rectangle_3" data-name=" Rectangle 3" x="16.06" y="11.97" width="14.26" height="11.87" rx="1.23" ry="1.23" transform="translate(-13.05 27.38) rotate(-61.33)" style="fill:none;stroke:#45413c;stroke-linecap:round;stroke-linejoin:round"/><path id="_Path_11" data-name=" Path 11" d="M18.3,41.11a6.59,6.59,0,0,1,13.18,0Z" transform="translate(-9.41 -2.29)" style="fill:#c0dceb"/><path id="_Path_12" data-name=" Path 12" d="M24.89,36.8A6.58,6.58,0,0,1,31,41.11h.43a6.59,6.59,0,0,0-13.18,0h.43A6.57,6.57,0,0,1,24.89,36.8Z" transform="translate(-9.41 -2.29)" style="fill:#daedf7"/><path id="_Path_13" data-name=" Path 13" d="M18.3,41.11a6.59,6.59,0,0,1,13.18,0Z" transform="translate(-9.41 -2.29)" style="fill:none;stroke:#45413c;stroke-linecap:round;stroke-linejoin:round"/><rect id="_Rectangle_4" data-name=" Rectangle 4" x="3.53" y="38.82" width="22.12" height="3.39" rx="1.23" ry="1.23" style="fill:#fff"/><path id="_Path_14" data-name=" Path 14" d="M33.83,42.89H14.17A1.21,1.21,0,0,1,13,42a1.28,1.28,0,0,0-.07.34v.93a1.23,1.23,0,0,0,1.23,1.23H33.83a1.23,1.23,0,0,0,1.23-1.23v-.93A1.28,1.28,0,0,0,35,42,1.21,1.21,0,0,1,33.83,42.89Z" transform="translate(-9.41 -2.29)" style="fill:#f0f0f0"/><rect id="_Rectangle_5" data-name=" Rectangle 5" x="3.53" y="38.82" width="22.12" height="3.39" rx="1.23" ry="1.23" style="fill:none;stroke:#45413c;stroke-linecap:round;stroke-linejoin:round"/><rect id="_Rectangle_6" data-name=" Rectangle 6" x="12.9" y="29.43" width="2.54" height="8.8" rx="0.62" ry="0.62" transform="translate(-31.77 28.29) rotate(-62.18)" style="fill:#87898c;stroke:#45413c;stroke-linecap:round;stroke-linejoin:round"/><rect id="_Rectangle_7" data-name=" Rectangle 7" x="18.03" y="20.85" width="2.36" height="8.68" transform="translate(-21.51 27.67) rotate(-61.33)" style="fill:#87898c;stroke:#45413c;stroke-linecap:round;stroke-linejoin:round"/><rect id="_Rectangle_8" data-name=" Rectangle 8" x="28.82" y="2.17" width="2.67" height="6.01" rx="0.62" ry="0.62" transform="translate(1.74 26.87) rotate(-61.33)" style="fill:#87898c;stroke:#45413c;stroke-linecap:round;stroke-linejoin:round"/><path id="_Path_15" data-name=" Path 15" d="M18.57,28.83l-2.08-1.14a1.21,1.21,0,0,1-.56-.64l-1.1-2.9,7.62,4.16-3,.64A1.25,1.25,0,0,1,18.57,28.83Z" transform="translate(-9.41 -2.29)" style="fill:#656769;stroke:#45413c;stroke-linecap:round;stroke-linejoin:round"/><circle id="_Path_16" data-name=" Path 16" cx="21.74" cy="16.69" r="4.24" style="fill:#87898c"/><path id="_Path_17" data-name=" Path 17" d="M31.15,16.51a4.25,4.25,0,0,1,4.15,3.35,4.17,4.17,0,0,0,.09-.88,4.24,4.24,0,0,0-8.47,0,4.17,4.17,0,0,0,.09.88A4.25,4.25,0,0,1,31.15,16.51Z" transform="translate(-9.41 -2.29)" style="fill:#bdbec0"/><circle id="_Path_18" data-name=" Path 18" cx="21.74" cy="16.69" r="4.24" style="fill:none;stroke:#45413c;stroke-linecap:round;stroke-linejoin:round"/><circle id="_Path_19" data-name=" Path 19" cx="21.74" cy="16.69" r="1.54" style="fill:#fff;stroke:#45413c;stroke-linecap:round;stroke-linejoin:round"/></g></svg>