<svg id="Icons" xmlns="http://www.w3.org/2000/svg" viewBox="0 0 30.9 45.58"><title>714-green-book</title><g id="_Group_" data-name=" Group "><path id="_Path_" data-name=" Path " d="M38.15,40.91,15.78,34.2V1.92L38,8.58a2.4,2.4,0,0,1,1.7,2.29v28.9a1.19,1.19,0,0,1-1.55,1.14Z" transform="translate(-9.3 -1.42)" style="fill:#00f5bc"/><path id="_Path_2" data-name=" Path 2" d="M38.15,40.91,15.78,34.2V1.92L38,8.58a2.4,2.4,0,0,1,1.7,2.29v28.9a1.19,1.19,0,0,1-1.55,1.14Z" transform="translate(-9.3 -1.42)" style="fill:none;stroke:#45413c;stroke-linecap:round;stroke-linejoin:round"/><polygon id="_Path_3" data-name=" Path 3" points="11.36 1.97 6.48 0.5 6.48 32.78 11.36 34.24 11.36 1.97" style="fill:#656769;stroke:#45413c;stroke-linecap:round;stroke-linejoin:round"/><polygon id="_Path_4" data-name=" Path 4" points="6.48 0.5 0.5 4.69 0.5 17.69 6.48 12.38 6.48 0.5" style="fill:#656769;stroke:#45413c;stroke-linecap:round;stroke-linejoin:round"/><ellipse id="_Ellipse_" data-name=" Ellipse " cx="14.7" cy="43.79" rx="13.75" ry="1.79" style="fill:#45413c;opacity:0.15000000596046448;isolation:isolate"/><polygon id="_Path_5" data-name=" Path 5" points="22.86 42.52 27.4 39.06 27.4 9.77 22.86 12.9 22.86 42.52" style="fill:#fffce5"/><polygon id="_Path_6" data-name=" Path 6" points="22.86 12.9 22.86 17.67 27.4 14.53 27.4 9.77 22.86 12.9" style="fill:#fffef2"/><polygon id="_Path_7" data-name=" Path 7" points="22.86 42.52 27.4 39.06 27.4 9.77 22.86 12.9 22.86 42.52" style="fill:none;stroke:#45413c;stroke-linecap:round;stroke-linejoin:round"/><polygon id="_Path_8" data-name=" Path 8" points="6.48 3.49 2 6.63 22.92 12.9 27.4 9.77 6.48 3.49" style="fill:#fffef2;stroke:#45413c;stroke-linecap:round;stroke-linejoin:round"/><path id="_Path_9" data-name=" Path 9" d="M32.17,45.09,10.66,38.64a1.2,1.2,0,0,1-.86-1.15V6.11L32,12.77a2.38,2.38,0,0,1,1.7,2.29V44a1.19,1.19,0,0,1-1.53,1.09Z" transform="translate(-9.3 -1.42)" style="fill:#00f5bc"/><path id="_Path_10" data-name=" Path 10" d="M32,12.77,9.8,6.11V9.62L32,16.28a2.38,2.38,0,0,1,1.7,2.29V15.06A2.38,2.38,0,0,0,32,12.77Z" transform="translate(-9.3 -1.42)" style="fill:#8cffe4"/><path id="_Path_11" data-name=" Path 11" d="M32.17,45.09,10.66,38.64a1.2,1.2,0,0,1-.86-1.15V6.11L32,12.77a2.38,2.38,0,0,1,1.7,2.29V44a1.19,1.19,0,0,1-1.53,1.09Z" transform="translate(-9.3 -1.42)" style="fill:none;stroke:#45413c;stroke-linecap:round;stroke-linejoin:round"/><path id="_Path_12" data-name=" Path 12" d="M14.69,7.57,9.8,6.11V37.49a1.2,1.2,0,0,0,.86,1.15l4,1.21Z" transform="translate(-9.3 -1.42)" style="fill:#656769"/><polygon id="_Path_13" data-name=" Path 13" points="0.5 4.69 0.5 8.2 5.39 9.66 5.39 6.15 0.5 4.69" style="fill:#87898c"/><path id="_Path_14" data-name=" Path 14" d="M14.69,7.57,9.8,6.11V37.49a1.2,1.2,0,0,0,.86,1.15l4,1.21Z" transform="translate(-9.3 -1.42)" style="fill:none;stroke:#45413c;stroke-linecap:round;stroke-linejoin:round"/><polygon id="_Path_15" data-name=" Path 15" points="18.51 21.56 10.89 19.32 10.89 14.53 18.51 16.78 18.51 21.56" style="fill:#fff;stroke:#45413c;stroke-linecap:round;stroke-linejoin:round"/></g></svg>