<svg id="Icons" xmlns="http://www.w3.org/2000/svg" viewBox="0 0 44.33 43.66"><title>734-paperclip</title><ellipse id="_Ellipse_" data-name=" Ellipse " cx="26.64" cy="41.86" rx="13.78" ry="1.8" style="fill:#45413c;opacity:0.15000000596046448;isolation:isolate"/><path id="_Path_" data-name=" Path " d="M29.51,41.42,4.31,16.22A7.28,7.28,0,0,1,14.6,5.92L35.5,26.77a4.89,4.89,0,0,1-6.91,6.92L13.11,18.21a1.19,1.19,0,0,1,0-1.68h0a1.2,1.2,0,0,1,1.7,0h0L30.28,32a2.56,2.56,0,0,0,3.53,0,2.49,2.49,0,0,0,0-3.52L12.91,7.62A4.88,4.88,0,0,0,6,14.52l25.2,25.2a7.17,7.17,0,0,0,10.46-9.81l-.32-.32L18.26,6.51a1.2,1.2,0,0,1,0-1.7h0a1.19,1.19,0,0,1,1.68,0h0L43,27.89A9.56,9.56,0,0,1,29.51,41.42Z" transform="translate(-1.72 -3.34)" style="fill:#e8f4fa;stroke:#45413c;stroke-linecap:round;stroke-linejoin:round"/></svg>