<?xml version="1.0" encoding="utf-8"?>
<!-- Generator: Adobe Illustrator 21.0.2, SVG Export Plug-In . SVG Version: 6.00 Build 0)  -->
<svg version="1.1" id="Layer_1" xmlns="http://www.w3.org/2000/svg" xmlns:xlink="http://www.w3.org/1999/xlink" x="0px" y="0px"
	 viewBox="0 0 65.3 151.1" style="enable-background:new 0 0 65.3 151.1;" xml:space="preserve">
<title>Asset 3</title>
<g id="Layer_2">
	<g id="OBJECTS">
		<path id="_Compound_Path_" d="M47.1,20c1.1,2-3.1,5.8-1.7,7.3c0.9,0.9,1.9,2.1-0.4,3c4.9,4.6,12.4,3.8,17.8,7.3
			c4,2.6,2,12.2,1.7,17c-0.1,2.8-2.2,8.1-2.4,10.9c-0.4,5.3,1.3,7.4-2.3,12.7c-1.1,1.7-0.7,7.2-0.9,9.9c1.8,2.5,1.7-0.5,1.8,2.5
			c-6.8,4.7-4.3,13.8-6.7,19.5c-0.7,1.6-2.8,3.2-3.1,4.9c-1.1,6.7,0.4,13.7,0.4,21.2c-0.9,3.7-2.5,7.3-2.4,11.8
			c-0.5,0.1-1.1,0.3-1.6,0.5c-3.1,2-1.8,1.4-5.5,1.8c-1.3,0.1-3.2,1.5-4.5,0.6c-0.4-0.3,0.5-0.8,0.7-1.1c-0.7-0.4-6.8,0.4-7-0.3
			c-0.4-1.4,5-1.8,5.4-1.9c2.5-1.2,3.8-1.1,6.6-1c0.3-1.2,0.4-2.4,0.5-3.6c-0.1-2.4-0.7-5.2-0.7-7.5c-0.1-3.7-0.2-7.1-0.2-10.9
			c-1.2-0.2-2-2.6-3.2-2.8c-0.5,0.5-2.9,0.5-2.5,1.8c0.1,0.3-1.1,3.2-2.1,3.4c-0.3,0-0.6,0.1-0.8,0.3c-0.2,0.2-0.5-0.1-0.6,0.1
			c-0.2,0.3-0.8-0.2-1.2-0.2c-0.6,0-0.5,0.8-1.2,0.8s-1.2-1.3-2.4-1.1c-1.1,0.1-2.2-0.3-3-1c-2.8-2.1-2.1-7.1-0.8-9.7
			c1.1-2.3,7.2-1.4,9.4-2.5c-1.8-2.1-5.9-4.6-6.5-7.3c-0.2-0.9,0.7-3.3,0.1-4c-1.7-2.3-4.4-3.7-7.3-3.8c-1.7-0.1-3.3-0.5-4.9-1.2
			c-1-0.4-2.4-0.4-3.2-1.1c-1.3-1-2-0.8-3.5-0.8c-0.2,0.4-0.3,1-0.7,1.3C6.4,97.8,5,97.8,3.9,99s-2.1,1.3-2.1-0.1
			C2.1,98,2.8,97.4,3.6,97c-0.9-0.1-3.3,0.3-3.5-0.9s0.7-1.3,0.9-2c-0.3-0.7-0.5-1,0.5-1.6c0.1-0.3-0.3-0.3-0.1-1.2
			C2.2,90,3.9,90,6,89.5c1.3-0.3,2,0.8,3.4,0.8c4.4,0.1,10.4-0.7,14.6,0.2c3.5,0.8,6.9,2.4,10.2,3.6c2.1-2.7,4.5-4.5,5.2-7.8
			c0.4-1.8-1.7-4.8-1.6-6.5c0-0.9,1.4-1.4,1.4-1.8c-0.1-1.8-1.4-3.5-1.9-4.9C36.6,65,31.8,56.1,30,45.7c-0.9-5.3-2.5-2.5-4.1-13.7
			c-0.4-2.8-4.5-9-5.4-11.5c-0.3-0.8,1.5-1.8,2-2.6c-1.3-1.1-3.6-1.8-3.8-3.6c-0.3-2.3,1.6-2.5,1.9-4.4C20.6,8.5,20,6,20.3,4.7
			c0.5-2.5,4.4-4.8,6.9-4.7c0.9,0,1.4,1.1,1.7,2c0.6,1.6-0.9,4-0.5,5.8c0.3,1.4,1.7,1.6,1,4.1c-0.2,0.6-0.9,0.3-1.6,0.5
			c1.3,0.8,3.3,0.4,3.5,1c1.6,4.6,3.5,9,5.9,13.3c1.2-2,2.6-3.9,4.2-5.7C42.7,19.5,46.1,18.2,47.1,20L47.1,20z M44,42.2
			c-0.1,0,9.1,5.6,9.6,5.8c-1.2,2.2-3.3,8.7-4.5,10.9c-0.9-1.5-1.9-5.9-2.6-7.5C45.5,48.4,44.6,45.3,44,42.2z"/>
	</g>
</g>
</svg>
