<?xml version="1.0" encoding="utf-8"?>
<!-- Generator: Adobe Illustrator 21.0.2, SVG Export Plug-In . SVG Version: 6.00 Build 0)  -->
<svg version="1.1" id="Layer_1" xmlns="http://www.w3.org/2000/svg" xmlns:xlink="http://www.w3.org/1999/xlink" x="0px" y="0px"
	 viewBox="0 0 99.2 125" style="enable-background:new 0 0 99.2 125;" xml:space="preserve">
<title>Asset 4</title>
<g id="Layer_2">
	<g id="OBJECTS">
		<path id="_Compound_Path_" d="M0,20L0,20c0-0.2,0.2-0.3,0.3-0.3h8.3v-6.3c0-0.6,0.4-1,1-1c0,0,0,0,0.1,0h1.6c0.6,0,1,0.4,1,0.9
			c0,0,0,0,0,0.1v6.3l0,0v-7.7c0-0.7,0.6-1.2,1.3-1.2h1.9c0.7,0,1.2,0.5,1.2,1.2v7.7h2.1c0-0.1,0.1-0.2,0.1-0.3
			c0.2-0.3,0.6-0.6,1-0.6c0.2,0,0.4,0,0.6,0.1c0,0,0.3-0.6,0.7-0.8c0.3-0.1,0.6,0,0.9,0.2c0,0,0.1-0.3,0.8-0.3s0.7,0.3,0.7,0.3
			c0.3-0.1,0.6-0.1,0.9,0c0.4,0.2,0.6,0.5,0.6,0.7c0,0.2,0.1,0.4,0.1,0.5c0.2,0,0.5,0,0.7,0.2H42l0.4-0.2c0.4,0,1.6-1.1,2.2-2
			c0.4-0.7,0.6-1.5,0.6-2.3c0-0.6,0-1.2-0.1-1.8c-0.1-0.2-0.4-1.8-0.4-1.8s-0.8-0.1-1-0.4c-0.2-0.3-0.3-0.6-0.2-1
			c0.1-0.5-0.3-0.8-0.3-1.3S43,7.8,43.3,7.7l0.3-0.1c0.1-1.5,0.3-3,0.7-4.5C45.1,2,46.1,1,47.4,0.5C48.1,0.2,48.8,0,49.5,0h0.1
			c0.7,0,1.5,0.2,2.2,0.5C53,1.1,54.1,2,54.8,3.2c0.4,1.5,0.6,3,0.7,4.5l0.3,0.1c0.3,0.1,0.3,0.7,0.2,1.2s-0.4,0.8-0.3,1.3
			c0.1,0.4,0,0.7-0.2,1c-0.2,0.3-1,0.4-1,0.4s-0.3,1.6-0.4,1.8C54,14,54,14.6,54,15.3c0,0.8,0.2,1.6,0.6,2.3c0.6,0.9,1.8,2,2.2,2
			l0.4,0.2h16.1c0.2-0.1,0.4-0.2,0.7-0.2c0.1-0.2,0.1-0.4,0.1-0.5c0-0.2,0.3-0.4,0.6-0.7c0.3-0.1,0.6-0.1,0.9,0c0,0,0-0.3,0.7-0.3
			s0.8,0.3,0.8,0.3c0.2-0.2,0.6-0.2,0.8-0.2c0.4,0.1,0.7,0.8,0.7,0.8c0.2-0.1,0.4-0.1,0.6-0.1c0.4,0,0.8,0.2,1,0.6
			c0,0.1,0.1,0.2,0.1,0.3h2.2v-7.7c0-0.7,0.6-1.2,1.3-1.2h1.9c0.7,0,1.2,0.5,1.3,1.2v7.7l0,0v-6.3c0-0.6,0.4-1,1-1c0,0,0,0,0.1,0
			h1.6c0.6,0,1,0.4,1,0.9c0,0,0,0,0,0.1v6.3h8.3c0.2,0,0.3,0.1,0.3,0.3l0,0v1.1l0,0c0,0.2-0.2,0.3-0.3,0.3h-8.2v6.3c0,0.6-0.4,1-1,1
			c0,0,0,0-0.1,0H88c-0.6,0-1-0.4-1-0.9c0,0,0,0,0-0.1v-6.3l0,0V29c0,0.7-0.6,1.2-1.3,1.2h-2c-0.7,0-1.2-0.5-1.3-1.2v-7.7h-1.8
			c0.1,0.3,0.1,0.7,0,1c-0.2,0.6-0.4,1.4-1.2,4s-1.3,8.3-2.3,10.8s-2.2,5.3-2.9,5.7s-1.9,0-2.6-0.1s-1.6-0.7-3-1.6
			c-1.7-1.1-3.2-2.4-4.6-3.9c-0.6-0.9-1-1.9-1.2-2.9l-0.3,0.4c0,0.2,0.1,0.3,0.1,0.5c-0.3,0.4-0.5,0.9-0.7,1.4c0,0.4-0.1,0.7-0.3,1
			c-0.2,0.3-0.4,0.7-0.5,1.1c-0.2,0.8-0.4,1.7-0.5,2.5c0,0.5-0.1,1-0.2,1.5c-0.2,0.8,0,0.7,0.1,1.2c0,0.6,0,1.1-0.1,1.7
			c0,0.8,0,1.5,0.2,2.3c0.1,0.5,0.2,0.5,0.1,0.9c0,0.4,0.1,0.8,0.3,1.1c0.1,0.5-0.1,0.5-0.2,1c0,1.1,0.1,2.1,0.4,3.2
			c0.4,0.8,0.8,1.6,1.3,2.4c0.1,0.3-0.3,1-0.4,1.2s0.1,0.4,0.5,1.5c0.6,1.1,1.2,2.1,1.9,3.1c0.7,1.3,0,1.6,0.2,2.9s0.3,2.8,0.4,3.3
			c0.2,1.2,0.2,2.4,0.2,3.7c0,1,0.2,1.9,0.6,2.8c0.5,1.9,0.8,3.8,1,5.8c0,0.7-0.3,1.4-0.7,2c-0.8,1.1-1.6,1.1-1.6,1.1
			c0,0.5,0,1-0.1,1.5c-0.2,1.7,0,3.5,0.4,5.2c0.5,2.2,2,5.4,2.3,9s-0.7,13.1-0.7,13.1c0.1,0,0.1,0,0.2,0c0.1,0,0,0,0.1,0.3
			s0.2,1.7,0.2,1.7c0.4,0,0.8,0.1,1,0.4c0.4,0.5,0.2,0.7,0.5,0.8c0.4,0.2,0.7,0.6,0.8,1c0.3,1.1,0.7,2.1,1.2,3.1
			c0.6,0.5,1.1,1.1,1.5,1.7c0.2,0.5,0.3,1,0.3,1.5l0.1,0.3c0,0,0.1,0.9-0.2,1.1c-1.2,0.3-2.4,0.4-3.6,0.4c-1.1-0.1-2.1-0.4-3.1-0.9
			c-0.2-0.3-0.4-0.6-0.6-0.9c-0.2-0.2-0.6-0.2-1.3-0.4c-0.5-0.2-1.1-0.4-1.5-0.8c-0.1-0.5-0.1-1-0.1-1.5c0.1-0.2,0.2-0.3,0.2-0.3
			c0-0.5,0-1.1,0-1.6c-0.1-0.4-0.2-0.8-0.1-1.2c0.1-0.3,0.5-0.9,0.5-1.1s-0.2-2.9-0.1-3.1s0.1-0.2,0.1-0.2s-0.8-4.9-1.4-6.9
			s-1.7-3.3-2.2-5.6s0-6.7-0.3-7.5c-0.4-0.9-0.9-1.7-1.4-2.6c-0.7-1.7-1.2-3.5-1.5-5.3c-0.7-0.1-1.4-0.3-2-0.6
			c-0.3-0.4-0.6-0.8-0.7-1.3c-0.2-1-0.6-2-1.1-2.9c-0.6-1.2-1.5-3.9-1.9-4.9c-0.3-0.7-0.7-0.9-0.8-0.9h-0.1c-0.2,0-0.5,0.2-0.8,0.9
			c-0.4,1-1.3,3.8-1.9,4.9c-0.5,0.9-0.8,1.9-1.1,2.9c-0.1,0.5-0.3,1-0.7,1.3c-0.6,0.3-1.3,0.5-2,0.6c-0.4,1.8-0.9,3.5-1.5,5.3
			c-0.5,0.8-0.9,1.7-1.2,2.6c-0.3,0.8,0.2,5.2-0.3,7.5s-1.6,3.5-2.2,5.6s-1.4,6.9-1.4,6.9s0.1,0,0.1,0.2s-0.2,3-0.1,3.1
			s0.4,0.7,0.5,1.1c0.1,0.4,0,0.8-0.1,1.2c0,0.5,0,1.1,0,1.6c0,0,0.1,0,0.2,0.3c0,0.5,0,1-0.1,1.5c-0.4,0.4-0.9,0.6-1.5,0.8
			c-0.7,0.2-1.2,0.2-1.3,0.4c-0.1,0.3-0.3,0.6-0.6,0.9c-0.9,0.5-2,0.9-3.1,0.9c-1.2,0-2.4-0.1-3.6-0.4c-0.3-0.2-0.2-1.1-0.2-1.1
			l0.1-0.3c0-0.5,0.1-1,0.4-1.5c0.4-0.6,0.9-1.2,1.5-1.7c0.5-1,0.9-2.1,1.2-3.1c0.1-0.4,0.4-0.8,0.8-1c0.3-0.2,0.1-0.3,0.5-0.8
			c0.2-0.3,0.6-0.5,1-0.4c0,0,0.1-1.5,0.2-1.7s0-0.2,0.1-0.3c0.1,0,0.1,0,0.2,0c0,0-1-9.5-0.7-13.1s1.8-6.8,2.3-9
			c0.4-1.7,0.5-3.5,0.4-5.2c-0.1-0.5-0.1-1-0.1-1.5c0,0-0.8,0-1.6-1.1c-0.4-0.6-0.7-1.3-0.7-2c0.2-1.9,0.5-3.9,1-5.8
			c0.4-0.9,0.6-1.8,0.6-2.8c0-1.2,0.1-2.5,0.3-3.7c0.1-0.5,0.3-2,0.4-3.3s-0.5-1.7,0.2-2.9c0.7-1,1.3-2,1.9-3.1
			c0.4-1,0.6-1.3,0.5-1.5s-0.5-0.8-0.4-1.2c0.5-0.8,0.9-1.6,1.3-2.4c0.3-1,0.4-2.1,0.4-3.2c-0.1-0.6-0.3-0.6-0.2-1
			c0.2-0.4,0.2-0.8,0.2-1.2c-0.1-0.4,0-0.4,0.1-0.9c0.1-0.8,0.2-1.5,0.2-2.3c-0.1-0.6-0.1-1.1-0.1-1.7c0.1-0.5,0.2-0.4,0.1-1.2
			c-0.1-0.5-0.2-1-0.2-1.5c-0.1-0.8-0.3-1.7-0.5-2.5c-0.1-0.4-0.2-0.8-0.5-1.1c-0.2-0.3-0.3-0.6-0.3-1c-0.1-0.5-0.4-1-0.7-1.4
			c0-0.2,0-0.3,0.1-0.5l-0.3-0.4c-0.2,1.1-0.6,2.1-1.2,2.9c-1.3,1.5-2.9,2.8-4.6,3.9c-1.4,0.9-2.3,1.5-3,1.6s-1.9,0.5-2.6,0.1
			s-1.9-3.2-2.9-5.7s-1.5-8.2-2.2-10.8s-1-3.4-1.2-4c-0.1-0.3-0.1-0.7,0-1h-1.8v7.7c0,0.7-0.6,1.2-1.3,1.2h-1.9
			c-0.7,0-1.2-0.5-1.3-1.2v-7.7l0,0v6.3c0,0.6-0.4,1-1,1c0,0,0,0-0.1,0H9.6c-0.6,0-1-0.4-1-0.9c0,0,0,0,0-0.1v-6.3H0.3
			c-0.2,0-0.3-0.1-0.3-0.3l0,0V20z M64.1,21.4c0.3,0.2,0.6,0.4,0.8,0.6c1.4,1.4,2.7,4.5,3,4.8s2.3,1.4,3,2.5c0.6,1.1,1,2.2,1.2,3.4
			c0,0,0,0.1,0.8-1.3s1.5-1.3,2.2-4.2s0.7-3,0.6-3.3c-0.7-0.4-1.4-0.8-2.1-1c-0.6-0.3-1-0.9-1.2-1.5v-0.1L64.1,21.4z M55.6,7.6
			L55.6,7.6z M35.1,21.4h-8.2v0.1c-0.1,0.7-0.6,1.2-1.2,1.5c-0.8,0.3-1.5,0.6-2.1,1.1c-0.1,0.3-0.2,0.4,0.6,3.3s1.4,2.8,2.2,4.2
			s0.8,1.3,0.8,1.3c0.3-1.2,0.7-2.4,1.2-3.4c0.7-1.2,2.8-2.2,3-2.5s1.6-3.4,3-4.8C34.5,21.8,34.8,21.6,35.1,21.4L35.1,21.4z
			 M43.6,7.6L43.6,7.6C43.6,7.6,43.6,7.6,43.6,7.6z"/>
	</g>
</g>
</svg>
