<?xml version="1.0" encoding="utf-8"?>
<!-- Generator: Adobe Illustrator 21.0.2, SVG Export Plug-In . SVG Version: 6.00 Build 0)  -->
<svg version="1.1" id="Layer_1" xmlns="http://www.w3.org/2000/svg" xmlns:xlink="http://www.w3.org/1999/xlink" x="0px" y="0px"
	 viewBox="0 0 39.9 134" style="enable-background:new 0 0 39.9 134;" xml:space="preserve">
<title>Asset 5</title>
<g id="Layer_2">
	<g id="OBJECTS">
		<path id="_Compound_Path_" d="M39.9,51.9c-0.5,1-3.8-0.4-3.5-1.8c0.2-0.9,0.2-1.8,0-2.6c0-0.5-1.6-2-2-2.4s-0.3-0.8-0.3-0.8
			c0.8-0.8,0.5-2.5,0.5-2.6c-0.1-0.7-0.3-1.4-0.6-2c-0.4-0.8,0.1-0.6,0.1-0.6c0.2-1.1,0.2-2.2,0.1-3.2c0.2-1.7,0.6-3.4,1-5.1
			c0.1-0.3,0.2-6.7,0.2-6.8c-0.1-1-0.1-2,0-3.1c0.2-0.5,0.4-0.5,0-1.6c-0.8-1.3-1.7-2.5-2.8-3.6c-0.8-1.5-9.1-8.8-9.4-9
			c-0.3-0.4-0.6-0.9-0.8-1.4c-0.1-1.6-2.3-4.6-2.4-4.7c-0.3-0.3-0.6-0.5-1-0.5c-0.2,0.1-0.5,0.2-0.7,0.3c-0.2,0-0.3,0.5-0.3,0.5
			c-0.7,0-0.8,0.9-0.8,0.9c-0.8-0.6-0.9,0.5-1.1,0.4s-0.6,0-0.6,0c-0.4,0-0.3,0.7-0.5,0.6s-0.4,0-0.4,0.4c-0.1,0.7-0.1,1.4,0,2.1
			C14.9,5.8,15.4,6.5,16,7l0.4,0.5c0,0,0,1.1,0,1.4s-0.1,0.6-0.6,1.1c-0.6,0.9-1,1.9-1.4,2.9c0,0.1-0.1,0.6-0.2,0.5
			s-0.6,0.2-0.6,0.5c-0.6,0.5-1.3,0.9-2.1,1.3c-0.2-0.3-0.9-0.1-0.9-0.1c-1,0.1-1,1.2-1,1.2l-1.2,0.7c-1.5-0.5-1.5,0.9-1.5,0.9
			C3,19.7,0.5,23,0.1,23.2s0.6,1.8,0.6,1.8c-0.4,1.5,4.1,12.4,4.1,12.4c0.2,0.5,0.5,1,0.8,1.4c0.8,1,0.4,1.1,0.3,1.1
			S5.2,40,5.6,40.7c0.2,0.4,0.2,0.8-0.1,1.2c-0.6,0.6,0.2,2.7,0.4,2.9s0.8,0.8-0.1,1.2s-0.4,3-0.4,2.3S6,47.8,6,47.8
			c-0.3,0.2-0.7,0.5,0,2c0.4,0.8,0.5,1.7,0.1,2.6c-1.3,1.4-0.4,4.5-0.4,4.5c-0.1-0.4,0.9-0.7,0.9-0.7c0,0.2,0,0.4,0,0.6
			c-0.1,0.8,0.3,1.6,1.1,1.9C7.3,58.5,7.6,58,7.6,58c0.5-0.4,0.7-1.8,0.7-1.8c0.5,0.6,0.6,1.4,0.4,2.1c1.5,0,0.6-1.8,0.6-1.8
			c0.9,0.6,0.7,2,0.7,2c1.6-0.9-0.1-2.1-0.2-2.6s0-1,1-1.2s1.2-1.8,0.7-2s-0.7-3-0.7-2.5s0.7,1,1,1.5c0.3,0.7,0.2,1.6-0.1,2.3
			c-0.3,0.8,1.4,3.8,1.6,4.4s-1.6,2.3-3.8,5.5c-2.2,3.2-2.3,4.9-3.3,8.4s0.2,3.4-0.2,4.5S6.2,78,6.2,78c-0.5,0.5,0.3,1.7,0.3,1.7
			c1.7,3.1,3.7,5.9,6,8.5c3.3,3.4,5.4,8.2,6.2,9.7s0.2,1.9,0.2,1.9c-1.2,1.8-2.2,3.7-2.9,5.8c-0.5,1.1-0.4,5-0.5,5.4
			c-0.3,1.7-0.3,3.4-0.1,5.1c0.3,1.7-0.3,3.2-0.4,3c0-0.1-0.2-0.2-0.3-0.1c0,0,0,0,0,0c-1,1.2-1.8,2.6-2.1,4.1
			c0.2,0.8,0.4,1.6,0.6,2.3c0.1,2,0.1,4.1,0,6.1c0.3,0.4,1.3,0.1,1.3,0.1c-0.2-1.8-0.2-3.7,0-5.5c0.4,0.5,0.7,1.1,0.9,1.7
			c0.4,1,0,4.1,0.2,4.1c0.7,0.1,1.3,0.4,1.8,0.9c0.3,0.3,0.7,0.6,1.2,0.7c5.1,1.5,6-0.9,6-0.9l0.1,0.4c3.1,1.1,4.1,0.1,4.5-0.3
			s0.8-2.3,0.5-2.7c-0.4-0.9-0.7-1.9-0.7-2.8c0.1-0.5-0.5-0.1-0.9-1.9c-0.4-1.6-0.7-3.2-0.8-4.8c0-1.5,2.4-6.2,2.4-6.2
			c0.9-2.2,2.1-4.4,3.4-6.4c0.8-0.8,1.7-4.2,1.7-4.2s1.6-3.9,1.8-4.7c0-1.2-0.3-2.3-0.7-3.4c-0.2-0.3-1.5-4.6-1.7-5.1
			C34,90,34,89.5,34,89c0.1-2.6-3.4-9.5-3.6-9.9c-1.7-3.9-0.8-11.5-0.8-12.1c0-1.2,0.7-6.7,0.7-6.7c0.9-3.3,3.3-5.4,3.3-6
			s0.2-0.9,0.4-0.8s0.9,0.9,0.9,0.9c1.1,0.9,2.6,1.1,3.8,0.4c-0.3,0.1-0.5-0.4-0.5-0.4c0.6,0,1.2-0.4,1.3-1
			c-0.3,0.1-0.7-0.4-0.7-0.4C40,52.9,39.9,51.9,39.9,51.9z M24,129.8c-0.1,0-1.3-1-1.3-1s0.5-0.4,0.4-0.6s0-5,0-5h0.1
			c0.3,0.5,0.5,1.1,0.5,1.7C23.9,126.5,24,128.1,24,129.8z M28.4,100.5c-1.1,0.9-2,4.7-2.3,5.3s-0.8,6.6-1.1,8.1
			c-0.3,1.2-0.8,2.3-1.5,3.3c-0.7,0.6-1.3,1.4-1.8,2.2c-0.3,0.8-0.2,1.8,0.3,2.5c0.1,1.8-0.1,3.6-0.5,5.3c-1.6-2.3-1.5-8.2-1.5-8.2
			c0.1-1.6,0.3-3.3,0.7-4.9c0.1-0.3,1.1-3.1,1.4-3.7s2.6-6.9,2.8-7.3s2-4.5,2-4.5c0.2-0.5-0.5-3.1-0.5-3.1c0.2,0.1,0.2-0.1,0.3,0
			s1.7,3.8,1.7,3.8C28.6,100.2,28.3,100.5,28.4,100.5L28.4,100.5z M31,22.5c-0.8,1.9-1.2,3.9-1.1,6c-0.2-0.1-0.4-0.2-0.6-0.2
			c-0.3,0,0-0.4,0.1-0.6s0.3-0.1-0.5-0.3s-0.6-0.3-0.3-0.8s-0.4,0-1-0.5c-0.6-0.6-1.3-1-2.2-1.2c-0.9-0.1,0.3-0.3,1.1-0.6
			c-0.6,0-1.1-0.2-1.6-0.4c-1.7-0.5-1-0.3-1.4-0.1s-1-2.6-2.8-3.5c-1.3-0.5-2.8-0.5-4.1,0c0,0-3.2,0.5-3.1,1.4c0,0-2,0.6-2.2,1.4
			s-1.7,1.6-1.8,2.3s-0.9,2.1-1.5,2.1c-0.4,0,0.1,0.2,0.6,0c0.1-0.1,0.3-0.2,0.4-0.3c-0.1,0.2-0.3,0.3-0.4,0.3
			C8.2,27.6,8,27.9,8,28.2L7,29l-0.1-0.2c0,0-1.5-2-1.2-3s2.9-3.3,2.9-3.3S9.2,23,10,22.3s0.3-1.4,0.3-1.4l0.2-0.3
			c0,0,1,0.7,1.3,0.5c0.7-0.5,1.1-1.3,1.1-2.1c0,0-0.4,0,0.6-0.8s3.3-2.4,3.3-2.8s2.7-1.5,3.1-2.3s1.5-1.1,1.5-1.7s-0.4-0.7,0-0.7
			s0.9,0.5,1,0.6s8,9.7,8.4,10.1C31.1,21.6,31.1,22.1,31,22.5z"/>
	</g>
</g>
</svg>
