<?xml version="1.0" encoding="utf-8"?>
<!-- Generator: Adobe Illustrator 21.0.2, SVG Export Plug-In . SVG Version: 6.00 Build 0)  -->
<svg version="1.1" id="Layer_1" xmlns="http://www.w3.org/2000/svg" xmlns:xlink="http://www.w3.org/1999/xlink" x="0px" y="0px"
	 viewBox="0 0 47.3 116.3" style="enable-background:new 0 0 47.3 116.3;" xml:space="preserve">
<title>Asset 6</title>
<g id="Layer_2">
	<g id="OBJECTS">
		<path id="_Compound_Path_" d="M31.8,45.2c0-1.2,0.2-2.5,0.6-3.7c0.3-0.6,0.5-1.2,0.7-1.8c0.9,0.5,1.9,0.8,2.9,1
			c0,0.9,0.2,1.6,0.2,1.6h0.8c-0.2-0.5-0.2-1-0.3-1.5c0.4,0.1,0.9,0.1,1.4,0.1c1.4-0.2,2.7-0.9,3.7-1.9c0.1,0.3,0.3,0.7,0.4,1.1
			c0.3,0.9,0.2,1.9-0.3,2.6l0.5,0.1c0.3-0.9,0.4-1.9,0.2-2.8c0-0.5-0.1-1-0.3-1.4c0.3-0.3,0.7-0.7,1-1.1c0.1-0.2,0.2-0.3,0.2-0.5
			l0,0c0.2,0.9,0.2,1.8,0.3,2.6l0.7-0.1c0-1.4-0.3-2.7-0.8-3.9c-0.5-1.2-0.7-2.4-0.7-3.6c0.5-1.4,1.6-4.9,1-7.6
			c-0.2-1-0.5-1.9-0.7-2.7c0.7,1.7,1.3,3.5,1.7,5.4c0.1,0.2,0.7-0.5,0.7-0.5c-1-1.4-1.7-3.1-1.8-4.9c0-0.8-0.2-1.6-0.4-2.4
			c0.3,0.1,0.5,0.1,0.8,0c0.5-0.2-0.9-1.9-1.6-3.4c-0.7-1.6-2.2-2.8-4-3.1c-1.6-0.5-3.4-0.3-4.9,0.5c-0.7,0.4-1.3,1-2.3,1.6
			c0-0.3,0-0.5-0.2-0.7c-0.4-0.5-1.6-0.8-1.6-0.8s-1.4-1.9-1.3-2.3c0.2-0.6,0.3-1.1,0.6-1.6c0,0,0.4-0.1,1.4-0.6
			c1.1-0.3,1.7-1.4,1.4-2.5c0,0,0,0,0,0c-0.2-0.7-0.6-1.3-1-1.9c0,0,0.5-0.3-0.5-0.8c-0.7-0.3-1.5-0.3-2.3,0h-0.5
			c-0.5-1.2-1.5-2.2-2.7-2.8c-2.3-0.8-4.8-0.9-7.1-0.1c-1.5,0.7-2.5,2.2-2.6,3.8c-0.1,0.4,0,0.9,0.1,1.3c-0.2,1.1-0.4,2.1-0.5,3.2
			c0,1.3,1.2,2.5,1.2,2.6s0.1,2.1,0,2.2s-0.4-0.6-0.6-0.9s-0.4-0.6-0.4-0.6c0-0.2-0.1-1.3-0.3-1.3s-0.3-0.1-0.3,0.1S13.9,11,13.9,11
			h-0.2c0,0-0.3-1-0.5-1s-2.9,0.2-2.9,0.2s-1.1,0.5-1.2,0.7c0,0.2,0,0.5,0.1,0.7c0,0,0.5,0.5,0.4,0.7c-0.1,0.1-0.2,0.1-0.3,0.1
			c0,0-3.1,0-3.2,0l-0.2,0.1c0,0-1.8,0-1.9,0.1s-0.2,0.2-0.2,0.2s-0.5,0.1-0.5,0c-0.1-0.2-0.2-0.4-0.3-0.6c-1,0-1.9,0.1-2.9,0.3
			c0,0.1-0.1,0.1-0.1,0.2c0,0,0.4,4.9,0.4,5.1s0.1,0.2,0.1,0.2s2.9-0.3,3.1-0.3s0.2-0.2,0.2-0.2S4,17.2,4,17.2l0.6-0.1
			c0,0-0.3,0.1-0.3,0.3s0.1,0.2,0.2,0.3C5,18,5.6,18.1,6.3,18.2c0.6,0,1.9-0.4,2.3-0.3s0.4,0.4,1.1,0.7c0.6,0.2,1.3,0.4,1.9,0.5
			c0,0-0.5,8.6-0.4,10.4s0.6,3,0.6,3.4s0.7,2.6,1.2,2.8c0.8,0.2,1.5,0.2,2.3-0.1l4.2-2.6c0,0,1,1,1.5,1.7c0.3,0.3,0.5,0.6,0.6,0.9
			c0,0-1.2,5.8-1.7,7.7c-0.5,1.5-0.9,3.2-1,4.8c0,1.3,0.1,2.4,0.1,3s-0.1,1.2-0.1,1.2s0.4,7,0.9,12.7c0.6,4.6,1.5,9.2,2.8,13.6
			c0.6,2.3,2,9,2.2,10.5s1.6,8.8,1.7,10.2s0,2.4,0.1,2.7c0,0.1,0.1,0.3,0.2,0.3l0.5,0.5c0.1,1.5,0.1,3-0.2,4.5c-0.4,1-1.1,1.8-2,2.4
			c-0.2,0.1-0.4-0.3-0.6-0.2c-0.2,0.1-0.3,0.3-0.4,0.4l-0.1,0.3c-1.2,0.8-2.5,1.6-3.9,2.2c-0.6,0-1.2,0.1-1.8,0.4
			c-0.3,0.2-0.6,0.4-0.8,0.7c-0.1,0.1-0.4,0.1-0.5,0.3s-0.4,0.2-0.5,0.4s0,0.7,0,0.7s1.1,0.8,4.5,0.5s4-0.8,5.7-0.7s4.6,0,4.6,0
			l0.4,0.1c-0.1,0.2-0.2,0.4-0.3,0.7c0,0.3,0.4,0.5,0.8,0.7c2.3,0.2,4.6,0.2,6.8,0c1.6-0.5,3.1-1.2,4.5-2.1c0.8-0.5,0.8-0.5,1-0.5
			s0.8-0.3,1.2-0.4s1.7-1.1,1.7-1.8c0-0.5,0-1-0.2-1.4c-0.1-0.8-0.3-1.5-0.6-2.2c-0.3-0.4-0.5-0.8-0.7-1.2c-0.1-0.2-3-5.1-3-5.1
			c0.1-0.3,0.2-0.6,0.3-0.9c0.1-0.2-1-1.5-0.9-1.7s-3.4-8.6-4.4-10s-4-4.2-4.1-4.6c0-0.3-0.1-0.6-0.3-0.9c-0.1-0.1-0.3-0.1-0.3-0.3
			c-0.2-0.6-0.4-1.2-0.5-1.8c-0.1-0.7-0.1-1.2-0.2-1.4S31.8,69.4,32,67.1c0.2-2.3,0.4-3.9,0.9-4.7c0.7-1.7,1.3-3.4,1.6-5.2
			c0.5-2.6,0-5.3-1.3-7.6c-0.9-1.2-1.3-1.6-1.5-2.2C31.8,46.7,31.7,45.9,31.8,45.2z M16.5,19.4L16.5,19.4c0.1,0.2,0.3,0.3,0.5,0.4
			c1.5,0.8,3.1,1.3,4.7,1.6c-0.2,0.4-0.5,0.7-0.8,1c-0.2,0.2-0.4,0.4-0.7,0.7c-0.3,0-0.6,0-0.9-0.1c-1.1-0.1-2.1-0.5-3-1.1l0.1-1
			C16.4,20.7,16.5,20.2,16.5,19.4L16.5,19.4z M22,20.8L22,20.8c-1.3-0.1-2.6-0.5-3.8-1.1c-0.7-0.4-1.3-0.9-1.7-1.6
			c0-0.1,0-0.2,0-0.3c-0.1-1.5-0.4-2.4-0.4-2.6v-0.3c0,0,0.7,0,0.8,0c0.2,0.1,0.4,0.2,0.5,0.4c0.1,0.2,0,0.4,0,0.6s0.3,0.1,0.3,0.1
			c0,0.1,0.1,0.2,0.1,0.3c0.1,0.2,0.2,0.1,0.3,0.1s0.4,0,0.6,0.5s0.3,1,1.4,0.8c0.9-0.3,1.7-0.8,2.4-1.4c0.2-0.1,1.9,1.4,1.9,1.4
			s0.1,0.2-0.7,0.8C23,19.2,22.4,20,22,20.8z M16.1,23.1L16.1,23.1c1,0.6,2.1,0.9,3.2,0.9c-1.6,1.9-3.6,4.5-3.6,4.5s-0.1-0.1-0.1-1
			C15.7,27.1,15.9,24.9,16.1,23.1L16.1,23.1z M32.6,102.3L32.6,102.3c0.2-0.2-0.3-7.1-0.1-7.7c0,0,0.9,1.1,1.4,1.9s4,6,4,6.4
			s0.9,0.2,0.9,0.2c0.3,0.8,0.5,1.7,0.6,2.5c0,0.7-0.1,2.7-0.1,2.7s-0.6,0.1-0.8,0.2c-0.3,0.1-0.5,0.3-0.7,0.5
			c-0.1,0.7-0.4,1.3-0.8,1.9c-0.8,0.7-1.6,1.4-2.5,1.9c-0.5,0.2-1.1,0.4-1.6,0.5c0,0,0-0.3,0.2-1.5c0.2-1,0.1-2-0.1-2.9
			c-0.2-0.7-0.5-0.9-0.6-1.6s-0.2-4.6-0.2-4.6C32.4,102.6,32.5,102.4,32.6,102.3L32.6,102.3z"/>
	</g>
</g>
</svg>
