<?xml version="1.0" encoding="utf-8"?>
<!-- Generator: Adobe Illustrator 21.0.2, SVG Export Plug-In . SVG Version: 6.00 Build 0)  -->
<svg version="1.1" id="Layer_1" xmlns="http://www.w3.org/2000/svg" xmlns:xlink="http://www.w3.org/1999/xlink" x="0px" y="0px"
	 viewBox="0 0 49.6 73.1" style="enable-background:new 0 0 49.6 73.1;" xml:space="preserve">
<title>Asset 7</title>
<g id="Layer_2">
	<g id="OBJECTS">
		<path id="_Compound_Path_" d="M24.2,33.6c0.2,1.2,2.4,5.8,2.7,6.4s2.3,1.3,2.5,1.5s0,0.2-0.1,0.3c-0.2,0.2-0.5,0.3-0.7,0.3
			c-0.3,0.1-0.7,0-1-0.1c-0.4-0.1-0.8-0.3-1.2-0.5c-0.6-0.4-3.1-1.1-6.1-2.1c-2.5-0.8-5-1.4-7.6-1.9c0.9-0.7,1.8-1.4,2.6-2.2
			c1.3-1.2,4.3-4.7,4.3-4.7s0.5,0.3,0.7,0.4c0.4,0.2,1,0.1,1.4-0.2c0.4-0.3,0.6-0.8,0.6-1.3c0-0.1,0.4-0.1,0.5,0.3
			c0.2,0.6,0.5,1.1,0.9,1.5C24.1,32.1,24,32.4,24.2,33.6L24.2,33.6z M19.9,16.5L19.9,16.5c-2.3,0.7-5.4,1.7-6,1.8
			c-0.8,0.3-2.2,0.7-2.2,0.7v-1.9c0-0.2,0-0.4,0-0.6v-3.6c0.3,0,0.6-0.1,0.8-0.2c0,0,0.2-0.1,0.4,0c0.2,0.1,0.3,0.3,0.3,0.5
			c0,0.2-0.1,0.3,0,0.4s0.3,0.1,0.3,0.2s0,0.1,0,0.3s0.1,0.2,0.2,0.2s0.3,0.3,0.6,0.5s0.2,0.2,0.2,0.5c0,0.6,0.5,1.2,1.1,1.2
			c0,0,0.1,0,0.1,0c1.2-0.1,2.4-0.3,3.5-0.6C19.3,15.8,19.7,16.3,19.9,16.5L19.9,16.5z M7.7,16.1L7.7,16.1c-0.3,3-0.5,6.2-0.3,6.6
			c0.3,0.2,0.6,0.3,1,0.4c0,2.7-0.1,5.5,0.1,6.5C8.7,31,9,32.4,9.4,33.8c0.1,0.8,0,1.8,0.2,2.3s0.2,0.6,0.2,0.6
			c-1,0-2.1,0.1-3.1,0.3c-1.1,0.4-2,1.3-2.6,2.3c-0.4,1.5-0.3,3,0.3,4.5c0.6,1,4.6,10.6,5.5,13c0.6,1.5,1.1,3.1,1.3,4.8
			c0,0.7,0.7,1,0.8,1.3c0.1,0.3,0.2,0.7,0.2,1c0,0.4,0,0.8,0.1,1.1c0.2,0.4,2.5,0.8,2.5,0.8c-0.9,0.7-1.8,1.3-2.8,1.8
			c-0.9,0.3-2.8,0.9-3.5,1.1s-2.5,0.3-2.8,0.5s-0.4,1-0.3,1.2C5.7,70.7,6,70.9,6.4,71c0.2,0,0.3,0,0.5,0.2c2,0.4,3.9,0.7,5.9,0.8
			c2,0.1,5.3-0.2,7.1,0.3s4.7,0.1,4.8-0.1s0.1-0.9,0.2-1.4c0.1-1,0.1-2-0.2-3c-0.3-1-0.3-1.2-0.3-1.2l10.1,0.6
			c1.2,0.1,1.4,0.4,2.8,0.5s2.6,0.6,2.7,0.4c0.2-0.2,0.4-0.4,0.7-0.6c0,0,0.3,1.5,0.4,1.7c0.1,0.3,0.1,0.7,0,1
			c-0.7,0.2-1.3,0.3-1.9,0.6c-0.4,0.2-0.4,0.6-0.5,0.7c-0.1,0.3-0.1,0.6,0,0.9c0.2,0.3,3.7,0.9,4.9,0.6s2.6-2.5,3.2-3.3
			s0.3-2.1,0.5-3s1.2-3.4,1.8-4.5c0.4-0.6,0.5-1.5,0.1-2.2c-0.2-0.3-0.9-0.3-0.9-0.5s-0.7-0.4-1.5-0.8c-0.9-0.3-1.8-0.4-2.7-0.4
			c-0.3,0-0.4,0.4-0.6,0.4c-1,0.2-2.1,0.3-3.1,0.2c-0.2-0.2-0.5-0.2-1.1-0.3s-1.5,0.2-2,0.1c-0.4-0.1-0.8-0.1-1.2,0
			c-0.9,0.2-4.5,0.3-4.9,0.4c-0.3,0.1-0.6,0.1-0.8,0.1c0,0,4-1,4.8-1.3s0.7-0.4,1-0.3c0.6,0,1.1-0.1,1.6-0.2c0.1,0,0.3-0.1,0.4-0.2
			c0.7-0.4,1.5-0.8,2.2-1.1c1.5-0.6,2.8-1.4,3.9-2.6c0.8-1.1,0.9-1.6,0.9-1.9c0-0.2,0-0.3,0-0.5c0,0,0.5-5.7,0.5-6
			c-0.1-0.7-0.4-1.3-0.8-1.9c-0.2-0.2-0.3-0.4-0.5-0.6l-0.5-2.2c1.5-0.9,2.6-2.4,4.1-4.9c0.9-1.5-1.7-8.5-3-10.1S44,23.1,44,23.1
			c0.7-1,1-2.2,0.7-3.4c-0.7-2.3-1.9-4.3-3.5-6.1c-1.1-1.4-2.6-2.4-4.4-2.6c-0.7-0.2-1.5-0.1-2.2,0.3c-1-0.3-2.1-0.2-3.1,0.1
			c-0.4,0.1-0.8,0.1-1.3,0.2c-0.6-0.3-1.2-0.5-1.9-0.6c-0.1-0.2-0.2-0.5-0.2-0.6c-0.2-0.3-0.4-0.5-0.7-0.7c-0.1,0-0.7,0.2-0.7,0.2
			l-1.2,0.4c0,0-0.7-0.6-0.6-1.1c0-2-0.3-4-0.7-6c-0.6-1.4-1.8-2.5-3.2-3c-1.3-0.2-2.7-0.2-4,0.1c-1.4,0.2-4.3,1.5-4.3,3.1
			c-0.3-0.2-0.6-0.4-0.8-0.6c0,0,0.1-0.3,0-0.4c-0.4-0.2-0.9-0.3-1.3-0.2c-0.2,0.1-0.3-0.1-0.6-0.1C9.8,2.2,9.5,2.3,9.4,2.5
			C9.2,2.6,7.6,3.9,7.3,4.2S7.1,4.7,6.9,4.9S6.9,5.6,6.8,6.2s0,0.6,0.2,0.7l0.3,0.3c0,0-0.3,0-0.3,0.1c0,0.1-0.1,0.1-0.1,0.1
			c-0.1,0-0.3-0.1-0.4-0.1S6.2,7.1,6.1,7.1c-0.2,0-0.4,0-0.6,0c-0.1,0.1-0.1,0-0.1,0C5.4,7,5.3,7,5.2,6.9C5.1,6.9,3.1,6.8,3,6.9
			C2.9,6.9,2.8,6.9,2.8,7H2.5c0-0.1,0-0.2-0.1-0.3C2,6.6,1.4,6.6,0.9,6.5c0,0,0.2,0.2,0.2,0.3c0,0,0,0.1,0,0.1
			C0.9,7.1,0.6,7.2,0.4,7.3C0.2,7.4,0.1,7.5,0,7.7c0,0.1,0,3.2,0,3.3c0.4,0.2,0.7,0.4,1.1,0.5c0,0,0,0.1-0.1,0.1s-0.4,0.2-0.4,0.2
			c0.6,0,1.2,0,1.7,0c0,0,0-0.2,0.1-0.2h0.2c0,0,0.1,0.2,0.1,0.2s1.7,0,1.7,0c0.6,0.5,1.2,1.1,1.8,1.8c0.3,0.4,0.5,0.8,0.6,1.2
			C7.1,15.3,7.4,15.7,7.7,16.1L7.7,16.1z M12.2,23.3L12.2,23.3c0.7,0,1.5,0,2.2-0.1c0.6-0.1,1.4-0.2,2.1-0.2
			c-0.3,0.8-0.5,1.5-0.5,1.6s-0.1,0.1-0.3,0.5s-0.4,0.7-0.6,0.8s-0.5,0.9-0.7,1s-0.1,0.4,0,0.6c-0.3,0.6-0.7,1.2-1.1,1.7
			c0,0-0.1-0.4-0.4-1.5C12.8,27.1,12.5,25.3,12.2,23.3L12.2,23.3z M17.2,48.8L17.2,48.8c2.1,1.2,4.3,2.3,6.6,3.2
			c-0.5,0.3-1,0.6-1.4,1c-0.3,0.3-0.7,0.7-1.1,0.9c-0.7,0.4-2.8,2.1-3,2.3s-0.7-2.3-1.7-4.9c-0.7-1.7-1.7-3.4-2.9-4.9
			C13.7,46.4,15.1,47.4,17.2,48.8L17.2,48.8z"/>
	</g>
</g>
</svg>
