<?xml version="1.0" encoding="utf-8"?>
<!-- Generator: Adobe Illustrator 21.0.2, SVG Export Plug-In . SVG Version: 6.00 Build 0)  -->
<svg version="1.1" id="Layer_1" xmlns="http://www.w3.org/2000/svg" xmlns:xlink="http://www.w3.org/1999/xlink" x="0px" y="0px"
	 viewBox="0 0 125.9 156.1" style="enable-background:new 0 0 125.9 156.1;" xml:space="preserve">
<title>Asset 8</title>
<g id="Layer_2">
	<g id="OBJECTS">
		<g id="_Group_">
			<path id="_Path_" d="M111.4,12c-0.3,3.8,4,1.4,3.3,6c-0.8,5.1,2.5,4.1,0.8,7.8s0.9,4.4-0.9,7.4c0.6,1.3,0.9,2.6,0.9,4
				c0,3.8-4.6,19.8-2,26c2.3,5.3,2,12.5,0.3,17.4c-1.4,4.2-2,8.6-1.8,13c0.2,4.5,0.2,8.4,0.2,8.4l-1.9,0.4c0,0,0,4.1,1.9,6.7
				c3.1,4,5,8.8,5.4,13.8c0.6,6.9,2.1,12.9,4.1,14.6s4.2,1.5,4.2,4.3s-0.5,6.1-0.5,7.5v3.4l-0.9,0.2c0.1-1.2,0.1-2.3,0-3.5
				c-0.2-1.9-0.8-4.4-2-3.6s-3.1,4.3-3.9,5.9s-2.6,3.2-6.1,2.2s-4.7-3.3-2.8-3.8s4.1,0.3,4.6-1.6s1.2-7,0.4-9.6s-3.5-10.8-4.6-13.8
				s-2.6-6.7-2.6-6.7s0.1,4.8-0.9,7.1s-4.4,11.1-5,13s0.5,3.1,1.5,4s0.4,3.4-0.3,5.2c-0.6,1.6-1,3.4-1.1,5.1v3.1h-1.4
				c0.3-1.4,0.4-2.8,0.4-4.1c0-1.9,0.3-3.2-0.3-3.5s-3.6,2.3-4.8,4.1s-1.4,4.5-5.3,3.5s-6.5-3.1-5.6-4.3s2.9-0.2,4.1-0.9
				s3.5-6.4,4.9-9.9c1.7-4.8,2.9-9.8,3.5-14.9c0.4-4.3,1.1-7.5,1.2-8.9s0.1-4,0.1-4s-1.3-4.9-1.7-7c-0.3-1.2-0.4-2.4-0.4-3.6
				c0,0-2.3,0.4-2.3-1c0-7.6,1.5-20.9,1.7-31.6c0.2-10.1,0-13.8-2.1-16.7s-1.6-7.2,0.4-10.6c1.9-2.9,4.1-5.7,6.4-8.3
				c1.7-2.2,2-2.3,1.5-4.2s-0.5-4.3-1.7-4.2s-2.3,0-2.9-1.6s-2-4.5-2.2-6.5c0-0.7,0-1.3,0.1-2c-1.3-2-1.8-5.4-0.4-7.4
				c1.1-1.5,2.8-2.6,4.7-3.1C106.2,3.3,111.9,5.6,111.4,12z"/>
			<path id="_Path_2" d="M37.6,3.2c0.6-0.7-0.2-1.3-1.4-1.3S35.8,0.6,34,0.6s-4.8-1.1-7-0.4c-2.4,0.8-4.4,2.5-5.4,4.8
				c-1.3,2.6-1.5,5-0.7,7.1c0.8,2.1,1.6,5.3,1.6,5.3c-0.4,1-1.1,1.8-2,2.4c-1.8,1.3-5.2,2.9-8.3,6S8,34.4,6.7,36.7S6.4,45,5.3,47.9
				s0.7,6,0.7,7.1S4.7,78.2,4.3,79.6S4.9,81,8,81.8s2,0.4,2.5,1.3s0.5,5.5,0.5,8s0.7,5.5,0.4,9s-3.1,14.5-2.9,20.2s1.4,24.9,1.3,27
				s-0.1,4.2-0.1,4.2l3.8,0.4l-0.1-1.1c0,0,2.6,2.2,7.8,2.4s8.3-0.7,8.8-1.5c0.5-0.6,0.4-1.5-0.2-2.1c-0.3-0.2-0.7-0.3-1.1-0.3
				c-1.2,0-2.2-0.5-3.1-1.3c-0.6-0.5,0.5-1.1,0.5-1.1c2.6,0.6,5.2,0.9,7.9,0.7c3.9-0.4,6.6-0.9,6.8-1.6c0.1-1.2-0.7-2.3-1.9-2.5
				c-0.2,0-0.4,0-0.5,0c-2.1,0-3.7,0.2-5-0.5s-2.5-1.3-2.5-1.3c-0.3-3.5-1-7-1.9-10.4c-1.3-3.9-2.4-6.5-1.4-7.7s3-9.3,2.8-13.3
				s-0.1-7.1,1.1-10.8c1.2-3.8,3.8-16.5,3.5-23.4c-0.2-3.5-0.1-7,0.3-10.5c0.1-1.7,0.1-3.2,0.1-3.2c0-0.6,0-1.1,0-1.7
				c0.1-8.4-0.5-16.7-2-24.9c-0.4-2.7-1.1-4.9-1.1-6.4c-0.1-1.4-0.2-2.8-0.5-4.3c0,0-0.5-0.5,0.6-2.2s1.2-2.5,3.3-2.5s3.5,0,3.1-1.4
				s0.1-1.8-0.2-2.1s-0.8-0.5-0.4-0.8s0.8-0.2,0.8-1s0.8-0.4,1.2-0.8S40,13,39.3,11.8s-1.1-1.5-0.8-2.4s-0.2-1.7-1-3.2
				S36.4,4.3,37.6,3.2z"/>
			<path id="_Compound_Path_" d="M12.6,85.8c-0.3,0-0.5,0.3-0.5,0.6c0,0,0,0,0,0v0.4H1.9C0.8,87.1,0,88.1,0,89.3v18.5
				c0,1.4,1.1,2.5,2.5,2.5h15.3V85.8h-2.1v-0.4c0-0.3-0.1-0.4-0.3-0.4h-0.2v-2.3c0-0.2,0.2-0.4,0.4-0.4c0,0,0,0,0,0h2.2V81h-3.1
				c-0.5,0-0.8,0.4-0.8,0.8l0,0V85h-0.1c-0.2,0-0.3,0.1-0.3,0.4v0.4L12.6,85.8z M17.8,82.3H20c0.2,0,0.4,0.2,0.4,0.4l0,0V85h-0.1
				c-0.2,0-0.3,0.1-0.3,0.4v0.4h-2.1v24.5h15.3c1.4,0,2.5-1.1,2.5-2.5V89.3c0-1.1-0.8-2.1-1.9-2.4H23.6v-0.4c0-0.3-0.2-0.5-0.5-0.6
				c0,0,0,0-0.1,0h-0.9v-0.5c0-0.3-0.1-0.4-0.3-0.4h-0.1v-3.2c0-0.5-0.4-0.8-0.8-0.8h0h-3.1V82.3z"/>
			<path id="_Compound_Path_2" d="M95,79.3c-0.3,0-0.5,0.3-0.5,0.6c0,0,0,0,0,0v0.4H84.4c-1.1,0.3-1.9,1.3-1.9,2.4v18.6
				c0,1.4,1.1,2.5,2.5,2.5h15.3V79.3h-2.1v-0.4c0-0.3-0.1-0.4-0.3-0.4h-0.2v-2.3c0-0.2,0.2-0.4,0.4-0.4h0h2.2v-1.4h-3.1
				c-0.5,0-0.8,0.4-0.8,0.8l0,0v3.2h-0.1c-0.2,0-0.3,0.1-0.3,0.4v0.4H95z M100.3,75.8h2.2c0.2,0,0.4,0.2,0.4,0.4v0v2.3h-0.2
				c-0.2,0-0.3,0.1-0.3,0.4v0.4h-2.1v24.5h15.3c1.4,0,2.5-1.1,2.5-2.5V82.8c0-1.1-0.8-2.1-1.9-2.4h-10.2v-0.4c0-0.3-0.2-0.5-0.5-0.6
				c0,0,0,0-0.1,0h-0.9V79c0-0.3-0.1-0.4-0.3-0.4h-0.1v-3.3c0-0.5-0.4-0.8-0.8-0.8l0,0h-3.1L100.3,75.8z"/>
			<path id="_Path_3" d="M33.5,52.3c0,0,14.3,0,13.6,1.5c2.4,0,1.6-1.4,4-2.9s4.9-5.9,6-4.9s-2.6,4.3-2.6,6.2s9.1,4.8,7.7,7.7
				s-2.1,2.5-3.4,2.3s-1.6,1.3-4.3-0.1c-1.8-1-3.7-1.6-5.7-1.8c-0.8,0-0.5,1.5-0.6,2.3s0.3,2-1.3,1.9S32,64.4,30.7,64.4
				S29.5,52.1,33.5,52.3z"/>
			<path id="_Path_4" d="M101,54.4c-2.7,0.2-18.3,0.7-19.3,0.5s-0.8,0.7-0.9,1s-5.9-0.2-7-0.3s-3.6-0.7-3.9-1.6S69,53.5,69,54.4
				s1.4,2,0.4,2.1s-4.1,2.2-4.8,2.8s-0.7,1.1-0.1,1.2c0.6,0.1-1,1-0.8,1.4s-0.2,0.8,0.6,1.5s1.8,0,2.5-0.2s-0.5,0.8,0.7,0.8
				s4.5-0.8,5.5-0.9s3.5-1.4,3.7-2.1s0.4-0.2,1.4-0.1s1.8,1.7,2.2,3.1c0.3,1.5,9.9,1.4,16.9,1.7S108.1,53.4,101,54.4z"/>
		</g>
	</g>
</g>
</svg>
