<?xml version="1.0" encoding="utf-8"?>
<!-- Generator: Adobe Illustrator 21.0.2, SVG Export Plug-In . SVG Version: 6.00 Build 0)  -->
<svg version="1.1" id="Layer_1" xmlns="http://www.w3.org/2000/svg" xmlns:xlink="http://www.w3.org/1999/xlink" x="0px" y="0px"
	 viewBox="0 0 62.7 150.6" style="enable-background:new 0 0 62.7 150.6;" xml:space="preserve">
<title>Asset 10</title>
<g id="Layer_2">
	<g id="OBJECTS">
		<path id="_Compound_Path_" d="M62,142c-0.8,0-1.7,0-2.5,0c-1,0-2.1-0.2-3.1-0.6c-0.3-0.1-0.7-0.2-1-0.3c-1.1-0.2-2.2-0.6-3.2-1.3
			c0-0.3-0.1-0.7-0.4-0.9c-0.5-0.4-0.8-1-0.9-1.6c-0.3-1.5-0.7-2.9-1.1-4.4c-0.2-0.5-0.3-1.1-0.3-1.7c-0.1-2,0-4.1-0.1-6.2
			c-0.1-1.6,0-3.1,0.3-4.7c0.2-1.2,0.2-2.4,0.3-3.6c0-1,0-2,0.2-3c0.2-0.8,0.2-1.7,0.3-2.5s0.3-1.7,0.5-2.6c0.1-0.8,0.3-1.6,0.5-2.4
			c0.3-0.9,0.5-1.9,0.5-2.9c0-1.2-0.1-2.3-0.5-3.4c-0.1-0.3-0.1-0.5-0.2-0.8c-0.2-1.1-0.5-2.1-0.8-3.1c-0.2-0.5-0.3-1.1-0.5-1.6
			c-0.1-1-0.4-1.9-0.8-2.8c-0.3-0.5-0.4-1-0.2-1.6c0.1-0.4,0.1-0.7,0-1.1c-0.2-0.9-0.3-1.7-0.5-2.6c-0.1-0.3-0.1-0.7,0-1
			c0.3-1,0.1-2.1-0.5-2.9l-1-5.5c0.2-0.3,0.4-0.8,0.7-1.2c0.6-0.9,1-1.9,1.3-3c0.1-0.4,0.1-0.9,0.3-1.3c0.2-0.6,0.3-1.3,0.3-1.9
			c0-0.2,0-0.5,0.1-0.7c0.4-1,0.4-2.2,0-3.2c-0.3-0.5-0.2-1.2,0.3-1.6c0.4-0.3,0.6-0.8,0.7-1.3c0.1-0.7,0.2-1.4,0.3-2
			c0.1-0.3,0.1-0.6,0.1-0.8c0-0.7-0.1-1.3-0.1-2c0-0.9-0.1-1.9-0.3-2.8c0-0.2,0-0.4,0-0.6c0.2-1.1,0.4-2.1,0.4-3.2
			c0-0.5-0.1-1-0.3-1.5c-0.5-0.9-0.9-1.7-1.4-2.6c-0.2-0.4-0.3-0.7-0.4-1.1c-0.2-1-0.3-1.9-0.5-2.9c-0.3-1.4-0.6-2.8-1-4.2
			c-0.5-1.7-1.1-3.5-1.6-5.2s-1.1-3.5-1.5-5.2c-0.4-1.4-0.9-2.8-1.5-4.1c-0.1-0.3-0.3-0.5-0.5-0.7c-0.2-0.2-0.5-0.3-0.8-0.2
			c-0.3,0.1-0.7,0.1-1-0.1c-0.3-0.1-0.6-0.3-0.9-0.4c-1.4-0.5-2.9-0.8-4.4-1c-1.5-0.2-3-0.5-4.5-0.9c-0.4-0.1-0.7-0.3-1-0.6
			c-0.3-0.3-0.5-0.6-0.7-0.9c-0.1-1.4,0-2.1,0.9-5.1l0.2-0.1c0.5-0.3,0.6-0.4,0.6-1c0-0.1,0-0.2,0-0.3c0.1-0.4,0.1-0.7,0.2-1.1
			c-0.1-1.1-0.1-2.2-0.3-3.3c-0.1-0.9-0.2-1.8-0.4-2.7c-0.2-1.1-0.6-2.1-1.1-3c-0.3-0.5-0.6-1-1.1-1.3c-0.6-0.4-1.2-0.7-1.8-1.1
			c-0.6-0.5-1.5-0.7-2.3-0.5C22.9,0,21.8,0.4,21,1c-0.9,0.5-1.8,1.1-2.5,1.9c-0.6,0.5-1,1.2-1.1,2c-0.1,0.6-0.2,1.2-0.3,1.8
			c-0.2,0.9-0.2,1.8,0,2.6l-0.5,0.1c0,0.2,0,0.5,0,0.7c0,0.7,0.1,1.3,0.1,2c0,0.9,0.4,1.8,0.9,2.5l0.6-0.1c0.4,1.5,0.6,3,0.5,4.6
			c-0.3,0.3-0.6,0.6-0.9,1c-0.2,0.3-0.4,0.6-0.5,1c-0.2,0.8-0.8,1.4-1.6,1.6c-0.7,0.3-1.4,0.6-2.1,0.9c-1.4,0.6-2.9,1.3-4.3,1.8
			c-1.4,0.5-2.8,1.3-4,2.1H5c-0.7,0-1.3,0.4-1.4,1.1c-0.2,1.1-0.4,2.1-0.5,3.2c0,0.2,0,0.5,0.1,0.7c0,0.3,0,0.7-0.1,1
			c-0.2,0.5-0.4,1.1-0.6,1.6c-0.4,1-0.5,2-0.3,3.1c0,0.2,0,0.4,0,0.5C2.2,40,2,41.1,1.9,42.2c-0.1,0.5-0.1,0.9-0.2,1.4
			c-0.2,1.5-0.5,3.1-0.7,4.7c-0.1,1-0.2,2-0.3,3c-0.2,1.1-0.2,2.2,0.1,3.3c0.1,0.4,0,0.8-0.3,1.1c-0.4,0.4-0.5,1-0.5,1.5
			c0,0.5,0.1,1,0.3,1.5c0.2,0.9,0.4,1.8,0.7,2.6c0.2,0.7,0.5,1.3,1,1.8c0.4,0.4,0.7,0.9,0.8,1.5c0.2,1,0.5,1.9,1,2.8
			c0.2,0.5,0.4,1,0.5,1.5c0.1,0.7,0.4,1.4,0.9,2c0.7,0.6,1.1,1.5,1.1,2.4c0,0.1,0.1,0.3,0.2,0.4s0.2,0.3,0.2,0.4
			c0,0.4,0.2,0.8,0.6,1c1.1,1.1,2.2,2.2,3.3,3.2c0.2,0.1,0.4,0.3,0.6,0.4l0.4-1.1l0.4,0.2l0.5-0.3c0,2,0.1,3.9-0.1,5.9l0.9-0.5
			c0.1,0.3,0.1,0.7,0.1,1c0.1,1.2,0.2,2.3,0.3,3.5s0.1,2.4,0.2,3.6s0.4,2.2,0.5,3.4c0.2,1.6,0.6,3.1,1.1,4.6
			c0.3,1.1,0.5,2.2,0.5,3.3c0,1.2,0.1,2.3,0.2,3.5s0.3,2.1,0.4,3.1c0.1,1.2,0.1,2.5,0.2,3.7c0,0.8,0.1,1.5,0.1,2.3s0.2,1.6,0.3,2.4
			c0,1.3,0.1,2.6,0.3,3.8c0.1,0.4,0.1,0.9,0.1,1.3c0.1,0.8,0.1,1.7,0.2,2.6c0,0.7,0.1,1.3,0.2,1.9c0.1,0.8,0.2,1.6,0.3,2.3
			s0.1,1.4,0.2,2.1c0,0.5,0.1,1,0.1,1.5c0.1,0.8,0.2,1.6,0.3,2.3c0,0.5,0.1,0.9,0.2,1.3c0.5,1.3,1.1,2.6,1.6,3.9
			c0.2,0.6,0.5,1.1,1.2,1.2c0,0,0.1,0.1,0.1,0.2c-0.3,0.6-0.7,1.2-1.1,1.7c-0.2,0.4-0.5,0.7-0.7,1.1c-0.2,0.5-0.4,1-0.4,1.5
			c-0.1,0.4-0.1,0.8-0.1,1.2c0,0.7,0.2,1.4,0.6,2c1.8,1.9,4.8,2,6.7,0.3c0.2-0.1,0.3-0.3,0.4-0.5c1.4-2,1.4-4.8,1.3-7.1l0.1,0.1
			c0-0.4,0.1-0.9,0.4-1.2c0.2-0.4,0.4-0.8,0.6-1.1c0.4-0.7,0.7-1.4,0.8-2.2c0-0.6,0.1-1.2,0.2-1.8c0.2-1,0.2-1.9-0.1-2.9
			c-0.3-1.3-0.6-2.6-0.9-3.9c-0.5-2-1.2-3.9-2-5.8c-0.1-0.3-0.2-0.6-0.2-0.9c-0.1-0.9,0.1-1.8,0-2.7s0-2-0.1-3.1
			c-0.1-0.8-0.2-1.6-0.4-2.4c-0.1-0.3-0.1-0.7,0.1-1c0.2-0.4,0.3-0.8,0.4-1.3c0-1.1-0.1-2.2-0.1-3.3c0-0.2,0-0.4,0.1-0.6
			c0.2-1.1,0.3-2.3,0.4-3.4c0.1-1,0.1-2,0.2-3.1c0,0,0-0.1,0-0.1c0.1-0.9,0.2-1.8,0.3-2.7c0.1-1.3,0.1-2.6,0.2-3.9
			c0-0.2,0-0.3,0.1-0.5c0.2-1,0.4-2,0.5-3c0-1.2,0.2-2.3,0.5-3.4c0-0.1,0-0.3,0.1-0.4c0.1-0.4,0-0.9,0.3-1.3c0.3,0.7,0.6,1.4,0.8,2
			c0.7,2.1,1.4,4.2,2.2,6.3c1.1,3,2,6.1,2.7,9.1c0.4,1.8,0.8,3.5,1.3,5.3c0,0.2,0,0.4,0,0.6c-0.2,0.9-0.1,1.8,0.2,2.6
			c0.6,1.9,1.2,3.8,1.7,5.7c0.1,0.3,0.1,0.6,0.1,0.8c-0.1,0.6-0.1,1.2,0,1.8c0.1,0.9,0.1,1.9,0.2,2.8c0,0.1,0,0.2,0,0.4
			c0.1,0.8,0.2,1.7,0.3,2.6c0,1,0.1,2,0.3,3c0.1,0.7,0.1,1.4,0,2.1c-0.3,1-0.5,2.1-0.7,3.1c-0.1,1-0.4,1.9-0.6,2.9
			c-0.2,0.8-0.3,1.5-0.3,2.3c0,1.5,0,3,0,4.5c0,0.2,0,0.4,0,0.6c0.3,0.4,0.8,0.6,1.3,0.6c1.5,0.2,3.1,0.3,4.6,0.3
			c0.1,0,0.3,0,0.4-0.2c0.3-0.2,0.7-0.3,1.1-0.3c1.5,0.1,2.9,0.2,4.4,0.5c1.4,0.3,2.7,0.6,4.1,0.7c0.6,0,1.2,0.1,1.8,0.1
			s1.1-0.1,1.6-0.1c0.2,0,0.4,0.1,0.6,0.1c1.2-0.1,2.3-0.3,3.4-0.6c0.2-0.1,0.5-0.2,0.7-0.4c0.9-0.6,1.3-1.8,0.7-2.7
			c0-0.1-0.1-0.1-0.1-0.2C62.2,142.1,62.1,142,62,142z M11.6,59.6l-0.7,1c0-0.1-0.1-0.1-0.1-0.2c0,0,0-0.1,0-0.1
			c0.2-0.8-0.1-1.7-0.9-2.2c0-0.5,0-0.9,0-1.3c0.1-0.6-0.1-1.2-0.4-1.7c-0.1-0.2-0.1-0.5,0-0.8c0.2-0.5,0.4-1,0.4-1.5
			c0-0.1,0-0.2,0-0.2c0.3-0.5,0.4-1.1,0.3-1.7c0-0.4,0.2-0.7,0.4-0.9c-0.1,0.6,0.3,0.9,0.5,1.3c0.4,0.6,0.5,1.3,0.5,2
			c0,1.2-0.1,2.5,0,3.7C11.7,57.9,11.6,58.8,11.6,59.6z M61.6,145L61.6,145z"/>
	</g>
</g>
</svg>
