<?xml version="1.0" encoding="utf-8"?>
<!-- Generator: Adobe Illustrator 21.0.2, SVG Export Plug-In . SVG Version: 6.00 Build 0)  -->
<svg version="1.1" id="Layer_1" xmlns="http://www.w3.org/2000/svg" xmlns:xlink="http://www.w3.org/1999/xlink" x="0px" y="0px"
	 viewBox="0 0 37.8 148.3" style="enable-background:new 0 0 37.8 148.3;" xml:space="preserve">
<title>Asset 11</title>
<g id="Layer_2">
	<g id="OBJECTS">
		<path id="_Compound_Path_" d="M0.1,43.8C0,44.3,0,44.8,0.2,45.2c0.2,0.4,0.3,0.9,0.3,1.4c0.1,1.4,0.2,2.8,0.5,4.2
			c0.1,0.5,0.1,1,0.3,1.4c0.1,0.5,0.4,1,0.9,1.3c0.5,0.4,1,0.7,1.5,0.8c0.3,0.1,0.6,0.1,0.9,0c0.1,0,0.2,0,0.3,0
			c0.7,0.1,1.4,0.3,2.1,0.6c-0.1,1.3-0.4,2.6-0.8,3.8c-0.2,0.8-0.4,1.7-0.6,2.5c0,0.2,0,0.3,0,0.5c0,0,0.4,0.2,0.4,0.3
			c0.4,0.3,0.3,0.8,0.2,1.2C6,63.4,6,63.7,5.9,63.9c-0.1,0.6-0.1,1.1-0.3,1.7c0,0.4,0,0.9,0,1.3c-0.1,1.2-0.2,2.4-0.3,3.7
			c0,0,0,0,0,0.1c0,2-0.2,3.9-0.1,5.9c0.1,1.6,0.2,3.2,0.3,4.8c0,1.2,0.2,2.4,0.3,3.7c0.2,1.5,0.4,3.1,0.6,4.6
			c0.1,1,0.2,1.9,0.3,2.9s0.3,1.8,0.4,2.8c0.1,0.7,0.1,1.3,0.2,2c0.1,0.9,0.2,1.8,0.3,2.6c0,0.3,0,0.5,0,0.8c0,0.4,0.2,0.7,0.5,0.9
			c0.3,0.2,0.7,0.3,1.1,0.5l1.2,3.1c0,0.1,0.1,0.3,0.1,0.4c0.3,0.7,0.5,1.5,0.6,2.3c0.3,1.2,0.4,2.3,0.7,3.5
			c0.6,2.4,1.4,4.7,2.3,6.9c0.6,1.4,1.1,2.8,1.6,4.3c0.6,1.7,1.2,3.5,1.8,5.3c0.1,0.4,0.2,0.9,0.3,1.4c0.1,1.3,0.4,2.7-0.1,4
			c-0.2,0.6-0.5,1.2-0.7,1.8c-0.4,1.4-1,2.7-1.8,3.9c-0.4,0.5-0.8,1-1.3,1.4c-1.1,0.7-2.3,1.2-3.6,1.6c-0.4,0-0.7,0.4-0.7,0.8
			c0,0.2,0.1,0.4,0.3,0.6c0.3,0.2,0.5,0.4,0.8,0.6c0.3,0.2,0.6,0.3,0.9,0.3c0.7,0,1.3,0,2-0.1c0.6,0,1.2-0.1,1.8-0.2
			c1-0.1,2.1-0.3,3.1-0.4c0.1,0,0.2,0,0.4,0c0.7,0,1.4-0.2,2-0.6c0,0.4,0,0.7,0,1c0,0.9,0.2,1.8,0.6,2.5c0.3,0.7,0.9,1.2,1.6,1.4
			h0.1c0.9,0.7,1.6,0.2,2.3-0.3c0.5-0.4,0.9-0.9,1.3-1.4c0.6-0.9,0.9-2,0.7-3c-0.1-1-0.3-2-0.4-3.1c0-0.4-0.1-0.8-0.1-1.2
			c-0.1-0.7-0.1-1.5-0.3-2.2c-0.2-0.7-0.2-1.5-0.2-2.2c0.1-0.5,0.1-1,0-1.6c-0.1-1.3,0.1-2.6,0.6-3.8c0.3-1,0.7-2,1-3.1
			c0.7-2.3,1.3-4.7,1.9-7s1-4.7,1.5-7.1c0.1-0.6,0.1-1.2,0.2-1.8c0.1-1.5,0.1-2.9,0.1-4.4c0-0.9-0.2-1.8-0.3-2.7c0-0.4,0-0.9,0-1.4
			c0.3-0.2,0.7-0.3,1-0.4c0.4-0.1,0.7-0.4,0.9-0.7c0.5-0.7,0.7-1.5,0.6-2.3c0-1.1,0-2.1,0-3.2c0-1.3,0.2-2.5,0.3-3.7
			c0.1-1.1,0.2-2.2,0.3-3.2s0.3-1.8,0.4-2.8c0.1-0.5,0.1-0.9,0.2-1.4c0.1-0.8,0.1-1.6,0.2-2.3c0.2-2.3,0-4.5,0.2-6.8
			c0.1-1.3,0.1-2.6,0.1-3.8s-0.2-2.6-0.3-3.9c-0.1-1.4-0.3-2.8-0.7-4.1c0-0.2,0-0.4,0.1-0.6c0.1-0.2,0.1-0.5,0.1-0.7
			c-0.1-1-0.5-2-1-2.9c-0.4-0.6-0.6-1.2-0.6-1.9c-0.1-0.6-0.2-1.3-0.3-1.9c-0.1-0.8-0.3-1.5-0.6-2.3c-0.1-0.2-0.2-0.5-0.2-0.7
			c0-0.1,0-0.2,0-0.3c0-0.1,0.1-0.2,0.1-0.3c0-0.2,0-0.3,0-0.5c-0.1-0.6,0.1-1.3,0.5-1.8c1-1.3,1.9-2.7,2.6-4.2
			c0.6-1.4,1.1-2.8,1.7-4.2c0.5-1.3,0.7-2.8,0.7-4.2c0-1,0-2,0-3s0.2-1.7,0.1-2.6c0-0.9-0.1-1.7-0.3-2.5c-0.3-1-0.7-2-1.2-3
			c-0.2-0.6-0.8-1-1.4-1c-0.7-0.1-1.3-0.1-2-0.3l0.3-1.2c-0.4,0.4-0.9,0.6-1.5,0.5c-0.5-0.1-1-0.3-1.3-0.6l0.1-0.6L29.9,22
			c0.3-0.5,0.2-1.2,0.7-1.5c-0.2-0.5-0.3-0.8,0.1-1.2l0.6-0.1l-0.9-1v-0.1l0.2,0.1l0.2,0.1c0-0.1,0-0.1,0-0.1
			c-0.3-0.6-0.6-1.1-0.9-1.7c0-0.1,0-0.2,0-0.4c0-1.1,0-2.1,0-3.2c0-0.3,0.1-0.6,0.1-0.9c0-1.9-0.3-3.8-0.8-5.6
			c-0.4-1.1-1-2.2-1.6-3.2c-0.1-0.2-0.3-0.4-0.4-0.6c-0.5-0.8-1.3-1.5-2.2-1.9c-0.5-0.3-1-0.3-1.5-0.1c-0.3,0.1-0.6,0.1-0.7-0.1
			c-0.3-0.5-1-0.6-1.5-0.4c-2.2,0.4-4.1,1.5-5.7,3c-1.4,1.4-2.4,3.1-3.1,5c-0.6,1.7-0.9,3.5-0.9,5.3c0,0.3,0,0.5,0,0.8
			c0,0.2,0.1,0.3,0.1,0.5l-0.4,0.8l0.2,0.1c-0.3,0.9-0.7,1.7-1.2,2.4c0.5,0.3,0.6-0.2,0.9-0.3l0.2,0.1l0.3-0.3
			c0.1,0.1,0.1,0.2,0.1,0.2c0,0.3-0.3,0.5,0.1,0.7l-0.5,1c0.5-0.4,0.9-0.9,1.1-1.4c0.1,0.2,0.1,0.3,0.1,0.5c0,0.7-0.2,1.4-0.7,1.9
			c-0.3,0.3-0.5,0.6-0.9,1c0.5,0,0.9,0.3,1.4,0.1c-0.2,0.2-0.5,0.5-0.7,0.7s-0.5,0.4-0.5,0.9l-1.9,1l1.1,0c-0.1,0.1-0.2,0.3-0.4,0.4
			c-0.6,0.4-1.2,0.8-1.7,1.1L6,26.1c-0.1,0-0.2,0.1-0.3,0.1c-0.5,0-0.9,0.3-1.1,0.7c-1.1,1.9-1.8,3.9-2.2,6
			c-0.2,1.4-0.5,2.8-0.8,4.3c-0.3,1.6-0.6,3.2-0.9,4.8C0.4,42.6,0.3,43.2,0.1,43.8z M19.3,103.8h2.4l0.7,0.6c0,1.4,0,2.7,0,4
			c0,0.1,0,0.2-0.1,0.3c-0.2,0.3-0.3,0.7-0.2,1.1c0,2.9,0,5.9,0,8.8c0,0.2,0,0.4,0,0.6c-0.1-0.1-0.2-0.3-0.2-0.4c0-0.4,0-0.7,0-1.1
			c0-0.2,0-0.4-0.1-0.6c-0.2-0.3-0.2-0.5-0.2-0.8c0-0.3,0-0.7,0-1.1c-0.5-0.5-0.5-0.5-0.4-1.1c0.2-0.7,0.2-1.4,0.1-2.2
			c-0.1-0.6-0.1-1.3,0-1.9c0-0.1,0-0.3,0-0.4c-0.2-0.8-0.4-1.6-0.6-2.3c-0.1-0.4-0.3-0.9-0.5-1.3c-0.3-0.6-0.6-1.1-0.8-1.7
			C19.2,104.2,19.1,104,19.3,103.8L19.3,103.8z"/>
	</g>
</g>
</svg>
