<?xml version="1.0" encoding="UTF-8" standalone="no"?>
<!-- Created with Inkscape (http://www.inkscape.org/) -->

<svg
   xmlns:dc="http://purl.org/dc/elements/1.1/"
   xmlns:cc="http://creativecommons.org/ns#"
   xmlns:rdf="http://www.w3.org/1999/02/22-rdf-syntax-ns#"
   xmlns:svg="http://www.w3.org/2000/svg"
   xmlns="http://www.w3.org/2000/svg"
   xmlns:sodipodi="http://sodipodi.sourceforge.net/DTD/sodipodi-0.dtd"
   xmlns:inkscape="http://www.inkscape.org/namespaces/inkscape"
   width="433.62646"
   height="615.28827"
   id="svg2"
   version="1.1"
   inkscape:version="0.47 r22583"
   sodipodi:docname="New document 5">
  <defs
     id="defs4">
    <inkscape:perspective
       sodipodi:type="inkscape:persp3d"
       inkscape:vp_x="0 : 526.18109 : 1"
       inkscape:vp_y="0 : 1000 : 0"
       inkscape:vp_z="744.09448 : 526.18109 : 1"
       inkscape:persp3d-origin="372.04724 : 350.78739 : 1"
       id="perspective10" />
    <inkscape:perspective
       id="perspective2864"
       inkscape:persp3d-origin="0.5 : 0.33333333 : 1"
       inkscape:vp_z="1 : 0.5 : 1"
       inkscape:vp_y="0 : 1000 : 0"
       inkscape:vp_x="0 : 0.5 : 1"
       sodipodi:type="inkscape:persp3d" />
  </defs>
  <sodipodi:namedview
     id="base"
     pagecolor="#ffffff"
     bordercolor="#666666"
     borderopacity="1.0"
     inkscape:pageopacity="0"
     inkscape:pageshadow="2"
     inkscape:zoom="0.69"
     inkscape:cx="251.69874"
     inkscape:cy="282.15187"
     inkscape:document-units="px"
     inkscape:current-layer="layer1"
     showgrid="false"
     inkscape:window-width="1280"
     inkscape:window-height="744"
     inkscape:window-x="-4"
     inkscape:window-y="-4"
     inkscape:window-maximized="1" />
  <metadata
     id="metadata7">
    <rdf:RDF>
      <cc:Work
         rdf:about="">
        <dc:format>image/svg+xml</dc:format>
        <dc:type
           rdf:resource="http://purl.org/dc/dcmitype/StillImage" />
        <dc:title></dc:title>
      </cc:Work>
    </rdf:RDF>
  </metadata>
  <g
     inkscape:label="Layer 1"
     inkscape:groupmode="layer"
     id="layer1"
     transform="translate(-274.48235,-359.4974)">
    <path
       style="fill:#000000"
       d="m 417.30435,973.70444 c -16.39175,-3.72181 -28.54078,-13.61643 -36.37904,-29.62845 -7.538,-15.39865 -9.09068,-23.07631 -9.07485,-44.8732 0.015,-20.6579 1.13655,-28.23872 7.07751,-47.8385 4.06707,-13.41764 8.31047,-22.99685 15.53286,-35.06449 6.26154,-10.46218 17.24063,-25.21666 22.67141,-30.46745 l 4.00311,-3.87043 -3.9155,-3.72473 c -2.49464,-2.3731 -3.9155,-4.62225 -3.9155,-6.19806 0,-3.67391 2.67852,-12.02308 6.63163,-20.67134 3.15095,-6.89336 3.63213,-9.14356 4.77982,-22.35214 1.38392,-15.92739 2.57184,-19.26859 7.26992,-20.44774 4.58753,-1.15139 6.3159,2.25867 6.33337,12.49566 0.013,7.60484 1.46639,13.99694 2.98526,13.12916 0.275,-0.15712 2.47354,0.72116 4.88565,1.95172 5.27856,2.69292 5.53295,2.43394 7.1757,-7.30538 0.92221,-5.46749 0.89763,-7.73055 -0.11739,-10.80609 -0.98028,-2.97028 -1.00722,-4.16693 -0.11393,-5.06022 0.76043,-0.76043 1.16392,-5.21302 1.15269,-12.71997 -0.0162,-10.84688 -0.1618,-11.687 -2.39146,-13.8005 l -2.37419,-2.2505 -0.5999,2.3902 c -1.06373,4.23823 -5.8926,4.43926 -7.00497,0.29163 -0.32169,-1.19946 -0.59104,-3.36652 -0.59855,-4.8157 l -0.0136,-2.63487 -3.72761,3.41436 c -4.29304,3.93226 -6.63961,3.98441 -7.08297,0.15741 l -0.31057,-2.68088 -2.00091,2.00091 c -2.90737,2.90737 -5.1556,2.00083 -6.22213,-2.50891 -0.74379,-3.14506 -0.5025,-4.87096 1.28333,-9.1796 2.74325,-6.61859 1.86798,-8.74108 -4.23872,-10.27877 -6.70759,-1.68899 -32.84001,-14.46043 -36.92215,-18.0446 -4.7446,-4.16581 -9.06556,-12.01162 -11.07538,-20.11018 -5.74511,-23.14986 -5.89478,-28.16071 -1.14731,-38.40998 2.699,-5.82683 2.72231,-6.04981 1.65713,-15.8505 -0.59421,-5.46729 -1.29147,-10.15161 -1.54946,-10.4096 -0.42473,-0.42473 -6.69037,-2.11148 -13.94862,-3.75505 -3.75316,-0.84988 -5.22091,-4.69516 -3.24823,-8.50989 2.07525,-4.01311 3.57168,-4.23625 10.18204,-1.51836 3.21836,1.32325 6.33132,2.41659 6.91769,2.42964 0.58637,0.0131 2.38637,-2.78625 4,-6.22068 5.01923,-10.68288 13.86209,-22.88409 23.37731,-32.25558 7.5552,-7.44108 10.06745,-10.7544 14.50378,-19.12858 2.95116,-5.57073 8.33283,-14.53508 11.95926,-19.9208 3.62644,-5.38572 6.59352,-10.33238 6.59352,-10.99259 0,-0.69712 -2.20104,-1.47863 -5.25,-1.86408 -2.8875,-0.36504 -6.7125,-0.92309 -8.5,-1.24012 l -3.25,-0.57641 0,-9.40489 0,-9.40489 -3.75,-1.63736 c -2.0625,-0.90056 -9.6,-4.43035 -16.75,-7.84398 -7.15,-3.41364 -18.4,-7.84566 -25,-9.84894 -6.6,-2.00327 -15.6,-4.74355 -20,-6.0895 -12.54068,-3.83617 -21.56852,-5.72466 -27,-5.64801 -4.1574,0.0587 -6.00238,0.76166 -10.94809,4.1715 -5.26757,3.63175 -6.41167,4.03357 -10,3.51214 -2.22855,-0.32384 -6.75191,-0.86155 -10.05191,-1.19489 -6.76097,-0.68296 -7.95823,-1.36948 -7.10062,-4.07157 0.88054,-2.77434 5.84614,-5.31703 10.38359,-5.31703 3.45647,0 4.13332,-0.38369 5.19395,-2.94429 1.15067,-2.77795 1.01216,-3.12641 -2.45174,-6.16775 -2.01923,-1.7729 -5.77594,-4.32778 -8.34825,-5.67751 -6.05626,-3.17782 -8.17693,-5.08803 -8.17693,-7.36544 0,-2.06294 2.12063,-2.386 5.12118,-0.78016 1.09433,0.58567 2.52725,0.87971 3.18426,0.65342 0.65701,-0.22629 -2.11801,-2.08635 -6.16672,-4.13346 -7.13518,-3.60771 -7.3425,-3.8159 -6.75,-6.77842 0.3362,-1.68101 0.61128,-3.45014 0.61128,-3.93139 0,-0.48125 1.35,-0.875 3,-0.875 1.94539,0 3,-0.50656 3,-1.44098 0,-0.79254 0.45591,-1.72276 1.01314,-2.06714 1.69659,-1.04855 11.3951,2.28465 15.22514,5.2326 12.16055,9.35989 14.79838,11.08938 19.76172,12.95681 9.8504,3.70616 13.72986,4.37659 30.73456,5.31143 17.31341,0.95182 21.51165,1.78655 34.26544,6.81297 4.125,1.62571 9.525,3.63035 12,4.45476 2.475,0.8244 9.675,3.81448 16,6.6446 6.325,2.83013 13.3,5.62726 15.5,6.21585 2.2,0.58858 6.025,2.10592 8.5,3.37185 5.47666,2.80125 13.71167,5.51891 16.70295,5.5122 2.80358,-0.006 6.47742,1.58601 12.87651,5.58094 2.7937,1.74409 5.95883,3.45018 7.03363,3.79131 1.0748,0.34113 2.75198,1.97081 3.72708,3.62152 1.44992,2.45452 2.44576,3.00928 5.46637,3.04517 2.0314,0.0241 5.26846,0.64943 7.19346,1.38952 18.98223,7.298 27.84047,9.48915 25.12255,6.21425 -0.61729,-0.74379 -1.40724,-4.07808 -1.75545,-7.40953 -0.8195,-7.84055 1.8548,-14.01979 7.16313,-16.55115 1.94227,-0.92621 3.78389,-2.47218 4.09248,-3.4355 3.92314,-12.24657 13.80221,-24.90384 22.82302,-29.24133 11.89617,-5.72006 26.67361,-2.52853 40.5515,8.75802 9.80324,7.97273 15.3253,16.66051 17.40601,27.38461 l 1.09676,5.65278 9.84869,-4.81924 c 13.48483,-6.59852 21.444,-8.4898 35.65131,-8.47155 17.14309,0.022 27.08988,3.88864 39.06578,15.18609 5.76076,5.43442 7.87869,8.34739 11.43976,15.73413 6.01124,12.46914 7.56352,18.92782 8.19693,34.10565 1.33989,32.1062 -10.57474,67.2058 -33.08277,97.45936 -3.06892,4.125 -5.58882,7.82594 -5.59977,8.22432 -0.0391,1.42139 5.62816,3.57396 15.20515,5.77532 12.57868,2.89131 15.06982,5.34149 6.31116,6.20736 -2.71088,0.268 -2.39093,0.57117 3.75,3.55326 3.69257,1.79314 6.71376,3.71976 6.71376,4.28138 0,1.93677 -2.97796,2.15388 -7.66021,0.55847 -5.55018,-1.89114 -5.64449,-1.90214 -4.81629,-0.56209 0.35284,0.57091 3.0794,2.41387 6.05901,4.09546 2.97962,1.68159 5.41749,3.68948 5.41749,4.46198 0,2.52562 -4.67669,1.50753 -14.19496,-3.09015 -10.41726,-5.03194 -9.80504,-4.80305 -9.80504,-3.66583 0,0.46172 1.11877,1.34924 2.48617,1.97226 4.10889,1.87214 15.51383,11.26697 15.51383,12.77954 0,2.25894 -1.49187,1.76639 -15.35864,-5.07078 -13.86758,-6.83757 -18.19147,-8.21314 -20.64136,-6.56668 -1.31329,0.8826 -1.26126,1.415 0.41797,4.27713 5.92758,10.10318 6.51326,13.76905 2.1998,13.76905 -2.03636,0 -6.27096,-5.33325 -13.17487,-16.593 l -2.05709,-3.35497 -6.94291,5.07643 c -28.24439,20.65138 -62.34359,25.47534 -83.80837,11.85621 -2.676,-1.69789 -4.97673,-2.95153 -5.11272,-2.78587 -0.13599,0.16566 -1.61165,3.2262 -3.27925,6.8012 -3.04742,6.53305 -6.24256,18.59386 -6.24256,23.56398 0,2.37254 0.30559,2.61076 2.74974,2.14353 6.26443,-1.19752 13.72899,5.38721 13.54305,11.94676 -0.12124,4.2772 -3.35681,10.89225 -7.95543,16.26471 -3.82508,4.46874 -3.82934,4.43539 0.91264,7.14969 2.01872,1.15551 2.28359,5.67112 0.4682,7.98205 -0.67001,0.8529 -5.76829,4.98458 -11.3295,9.18151 -10.86308,8.19813 -11.3887,9.047 -11.3887,18.39277 0,4.82503 0.73023,5.76454 8.1366,10.46846 7.7586,4.92763 9.04949,12.52195 2.59588,15.27156 -1.77786,0.75747 -4.3077,2.54348 -5.62186,3.96891 -2.2825,2.47577 -2.31539,2.7046 -0.73537,5.11602 0.9097,1.38838 3.36502,3.39722 5.45627,4.4641 5.42428,2.76726 6.33343,4.27174 6.90817,11.43175 0.46618,5.80772 0.30941,6.5064 -1.78989,7.97681 -2.08896,1.46316 -2.18236,1.86782 -1.01439,4.39447 5.21966,11.29157 8.52512,31.39201 7.51618,45.70572 -2.84719,40.39261 -21.3713,80.46291 -50.92107,110.14955 -14.59571,14.66331 -32.63752,25.93288 -48.72036,30.43252 -9.80523,2.74329 -23.48524,3.38699 -31.81016,1.49678 z m 22.75927,-28.21182 c 0.6926,-0.93359 1.65998,-3.06823 2.14975,-4.74364 0.48976,-1.6754 2.23882,-6.75358 3.8868,-11.28483 l 2.99633,-8.23863 -1.39249,-9.76137 c -0.76587,-5.36875 -1.66218,-11.33636 -1.99181,-13.26136 l -0.59931,-3.5 -1.87669,3.64968 c -1.03218,2.00732 -2.30652,5.38232 -2.83186,7.5 -1.81813,7.32902 -6.22179,23.88708 -8.65572,32.54616 -1.34435,4.78271 -2.44427,9.00638 -2.44427,9.38592 0,1.39503 9.53011,-0.63507 10.75927,-2.29193 z m -12.70012,-0.40036 c 0.62124,-1.16079 1.95649,-5.09829 2.96723,-8.75 4.01253,-14.49694 6.87116,-25.57526 6.65515,-25.79127 -0.12509,-0.12509 -4.39187,7.81249 -9.48173,17.63906 -8.85219,17.09016 -9.15535,17.88548 -6.97705,18.30344 4.62865,0.8881 5.73225,0.6619 6.8364,-1.40123 z m 23.84195,-4.73347 c -0.0544,-2.0108 -0.39916,-6.131 -0.76616,-9.156 l -0.66726,-5.5 -1.67107,4.5 c -2.82564,7.60908 -5.79661,16.05405 -5.79661,16.47681 0,0.22099 2.025,-0.28819 4.5,-1.13151 4.26717,-1.45397 4.49488,-1.72246 4.4011,-5.1893 z m -33.9011,2.74837 c 0,-0.6026 0.83128,-2.2901 1.84729,-3.75 3.229,-4.63975 20.79241,-38.53281 21.55461,-41.59511 0.62824,-2.52409 -0.86614,-1.44827 -10.54727,7.59302 -10.96709,10.24227 -11.39806,10.80793 -15.57357,20.44075 -5.97429,13.78256 -5.87309,13.16524 -2.61734,15.96526 3.00047,2.58047 5.33628,3.16968 5.33628,1.34608 z m 43.11467,-3.5633 c 5.84865,-3.18323 5.75059,-2.28327 2.87032,-26.34107 -1.08648,-9.075 -1.97757,-16.86406 -1.9802,-17.30902 -0.0162,-2.74048 -2.06104,1.74315 -5.91326,12.96582 l -4.40848,12.8432 1.27097,10.25 c 0.69904,5.6375 1.72195,10.25 2.27315,10.25 0.55119,0 3.20057,-1.19652 5.8875,-2.65893 z m -50.44725,-7.59246 c 1.19208,-2.88674 2.91836,-7.04861 3.83618,-9.24861 l 1.66876,-4 -6.08618,5.9687 c -3.3474,3.28278 -6.08618,6.34813 -6.08618,6.81189 0,0.9916 3.27173,5.64285 4,5.68659 0.275,0.0165 1.47534,-2.33184 2.66742,-5.21857 z m 60.83258,1.03543 c 0.55,-0.44297 2.47521,-2.04361 4.27823,-3.55697 l 3.27824,-2.75158 -4.63006,-12.98774 c -2.54654,-7.14326 -5.05539,-14.45025 -5.57524,-16.23775 -0.99212,-3.4114 -1.5135,-3.75056 -3.6667,-2.38517 -1.07671,0.68276 -0.90974,4.3933 0.91973,20.4388 1.51593,13.2955 2.58292,19.39239 3.31554,18.9452 0.59414,-0.36266 1.53026,-1.02182 2.08026,-1.46479 z m -62.31609,-10.53404 c 3.46385,-3.1625 6.86838,-6.28423 7.56561,-6.93718 1.31015,-1.22694 2.46528,-3.71002 9.77809,-21.01912 l 4.31199,-10.2063 -5.6698,5.81303 c -5.34008,5.47498 -16.49073,17.2194 -23.87794,25.14942 l -3.30686,3.54984 1.6015,4.70016 c 0.88083,2.58508 1.98355,4.70015 2.4505,4.70015 0.46695,0 3.68306,-2.5875 7.14691,-5.75 z m 77.56737,-3.38006 4.94527,-5.13006 -2.75588,-6.61994 c -4.72493,-11.34981 -5.62549,-13.59624 -5.76492,-14.38042 -0.0744,-0.41826 -0.85618,-2.15466 -1.73736,-3.85865 l -1.60213,-3.09818 -2.9415,2.81814 c -1.61783,1.54998 -4.01797,3.28637 -5.33364,3.85866 l -2.39213,1.04051 5.53996,15.25 c 3.04697,8.3875 5.8903,15.25 6.31851,15.25 0.42821,0 3.00393,-2.30853 5.72382,-5.13006 z m -70.31191,-22.74772 c 7.92185,-8.27769 7.54549,-8.17866 -9.93937,2.6155 -6.1962,3.82517 -10.9803,7.43961 -10.95489,8.27652 0.0248,0.81717 0.39674,3.24807 0.8265,5.402 l 0.78139,3.91624 6.11287,-6.41624 c 3.36207,-3.52893 9.29015,-9.73624 13.1735,-13.79402 z m 39.01346,8.89371 c 2.73359,-7.86746 3.31884,-10.59055 2.34496,-10.91072 -0.71379,-0.23465 -2.73779,-1.86182 -4.49779,-3.61592 -5.31835,-5.30055 -6.30534,-2.25854 -4.22136,13.01071 1.35066,9.89621 1.9163,12.84174 2.37507,12.368 0.196,-0.2024 1.99561,-5.08583 3.99912,-10.85207 z m 42.41466,0.54336 4.10777,-5.44071 -2.73763,-1.88945 c -4.91611,-3.39298 -15.34805,-9.45376 -15.641,-9.08716 -0.45203,0.5657 8.83126,21.84439 9.53322,21.85158 0.34642,0.004 2.47836,-2.44187 4.73764,-5.43426 z m -67.91654,-2.55929 c 0.89719,-0.825 4.19801,-3.82731 7.33517,-6.67179 7.53792,-6.83471 10.21286,-13.86195 5.72347,-15.03595 -1.5269,-0.3993 -1.85096,-1.07611 -1.39159,-2.90638 0.32935,-1.31224 0.27729,-2.38588 -0.11569,-2.38588 -1.33998,0 -8.50225,6.16418 -8.52153,7.33403 -0.0106,0.64128 -2.48512,6.79097 -5.499,13.66597 -3.01387,6.875 -5.48022,12.69669 -5.48078,12.93709 -5.5e-4,0.2404 1.42093,-0.8846 3.15885,-2.5 1.73791,-1.6154 3.89391,-3.61209 4.7911,-4.43709 z m -22.24618,-7.14824 c 16.58414,-10.05046 24.10982,-15.59254 25.91585,-19.08502 l 1.55815,-3.01312 -9.5525,0.4178 -9.5525,0.41779 -8.28689,5.69342 c -11.79126,8.10107 -12.62901,8.87432 -13.21337,12.19606 -0.48423,2.7526 0.26084,10.52131 1.00907,10.52131 0.17983,0 5.63481,-3.21671 12.12219,-7.14824 z m 99.44648,-4.93409 c 2.01148,-3.52972 3.36283,-6.7213 3.003,-7.09241 -0.66616,-0.68702 -21.41933,-4.82609 -24.15425,-4.81739 -0.825,0.003 -2.26031,1.34102 -3.18958,2.97422 l -1.68958,2.96944 5.45147,3.27424 c 2.99831,1.80082 7.58362,4.6903 10.18958,6.42105 2.60596,1.73075 5.18676,3.0437 5.73511,2.91767 0.54836,-0.12604 2.64277,-3.11711 4.65425,-6.64682 z m -42.15125,-2.47669 c 0,-0.85746 -0.45,-1.2809 -1,-0.94098 -0.55,0.33992 -1,1.04148 -1,1.55902 0,0.51754 0.45,0.94098 1,0.94098 0.55,0 1,-0.70156 1,-1.55902 z m 6,-2.44098 c 3.41457,-3.41457 2.15432,-5.22333 -2.06574,-2.96482 -1.98836,1.06414 -2.72237,4.96482 -0.93426,4.96482 0.55,0 1.9,-0.9 3,-2 z m -62.45775,-8.71832 2.95775,-2.21832 -7.625,-0.0317 -7.625,-0.0317 -0.625,3.125 c -0.34375,1.71875 -0.625,4.44352 -0.625,6.05504 l 0,2.93003 5.29225,-3.80503 c 2.91074,-2.09277 6.62324,-4.80328 8.25,-6.02336 z m 39.7475,7.71832 c 0.28766,-1.1 0.11514,-2 -0.38337,-2 -0.49851,0 -0.90638,0.9 -0.90638,2 0,1.1 0.17252,2 0.38337,2 0.21085,0 0.61872,-0.9 0.90638,-2 z m 12.69494,1.25 c -0.0395,-1.93631 -1.61666,-2.92467 -3.48469,-2.18379 -1.1,0.43627 -1.41094,0.82485 -0.69098,0.8635 0.71996,0.0387 1.0309,0.52029 0.69098,1.07029 -0.33992,0.55 0.30852,1 1.44098,1 1.13246,0 2.05213,-0.3375 2.04371,-0.75 z m 1.69842,-3.4375 c -0.31922,-0.79773 -0.55618,-0.56078 -0.60416,0.60417 -0.0434,1.05416 0.19292,1.64479 0.52522,1.3125 0.33229,-0.33229 0.36781,-1.1948 0.0789,-1.91667 z m 15.31689,-1.75348 c 0,-0.51754 -0.45,-1.2191 -1,-1.55902 -0.55,-0.33992 -1,0.0835 -1,0.94098 0,0.85746 0.45,1.55902 1,1.55902 0.55,0 1,-0.42344 1,-0.94098 z m 36.84156,-6.30902 c 1.66868,-3.9875 2.72447,-7.55681 2.3462,-7.9318 -0.83717,-0.82992 -25.2877,-7.0516 -25.77945,-6.55984 -0.19203,0.19202 -1.08755,3.24995 -1.99006,6.79539 -0.9025,3.54544 -2.0397,7.20208 -2.5271,8.12587 -0.75089,1.42319 -0.0851,1.84538 4.36133,2.7654 2.88614,0.59718 8.17252,1.71808 11.74752,2.49088 3.575,0.77281 7.01921,1.44088 7.6538,1.4846 0.63459,0.0437 2.51908,-3.183 4.18776,-7.1705 z m -34.84156,3.25 c 0,-0.55 -0.47656,-1 -1.05902,-1 -0.58246,0 -0.7809,0.45 -0.44098,1 0.33992,0.55 0.81648,1 1.05902,1 0.24254,0 0.44098,-0.45 0.44098,-1 z m 1.07818,-8.32182 c -0.77091,-0.77091 -1.07818,-0.3087 -1.07818,1.62182 0,1.485 -0.5625,2.73163 -1.25,2.77029 -0.6875,0.0386 -0.35,0.42579 0.75,0.8603 1.64046,0.64799 2.059,0.34381 2.32818,-1.69211 0.1805,-1.36517 -0.157,-2.9673 -0.75,-3.5603 z m -58.71669,-2.18937 c 5.87089,-4.26856 6.52056,-5.0274 4.5,-5.25613 -3.77785,-0.42765 -22.14964,-3.24719 -24.56261,-3.76966 -1.84112,-0.39864 -2.37411,0.13785 -3.25877,3.2802 -0.58171,2.06623 -1.34351,5.48993 -1.69291,7.60822 l -0.63526,3.85144 9.39403,-0.36263 9.39403,-0.36263 6.86149,-4.98881 z m 14.39254,1.35188 c 1.02268,-2.7094 0.9471,-3.34569 -0.53076,-4.46819 -0.9478,-0.71989 -2.32674,-1.3232 -3.06432,-1.3407 -1.22226,-0.029 -13.15895,7.78409 -13.15895,8.61309 0,0.19531 3.50134,0.35511 7.78076,0.35511 l 7.78076,0 1.19251,-3.15931 z m 4.04597,1.95931 c 1.46583,-1.46583 1.58756,-4.8 0.17525,-4.8 -0.84392,0 -2.97525,3.98658 -2.97525,5.5651 0,0.85624 1.62182,0.41308 2.8,-0.7651 z m 45.08461,-6.8 c 0.0242,-2.40223 -0.0258,-2.38267 -1.27826,0.5 -0.71689,1.65 -1.06791,3.6421 -0.78003,4.42689 0.68118,1.85698 2.02229,-1.35321 2.05829,-4.92689 z m 35.23419,-7.64025 c 0.66122,-2.95464 0.97617,-5.59811 0.6999,-5.87438 -0.27628,-0.27628 -7.06687,0.48121 -15.0902,1.68331 -12.2051,1.82862 -14.66593,2.48405 -15.06567,4.01264 -0.34918,1.33528 0.23749,2.00755 2.1797,2.49773 1.46161,0.36889 7.38247,1.88278 13.15747,3.36418 12.14434,3.11528 12.15026,3.1129 14.1188,-5.68348 z m -89.48347,-6.97946 c -0.0744,-0.0658 -4.63533,-1.34254 -10.13533,-2.83712 -5.5,-1.49457 -11.23471,-3.10383 -12.74381,-3.57611 -2.25126,-0.70456 -2.93874,-0.49447 -3.82971,1.1703 -0.84987,1.58801 -0.72125,2.43193 0.59178,3.88281 1.98177,2.18983 1.03832,4.35864 -1.59633,3.66966 -2.14892,-0.56195 -3.85671,3.11441 -1.9843,4.27162 0.63341,0.39147 6.64406,1.50915 13.35701,2.48373 6.71295,0.97458 12.65536,1.87349 13.20536,1.99757 0.76117,0.17174 3.78284,-10.48968 3.13533,-11.06246 z m 32.04778,4.43221 c -0.31922,-0.79773 -0.55618,-0.56078 -0.60416,0.60417 -0.0434,1.05416 0.19292,1.64479 0.52522,1.3125 0.33229,-0.33229 0.36781,-1.1948 0.0789,-1.91667 z m 18.31689,-1.3125 c 1.35129,-1.62821 1.02807,-1.83174 -1.41821,-0.89301 -0.86999,0.33384 -1.58179,1.00884 -1.58179,1.5 0,1.38323 1.62035,1.05539 3,-0.60699 z m 40.60995,-4.77662 c 0.23785,-0.23785 0.79704,-3.46086 1.24264,-7.16226 0.95422,-7.92616 1.77314,-7.7913 -12.39808,-2.0418 -7.39199,2.99905 -9.48464,4.33811 -11.44783,7.32529 -1.32128,2.01047 -3.27793,4.38107 -4.34811,5.26802 -1.68603,1.39734 -0.0458,1.30762 12.28657,-0.67209 7.8278,-1.25659 14.42697,-2.47931 14.66481,-2.71716 z m -52.60995,2.15859 c 0,-0.55 -0.45,-0.72189 -1,-0.38197 -0.55,0.33992 -1,1.06803 -1,1.61803 0,0.55 0.45,0.72189 1,0.38197 0.55,-0.33992 1,-1.06803 1,-1.61803 z m -9,-0.38197 c 0,-0.825 -0.17686,-1.5 -0.39301,-1.5 -0.21616,0 -0.65203,0.675 -0.96862,1.5 -0.31658,0.825 -0.13972,1.5 0.39301,1.5 0.53274,0 0.96862,-0.675 0.96862,-1.5 z m 0.0944,-4.67637 c 0.79183,-1.47955 0.79488,-1.87323 0.0108,-1.38861 -0.60192,0.372 -1.59171,1.60561 -2.19954,2.74135 -0.79183,1.47955 -0.79488,1.87323 -0.0108,1.38861 0.60192,-0.372 1.59171,-1.60561 2.19954,-2.74135 z m -29.55844,0.82632 c -1.4441,-1.05596 -1.7164,-2.15052 -1.25,-5.02462 0.56023,-3.45228 0.35186,-3.82888 -3.44438,-6.22534 -6.19831,-3.91283 -12.98104,-7.59803 -13.3076,-7.23032 -1.0681,1.20269 -5.53397,11.02547 -5.53397,12.17209 0,0.77453 1.2375,1.68841 2.75,2.03085 1.5125,0.34243 6.575,1.70799 11.25,3.03457 10.15459,2.88147 12.12888,3.13877 9.53595,1.24277 z m 22.00605,-2.39995 c 0.34794,-2.0625 0.82542,-4.65 1.06106,-5.75 0.23563,-1.1 -0.70366,0.42021 -2.08732,3.37824 -2.95543,6.31821 -2.92138,6.12176 -1.06106,6.12176 0.90183,0 1.69511,-1.42518 2.08732,-3.75 z m -4.16045,0.19806 c 0.34149,-0.88992 0.17385,-1.29132 -0.39301,-0.94098 -0.5437,0.33602 -0.98855,1.0344 -0.98855,1.55194 0,1.43843 0.71677,1.12146 1.38156,-0.61096 z m 23.58684,-5.88327 -0.0316,-4.06479 -2.49324,3 c -1.37128,1.65 -2.93206,3.54351 -3.4684,4.20779 -0.53634,0.66429 -0.97516,1.89451 -0.97516,2.73383 0,1.34079 0.42483,1.32343 3.5,-0.14301 3.16298,-1.50832 3.49696,-2.06043 3.4684,-5.73382 z m -13.22959,-6.15931 c -0.98039,-0.9804 -2.64843,1.66845 -3.20959,5.09681 l -0.65435,3.99771 2.08034,-4.3989 c 1.14418,-2.41939 1.9468,-4.53242 1.7836,-4.69562 z m 54.46709,4.27547 c 11.62506,-5.1196 11.05824,-4.50922 10.1148,-10.89209 l -0.8207,-5.55249 -10.25,9.7521 c -5.6375,5.36366 -10.25,10.0658 -10.25,10.44921 0,0.92265 2.43108,0.10764 11.2059,-3.75673 z m -44.28345,-2.30949 c 1.14265,-1.45265 2.05395,-3.81799 2.0251,-5.25632 l -0.0524,-2.61514 -1.69755,2.41468 c -0.93365,1.32808 -2.76138,4.18388 -4.06161,6.34623 -2.23224,3.71232 -2.25051,3.87077 -0.32756,2.84164 1.12009,-0.59945 2.97141,-2.27844 4.11407,-3.73109 z m -25.91149,-0.62146 c 2.05889,-3.37682 2.55608,-5.75 1.20465,-5.75 -1.09825,0 -4.21561,5.47533 -4.21561,7.40429 0,2.39502 0.8151,1.94719 3.01096,-1.65429 z m -13.38987,-7.75 c -1.1061,-1.925 -3.18377,-5.41389 -4.61705,-7.75309 l -2.60596,-4.2531 -4.15367,5.88991 -4.15367,5.8899 8.20463,5.05939 8.20463,5.05939 0.56609,-3.1962 c 0.38942,-2.1987 -0.0616,-4.28852 -1.445,-6.6962 z m 90.9335,-6.7851 c 1.45358,-1.48298 2.06699,-3.06259 1.74748,-4.5 -0.97857,-4.40238 -2.46883,-8.7149 -3.01159,-8.7149 -0.30493,0 -2.03986,0.91806 -3.85541,2.04013 -2.43418,1.50441 -3.74941,3.40819 -5.00866,7.25 -0.93922,2.86543 -3.01776,8.80987 -4.61898,13.20987 l -2.91131,8 7.70934,-7.5 c 4.24013,-4.125 8.71724,-8.5283 9.94913,-9.7851 z m -27.74196,9.17774 c 1.2683,-3.63404 2.11729,-6.79606 1.88665,-7.02669 -0.6932,-0.6932 -7.69928,6.96929 -7.69928,8.42063 0,1.73777 1.85903,5.21342 2.78851,5.21342 0.39498,0 1.75583,-2.97331 3.02412,-6.60736 z m -57.60293,-4.36806 c 0.24216,-1.64994 -0.13211,-6.49295 -0.83172,-10.76223 -0.6996,-4.26929 -1.31089,-8.43735 -1.35842,-9.26235 -0.0507,-0.87912 -1.93229,0.54039 -4.54591,3.42941 l -4.4595,4.9294 2.12883,3.5706 c 1.17086,1.96382 3.01707,5.14559 4.10268,7.07059 1.08562,1.925 2.18055,3.84484 2.43319,4.26631 0.83765,1.39742 2.08434,-0.19945 2.53085,-3.24173 z m 59.68667,-7.80661 c 2.8076,-3.73829 11.10363,-24.17943 11.10363,-27.35898 0,-2.62881 -2.81861,0.48814 -11.07311,12.24513 -8.48177,12.08072 -9.22451,13.52352 -9.51025,18.47423 l -0.30995,5.3701 3.19666,-2.10413 c 1.75816,-1.15727 4.72502,-4.13912 6.59302,-6.62635 z m -42.60688,-5.21897 c -0.71955,-2.75155 -1.28949,-2.50403 -1.28949,0.56002 0,1.40746 0.40775,2.30701 0.90612,1.999 0.49837,-0.30801 0.67088,-1.45956 0.38337,-2.55902 z m 33.67298,-1.749 c 0.57176,-2.0625 2.14719,-7.29558 3.50095,-11.62907 1.35377,-4.33349 2.29224,-7.70849 2.08551,-7.5 -0.20674,0.20849 -1.98982,3.42303 -3.96241,7.14343 -2.57699,4.86033 -3.58652,8.02698 -3.58652,11.25 0,2.4671 0.20766,4.48564 0.46146,4.48564 0.2538,0 0.92925,-1.6875 1.50101,-3.75 z m -47.10012,-8.5651 c 1.79518,-4.44214 1.34307,-5.19859 -1.36235,-2.2794 -1.75043,1.88875 -2.5,3.83143 -2.5,6.47936 0,4.96125 1.33379,6.19349 2.11235,1.95152 0.33679,-1.83501 1.12429,-4.60317 1.75,-6.15148 z m 17.56517,0.8151 c 0.84466,-6.42599 1.22704,-16.50134 0.62563,-16.48469 -2.74371,0.076 -5.74487,15.2761 -4.37173,22.14178 l 0.61745,3.08725 1.30143,-2.37217 c 0.71579,-1.30469 1.53804,-4.17217 1.82722,-6.37217 z m 61.37043,-1.04411 c -0.61756,-1.35539 -1.20155,-2.34994 -1.29777,-2.21012 -0.0962,0.13983 -0.93517,2.20595 -1.86434,4.59139 l -1.6894,4.33716 2.98717,-2.12705 c 2.66426,-1.89712 2.86579,-2.39343 1.86434,-4.59138 z m -15.84567,-12.78017 c 0.79875,-1.19664 1.08835,-1.86532 0.64355,-1.48594 -0.4448,0.37938 -1.75296,-0.1899 -2.90703,-1.26508 -1.15407,-1.07518 -2.54881,-1.8047 -3.09942,-1.62116 -0.76482,0.25494 -7.50687,20.40533 -7.57568,22.64189 -0.0118,0.38477 8.66452,-11.86654 12.93858,-18.26971 z m -35.47796,8.37394 c 0.83912,-1.62269 1.52291,-3.53519 1.51952,-4.25 -0.006,-1.26866 -1.93847,1.95611 -3.26614,5.45034 -1.0665,2.80687 0.0829,2.01698 1.74662,-1.20034 z m -0.99951,-12.80533 c 0.53519,-2.13234 0.34475,-2.327 -1.68573,-1.72315 -3.57558,1.06337 -4.47954,2.9683 -4.60997,9.71466 l -0.12111,6.26416 2.90673,-5.92588 c 1.59871,-3.25923 3.17824,-7.00763 3.51008,-8.32979 z m -6.47481,-27.24433 c 0,-0.55 -0.45,-1 -1,-1 -0.55,0 -1,0.45 -1,1 0,0.55 0.45,1 1,1 0.55,0 1,-0.45 1,-1 z m 14,-25.88517 c 0,-2.13684 0.75877,-6.23457 1.68616,-9.10606 1.58156,-4.897 1.58156,-5.27944 -2e-5,-6.16454 -2.15387,-1.20536 -4.68163,-6.06824 -4.70145,-9.04457 -0.008,-1.26481 -0.49508,-2.97466 -1.08145,-3.79966 -1.10264,-1.55136 -0.55817,18.80695 0.74215,27.75 0.81082,5.57648 3.35461,5.85313 3.35461,0.36483 z M 593.83513,584.20279 c 3.36873,-10.725 6.43746,-21.06897 6.81941,-22.98661 0.81183,-4.07594 1.45339,-4.64561 -9.55761,8.48661 -7.22543,8.61737 -7.68488,9.4749 -10.80702,20.17022 -1.79342,6.14362 -2.97844,11.90596 -2.63336,12.8052 0.48326,1.25936 1.71023,1.56487 5.34051,1.32979 l 4.71311,-0.30521 6.12496,-19.5 z m 5.51989,17.91802 c 1.0532,-1.70411 6.33192,-40.86876 5.60622,-41.59447 -0.36129,-0.36128 -0.9275,-0.38627 -1.25825,-0.0555 -0.84716,0.84716 -14.38351,40.9318 -14.39182,42.61789 -0.005,1.0763 1.04226,1.24214 4.68892,0.74231 2.58266,-0.354 4.99238,-1.12359 5.35493,-1.71021 z m -21.31179,-8.93056 c 1.23138,-4.6681 2.10459,-8.90534 1.94046,-9.41608 -0.16413,-0.51073 -3.05854,2.61114 -6.43202,6.9375 -3.37348,4.32636 -5.88814,8.26328 -5.58813,8.74869 0.76232,1.23347 4.54305,2.68144 6.34081,2.42844 0.98541,-0.13867 2.26807,-3.12278 3.73888,-8.69855 z m 29.59074,6.9049 c 6.2326,-2.38507 5.89079,-1.6758 8.16526,-16.94352 0.85613,-5.74686 1.77818,-11.16652 2.049,-12.04369 0.33935,-1.09911 -1.21412,-2.70247 -4.99765,-5.15816 l -5.49006,-3.56332 -0.54107,3.15817 c -1.86333,10.87617 -5.5151,34.29841 -5.5151,35.37352 0,1.64004 -0.16159,1.66105 6.32962,-0.823 z m -38.66509,-6.14236 c 7.96086,-8.46383 13.24836,-16.62681 14.8359,-22.904 0.88271,-3.4903 1.83197,-7.11907 2.10946,-8.06392 0.44378,-1.51109 0.13757,-1.59 -2.54337,-0.65542 -3.39973,1.18515 -8.06652,6.17026 -8.06652,8.61673 0,0.87447 -0.28549,1.30445 -0.63442,0.95552 -0.34893,-0.34893 -2.23611,1.48857 -4.19372,4.08333 -1.95761,2.59477 -3.83279,4.94276 -4.16707,5.21776 -0.33427,0.275 -2.12677,2.64222 -3.98333,5.26048 l -3.37556,4.76049 2.86414,2.98951 c 1.57528,1.64424 3.14168,2.98952 3.48088,2.98952 0.33921,0 1.99234,-1.4625 3.67361,-3.25 z m 51.79471,-0.49272 c 2.49742,-1.50849 4.54076,-3.41145 4.54076,-4.22879 0,-2.19219 -5.05168,-15.02849 -5.91441,-15.02849 -0.40675,0 -1.30454,3.7125 -1.99509,8.25 -0.69054,4.5375 -1.49965,9.4875 -1.79802,11 -0.67045,3.39871 -0.4485,3.39902 5.16676,0.007 z M 565.05435,579.3409 c 1.2375,-1.62494 2.25,-3.44576 2.25,-4.04627 0,-0.60051 0.5625,-1.09741 1.25,-1.10422 1.03812,-0.0103 5.33818,-5.40744 6.59787,-8.28124 0.49206,-1.12255 -4.95044,0.32208 -7.34787,1.95039 -1.1,0.74711 -4.61102,3.93062 -7.80227,7.07448 -4.8936,4.82093 -5.70319,6.11086 -5.16961,8.23683 0.34797,1.3864 1.14124,3.13352 1.76282,3.88249 1.16954,1.4092 2.291,0.38672 8.45906,-7.71246 z m 65.74023,7.27634 c 2.10601,-1.37992 2.26357,-1.86628 1.21481,-3.75 -1.71609,-3.08237 -5.75515,-7.52375 -8.8954,-9.78145 l -2.69035,-1.93425 2.55513,6.27563 c 1.40532,3.45159 2.94234,7.28812 3.4156,8.52562 1.02415,2.67796 1.27043,2.71515 4.40021,0.66445 z m -75.68835,-10.70356 2.1505,-2.2891 -3.09268,-0.23566 c -2.47907,-0.1889 -2.97036,0.0831 -2.47619,1.3709 0.33907,0.8836 0.61649,2.01974 0.61649,2.52476 0,1.36303 0.43211,1.1516 2.80188,-1.3709 z m 37.44402,-11.05904 c 1.23975,-1.56648 3.37437,-4.26648 4.74359,-6 1.64824,-2.08678 1.84975,-2.64497 0.5963,-1.65185 -1.04125,0.825 -1.93652,1.31547 -1.98948,1.08994 -0.053,-0.22553 -1.71326,0.12358 -3.68954,0.77581 -3.2642,1.07729 -3.74493,1.73153 -5.25,7.14496 -0.91122,3.2775 -1.65453,6.30339 -1.6518,6.72419 0.005,0.72787 2.26162,-1.79151 7.24093,-8.08305 z m -66.9959,4.39854 c 0.4125,-0.0277 0.75,-2.87673 0.75,-6.33115 0,-6.06419 -0.10373,-6.31992 -3.00833,-7.41628 -4.43239,-1.67304 -10.20149,0.81681 -12.35468,5.33209 -1.57517,3.30316 -1.55268,3.55997 0.56219,6.42048 2.079,2.812 2.51527,2.9534 7.7519,2.51248 3.05191,-0.25697 5.88642,-0.4899 6.29892,-0.51762 z m 125.75,-2.35941 c 0,-0.71996 -4.12552,-7.31807 -9.16782,-14.66247 -8.42311,-12.26873 -9.23851,-13.15749 -10.03796,-10.94099 -0.47857,1.32687 -1.5867,2.95498 -2.46251,3.61803 -1.40562,1.06415 -1.10951,1.78229 2.52468,6.12293 5.01589,5.99093 16.85324,17.17152 18.1802,17.17152 0.52987,0 0.96341,-0.58906 0.96341,-1.30902 z m 6.38935,-8.19432 c 2.6263,-3.57684 4.62559,-6.86714 4.44287,-7.31178 -0.69905,-1.70108 -21.3193,-20.07899 -23.03117,-20.52666 -1.27714,-0.33398 -1.80105,0.0927 -1.80105,1.46678 0,1.06578 -0.675,2.19679 -1.5,2.51337 -0.825,0.31659 -1.5,0.96651 -1.5,1.44428 0,0.47777 2.97772,5.47207 6.61715,11.09846 3.63944,5.62639 7.69508,11.93734 9.01255,14.02434 1.31746,2.087 2.52795,3.79455 2.68998,3.79455 0.16202,0 2.44337,-2.9265 5.06967,-6.50334 z m -148.43898,1.65871 c 1.14321,-2.19475 1.07197,-2.29867 -1.11454,-1.62577 -3.18,0.97865 -3.31182,1.19194 -1.83583,2.9704 0.70675,0.85158 1.38492,1.42496 1.50705,1.27417 0.12212,-0.1508 0.77162,-1.32925 1.44332,-2.6188 z m 53.05569,-8.66182 2.3547,-2.50646 -4.93038,1.49563 c -2.71171,0.8226 -5.38038,1.55374 -5.93038,1.62477 -0.79651,0.10286 2.41359,1.12432 5.57569,1.7742 0.31662,0.0651 1.63529,-1.00959 2.93037,-2.38814 z m 1.23555,-3.6859 c 2.21452,-0.61949 5.20523,-2.66672 7.32773,-5.01609 3.73536,-4.13459 5.95775,-4.85833 2.43066,-0.79156 -2.62637,3.02823 -2.06576,3.39959 2.89039,1.91469 l 4.0851,-1.22392 -3.6761,-3.17774 -3.6761,-3.17774 -5.06165,1.88189 c -19.90959,7.40231 -18.56164,6.65579 -18.56164,10.27973 l 0,3.32207 5.25,-1.48234 c 2.8875,-0.81528 6.93372,-1.95333 8.99161,-2.52899 z m 11.25498,1.55627 c 9.19864,-3.02976 9.22342,-3.04391 7.80822,-4.45911 -1.46764,-1.46764 -14.41573,2.45528 -16.80009,5.08997 -2.47546,2.73536 -0.89076,2.62418 8.99187,-0.63086 z m 92.36408,-6.2539 c 1.72663,-3.23949 3.13933,-6.31824 3.13933,-6.84167 0,-0.98715 -22.99884,-4.76874 -24.98203,-4.10767 -1.13242,0.37747 16.34599,16.83932 17.87919,16.83932 0.45331,0 2.23689,-2.65049 3.96351,-5.88998 z m -157.36067,2.88998 c 0.33992,-0.55 0.16803,-1 -0.38197,-1 -0.55,0 -1.27811,0.45 -1.61803,1 -0.33992,0.55 -0.16803,1 0.38197,1 0.55,0 1.27811,-0.45 1.61803,-1 z m 4.5,-1.91821 c 0,-0.50502 0.30925,-1.74252 0.68723,-2.75 0.60496,-1.61251 0.48525,-1.66749 -1,-0.45935 -1.8447,1.50054 -2.28209,4.12756 -0.68723,4.12756 0.55,0 1,-0.4132 1,-0.91821 z m 14.23469,-8.48462 c 1.31566,-1.96479 0.83887,-5.59717 -0.73469,-5.59717 -0.825,0 -2.48827,1.0125 -3.69616,2.25 -1.20789,1.2375 -3.34414,3.02947 -4.74723,3.98217 -2.53121,1.71868 -2.50828,1.72722 2.94617,1.09717 3.02347,-0.34925 5.82783,-1.12873 6.23191,-1.73217 z m 146.08069,-8.28035 c 1.45838,-3.67575 2.48243,-6.85234 2.27567,-7.0591 -0.44049,-0.44049 -34.73645,7.55435 -35.44474,8.26264 -0.96864,0.96864 0.63114,1.37995 12.86749,3.30833 18.70971,2.94855 17.20931,3.282 20.30158,-4.51187 z m -64.64871,0.22717 c 0,-0.80081 -0.38234,-1.21971 -0.84965,-0.9309 -0.4673,0.28881 -0.59075,0.94401 -0.27431,1.45601 0.80862,1.30838 1.12396,1.16106 1.12396,-0.52511 z m 24.34785,-3.02901 c -1.8578,-1.91676 -3.6054,-3.25743 -3.88356,-2.97927 -0.45967,0.45967 5.76651,6.32812 6.81521,6.42365 0.24539,0.0223 -1.07385,-1.52762 -2.93165,-3.44438 z m 23.61815,-1.55219 c 9.27703,-2.22047 17.64082,-4.27135 18.58621,-4.55751 1.71511,-0.51916 3.24621,-4.55867 4.4177,-11.65528 l 0.61904,-3.75 -9.37781,0.0939 c -5.1578,0.0517 -13.58066,0.38989 -18.71747,0.75161 -8.28863,0.58366 -9.56291,0.93339 -11.32359,3.10773 -1.09117,1.34753 -3.97728,4.70134 -6.41359,7.45291 l -4.42964,5.00285 3.70619,3.79548 c 2.0384,2.08751 4.23706,3.79548 4.88591,3.79548 0.64884,0 8.77002,-1.81675 18.04705,-4.03721 z m -23.10331,-9.71279 c 2.4277,-2.6125 4.42675,-5.10647 4.44232,-5.54215 0.0257,-0.71828 -8.28452,3.59427 -10.32102,5.35606 -0.82975,0.71782 0.003,4.93609 0.97441,4.93609 0.26966,0 2.47659,-2.1375 4.90429,-4.75 z m -14.70901,-1.53354 c 0.6845,-0.82477 0.72826,-1.80769 0.12245,-2.75 -0.82583,-1.28452 -1.06497,-1.28036 -1.92749,0.0335 -2.07789,3.16531 -0.517,5.51435 1.80504,2.71646 z m 7.67965,-0.71646 c 0.33992,-0.55 0.16803,-1 -0.38197,-1 -0.55,0 -1.27811,0.45 -1.61803,1 -0.33992,0.55 -0.16803,1 0.38197,1 0.55,0 1.27811,-0.45 1.61803,-1 z m 0.5,-4.61501 c 0,-2.05961 -2.77428,-1.67527 -3.96482,0.54927 -1.75335,3.27617 -1.19609,4.21728 1.46482,2.47378 1.375,-0.90093 2.5,-2.26131 2.5,-3.02305 z m 8.55839,-1.21146 c -1.82408,-0.21525 -3.58295,0.44037 -5.16254,1.92431 -3.78091,3.55199 -2.82481,3.91425 2.76669,1.04827 4.83189,-2.47663 4.98533,-2.66702 2.39585,-2.97258 z m -51.68951,3.48446 c 1.48395,-1.78805 0.43971,-2.65799 -3.19053,-2.65799 -2.92498,0 -2.94996,0.0424 -1.17835,2 2.13073,2.35443 2.86872,2.46558 4.36888,0.65799 z m 32.13112,-1.65799 c 0,-0.55 -0.45,-1 -1,-1 -0.55,0 -1,0.45 -1,1 0,0.55 0.45,1 1,1 0.55,0 1,-0.45 1,-1 z m 5.5,0 c 0.33992,-0.55 -0.11008,-1 -1,-1 -0.88992,0 -1.33992,0.45 -1,1 0.33992,0.55 0.78992,1 1,1 0.21008,0 0.66008,-0.45 1,-1 z m -12.17452,-9.33643 c -0.9756,-5.23157 -1.90577,-5.03501 -4.16975,0.88114 -2.87741,7.51911 -2.74784,8.0087 1.30198,4.91975 3.011,-2.2966 3.3815,-3.04605 2.86777,-5.80089 z m -34.80799,0.75221 c -6.33134,-5.89409 -7.10072,-6.33865 -8.25,-4.76691 -1.89334,2.5893 -1.69753,2.96469 3.82231,7.32788 3.57602,2.82668 6.02968,4.01077 8.25,3.98129 l 3.1602,-0.042 -6.98251,-6.50031 z m 14.48049,5.83422 c -10e-4,-0.4125 -2.29884,-5.475 -5.10607,-11.25 -2.80723,-5.775 -5.51724,-11.57051 -6.02224,-12.87891 -0.885,-2.29293 -1.0619,-2.17823 -4.89393,3.17314 -2.18666,3.05363 -3.97574,5.9946 -3.97574,6.5355 0,1.95081 15.46454,15.17027 17.74666,15.17027 1.23934,0 2.25243,-0.3375 2.25132,-0.75 z m 15.07298,-7.0772 2.57095,-6.6728 -5.08371,-7 c -2.79604,-3.85 -6.87682,-9.64056 -9.06839,-12.86792 l -3.98468,-5.86792 -5.16658,5.68519 -5.16657,5.68519 2.04617,4.68273 c 1.1254,2.5755 3.78671,8.43991 5.91401,13.03202 2.12731,4.59212 3.86784,8.66425 3.86784,9.0492 0,0.38495 1.53527,0.52067 3.41171,0.30161 1.87644,-0.21906 4.23519,0.0626 5.24167,0.6258 2.33661,1.30763 2.36278,1.2755 5.41758,-6.6531 z m 6.92904,5.8272 c 0,-0.55 -0.19844,-1 -0.44098,-1 -0.24254,0 -0.7191,0.45 -1.05902,1 -0.33992,0.55 -0.14148,1 0.44098,1 0.58246,0 1.05902,-0.45 1.05902,-1 z m 4,0.059 c 0,-0.51754 -0.45,-1.2191 -1,-1.55902 -0.55,-0.33992 -1,0.0835 -1,0.94098 0,0.85746 0.45,1.55902 1,1.55902 0.55,0 1,-0.42344 1,-0.94098 z m 11.95589,-5.98349 c 2.22426,-3.80844 4.04411,-8.16763 4.04411,-9.68707 l 0,-2.76262 -2.88514,2.76413 c -1.58682,1.52028 -4.26114,5.87947 -5.94293,9.68709 -2.82377,6.3931 -2.91248,6.92296 -1.15898,6.92296 1.29294,0 3.18925,-2.20951 5.94294,-6.92447 z m 1.42605,3.76475 c 0.86973,-4.34862 0.28507,-4.46223 -1.68654,-0.32772 -1.33029,2.78965 -1.39116,3.48744 -0.30422,3.48744 0.74735,0 1.64319,-1.42188 1.99076,-3.15972 z m 14.00644,-3.95105 c 5.77381,-3.91092 11.31094,-8.24891 12.30473,-9.63997 0.99379,-1.39107 3.85774,-5.05373 6.36433,-8.13924 2.5066,-3.08551 7.14704,-9.0622 10.31209,-13.28154 l 5.75465,-7.67151 -2.57463,-4.07849 c -1.41605,-2.24314 -2.80454,-4.07846 -3.08554,-4.07846 -0.281,0 -6.86111,5.5125 -14.62248,12.25 -11.46619,9.95359 -15.11811,13.80434 -19.48083,20.54146 -5.01361,7.74226 -7.27797,13.59387 -7.33625,18.95854 -0.0134,1.2375 0.40092,2.25 0.92082,2.25 0.5199,0 5.6693,-3.19984 11.44311,-7.11077 z m -20.64101,-3.4752 c -0.65307,-0.65307 -6.74737,4.7942 -6.74737,6.031 0,0.63524 0.54961,1.70458 1.22135,2.37632 0.9618,0.9618 1.72022,0.23974 3.56887,-3.3978 1.29113,-2.54053 2.17185,-4.79481 1.95715,-5.00952 z m 21.90791,7.83597 c 6.17246,-7.8515 6.1863,-8.01039 0.33338,-3.82641 -7.65654,5.47331 -7.74064,5.57641 -4.5489,5.57641 1.56186,0 3.45885,-0.7875 4.21552,-1.75 z m 27.65553,0.16716 c 8.19292,-0.56427 8.87667,-0.78006 9.75,-3.07709 0.51655,-1.35865 0.93919,-4.2713 0.93919,-6.47256 0,-3.69085 -0.17508,-3.94792 -2.25,-3.30366 -2.40496,0.74674 -30.92532,13.46847 -31.72913,14.15303 -0.26352,0.22443 2.88648,0.16034 7,-0.14242 4.11352,-0.30276 11.44399,-0.82355 16.28994,-1.1573 z m -6.95365,-7.80101 17.64284,-7.88384 0,-5.80714 c 0,-3.19392 -0.37265,-6.03745 -0.82811,-6.31894 -0.45546,-0.28149 -6.86796,3.52 -14.25,8.44775 -9.95026,6.64212 -14.54273,10.40913 -17.75523,14.5639 -2.38334,3.08239 -3.91012,5.44185 -3.39284,5.24323 0.51728,-0.19861 8.87978,-3.90884 18.58334,-8.24496 z M 621.03,492.45279 c 3.30135,-3.07085 6.70065,-7.77262 9.61596,-13.30041 4.0854,-7.74642 4.7515,-10.02971 7.0839,-24.2827 1.41597,-8.65275 2.57449,-16.10947 2.57449,-16.57048 0,-1.42792 -9.37988,0.83133 -11.07486,2.6675 -0.88143,0.95485 -4.44516,9.38609 -7.9194,18.73609 -5.90334,15.88728 -6.34707,17.6709 -6.77913,27.25 -0.26902,5.96419 -0.0746,10.25 0.46508,10.25 0.51008,0 3.22536,-2.1375 6.03396,-4.75 z m -7.94015,-6.5 -0.34122,-3.25 -1.33624,4.10253 c -1.12084,3.44118 -1.11635,4.48903 0.0279,6.5 l 1.36406,2.39747 0.31336,-3.25 c 0.17235,-1.7875 0.15981,-4.7125 -0.0279,-6.5 z m -7.92236,-13.8265 c -1.71776,-8.48293 -3.42884,-15.76515 -3.8024,-16.18272 -0.85026,-0.95046 -9.08314,5.99089 -8.99884,7.58714 0.0759,1.43637 15.13822,24.71389 15.68127,24.23397 0.13374,-0.11819 -1.16227,-7.15547 -2.88003,-15.63839 z m 74.86692,0.004 c 1.99678,-1.42237 2.10588,-1.94619 1.14552,-5.5 -0.58379,-2.16034 -1.39133,-4.2771 -1.79452,-4.70391 -0.58167,-0.61573 -12.77042,13.78876 -19.9185,23.53938 -1.0881,1.48427 8.39124,-4.6619 20.5675,-13.33547 z m -66.63757,-3.4275 c 0.42237,-6.05 0.79935,-13.57232 0.83773,-16.71627 l 0.0698,-5.71628 -3.25,1.96647 c -1.7875,1.08155 -4.27103,2.76224 -5.51895,3.73486 l -2.26894,1.7684 3.19508,16.48141 3.19508,16.48141 1.48613,-3.5 c 0.81738,-1.925 1.83172,-8.45 2.25409,-14.5 z m 23.51863,14.25 1.66249,-3.25 -2.13681,1.90499 c -1.17524,1.04774 -2.1368,2.51024 -2.1368,3.25 0,2.17472 0.83634,1.56455 2.61112,-1.90499 z m -3.15123,-4.24795 c 0.87228,-3.72155 0.39343,-3.23101 -2.43841,2.49795 -2.05367,4.15466 -2.07242,4.34652 -0.24432,2.5 1.08903,-1.1 2.29625,-3.34908 2.68273,-4.99795 z m -82.54873,0.66395 c 0.90789,-1.69641 0.72385,-1.75335 -2.4531,-0.75897 -2.70834,0.84769 -3.06705,1.22065 -1.69634,1.76371 2.68417,1.06344 3.09594,0.96373 4.14944,-1.00474 z m 96.16058,-13.13774 c 2.21829,-3.59054 6.46864,-10.35326 9.44523,-15.02826 2.97658,-4.675 5.42796,-8.86046 5.4475,-9.30103 0.0353,-0.79487 -6.08203,-3.69897 -7.79164,-3.69897 -1.81015,0 -17.87391,32.35982 -18.61541,37.5 l -0.72127,5 4.10117,-3.97174 c 2.25565,-2.18446 5.91614,-6.90946 8.13442,-10.5 z m -26.17852,-10.52959 c 2.74927,-7.66706 4.8354,-14.10339 4.63584,-14.30295 -0.19956,-0.19956 -2.3549,0.51835 -4.78964,1.59535 l -4.4268,1.95818 -0.6492,6.87538 c -0.74616,7.90215 -0.87659,18.92187 -0.21615,18.26143 0.246,-0.246 2.69668,-6.72032 5.44595,-14.38739 z m 41.50709,0.29406 8.9003,-8.32606 -3.47164,-2.64796 -3.47165,-2.64795 -4.42866,6.66462 c -2.43576,3.66554 -4.61117,7.11462 -4.83424,7.66462 -0.22307,0.55 -1.4041,2.35 -2.62452,4 -1.22041,1.65 -2.77748,4.08023 -3.46015,5.4005 l -1.24121,2.4005 2.86573,-2.0911 c 1.57615,-1.15011 6.87087,-5.83783 11.76604,-10.41717 z M 650.67544,437.9942 c -0.26902,-0.43527 -2.21448,-0.79141 -4.32326,-0.79141 l -3.83413,0 -1.15192,6.25 c -0.63356,3.4375 -1.5987,8.95 -2.14476,12.25 -0.54606,3.3 -1.21803,6.9 -1.49326,8 -0.27523,1.1 2.63538,-4.05636 6.46802,-11.45859 3.83263,-7.40222 6.74832,-13.81472 6.47931,-14.25 z"
       id="path2870" />
  </g>
</svg>
