<?xml version="1.0" encoding="utf-8"?>
<!-- Generator: Adobe Illustrator 21.0.2, SVG Export Plug-In . SVG Version: 6.00 Build 0)  -->
<svg version="1.1" id="Layer_1" xmlns="http://www.w3.org/2000/svg" xmlns:xlink="http://www.w3.org/1999/xlink" x="0px" y="0px"
	 viewBox="0 0 59.2 166.9" style="enable-background:new 0 0 59.2 166.9;" xml:space="preserve">
<title>Asset 13</title>
<g id="Layer_2">
	<g id="Objects">
		<path d="M0,50.7c0.1-1.3,0.5-2.6,1-3.8c-0.1-0.4-0.3-0.7-0.6-1c-0.3-0.2-0.4-0.6-0.3-0.9c0,0,0.1-0.1,0.1-0.1
			c0.2-0.3,2-3.1,2.6-4.4s2.7-5.8,3.6-7.2c1-1.5,2.1-2.9,3.3-4.3c1.7-1.4,3.5-2.6,5.6-3.4c1.5-0.5,5.4-1.3,6.4-1.7c1-0.4,2-1,3-1.5
			c0.3-0.1,0.5,0.4,0.5,0.4c0.4-0.7,0.5-1.4,0.4-2.1c0-0.8,0-3-0.3-2.9S24.2,17,24,16.3s-0.8-2.3-1-2.8s-0.2-2.1,0.1-2.3
			c0.4-0.1,0.8-0.1,1.2,0c-0.5-1.9-0.6-3.9-0.2-5.8c0.6-2.9,3.2-4.3,5.2-5C31.3-0.3,33.4,0,35.2,1c1.4,1,3.6,3.4,3.8,4.8
			C39,7.2,39.1,8.6,39,10c0.3,0.3,0.6,0.7,0.7,1.1c0.1,1.2,0.1,2.4-0.1,3.6c-0.1,0.3-0.2,0.7-0.4,1c0,0-0.4,0.1-0.4,1
			c0,1.2-0.2,2.4-0.5,3.6C38.1,21,37,22,36.9,22.7c-0.1,0.5-0.1,1,0,1.6c0,0,0.8,0.1,1.5,0.2s1.3,0.7,4.1,1.9
			c2.9,1.2,5.7,2.8,8.3,4.6c0.7,0.7,1.9,2.8,3.2,6.2s3.9,10.2,4.2,12.2s1.3,3.6,0.7,3.8c-0.8,0.3-1.6,0.4-2.5,0.5
			c0.7,1.2,1,2.7,0.9,4.1c-0.3,0.9-0.1,4-0.2,4.6s-2.2,2.2-2.7,2.3s-1.8-0.7-2.9-1.1s-3.3-3.9-3.6-5.4c-0.2-1.3-0.2-2.6,0-3.8
			c-0.2-0.3-0.6-0.4-0.9-0.2c0,0-0.1,0.1-0.1,0.1c-0.7,0.7-1.6,1.3-2.4,1.8c-0.6,0.3-0.7,0.6-0.9,1.8s-0.2,2.9-0.5,3.8
			c-0.4,1.4-0.7,2.8-0.9,4.2c0,0.8-0.5,0.5-0.8,1.8s0.1,3.4,0,4c-0.1,0.3-0.1,0.5-0.3,0.7c0.3,0.9,0.6,1.7,0.7,2.7
			c0,0.7,2.8,3.8,3,4.7c0.2,0.9,0.3,1.9,0.3,2.8c0,1.3,0.7,5,0.7,7.7s0.7,12,0.2,15.4s-1,5.3-1,5.3c-1.9,0-3.8-0.2-5.7-0.5
			c-0.2,1-0.5,2-0.9,2.9c-0.7,1.6-1.8,4.4-1.8,5.5s-0.1,2.3-0.1,3c0,3.3-0.3,6.5-0.7,9.8c-0.8,6.7-7.6,18.2-7.6,18.2v0.8
			c-0.1,0.8-0.1,1.6,0,2.3c0,0.9-0.2,1.8-0.4,2.7c-0.2,1.1,0.6,3.7,0.6,4c0.5,1,1.2,2,2,2.9c0.6,0.6,0.4,1.7,0.7,1.9
			c0.3,0.5,0.2,1.1-0.3,1.4c-0.1,0-0.1,0.1-0.2,0.1c-2.6,0.6-5.2,0.9-7.9,0.8c-1.5-0.2-1.7-0.3-2.2-0.9s-0.1-1.4-0.2-2.7
			s-2.5-4.4-2.7-5s1-2.3,1.7-3.4s0.2-1.6,0.4-2.3s1.5-1.9,1.6-2.1s0.8-1.2,1-1.5l1-1.6c0.8-2.9,1.2-6,1.2-9c-0.3-2.5-0.2-5,0.3-7.5
			c0.6-2.9,2.2-5.6,2.2-6s-0.6-1-0.6-1s-2,1.6-4,3.1c-2,1.6-2.1,2.9-2.1,2.9c0.3,0.4,0.4,1,0.3,1.5c0,0.8-0.1,1.6-0.3,2.3
			c-0.1,0.7-0.1,1.5,0,2.2c0,1-0.8,1.8-0.9,2.2s-1.1,1.7-1.1,2s-0.3,1.8-0.3,2.7S18,145,18,148.6s-2,4.9-2.4,5.2
			c-1.2,0.2-2.4,0.2-3.6-0.1c-1.4-0.3-2.6-1-3.4-2.1c-1.1-1.7-1.8-3.6-2-5.7c0.2-1.5,0.7-3,1.6-4.2c0.9-1.3,1.8-2.7,2.5-4.1
			c0.3-1.1,0.4-2.2,0.4-3.3c0-1,0.3-2,0.8-2.9c0.6-0.9,1.3-1.7,2-2.5c0.3-0.2,0.6-0.3,0.9-0.4c0,0,0.3-2.7,0.3-5.2
			c-0.1-1.9,0.1-3.8,0.6-5.6c0.5-1.5,3.6-3.6,3.6-3.6c0-0.9,0-1.7,0-2.6c-0.3-0.8-0.8-1.6-1.3-2.2c-0.7-1.1-1.3-2.2-1.8-3.4
			c-0.4,0.4-1,0.6-1.5,0.6c-0.2-0.1-0.7-1.4-0.3-1.8c0.5-0.8,0.7-1.7,0.7-2.7c0-0.8-0.2-1.5-0.6-2.1c-0.4-0.6-0.9-2.4-1.7-3.9
			s-2-6.9-2.2-7.8c-0.3-0.9-0.5-1.8-0.4-2.8c0.2-1.3,0.4-2.5,0.4-3.8c-0.2-1-0.3-2-0.2-3c0.2-1.1,0.6-2.1,1.2-3.1
			c-0.4-0.2-0.7-0.3-1.1-0.6c-1-1.1-1.9-2.4-2.7-3.6c-0.1-0.4-0.6-3.3-0.6-3.3c-0.3-0.1-0.6-0.3-0.9-0.6c-0.5-0.5-0.9-1-1.3-1.6
			c0-0.2,0-1.1,0-1.1s-1.1-1.7-3-4.7S-0.1,52.7,0,50.7z M8.1,55.1c0.1,0.5,0.8,4.5,1.4,5.2s1.6,2.6,1.6,2.6s-1.8-3.8-1.7-4.5
			s0.4-1.4,0.6-2.2c0.1-1,0.1-2,0.1-3c0-0.2-0.5-0.2-1.1-0.5H8.9C8.7,52.8,8,53,7.8,52.8S8,54.6,8.1,55.1L8.1,55.1z"/>
	</g>
</g>
</svg>
