<?xml version="1.0" encoding="utf-8"?>
<!-- Generator: Adobe Illustrator 21.0.2, SVG Export Plug-In . SVG Version: 6.00 Build 0)  -->
<svg version="1.1" id="Layer_1" xmlns="http://www.w3.org/2000/svg" xmlns:xlink="http://www.w3.org/1999/xlink" x="0px" y="0px"
	 viewBox="0 0 93.4 173.2" style="enable-background:new 0 0 93.4 173.2;" xml:space="preserve">
<title>Asset 15</title>
<g id="Layer_2">
	<g id="Objects">
		<path d="M92.6,59.6l0.1-0.4c0.2-0.2,0.5-0.5,0.7-0.7c-0.1-0.5-0.3-0.9-0.6-1.3c-0.2-0.1-0.5-0.2-0.8-0.2c-0.1,0-1.6,0.1-1.6,0.1
			c-0.3-0.2-0.6-0.4-1-0.5c-0.6,0-1.3,0-1.9,0c-0.8,0.1-1.5,0.1-2.3,0c-0.6-0.1-1.1,0.1-1.6,0.5c-1,0.7-2,1.3-3.1,1.8
			c-2.1,0.5-4.2,0.7-6.3,0.6c-1.6-0.2-3.2-1.7-5.2-2c0,0-1.6-5-1-7.7c0.2-1,1.1-4.6,1.2-5.1S69,39.3,69,38.4c0-1.1-0.2-2.3-0.6-3.4
			c-1.3-1.2-2.6-2.3-4-3.3c0.5-1.3,1.1-2.6,1.9-3.8c0.7-0.7,3.3-1.2,4-1.3s0.8-1.7,0.7-2.2s0.7-1,0.7-1.4s-0.1-1,0.2-1.2
			s0.1-0.6,0-1.1c-0.1-0.3,0-0.7,0.2-1c0,0,2.1-0.8,2.1-1.4c-0.3-1-0.8-2-1.4-2.8c-0.6-0.7-0.4-0.9-0.4-1.1s0.4-0.4,0.4-0.6
			c-0.2-1.6-0.6-3.2-1.3-4.7c0.4-1.2,0.6-2.4,0.5-3.7c0-1-0.6-1.9-1.4-2.5C70,2.7,69.9,2,69.1,1.5C68,1,66.8,0.6,65.5,0.3
			c0,0,0.4,0.4,0.8,0.8c-0.8-0.4-1.6-0.8-2.5-1C63,0,62.2-0.1,61.3,0c-0.8,0-1.6,0.1-2.4,0.3c-1.1,0-2.1,0.4-2.9,1.1
			c-0.6,0.5-1.2,1-1.7,1.6c0.4-0.3,0.9-0.6,1.4-0.7c0,0-2.5,2.1-3.2,2.9S52,6.5,51.3,7.5s-0.4,1-1.2,1.6c-0.4,0.3-0.9,0.6-1.4,0.7
			c0.5,0.1,1.1,0.1,1.6,0c-0.4,0.6-0.6,1.3-0.7,2.1c-0.1,1.1,0.6,1.1,0.4,2.1s0.4,2-0.3,2.7c0,0,0.6,0,0.9-0.2
			c0.6,0.5,0.9,1.3,0.7,2c-0.2,0.8-0.5,1.5-1,2.1c0.2,0.1,0.5,0,0.7-0.1c-0.2,0.5-0.5,1-0.9,1.4c0.3,0,0.5,0,0.8,0.1
			c-0.4,0.4-0.8,0.9-1,1.4c-0.2,0.6,0,0.8-0.3,1.1c0.4-0.1,0.7-0.3,1-0.5c0.1,0.4-0.1,0.9-0.4,1.2c-0.6,0.6,0,0.5,0,0.9
			s-0.1,1-0.7,1.1c-1.3,0.7-2.6,1.5-3.9,2.3c-2.4,1.4-4.4,3.4-6,5.6c-2.6,3.5-3.9,4.3-6.8,6.9s-7.2,9.1-6.9,10.8s1.3,1.8,3.4,4.7
			s7.1,6.9,9.3,8.6c0.2,0.8,0.4,1.7,0.7,2.5c0.2,0.6,0.4,1.2,0.4,1.9c0,0-0.7,0.8-0.7,1.1c-0.6,0.9-1.3,1.7-2.2,2.4
			c-1.6,2.1-3,4.4-4,6.8c-1.2,3-1.7,4-1.6,5.7c0.1,1.6,0.5,3.2,1,4.7c0.4,1.8,1.1,3.6,1.2,4.7c0,0.7,0.4,1.4,1,1.8
			c0.3,0.1,0.7,0.1,1,0.1c-0.8,4.2-1.3,8.5-1.5,12.8c0,5-0.1,9-0.5,10.3c-0.6,1.5-1.6,2.8-2.9,3.7c-1,0.7-2,1.4-2.9,2.2
			c-0.3,0.3-0.6,0.5-1,0.6c-0.9-0.7-1.9-1.2-3-1.3c-0.8,0-1.6-0.1-2.4-0.4c-0.5-0.3-1-0.5-1.6-0.7c-0.8,0.8-1.4,1.9-1.7,3
			c-0.5,1.8-1,3.6-0.7,3.8s0,1.4,0,1.9c-0.1,0.7-0.1,1.3-0.1,2c0.1,0.4,0,2.5,0.1,3.3c0,0.4,0,0.8,0,1.1c-0.2,0.9-0.4,1.7-0.8,2.5
			c-0.3,0.4-0.6,0.4-1.1,0.9s-7.3,8.8-7.3,8.8S7.3,152,7,152.3c-0.5,0.6-1,1.2-1.5,1.9c-0.3,0.5-3.5,3.9-4.2,4.9s-1.2,1.3-1.3,2
			s0.7,2,1.9,2.8s3.3,2,4.3,2.6s3.8,2.1,4.7,3.3c1,1.1,2.3,2.1,3.7,2.6c2.8,0.6,5.7,0.9,8.5,0.6c1.4-0.4,2.7-1.3,3.5-2.6
			c0.3-0.6-0.5-1.6-1.6-1.6s-1.9-0.9-2.3-1c-0.9-0.2-1.7-0.5-2.5-1c-0.6-0.8-1-1.7-1.3-2.6c0-0.3-0.7-2.3-0.7-2.6s-0.3-0.7,0-1.1
			c0.2-0.6,0.4-1.1,0.6-1.7c0,0,1.4-1.8,0.8-2.1c-0.9-0.4-1.9-0.4-2.8-0.1l3.7-4.2c0,0,1.9,1.1,2.5,0.9s1.9-1.1,1.8-1.5s0-3.5,0-4
			s2.5-2.6,3-3.1c0.4-0.4,0.7-0.9,1-1.3c0.8-0.5,1.6-0.9,2.4-1.2c0,0,3-1.1,3.1-2.6c0.1-0.8-0.1-1.6-0.6-2.3l2.7-1.7
			c0,0,7.9-3.4,7.6-3.5s0.5-0.4,0.5-0.4c3.3-0.7,6.6-1.7,9.8-3c2.7-1.1,5.6-2,8.5-2.6c1.4-0.3,4.9-3,5.7-3.5c1-0.8,1.8-1.9,2.3-3.1
			c0.2-2,0-3.9-0.6-5.8c-1.8-4.3-4-8.4-6.6-12.2c-2.2-3.2-6.3-9-6.3-9c0.4-0.8,0.6-1.6,0.6-2.5c-0.2-1.2-0.1-2.4,0.3-3.6
			c0.3-1.2,0.3-2.4,0-3.5c0-0.9-0.2-1.7-0.4-2.6c-0.4-1.3-0.1-2.3,0.4-2.7s2.7-0.6,2.5-1.6c-0.2-0.6-0.2-1.2,0.2-1.7
			c0.2-1,0.2-1.9,0.2-2.9c0.5-0.2,0.8-0.8,0.7-1.4c-0.2-1.1,0.9-3.7,0.9-3.7c2.7,0.9,5.5,1.3,8.3,1.1c3.9-0.4,7.5-1.3,9.1-1.4
			s1.9-0.5,2.8-0.1s5.9,0.3,6.9,0.1s0.8-0.3,1-0.5s0.2-0.8,0.1-0.9c-0.1-0.1-0.2-0.3-0.3-0.5c0.2,0,0.4,0,0.6,0
			c0.4-0.1,0.7-0.4,0.9-0.7c0.1-0.3,0.1-0.6-0.1-0.9c-0.1-0.2-0.2-0.4-0.4-0.5c0.4-0.1,0.8-0.3,1.2-0.5c0.2-0.4,0.3-0.8,0.3-1.2
			C93,60,92.8,59.8,92.6,59.6z M38.1,51.6c0.1,0.9-0.1,1.7-0.5,2.5c-0.2-1-0.6-2-1.1-2.9c0.7-0.8,1.5-1.5,2.4-2.2
			C38.5,49.9,38.2,50.7,38.1,51.6z M56.3,115.5c-0.1,0.1-5,1.1-6.3,1.8c0,0,2.5-5.1,2.6-6.8c1.5,1.3,2.9,2.7,4.2,4.2
			C57,115.2,56.4,115.4,56.3,115.5z"/>
	</g>
</g>
</svg>
