<?xml version="1.0" encoding="utf-8"?>
<!-- Generator: Adobe Illustrator 21.0.2, SVG Export Plug-In . SVG Version: 6.00 Build 0)  -->
<svg version="1.1" id="Layer_1" xmlns="http://www.w3.org/2000/svg" xmlns:xlink="http://www.w3.org/1999/xlink" x="0px" y="0px"
	 viewBox="0 0 112.1 176.6" style="enable-background:new 0 0 112.1 176.6;" xml:space="preserve">
<title>Asset 16</title>
<g id="Layer_2">
	<g id="Objects">
		<path d="M0.8,143.8c0.2-1.3-0.3-2.3-0.3-4s1.1-7,1.4-7.2s1.7,0.3,1.9,0.4s1.7,0.1,2.1,0.3c0.5,0.4,1.1,0.8,1.7,0.9
			c1.2,0.3,2.4,0.6,3.6,1.1c0.8,0.3,1.7,0.7,2.4,1.1c0,0,7-3.3,12-5.6s5.7-3.6,10.3-4.6c3-0.6,6.2-0.7,9.2-0.2l0.2-0.3
			c2.3-1.2,4.5-5.5,5.2-8.3c0.7-2.8,1.2-5.6,1.6-8.4c0.6-3.6,3.4-10,3.3-10.2c-1-1.3-2-2.7-2.8-4.2c-1.5-2.6-1.9-7.3-0.7-10.1
			s2.3-4.5,2.3-4.5c-0.5-0.3-0.6-1.1-0.3-1.8c0.2-1.1,0.3-2.2,0.3-3.3c0.1-0.7,2.2-2.2,2.2-2.4c0.1-0.7,0-1.5-0.1-2.2
			c-0.2-1.1-0.5-2.2-0.8-3.3c-0.4-1.1-0.6-2.3-0.7-3.4c-1.3-0.5-2.5-1-3.7-1.7c-1.1-0.7-2.3-1.2-3.5-1.7c-0.8-0.3-2.7-1-4.4-1.5
			s-12-6.5-12.1-6.6s-0.8-0.9-0.8-1.4c0-0.9,0.1-1.8,0.5-2.7c0.6-1.2,5.4-4.8,9-6.1c2.5-0.9,5-1.6,7.6-2.2c0-0.3,0-0.5,0.1-0.8
			c0.2-0.3,0.6-0.5,2.3-1.4s2.7-1.8,4.4-2c1.6-0.3,3.1-1,4.5-2c0.6-0.4,1.9,0.1,2.3-0.6c0.5-0.6,1.2-0.9,2-1c0.5,0,0.9-0.2,1.4-0.4
			c0.2-0.2,1.4,0,1.4,0c0.8-0.6,1.4-1.3,1.8-2.2c0.4-1.3,0.5-2.6,0.2-3.9c-0.5-1.2-1.1-2.3-1.8-3.4c-0.9-1.5-1.5-3.2-1.8-4.9
			c-0.1-2.6,2.5-6.5,2.5-6.5c-1.5,0.7-3.2,0.6-4.6-0.2c-1.3-1-3,1.4-3,2c-0.1,0.6-0.4,1.2-1,1.5c-1.4-0.1-2.9-0.2-4.3-0.5
			c-0.9-0.2-1.7,0.4-1.8,0.4s-0.9,0.6-0.8,0.9c0,0.6-0.1,1.2-0.5,1.6c-0.3,0.3-0.5,0.6,0,1.3c0.3,0.5,0.5,1.1,0.5,1.6
			c-0.2-0.7-1.4-1.8-1.4-2.2s0.6-0.9,0.5-1.8c0-0.8,0-1.6,0-2.4c0.1-0.7,0.4-1.3,0.9-1.8c0.4-0.5,1.3-0.7,2-1.2s1-2.3,1-2.3
			c-0.2,0.4-0.5,0.8-0.8,1.1c-0.4,0.3-1,0.4-1.5,0.1c-0.3-0.3-0.9-1-1.6-1c-0.6,0-1.2-0.1-1.8-0.2c0.6,0.1,1.2,0.1,1.8,0
			c0.9-0.2,1,0.8,2,0.4s0.1-1.5,1-2.8S55,4.2,55,4.2s-1.5-0.3-1.7-0.1c-0.5,0.4-1.3,0.5-1.8,0.1c-0.6-0.3-1.1-0.9-1.5-1.5
			c0,0,0.9,1,1.5,1C52.3,3.5,53,3,53.6,2.4c0.5-0.5,2.1-0.3,2.1-0.3c-0.6-0.2-1.1-0.5-1.5-1c-0.4-0.4-1-0.7-1.6-0.7
			c1-0.2,1.3,0.3,2.8,1c0.8,0.4,1.8,0.5,2.7,0.4c-0.7-0.5-1.4-1.1-2-1.7c0,0,0.8,0.5,1.7,1c0.8,0.5,1.6,0.8,2.5,1.1
			c1.1,0.3,2.7,0.6,3.1,0.8c0.8,0.2,1.7,0.4,2.6,0.4c0.6,0,1.8,1.4,2.3,2c0.4,0.4,0.9,0.8,1.5,1c0,0,2-1.2,2.8-0.9s1.4-0.3,2.2-0.5
			c0.8-0.1,1.7,0.2,2.2,0.9c0.5,0.5,0.9,0,1.4,0c0.6,0.1,1.2,0.4,1.8,0.8c0.8,0.4,1.6,1,2.3,1.6c0.3,0.4,0.7,1.1,1,1.2
			s0.4,0.8,0.5,1.2c0,0.4,0,0.9-0.2,1.3l0.4,0.5c0.7,1.4,1,3,1,4.6c-0.1,0.7-0.3,1.3-0.5,2c0,0-0.2,0.8,0,1.1s1.3,2.4,1.6,3
			s0.2,0.9-0.2,1.1l-1.5,0.5c0,0-0.1,1.4-0.2,1.8S83.3,27,83.3,27c0,0.4,0.1,0.8,0.1,1.1c0,0.5-0.7,0.9-0.7,0.9
			c-0.2,0.6-0.3,1.3-0.3,2c0.1,0.8-0.5,1.4-1.3,1.5c-0.1,0-0.2,0-0.2,0c-0.8,0-3.4,0-3.4,0c-0.3,0.2-0.5,0.5-0.7,0.9
			c-0.2,0.5-0.2,1-0.3,1.5c1.2,0.5,2.4,1,3.6,1.6c1.5,0.8,3.8,2.1,4.4,3.1s3.7,9.4,3.8,9.7s0.7,1.5,0.1,1.7c-0.9,0.4-1.7,1-2.4,1.6
			c0.3,0.9,0.5,1.8,0.7,2.7c0,1,0.1,2,0.2,3c0.4,0.4,0.5,0.9,0.5,1.4c-0.1,0.9-0.1,1.8,0,2.8c0.2,1.1,0.2,2.2,0.1,3.3
			c-0.6,1.5-1.4,3-2.3,4.3c-0.9,0.9-1.9,1.7-3,2.4c-0.4,0-0.8-0.1-1.1-0.3c-0.7-0.8-1.3-1.6-1.8-2.6c0,0-0.3,2.1-0.6,3.4
			s-1.5,4.3-1.5,6.3c-0.1,1,0.1,2.1,0.6,3c0.3,0.7,0.3,1.5-0.1,2.1c-0.3,0.3-0.6,0-0.9,0.9s-1.5,5.3-1.6,5.9s1.8,3.8,4.1,7.6
			s6.1,11.8,7.3,14.5s4.3,7,4.6,8.5s-1.2,6.4-1.2,7s0.3,3.7,0.9,12.3c0.6,6.3,1.7,12.6,3.2,18.8c0.3-0.6,0.9-0.9,1.6-0.8
			c1,0.3,1.2,2.4,1.2,2.4s-0.1,0.7,1.7,0.8s5.5,0.8,6.2,0.8c1.1,0,2.1-0.3,3-0.9c0.8-0.7,1.8-1,2.9-1c0.6,0.1,1.8,0.8,1.8,1.2
			s0.1,1.4-1.2,3.3s-5.9,5.5-7.5,6s-3.7,0.4-4.5,1c-1.6,1-3.3,1.9-5.1,2.8c-1.7,0.8-5.2,1.4-5.9,1s-0.8-2.1-1.3-3.5
			c-0.5-1.8-0.7-3.7-0.8-5.5c0.1-0.6,0.3-1.3,0.6-1.9c0.2-0.5,0.5-0.1,0.4-0.5c-0.9-3.6-2-7.1-3.4-10.5c-2.2-5.3-3.9-10.7-5.2-16.3
			c-0.6-3.4-0.5-6.8,0.3-10.1c0.3-1,0.1-2.1-0.5-3c-0.9-1.2-9-10.3-9-10.3s-1.5,3.3-5,9.2c-2.6,4.2-5.5,8.3-8.8,12
			c-0.3,0.3-4.2,0.6-5,0.6c-2.4,0.2-4.7,0.7-6.9,1.4c-3.4,1-11.7,2.3-19.4,3.6s-9.1,2.8-9.1,2.8c0.2,0.5,0.9,0.9,0.6,1.6
			s-1.9,0.7-1.9,0.7l-1,1.6c-0.4,0.6-5.3,5.3-5.3,5.4c-0.5,0.9-0.8,1.9-0.7,2.9c0,1.3-0.6,2.6-1.5,3.5c-0.5,0.3-1,0.4-1.5,0.3
			c-1.4-1-2.4-2.6-2.9-4.3c-0.4-3-0.6-6-0.6-9C0.2,146.2,0.5,145,0.8,143.8z M53.8,47.6c0,0-1.3,0.9-1.8,0.7c-0.5-0.3-1-0.6-1.4-0.9
			l-4,1.1c-2,0.5-4.6,1.2-4.6,1.2s1.6,2.2,2.5,3.2s4.6,2.9,5.8,3.6s1.8,1,1.8,1c0.9-0.1,1.8,0,2.6,0.1
			C54.7,57.5,54.8,48.3,53.8,47.6L53.8,47.6z"/>
	</g>
</g>
</svg>
