<?xml version="1.0" encoding="utf-8"?>
<!-- Generator: Adobe Illustrator 21.0.2, SVG Export Plug-In . SVG Version: 6.00 Build 0)  -->
<svg version="1.1" id="Layer_1" xmlns="http://www.w3.org/2000/svg" xmlns:xlink="http://www.w3.org/1999/xlink" x="0px" y="0px"
	 viewBox="0 0 121.4 176.1" style="enable-background:new 0 0 121.4 176.1;" xml:space="preserve">
<title>Asset 17</title>
<g id="Layer_2">
	<g id="Objects">
		<path d="M83.1,25.4c0.6-0.8,1.3-1.4,2-2c0.5-0.2,2.8-0.2,3.3-0.8c0.2-0.7,0.3-1.4,0.2-2.2c0-0.2,0.2-1.1,0-1.2s-0.1-1.2-0.2-1.3
			c-0.1-0.7-0.1-1.4,0-2.1c0,0,1.6-0.6,1.6-0.8s-2-3.3-2.5-4c-0.4-0.5-0.2-1.3-0.3-2.1c0-3-1.5-5.7-4-7.3
			c-3.6-2.3-13.7-2.7-15.6,3.9s0.4,8.6,2.1,11.7c1,1.8,1.4,3.9,1.3,6c0,0-11.6,12.5-12.2,14.4s-0.8,2.5-1.1,2.8s-4.9,4.1-5.3,4.5
			s0.2,1.9,0.8,2.7c0,0-5.2,8.5-5.4,9.6s1.4,3.3,1.9,3.8c2.9,2.7,6,5.2,9.3,7.4c-0.6,1.8-1.3,3.6-2.3,5.3c-1.2,1.7-1.2,4.7-1.6,7.7
			s-0.4,8.9-0.4,9.9s0.9,3.2,0.7,4.4c-0.2,0.9-0.5,1.7-0.9,2.5c-0.3,1.4,0.2,2.8,1.3,3.7c-0.6,3.1-1,6.2-1.2,9.4
			c-0.3,4.4-1.8,8.7-2.7,9.1s-3.4-0.9-7.7-1.2s-8,1.5-10.3,1.9s-9.8,2.6-17,2.7c0,0-0.2-0.7-1.4-0.9s-3.3-1.9-7.7-2.7
			c-0.6-0.4-1.2-0.6-1.9-0.8c-0.9-0.1-1.2,1.1-1.6,2.4s-1.7,6.5-2.8,9.6c-1.3,3.6-1.9,7.3-1.8,11.1c0.3,3.1,0.9,5.8,1.9,6.3
			s2.1,0.1,2.2-0.4c0.2-1.5,0.6-2.9,1.4-4.2c1-1.4,5.6-6.5,7.2-7.2s2.6-1.2,2.7-1.2c0.8-0.1,1.5-0.8,1.4-1.6c0-0.1,0-0.2-0.1-0.4
			c0,0,2.9-2.5,10.3-2.1s19.9,1.5,25.9,1.6s7.5-0.1,8.8-1.6s8.4-14.7,10.8-22c0,0,4.7,6.2,7.1,8.8s3.8,3.9,3.7,5s-0.5,8.8,0.6,13.9
			s10.3,21,11.3,28.2c-0.2,0-0.4,0.1-0.4,0.3c0,0,0,0.1,0,0.1c0.1,2.6,0.7,5.1,1.7,7.5c0.3,0.5,0.6,1,0.8,1.6
			c0.1,0.5,0.6,0.9,1.2,0.9c0.4,0.1,8.4-3.5,14.2-7.4s8.2-7.1,8.4-8.2c0.1-1-0.4-1.9-1.3-2.3c-0.5-0.2-3.1,1.8-6,2.2s-7.4-0.6-8.7-1
			s-1.8-0.5-2,0.1c0,0-4.6-4.6-5.3-10.6s-0.9-12.2-1.3-17.5s0.1-9.5-0.2-11.6s-5.7-16.2-9.7-21.4c0,0,0.6-0.4,0.2-1.4s-3-5.7-3.6-8
			s-1.2-4.8-1-6c0.1-1.1-0.1-2.1-0.3-3.1c-0.1-0.7,1.9-4.6,2.3-6.4s1.5-9.2,1.9-11s1-5.2,1-5.2c2.8,0.1,5.7,0.1,8.5-0.1
			c2.1-0.3,4.3-2,4.4-2.7c0.1-0.6,0-1.3-0.1-1.9c0-0.4-0.8-1-0.8-1.5c0-0.8-0.3-1.5-0.8-2c-0.6-0.5-1.2-1.1-1.7-1.7
			c-0.8-0.2-1.6-0.3-2.4-0.3c-0.3,0-2.6,1.5-3.2,1.5s-1.2,1.3-1.2,1.3s-1-0.6-0.6-3.3s-0.9-9.4-1.3-12.1s-1-5.2-2.2-6.6
			C85.2,26.8,84.2,26,83.1,25.4z"/>
	</g>
</g>
</svg>
