<?xml version="1.0" encoding="utf-8"?>
<!-- Generator: Adobe Illustrator 21.0.2, SVG Export Plug-In . SVG Version: 6.00 Build 0)  -->
<svg version="1.1" id="Layer_1" xmlns="http://www.w3.org/2000/svg" xmlns:xlink="http://www.w3.org/1999/xlink" x="0px" y="0px"
	 viewBox="0 0 106.1 164.1" style="enable-background:new 0 0 106.1 164.1;" xml:space="preserve">
<title>Asset 18</title>
<g id="Layer_2">
	<g id="Objects">
		<path d="M0.1,140.4c0.3-0.8,2.3-0.5,2.3-0.5c2.3-1.4,5.3-1,6-1c0.3,0,0.7,0,1-0.1c2.9-2.2,8.3-9.5,11.4-14.2s8.6-7.7,11.7-9.4
			s4.8-5.6,6.9-11.5c1.5-3.9,3.4-7.6,5.7-11.1c0,0-1.1-0.6-1.2-1.3c0.2-3.9,0.9-7.8,2.2-11.5c1.5-4.5,3.2-5.7,3.2-6.3
			c0.2-0.9,0.5-1.9,0.9-2.8c0.1-0.7,0.1-1.4-0.1-2.1c-0.2-0.4,1-1.3,1.2-1.5c0.1-1.1,0.1-2.2,0-3.3c0-0.4-1-2.5-3.5-6.4
			S42.2,45,42.2,44s0-0.8,3.3-3s8.7-5.5,8.7-5.5l0.2-0.5c2.1-1.7,8-4.3,9.4-5.7c1.4-1.5,6.1-1.8,6.1-1.8c0.5-1.2,0.8-2.5,0.9-3.9
			l0,0c0-0.7-0.2-1.4-0.6-2c-0.2-0.2-1.8-0.2-2.8-3c-1.2-3-0.9-6.3,0.9-9c-0.4,0.1-0.9,0.2-1.3,0.4c-0.4,0.3-0.8,0.6-0.8,0.9
			s0.2,1.9-0.4,2.4s-0.2,3.2-1.7,4.4s-1.8,0.9-2.5,2.2s-1.2,2.3-2.7,2.7c-1.3,0.3-3.3,0.7-4,1.3c0.6-0.5,1.3-0.9,2-1
			c2-0.6,3.4-1.3,3.5-2.2c0-0.6-0.1-1.2-0.3-1.8c0,0.7-0.4,1.3-0.9,1.6c-0.9,0.5-1.3,0.2-2.8,0.2s-1.6,0.4-1.6,0.4s0-0.5,1.5-0.6
			s3.1,0,3.1-1.2c0-0.7-0.5-1.7,0.1-1.7s0.9,0.4,1.2,0.1c1.2-0.7,1.9-2,1.6-3.4c-0.7,0.5-1.5,0.7-2.3,0.9C59,15.3,58,15.2,57.6,16
			s-2,4.1-4.8,3.6s-2.6-1.6-4.1-1.1c-0.9,0.3-1.8,0.4-2.7,0.5c1.1-0.3,2.1-0.6,3.1-1c1.2-0.5,2.3,0.1,2.9,0s1.2-1.4,1.2-1.4
			c-0.5,0.5-1.3,0.8-2,0.6c-1.3-0.2-1.9-0.9-2.8-0.7c0.6-0.1,1.3-0.1,1.8,0.1c1.3,0.3,1.7,0,2.1-0.8s0.7-1.5,0.7-1.5
			c-0.4,0.5-1.1,0.9-1.8,1.1c-0.7,0.1-1.4,0.1-2.1,0c0.8,0.1,1.6-0.1,2.2-0.6c0.7-0.7,0.7-3.4,3.5-3.9c-0.3-0.3-0.7-0.4-1.1-0.3
			c-0.7,0.2-1.2,1-1.9,0.9c0,0,0.7-0.1,1.4-1.4C53.6,9.5,54.3,9,55.2,9c0,0-2.4-0.7-3.5-0.1c-1.2,0.7-2.2,1.7-2.9,2.8
			c-0.6,1.2-1.4,2.2-2.5,2.8c0.9-0.7,1.6-1.6,2-2.6c0,0-0.9,0.8-3.7,0.5c-1.6-0.2-3.3,0-4.8,0.6c1.1-0.6,2.3-0.9,3.5-1
			c1.8,0,3.1-0.1,4-0.7c0.6-0.4,1-0.9,1.3-1.5c-0.6,0.1-1.3,0.3-1.9,0.6c0,0,1.6-1.1,2.7-1.6c0.6-0.3,1.1-0.6,1.8-0.7
			c-1.6-0.5-3.3-0.4-4.8,0.3c-2.1,1.3-2.7,0.6-2.7,0.6s0.5,0.4,1.8-0.5c1.2-0.9,2.7-1.5,4.2-1.5c1,0.2,1.9,0.6,3,0.2
			c0.6-0.2,1.2-0.5,1.7-1c-0.8-0.5-1.7-0.7-2.6-0.4c-1.2,0.5-3.1,0.8-3.6,0.4c0,0,1.8,0.3,2.6-0.5c0.5-0.5,1.2-0.9,1.9-1.1
			c-1,0.1-2,0.1-3-0.2c-1.2-0.4-2.5-0.4-3.7,0.1c0.8-0.7,1.8-1,2.9-0.8c1.2,0.2,2.4,0.2,3.6-0.2C51.8,3,51.2,3,50.6,3.1
			c0.3-0.2,0.7-0.3,1.1-0.3c0.8,0,1,0.5,2-0.5s2.1-1.6,4.6-2s2.6-0.5,4,0s4.5,1.9,5.7,3.4c0.9,1.2,1.5,2.6,2,4
			c0.8-0.5,1.7-0.9,2.6-1.3c1.7-0.4,3.4-0.4,5.1,0.1c3.9,1.1,4.2,2,4.5,2.2c2,1,3.4,2.9,3.8,5.1c0.2,1.6,0.2,3.2,0.2,4.8
			c0.1,0.8,1.6,2.3,1.6,2.7s-1.1,0.8-1.1,0.8c-0.1,0.2-0.1,0.5,0.1,0.7c0.3,0.4-0.1,0.9-0.3,1.4s0.3,1.3,0,1.6s0,1.7-0.2,2.4
			s-4,0.8-4.8,1.2c-1.1,0.9-2.1,1.9-2.9,2.9c1.4,0.7,2.7,1.5,3.8,2.5c1.2,1.2,3,5.5,3.5,7.3c0.9,2.3,1.9,4.6,3,6.8
			c0.1,0.3,0,0.6-0.2,0.8c0,0,1,2.9,1.2,3.4s1,1.5,1.3,1.2s3.9-6.2,3.9-6.2c0.3-0.8,0.6-1.6,0.8-2.4c-0.1-0.3-0.5-4.6-0.5-5
			c0.3-0.8,0.7-1.4,1.2-2c0.3-0.3,1.8,0.1,1.8,0.1l0.8-1.2c0.5-0.5,1.3-0.6,1.9-0.2c0.4,0.4,1.2,1.4,1.4,1.6s1,1.2,1.4,1.6
			c0.5,0.8,1,1.6,1.4,2.4c0.2,0.7,0.1,1.4-0.2,2c-0.3,0.3-4.2,3.6-4.2,3.6s-6.7,13.6-7,14.4s-2.4,2.4-3.1,2.2
			c-1.6-0.2-3.1-1-4.1-2.2c-1.4-1.8-7-11.4-7-11.4c-1.5,2.6-3.2,5.1-4.9,7.5c-2.4,3.1-1.9,7-2,11.1s0.1,9.4,0.1,9.4s0.5,0.4,1.3,0.8
			c1.2,0.8,2.5,1.6,3.8,2.3c1.5,0.7,1.6,1.5,1.6,1.5c12.1,8.6,19.1,18.4,19.3,19.9s-1.6,4.9-3.8,13.4s-3,21-3,21
			c1.5,0.2,1.8,2.2,1.8,2.2c0.8,0.9,1.8,1.6,2.9,2c2.1,0.9,6,1.8,6.8,1.4c0.8-0.4,1.7-0.3,2.4,0.1c0.6,1,0.5,2.4-0.2,3.3
			c-1,1.2-7.7,4.5-9.7,4.4c-1.6-0.1-3.2,0.3-4.6,1c-0.9,0.5-6.7,0.7-7.6,0.7c-0.9,0.1-1.7-0.3-2.1-1.1c-0.2-1-0.2-2.1-0.2-3.1
			c0-2.1,0.4-4.3,1.3-6.2c0.1-0.3,0.5-0.5,0.8-0.5c0.9-7,1.1-14.2,0.6-21.3c-0.5-5.6,1.9-10.8,2.3-12.1s0.2-2-0.7-2.5
			c-3.5-1.8-7.1-3.5-10.7-4.9c-4.1-1.8-8.1-4-11.7-6.7c-0.8,1.3-1.6,2.7-2.3,4.1c-0.2,0.7-1.2,0.7-1.2,0.7
			c-2.3,4.8-11.5,14.7-11.9,15.3s-2.7,4.5-4.2,5.4s-4.5,1.9-14.1,9.2c-11.1,8.4-15.1,15.7-15.1,15.7s1.1,1.2,1.1,1.6
			s-2.2,1.8-2.2,1.8c-0.1,1.4-0.4,2.8-1.1,4c-1.2,2.7-0.7,3.9-0.7,5.3s0.8,2.7,0.8,3.5c-0.1,0.9-0.8,1.6-1.6,1.9
			c-1.9-0.2-3.7-1.1-5.1-2.5c-2.3-2.1-4.1-6.9-3.8-8.5c0.1-1.8-0.2-3.5-0.9-5.1C0.4,146.5-0.2,141.1,0.1,140.4z M56,50.7
			c0.1-1.9,0.9-6.6,0.9-6.6s-5.5,0.8-5.9,1.6s1.7,10.3,3.3,13.8C54.3,59.5,55.9,52.6,56,50.7z"/>
	</g>
</g>
</svg>
