<svg xmlns="http://www.w3.org/2000/svg" viewBox="0 0 112.74 412.45"><title>Asset 19</title><g id="Layer_2" data-name="Layer 2"><g id="Layer_1-2" data-name="Layer 1"><path d="M108.9,96.55c.39-1.6,4.73-5.24,3.67-7.13-1.24-2.21-5,0-5.83,1.08s-.74,2.65-1.51,3.89c-.53.86-1.61,1.42-2.16,2.16-1.62,2.18-2.78,4.76-5.4,5.4-.88-1-2.31-.73-3.24-.65-.88-4.33-2.35-8.36-2.81-13-.22-2.27.17-4.77-.22-7.13a24.84,24.84,0,0,0-1.08-3c-1.28-3.65-2.36-4.57-5-6.69-1.23-1-2.29-2.17-3-2.59-1.55-.88-3-1.37-4.33-2.09-.41-1.07-1-1.94-1.29-2.95-.88-2.94.87-7.27,1.85-11.49,2-8.51-1.78-12.94-3.93-19.18a27.21,27.21,0,0,1-1-4.19L73.7,29c-.07-.11-.12-.22-.18-.33-.21-1.3-.37-2.61-.5-3.91,0-.49,0-1,0-1.59a29.91,29.91,0,0,0-1-6.2c0-.21-.08-.42-.13-.63-1.5-6.55-4.78-14.55-13.22-16-2.83-.47-5.49.7-7.88.57-1.58-.09-3-.76-4.76-.9-2.34-.19-3.64,1-5.37,1.75-3.17,1.43-6.27,2.89-8.53,6-.72,1-1.17,2.67-1.9,3.93a32.58,32.58,0,0,0-2.23,3.66c-.47,1.29-.67,3.36-1.19,4.3-2.79,5.06-7.77,6.64-8.33,13.78-.27,3.43,2.42,8.1,1.26,11.81-1.09,3.49-5,3.27-6.9,5A6.72,6.72,0,0,0,11,56.71c.3,1.28,2.19,2.57,2,4.24-.25,2.28-2.63,1.8-3,3.48,1.47.62,2.44-.91,3.28-.44-1.54,3-4.33,4.1-6.84,5.58,1.7,1,3.41.35,4.75-.18-.2.37-.4.72-.58,1l-.22.38c-1.15.91-2.58,1.46-3,2.56a1.74,1.74,0,0,0,1.41.25A10.8,10.8,0,0,0,7,76.46a7.39,7.39,0,0,0-.13.8,4.87,4.87,0,0,0-.77,1,5.26,5.26,0,0,0,.71,0c0,1.73.26,3.6.19,5.33-.61,13.87-4.32,24.85-6,37.79-.27,2-1.17,5.35-.86,6.48.25.94,1.83,1.76,2.38,2.59,2.44,3.73,2.53,7.83,6.91,8.64,5.36,1,7.43-2.12,9.93-3.89a25.47,25.47,0,0,1,4.1-2.37A129.4,129.4,0,0,1,23,150.53a54.19,54.19,0,0,1-4.32,14.9,116.56,116.56,0,0,0-5,14.25,78.55,78.55,0,0,0-3.24,25.91c.06,1.39-.46,4.55.22,5.83s2.72,1,4.1,1.94c.84,17.16,1,36.36.43,54.63a25.23,25.23,0,0,0,0,4.32c.3.7,2.59,1.78,3.67,2.16,3.39,1.2,7.33.77,11.45.86.15,2.6,2.22,4.66,2.81,7.13.31,1.3.23,2.8.43,4.1a31.31,31.31,0,0,0,.86,3.89,72.69,72.69,0,0,0,2.16,7.13c.73,1.79,2.45,3.26,2.81,5,.26,1.24-.1,2.57,0,4.1a69.45,69.45,0,0,0,2.38,12.74c1.05,4,3.08,8.16,3.46,11.66.3,2.79.29,5.94.43,8.85.3,6.29.21,12.07,0,18.14-.11,3.16.35,6.39,0,9.29a21,21,0,0,1-1.3,4.32c-.55,1.45-1.51,2.94-1.51,4.32,0,1.16.79,2,.86,3a9.82,9.82,0,0,1-.43,3.24c-.53,1.38-1.71,1.65-2.16,2.59a7.71,7.71,0,0,0-.65,3.45c0,.93.5,1.66.43,2.59-.14,1.85-1.93,4.81-2.81,6a10,10,0,0,0-1.3,1.73c-.85,1.94-.37,3.95-.22,5.83s-.45,4,0,5c.76,1.68,4,2,6.48,1.73a26.14,26.14,0,0,0,14-6.26,2.37,2.37,0,0,0-.22,2.59c-.57,1-2.34,2.25-1.94,3.67.32,1.15,2.67,1.56,5.18,1.08,4.37-.82,6.33-2.27,9.93-3.67,1.9-.73,3.92-.86,5.4-1.51a38.89,38.89,0,0,0,4.32-2.81,22,22,0,0,0,.65-2.16c1.28-3.66-1-8.09,0-12.31a23.85,23.85,0,0,1,1.08-2.16c.71-2.27,1.48-8.1.43-9.94-.65-1.13-1.72-.8-2.59-1.51-.43-.35-.82-1.21-1.3-1.73-2-2.15-4.83-4.09-8.42-3.24-1.13-4.18-1.29-8.74-1.51-13.39s-.87-9.52-.86-14.25c0-3.54.15-7,0-10.58-.25-5.91.88-9.73,1.94-14.47a73.34,73.34,0,0,0,1.3-18.79c-.11-3.15-1.19-6.59-.86-9.5.1-.89.79-2.19,1.08-3.46.39-1.73.5-4.46,1.08-6.91.27-1.12,1.52-5.94,1.94-6.26.71-.54,3.26-.41,4.54-.65,1.52-.28,3-.55,4.32-.86,1.77-.42,6.86-1.78,7.56-3,.32-.58.19-2.6.22-4.53.22-17.3.63-36.09.43-51.61,4-.84,2.9-2.41,2.16-6.48-1.62-8.84-1.27-17.32-2.59-25.91-.53-3.41-2-6.64-2.16-9.29a16.45,16.45,0,0,0,.22-1.94c-.09-.71-.78-1.73-1.08-2.81-.67-2.35-1.15-4.16-1.73-6-.36-1.17-.36-2.59-.65-3.24-.47-1.06-1.78-1.59-2.16-2.37a16.12,16.12,0,0,1-.86-5.18c-.19-2.84-.08-6.07,0-9.07s.08-6.16.86-8.42c.71,1.69.46,3.07,1.29,4.32a14,14,0,0,0,1.51,1.3c1.46,1.42,2.6,3.44,4.32,4.1,6.36,2.44,9.86-3.27,11.66-7.77a19,19,0,0,0,1.3-4.53,34.47,34.47,0,0,1,.65-5.18c.51-1.74,1.63-3,2.16-4.32,1.24-3.18,2.17-9.44,0-11.88.86-.68.61-1.77,1.51-3,.55-.77,1.66-1.1,2.16-1.94s0-1.41.43-2.38c.66-1.59,2.19-2.25,1.73-3.46C111.15,96.51,109.81,96.57,108.9,96.55ZM57.5,382c-.57-.22-.73-.86-1.3-1.08C56.54,380.55,57.88,381,57.5,382Zm8.21,13.17a9.14,9.14,0,0,1-2.16,3.46c-.41.25-1.35.08-1.73.21-1.51.55-1.95,2.11-3.24,2.38.4-1.4-.59-2-.43-3,.19-1.22,2.21-2.86,2.38-4.53a4.08,4.08,0,0,0-.43-1.95c-.2-.5-.8-1.11-.86-1.51-.17-1,.49-2.39.21-3.89-.11-.63-.57-1.2-.65-1.73s.25-1,.22-1.51a5.65,5.65,0,0,0-3.24-4.54c.76-1.8-.61-3.53-.86-5.4-.5-3.62.94-6.84,1.73-9.72,1,2.92,2.72,5.67,2.81,9.5,0,1.27-.61,2.49-.43,3.89.21,1.7,1.7,3.33,2.38,5,.38.92.51,1.94.86,2.81A24.39,24.39,0,0,1,63.33,387c.25.91.29,1.83.65,2.81C64.46,391.1,66,393.19,65.71,395.2Z"/></g></g></svg>