<svg xmlns="http://www.w3.org/2000/svg" viewBox="0 0 193.26 422.01"><title>Asset 20</title><g id="Layer_2" data-name="Layer 2"><g id="Layer_1-2" data-name="Layer 1"><path d="M192.87,126.57c-.93-1.15-4.2.22-5.23.91-1.64,1.1-1.93,2.57-3.64,3,.25-8.37-.31-16.89.68-24.56.56-4.36,2.25-6.81,1.82-12.05s-1.65-10.24-3.87-14.1a27.48,27.48,0,0,0-8.19-8.87,28.34,28.34,0,0,0-3.87-2.5c-2.06-.87-4.19-.87-6.14-1.59a41.85,41.85,0,0,1-9.33-5c-1.16-.84-2.22-2-3.41-3s-2.6-1.58-3.64-2.5c-1.34-1.18-1.89-3.27-3.64-4.32,1.06-2.6,1.25-4.42,2-7.5a15.15,15.15,0,0,1,.68-2.5c.63-1.09,2.23-1.39,3-2.5s2.22-5.26,2-7.47a1.45,1.45,0,0,1,.24,0c.86-1.07.58-2.71.41-3.72.22-.51.84-.63,1.24-1a4.84,4.84,0,0,1,.14-1.38,3.91,3.91,0,0,0-1.24-.41c0-.4,0-.7.28-.83a1.49,1.49,0,0,0-.69-.83c.23-.55,1.36-1,.55-1.79a1.27,1.27,0,0,0,.83-1.66.9.9,0,0,0-.69-.14c.07-.31.27-.7,0-1a2.28,2.28,0,0,0-.83,0c0-.32,0-.64,0-1a5.72,5.72,0,0,1,1.13-1.7,10.36,10.36,0,0,0-.28-1.52h-1c-.14-.25-.16-.61-.34-.81a12.33,12.33,0,0,0-.78-2.51,1.22,1.22,0,0,1,0-.27H151a7.11,7.11,0,0,0-.45-.81c-.1-.16-.22-.31-.33-.46a1.43,1.43,0,0,0,.52-.52c-.27-.84-.87-1.34-1-2.34a4,4,0,0,1-1.52-.14c0-.32.22-.52.14-1-.44-.21-.61,0-1.1,0-.31-.2-.19-.82-.41-1.1a1,1,0,0,0-1,.14c-.22-.38-.3-.9-.55-1.24a4.74,4.74,0,0,0-1.38.41c-1.24-.09-.75-1.92-1.24-2.76a1.58,1.58,0,0,0-1.38.69c-.92-.36-2,.3-2.48-.55A2.52,2.52,0,0,1,135.57,0c-.86-.19-.94.71-1.38,1s-1.61-.17-2.07.69c-1.52.36-1.68-.37-2.62-.83-.5.88-1.52,1.24-2.26,1.87l-.34.09c-.38-.33-.57-.84-1.12-1-1.26.53-3.24.35-3.45,1.93a2.71,2.71,0,0,0-1.24.83,12.48,12.48,0,0,0-1.79-.28c.11,1.4-1.4,1.18-2.07,1.79,0,.5.59.52.69,1,0,.65-.66.72-1.1,1a2.7,2.7,0,0,1,.41.81l-.15.18a11,11,0,0,1-3.29,2.6c-.41,2-2.63,2.25-3.73,3.59-.07.44.69.05.55.55.68,0,.87-.42,1.52-.41,0,.5-.72.29-.55,1,.6.1.67.67,1.24.14-.28,1-1.14,1.53-1.52,2.48.16.2.12.62.55.55-.47.62-.06,1.25.53,1.63A15.42,15.42,0,0,0,111,24.67c-.06.35.31,1,.23,1.59,0-.17-.51,1.25-.65,1,.15.55.87.55.88,1.27,0,2.9-1.74,5-1.59,8,.06,1.13,1,3.62,1.14,4.78s-.12,2.22,0,3.41c.17,1.66,1.08,3.85,1.36,5.69.32,2.11.11,3.44.91,4.32s1.79,1.09,3.87,1.14c-3.41,1.44-5.18,4.31-8.19,5.69-2.26,1-4.84,1.28-6.82,1.82-4.81,1.3-8.35,2.6-12.05,5.23-3.1,2.2-6.5,5.44-8,9.55-.29.82-.14,1.75-.45,2.73s-1.06,1.73-1.37,2.73c-1.47,4.79-1.14,10.14-2,15.69-.43,2.68-1.15,5-1.36,7.73s-.35,5.59-.68,8.41c-.6,5.16-2.61,9.73-3.64,14.56-5-2-11.47-4.69-16.6-8.19-2.61-1.78-5-4.17-8.42-5.46-2.81-1.06-6-1.07-7.05,1.59-1.37-.56-2.39-1.78-3.64-2.5-2.49-1.44-6.4-2-10.46-3.18a29,29,0,0,1-4.78-2c-1.3-.64-4.18-2-5-1.37-2.05,1.67,1.84,5.19,3,5.91,1.77,1.14,4.88,1.29,5.23,3,.25,1.18-1.72,4.14-2.73,4.55-.61.25-2,0-2.73.23-2,.51-4.53,2.51-7.51,3.18-.67.15-1.6-.1-2.27,0-.89.13-1.73.79-2.5.91-1.51.23-2.94-.15-4.09.23a4.58,4.58,0,0,0-2.73,3c.12-.39.42.93-.23,1.37,2.81,1.24,5.89.28,9.1.68,1.88.23,3.77,1.22,5.69,1.36s4.83-.6,6.82-.45c.56,0,1,.48,1.59.45s1.12-.57,1.82-.68c2.27-.38,4-.45,6.14-.91.65-.14,7.09-2,8-1.59.38.17,1.19,2.57,1.59,3.18.81,1.23,2.22,2.13,3.64,3.41,7.14,6.45,15.86,12.08,23.43,18.19A23.89,23.89,0,0,0,76,159.32a34.57,34.57,0,0,0,3.64,1.36c1.92.17,4.62-1.28,7-1.14.35,1.68,1,3,.91,4.32-.09,1.09-.93,2-1.14,3A31.66,31.66,0,0,0,86,174.1a4.32,4.32,0,0,0,.23,1.14c.29.36.59-.25.68.46.27,2.17-.78,5.52-1.14,8.64-1.69,14.89-3.66,28.33-6.14,42.08-2.92,16.18-6.11,31.92-8.42,49.35-1.4,10.62-4,23.82-.68,34.12.29.88.91,1.86,1.36,3a31.74,31.74,0,0,0,3.41,6.37c3.78,5.49,9.13,10.81,14.1,15.69,4.08,4,8.34,7.94,12.28,11.6s7.52,8.31,11.83,12.28a84.31,84.31,0,0,0,10,8c1.19.79,3.26,1.72,3.64,2.27.56.82.81,3,1.14,4.55a15.64,15.64,0,0,1,.45,5.23c-.27,1.61-1.66,2.69-1.82,3.87-.12.87.64,2.16.46,3.18-.22,1.22-1.39,1.76-2,3-.75,1.36-1.18,3.31-1.82,4.09a24.44,24.44,0,0,1-2.73,2,20,20,0,0,1-4.09,2.5c-3.66,1.8-11.68,1.3-15.92,3.18a6,6,0,0,0-3.18,6.6c.12.5.64,1.08.68,1.59.1,1.17-.91,2-.45,3.18,4.94,3.12,13.61,5.24,21.38,5.46.79,0,2.45-.48,3.18-.23a9,9,0,0,1,1.59,1.82c.43.89.15,2.39.46,3a76.84,76.84,0,0,0,8.19-1.14,78.7,78.7,0,0,0,8-1.37c2.25-.65,4.2-2.36,6.14-2.73,2.25-.43,10.17.67,11.37-.91.72-.94-.05-3.63.23-5.23.12-.7.73-1.33.91-2.28s-.18-2.14,0-2.73c.28-.94,1.92-2.33,3-3.41.84-.87,2-3,3.18-3.19.9-.14.9.63,2,1.59,4-3.4,8-6.64,12.28-10.69.69-.65,3.39-3.34,3.41-4.09,0-1.3-2.62-3-3.41-4.55-.25-.49-.43-2.05-.68-2.5a19.81,19.81,0,0,0-3.64-3.64,20.77,20.77,0,0,0-4.09-3c.32-1.4,1.82-1.3,1.82-2.73s-3.05-3.66-3.87-4.78-1.64-3-2.73-4.78c-1-1.63-2.9-3.33-3.18-4.32-.49-1.73.1-4.83.23-7.5a208.25,208.25,0,0,0-.23-21.83c-.62-9.7-2-18.75-1.59-28,.28-6.27,0-12.14.23-18.42.89-21.2.59-41.77.46-61.41,2.77-.27,7.09.44,9.78-.23-.68-19-4.9-34.52-6.6-52.54,5,5.68,16.67,1.25,19.33-5.69a28.34,28.34,0,0,0,.91-3.87,30.36,30.36,0,0,0,.68-3.87c.1-2.54-1.52-5.52-.91-8,.42-1.68,3.52-3.67,3-5.46-.25-.81-1.62-1.12-2.5-1.37.28-2.71,1.95-3.43,3.87-5.23C191.08,131.15,194.4,128.45,192.87,126.57ZM117.36,299.19c-3-2.41-6.91-4.32-7.51-8.64-.32-2.28,1.14-6,2.28-8.87s2.31-5.7,3.18-8.41c2.14-6.67,2.53-13.31,4.55-18.88,0-.14,0-.27.23-.23.18,16.8,1.73,32.24,1.82,49.12C120.28,302.42,119.11,300.59,117.36,299.19Z"/></g></g></svg>