<svg xmlns="http://www.w3.org/2000/svg" viewBox="0 0 156.92 425.69"><title>Asset 21</title><g id="Layer_2" data-name="Layer 2"><g id="Layer_1-2" data-name="Layer 1"><path d="M156.16,411.76c-1.1-2.27-3.83-3.4-6.45-5.56-1.41-1.16-2.39-2.34-4-3.56s-2.84-2.8-4.23-3.56c-.52-1,2,.86,2.67,0-.11-2.9.22-5.61-.22-8.68-.3-2.11-1.23-4.34-1.33-6.45-.09-1.82.44-3.55.22-5.34-.34-2.73-2.07-4.57-2.67-7.35s-.15-6.33-.22-9.79c-.18-9.25-1.38-18.81-1.78-27.82-.27-6.15-.71-12.42-1.11-18.69s-.61-12.41-1.34-18.47c-1.33-11-3.13-22.94-4.45-35.16-.93-8.68-1.8-17.73-3.34-26.48-.49-2.8-1.61-7-1.34-8.46.14-.73.09-.18.67-.67a41.62,41.62,0,0,0,5.34-6.23,55,55,0,0,0,4.67-8c.72-1.33,1.14-3.42,2-4.23s2.14-.79,2.67-1.33c.14-.15.78-1.52,1.11-2.23a10.22,10.22,0,0,0,.67-1.11c.14-.38,0-1.21.22-1.56.74-1.19,2.1-1.27,2.67-2.67.87-2.16.44-7,.44-10.68,0-10.65,1.07-22.46.22-32.49a194.43,194.43,0,0,0-2.89-19.36,62.11,62.11,0,0,0-2.45-8.68c-1-2.84-1.4-5.9-2.45-8.46-.81-2-2.22-3.56-2.89-5.56a45.62,45.62,0,0,1-2-10.24,31.16,31.16,0,0,1,0-4.23c.45-6.83,1.49-13.72-1.11-19.81A25,25,0,0,0,125.22,69c-3.75-2.67-8.39-3.07-12.91-5.34a44.71,44.71,0,0,1-4.23-2.23c-1.61-1.07-2.93-2.62-4.45-3.78s-3.16-1.88-4.9-3.12c-.6-.42-1.44-1.37-2.45-2.23a21.66,21.66,0,0,1-2.45-2,16.77,16.77,0,0,1-.16-5.12,1.08,1.08,0,0,0,.31-.08c.07-.26-.16-.83.13-.89a.59.59,0,0,0,.38-.13c.67.22.81,1,1.52,1.14.2,0,.1-.32.38-.25-.25-1-1.15-1.38-1.14-2.66a1.5,1.5,0,0,0,.56-1.29,4.32,4.32,0,0,0,1.36-1,5.94,5.94,0,0,0,.89-1.41h.22a1.17,1.17,0,0,0-.11-.28A16.45,16.45,0,0,0,99,31.87c0-.25,0-.51,0-.76.3,0,.61,0,.75-.13a2.35,2.35,0,0,0-.13-1,1.45,1.45,0,0,0,.63-2.15c.32-.27.78-.4,1-.76a2.69,2.69,0,0,1-.63-1c.65-.31.68-.8.38-1.52a1.29,1.29,0,0,0,.76-2.15c.19-.23.65-.19.63-.63-.31-.49-.83-.77-1-1.39.24-.94.88-1.48.88-2.65a3.51,3.51,0,0,1-2.65-1.52c.47-.73-.64-.84-.51-1.64a7,7,0,0,1-1.9-.88c.29-.89,1.24-1.12,1.64-1.9-.47-.61-.24-1.05-.13-1.9-1.22-.55-1.64-1.9-3.29-2-.66-2.58-5.09-1.93-4.55-5.31C89.71,2,88.37,1.63,87.67.64c-.53.1-.82.44-1.39.51A1,1,0,0,0,85.4.9C84,1.83,80.84,2,79.45.9c-.46.25-.47,1-1.14,1C77.6,1.74,77.81.65,76.93.64c-.45.18-.41.85-1.14.76-.43-.24-.5-.85-.76-1.26-1.39-.6-1.37,1-2.4,1.14-.22.82.54,1.17.25,1.64-.63,0-.68-.59-1.39-.51-.47.39.27,1.09,0,1.26-.7-.18-.77.11-1.52.13-1-1-1.71-1.84-3.92-1.39-.21.8.4.78.38,1.39-.25.28-.92-.25-1.26.13s.36,1.64-.38,1.77a2.51,2.51,0,0,0-1.14-.25c-.2.3-.1.92-.51,1-.8-.21-.78.4-1.39.38-.56-.32-.74-1-1.64-1-.42,1.48.66,2,.89,3.41-1.1.38-2.48.47-3.29,1.14v.89c-1.1-.09-1.3.72-2.15.88,0,.8.84.76.76,1.64-.51,0-.7.23-1.26.13-.09.67-.09.91-.76,1.14.15.83.63,1.83.25,2.78a5.36,5.36,0,0,0,.76.5c-.06,1.08-.54,1.73-.51,2.91.26.4.83-.24,1,.13A7.85,7.85,0,0,0,55.69,23c.7.34.46,1.28.63,2.15s.62,1.07.63,1.9a1.58,1.58,0,0,0-.5,1.14c.25.8,1,.69,1.52,1-.25.42-.83.52-.88,1.14.19.36.94.15,1,.63-.12.55-.65.7-.89,1.14.29.63.81,1,1.14,1.64a7,7,0,0,0-1,2c2.12-.2,2.18,2,2.88,3.59,0,.45.06.89.1,1.29A6,6,0,0,0,60,42.62c.58.14,1,.38,1,1.14a1.83,1.83,0,0,0,.42,0c.13.25.26.51.38.8.42,1,.53,2.21.89,3.12,1.53,3.83,2.39,6.63,4.67,8.9-3.15,1.13-4.91,3.77-8.23,4.9-4.35,1.47-8.85,1.22-12.91,2.45a25.5,25.5,0,0,0-11.35,7.34,20.72,20.72,0,0,0-4.45,7.57,44.9,44.9,0,0,0-1.78,6.45,27.65,27.65,0,0,0,.22,8.23c.29,1.8,1,3.57,1.34,5.56a39,39,0,0,1,.22,9.35c-.37,5.89,0,11.63-1.11,16.69-.44,2-1.41,3.79-2,5.79s-1,4.39-1.56,6.45-1.22,4.3-1.56,6.23c-.21,1.19-.07,2.53-.22,3.34-.68,3.61-2.41,7.13-3.56,10.68a285.26,285.26,0,0,0-8.68,33.6,19.55,19.55,0,0,0,4.23,1.56c-1,1.7,0,2.93,0,4.23a26.19,26.19,0,0,1-1.11,5.34c-.88,3.42-1.56,6.75-2.67,10.24-.93,2.92-3.08,6.07,0,8.23a38.37,38.37,0,0,0-6.9,8.23,20.48,20.48,0,0,0-2.67,5.34c-.94,3.3-.94,7.3-1.11,11.13s.3,8-.45,11.79c-.15.79-.75,1.62-.89,2.45-.47,2.76.36,5.72,0,8.23.1.81,1.5.15,1.56.45C.48,277.73-.2,289,1.48,299.6c.5,3.14.51,8,3.12,8.68s9.82,1.16,13.13.23c2.13-.6,4.46-4,5.79-6.68a72.74,72.74,0,0,0,3.34-9.13c6.78-19.94-2-46.89.44-68.54.2-1.77,1.18-3.53,1.34-4.9a47.74,47.74,0,0,0-.22-8,46.09,46.09,0,0,0-.89-7.34c-.38-1.44-1.94-3.91-1.78-4.67,0,.14,1.39-1.45,1.56-1.56.79-.5,1.48-.24,2-.89s1-2.74,1.56-4.23c3.66-9.23,8.28-20,12.69-27.82-.92,14.1-3.28,29.49-4.9,44.29-.22,2-1,5.08-.67,6.23.36,1.33,1.95,1.41,2.89,2.45-5.93,23-7.86,48-12,72.77-3.61,21.52-6.31,43.3-8,66.32-.25,3.35.19,6.62,0,10s-2.34,6.24-2.67,10.46c-.18,2.33.49,5.37.45,8.23-.09,5.59-1.55,10.79,2.45,13.13a27.57,27.57,0,0,1-5.12,6.23c-3.3,3-6.93,4-7.34,9.79-.07,1,.4,2.31.45,3.56,0,1.48-.32,2.29.22,3.34,1.42,2.73,9.92,3.36,14.24,3.78a22.88,22.88,0,0,0,5.79.22,9.26,9.26,0,0,0,5.79-4.9c.35-.89.19-2,.44-2.89.2-.74.63-1.52.89-2.23s.43-1.44.67-2.22.72-1.36.89-2c.23-.91,0-1.79.22-2.67.28-1.1,1.16-2.66,1.56-4.23s.36-3.51.89-4.45,1.86-1.28,2.45-2c1.62-2,3-6,4-8.9,1.09-3.25,2.9-6.67,3.12-9.79.11-1.55-.46-3-.45-4.45s.54-3,.67-4.67c.08-1-.17-2.26,0-3.34.21-1.33,1.18-2.42,1.56-3.78.81-2.93,1-6.16,1.56-9.35,1.65-8.87,3.57-18,5.34-27.15,2.35-12.09,4.49-24.41,6.68-36.5,2.14-11.82,5.36-23.72,7.79-35.39,1.89-9.09,3.8-18,5.56-26.93,1.1-5.59.6-10.87,4.23-14,3.24,2.88,2.85,8.31,3.78,14,1.59,9.76,3.1,19.75,4.9,29.6,2.35,12.92,5.07,26,6.9,38.95,3.42,24.12,5.55,48,9.35,71.22.51,3.14,1.87,6.12,2.23,9.12.44,3.7.19,7.25.89,10.46.26,1.18,1.16,2.34,1.56,3.56s.41,2.83.89,4a5.53,5.53,0,0,0,1.11,1.56,5.44,5.44,0,0,1,1.11,1.56c.44,1.58-.13,3.48,0,4.9.07.79.55,1.47.67,2.45.46,3.81-1,4.77,2,6.68a10.24,10.24,0,0,0,2.23,1.33c1,.21,2.22-.53,3.34-.22,1.71.48,2.36,3.62,3.78,4.9a43.57,43.57,0,0,0,4.45,2.67c3.93,2.35,7.64,2.93,14.24,3.11,2,.05,8.25.25,9.35-.89.49-.51.5-2.54.67-3.56C157,416.56,157.15,413.82,156.16,411.76Zm-33.6-255c2.92,8.05,4.24,18.33,5.34,28.26.38,3.4,1.27,6.63,1.56,9.79a21.78,21.78,0,0,0,0,2.45c.24,1.05,1,1.09.89,2-1.09.25-1.83.84-2.89,1.11C126.17,185.59,122.09,172.46,122.55,156.72Z"/></g></g></svg>