<svg xmlns="http://www.w3.org/2000/svg" viewBox="0 0 126.38 408.23"><title>Asset 22</title><g id="Layer_2" data-name="Layer 2"><g id="Layer_1-2" data-name="Layer 1"><path d="M126.35,91.83c-.28-3.76-2.95-5.52-5.46-7.64-3.46-2.92-6.71-5.47-9.81-8.51-1.62-1.58-3.54-2.87-4.8-4.36L106,71l.05-.12c.51-1.5-.53-2-1.64-2.45-.78-1.46-1.48-3-2.14-4.07a5.5,5.5,0,0,0-2.1-3.82c-1.93-1.6-.18-3.57-.81-5.69,2.8,1.29,4.63-3.51,2.13-4.91-.6.42-.11,1.71-.79,2.38-1.85,1.82-2.35-.21-3.42-1.57-1.24-1.58-.93-3-1.89-4.71-1.18-2.07-.84-2.23-1.06-4.61q1.32.38,2.66.68c-.44,1.21-1.09,2.24-1,3.59.71.07,3.29-.36,3.05-1.53a10.61,10.61,0,0,0-1.76.38c1.46-3.29-.4-3-2.56-4.67-1.36-1.81.88-4.2-.91-5.75a3.43,3.43,0,0,0-3-.46C89.58,33,89.23,32,88.4,31a12.34,12.34,0,0,0-1.45-3.31c-.64-.91-1.79-1.13-2.25-2.18,2.48-.09,3-4.43.31-3.93-.32.72.91.68.29,1.74A1.4,1.4,0,0,1,83,23.1c-1.17-2.18,0-3.93-2.82-4.82-1.53-.48-2.13-2.22-3.61-2.94-2.37-1.15-2-.56-3.08-3a7.5,7.5,0,0,0-2.73-3.11c-1.65-1.07-2.09-2.37-2.79-4.13C66.76,2.2,63.68,1.89,61.2.83A10.33,10.33,0,0,0,53.33.73c-1.69.63-2.45-.18-4,0-.76.1-3.5.82-3.79,1.28C44.88,3.09,43,2.62,42,3.79s-2.94.9-4.56,1.66C36.2,6,34.22,6.84,34.72,8.4c.76,2.37.3,1.94-1.42,3.83-.07,1.23-1.18,1.87-1.69,2.89a2.45,2.45,0,0,0-.07,1.94,1.88,1.88,0,0,0-1.47,1.6c-.8,3.34-1.8,6.91-1,10.45-.53,1.64-2.44,1.91-2.65,3.73s.85,3.77,1.36,5.53c-.85,2.91-4.44,3.72-1.9,6.89,1,1.3-1,2.55-1.65,3.83a8.9,8.9,0,0,0-.85,5c.3,2.24,1.24,2.37-.44,4.08a2.4,2.4,0,0,0-.42,3.36c.72,1,1.85,1.79,1.06,3.09-.34.56-.79,1.62-1.24,2.45-.33.27-.65.55-1,.84-.57-.41-.86-1.17-1.73-1.06a2,2,0,0,0,.85,2,9,9,0,0,0-1,1.33,41.77,41.77,0,0,0-1.53,3.93,22.58,22.58,0,0,0-1.53,3.93c-.18,1.36.36,3.21.44,5,.72,17-5.87,28-4.58,47.12a309,309,0,0,1,0,34.25c-.14,3-1,9.57,0,11.34.57,1,2.08.44,2.62,1.74s-.37,4.52-.65,6.11c-.81,4.44-1.37,6.88-2.4,11.12-.43,1.77-1.25,4-.87,5.45s2.19,2.07,3.27,3.71a21.39,21.39,0,0,1,1.53,3.71c0,.62-1,1.58-1.31,2.4-.27.65-.48,2.29-.87,2.62a19,19,0,0,1-2.62.66c-2.45.62-6.42,1.4-7,3.05s.6,4.91.65,7c.13,4.84-.94,10-1.53,15.05C1.73,250.37-.33,263.33,0,276.82c.08,3,0,6.4.87,7.64C2,286,5.23,286,7.46,286.2a29.47,29.47,0,0,0,6.54.22,19,19,0,0,0,4.58-2c3.9-2.1,8.86-6.16,11.56-7.64.25,3.13,1.64,6,1.53,8.95A22.73,22.73,0,0,1,30.37,291c-.54,1.75-1.2,3.37-1.53,5-2.48,12.39-.86,24.4,2,35.78.87,3.5,1.48,7.21,2.4,10.91,1.82,7.33,3.4,14.08,5.24,21.38.9,3.59,2.27,7.57,2.4,10.91s-1.84,7-1.31,10.25c.21,1.29,1.19,2.44,1.53,3.71-1.59,1.15-2.16,2.9-2.84,4.8-.23.64-.58,1.25-.87,2-.6,1.45-.69,3.44-1.31,4.15s-1.52.43-2.18.87c-1.34.9-2.53,3.16-1.31,5-.56.4-1.1.93-.65,1.74,2.94,1.06,7,.66,10.91.66s8.16.32,11.34-.43c.42-1.17-.85-1.57-.87-2.62,0-.81.7-1.49.65-2.4-.08-1.72-1.57-3.14-1.31-5.23,4.28-.78,7.21-2.79,8.51-6.11a12.32,12.32,0,0,0,.65-7.2A16.31,16.31,0,0,0,60,381.32c-.16-.29-.27-.8-.44-1.09-.75-1.29-2.42-2.52-2.62-3.71-.05-.32.34-.58.44-1.09.48-2.55-.95-3.84-1.31-5.67-.25-1.28-.18-3-.44-4.36s-1-2.82-1.09-3.92c0-.4.39-1.09.44-1.53.29-3-1-5.3-.65-7.85.26-2,1.4-4.26,2.18-6.33,4.06-10.78,7.88-20.56,11.13-31.85,1.28-4.44,3-9.08,3.27-14a93.3,93.3,0,0,0,0-12.44c-.14-1.89-1.18-4.25-1.09-7,.07-2,2-9.09,3.05-9.6.62-.28,2.95-.11,4.36-.22s3-.21,4.36-.44c2.49-.42,6.19-.79,7.2-2.4.62-1,.69-4.82.87-6.33,1.89-15.16,4.79-28.87,6.55-43.63.16-1.37-.1-2.85.22-3.71.52-1.39,2.08-1.89,2.84-3.06,1.29-2,1.74-5.21,2.18-8.51,1.36-10.08,1.2-20.88-1.09-30.32-1.38-5.7-3.78-11.12-5.45-16.8-.2-.66-.18-1.72-.44-2.4-.34-.88-1-1.11-1.31-2a27.59,27.59,0,0,1-.87-5.89c-1.42-15.08,0-31.51.44-45.81,3.25.44,6.4,1.24,9.6,2,6.17,1.39,16.13,4.38,20.72-.22A14.27,14.27,0,0,0,126.35,91.83ZM101.12,53.16c.14.44-.25.58-.57.51C100.58,53.39,100.73,53.2,101.12,53.16ZM22.82,59.93c.07-.32,0-.72.51-.79C23.23,59.46,23.16,59.78,22.82,59.93ZM18.59,211.6a9.07,9.07,0,0,0-3.05.66c-.52-1,.6-2.15.65-3.27.93.16,1,1.23,2.4.87Zm14,192.63a1.39,1.39,0,0,0,1.09,1.31C32.88,407,32,403.92,32.55,404.23Zm4.8-5c0-.52-.39-1-.22-1.53,0-.09.33.36.22.43.49-.33.69-1.46,1.31-2C38.8,396.89,37.69,398.24,37.35,399.21ZM92.59,40.5c-.07-.31.42-.09,0,0Zm0,2.41a6.78,6.78,0,0,1,.07-1.47A1.24,1.24,0,0,1,92.62,42.91Zm-1.36-8c3,.62,2,1.74,1.8,4.27a4.52,4.52,0,0,1-2.41-1.32,9.19,9.19,0,0,0-2-4.18A7.6,7.6,0,0,0,91.26,34.87ZM89.51,37c-1.05.33-1.31-1.13-1.31-2C89.06,34.93,89.49,36.15,89.51,37ZM87,30q.39.74-.4.37C86.57,30.26,86.8,29.43,87,30Zm-1,1.47c0-.39.19.34,0,0Zm-4.28-7.29C80,24.11,80.15,21.63,79.94,20,81.59,20,81.17,22.65,81.71,24.19Zm-4.63-7.12c-.37.21-1-.18-1.36-.48A4.49,4.49,0,0,1,77.08,17.07Zm-2-1.3c-.24,0-.56.12-.61-.16C74.72,15.54,75,15.42,75.06,15.76ZM28.41,37.06a2.07,2.07,0,0,1,1.3,1.55l-1.25.46A12.68,12.68,0,0,0,28.41,37.06Zm1.7-2.88c.53,1.28,2.31,3.79.35,4.76C30.5,37.47,26.82,35,30.11,34.18ZM46.73,2.36c.15.26-.17.21-.33.26C46.39,2.45,46.51,2.38,46.73,2.36ZM36.78,7.79c.44.15.16,1-.24,1.12C36.36,8.37,36.72,8.18,36.78,7.79Zm-1-.08c0-.39.19.34,0,0Zm.85,3.49a6.09,6.09,0,0,1-2.41.91C34.47,11.5,36.45,9.76,36.65,11.21ZM33.5,13.63c1.9.71-.15,1.38-.56,1ZM32,18c-.1.45-.52,1.07-1.15.93C30.79,18.36,31.51,17.93,32,18Zm-1.19,4.8a.58.58,0,0,1-.12.8Q30.17,22.81,30.84,22.81Zm-1,1.67c.19.26.27.7-.12.8C29.55,25.12,29.56,24.57,29.85,24.47Zm-.26,6a2.94,2.94,0,0,1,.64,2.08C29.51,32.49,28.87,30.88,29.59,30.43Zm-1.52,1c2.45,2,.32,2.07-.2,4C27,34.52,26.88,32.19,28.07,31.43ZM26.3,41.58c.56,1.18,1.75,2.88,1,3.93C26,44.89,25,42.73,26.3,41.58Zm1.9,2.73c-.59-2.38-1.58-4.21,1.71-4.86.28.2-.61,1.26-.64,1.49-.22,1.5.88,2.5,1.49,3.74-.69,1.89-2.94,2.86-4.63,3.61C27,46.87,28.65,46.18,28.19,44.31ZM25.89,55.79c-.83-1.22-1.94-2.66-.2-3.63C26.59,52.78,27.63,55.51,25.89,55.79Zm-.64-6.53c1.43.92-.14,2.52-1.14,2.76A3.35,3.35,0,0,1,25.25,49.25ZM23.9,60.47a1.59,1.59,0,0,1,.93,1.64C24.36,61.88,23.52,61.24,23.9,60.47Zm6.47,85.47c-.21-5.74,1-12,1.31-17.89A65.19,65.19,0,0,1,30.37,145.94ZM52.62,280.1c-.13,1.17-1.22,2.33-1.74,3.49a19.62,19.62,0,0,0-1.31,3.71c.16-3.92,1.59-8.44,2.18-12.65C51.71,276.82,52.82,278.39,52.62,280.1Zm2.84,89.22c-.53-2.16-2.26-4.95-1.31-7.2C55.38,363.72,55,366.9,55.46,369.32Z"/></g></g></svg>