<svg xmlns="http://www.w3.org/2000/svg" viewBox="0 0 106.09 424.54"><title>Asset 23</title><g id="Layer_2" data-name="Layer 2"><g id="Layer_1-2" data-name="Layer 1"><path d="M105.37,125.81a12.85,12.85,0,0,0-1.4-4c-1.7-2.7-6.83-6.92-9.77-9.77-.55-.54-.83-1.26-1.39-1.86s-1.36-.86-1.86-1.4c-1-1.06-1.39-2.56-2.32-3.49-1.12-1.12-2.33-1.38-3.26-2.33-1.28-1.3-2.23-3.44-3.49-5.58s-3.44-4-4-5.82c-1.83-6.43-2.46-13.73-5.82-17.68-1.33-1.56-4.5-3.47-6.75-4.89-1-.6-2.29-1.32-3.72-2.09-1.15-.62-3.14-1.5-3.49-2.09s-.21-1.78-.46-2.56a12.59,12.59,0,0,0-1.4-2.56,6.47,6.47,0,0,0,1.4-2.09c1.83,0,3.63,1.33,5.35.7,1.21-.45,1.77-2.55,2.56-4.19.6-1.24,1.83-2.5,2.56-4,.53-1.05.52-2.34.93-3.26,1-2.25,3-3.61,3.26-6.51.2-1.94-.49-3.38,0-4.65a1.58,1.58,0,0,1,1.86-1.16c-.93-2.38.15-2.57.24-4.65.06-1.51-.46-3.17-.47-4.65,0-1.11.1-2.21.19-3.31l.08,0a.77.77,0,0,0,0-.64c0-.46.06-.92.07-1.37.35,0,.67,0,.79-.32.46.07,1.2.44,1.27-.21-.44-.56-1.38-.69-2.12-1,0-.06,0-.11,0-.17s-.05-.41-.09-.61a6.61,6.61,0,0,0,1.48-4.44c-.12,0-.18,0-.22.09-.18,0-.22.08-.11.1-.5.58-.75,2.13-1.43,2.93-.09-.34-.19-.68-.3-1a7.53,7.53,0,0,0,0-2.27c-.39,0-.53.21-.76.35a16.52,16.52,0,0,1,.32-5.09c-1.13.29-1.18,2.15-1.44,3.3A17.41,17.41,0,0,0,70.27,10c-.06-1.79,1.36-3.38,1.51-4.84-1.24.39-1.27,2.22-2.13,3.06a19.54,19.54,0,0,1-.8-2.89c.08-.56.83-.31.81-1-.75-.38-1.44.26-2.12.34-.47-.64-1.31-.26-1.69.17-.34-.1-.51-.34-1-.29a9.86,9.86,0,0,1,1.64-3.31c-1.51-.15-1.65,2.31-3,2.67-.46.1-.35-.28-.6-.36-.68.09-1.18.4-1.89.46l0,0c-.21-.29.46-.54.2-.9a3.31,3.31,0,0,0-1.75.43c-.42-.11-.84-.22-1.26-.31a.69.69,0,0,0,.11-.47A1.52,1.52,0,0,0,56.91,3l-1-.15c.59-1,1.88-1.6,2.34-2.8-1.4-.16-2,1.63-3.39,1.81-.25-.11.25-.53,0-.73-1.52.3-2,1.82-4.18,1.32-.61-.27-.07-1.17-.4-1.5-.45,0-.6.35-.79.67a2.55,2.55,0,0,0-2.46.73C46.3,2,46.33.93,45.7,1c-.31.12-.31.62-.59.79-.57-.39-.88.16-1.09.54-.38,0-.49-.23-.81-.28-.45,2-3.6.76-4.47,2.24.34-.06.12.35.28.44.89.14,1.34-.24,2-.35C40.37,6,36.66,5,35.33,6.25c.1.32-.14.63.36.76A11.53,11.53,0,0,1,32.21,8.6a7.77,7.77,0,0,1-1.52,2c.75,1.48-1.26,2.21-.73,3.7.29.11.28-.12.53-.06-.8,1.42-2,3.11-1.78,5.08-.73,2.25-2.46,5.09-1.25,7.42.35,0,.25-.46.47-.59,1.2,4,.53,9.51,3.49,12a12.71,12.71,0,0,0,1.72,3.17,4.07,4.07,0,0,0,.45,2A8.6,8.6,0,0,1,33,46.7c-.46.85-2,1.69-2.79,2.33a14.27,14.27,0,0,1-1.4,1.16c-.57.32-1.34.29-1.86.7a14.89,14.89,0,0,0-1.86,2.33c-.64.81-1.06,1.91-1.63,2.56a27.19,27.19,0,0,1-3.72,3c-3.82,2.94-7.26,5.68-10.24,9.77C5.68,73.86,2.92,82,2.54,92.3a24.77,24.77,0,0,1,0,3.49c-.15.8-.85.91-.93,1.86a20,20,0,0,0,.7,4c.6,3.45,1.81,7.82,2.1,11.4.17,2.16-.14,4.41,0,6.51.28,4.24,1.55,8.12,1.86,12.1a106.54,106.54,0,0,1,0,21.4c-.81,6.62-1.68,13.2-2.79,20C1.3,186.35-.67,200,.22,214.91a26.75,26.75,0,0,0,9.07,1.63c1.06,6.67,1.08,13.37,1.4,20,.32,6.85.43,13.72.7,20.47.55,13.73,2.19,27.23,1.4,40.71-.37,6.25-2,12.32-3,18.38s-2.43,12-3,18.15C6.1,340.84,6,347.54,5.33,354S3.7,366.81,3.24,373.11c-.24,3.32.45,6.41.23,9.3-.13,1.72-1.13,3.42-1.4,5.59s-.67,10.43.23,12.33c.58,1.21,1.6,1.34,3.49,1.63-.56,3.15-1.92,6-1.86,9.07,0,1,.44,2,.47,3,0,1.84-.68,3.6-.47,5.58a39.64,39.64,0,0,0,5.82,1.16c1.75.24,6.13,1.2,7,.46.36-.31.08-.27.7-.46a18.09,18.09,0,0,1,5.58-.47c1.66.24,4.06,2,6,2.56a66.53,66.53,0,0,0,8.38,1.16c9,1.07,17.64.23,26.29-1.4.36-1.13-.39-2.09-.23-3,0-.18.7-1.22.93-1.86A6,6,0,0,0,62.8,411c3-.6,6.51-.62,9.07-1.63-.1-3.56,2.39-7.77-.7-10.47s-12.54-2-17.45-3.26c-3.38-.85-4.6-2.77-6.75-3.72-.27-.91,1.45-.74,1.16-2.09-.16-.79-1.92-1.14-2.56-1.63a5.45,5.45,0,0,1-1.86-2.33c-.21-1.13,1-3,.93-4.65-.09-2.07-1.78-3.91-1.63-6.51.14-2.45,2.05-5.67,3.26-8.84a168.34,168.34,0,0,0,8.14-28.15c1.25-6.68,2.56-13.6,3.72-20.48s2.83-13.37,4-20c1.17-6.91,2.48-13.78,3.72-20.47.64-3.45,1.14-6.91,1.86-10.24s1.83-6.37,2.56-9.54c2.1-9.12,3.77-20.47,5.35-30.94.25-1.64,1-9,1.86-10,.69-.77,1.23-.12,3-.93-1.76-10.36-4-24-3.49-36.53.07-1.57-.31-3.51,0-5.12.21-1.08,1.19-2,1.39-3.26a21.09,21.09,0,0,0,0-7.21,1.77,1.77,0,0,0-1.16-1.4c0-4,2-8.53,2.33-12.79.11-1.31-.27-2.75,0-4,.39-1.74,2.22-2.56,2.79-4,.87-.54,0,.4.47.7.72.09,1.91-2.93,2.56-3,.21,0,2.45,1.62,3.26,2.09,4.06,2.39,10.42,3.88,14.42,0C106.23,137.62,106.75,131.13,105.37,125.81ZM30.79,35.64A3.15,3.15,0,0,1,30.07,33c.13,0,.15-.12.32-.08C30.45,33.82,31,34.79,30.79,35.64ZM68.1,5.43a14,14,0,0,0,.13,2.2c-.81-.25-1.08-1-2-1.11A2.67,2.67,0,0,1,68.1,5.43Z"/></g></g></svg>