<svg xmlns="http://www.w3.org/2000/svg" viewBox="0 0 137.94 403.65"><title>Asset 24</title><g id="Layer_2" data-name="Layer 2"><g id="Layer_1-2" data-name="Layer 1"><path d="M135.55,112c-.14-1.49-1-3.21-1.24-4.93-.51-3.42-.94-6.86-1.35-10.29.41.32.83.62,1.27.89a20.11,20.11,0,0,1-1.4-2q-.23-1.89-.45-3.76c.66.49,1.29.94,1.62,1.24-.6-.88-1.2-1.81-1.8-2.76-.43-3.62-.88-7.2-1.4-10.73a35.33,35.33,0,0,0,4.59,3.08c-1.62-1.87-3.38-3.59-5-5.5-.17-1-.33-2.07-.52-3.09,0-.27-.09-.55-.13-.83a.49.49,0,0,0,.13,0l-.15-.12c-.07-.49-.14-1-.21-1.47a14,14,0,0,0,1.53.77A17,17,0,0,0,137.94,74a25.78,25.78,0,0,1-8.78-4.74l-.09-.07a4.91,4.91,0,0,0-.17-.49,25.92,25.92,0,0,0-2.51-3.35,1,1,0,0,1,0-.12c.52,0,.54.41,1,.46-.2-.48-.95-1.26-.36-1.75.63,0,1.07.92,1.65.55-.58-.19-.84-1.19-.07-1.38-2.37-2-3.22-5.42-5.66-7.41-.55-.45-1.35-.48-1.56-1.31.92-.58,3.33,0,4.2-.08-1.7-1.16-4.3-2.34-5-4,1.69.12,3,1.31,4.67,1-2.92-2.08-5.9-4.07-7.43-7.58.46-.43,1.3.21,1.63-.08-1.13-2.42-1.9-5-3.34-7.15-.71-1.06-1.46-2.05-2.18-3s-2.1-1.88-1.91-2.93c1.83.28,3,2,4.32,2.31a28.73,28.73,0,0,1-7-9.11c-1.08-2.3-1.94-4.74-2.93-7.17C103.74,9.84,99.65,4.69,93,1.86,91.32,1.14,89.34.05,87.21,0c-3-.07-6.4,1.17-8.34,1.42-.45,0,.38-.62-.3-.49a12.66,12.66,0,0,0-5.5,1.28c-2.76,1.38-5.39,7.57-6.26,10.65C65.65,17,64.31,21,63.91,25.23c-.52,5.46-1,10.38-2.92,15.15s-4.18,9-4.35,13.58A14.32,14.32,0,0,0,62.52,65.9c-.68-.92-1.59-2-2.28-3.06a13.4,13.4,0,0,1-1.11-2.32c-1.78-3.94.39-8.24,1.34-11.29.27,0,.94-1.54,1.21-1.55a12.12,12.12,0,0,0,.39,3.74c.94,3.3.31,7.68,1.11,11.42a18.79,18.79,0,0,0,2.91,6.79c-.22-.38-.2-.87.36-.9,1.65,1.06,2.83,3,4.35,4.2-1.19,2.61-2.36,4.7-3.48,6.91-.63,1.24-1.15,2.55-1.84,3.79a57.13,57.13,0,0,1-4.39,6.65A35,35,0,0,0,57,97.4c-1.73,4.46-.74,9.47,1.11,14.12-5.61-.37-11.44-.51-16.5-1.45-1.23,2.29-.33,6.66-1.3,9.2-2.28-.07-2.26-2.49-3.35-4.43-.71-1.27-2.6-3.33-3.81-3.72s-2.78,0-3.77-.19a26,26,0,0,1-5.45-2.52c-1.81-1.19-3.25-4.72-5.46-3.94-1.29.46-1.17,2.15-.9,3.31a5.07,5.07,0,0,0,2.15,2.8c2.17,1.68,4.06,2.4,5.24,4.41-2.24.78-4.45-.53-6.6-.39-1,.06-2,.8-3,1a29.63,29.63,0,0,1-4.94.3c-3.73,0-7.72-2.07-9.88.83-.38,1.14,1.47.61.72,1.4A2.4,2.4,0,0,0,0,119.52a9.21,9.21,0,0,0,3.31.9c-.57.8.53,1.06.72,1.17.84.48,2.42.79,3.78,1.37a33.21,33.21,0,0,0,3.79,1.6c1.61.42,3.42.28,5,.88,1.32.51,2.37,1.66,3.79,1.84,1.23.15,2.55-.29,3.77-.28,1.69,0,3.69.31,5.65.4,4.84.22,8.28.43,11.09,2,.45,3.08,3.43,3.1,6.87,3.45,5.16.52,11.23.84,15.56,1.46-.62,1.74-.43,3.67-.88,5.43a25.89,25.89,0,0,1-1.59,4.49c-.3.49-.8.59-1.17,1-1.34,1.35-2,4.09-2.51,6.39A48.72,48.72,0,0,0,56,157.22c0,.62.47,1.5.5,2.11a31.56,31.56,0,0,1-.66,4c-1.27,10.18-2.56,20-3.16,30.42-1.21,20.95,3.93,45.91,1.75,66.39A31.59,31.59,0,0,0,63,262.64a64.92,64.92,0,0,0-1.27,11.79c0,1.44.53,3,.29,4.47-.2,1.23-1.17,2.58-1.84,4-2,4.36-4.1,8.16-5.5,12.78-1.9,6.31-2.56,12.77-3,21-.65,11.24-2.34,21.63-3.85,32.3-.48,3.38-.79,8.66-2,10.15s-3.17.81-4,2.64a13.43,13.43,0,0,0-.21,2.12,7.32,7.32,0,0,1-.9,3.3,21.14,21.14,0,0,0-1.81,5.67c-.14,1.26.32,2.76.05,4.24a13.65,13.65,0,0,1-1.61,3.32c-1.35,2.15-2.67,3-3.71,4.52A9.55,9.55,0,0,0,32,390.41c.06,1.37.85,2.43,1.46,4,.67,1.72.86,3.27,1.46,4,.78.95,3.83,2.69,5.46,3.47,2.65,1.27,7,2.34,10.62,1.52,1.94-3.79,3.51-7.43,2.9-13.46-.53-.9-1.44-.69-1.9-1.39a6.61,6.61,0,0,1-.52-3.76c.28-3,2.24-6.28,3.18-9.93s2.21-7.91,2-11.33c-.11-1.49-1-2.83-1-4,0-1.44,1.58-4.34,2.51-6.39s2.19-4.43,3-6.16c5.79-12.56,11-26.43,15.78-38.58,2.18,10.92,4.87,24.27,7.26,35.47,1,4.77,3,10.93,1.59,14.58-.58,1.48-1.74,1.33-1.61,3.32.06.94.58.8,1,1.64,1.27,2.8-.21,6.54-.35,10.13-.06,1.62.27,3.33.06,4.71-.41,2.57-2.93,4.05-3.22,6.16-.54.41-1.81.1-2.11.73-.87,4.07-2,9.69-1,14.14a20.14,20.14,0,0,0,10.6.58c1-.19,2.14-1.17,3.28-1.69,3.65-1.67,4.17-1.71,6.06-5.25,1.16-2.18,2.57-4.64,1.79-7.56-.25-.92-.81-.56-1.19-.93-.11-.1.06-.57,0-.71-1.54-3.33,1-6,1.3-9a22.48,22.48,0,0,0-.05-4.24c-.25-2.71-1.71-5.31-1.74-7.75,0-1.21.88-2.16.43-3.3-.6-1.54-2.53-1.13-3.33-2.79-.64-1.32-.2-4.16-.08-7.06.53-13.07,1.48-23.53,2.87-34.89.54-4.44,1.43-9.18,1.24-13.91a66.47,66.47,0,0,0-5-21.84c-.7-1.57-2-3.06-2.18-4.68-.19-1.94.41-2.41.66-4.25,1.61-.24,2.66,1.16,3.54.9a47.76,47.76,0,0,1,1.56-7.08c3.39.66,5.43-.77,8-2.22,1.67-.95,3.74-2.1,4-3.34,0-.25-.34-1.69-.5-2.58A135.65,135.65,0,0,1,107.37,235c0-6.2,2.24-10.21,3.82-14.88,3.44-10.15,7.71-20.64,9-31.9,1.35-11.43-2-22.58-6-30.54-1.49-3-4.34-6.77-4.37-10.78,0-6.07,3.86-11.39,5-17,3.37.66,7.64,3.36,11.56,1.74,2.52-1,4.56-4.61,6.75-6.2.89-.64,2.28-.9,2.57-1.68.48-1.28-.2-5.07-.33-7.77C135.28,114.3,135.64,113,135.55,112ZM40.08,374.77c-1.11-2.92.83-6.54,1.78-9,.21.1.42.2.47.46A36.28,36.28,0,0,1,40.08,374.77Zm13.43,1c-.08-2,.34-5.56,1.32-7.31C55,370.59,54,373.58,53.51,375.78Zm45.88-3.38a9,9,0,0,1-.4,5.66C98.39,376.39,99.43,374.31,99.39,372.4Zm-13-.31c-.67-1.44.29-3.28.17-4.95C87.36,368.65,86.47,370.57,86.44,372.09Z"/></g></g></svg>