<svg xmlns="http://www.w3.org/2000/svg" viewBox="0 0 143.01 411.76"><title>Asset 25</title><g id="Layer_2" data-name="Layer 2"><g id="Layer_1-2" data-name="Layer 1"><path d="M143,113.37c-.16-1-1.79-3.29-2.67-4.85-5.76-10.22-13.16-18-17.22-28.87-.69-1.85-1.06-4-1.94-5.82-.36-.75-1.47-1.67-2.18-2.67-2.06-2.91-2-3.18-5.09-4.85a34.52,34.52,0,0,0-3.15-1.7c-2-.77-4.33-.87-6.31-1.7A13.34,13.34,0,0,1,101,60.76a2.43,2.43,0,0,0-.21-2.34c-.43-.56-1.72-1.44-1.12-2.33a9.16,9.16,0,0,0,2.59,1.64c1.9,1.08.11,1.95.59,3.17,1.63-.11,1.57-2.43.81-3.35-1-1.22-4.27-2-1.62-3.71.69,1.24,2.31,1.41,3.57,1.48a4.94,4.94,0,0,1,1.17-2c1.26-1.48-.11-1.67,0-3.42-.94-1.08-1.23-2.7-2.65-3.08,2.11.51,2.64-4.89,2.35-4.82s-2,5-2.94,2c.68-1.59,2.74-2.7,1.92-4.6-1.14-2.63-7.94-3.27-5.71-6.82,1.94,1,3.88-.35,4.84,1.89,1.27,3-1.13,1.06-1.93,1.1.76,2.73,3.36,1.23,3.53-.88a3.3,3.3,0,0,0-4-3.61c-2.64-1.33,1.18-3.2-.69-4.91-.9-.82.85-6.5-3.74-4.64.13-1.4,1.72-1,1.73-2.3a2.59,2.59,0,0,1-1.47.17c2.77-3.47-1.38-2.86-3.37-3a5,5,0,0,1,0-1.47,16.09,16.09,0,0,1-1.93,0c-.2-1,0-2-.25-3.1-.43-1.56-1.55-2.41-2.19-3.41a1.93,1.93,0,0,0-.44-1.54C88,6.87,88.75,6.6,88,5.21c-.46-.86-3.12-.8-4.12-.89-2-.17-1.3-1.85-3.42-2.32a1.34,1.34,0,0,1-1.58-.71c-.5-.93-1.32-.11-2-.43-.58,0-1.33-1-2.23-.85a16.32,16.32,0,0,1-3,.37c-1.53.56-.57,1.47-2.56,1.18C66,1.11,63.88,4,60.79,4.28a1.66,1.66,0,0,0-1.67.88c-.88,1.13-1.43.81-2.32,1.76A4,4,0,0,0,56,8.43,1.68,1.68,0,0,0,54.23,10c-.13,1.37,0,2.36-.08,3.66-.69,2-1.91,1.71-3.36,2.83-1.13.87-1.43,2.51-1.6,3.7-.2,1.38-1.24.58-1.54,1.8.3,1.19,1.55,1.45,2.06,2.48-.5.68-1.49.58-2.08,1.14-1,1,1.27,2,1.36,3a3.21,3.21,0,0,1-2.21-.07c-.17,1.38,2.36,1.37,3.08.86-.83,1.55-.08,2.8,1,3.08-.32-1.39-.89-2.58,1.15-2.73a4.22,4.22,0,0,0,.38,2.1c-2.8-.07.18,3-.79,4s.22,1.34-1.35,1.92c-1.92.71.27,2.41.66,3.36-4-.83-.81,4.11.25,5.05,1,2-4.45,4.34-3.54,1-2.35.38,1.84,5.91,2.48,3.65-.94-.47-1-.41,0-1.11.18,1.69,1.32,2.6,2.57,3.56-.82,1.17-3.36.37-3.68,2-.22,2.8,1.35,3.5,2.43,4.48a3.52,3.52,0,0,1-.57-2.18,15.49,15.49,0,0,1,3,.77c-.19.65-1.36.94-1.2,1.72,1.57.24,1.28-1.32,2.37-.39.64-.25,5.2-4.48,3.71-.44-1.23,3.31-1.35.48-1.7.16-1.38-.19-1.69,2.05-.72,2.78a25.56,25.56,0,0,0-2.88,1.37c-.65.42-.75,1-1.21,1.21-2,1-4.34,1-6.07,1.94a28.7,28.7,0,0,0-2.91,2.43c-1.17.91-2.32,1.47-2.91,2.43a30.21,30.21,0,0,0-2.43,8.49c-.16,2.21.41,4.56.48,6.79.35,10.9-1.57,22.5-2.91,33A97,97,0,0,1,33.07,132c-3.4,13.11-8.22,26.37-12.13,38.82-.64,2-1.57,5-1.21,6.06.22.65,1.12.86,1.46,1.46-1,1.85-.26,3.56-.49,5.34-.39,3.12-1.62,6.3-2.43,9.46s-2.48,6.41-2.67,9.22c-.11,1.65.65,3.12-.24,4.61-4,.44-13.54-1.23-14.8,1.94-.7,1.76,1.31,4.39,1.46,5.82.22,2.08-.37,4.68-.48,7C.9,234.53-.31,245.26.08,258.45c.11,3.77-.15,12.05,1.7,13.58.86.72,3.18.68,5.1.73,14.57.35,26.07-1.22,38.57-2.18-.26,2.15.71,4.34,1,6.55a41,41,0,0,1,.48,7c-.31,3-2.69,6.45-3.4,9a72.42,72.42,0,0,0-2.42,19.41c0,6.75,1.21,13.41,1.94,20.14,1,9.52,3,19.53,4.37,28.39.55,3.41,1.41,6.89,1.21,9.95-.24,3.72-3.05,6.89-1.21,10.92a8.13,8.13,0,0,0-2.67,3.64c-.45,1.36-.14,3-.48,4.61-.19.88-1,1.71-1.21,2.67s.19,2.33,0,2.91c-.06.19-.9,1.27-1.21,1.7a6.85,6.85,0,0,0-1.21,1.7c-.12.29-.05.92-.24,1.46-1.68,4.75,6.66,7.59,12.13,8,2.79.21,5.22-.05,6.55-1,2-1.38,1.83-3.78,1.94-6.06,0-.54.46-.93.49-1.46.14-3.05-2-4.64-1.94-7.52,0-1.49.77-2.79.73-4.12-.07-2.17-1.67-3.74-1.7-5.58,0-1.57,1.4-2.82,1.46-4.37,0-1.23-.67-2.79-1-4.12-1.3-5.8,0-11.93.73-18.44.54-4.66,1.08-9.4,1.7-14.07,1.19-8.9,3.86-17.86,4.36-26.93.47-8.53-1.68-16.22-2.18-23.29-.35-4.86,1-7.29,1.94-10.67.64-2.4,1.33-4.82,1.7-7,.25-1.5-.24-3,.73-4.37,4.16,0,6.61,3.36,10.19,2.91,1.4-.17,1.94-2,3.4-2.18.86-.1,2.17.91,3.15,1,2.17.13,3.77-.51,5.82-.73.54,5.16,1,10.77,2.43,15.29.5,1.56,1.5,2.81,1.7,4.37.27,2.09-.39,4.36-.73,6.79-.3,2.18-.69,4.57-1,6.79-2.12,16.82,2.8,29.3,5.82,43.43,1,4.57,1.92,9.85,2.67,14.8.84,5.53,2.46,11.11,1.94,15.53-.22,1.85-1.32,3.6-1.21,5.34.09,1.52,1.82,3.05,1.7,4.61-.06.84-1.36,1.79-1.7,3.15-.63,2.5.46,4.76.24,7-.15,1.53-1.28,2.95-1.46,4.61-.06.59.33,1.53.25,2.43-.12,1.24-1.1,1.9-1,2.67s2.74,2.92,3.88,3.4c4.27,1.79,17,1.1,18.2-2.43.41-1.21-.21-1.41-.24-2.18,0-1.06.42-2.11.24-2.67-.33-1-2.31-2.27-3.15-4.12-.29-.65-.43-1.58-.73-2.43s-.79-1.5-1-2.18c-.39-1.43-.29-2.77-.73-3.88s-1.86-2.27-1.94-3.15c-.13-1.45,1-3.08,1-4.61-.1-3.07-2.52-6.32-2.67-9.22a48.27,48.27,0,0,1,.73-7.28c1.4-12.21,2.73-25,3.64-37.12.38-5.11,1.07-10.42.73-15.53a91.51,91.51,0,0,0-4.37-21.35c-.74-2.19-2-4.47-2.19-6.55-.62-6.83,1.93-13.21,1.94-18.92,3-.84,7.8-.93,10.67-2.91,3.59-2.47,2.74-5.09,2.18-10.43-.26-2.55-.33-5.27-.48-7.28-.94-12.16-2-23.85-3.4-35.42-.29-2.47-1.06-5.86-.73-7s2.41-1.85,2.67-3.15c.18-.91-.32-2.91-.49-4.37A162.88,162.88,0,0,0,118,167.23c5.66-5.2,8.28-13.1,12.13-20.87,2.64-5.33,5.88-10.88,8.73-16,1.07-1.92,2.53-4.07,2.91-5.58a54.52,54.52,0,0,0,.49-5.82C142.46,117,143.19,114.76,143,113.37ZM105.6,50.55a27.14,27.14,0,0,1-.48,3.34C103,55,104,50.85,105.6,50.55Zm-1-2.34.6.89C104.35,49.27,104.45,48.7,104.56,48.2Zm-.78-6.41c.3-1.16-.81-2.13-1.7-2.59C103.38,37.4,106,41.16,103.79,41.8Zm-1.39,3.48a3.84,3.84,0,0,0,1.73,1.56,1.91,1.91,0,0,0-.25-.06C103.5,46.72,100.71,46,102.39,45.27Zm3-11.29a2.32,2.32,0,0,1-.8-1.25A1,1,0,0,1,105.42,34ZM50.3,29.15c0-1.35-1.25-2-1.63-3.14,1.7-.35,3.21.19,3.06,2.24A4.38,4.38,0,0,1,50.3,29.15ZM51.25,24A2.25,2.25,0,0,1,50,22.63c1.08-.05.33-1.27,1.32-1.35a12.13,12.13,0,0,1,1,2A4.66,4.66,0,0,1,51.25,24Zm.42,14,.21.54C51.07,38.46,51,38.28,51.66,38Zm.53,9c.05-1.54-1.25-1.59-1.87-2.39C51.48,43.38,53,45.79,52.2,47ZM51.35,18.6l-.69-.89a1.79,1.79,0,0,1,1.81-.64A4.13,4.13,0,0,1,51.35,18.6Zm1,38.35a1.09,1.09,0,0,1,2.14.36A2.73,2.73,0,0,1,52.32,57ZM17.78,207c-.1-.51.17-.64.24-1,.76.21,1,.92,1.94,1C19.49,207.71,18.46,206.93,17.78,207Zm28.14,180.5c-.55-.42-.09-1.85-.24-2.67.77,0,.81-.64,1.7-.49C46.93,385.45,46,386.09,45.93,387.52ZM28.46,199a2,2,0,0,1-.49-1.46,1.23,1.23,0,0,0-.73.73c-.32-.5.76-1.66,1-2.43a12.1,12.1,0,0,1,1,2.43A1.21,1.21,0,0,0,28.46,199Zm20.38-49c-.26.61-1.12.88-1.46,1.46-.17.29,0,1-.24,1.7-.57,1.87-1.9,4.41-2.66,6.79-.32,1-.87,2.07-1,2.67s.3,1.3.24,1.94c-.21,2.31-1.54,5.7-2.18,8.49-1.65,7.13-3.27,14.5-4.61,22.08a30.61,30.61,0,0,0-.73,4.61c.28,1.25,2.74,1.61,3.15,2.91.57,1.77-1.27,4.2-.73,5.82H35.74a36,36,0,0,1-1.7-9.95A42.57,42.57,0,0,1,33.8,192a16.93,16.93,0,0,0,.48-2.18c-.14-3.3-2.8-4.73-4.37-6.55,1.05.15,2.43,1.41,3.88,1,2.07-.63,3.82-7.2,4.61-9.46,3.68-10.57,7-22.44,10.92-31.3A13,13,0,0,1,48.84,150ZM99.52,22.67a1.83,1.83,0,0,1,1.14.68C100.05,25,99.4,23.31,99.52,22.67Zm.84,2.08c.26-.26-.24.29,0,0Zm.21,2.48c.07,1.71-.6,2.59-2.05,1.39A2.51,2.51,0,0,1,100.58,27.22ZM98.25,54.59c.67.74-.14,2-.33,3.13L96.67,56.4A2.26,2.26,0,0,1,98.25,54.59Zm-3.39.35h0a4.25,4.25,0,0,1-.39-.29l0,0c-.13-.68.61-2.15,1.54-1.4A2.09,2.09,0,0,1,94.86,54.95ZM60.6,56.73c0-.19.05-.25.07-.37S60.86,56.86,60.6,56.73ZM64.33,3.6c.19,0,.36.12.3.44C64.33,4.09,64.12,3.82,64.33,3.6ZM59.66,6.13c0,.14-.08,0-.18,0S59.66,6,59.66,6.13Zm.59,53.21c1-2.08,1.78-4.61,2.91-4.67a4.22,4.22,0,0,0-1,1.62A9.57,9.57,0,0,0,63.27,56C62.2,57.06,61.24,58.26,60.25,59.34Zm42.69,334.48c-.5-.21-.26-1.69,0-1.94C103.57,392.22,103,393.37,102.94,393.83Zm15.29,5.1a5.75,5.75,0,0,1-1.46-2.67C117.47,396.93,118.28,397.5,118.23,398.92Zm-1.7-6.31c-.92-.05-.69-1.25-1.45-1.46C115.3,391,116.73,391.6,116.53,392.62Zm.49-270c-2.58,5.12-5.71,10.28-8.25,15-3.34-11-.46-25.42,1.21-35.91,2.45,2,5.19,7.5,7.28,11.4.81,1.51,1.9,2.8,1.94,3.88C119.25,118.41,117.92,120.79,117,122.59Z"/></g></g></svg>