<svg xmlns="http://www.w3.org/2000/svg" viewBox="0 0 791.37 811.72"><title>Asset 27</title><g id="Layer_2" data-name="Layer 2"><g id="Camada_1" data-name="Camada 1"><path d="M501.15,182s-13.25-2.7-17.21-10.63c-9.73-.72-19.78-8.56-22.66-19.37s-4.3-22.3,2.55-21.58c-2.52-5.77,1.09-25.21,12.27-33.86s33.17-24.14,49-17.65,23,10.1,24.83,16.95,16.18,4.69,16.18,4.69v10.09l4,5v4.69s.56,10.35,3.09,9.5,4.43,12.13.1,15-16.17,2.52-17.25,15.14-4.3,28.47-1.06,32.8,12.27,15.86,12.27,15.86,35.34-20.91,53.36-33.88,37.48-38.93,38.93-44.33,49.38-80.74,49.38-80.74a33.62,33.62,0,0,1,10.81-12.25C727,32.8,776,0,776,0s6.49.36,0,6.49A165.17,165.17,0,0,0,764.09,19.1l26,3.6s4,5.41-1.8,5.77-15.86,4.33-15.86,4.33l7.21,2.52-7.93,4s0,3.6-3.24,4-14.06.72-14.06.72-17.66,13.7-21.27,13.7-11.53,12.25-11.53,12.25l-36.76,77.49L667.85,169s-69.93,64.52-73.53,72.45-9,20.91-10.09,26-7.93,26.31-14.78,38.21S528,344.94,521.51,348.91A13.53,13.53,0,0,0,515,359.72l-4.33,6.85-6.49,6.13S536.29,466,537,473.26s5.41,33.16,5.41,33.16l-5.77,5.41-14.06,2.88-2.52-2.15-11.17,2.9H492.68s-.36-6-1.44-6-18.74.49-18.74.49l-8.65-4.44s-5.16,53.29-4.92,57.25-2.05,120,0,130.09,10.34,36,12.14,42.52,1.44,38.56-2.88,54.42-1.12,22-10.11,22-9.71-.36-12.23-12.26-2.88-29.56-13-41.45-20.18-17.66-16.94-20.91,15.5-18,16.22-24.87-10.45-66-14.42-79.66-7-18-2.42-55.15,2.78-69.93.62-76.41-6.85-28.84-6.85-39.65c-1.44-10.81-21.63-38.57-21.63-38.57l-4-5.41s-1.08-13.34-2.52-15.5-11.53-15.5-11.53-15.5l-11.89-1.08-4.89-11.17L344.13,363v-3.6s-66.39-9-77.2-7.21-23.55-.72-47-5.41-31.24-3.6-47.46-3.24-56.17-12.25-62.66-12.25S67.69,338.09,54,337,1.74,332,.3,322.59s1.45-16.22,27.4-19.46S83.57,310,95.47,310s79.3-11.17,88.67-10.09,40,6.49,49.74,8.65,85.79-5,85.79-5l-5.77-18.38-1.8-13-5.77-1.44,6.85-11.53-10.81-5.41,8.29-10.81s.36-4.33.36-5.41-5.77-7.93-5.77-7.93l.78-1.8-3.9-9V212.3L273,208.7s-18.1,10.81-23.14,10.81-18.78,3.6-22,4.33-9.39,2.52-9.39,0,5.4-9.73,5.4-9.73-1.81-4.69-10.1-1.8-27,8.65-28.48,6.13,2.88-5,2.88-5-1.44-4.33.72-6.13S182,200,187,200s6.85.36,9,0,26.31-2.88,26.31-2.88,39.29-5.77,47.94-7.21,28.84,3.6,36.4,4S339.13,191,357.15,191s30.64,9,55.87,6.13,41.81-9,56.59-10.09A236.43,236.43,0,0,0,501.15,182Zm-35.5,37.49L418.79,222s-26.31,2.52-40,7.57c9.37,0,68.48,50.1,68.48,50.1s15.86,3.24,22.71,3.24,7.93-6.85,10.45-12.25-4.69-46.86-4.69-46.86C474.81,218.28,465.64,219.51,465.64,219.51Z"/></g></g></svg>