<svg xmlns="http://www.w3.org/2000/svg" viewBox="0 0 685.17 1100.74"><title>Asset 28</title><g id="Layer_2" data-name="Layer 2"><g id="Camada_1" data-name="Camada 1"><path d="M408.18,399s18,7.26,27.89,18.13,51,55.25,76.09,60.34,61.48,32.89,75.4,39.34,42.8,20,53.32,29.86S671.46,586,671.46,586l8.16,29.2S686.08,639,685.06,639s-8.47-7.47-9.49-14.27-4,4.07-4,4.07-5.37,13.58-7.75,13.92-3.15-3.06-3.15-3.06l6.82-10.87v-19s-2-7.81-5.72-10.53-11.9-7.13-11.56-.34,4.36,14.26,3.35,17.66-7.84,4.08-7.84,4.08,3.38-4.08,1-11.89-7.14-18.68-7.14-26.15,1.69-16-4.76-18.68S533.24,527.6,508.11,505.18s-28.53-14.94-57.05-28.53-33.62-22.07-54.68-29.55S320,453.9,320,453.9,268.35,468.16,269,478.69s-6.79,31.58,6.45,49.92,27.92,69.62-7.95,83.2c-1.56,22.75-2.51,42.45,0,48.22s9.3,47.54,9.3,62.83a199.75,199.75,0,0,0,1,23.09s21.73,13.92,29.55,18.34,17.66,7.81,14.6,12.23-4.75,6.11-11.21,6.11S284,779.58,284,779.58s3.06,11.89,4.41,14.94a162.35,162.35,0,0,1,12.57,60.11c.34,31.92-.34,72.68.34,91.35s-2.72,37.36,5.43,41.09,25.47,11.55,23.77,25.13a22.55,22.55,0,0,1-12.91,18s-7.47,12.91-4.41,19.7,10.19,30.56,10.53,39.05-1.36,9.17-9.51,11.55-21.73-14.94-21.73-14.94-21.4-34.64-21.4-49.58,5.09-28.19.68-68.6-32.6-143.65-32.6-143.65-22.41-64.19-22.41-70.81c-24.45-9.68-42.28-26-79-30.56S31.3,696.89,31.3,696.89.74,688.23.23,678s0-31.58,0-31.58,70.3-56,97.3-68.26,53-23.43,65.2-27,16.81-6.11,17.83-28,2.55-52,12.74-79.47,45.34-60.62,45.34-60.62,4.08-13.75,13.24-18.85,16.3-8.66,16.3-8.66,6.11-9.17,6.11-36.17-1-125.82-1-125.82,13.75-67.75,18.34-83,7.64-31.58-.51-36.17S261,47.91,261,47.91l-3.57-4.58s.51-2,6.62,0S282.44,53,282.44,53L284,39.81s-7.13-16.24-15.79-14.71-19.87-2.18-19.87-2.18l6.62-3.07h6.62s-2.55-8.39.51-8.39,10.19,3.32,10.19,3.32S265.12-.5,267.67,0s11.72,7.13,11.72,7.13l12.23,18.34,16.81,39.23S314,67.26,313,76.94s-5.6,65.2-4.58,74.37a158.35,158.35,0,0,1-2.55,46.87c-4.08,19.36-6.62,44.83-5.09,62.15s6.62,34.13,13.24,43.81,9.17,35.15,9.17,35.15-1,15.28,11.72,15.28,28.53-29.55,28-34.13-8.66-23.09-6.62-24.11,10.19-3.74,10.19-3.74l2.72-3.4s6.11-1.36,7.47-.34,4.75-2,4.75-2l7.47-8.83s6.11,1,9.51,5.43,14.26,3.06,14.26,3.06,12.91-3.4,22.41,3.4,16.64,12.23,16.64,12.23,12.57-2.38,13.24,8.15,10.19,42.79-2,57.05-6.11,21.06-25.13,22.07S408.18,399,408.18,399Zm-25.56-19.12s-2.37,10.54-1.36,12.23,7.48,1.45,7.48,1.45l5.7-3.48V383.6l-6-3.06v-.7ZM184.46,640.34s-47.21,12.91-80.15,14.6c19.7,11.55,64.53,38,64.53,38s23.77,14.6,32.26,14.6C196.35,692.64,181.75,647.48,184.46,640.34Z"/></g></g></svg>