<?xml version="1.0" encoding="UTF-8"?>
<!DOCTYPE svg  PUBLIC '-//W3C//DTD SVG 1.1//EN'  'http://www.w3.org/Graphics/SVG/1.1/DTD/svg11.dtd'>
<svg enable-background="new 0 0 2097.076 1687.48" version="1.1" viewBox="0 0 2097.076 1687.48" xml:space="preserve" xmlns="http://www.w3.org/2000/svg">
		<path d="m909.8 533.67c12.29-35.53 5.06-73.37 4.57-110.01 1.26-27.05-1.11-54.18-0.02-81.22 5.88-30.96 7.42-65.8 29.31-90.56-0.23-0.18-0.47-0.35-0.71-0.52 2.68-4.02 5.41-7.99 8.39-11.76 1.8-2.27 3.68-4.46 5.72-6.54 2.81-2.85 5.96-5.28 9.09-7.73 3.5-2.73 6.98-5.49 9.96-8.85 0.26 0.24 0.52 0.48 0.77 0.72 13.69-8.44 25.77-20.39 42.48-22.96-0.35-0.21-0.7-0.42-1.06-0.63 0.13-0.08 0.25-0.14 0.37-0.24 3.41-2.73 8.46-3.25 12.58-4.34 0.47-0.13 0.95-0.25 1.42-0.38 0.68 0.5 1.36 0.98 2.02 1.51-0.34-0.59-0.72-1.17-1.07-1.76 3.91-1.05 7.92-2.21 11.48-3.99 0.79-0.4 1.28-0.94 1.54-1.55 51.03-9.78 104.1-6.73 153.91 8.02 43.98 6.46 79.92 36.22 122.91 44.49 33.8 9.75 66.64 23.52 96.18 42.72 34.77 18.71 62.64 47.25 94.82 69.71 23.26 22.3 51.29 38.45 76.39 58.43 44.42 40.47 95.5 72.33 143.13 108.76 90.37 51.95 174.47 122.12 279.19 142.51 9.94 4.77 16.14 22.39 3.57 28.01-31.09 11.2-60.03-8.42-88.4-17.85 8.08 7.69 19.75 11.24 25.99 20.82 6.42 9.49-1.58 22.71-11.88 24.89-30.58 1.11-57.75-14.78-86.61-22.11 6.52 8.98 12.57 25.31-2.27 29.61-28 8.42-55.95-9.47-82.63-14.39-9.66 27.92-45.32 11.91-65.44 6.35 0.09 8.53-1.17 19.43-10.94 22.02-34 4.64-59.93-21.83-90.8-30.44-4.23 30.61-68.85 0.05-77.5-4.3-17.32-8.7-33.82-18.96-50.97-27.94-1.34 4.38-2.07 8.94-3.84 13.17-18.39 10.02-40.48 2.37-60.12 1.24-5.67 29.33-44.32 2.93-50.91 28.69-8.21 8.55-20.8 7.22-31.51 8.91 1.11 17-12.18 25.12-27.92 20.87 2.05 10.99-1.37 20.82-12.46 24.67 0.08 15.5-13.45 21.98-27.41 18.96-24.72 3.49-41.58-20.18-65.46-20.22-30.45-2.25-58.3-16.25-84.69-30.27-24.47-1.22-45.45-14.76-64.24-29.27-23.35-2.67-49.04-8.34-65.46-26.58-9.54-13.96-28.8-10.68-41.48-20.71-20.95-0.39-43.48-1.03-62-12.74-8.68-10.29-11.26-24.97-8.57-38.01 23.65-18.67 35.62-48.19 40.58-77.21z"/>
		<path d="m2006.1 1535.7c-4.662 0.945-9.381 1.712-13.822 2.842-16.115 4.101-30.945 7.704-47.819 6.15-13.82-1.273-27.365-4.539-41.008-7.083-30.701-5.725-61.602-6.91-92.754-6.91-16.116-0.227-32.563 0.42-47.726 6.469-44.73 13.71-91.61 19.84-138.34 18.9-58.39 9.03-117.65 4.99-176.4 9.47-118.42 15.03-236.24 33.83-354.94 46.52-57.68 10.5-118.03 8.64-174.23-8.16-19.08-10.56-41.23-19.63-51.91-40.13-19.5-31.62-7.32-69.44 1.96-101.87-38.29-12.57-73.58-42.85-78.71-84.73-1.18-50.69 19.34-99.39 40.06-144-21.59-6.29-43.27-17.34-65.83-17.17-4.4 40.66-22.96 78.31-27.87 118.97-4.88 40.86-18.45 83.74-2.29 123.79 8.19 27.06 22.4 51.75 40.55 73.28 12.53 15.78 11.83 51.08-11.99 54.05-11.46 3.4-17.49-13.06-28.37-8.3 2.87 21.85 1.28 50.35-19.84 63.07-22.98 1.46-31.06-27.23-31.55-45.71-5.67 13.24-3.68 30.53-16.44 40.65-8.04 13.25-28.33 8.72-33.06-4.9-4.7-20.95-0.68-42.42 0.41-63.54-10.97 24.27-9.58 57.7-35.04 73.12-13.92 8.91-32.8-4.17-31.86-19.78 2.29-33.61 15.2-66.21 14.26-100.09-17.68 17.74-45.34 53.39-67.92 35.23-5.38-6.15-1.71-17 0.39-25.08 13.64-50.43 59.24-85.88 68.52-138 7.97-24.35 10.71-49.92 12.72-75.34-2.18-52.89 0.7-105.95 8.04-158.33-0.62-17.66 0.25-41.56-18.84-50.12-14.36-7.01-28.5-14.47-41.62-23.6-31.11 50.56-62.67 101.1-87.57 155.36-14.9 33.35-27.14 56.4-51.52 82.93-24.61 24.5-46.89 51.99-77.05 70-21.32 9.02-42.25 20.54-65.75 22.74-29.97 3.13-51.41 33.83-82.6 29.89-18.2-5.92-19.87-26.14-12.15-41.17-9.49 7.2-14.45 18.4-20.56 28.3-13.34 16.59-41.37 22.75-56 4.36-14.66 3.19-33.69-2.37-35.27-19.6 11.82-24.18 24.5-48.08 40.49-69.78 6.95-14.43 19.37-26.98 35.38-30.57 30.21-8.66 63.35-0.54 92.64-12.9 33.5-21.61 53.66-57.46 63.15-95.43 26.08-58.3 40.07-121.5 64.4-180.74 7.95-33.46 28.17-63.35 29.13-98.39 8.17-68.67-7.16-144.54 31.37-206.28 17.89-35.45 26.93-74.83 25.91-114.57 0.28-8.42-4.98-16.4-12.29-20.29-24.48-10.26-50.63-15.44-75.52-24.44-22.23-5.98-49.32-11.46-61.2-33.56-13.43-28.18 2.88-59.24-4.11-88.38-3.01-11.78-17.21-20.63-11.91-33.97 0.73-10.33 12.04-12.19 17.28-19.29-4.73-6.77-13.17-10.62-16.55-18.25-2.5-15.48 18.94-21.98 17.25-37.4-0.64-16.42-13.31-34.46-1.79-49.68 14.96-20.18 44.17-18.84 60.89-37.35 24.54-23.18 24.82-58.77 34.61-88.89 9.36-58.24 66.21-99.4 122.52-105.02 32.2-8.38 65.74-9 98.82-9.06 81.64-2.93 168.4 25.25 222.38 88.85 31.47 31.64 56.59 73.52 56.55 119.25 6.65 59.09-6.31 118.4-27.56 173.32-23.73 41.09-43.21 86.61-81.39 116.92-12.49 7.44-19.95 20.18-27.75 31.98-1.5 4.75 3.08 8.21 5.9 11.23 41.54 34.25 92.01 54.26 139.58 78.2 30.58 9.35 56.19 29.61 86.08 40.43 60.26 26.89 114.18 67.41 177.38 87.78 39.33 11.23 73.99 33.05 111.42 48.83 34.72 20.95 70.28 42.89 95.59 75.26 16.04 26.44 38.61 49.32 46.88 79.87 24.44 48.21 27.93 104.22 19.12 156.86-4.38 60.65-39.17 115.25-85.43 152.98-10.84 6.8-21.04 14.82-29.34 24.59 78.28-3.44 154.66 17.7 230.66 34.23 22.28 1.88 43.25 12.97 66 9.87 10.41-23.28 22.34-50.84 47.53-61.29 39.82-8.14 80.08 12.46 105.82 42.12 15.313 11.476 24.76 30.216 40.789 40.336 12.643 7.982 24.961 16.485 37.86 24.059 12.405 7.284 25.852 11.131 39.717 15.153 4.894 2.447 11.431 3.316 16.699 4.844 6.097 1.768 12.193 3.537 18.29 5.305 11.303 3.278 22.48 7.293 33.826 10.145 28.86 11.97 68.28 3.44 87.35 33.61 10.252 16.876-1.929 34.61-17.556 42.362-4.648 2.303-9.851 3.599-15.126 4.668z"/>
</svg>
