<svg xmlns="http://www.w3.org/2000/svg" viewBox="0 0 182.79 153.67"><defs><style>.cls-1{fill:#fff;}</style></defs><title>Asset 9</title><g id="Layer_2" data-name="Layer 2"><g id="Layer_1-2" data-name="Layer 1"><path d="M85.16,15S65.43,23.87,62.29,26.59a106.78,106.78,0,0,0-9,8.29c-2.14,2.43-4.29,3.57-6,5a13.84,13.84,0,0,0-3.72,14.3c2.29,7.43,7.72,12.44,12.58,15.58s8.43,4.57,9.72,6.15,2.43,3,.57,3.14-34.59,1.71-34.59,1.71l-.28-1.29s-14,1.29-22.44,3.86S-2,88.63,1.54,87.77s27.87-.14,27.87-.14l-.29,1.29s-5.43-.14-5.43,1.14,1.86,4,3.43,5.29S30,97.92,30,97.92s16,8.43,21.3,8a55.45,55.45,0,0,0,9-1.43l-1.14,11.58L29.7,125.94s-.71.86.29,3,4.58,1,7.72,0,28-7.86,28-7.86l.71,1.71s-2.43,1.15-2,2.29,5.58-.14,5.58-.14,3.14.57,4.43,0a10.07,10.07,0,0,1,2.72-.71,44.7,44.7,0,0,0,14.15-.86,40.16,40.16,0,0,0,15.44-7.29l4.29-.86s3.15,4.43,6.58.14-1.86-11.72-1.86-11.72,0-2.43-1.43-3.57a6,6,0,0,0-3.86-.86l.43-2h1.86s-.29,2,1.29,1.14,3-8,4.29-11.86,5.43-9.43,5.43-9.43l23.87,31.16,2,.14,3.58-3.29-1.43-3.86-13.44-19-7-10.86s14.15-6.57,20.58-5.15,9.15,3.72,12.15,2.86,3-.14-1-2.86-10.15-7.58-19.3-6.15a73.87,73.87,0,0,0-17,5s-9.15-15.15-14.29-17.44-11.58-2-11.58-2a5.22,5.22,0,0,0-3.14,0,12.22,12.22,0,0,1-3,.71,32,32,0,0,1-4.29-3.86C89,40.74,87,37.6,87,37.6s5.15-6,5.58-7l1.29-3s.86,3,2.43,3,1.14-2.29,1.14-2.29,3.72,5.29,6.15,4.86,1.57-1,3.29-2.72,2.43-3,1.86-4.29a14.84,14.84,0,0,0-2.14-3l2.86-5.29s1.86-.57,2.29-1.29a8.29,8.29,0,0,0,.71-1.86s5.15,3,5.72,1.43S109,3.43,103.31,1.29,91.59-.57,87.88,4,85.16,15,85.16,15Z"/><path class="cls-1" d="M74.87,48.6a4,4,0,0,1-2.57,1.14c-1.72.14-3.58,2.43-2.29,4.29s6.29,7.43,7.43,9.44,5,7.86,5,7.86S95,61,98.17,60.33a23.41,23.41,0,0,1,7.15-.14L107,58.47l-.14-2.29-2.15-2-2.28-.86a4.87,4.87,0,0,1-2.29,2.43,7.16,7.16,0,0,1-3.43.72s-.86.86-1.14-.14A4.19,4.19,0,0,1,96,53.89a9.81,9.81,0,0,0-3.14-1.29c-1,0-1.86,1.57-3.72,1.57s-4.86-1-7.72-2.72A35,35,0,0,0,74.87,48.6Z"/><ellipse cx="33.88" cy="125.79" rx="27.12" ry="27.87"/><ellipse cx="154.38" cy="106.07" rx="28.41" ry="28.3"/><polygon class="cls-1" points="52.28 105.64 58.71 113.21 60.29 104.5 52.28 105.64"/><polygon class="cls-1" points="63.15 105.92 62.29 111.07 65.29 108.35 65.43 105.78 63.15 105.92"/><path class="cls-1" d="M93,93.06s-2.72,1.57-3.15,2.29a5.63,5.63,0,0,1-1.14,1.29l-1.57-.86s2.57-3.86,3.72-3.72A4.74,4.74,0,0,1,93,93.06Z"/><polygon class="cls-1" points="92.02 95.78 90.02 97.78 91.45 97.49 92.02 95.78"/><polygon class="cls-1" points="96.74 89.63 96.88 91.34 97.88 91.2 97.45 89.77 96.74 89.63"/><polygon class="cls-1" points="98.74 89.91 99.17 91.34 101.6 91.49 101.31 90.2 98.74 89.91"/><ellipse class="cls-1" cx="34.41" cy="125.72" rx="18.3" ry="18.37"/><circle class="cls-1" cx="154.63" cy="106.92" r="20.87"/><circle cx="33.49" cy="127.01" r="9.65"/><circle cx="35.06" cy="123.43" r="9.51"/><ellipse cx="153.41" cy="106.07" rx="12.22" ry="12.01"/><polygon points="132.83 88.7 149.23 105.85 154.38 103.06 138.83 83.23 132.83 88.7"/><rect x="154.59" y="81.52" width="0.75" height="47.81" transform="translate(-3.94 6.03) rotate(-2.2)"/><rect x="129.61" y="104.57" width="48.03" height="0.64"/><rect x="129.45" y="107.08" width="47.81" height="0.75" transform="translate(-22.67 171.34) rotate(-54.96)"/><rect x="153.95" y="83.12" width="0.75" height="47.82" transform="translate(-29.49 145.55) rotate(-46.58)"/><rect x="130.31" y="106.66" width="47.82" height="0.75" transform="translate(-33.12 95.12) rotate(-31.12)"/><rect x="153.52" y="82.37" width="0.75" height="47.81" transform="translate(-30.67 76.06) rotate(-25.33)"/><rect x="154.16" y="81.84" width="0.75" height="47.81" transform="translate(-5.56 202.87) rotate(-65.62)"/><rect x="129.77" y="104.19" width="47.81" height="0.75" transform="matrix(0.94, -0.33, 0.33, 0.94, -25.81, 56.25)"/><polygon points="147.28 128.38 148 128.6 162.01 82.89 161.3 82.67 147.28 128.38"/><rect x="132.39" y="108.85" width="47.81" height="0.75" transform="translate(30.03 252.11) rotate(-83.48)"/><rect x="125.92" y="98.94" width="47.81" height="0.75" transform="translate(-27.47 69.72) rotate(-24.06)"/><rect x="156.09" y="79.69" width="0.75" height="47.81" transform="translate(-20.26 166.71) rotate(-53.16)"/><polygon points="178.39 101.7 178.15 100.99 133.04 116.86 133.29 117.57 178.39 101.7"/><polygon points="165.7 127.33 166.3 126.89 138.45 88.03 137.84 88.46 165.7 127.33"/><rect x="159.52" y="80.77" width="0.75" height="47.82" transform="translate(-29.6 79.92) rotate(-25.77)"/><rect x="134.17" y="109.34" width="47.81" height="0.75" transform="translate(-28.5 156.75) rotate(-48.91)"/><rect x="134.49" y="113.09" width="47.82" height="0.75" transform="translate(-32.5 74.46) rotate(-24.07)"/><rect x="33.88" y="100.38" width="0.75" height="47.81" transform="translate(-4.58 1.35) rotate(-2.12)"/><rect x="8.9" y="123.43" width="48.03" height="0.65"/><rect x="8.74" y="125.95" width="47.82" height="0.75" transform="translate(-89.45 80.32) rotate(-54.86)"/><rect x="33.23" y="101.99" width="0.75" height="47.82" transform="translate(-80.88 63.67) rotate(-46.53)"/><rect x="9.59" y="125.53" width="47.82" height="0.75" transform="translate(-60.28 35.47) rotate(-31.14)"/><rect x="32.8" y="101.24" width="0.75" height="47.81" transform="translate(-50.18 26.08) rotate(-25.23)"/><polygon points="55.44 134.84 55.75 134.16 12.21 114.39 11.9 115.07 55.44 134.84"/><rect x="9.06" y="123.06" width="47.81" height="0.75" transform="translate(-38.75 17.7) rotate(-19.19)"/><polygon points="26.56 147.25 27.28 147.47 41.3 101.76 40.58 101.54 26.56 147.25"/><rect x="11.67" y="127.72" width="47.81" height="0.75" transform="translate(-95.73 148.9) rotate(-83.48)"/><rect x="5.2" y="117.8" width="47.81" height="0.75" transform="translate(-45.56 22.06) rotate(-24)"/><rect x="35.38" y="98.56" width="0.75" height="47.81" transform="translate(-83.73 77.75) rotate(-53.21)"/><rect x="11.1" y="127.78" width="47.82" height="0.75" transform="translate(-40.53 18.87) rotate(-19.38)"/><rect x="30.98" y="102.64" width="0.75" height="47.81" transform="translate(-68.01 42.14) rotate(-35.74)"/><rect x="38.81" y="99.63" width="0.75" height="47.82" transform="translate(-49.59 29.11) rotate(-25.63)"/><rect x="13.45" y="128.2" width="47.82" height="0.75" transform="translate(-84.15 72.34) rotate(-48.96)"/><rect x="13.78" y="131.96" width="47.81" height="0.75" transform="translate(-50.55 26.76) rotate(-23.99)"/><path d="M56.28,116.57l-27.44,9.86-8.15,4.29a5.74,5.74,0,0,0,.43,4.08l1.07,2.14,4.72-3,5.57-3.22L58.43,123Z"/><polygon points="53.07 114.21 38.49 118.72 38.7 120.86 54.35 117.22 53.07 114.21"/><path d="M139.91,94.27a8.39,8.39,0,0,0-1.72,7.29,16.13,16.13,0,0,0,3.43,7.5l1.07-1.29s-3.22-4.5-3.22-7.72a6.85,6.85,0,0,1,1.93-4.93Z"/></g></g></svg>