<svg xmlns="http://www.w3.org/2000/svg" viewBox="0 0 132.17 153.35"><title>Asset 8</title><g id="Layer_2" data-name="Layer 2"><g id="Layer_1-2" data-name="Layer 1"><path d="M116.06,21.88s-.65-2.24-.1-2.28.65-.34.68-.54.92.24,1.7-.44,1.09-3.36,1.73-5.16,1.63-3.77.71-6-2.24-5.95-4.18-6.35-4.86-.61-5.78-1-1.43.58-3.64,1-3.47.54-4.76,1.53-3,2.17-2.14,2.72,1.33.92,1.33.92a16.83,16.83,0,0,0-.51,2.72c0,1-1,2.24-.44,2.58a1.64,1.64,0,0,1,.21,2.4c-.78,1-1.81,2-.34,3,.46.3.91.6.68,2.1s-.81,2.92,0,3.6.88.68.88.68-.1.51-2.51.61a30.65,30.65,0,0,0-7.13,1c-2.45.68-5,1.26-8.87,2.48s-6.56,2.11-8.12,4-.51,3.26-3.77,1.87A34.41,34.41,0,0,0,63.89,31c-1.4-.23-8.45-.46-8.45-.46l0,.85s-.7.23-.74-.39-.08-2-.92-2.08-1,.61-2,.06-2.65-2.24-3.57-1.75a2.6,2.6,0,0,0-1.2,1.48S46,28.48,46,29.29a5,5,0,0,0,.2,1.42s-.76.41-.64.9a2.5,2.5,0,0,0,.38.84,1.43,1.43,0,0,0-.29,1.66c.52.84.7,1.16,1.37,1.25a2.46,2.46,0,0,0,1,0,3,3,0,0,0,1.86.87c1,0,2.47,0,2.47,0s-.47,5.41-.32,5.87,5.38.26,7.12.61A21.58,21.58,0,0,1,63,43.8c1.28.47,4.54-.5,5.61.29A25.9,25.9,0,0,0,71.94,46c1.11.58,1.54,0,2.5-.87S78,45,79.82,44.35s5-1.69,5-1.69l3.69-.29a5.21,5.21,0,0,0-1.19,1.95c-.09.76.64,1.48,2.15,2.94s2.73,2.82,2.73,2.82.44.47-.17.52a1,1,0,0,0-.87,1.1c.12.44-.26.61-.67.61S90,53.63,90,53.63a16.57,16.57,0,0,1-1.08-2.38,18.77,18.77,0,0,1-1-4.33c.12-.49-.84-.76-1.66-.47s-1.72,1.8-2.35,1.08-.7-1-1.4-.12-2,.55-2.91.67a66.59,66.59,0,0,1-8.29.26c-1.63-.2-2.33.12-1.89.55s-12.24.06-13.08-.38-1.22-1.95-5.2-2.82S44,43.74,38.85,43,28,41.88,25,41a32.64,32.64,0,0,0-7.21-1l-.23,1.45a27.15,27.15,0,0,1-5.82-.23c-1.69-.47-1.63-1.28-2.67-1.34l-1-.06a2.24,2.24,0,0,0-1.19-.67c-.67-.09-.78-.12-.78-.12s.09-.87-.53-1a5.31,5.31,0,0,0-.81-.12s-.15-.79-.76-.79a2.81,2.81,0,0,0-2.21,1.51l-.29.87s-.9-.49-1.25,1.69-.38,3.72.76,3.61,2.59-.84,3.26,0a2.23,2.23,0,0,0,2.21,1c.84-.12,3.25-.12,4.59-.12a11.48,11.48,0,0,1,4.57,1.13,6.63,6.63,0,0,0,1.69.7l.52,14.33s17.68.41,20.93.41,15.41-.23,17.33.41a76.6,76.6,0,0,0,9.77,2.56c4.07.75,6.8.7,8.08,3.55s4.42,9,5.41,10.93.78,5.53.31,13.2-1,12.56-2.06,16.63-1.4,9.19-2.79,12.33a51.06,51.06,0,0,0-2.44,9,52.93,52.93,0,0,0,7.09,3.37c2.56.81,3.61,1.28,3.61,1.28a12.35,12.35,0,0,1,.87,4.88c-.18,2.38-1.16,6.51-.76,7.62s2.27,1.75,3.66,1.63,3.72.52,4.3,1.75,2.09,1.28,2.79,1.28,1.1.87,2.79.81,2.47-.73,2.38-1.22-.73-.67-.73-.67a.83.83,0,0,0,.12-.73,2.81,2.81,0,0,0-1.72-1.08,9.84,9.84,0,0,1-4-3c-1.25-1.6-3.23-3-3.29-5.58a29.16,29.16,0,0,1,.41-5.12,1.38,1.38,0,0,0,1.92-1.42c.12-2.06,1.63-15.79,2.56-22.53s1.63-7.21.93-9.19a6.63,6.63,0,0,1,0-5.58c.93-2.68,2-8.84,2.09-9.3l.12-.46a3.45,3.45,0,0,1,2.91-1.74l1.86.12L102.12,81a16.57,16.57,0,0,0,2.56-4.42,51.86,51.86,0,0,1,3.14-6.63c1.16-2,2.44-.7,2.44-.7a19.28,19.28,0,0,0,2.56-2l.46-.58a35.33,35.33,0,0,0,8-.35c3.37-.7,6.4-3.84,8-10a58.93,58.93,0,0,1,2.56-8c.82-2.44-.35-6.75-1-9.3s-2.33-6.51-2.33-6.51,0-1.16-2.56-2.68l-5.7-3.37-1.51-4.07s-1.16-.12-1.63-.23S116.06,21.88,116.06,21.88Z"/></g></g></svg>