<svg xmlns="http://www.w3.org/2000/svg" viewBox="0 0 92.29 141.86"><defs><style>.cls-1{fill:#fff;}.cls-2{fill:#ff7f00;}</style></defs><title>Asset 7</title><g id="Layer_2" data-name="Layer 2"><g id="Layer_1-2" data-name="Layer 1"><path d="M45.85,25.72s-4.36,2.18-5.55,4.66-3.17,6.19-3.57,7.18S32.82,42.47,32,43.81,29,47,28.46,47s-4.21,3.22-5.3,5a33.77,33.77,0,0,1-6.25,6.09A19.56,19.56,0,0,0,13.5,61c-.79.89-2.48,2.53-2.77,2.83A10.34,10.34,0,0,0,9.08,65.9c0,.35-.39,1.78-.64,1.78s-2.13.15-2.13.54.25.59.74.59-.25.89-.84.84-1.29.15-1.19.69S6.11,71,6.36,71s-.74,1.14,0,1.14,0,.85.35,1.14,1.68-.35,1.78-.74-.15-.54.4-.54a1.1,1.1,0,0,1,1,.69c.2.35,1.44.35,1.73-.15s.25-1.54.69-1.88a4.62,4.62,0,0,1,2.48-.55,2.68,2.68,0,0,0,2.38-1c.64-.84.59-1.58,1.09-2.08s.79-1.19,1.69-1.63a14.79,14.79,0,0,1,4.61-1.88c2.43-.5,8.27-1.58,9.91-2.33s7.13-3.32,8.12-4.31,3.57-3,4.71-4,2.33-2,2.33-2,2,6.29,2.78,7.83,2.23,6.1,3.22,7.58,1.88,3,2.18,3.27.25.74,0,.79-9,3.32-12.83,5.35a32.85,32.85,0,0,0-7.58,5.35c-.69.79-2.08,2.73-2.63,2.63s-3.27.25-3.91,1.54-4.06,11-3.72,12.33.7,1.54.5,2.48a72.77,72.77,0,0,0-1.49,9.71,42.77,42.77,0,0,1-.45,5.45,1.05,1.05,0,0,0-.59,1.09c0,.89-.84,8-.84,8.67s-.4,1.49-.79,1.49a2.84,2.84,0,0,0-1.54,1.93,5.9,5.9,0,0,1-3.62,4c-2.13.54-6.84,2.28-6.94,3.62s-2.08,3.76,2.48,4.36,10.95-.4,12.24,0,8.92.55,9.61-.4,0-4.56-.45-5.4a15.13,15.13,0,0,1-1.09-3.82c0-.55-.05-1-.55-1.24s.94-6.19,1.39-6.79,1.24-1.43.79-1.83-.84-.39-.69-.79,3-7.48,3.57-8.82,1.88-4,1.79-5.7.25-6,.15-7,0-1.44.65-1.73.84-.4.84-.74,1-.5,1.19-.5.45,1.29.45,2.18-.1,2.92-.64,3.37a1.6,1.6,0,0,0-.3,2.38c.84.89,7.83,8.08,8.72,8.82a3.65,3.65,0,0,0,2.72.69c.79,0,1.34.5,2.08.89a15,15,0,0,1,3.22,2.68c.79.94,5.25,5.05,5.5,6.09s.69,1.88.35,2.13-1.24,1-.89,1.64,1.24,6.64-1,9-2.92,4.11-2.38,5.15,5.4,1.68,7.83.89,6.44-3.27,6.44-5.75.69-3.67,1.24-4,4.61-5,4.66-6.39A6,6,0,0,0,78,120.6c-1.88-.74-3.91-2.18-4.31-3.12s-.2-1.14-.74-1.29-3.37-4.81-4-5.5-1-1.09-1.34-.94-2.28-4.46-3.77-6a20.11,20.11,0,0,0-2.62-2.33s2.82-.7,4.76-1.39,6.24-2.53,7.63-2.67,7-1.93,7.88-2.58,2.53.25,2.88-.59a8.2,8.2,0,0,1,1.78-2.58c.6-.5,4.76-6.79,5.35-10.35a26.27,26.27,0,0,0,0-7.53c-.1-1.14.94-1.59.8-2.23s-1.34-6-1.88-6.89-3.81-11-4.36-12.38-2.73-9-4.81-11.94-5.4-7.63-7.68-9.51-2.08-3.57-1.44-4.36,2.23-4.71,1.34-5.84-2.33-1.68-2.33-2.28-.2-1.24.59-1.48,1.34-.94.65-1.73a31.19,31.19,0,0,0-2.28-2.18c-.74-.69-1.78-1.09-1.78-1.83s-2.38-7.43-5.9-8.92-5.15-2.48-7.33-2-6,2.72-6.14,3.17.25,1-.15,1.09-2.63,3.67-2.53,5a2.39,2.39,0,0,1-.94,2.23c-.45.4-2.87,1.83-2.63,2.53s.15,1,.55,1.14a.53.53,0,0,1,.15.95c-.4.25-.54,1.68-.1,1.83s.2.35,0,.74.45,1.34.1,1.68a1.6,1.6,0,0,0,.5,2.23c1,.65,4,1.83,3.86,2.08A10.32,10.32,0,0,1,45.85,25.72Z"/><path class="cls-1" d="M47.05,39.77s-1.38,2-2.32,3.42a30.57,30.57,0,0,1-5.19,5.4,2.1,2.1,0,0,0-1,1.16,8.33,8.33,0,0,0,2.32-1.27c.55-.61,3.14-3.81,4.3-5.08a33.93,33.93,0,0,0,2.32-2.92Z"/><circle class="cls-2" cx="11" cy="44.27" r="11"/></g></g></svg>