<svg xmlns="http://www.w3.org/2000/svg" viewBox="0 0 146.46 186.13"><defs><style>.cls-1{fill:#ff7f00;}</style></defs><title>Asset 6</title><g id="Layer_2" data-name="Layer 2"><g id="Layer_1-2" data-name="Layer 1"><path d="M105.9,43.36s1.51,4.82,1.28,7.83-.3,7.9-.68,9.41A71.54,71.54,0,0,0,105.3,68c0,.83-.15,6.17-.15,7.15a8.85,8.85,0,0,1-.45,4.21c-.76,1.66-.9,5.12-.9,6.17s.22,7.07,0,7.67a3.63,3.63,0,0,0-.3,1.66c0,.83.07,2,.68,2s2.48,1.2,2.63,2.11.46,2.1-.07,2.26-.75.83-.75.83a12.94,12.94,0,0,0,2,2.1,22.53,22.53,0,0,1,3.61,3.46c.52.83,2.56,1.8,3.16,2.18s1.81,2.56,2.11,2.78,2.11,1.13,2.11,2.11a16.08,16.08,0,0,0,.53,3.31c.15.45,1.43,2.11,1.43,2.71s.53,2.26.9,2.41a13,13,0,0,1,2,2.4,7.48,7.48,0,0,0,1.88,2,5,5,0,0,1,1.66,3.54c0,1.8.15,3.23-.45,3.91a1.88,1.88,0,0,0-.52,1.66c.07.3.9,1,.6,1.05s-1.05.37-1.05.37a15.66,15.66,0,0,0-.45,3.46c0,1.73-.15,7.45-.15,8.43s.37,8.51.22,9.86-.22,3.92-.45,4.74-.61,3-.15,4,1.5,2.34,2,2.34.38-1,1.73-.6a10.67,10.67,0,0,1,3.84,2c.53.6,1.36,1.88,2,1.88s2.11.22,2.63.3,1.81.3,2.26.3,2.78.3,3.39.38,2.78.07,3.16.83,1,2.86.3,3.69a11.32,11.32,0,0,1-1.51,1.8c-.37.23-.45.75-.68,1.13s-.23.75-.75.6-.75-.37-1.28-.15a13.91,13.91,0,0,0-2,1.13c-.53.38-1.2,1.43-2,1.36s-1-.68-1.8-.68-7.08.75-8.81.6-7.07-.23-7.3-.15a7.38,7.38,0,0,1-3.38.83c-1.51-.15-2-.68-3-2.34s-.83-3.24-.83-5.42,0-2.33.52-2.71.38-1.88.38-2.71.22-6.09-.15-7.67-1.13-7.37-1.73-9.18-2.33-4.29-2.18-7.07,1-8.8,1.13-9.63.3-2.26.3-2.26a.9.9,0,0,1,.45-.83c.52-.37.6-.53-.15-1.28a28.23,28.23,0,0,0-4.14-2.93,1.51,1.51,0,0,0-1.81.38,12,12,0,0,1-3.08,1.28c-.75.23-1.43.07-2.33-1.36S90.92,124,89.34,122.6s-6.77-5.34-7.22-5.79-1.28-1.13-2,.07-.75,1.81-1.5,2.41-2,1.81-2.48,1.81-5.27,5.57-6.85,5.87-2.79,1.43-3.46,1.43a2.7,2.7,0,0,1-2.41-1.2c-.67-1.05-.52-1.81-1.81-.75s-2.26,1.21-2.86,2.26-1.81,2.11-2,2.79a1.07,1.07,0,0,1-1.13.68c-.23,0-3.84,4.06-5.42,5.19s-2.56,2.56-3.84,2.63-2.26,1-3.31,1.05-3.38.38-4.44-.22a17.43,17.43,0,0,0-2-1.21,3.41,3.41,0,0,1-1.88-1c-.6-.68-2.18-3.69-3.54-4.21a41.94,41.94,0,0,1-6.4-3.54A32.92,32.92,0,0,1,20.71,127a3.24,3.24,0,0,0-3.09-1.66c-1.66,0-1.81-.45-2.18.07s0,1-1.73,1S11,126,10.32,125.24s-.67-.9-2-.83a28.68,28.68,0,0,0-4,.75c-.75.15-1.05.68-1.73.6A3.53,3.53,0,0,1,0,122.6c-.23-2.1,2.56-5.19,2.93-6.17s2.34-2.11,3.24-2.64,2-1.51,2.33-1.2.53,1.2,1.2.9,5.64-2.26,6.47-3.08a15.85,15.85,0,0,1,2.64-2.11c.45-.23,2.1-1,2.41-.83a6.71,6.71,0,0,0,1.81.83c.45,0,2.41.68,2.56,2s.45,2.93.45,3.76.38,1.21-.3,2-.68,1.28-.22,1.28,6.7,1.05,9,1.58a10.77,10.77,0,0,1,5,2.86c.53.68,1.28,1.66,1.88,1.66s1.2-2.18,2-3.23,4.89-8.58,5.27-9.41a47.35,47.35,0,0,1,4.29-6.09c.91-.9,3.08-5.65,3.54-7a4.54,4.54,0,0,1,2.26-2.78c1-.45,1.5-2.26,2.18-3.54S62.1,88.74,63.15,87a7.34,7.34,0,0,1,3.54-3.39c1.8-.9,3.16-1.73,2.86-2.41s-3.24-.75-2.41-2.86S70.38,71.28,70.45,68s.52-6.17-.23-7.45-.9.08-1.36.9a10,10,0,0,1-2.26,2.56,9.46,9.46,0,0,1-1.5.08,2.43,2.43,0,0,0-1.8,1.05,14.38,14.38,0,0,1-3,3.46c-1,.6-1.81,2.78-2.18,3.39S56,75.42,55.18,75.65s-1.06.83-1.58,1.28a6.46,6.46,0,0,0-1.13,1.5,2,2,0,0,1-1.81,1.13c-1.13.15-1.81.67-1.43.9s.75.75,1.13.83.23.45.45.6,1,1.05.83,1.28a2.06,2.06,0,0,1-1.5.45A16.86,16.86,0,0,1,48,83.1a8.14,8.14,0,0,1-2.79-.38,11.86,11.86,0,0,1-2.63-2,3,3,0,0,1-1.05-2.26c.07-.68-.45-2,.15-2.71s.45-2.86,1.05-2.93a17.15,17.15,0,0,1,2.26.07s.45-1.13,1.28-1.13,1.13-.75,1.21-1.58,1.73-2.63,2.86-3.84,3.16-3.53,3.61-4A5.28,5.28,0,0,0,55.4,60a2.58,2.58,0,0,1,.23-1.58c.3-.45.52-1.43.83-1.88s2-2.26,2.26-3.31,1-3.31,2.11-4.21,2.71-5.72,3-6.62,4.06-5.19,4.89-5.8,5.49-4.14,6.54-4.74a12.7,12.7,0,0,1,3-1.13c.83-.23,1.35-1.21,2.18-2s1.21-1.88,1.81-1.88,1.2-.15,1.43-.15A2,2,0,0,0,84.75,25c.07-1.05.22-3.39.22-3.69s-1.43-.08-1.81-1.5a18.14,18.14,0,0,1-.38-4.14c0-.75-.3-1.28.23-1.35s.9-2.11,1-3.76,1-8,4-9.56S95.06-.06,98.22,1s6.85,4.21,7.15,6.4,1,2.79,1,3.46a2.92,2.92,0,0,1-.83,2,8,8,0,0,0-1.58,3.46,5.25,5.25,0,0,1-.3,2.26c-.3.68-.53,2.63-.75,3.09s-.08.9-.61,1-.83.6-1.13,1.81a9.16,9.16,0,0,1-.75,2.71c-.61,1.2-1.43,2-1.06,2a2.63,2.63,0,0,1,2.33,1.13c.53,1.06,1.21,1.13,1.51,1.06s.45-.83,1.05-2,2.71-2.71,4.37-3.61,5-3.76,6.47-4.74c0,0,2.76-2.81,3.09-3.06s.92-.67.59-1.13-1.38-1.25-1.63-1.92a2.29,2.29,0,0,1-.25-1.34c.08-.33-.42-.8-.33-1.46s0-.58.42-.71-.37-.75-.33-1.29-.29-1,.33-1.34,1.51-1.13,1.55-1.63,0-.42.33-.75.12-1.51.46-1.93a2.4,2.4,0,0,1,1.75-.79,16.44,16.44,0,0,1,2.85.58c.46.12.88.25.88.63s.25.67-.25.67-.38.29-.38.54.25.75,0,.92,0,.54.17.58,1.71.79,1.75,1.38.71,3,.5,3.81a6.89,6.89,0,0,1-1.55,2.76c-.58.46-1.42,3.09-1.63,3.51s-3.18,5.18-3.93,6.23-3.51,6-4.18,6.73a20.39,20.39,0,0,0-2,3.76c-.42.92-2.22,3.26-3.05,3.43a14.26,14.26,0,0,0-3.93,2.55A4.16,4.16,0,0,0,105.9,43.36Z"/><circle class="cls-1" cx="83.91" cy="170.77" r="12.94"/></g></g></svg>