<svg xmlns="http://www.w3.org/2000/svg" viewBox="0 0 188.04 169.59"><defs><style>.cls-1{fill:#fff;}</style></defs><title>Asset 5</title><g id="Layer_2" data-name="Layer 2"><g id="Layer_1-2" data-name="Layer 1"><path d="M163.61,115.9s4.27,5.33,4.37,6.4a28.61,28.61,0,0,0,2.88,7.57c1.28,2,3.09,5.33,3.09,5.33s2.24-.85,2.77.64,1.07,4.05,1.28,4.37,1.28,2.77,1.28,2.77,4.16,7.46,4.69,8.21,1.6,4.05.85,4.48a1.94,1.94,0,0,0-1,1.92,21.29,21.29,0,0,0,3.63,5.12c.64.32.85,2-.21,2.34s-7.79,1.39-8.85,1.6a68.36,68.36,0,0,1-9.07.32c-.32-.21-1.39-1.49-1.81-1.6a2.26,2.26,0,0,1-1.07-1.39c0-.32-2.34-.21-2.56-.53s-2.13-2.56-2.13-3.84a3.4,3.4,0,0,1,1.92-3c1.17-.64,2.56-1.06,3.09-1.71s-1.17-.11-1.07-1,0-2.67.43-3.2a2.3,2.3,0,0,0-.32-2.67l-5.23-4.48.32-1.07s-.32-1.92-1.28-2.56-7.15-7-7.15-7l-6.29-5.65s-1.81-1.81-1.71-3-1.49-2.45-1.92-3.09a7.07,7.07,0,0,0-2.13-1.71,12.54,12.54,0,0,1-6.83-10.34,26.22,26.22,0,0,1,.43-4.59s-.85-.74-1.17-1a3.43,3.43,0,0,1-.64-2.35c.11-.85.43-2.35-.32-1.92a22.19,22.19,0,0,0-2.56,2.35c-1.07,1-7.47,8.64-8,9.28s-2.56,2.45-3.52,2.45a7,7,0,0,0-1.92.32,9,9,0,0,0,.75,1.71c.54,1,3.73,5.76,4.27,8.32s2.13,7.78,2.67,8.32a6,6,0,0,0,3.2,1.39c1.49.21,2.35,2.35,2.35,3.52s-.85,2.45-.85,2.88a14.16,14.16,0,0,1,1,3.41c.11,1.81,1.17,7,1.28,8s1.17,4.58.32,5.33-1,1-1.92,1.17-.21,2.67.53,3.63,3,3.42.21,4.69-6.93,1.71-9.92,2.45-11.41,1.39-12.05.75a3.14,3.14,0,0,1-.75-2.88,7.11,7.11,0,0,0-.11-2.56s-2.34-.43-2.77-2.46.53-4.05,1.81-4.37a28,28,0,0,0,6.72-3.84,8.71,8.71,0,0,0,1.6-3.95c0-.43-1,.21-1,.21a2.07,2.07,0,0,1,.21-1.71,11.49,11.49,0,0,1,1.39-1.71,11.22,11.22,0,0,0-1-.85,29.14,29.14,0,0,1-2.77-3.52c-.64-1-1.81-1.92-1-2s-2.88-4.37-4.59-6.4-6.93-9-7.15-9.6a23.64,23.64,0,0,1-1.07-4.16c0-.85-1.39-1.07-2.35-2.45s-2-1.71-2.77-1.28-2,1.49-2.77,1.07S88.1,116,88.1,116L62.29,136.8,34.13,159.41l-6.4,4.91A10.54,10.54,0,0,1,23,166c-2.13,0-20.69-2.45-20.69-2.45s-2.45.32-2.35-1.49S1.82,157,1.82,157a3.05,3.05,0,0,1,2.77-.53C6.08,157,14.51,159,17,159.52s8.43,2.13,12.69-1,30.08-24,30.08-24L80,118.46l5.44-4.37s-.43-1.6-.85-1.81-1.17,0-1.6-1-.75-3.2-1.28-3.52a2.8,2.8,0,0,1-.53-3.09,21.06,21.06,0,0,0,.64-5.33c0-.75-.53-2.88.85-3.95A9,9,0,0,1,85,94s-.85-3.84-1.28-5.55-.85-5.76-.32-6.72.85-1.92.64-4.48-1-15.79-.85-19.2,1.28-9.17,3.63-12.59,4.16-8.85,4.69-9.6-.75-1-1.07-.75a2,2,0,0,1-2.13-1,6.4,6.4,0,0,1-.85-2,8.63,8.63,0,0,0-1.39-1.28c-.43-.21-.53-1.92-1.07-2.24s-1.6-.11-1.6-1.28S83.09,23,83.09,23s-1.81-.43-1.92-1a1.19,1.19,0,0,0-.43-.75l-2-.11a3.65,3.65,0,0,1-.53-1.39c0-.53-1.92-1.17-1.92-2.24s-.21-2.88.64-3.73,1.17-5.12,2.67-6.29S81.49,4,82.88,2.84,90.34-1,93.11.39s7.79,3.52,9,6.72.32,5.33.75,5.65,1.92,2.45,1.71,3-.85-.32-1,1-.53,3.73-.21,3.95a5.2,5.2,0,0,0,2.67.21c.75-.21,11.2-1.71,15.47-1.28s17.92,2.56,22.61,4.48,16.53,8.85,19.2,12.16,2.88,9.17,1.92,10.35-4.05,5.76-5,5.76.11,2.56.11,3.31,5.12,6.08,5.55,8.43a18.12,18.12,0,0,0,2,5s2.35,4.59,1.49,6.19-1.6,2.88-1.6.64,0-4.48-1.07-5.23-3.2-1.07-3.63-.64.53,5.65-.21,11.09-3.2,24.1-3.2,24.1-.32,2.24-2,2.67a5.32,5.32,0,0,0-2.35,1.07s.64,1.49,1.49,1.71a8.48,8.48,0,0,1,3.31,1.28C160.95,112.7,163.61,115.9,163.61,115.9Z"/><path class="cls-1" d="M174.71,163.15l.11-2.77s3.41-1.39,3.95-1a24.83,24.83,0,0,1,2.13,2.77,9.13,9.13,0,0,1-2,.21A25,25,0,0,0,174.71,163.15Z"/><path class="cls-1" d="M115.94,164.75a6.86,6.86,0,0,1,2.88-2.56c1.71-.64,2.67-2.45,3.41-2s1.92,2.88,1.28,3.2S116.15,165.92,115.94,164.75Z"/><path class="cls-1" d="M101,84.85a8,8,0,0,0,.69-2.18c0-.69,1-1.38,1-2.75s-.23-5.28-.11-6.66a27.13,27.13,0,0,0-.12-3.33c0-.8.34-1.72,2.18-.92s2.64,2.41,3.67,2.41,1.26,1.26.8,2.18S102.46,84,102.46,84,101,85.54,101,84.85Z"/><path class="cls-1" d="M167,150.73l-.58,2.87s.92-.69.92-1.26S167.75,150.7,167,150.73Z"/></g></g></svg>