<svg xmlns="http://www.w3.org/2000/svg" viewBox="0 0 97.35 180.64"><title>Asset 4</title><g id="Layer_2" data-name="Layer 2"><g id="Layer_1-2" data-name="Layer 1"><path d="M9.33,75.86a4.94,4.94,0,0,0-2.17-2.2A5.33,5.33,0,0,1,4.1,71.72a10.77,10.77,0,0,1-1.3-3.06,11.47,11.47,0,0,0-1.55-1.33A2.37,2.37,0,0,1,.42,65.5c-.09-.87,0-1.42-.22-1.73s-.37-.62.12-1.46.49-1.45,1.39-1.88,2.44-.56,2.85-.77,1.27-.4,4.52-.22,7,.09,7,.09a18.45,18.45,0,0,1-1.58-4.18c-.19-1.45-.25-3.09-.4-4.27a7.44,7.44,0,0,1,.62-3.68,11,11,0,0,1,3.59-2.85,13,13,0,0,1,4.95-.8,43.82,43.82,0,0,1,5.69.59,16.59,16.59,0,0,0,2.07.8c.37,0,1.64.37,1.05.56s-.28.43-.06.52-.77-.19-.84,0,.5.46,1.33,1.05.65.28.22.74-.56.62-.43,1.18-.12,1.52-.5,1.3-.68-.37-.68-.37a1.61,1.61,0,0,0,.12,1.08c.28.46.65.43.68.9s0,1.05,0,1.3-.19,1.24-.19,1.24.19.5.34,1a7.33,7.33,0,0,1-.09,2l-.06.62a12.36,12.36,0,0,1,1.89,0c.46.09,1.21.31,1.21.31a1.54,1.54,0,0,1,.65.53,1.9,1.9,0,0,1,0,1,3.5,3.5,0,0,1-1,0c-.46-.06-1.33-.22-1.61-.22l-1.24,0s-.59.4,0,.49,2.26.16,2.26.16.86.18,1,.56.56.68.56,1.05.5.71-.28.87-.93-.4-.93-.4a.66.66,0,0,0-.59-.59c-.56-.09-2.16-.15-2.16-.15s-.37.34-.12.37,2,.84,2,.84.46.06.9.15,1-.06,1.05.31,0,1,.52.93a9.25,9.25,0,0,1,2.51-.09c.86.12,2.75.31,3.8.43a22.47,22.47,0,0,1,3.71.65,15.62,15.62,0,0,0,3.77.31c.8,0,6.16.13,6.9.06a17.31,17.31,0,0,0,3.25-.34,10.43,10.43,0,0,1,3.53-.43c1.67,0,5.26,0,6.87,0s3.62-.31,5-.37a14.28,14.28,0,0,0,3.83-.59A7,7,0,0,0,81.14,63l1.58-1.24a5.21,5.21,0,0,1,.84-.4A12.83,12.83,0,0,1,85,61.23a2.42,2.42,0,0,1,1.39.21c.56.28.9.59,1.11.34s.12-.68.4-.68,1.18.31,1.18.46a7.8,7.8,0,0,1,0,.9c0,.37-.37.53-.06.81s.09,1.11-.12,1.24-.43.31-.34.46a1.22,1.22,0,0,1,0,1.05c-.22.34-1.14.4-1.14.4s.28.77,0,1.08-.74.52-.87.43a10.26,10.26,0,0,0-1.33-.46c-.4-.12-.74-.19-.71-.43s.43-.37.56-.59.25-.34-.31-.46-1.15.09-.84-.46.12-.74.65-.8.65-.15.65-.37-.12-.62.22-.77a2.05,2.05,0,0,0,.62-.5,6.19,6.19,0,0,0-.9-.34c-.22,0-.93,0-.93.37a2,2,0,0,1-.68,1.64A1.73,1.73,0,0,0,82.85,66v2.63a22.64,22.64,0,0,0-2.35.06c-.56.09-7.89,2-7.89,2a35.23,35.23,0,0,1-6.87.9c-3.31,0-6.74-.09-7.73.34s-5.2,1.52-5.2,1.52l-1.48,1.05s0,1.55-.37,2a1.8,1.8,0,0,1-1.33.46c-.37,0-2.91-.34-4-.28s-2.78-.18-2.87-.15-1.64.06-1.64.06-.71,7.64-.74,8.91-.06,3.8-.15,4.21a8.31,8.31,0,0,0-.19,2.47c.12.77.9,5.06,1,6.34a33.69,33.69,0,0,0,.39,3.88A14.39,14.39,0,0,0,42.2,105a11.27,11.27,0,0,1,.88,1.72c.1.54,3,5.94,3.19,6.53s4.47,11.25,5.11,14.4a121.49,121.49,0,0,1,1.87,12.13,34.76,34.76,0,0,0,.83,5V147c0,.83.84,1.28,1,1.62a29,29,0,0,1,1.52,3.73c.15.83,1.42,6.88,1.52,7.47s.93,3,1.28,4.47a13.72,13.72,0,0,1,.64,3.54,21.52,21.52,0,0,0,.54,3.29,1.85,1.85,0,0,0,1,1.42c.74.34,3.83.74,4.32,1.38a7.08,7.08,0,0,1,1.18,1.87,7.51,7.51,0,0,1,0,1.82,2.65,2.65,0,0,1-2.65,1.77,26.82,26.82,0,0,1-6-.59,19.17,19.17,0,0,0-3.19-.93,28.66,28.66,0,0,0-4-.69,9.28,9.28,0,0,1-3.44-.79c-.39-.34-.74-.49-.74-1.28s.25-2.5,0-3.09-.88-3.83-1.18-4.91-1.33-8-1.47-8.79-.54-3.1-.74-4a8.64,8.64,0,0,0-.49-2.41,4.58,4.58,0,0,1-.44-1.87c-.15-.83-2.11-3.63-2.9-5.11s-2.06-2.56-2.41-3.39a13.43,13.43,0,0,1-1.23-3c-.2-1.18,0-2.21-.59-3.29a8.31,8.31,0,0,0-2-2.11c-.64-.59-1.37-1.38-1.37-1.38s-2.21,5.45-3,6.63-1.77,1.72-1.77,4.32-.79,4.17-.64,5.55a18.57,18.57,0,0,1,0,4.08,5.12,5.12,0,0,0,.29,2,14.22,14.22,0,0,1,.1,3.63c-.2,1.08-.15,5.16-.34,7.76s-.54,2.75,0,3.68.79,1.38.25,2.26-.69.24-.69,1.38.1,3.88.1,4.23.64,1.52,0,2.36-.93,1-4,1-4.18-.69-4.77-1.23a4.59,4.59,0,0,1-.93-2.7,12.58,12.58,0,0,0-.25-2.16,10.58,10.58,0,0,1-.44-2c-.1-1-.69-1.82,0-2.6s1.08-.59,1.13-2.06a8.69,8.69,0,0,0-.25-3.54,6.69,6.69,0,0,1-.49-2.7c0-.54,0-3.44-.2-5a27,27,0,0,1,0-4,13.5,13.5,0,0,0,0-3.49,12.86,12.86,0,0,1-.44-1.72c-.34-1.87-.29-1.62.15-2.8a15.92,15.92,0,0,0,.49-5.25c-.15-1.18-.59-1.18-1-2.9s-1.13-4.23-.83-6.24-.25-6.53-.25-7.52.1-6.43.1-7.12.29-3.34.29-3.83,0-3.49,0-3.49-1.42.15-1.42-1.18-.34-8.6-.34-9.93-.34-3.54-.44-4.42a26.34,26.34,0,0,1-.39-2.85,12.9,12.9,0,0,0-.34-3.29c-.29-1-1.42-4.13-1.92-5.4S8.84,78.9,8.84,78A6.7,6.7,0,0,1,9.33,75.86Z"/><path d="M52.71.34a12.57,12.57,0,0,0,.44,3.19c.34.49.89,2.11,1.52,3.19s1.48,2.7,5.26,5.7,7.76,6,11.74,11.45a68.53,68.53,0,0,1,6.78,12L80,39.25a6.43,6.43,0,0,0-.74,2.31c0,.94-.49,3.39.25,4.52a13.91,13.91,0,0,1,1.28,3.39s1.13,4.47,1,5.26-.59,1.82-.2,2.7a22.07,22.07,0,0,1,.83,2.65l.59.59-.25,8.7s-.25.83,0,1.08a3.11,3.11,0,0,1,.39,1.42c0,.25.1,5.31.1,5.31a3.19,3.19,0,0,0-.64,1.33c0,.59.25,5.26.25,5.26a8.91,8.91,0,0,0,.39,1.67,3.64,3.64,0,0,1,.25,1.08,30.76,30.76,0,0,1-1.57,7.08A54.34,54.34,0,0,1,78.26,102a45.09,45.09,0,0,1-5.11,7.86c-1.67,1.87-6.09,6.14-7.07,7.52s-2.46,2.9-2.85,4.77a22.51,22.51,0,0,0-.44,3.54s0,2.26.24,2.06a9.4,9.4,0,0,0,.69-2.41c0-.15,0-.88,0-1.52s-.44-.84.15-2.11a20.4,20.4,0,0,1,3-4.13,124,124,0,0,0,9-10.37c2.95-4,6.63-12.92,6.63-12.92s1.57-5.21,2-6.53.74-2.46.93-3.34a26.91,26.91,0,0,1,1.18-3.34,5.94,5.94,0,0,0,.59-2.95,6.78,6.78,0,0,1-.39-1.72c0-.69-.1-5.21-.1-5.21a6.93,6.93,0,0,1,.34-1.82,4.56,4.56,0,0,0,.39-1.72c0-.59.2-7.71.2-7.71a18.65,18.65,0,0,0-.54-3.2c-.3-.64-.88-1.77-1-2.11s-.59-1.42-.34-1.57a5.75,5.75,0,0,1,2.51-.34,2.89,2.89,0,0,1,1.18,1.72c.1.54.1,1.13,1,.74s.54-8.65.54-8.65a3.67,3.67,0,0,0-1.52-.89c-.83-.2-1,1-1,1s0,1.77-.44,2.07a3.88,3.88,0,0,1-2.46.15c-.39-.25-.59-.54-1.13-.59a.92.92,0,0,1-.89-1c0-.59.69-.2.69-1.28s.54-1.82-.25-2.41-.83-.44-1.28-1.38-2.65-5.8-3.44-7.37-4-8.6-8.5-13.51-4.52-4.91-8.11-7.81-4.67-3.44-6.09-5.06a11.23,11.23,0,0,1-2.51-4.22c-.1-.74.15-1.47,0-2a24.2,24.2,0,0,0-1-2.26Z"/><path d="M35.51,61.69h2.58a1.21,1.21,0,0,0,.64,1,6.75,6.75,0,0,0,3.85-.36c1.29-.53,1.94-.86,1.94-.86L97.18,58a.63.63,0,0,0,.18-.38c0-.18,0-.47-.15-.5s-52.82,3.39-52.82,3.39a20,20,0,0,0-4.54-.91c-1.53,0-1.66.4-1.73.66a2.93,2.93,0,0,0-.09.51L34,60.64Z"/><path d="M63.24,124.33c.13.33.09.64-.08.71h0c-.17.07-.42-.14-.55-.47L37.85,61.66c-.13-.33-.09-.64.08-.71h0c.17-.07.42.14.55.47Z"/><path d="M37.89,61.15c-.08.3-.28.53-.43.5h0c-.16,0-.23-.3-.14-.61L52.86,1.84c.08-.3.27-.53.43-.5h0c.16,0,.22.3.14.6Z"/></g></g></svg>