<svg xmlns="http://www.w3.org/2000/svg" viewBox="0 0 103.03 202.43"><defs><style>.cls-1{fill:#fff;}</style></defs><title>Asset 3</title><g id="Layer_2" data-name="Layer 2"><g id="Layer_1-2" data-name="Layer 1"><path d="M8.88,1.08S4.26,3.34,2.36,6-.18,10.4,0,11.92a6.12,6.12,0,0,0,.78,2.17c.11.45.28,1,.35,1.46s.21,1.88.54,2.14.39.7.66.68.17.11.41.5S3.94,21,4.33,21.5s.19,1.3.92,1.13a10.41,10.41,0,0,0,2.06-1.08c.56-.28.25,0,1.2.91s1.68.71,1.78,1.2-.21,1.12-.16,2.07,1,.83.58,1.69-.25,1.06.41,1a1.68,1.68,0,0,1,1.18.34,2,2,0,0,1-.51,1.38A16.71,16.71,0,0,0,9.08,34.9C8.57,36.59,7.21,39,7.46,42s.75,8.1,1.22,9.18S10.81,57,11.31,58s3,5.32,3.58,5.78,2.59,2.35,3,2.71.93.46.92,1,.39,1,.15,1.76-.27,2.86-1.15,3.5-.85.55-.86,1.21-.15.78.38,1.05a2.26,2.26,0,0,1,1,1.1c.3.51.25.65,0,1.45s.41.5-.06,1.43-.77.93-1,1.34-1.33.91-2.17,1.25-1.21,1.62-2,2.34-.6,1.82-.67,3a14.77,14.77,0,0,0-.21,2.52c.13.4-.95.36-1.07.73s-.42.95.24.85,1.55.46,1.45.79a15.13,15.13,0,0,1-.1,1.88,13.71,13.71,0,0,0-.36,3.92c.08,1.78-.33,2.42.32,3.1s.58,1.07,2.07,1.56a16.69,16.69,0,0,0,3.84,1.05,4.2,4.2,0,0,0,1.52-.07s-.26.48-.45.42-.91,2-.91,2l.5.37a11.92,11.92,0,0,0-.74,2.24c-.08.7.35,2.23,1.34,2.51s2.6,1.22,3.35-.29a67.61,67.61,0,0,0,2.26-6.54c.25-.75.42-2.55.13-2.9s-1.27-.53-1.46-.74.38-1.94.38-1.94a3.22,3.22,0,0,0,1.14.79c.81.37,1.12,1.45,2,2.06s1.28,1.14,1.94,1.31.72.81,1,1.56.64,1,.89,1.69.39.7.27,1.07a10.83,10.83,0,0,0-.39,3.23c.16.78.19,3.52.36,4.72s0,7.48.2,8.18a3.47,3.47,0,0,1,.13,2l-.58,1.77c-.43,1.3-1.78,5.72-1.92,6.61a36.27,36.27,0,0,0-.82,3.91c0,.93.41,1.12-.1,2.35a39.28,39.28,0,0,1-2.79,4.71c-.6.89-2.5,1.45-2.71,2s-.45.58-.15,1.4a33.52,33.52,0,0,0,1.41,3.25,3.79,3.79,0,0,1,.39,1.17s-.61,1.71-1,3-1.18,4.52-1.75,5.94-2.85,6.92-3.34,8.41a52.15,52.15,0,0,1-3.16,6.77,6.43,6.43,0,0,0-.77,1.87s-1.25-1.08-1.43-.37.53.59-.06,1.58-1.57,3.36-2.2,3.87A7.53,7.53,0,0,0,9,185.68c-.23.86-.89,2.24-.59,3.06a4.79,4.79,0,0,0,2.19,3.1c1.51.75,1.89,1.5,3.44,1.65s6.7,2.41,7.72,3.57.55,2.56,2.37,3.63,2.54,2.18,3.83,1.57,3.07-.7,4.12-1.54,2.21-1.39,2.66-2.59-1.27-3.21-1.69-3.35-2.18-.76-2.69-.32a.79.79,0,0,1-1.07.12,5.73,5.73,0,0,0-.82-.32,19.28,19.28,0,0,1-.89-2,3,3,0,0,1-.29-2.27,11.06,11.06,0,0,0-.39-4.16,1.37,1.37,0,0,0-2.55-.42c-.17.36-.42.79-.57.17a8.55,8.55,0,0,1,.16-3.31c.29-1.2,1.77-6.66,3.15-8.79s7.8-10.2,8.79-11.48a14.12,14.12,0,0,0,1.51-2.4s1.17-.24,1.33-.75a6.85,6.85,0,0,1,.4-1.52c.35-.76,5.77-9.83,6.32-11S48,143,49,140s1.79-5.77,1.57-7.29a20.74,20.74,0,0,1-.39-4,4.18,4.18,0,0,1,.44-1.82,1.33,1.33,0,0,1,1.58-.72c.76.2,1.88,1,3.25.81s4-.25,5.06-1.08,4.2-1.61,5.55-3.19,1.19-1.26,1.59-2.63a2.45,2.45,0,0,0-1-2.91c-.93-.77-2.85-1.71-3.58-1.54a2.57,2.57,0,0,0-1.64.91.39.39,0,0,1-.59.22c-.14,0-.78-.15-.78-.15a5.31,5.31,0,0,1-1.86-.15,12,12,0,0,1-3.08-1.79c-.81-.68-1.72-1.55-2.24-2s-.1-.81-.57-1.43-.25-1-1.16-1.52a7.39,7.39,0,0,0-1.28-.68s-.42.17-.56-.49a21.5,21.5,0,0,1-.12-5.62c.34-1.18,2.71-9.81,4.6-13.53s3.5-6.55,3.88-7.25.48-.51.94-.67.79-1.29.94-1.45,1.86-.32,2.25-1a21.2,21.2,0,0,0,.73-2.4c.23-.54,1.78-4.94,2.44-6.17a19.27,19.27,0,0,0,2.06-3.92c.34-1.34.61-2.8.82-3.61a14.51,14.51,0,0,1,1.14-2.52c.45-.89,1.8-4.06,1.31-5.41s.06-1.27.58-1.31,2.62-.43,3.29-.41,3.82-.45,4.31-.55.7.08,1.15.43.84.74,1.45.47a15.55,15.55,0,0,0,2.23-1c.36-.3,1.23-.11,1.77.12a28.47,28.47,0,0,0,4.32,1.32,8.14,8.14,0,0,0,4-.84c1-.66.92-.27,2.42.17s1.86.46,2.12,0,1.2.45,1.75-.3a6.31,6.31,0,0,0,1-1.83c0-.25-1.15-.59-1.71-.77l-1.82-.6c-.7-.23-.48-.73-.2-.63s3.27,1.54,3.9,1.33,1.66-.49,1.92-1.28a.93.93,0,0,0-.59-1.33c-.47-.15-1.44,0-2.24-.27a25.58,25.58,0,0,1-3.31-1.24c-.37-.28-2.54-1.87-3-2.08s-1.65-.8-1.65-.8.42-.64.31-.78a4.66,4.66,0,0,0-2.76-.08c-.7.39-2.31.74-3.52,1.27a7,7,0,0,1-2.76.69,11.36,11.36,0,0,0-1.27-.06c-.25,0-2.48.32-3.29.42s-7.83-.25-9.13-.37-7.22-1.29-8.06-1.41-4.6-.48-6-.63-5.06,0-7-.95-3.37-3.12-4.28-3.79-1.08-1.59-.52-1.88a23.14,23.14,0,0,1,2.78-1.21A13.72,13.72,0,0,0,51,32.4c1.31-1.17,5.9-5,7.52-6.83A34.36,34.36,0,0,1,63,21.22a9,9,0,0,1,3.66-1.38c1.13-.14,2.3.24,3.44-.42s3.81-2.16,4.62-2.57a3.31,3.31,0,0,0,1.59-1.39c.21-.5.6-1,.64-1.18a.79.79,0,0,0-.67-.79c-.58-.14-1.19.33-1.72.67s-2,1.72-2.35,1.65.66-1.69,1-2.55a7,7,0,0,1,1.23-2.18c.53-.5.65-.41,1-1.11a27.42,27.42,0,0,0,1.74-3.1c.26-.79.09-1.21-.59-.87A10,10,0,0,0,74.4,8.21c-.16.31-2.15,2.45-2.15,2.45a2.29,2.29,0,0,1-.84-.12,3.21,3.21,0,0,0-1.31-.28,12.23,12.23,0,0,1-1.25.21,10.54,10.54,0,0,0-2.93,2c-.76.73-2.31,2.29-2.83,2.63s-5.9,3.48-6.89,4.14S50,23,48.16,23.87a37.12,37.12,0,0,0-5.64,3c-1,.79-3.06,2.71-4.87,3.36s-4,1.61-4,1.61l-.42-.29a4.81,4.81,0,0,0,.62-.78,7.13,7.13,0,0,0-1.56-2.17,34.92,34.92,0,0,1-3-4.24c-.25-.5-.33-.57.06-.5a1.65,1.65,0,0,0,1.54-.43c.48-.51,1.22-1.35,1.12-2a4,4,0,0,0-.86-1.63,1,1,0,0,1-.27-.91c0-.45.14-.73-.34-1s-.55-.39-.42-.76.43-1,.15-1.24-.16-.62-.05-.95.46-.78-.24-1.32a6.49,6.49,0,0,0-1.87-.92c-.28-.09-.65.1-.9-.4s-.56-.65-.33-1a3.49,3.49,0,0,0,.71-1.37L28.16,8c.31-.93-.35-1.3-.91-1.8s-.64.05-1.35-.6a8,8,0,0,0-1.1-.88,61.87,61.87,0,0,0-5.06-3.63C18,.11,14.08-.1,12.94,0A39.57,39.57,0,0,0,8.88,1.08Z"/><path class="cls-1" d="M24.74,102.29s-1.49,5.53-1.94,6.57-1.07,1.44-1.85,1.18-1.76-.91-1.65-1.41A26,26,0,0,1,20,106c.11-.18.52.06.65-.49s.34-1.35.34-1.35a1.27,1.27,0,0,1-.07-.62c0-.42-.1-.85.41-.9a13.62,13.62,0,0,0,2.54-.79C24.23,101.69,24.87,101.9,24.74,102.29Z"/><path class="cls-1" d="M47.51,53.66S44.82,51.8,44,51.41s-3.12-1.24-3.12-1.24.2.55.4,1.27a14.53,14.53,0,0,1,.65,3.3,15.64,15.64,0,0,1-.31,2.94c-.18.54,1.41-.84,2.23-1.33s2.34-1.51,2.86-1.77A2.32,2.32,0,0,0,47.51,53.66Z"/></g></g></svg>