<svg xmlns="http://www.w3.org/2000/svg" viewBox="0 0 154.6 152.78"><defs><style>.cls-1{fill:#fff;}</style></defs><title>Asset 23</title><g id="Layer_2" data-name="Layer 2"><g id="Layer_1-2" data-name="Layer 1"><path d="M32.38,87.76a32.18,32.18,0,0,1,12.73,2.61l-.38-.85a1.7,1.7,0,0,0,.36-.82A1.59,1.59,0,0,1,46,87.57c.46-.18,1.09.36,1.36.55s.55-.14.55-.14A7.28,7.28,0,0,1,48,87c.09-.36.82-.5.82-.5s.14-.27.23-.5a2.49,2.49,0,0,1,.5-.59s.23-.5.45-1.18a55.82,55.82,0,0,1,3-5.49,14,14,0,0,1,3.08-2.13s-.5-2.22-.55-2.45a.9.9,0,0,0-.86-.5c-.36,0-.45-.45-.59-.68s.32-.64.32-.64-1.64-3.22-2-4.13-.82-2.72-1.18-3.49-1.59-.32-2.18-.32-.36,0-.77-.27S48,63.7,48,64s.23.77-.5,1-.77-.23-.77-.45,0-.77-.41-.77-1.91-.18-2.36-.18-2.45-.32-3-.41A.91.91,0,0,1,40.19,62c.14-.36.77-1.13.82-1.54a13.65,13.65,0,0,0,.41-1.91A20.24,20.24,0,0,1,42,56c0-.32.68-.27,1.41-.09s.45-.23.45-.23,0-.41-.23-.54a18.52,18.52,0,0,1-2.32-2.31c-.27-.45.5-1.41.32-1.72s-.77-3.36.32-7.85,7.17-10.3,7.85-11.12,8-7.17,8.21-7.35,4.13-2.54,5.26-3.13,6.62-3,9.53-4.27A38.33,38.33,0,0,1,83.3,14.83c3.13-.23,10.21.18,12.43.14a26.3,26.3,0,0,1,5.36.82c.23,0,.55-.54.86-1A11,11,0,0,1,103,13.33a.88.88,0,0,0,.18-1.18,3.67,3.67,0,0,1-.36-2,14.82,14.82,0,0,1,1.45-4.49c.68-1.45,1.13-1.81,1.41-1.81a.94.94,0,0,0,.77-.91c0-.54.27-2,.45-2s.27-.27.41-.73,2.27,0,2.81,0a23.31,23.31,0,0,1,3.45,1.22c.86.36,4.67,2.41,6.81,3.54s2.9,2.5,4.58,5,1.86,3.9,1.86,4.81.32,5.08.45,6.08,0,1.54-.27,1.72-1.31-.18-1.9-.27-2.23-.59-2.23-.59-.91,1-1.13,1.41a9,9,0,0,1-1.27,1.54c-.27.18,0,.41,0,.73s.09,1.59.09,2a.92.92,0,0,1-.86.82,2.16,2.16,0,0,1-.91-.27c-.18-.09-.5.09-.68.14s-.27.27-.27.5-.18.82-.45.86-.45-.18-.64-.23-.45.14-.45.5a2.94,2.94,0,0,1-.09,1c-.09.23-.77.27-1,.23a3.83,3.83,0,0,0-.73,0,5.72,5.72,0,0,1-.36,1.32c-.27.64-1.27.32-1.77.36a2.12,2.12,0,0,1-1.41-.73c-.23-.27-.41-.09-.32.68a31.52,31.52,0,0,1,0,4.22,7.31,7.31,0,0,0-.09,2.41c.18.27,1.68,4.72,1.91,5.49a50.17,50.17,0,0,0,2,5.72c.5.82,2.5,1.91,3.54,2.54s4,2.18,4.67,2.54a5.4,5.4,0,0,0,1.59.77c.32,0,3.27.45,3.81.59a3,3,0,0,0,2-.54c.45-.32,3-2,3.63-2.27s1.5.41,1.5.41a1.89,1.89,0,0,0,.91,0c.36-.14.86.36,1.13.54a7.94,7.94,0,0,1,1.45.68c.41.36.5.27.5.54s.41.27.41.27l.27-.09a2.82,2.82,0,0,1,.82.32.22.22,0,0,1,0,.36,6.47,6.47,0,0,0,1,1c.59.45.27,1.41.27,1.77s-.54.73-.54.73,0,.68,0,1.23-.82,1-.82,1.36-.54.86-.54.86a2.17,2.17,0,0,1-.09.64c-.09.23-.91.86-1,1.23s-.27.54,0,.82-.41,1-.86,1.68a2.89,2.89,0,0,0-.32,2.59c.32,1.13-.32,3.5-.32,4.36a12.83,12.83,0,0,0,1.45,3.95c.41.64-.09.91-.86.23s-.86-2.77-1.27-3.45,0-2.41,0-3.31-.14-2-.32-2a4.73,4.73,0,0,0-1.54.5,5.85,5.85,0,0,0-1.77,2,12.24,12.24,0,0,0-.63,3.31c0,1.22-1.72,2.86-2.5,4.08a14.2,14.2,0,0,1-3.58,3.4,7.32,7.32,0,0,1-3.45,1c-.5,0-1-1.54-.91-2.13s1.82-.73,2.41-1a17.15,17.15,0,0,0,3.22-2.22,18.83,18.83,0,0,0,2.23-4c.23-.59.18-2-.14-2s-.77-1-1-1.36-.59-.59-.59-.36a8.61,8.61,0,0,1-1,1.68,25,25,0,0,1-3.22,3.58,34.58,34.58,0,0,1-5.17,3.5,4.6,4.6,0,0,0-1.9,1.41c-.55.68-3,2.45-3,3s.55,1.18.68,2a1,1,0,0,0,1.09.82,3.46,3.46,0,0,1,1.54.27c.55.27.27,1.86.27,2.09s.53.07.36.47a31.41,31.41,0,0,1,6.12-.6c16.88,0,30.56,13.38,30.56,29.89S140.92,149.94,124,149.94s-30.56-13.38-30.56-29.89a29.86,29.86,0,0,1,17.75-27.14l-1,.15c.14,0-.14-.45-.14-.45a2.27,2.27,0,0,0-.54-.14c-.18,0,0-.5,0-.5s.5-.27.5-.55.54-1.45.32-1.45-.32-1-.32-1v-.59s-.59.18-.82.27-.41.82-.59,1.14-.18.5-.68.54-.5-.27-.5-.27l-.5.59-10.17,10s-8.26,8.67-8.17,8.81a5.71,5.71,0,0,0,1.18,1.18c.41.23.68.45.54.82a2.58,2.58,0,0,1-1.13,1c-.5.27-.82-.5-1.14-1s-1.23-.55-1.23-.55l-9.62,10.3a5.2,5.2,0,0,0,.54,1.27c.32.45.36,3.95.18,5.9s-2.86,4.63-3.22,4.68-.18.77.23.91,2.31.27,3,.86a2.57,2.57,0,0,1,.32,2.5c-.23.36-3,1.09-3.54,1.13s0,.45.23.77a.38.38,0,0,1-.23.64,4.7,4.7,0,0,1-1.23.18c-.82,0-1,.14-1,.45a6.44,6.44,0,0,1,.18,1.18c0,.5-.86,1.09-1.18,1.14a2.33,2.33,0,0,1-1.32-.68,2.06,2.06,0,0,0-1.18-.73,14.32,14.32,0,0,1-3.18-1.13c-.91-.45-.27-2.9-.27-3.27s0-1-.23-.86-3.63,0-4.27,0l-.51,0A32.42,32.42,0,1,1,32.38,87.76Z"/><path class="cls-1" d="M129.73,64.52s-1-.59-1.09-.73a17.41,17.41,0,0,0-2.45-.77c-.27,0-.36.36-.14.41a4.91,4.91,0,0,1,1.45,1.18c.18.32.59.73.59.86s.59-.23,1-.36A1.84,1.84,0,0,0,129.73,64.52Z"/><path class="cls-1" d="M127.6,65.83s-1.63-2.36-2-2.31-.59.68-.73.91,0,1,.09,1.5,0,1.41.23,1.41a9.79,9.79,0,0,0,2-1.09Z"/><path class="cls-1" d="M133.68,67.38s-1.54,1.36-1.91,1.32.27-.64.45-.82a7.12,7.12,0,0,1,1.23-.59Z"/><path class="cls-1" d="M124,67.33,123.69,66l-1.54.86a1.69,1.69,0,0,0,.59.27C123.1,67.24,124,67.33,124,67.33Z"/><path class="cls-1" d="M120.92,63l-1.86,0V64a3.61,3.61,0,0,0,1.18-.18A2.16,2.16,0,0,0,120.92,63Z"/><path class="cls-1" d="M127.87,71.41s-.86,1.9-1.09,1.9-.64-.36-.55-.63A8.85,8.85,0,0,1,127.87,71.41Z"/><path class="cls-1" d="M127,71s-1.54,0-1.72-.23.23,1.13.32,1.41.77-.27,1-.45A1.3,1.3,0,0,0,127,71Z"/><path class="cls-1" d="M125.15,72.69,124,70.37s-1.91-.18-2.27-.18a4,4,0,0,0-1,.27,10.93,10.93,0,0,1-.45,1.32c-.27.63-2.22,4.58-3.18,5.4a12.7,12.7,0,0,1-2.41,1.5s-1.13,3.95-1.09,4.22.86-.27,1.22-.41A22,22,0,0,0,117,81.26a35,35,0,0,0,3.18-3.58,48.33,48.33,0,0,1,3.5-3.86A8.45,8.45,0,0,1,125.15,72.69Z"/><path class="cls-1" d="M126.28,74.14s-.91-.59-.91-.77-4.86,4.72-5.31,5.08a14.13,14.13,0,0,0-1.45,1.77,2.19,2.19,0,0,0,.73-.18A52.39,52.39,0,0,0,125,76,12,12,0,0,0,126.28,74.14Z"/><path class="cls-1" d="M113.8,78.86a13.82,13.82,0,0,1-1.86,1c-.23,0,.64,3.5.64,3.5a9.84,9.84,0,0,0,.27-1.32,18,18,0,0,1,.82-2.63A1.53,1.53,0,0,0,113.8,78.86Z"/><path class="cls-1" d="M116.07,71.78s.27-1.23-.91-1.23-5.13.27-5.13.27l-.45-.59s-.68-.5-.68-.23.32,1.77.32,1.77.18-.14.36.18.59.18.59.5.82,4.4.82,4.4a1.54,1.54,0,0,0,.82,0c.5-.09,2.77-.64,3.49-2A8.11,8.11,0,0,0,116.07,71.78Z"/><path class="cls-1" d="M115.62,82.4l-2.18,1.27s-.23.91,0,.73S115.62,82.4,115.62,82.4Z"/><path class="cls-1" d="M113.94,86.93a4.16,4.16,0,0,1,.64,1,.58.58,0,0,1-.14.64s-.27-1-.45-1-.27-.54-.27-.54Z"/><path class="cls-1" d="M108.13,79a3.31,3.31,0,0,0-1.54-.45l-4.35,0a3.56,3.56,0,0,0,1,.32Z"/><path class="cls-1" d="M108.58,79.81,102.41,79c-.27,0-1.23.27-1.5.18a10.87,10.87,0,0,0-2-.64H88.52s-2.9,2.54-3.9,3.27S78.9,85.53,77.36,87a61.24,61.24,0,0,0-4.77,5.35c-.73,1-2,2.59-2,3.18a19.94,19.94,0,0,0-.27,2.36,4.09,4.09,0,0,0,.77,1.68,3.66,3.66,0,0,1,.68,1.68c0,.59.41,1.86.41,2.54a3.11,3.11,0,0,0,1.13,2c.55.41,4,2.31,4.4,2.68s1.54,1.36,2,1.86.77.86,1,.41.73-1-.09-1.45-4.63-3.77-4.68-4.13A3,3,0,0,1,77,102.86c1.14-1.13,3.22-3.45,3.22-3.45a2.27,2.27,0,0,0,.68-.23c.18-.14-.27-.68-.27-.68l.32-.45.45.27,6.22-6.81a.85.85,0,0,0,.86-.36c.41-.5,1.32-1.41,1.77-1.36a4.65,4.65,0,0,1,1.5.77c.18.14.5-.18.68-.45s.36-.32.5-.5.14-.32.36,0,.32.54.45.64.5.45.27.5-.68.55-.68.55-.18,1,.32,1.32a1,1,0,0,1,.36,1.31c-.23.32-.64,1.09-.91,1.09s-.41.73-.41,1a27.94,27.94,0,0,1-2.31,2.95s.36.82,0,1-4.54,5.26-4.54,5.26-.23.64.18.73S96.33,94.74,96.33,94.74s6.81-6.94,7.72-7.94,4.58-4.67,4.58-4.67S108.9,79.85,108.58,79.81Z"/><path class="cls-1" d="M89.79,99.73,86,104s0,.18.41-.09,3.49-3.9,3.49-3.9Z"/><path class="cls-1" d="M78.77,112.85s-3.59,0-3.81,0,0,1-.32,1.13a21.87,21.87,0,0,1-3.9.45c-.36,0-.18,1,0,1.18a3,3,0,0,0,1.41.5,4.66,4.66,0,0,1,2.18,1c.36.41,4.4-3.9,4.4-3.9Z"/><path class="cls-1" d="M76.36,123.15a7.11,7.11,0,0,1,.36,3.95c-.45,2.09-1.32,3-1.54,3s-.73,0-.41-.73,1.27-2.63.91-4a9.37,9.37,0,0,1-.36-2.18S76,123,76.36,123.15Z"/><path class="cls-1" d="M74.55,124.65a5.31,5.31,0,0,1,0,2.72c-.41,1.13-1,1.68-1.32,1.59s-.36-1.63-.54-1.91a1.09,1.09,0,0,1,.32-1.41A5.87,5.87,0,0,1,74.55,124.65Z"/><path class="cls-1" d="M72.64,133.13s.77-.36.82-.86l.09-1a8.18,8.18,0,0,0-1.27.73C72.05,132.22,72.41,133.13,72.64,133.13Z"/><path class="cls-1" d="M72.14,130.91a3.71,3.71,0,0,0-.73-1.18.66.66,0,0,0-.91,0,8.37,8.37,0,0,0,.14,1.81c0,.23.64,0,.91-.14A2.38,2.38,0,0,0,72.14,130.91Z"/><path class="cls-1" d="M62.52,135l-.09-.05L61,134.18l-.73.91a14.12,14.12,0,0,0,1.41.18A2.26,2.26,0,0,0,62.52,135Z"/><path class="cls-1" d="M59.52,90.52,57.3,80.81s0-1-.5,0-6,11.66-6,11.66,1.86,1.13,2.77,1.86,2,1.77,2.32,2,1.77-2.27,2-2.45.18.23.82-.5S59.43,90.75,59.52,90.52Z"/><path class="cls-1" d="M55.21,77.9a8.68,8.68,0,0,0-2.9,2.77c-.91,1.63-2.13,4.54-2.13,4.54s.23.5.41.32,2.72-4.27,3.31-5A15,15,0,0,0,55.21,77.9Z"/><path class="cls-1" d="M82.85,65.74l-7.31-1.45-5.67-.23s.32,1.77.68,3.81.55,2.86.73,4.13a18.94,18.94,0,0,0,.36,2,10.07,10.07,0,0,0,2.45.41c.41-.14,2.22-3.31,3.63-4.35s3.22-2.45,4.13-3.09S82.85,65.74,82.85,65.74Z"/><path class="cls-1" d="M111.94,62.07a.26.26,0,0,0-.27.18s.54.5.77.73a4.45,4.45,0,0,1,.36.41,9.52,9.52,0,0,0-1.77.32c-.68.23-.14,1.5-.36,1.54s-.82-.14-1.36-.14S107.9,65,107.9,65a9.79,9.79,0,0,1-.32-1.59c0-.23-.77-.32-1.13-.27a9.93,9.93,0,0,0-1.63.73l.23,1.63a1.13,1.13,0,0,0-.59.27c-.36.27,0,1.18.14,1.27a5.89,5.89,0,0,0,1,.23l.14.82a3.4,3.4,0,0,1-.68.59c-.27.14-.09,1,.27,1.18s1,.14,1,.36.36,1.68.41,1.91,0,.32-.14.68a2.47,2.47,0,0,0-.14.86c0,.45.5.23.5.23a3.12,3.12,0,0,0-.18.82c0,.32-.73.36-.73.36s-12.62-.32-13.21-.32h-.68l1.32-1.63s5.26-5.54,6.08-7.94-1.5-5.67-2-6-6-5.72-6.58-6.08a33.45,33.45,0,0,1-3.72-3c0-.18-.45-.45-.64-.55s-2.59-2-3.18-2.27S79,45.18,78.81,45s-.09-.5.36-.59,2-1.18,2.27-1.18,3.4-.77,4.45-1,4.72-1,4.72-1c.64,0,1.68-.23,1.68.27s1.23,3.09,3.54,6.62,3.27,6.76,4,8.08a3.57,3.57,0,0,0,1.82,1.82c.18,0,4.63,1.18,4.63,1.45s.86,1,1,1.27a1,1,0,0,0,.68.54c.23,0,.77-.45,1-.36s3.08.18,3.08.18Z"/><path class="cls-1" d="M131,97.92l-6.16,19.9h-.6c-.22,0-.82-20.77-.82-20.77A21.43,21.43,0,0,1,131,97.92Z"/><path class="cls-1" d="M138,101.52a23,23,0,0,0-3.82-2.29c-1.69-.71-2.73-1.2-2.78-1l-6.27,19.68a6.65,6.65,0,0,0,1.15-1.15C126.79,116.08,138,101.52,138,101.52Z"/><path class="cls-1" d="M146.74,114.93l-19.46,3.93L143.91,108a33,33,0,0,1,1.8,3.11C146,111.88,146.74,114.93,146.74,114.93Z"/><path class="cls-1" d="M125.86,120.39a3.53,3.53,0,0,0,1.36.76l20.23,1.91s.06-3.82.06-4.69a18.46,18.46,0,0,0-.38-2.67,20.93,20.93,0,0,0-2.4.22L128.21,119a7.84,7.84,0,0,0-1.85.49A3.78,3.78,0,0,0,125.86,120.39Z"/><path class="cls-1" d="M144.67,130.47l-17.07-9a5.47,5.47,0,0,1,.82-.05c.49,0,18.86,2.07,18.86,2.07s-.87,3.49-1.09,4.09S144.67,130.47,144.67,130.47Z"/><path class="cls-1" d="M144.4,131.4s-17.61-10-17.94-10-1,.22-1,.54,6.33,7.09,6.92,7.58,7.47,7.47,7.47,7.47a19,19,0,0,0,2.51-2.23A14.35,14.35,0,0,0,144.4,131.4Z"/><path class="cls-1" d="M139.38,137l-14.12-14.77,7.25,19.35s5.62-2.67,6.49-3.65S139.38,137,139.38,137Z"/><path class="cls-1" d="M124.88,143.23l-.6-20.61a1.45,1.45,0,0,0,.54-.17c.11-.11,7.69,19.14,7.69,19.14a36.5,36.5,0,0,1-4,1.47A12.9,12.9,0,0,1,124.88,143.23Z"/><path class="cls-1" d="M123.19,122.4l-6.31,19.89s2.06.55,3.75.83a15.33,15.33,0,0,0,4,.16c.17-.11-.71-20.66-.71-20.66Z"/><path class="cls-1" d="M123,122.18l-13.3,16.14a19,19,0,0,0,3.54,2.67c1.2.49,3.36,1.64,3.6.11C117.22,138.77,123,122.18,123,122.18Z"/><path class="cls-1" d="M120.57,121.64l-19.35,3.22a8.9,8.9,0,0,0,.65,3.16,33.49,33.49,0,0,0,1.91,4s6.32-3.76,7.3-4.36S120.57,121.64,120.57,121.64Z"/><path class="cls-1" d="M121.77,121a17.75,17.75,0,0,1-3.05-1.15,3.52,3.52,0,0,0-1-1c-.22-.05-16.85-1.85-16.85-1.85a35.24,35.24,0,0,0-.16,5.78c.27,1.25.38,1.74,1,1.58S121.77,121,121.77,121Z"/><path class="cls-1" d="M119.48,118.26l-16.19-8.72a28.26,28.26,0,0,0-1.69,3.54,15.63,15.63,0,0,0-.65,2.95c0,.16.6.6,1.47.71L117,118.64s.22-.6.6-.6S119.48,118.26,119.48,118.26Z"/><path class="cls-1" d="M122.15,119.13s-4-5.34-4.47-6.05-9.16-9.87-9.16-9.87a12.16,12.16,0,0,0-3.11,2.56,13.37,13.37,0,0,0-1.58,2.83c0,.44,6.16,4,7.42,4.69s10.68,6.16,10.68,6.16Z"/><path class="cls-1" d="M108.85,102.56l8.18,9.27s-2.29-4.47-2.78-5.78-1.36-3.43-1.42-3.6-1.36-1.91-1.36-1.91S108.69,102.28,108.85,102.56Z"/><path class="cls-1" d="M123.68,116.84l-.87-20s-3.54.49-4.47.76-2.4.76-2.4.76,3.44,9.92,4.42,11.88S123.68,116.84,123.68,116.84Z"/><path class="cls-1" d="M125.81,119.13s.82-.38,1.91-.93,15.92-10.8,15.92-10.8a16.23,16.23,0,0,0-5-5.23c-.38-.06-13.36,15.87-13.36,15.87S125.64,119.13,125.81,119.13Z"/><path class="cls-1" d="M122.59,121.31s-.44-.38-2.29.82-16.19,10.25-16.19,10.25,1.42,2.13,2.18,3a28,28,0,0,0,2.83,2.62c.49.38,13.79-15.7,13.79-15.7S122.43,121.8,122.59,121.31Z"/><path class="cls-1" d="M47.92,101.06,35.5,114.42l8.22-16.16s1.62,1,2.18,1.29A18.24,18.24,0,0,1,47.92,101.06Z"/><path class="cls-1" d="M42.94,98s-4.81-1.79-5.15-1.79-5.59,17.17-5.59,17.17a17,17,0,0,0,.67,2,1.22,1.22,0,0,0,.78.5c.28,0,1.12-.45,1.18-.78S42.94,98,42.94,98Z"/><path class="cls-1" d="M30.91,95.74l1,17.39,5.2-17.06s-2.85-.61-3.47-.61S30.86,95.52,30.91,95.74Z"/><path class="cls-1" d="M32.76,115.54,32.09,114l-.28,1.06s-.17.56.17.67S32.76,115.54,32.76,115.54Z"/><path class="cls-1" d="M31.58,112.19,30.35,95.74A14.57,14.57,0,0,0,26.6,96c-1.12.39-2.12.78-2.12.78Z"/><path class="cls-1" d="M31.36,115.82l.34-2.8s-3.75-7.83-4.42-9.06S24,97.09,24,97.09a14.69,14.69,0,0,0-3.41,1.12,11.63,11.63,0,0,0-2,1.4s3.58,5.76,4.36,6.94,6.38,10.07,6.38,10.07l.56.06a2.18,2.18,0,0,0,.45-.5c.17-.28.17-.22.61-.17S31.36,115.82,31.36,115.82Z"/><path class="cls-1" d="M29.18,116.88,18.1,100a5.75,5.75,0,0,0-2,1.23c-.61.73-2.35,2.07-2.35,2.35s7.66,7.89,8.61,9,4.08,4.53,4.08,4.53.84.11,1.12.11A13.94,13.94,0,0,0,29.18,116.88Z"/><path class="cls-1" d="M25.88,117.11,13.4,104.41a8,8,0,0,0-2,1.9c-.5.89-1.45,2.46-1.45,2.63a5.75,5.75,0,0,0,2,1.29c.73.28,12.3,6.65,12.3,6.65Z"/><path class="cls-1" d="M28.73,117.78s.06.34-.11.34-.67.11-.67.28-.73-.22-.73-.22a1.77,1.77,0,0,1,.73-.45A2.36,2.36,0,0,1,28.73,117.78Z"/><polygon class="cls-1" points="26.49 117.95 25.6 117.22 26.66 117.5 26.49 117.95"/><path class="cls-1" d="M23.42,116.72l-13.48-7.1a24.6,24.6,0,0,0-1.4,2.91,22.71,22.71,0,0,0-.62,2.69Z"/><path class="cls-1" d="M26.16,118.28a8.41,8.41,0,0,0-2.63-1.17c-.78,0-15.83-1.4-15.83-1.4a25.08,25.08,0,0,0-.45,4.64c.17,1.17.22,1.45,1,1.4s16.5-.39,16.5-.39a3.94,3.94,0,0,1,.5-2.18A10.3,10.3,0,0,1,26.16,118.28Z"/><path class="cls-1" d="M28.06,119.23l-1.28-.84a7.45,7.45,0,0,0-1.12,1.34c-.06.28-.33,1.17-.39,1.34a14.23,14.23,0,0,0,2.68.06s-.45-.39-.22-.5.28-.06.28-.45a.92.92,0,0,0-.22-.62Z"/><path class="cls-1" d="M24.7,121.64l-17.34.61A22.61,22.61,0,0,0,8,126.78c.5,1.4.28,1.73,1.06,1.51s16.67-4.08,16.67-4.08a7.15,7.15,0,0,1-1-1.79C24.76,121.92,24.7,121.64,24.7,121.64Z"/><path class="cls-1" d="M28.17,121.47l-.06.45L26.77,124s-.62.22-.84-.06-1.12-2.07-.84-2.35S28.17,121.47,28.17,121.47Z"/><path class="cls-1" d="M28.45,122.36,27.28,124a6.44,6.44,0,0,1,.89-.45c.23-.06.5-.45.5-.45s-.28-.22-.17-.39S28.45,122.36,28.45,122.36Z"/><path class="cls-1" d="M29.85,125.27a4.91,4.91,0,0,0-.06-1.23c-.11-.22-.5-.28-.78-.28a14.17,14.17,0,0,0-2,.89s.06.67.39.67h1.23C29,125.33,29.9,124.88,29.85,125.27Z"/><path class="cls-1" d="M25.88,124.54l-17,4.64s1.51,3.86,2.18,4.53,15-8.78,15-8.78Z"/><path class="cls-1" d="M25.54,125.55l-13.42,9a10.13,10.13,0,0,0,2,3c1.12,1,2.07,2,2.46,1.29S25.54,125.55,25.54,125.55Z"/><path class="cls-1" d="M26.55,125.16a1.39,1.39,0,0,0,1,.73c.67.06.61.45,1,.45a2.75,2.75,0,0,1,.78.17l-7.72,16.16s-2.24-1.12-3.52-1.79a3.08,3.08,0,0,1-1.57-1.51l9.68-14.15Z"/><path class="cls-1" d="M29.9,126.33l-7.83,16.55a8.24,8.24,0,0,0,2.29,1.17c1.18.34,2.69.73,3.08.84s5.09-16.83,5.09-16.83,0-.67-.17-.78a.68.68,0,0,1-.34-.67c.06-.33-.28-.95-.45-.95s-.5.61-.67.61Z"/><path class="cls-1" d="M32.59,129.08,28.23,144.9a14.88,14.88,0,0,0,2.8.5c1.23.06,3.19,0,3.19,0l-1.06-12.25a4.13,4.13,0,0,0-.89-.56c-.17,0-.5-.39-.11-.62s.34-.22.34-.78.39-.62.39-.9A8.34,8.34,0,0,0,32.59,129.08Z"/><path class="cls-1" d="M33.65,133.6l1.23,11.58a21.29,21.29,0,0,0,3.63-.45,5.55,5.55,0,0,0,2.13-.78l-5-10.12a9.85,9.85,0,0,1-1.57-.11Z"/><path class="cls-1" d="M46.4,141.15l-3.91-5.82s-3.86-.78-4.75-1-1.45-.39-1,.45S41,144,41,144,46.07,142.1,46.4,141.15Z"/><path class="cls-1" d="M51.6,136.74s-4.47-.89-5.09-1-3.69-.56-3.69-.56l4,5.76a18.63,18.63,0,0,0,2.8-2.13Z"/><path class="cls-1" d="M33.15,129.47l-.28-1.4s-.06.17.28.39.73.62.5.73S33.15,129.47,33.15,129.47Z"/><path class="cls-1" d="M41.48,134.05l-4.92-6.82s-.5-.17-.45.11.67.67.61.84-.61.11-.89.5a1.05,1.05,0,0,0-.11,1.12,3.14,3.14,0,0,1,.73,1.34,2.2,2.2,0,0,1-.39,1.51s0,.78.17.78,5.26.89,5.26.89Z"/><path class="cls-1" d="M49.93,135.34,39.41,124.43s-2.12-.67-2.46-.84-1.12.17-1.12.17-.17-.06.45.84.56,1.34.39,1.68.23.45.62.39.22.39.22.39l-.67.06,5,7.21,6.88,1.06Z"/><path class="cls-1" d="M52.39,135.73s-1.12.11-1.34-.11l-10.29-10.4,6.54,3.08s.84,1,1.29,1a8.08,8.08,0,0,1,1.62.22.86.86,0,0,1,.67.78c0,.28.5.73,1.18.67s2,.06,2.4-.06.9.17.67.61S52.39,135.73,52.39,135.73Z"/><path class="cls-1" d="M47.13,125.89l-7.38-1.79s.39.56.73.56,7,3.07,7,3.07a1.73,1.73,0,0,0,.06-.5c0-.34-.5-.78-.5-1A2,2,0,0,1,47.13,125.89Z"/><path class="cls-1" d="M39.75,122.19s-.89-.56-1.17-.67a6.23,6.23,0,0,0-1.29-.11s-.34.62.06.62S39.75,122.19,39.75,122.19Z"/><path class="cls-1" d="M57.48,118.9l-16.61,1.56,16.56,3.47s.33-3,.33-3.58A6.41,6.41,0,0,0,57.48,118.9Z"/><path class="cls-1" d="M57.42,117.67,38,117.22s-.73.56-.84,1a3.24,3.24,0,0,0,.06,1.17,1.53,1.53,0,0,0,1.18.56c.84.05,1,.5,1.51.39s17.51-1.85,17.51-1.85Z"/><path class="cls-1" d="M56.19,112.91l-16.84,3.52s-.56.34.06.34,18.07.34,18.07.34l-.22-1.4-2,.23-.22-.39,2.07-.5S56.58,113,56.19,112.91Z"/><path class="cls-1" d="M53.56,107.21l-14,9.06L56,112.41s-1.23-3.3-1.51-3.75S53.56,107.21,53.56,107.21Z"/><path class="cls-1" d="M52.84,105.86s-2.63-2.69-2.8-2.8S42,110.9,42,110.9l-3.3,5.31s5.2-3.13,6.38-4,8-5.65,8-5.65Z"/><path class="cls-1" d="M41.26,111.46l-4.87,5a4,4,0,0,0,.67.11c.22,0,1.06-.11,1.06-.11Z"/><path d="M54.81,106s.2,7.06.34,7.87a14.45,14.45,0,0,1,.47,4.23c-.2,1.55-.2,4.51-.2,4.51s-4.57,4.51-4.57,5.31.07,5.18.94,5.31a19.41,19.41,0,0,1,2.76.87S60,120.3,59.85,118.15s-2.69-10.49-3.56-11.57S54.81,106,54.81,106Z"/></g></g></svg>