<svg xmlns="http://www.w3.org/2000/svg" viewBox="0 0 141.12 152.94"><defs><style>.cls-1{fill:#18560b;}</style></defs><title>Asset 22</title><g id="Layer_2" data-name="Layer 2"><g id="Layer_1-2" data-name="Layer 1"><path d="M76.73,146.44c-1-.09-1.57-.37-1.85-.19s.16.79.94,1.19A2.4,2.4,0,0,1,76.73,146.44Z"/><path class="cls-1" d="M12,22.21l0,.05C12.06,22.23,12,22.21,12,22.21Z"/><path d="M140.84,26.4c-.44-.13-1.08-.4-1.08-.4s.89-.45.67-.67-.27-.76-.76-.76-6-.15-7.49-.15a13.72,13.72,0,0,0-3.91.34,9.31,9.31,0,0,0-1.68.94l-.13-.87s-.47.13-1.18.4-.89-.73-1.28-.34-.51.34-1.45.34a3.31,3.31,0,0,1-2-.54c-.27-.27-.13-1.31-.94-1.62a3.53,3.53,0,0,0-2.89.64c-.52.52-.64.1-1.68-.24s-5.62-1.72-6.2-1.89-1.89-1.11-2.83-1.41-3.64,0-4.31-.3-1.68-1.11-2.83-.71-2.36,1.25-3.3,1.25S94.18,20,93.33,20a9,9,0,0,1-3-.81c-1.21-.47-.91-.81-2.26-.64s-2,.89-2.76.1a8.45,8.45,0,0,0-2.39-1.55A7.25,7.25,0,0,0,80,16.3c-.74,0-.25-.25-.91-.91a4.73,4.73,0,0,0-3-1.11c-1,0-2.16.3-2.46,0s-2.05,0-2.93-.24-1.82-1-2.76-1-2.91,0-2.36-.54,2.19-2.59,2.19-2.59,3.18-.22,4-1,1.35-2.06.79-2.63-4.33-2.49-5.71-2.49a25,25,0,0,1-5.05-.34A22.89,22.89,0,0,1,59,2c-.12-.12-1-1-1.85-.81a9.56,9.56,0,0,0-3,1.82A12.59,12.59,0,0,0,52.8,4.75a34.23,34.23,0,0,0-3.3-2.19c-1-.47-2.74-.79-3.2-1.25A4.17,4.17,0,0,0,43.23,0c-1.65,0-5.09-.17-7.54,2.73S30.84,8.55,30.4,9.6s0,2.54-1.35,2.89-2,1.11-2,1.69.91.71.91.71-.64.67-1,.67-.88.91-2.26.91-2.46-.33-3.33,0-.87-1.21-2.59-.2-3.67,1-4.48.17-1.11-.68-1.11-.5-2.83-3.33-4.11-4.21S5.29,8.86,4.78,8.86A11.25,11.25,0,0,0,1.58,10C1.3,10.29,0,11.68,0,12.19s.07.86.35.86a.86.86,0,0,0,.53-.24S.39,13.92.32,14.19A1.22,1.22,0,0,0,.4,15c.08.08.21.07.37-.09,0,0-.43.64-.25,1s.34.56.73.5a1.72,1.72,0,0,0,.93-.46,2.08,2.08,0,0,1,1.27-.71c.53,0,1-.23,1.54,0s1.89.58,1.72.74a1.45,1.45,0,0,1-1,.25,10.77,10.77,0,0,0-2.17.4,3.3,3.3,0,0,0-1.08.58c-.34.34-.53.62-.34.81s.35.45.76.45a3.84,3.84,0,0,0,1.2,0A5.75,5.75,0,0,1,7,18.45c.76.38,1.57,1.71,2.29,2.42s1.14,1.44,2,1.44a2.46,2.46,0,0,0,.66,0l0-.05s.05,0,0,.05c-.07.18-.32.75-.43.75a6.31,6.31,0,0,0,1.46.2c.61,0,2.47.23,2.47.51s.95.09,1.46.61,1.11,1.79,2.25,1.54,1.79.28,3.34.76,2.93,1,3.64.66,9.32.33,12.65,1.54,6.62,2.37,7.58,3.33,3.54,1.72,2.73,4.14-.76,5.3.3,6.36,2.32,4.75,2.32,5.76,2.93,1.61,3.44,4.34a5.39,5.39,0,0,1-1.31,4.54l.5.5s-19.7,10.51-23,14.85-2.83.81-2.83,8.79-1.26,12.07-.1,13.23,5,10.46,6.67,12.12,2.63,5.35,3.23,6,.2,1.42-.2,1.42-.81,1.11-.81,1.61S36.2,117.16,36.2,118a14.66,14.66,0,0,0-1.87,3.69s-2.12,3.49-3.18,3.74A5.07,5.07,0,0,0,29,126.75s-5.15-2.47-7.53-2.47-5,0-5.3,1a4.82,4.82,0,0,0,1.47,4.7c1.74,1.74,4.65,3.89,6.41,4.29s5.1.91,6.82,1.21,2.47.86,1.82,1.52A20.73,20.73,0,0,1,31,138.38a4.12,4.12,0,0,1,.44,1.88,4.28,4.28,0,0,1-.19,1.29.76.76,0,0,0,.14-.1c.55-.55.15.15.15.15a4.3,4.3,0,0,1,3.23-1.52l1.57-.15s.16-.18.43-.44a4.27,4.27,0,0,1-.18-1.2c0-1.85,1.14-3.36,2.55-3.36s2.3,1.21,2.51,2.8c4.22,1,27.12,7.3,27.12,7.3s1.74,1.84,1.31,2.27l-.81.81s-.17.15-.36.36a2.33,2.33,0,0,1,1.52,2c.42,0,.88,0,1.37,0a9.1,9.1,0,0,0,3.84-.91l.24-.23a2.09,2.09,0,0,1-.05-2c-.78-.4-1.27-1-.94-1.19s.8.1,1.85.19a2.73,2.73,0,0,1,2.53-.16c2.43-.4,6.23-1.33,7.69-1.6a11.43,11.43,0,0,0,3.48-1.11c.26-.26.5-.7.28-.91a1.39,1.39,0,0,0-1.24-.05,9.84,9.84,0,0,1-6.18,0c-2.71-1.09-10.51-3.69-10.51-3.69l8.29-1s2.16-.07,2.16-1.28.31-1.89.06-2.48,0-4.8,0-5.5a7.36,7.36,0,0,0-1.82-3.28c-.77-.77-1.11-.68-1.24-.56s-.13-1.56-.13-1.56,4-1.46,3.89-2.3A2.75,2.75,0,0,0,82.48,119c-.91-.58-2.9-1.54-2.35-6.69S79.63,93,79.12,91s-2-5-1.21-5.76S80,84.63,80,83.12s.81-2.32,2.12-3.13,1.26-2.83,2.83-3.63,1.67-1.62,2.47-1.87,1.74-2,2.42-2.68,2.17-3.59,2.83-4.24.41-3.18.41-3.18a.35.35,0,0,0,.45,0c.2-.2,1.72-11.48-.17-14.58s-4.65-8.42-5.93-9.7S84.78,33,84.78,33s10.91,1.35,15.08,1.35,10.77,1.35,12.12,0,3.37-1.68,3.7-.47,1.55-.54,3.37-1.14,4.07-.84,5.12.2,2,.67,2-.13a3.25,3.25,0,0,0,2.56.81,9.86,9.86,0,0,1,2.9,0,5.16,5.16,0,0,0,2.29-.57,1.29,1.29,0,0,0,.07-1.58,3.62,3.62,0,0,0-2.26-.81c-.87,0-1.45-.07-1.45-.44s.47-.84,1-1a7,7,0,0,0,1.75-.94c.2-.2,2-.69,2.22-.91a7.62,7.62,0,0,0,2.46.07,10.11,10.11,0,0,0,1.45.44,1.83,1.83,0,0,0,1.69-.24C141.13,27.26,141.28,26.53,140.84,26.4ZM70.44,124.89c-1.11,1.11-.2,4.65-.2,5.45s-.71,2.22-.71,3.43v3.94l-24.8-6.25h0a8.79,8.79,0,0,0,4.7-.11c2.12-.81,5.56-2.33,5.56-3s-1.57-5.91-2.42-6.77-1.42-3.23-2.32-4.14a3.26,3.26,0,0,0-1.36-.35s-4.19-24.79-4.19-27.42-1.31-3.23-1.31-3.94v-2c0-.71,2-.2,2-.71s1.31-1,3.23-1,17.27-6.37,19.7-7.48c0,0-3.53,7.27-3.53,9.09s-2.93,3.33-2.12,5.76S66.6,94.58,66.6,98s-1.82,10-1.82,13-.3,12.63-.3,12.63a9.11,9.11,0,0,0,3,1.21C68.52,124.89,71.55,123.77,70.44,124.89Z"/><path class="cls-1" d="M44.73,131.46h0Z"/><path d="M29.63,141.45c-2-1.41.6-2.47.6-2.47l.78-.59a2.46,2.46,0,0,0-2.11-1.48c-1.41,0-2.55,1.51-2.55,3.36s1.14,3.36,2.55,3.36a2.66,2.66,0,0,0,2.36-2.07C30.66,141.91,29.63,141.45,29.63,141.45Z"/><path d="M31,138.38l-.78.59s-2.63,1.06-.6,2.47c0,0,1,.46,1.62.1a4.28,4.28,0,0,0,.19-1.29A4.12,4.12,0,0,0,31,138.38Z"/><path d="M36.78,139.5a2.68,2.68,0,0,0,2.37,2.15c1.41,0,2.55-1.5,2.55-3.36a4.45,4.45,0,0,0,0-.56l-.51-.12C39.41,137.23,37.58,138.72,36.78,139.5Z"/><path d="M39.15,134.94c-1.41,0-2.55,1.5-2.55,3.36a4.27,4.27,0,0,0,.18,1.2c.81-.77,2.63-2.26,4.37-1.89l.51.12C41.45,136.15,40.41,134.94,39.15,134.94Z"/><path d="M68.92,148.48a2.75,2.75,0,0,0-1-.2,2.34,2.34,0,1,0,2.55,2.33s0-.06,0-.09a3.39,3.39,0,0,1-2.12-.53C68,149.63,68.51,148.92,68.92,148.48Z"/><path d="M68.92,148.48c-.4.44-1,1.15-.6,1.5a3.39,3.39,0,0,0,2.12.53A2.33,2.33,0,0,0,68.92,148.48Z"/><path d="M76.73,146.44a2.4,2.4,0,0,0-.91,1,3.86,3.86,0,0,0,.53.23c.81.27,0,1.28-.47,1.74a2.57,2.57,0,0,0,2.28,1.3,2.44,2.44,0,0,0,2.55-2.33,2.31,2.31,0,0,0-1.44-2.09l-.74.11A8,8,0,0,1,76.73,146.44Z"/><path d="M76.73,146.44a8,8,0,0,0,1.79,0l.74-.11a2.73,2.73,0,0,0-2.53.16Z"/><path d="M76.35,147.66a3.86,3.86,0,0,1-.53-.23,2.09,2.09,0,0,0,.05,2C76.32,148.94,77.16,147.93,76.35,147.66Z"/></g></g></svg>