<svg xmlns="http://www.w3.org/2000/svg" viewBox="0 0 188.01 151.86"><defs><style>.cls-1{fill:#fff;}</style></defs><title>Asset 21</title><g id="Layer_2" data-name="Layer 2"><g id="Layer_1-2" data-name="Layer 1"><path d="M44.77,99.78s0,5.15.63,6.56a46,46,0,0,1,1.34,4.94,26.36,26.36,0,0,0,1.55,4.24,8.12,8.12,0,0,1,1.2,3,5.5,5.5,0,0,0,.28,2.26,35.07,35.07,0,0,1,.92,6,4.49,4.49,0,0,0,1.48,2.68c.78.71,2.75,3.46,3.32,3.46s2.26.56,2.82.56S55.85,141,56.2,143.1s1,4.87,2,5.79,1.55,2.89,2.12,2.75,4-2.82,4.73-3.32,1.06,0,2,1.06,2.68,2.89,3.53,2.4,8.68-6.56,8.68-6.56l22.93-14.82S117.17,120,119,118.9s17.78-13,20.18-14.61,15.59-13.19,15.88-13.69S168.25,76.49,170,74s5.43-8.11,6.28-10.65,4.23-8.32,4.37-10.44.71-3.81.64-4.23,1.27-2.47,1.48-3,4.59-8.18,5.08-11.08-.28-4.3-1.48-5.15a8,8,0,0,0-3.67-1.69c-1,0-2.12,1.34-2.4,1.34s-2.26.92-2.61,1-8.11-1.13-12.35-.35-15.24,2.54-16.86,2.68-4.87.71-5.64,1.2a2.69,2.69,0,0,1-1,.49s-5.5,1.13-6.63,1.55-5.08,2-6.14,2.12-10.8,1.06-13.62,1.48-9.1,1.76-11.29,2.19S98.61,42.91,97.13,43s-7.55.56-10,1-8.75,1.62-9.74,1.69a8.45,8.45,0,0,0-2.54.92,3.28,3.28,0,0,0-.92-1.48c-.56-.35-1.27-1.76-2-1.76a5.92,5.92,0,0,0-2.47.07,23.7,23.7,0,0,1-4,.71A10.53,10.53,0,0,1,64,43.9h-.63a6.9,6.9,0,0,0-1.34.21c-.35.14-.56-.07-1.34-.49S57,41.29,56.7,41a20,20,0,0,0-2.75-2.75,28.87,28.87,0,0,1-3.17-2.47A4.14,4.14,0,0,1,49.5,34a2.58,2.58,0,0,1,1.41-1.48c.92-.49,3.6-3.18,3.81-3.18a3,3,0,0,0,.35-2.61,5.86,5.86,0,0,0-2.4-1.55,10.13,10.13,0,0,1-2.33-1.55c-.35-.35-.42-1.83-.42-1.83s1.13-.21,1.41-.28.5-.56.5-.85a15.43,15.43,0,0,0-.71-2.19c-.14-.35-.35-1.06-.14-1.34a3.21,3.21,0,0,1,2.61-.28c1.41.49,6.56,2.4,6.85,2.68s2.54-.85,2.47-1.48c0,0,.42-.92-1-1S60,14.48,59.59,13.84s-5.43-8-5.43-8.47-.71-.63-.63-.21.63,2,.28,1.9-4-4.52-5.71-5.08S40-.56,36.94.15,31.86,1.85,30.66,4,27.56,10.24,28,11.3a4.15,4.15,0,0,1-.07,2.47s-.21,1.48-.64,1.48A25,25,0,0,0,17,19.55C13.17,22.66,7,29.08,6,31.62s-3,9.53-4,13.19a71.71,71.71,0,0,0-1.9,10,8.05,8.05,0,0,0,.77,4.44c.71,1.2,0,4.8.07,6.21S-.45,76.92,8.65,82.42s24.41,7.76,24.41,7.76,5.36.85,5.79.78,3.81,1.2,4.09,1.83.7.85,1,.85.21.21.28.7-.42.78-.14,1.55.56.35.7,1.41A13,13,0,0,1,44.77,99.78Z"/><path class="cls-1" d="M69.89,111.7s-2.54-2.68-3.1-3.46a74.73,74.73,0,0,1-3.32-7.83C63,99.14,60,91.66,59.59,91.1s-4.09-6-4.51-7.27a29.15,29.15,0,0,1-1.34-4.94,1.77,1.77,0,0,0-1.41-1.77,6,6,0,0,1-1.2-.21V75.79S47.6,74.45,47,74.17a14.29,14.29,0,0,0-4.23.07c-.63.14-5.57.56-6,1.06s2.75,1.76,3.81,2.26,8.47,3.67,10,5a17.5,17.5,0,0,1,4.66,9.95c.21,4-.07,9.88-.07,11.22s.35,7.34.35,8.32.14,2.89.63,3.53,1.2,1.34,1.41,1.69a3.25,3.25,0,0,0,1.27,1.34c.56.21,1.13.35,1.34.85a17.72,17.72,0,0,0,1.41,2.82c.35.35,1.27.14,1.62.14s1,.07,1.13-.21S69.89,111.7,69.89,111.7Z"/><path class="cls-1" d="M101.36,53s-5.93,1.48-7.05,2-4.8,2.4-4.8,2.4a2.16,2.16,0,0,0-1.06,1.27,7.91,7.91,0,0,1-2.19,3c-.63.42-3.53,2.47-4.37,2.47s-1.2-.56-1.62-.63-1.34.78-1.34,1.27-1.83,1.13-2.12,1.13-2.54,2-3,2S71.3,70.92,71,72s-1.55,4.66.42,7.06,3.67,2.12,5.36,1.55,5.43-3.18,6.42-3.67a11.52,11.52,0,0,1,2.61-.92c.21,0,1.13-1.48,1.84-2s1.27-1.13,2-1.13,3.74-3,4.23-5.5a21.89,21.89,0,0,1,2.47-6.56c.5-.49,1.83-4.66,3.11-5.85A13.74,13.74,0,0,0,101.36,53Z"/><path class="cls-1" d="M75.61,64.5a12.53,12.53,0,0,1-3.32.71,1.48,1.48,0,0,1-1.06-.78l-4.16,3.88s.14,1.06-.14,1.13.14,1.55.36,2.12,1.05,1.27.35,1.48-.85,1.13-1.55,1.69-.56.78-.56,1.48,1.13,7.62,1.27,8.25a67.5,67.5,0,0,0,2,7,9.09,9.09,0,0,0,1.48,2.75,13.08,13.08,0,0,1,1.69,1.69c.14.35,1.2-1.2,1.34-1.27s.85.49,1.13,1.06,1.77-.78,2.82-1.34a12.45,12.45,0,0,1,3.17-1.27c.85-.14,4.09-8.75,4.09-8.75a15.34,15.34,0,0,1-.42-1.55,6.75,6.75,0,0,1,0-2.68c.21-.42,1.62-3.1,1.62-3.1a4.16,4.16,0,0,0-.71-.07c-.35,0-7,3.81-8,4.23s-3.1,1.48-5.57-1.13S70,74.73,70,74.09s.78-4.23,2-5.79,3-2.12,3.25-2.54S76.17,64.57,75.61,64.5Z"/><path class="cls-1" d="M64.56,51.36l-.9-1.28c-.32-.45-.39-.45-.77-.45s-.26.64-1,.64a.92.92,0,0,1-1-.83c-.06-.32-4-.26-5.38-.19s-4.94.13-7.5-2-4.68-4.42-5-5.38-1.22-1.28-1.54-.19a35.07,35.07,0,0,1-3.33,5.45c-.58.77-.9,2.95-1.28,3s.26,3.14,0,3.78a2,2,0,0,0,.32,1.79,5.89,5.89,0,0,0,2.12.38,54.18,54.18,0,0,1,7,1.47c3.85,1,12.24,3.08,12.82,3.33s.19-2,.39-2.88a7.83,7.83,0,0,1,2.18-3.78C63.15,52.9,64.56,51.36,64.56,51.36Z"/></g></g></svg>