<svg xmlns="http://www.w3.org/2000/svg" viewBox="0 0 146.39 147.13"><defs><style>.cls-1{fill:#fff;}</style></defs><title>Asset 20</title><g id="Layer_2" data-name="Layer 2"><g id="Layer_1-2" data-name="Layer 1"><path d="M63.8,20.66s.56-5.45-5.45-8.66c0,0-4.91-3.24-8.85-.47,0,0-5.38,1.89-5.38,7.16,0,0-6.27-.67-8.49,3.72,0,0-2.3,4.41-.83,5.88s1,1.91,1,1.91-3.9-.46-4.35,0c0,0-4.83-1.08-7.49.69a11.13,11.13,0,0,0-6.1-1.44c-3,.39-2.11,0-2.33-.89a4.45,4.45,0,0,1-.22-2.44,2.45,2.45,0,0,0-1-2.3c-.58-.58-1.25-1.08-.64-1.69s1.11-.44.22-2.05-2-2.05-1.22-2.83-.36-1.91-.72-1.55A1.47,1.47,0,0,1,11.55,14C11.93,13,11.44,3.1,10.94,2.6s-1.44-1.33-2.05.67a9.28,9.28,0,0,0-.94,3.05,1.4,1.4,0,0,1-.44-.94c0-.55-.22-.72,0-1.5S9.88,1.27,9.1.49,8.72-.06,7.44.6s-2.66.89-3.49,2.94S3.45,5.37,4,5.93c0,0-5.49,5.27-3.61,8.54s2.28,3.94,2,4.72-.89.94-.28,1.55a4.69,4.69,0,0,1,1.28,2s-3.16,1.61-.28,3.55a42.79,42.79,0,0,0-.72,5,8.56,8.56,0,0,0,3.22,7.1c3.22,2.72,5.27,6,6.52,6a6.66,6.66,0,0,1,3.63,1.3c.56.55,5.44,2.22,7,3.11s2.61,1.61,2.61,3.11.22,9.82,2.77,16.26,3.77,9.1,3.77,10.49,1.22,3.55,1.22,4.44.5,2.22,1.55,2.44,4.11,1.55,4.38,1.28.78-.17.78.22a9.62,9.62,0,0,0,2,2.55,2.37,2.37,0,0,1,.28,2.72c-.44.94.33,2.72,1.78,5.77s3.69,13.79,5,15.15,2.41,2.72,1.89,2.94-2.25.14-1.62,1.32a11.11,11.11,0,0,0,2,2.59c.5.5.47,1.3-.3,1.3S49,123.17,49,124.11s.5,2.11,1,1.61,1.05-.56,1.05.44a4.61,4.61,0,0,0,.55,2.5L29.41,139.09s-7,2.66-9.27,3-6.21,1.05-5.66,3,4.27,2.27,7.32,1.94,17.59-7.27,21.42-9,43.66-20.2,43.66-20.2L118.24,105s12.43-5,14.54-5.88,10.76-5.38,12.43-8.54,1.94-5.71-1.55-3.49-5.55,4.55-8,6.16-23,10.15-24.3,10.38a9.79,9.79,0,0,0-1.39-3.11,1.51,1.51,0,0,0,1.17-1.66s1.83-.28.5-.94a8,8,0,0,1-2.33-1.66c-.42-.42-1.67.5-.94,1.22s.06.44-.72.44-2-.81-1.8-1-.31-.75-.56-1,.14-2.41-1.89-1.89c0,0-.92-1-1.8-1.86s-.67,0-.22-.94-.28-1.17-1-1.89-1.05-.55-.72-1.78,0-2.66-.78-5.27S96.88,78.67,96.43,77s-.61-4.49-1.83-6.71-3.72-8.6-4.11-9.65-1.36-1.47-2.72-2.83-1.88-3.5-4.83-3.5S72.41,55.7,70.64,57s-6.88,5.27-6.88,5.27.78-.89.22-.89-2.14,1.42-2.05,0,.61-4.27.61-5.55,1.72-1.77,1.28-3.27-1.61-3.83-.94-5.33.78-4.16,2-5.38,2.61-3.44,4.66-4.33,2.05-.39,3.44-.83,2.22-.56,2.47-1.53,1.08-3.3,1.83-2.55,2-.14,3.14-.64A7.84,7.84,0,0,0,83.45,30,4.5,4.5,0,0,0,84.78,28l-.44-.44s1.33-.78,1.78-.33,1.1-.18,1.2-.79a2,2,0,0,1,.8-1.31c.52-.52,2-1.23,2.12-1.63s.38-1.21.86-1.21,1.46-.63.91-1.18-.78-.94-1-.94-.59-1.58-2-1.42l-1.9,0a3.21,3.21,0,0,0-2.28-.38s-3-.62-3.73.51a4.32,4.32,0,0,1-.64,1.23c-.34.33-1.07,1-1.07,1.61,0,0-.86-.38-1.93.7s-.78,1.48-1.58,1.64-3.46.83-4.29.59-2.77.71-3.21,1.15-1.31,1.74-2,1.74-1.71.64-1.87.48-.24-.56.27-1.34,1-3.61,1.18-3.78-.05-1.31-.46-1.31-1.64-.11-1.64-.11Z"/><path class="cls-1" d="M60.46,87.7l-.59,1.61s3.36,1.1,2.7,4.09-1.17,4.31-.37,6.21,3.07,6.58,3.07,7.53S67,110.36,67,112s-1.5,1.94-.91,2.52a2.74,2.74,0,0,1,.91,2.81c-.44,1.17.73,3.95.73,3.95s24.42-9.5,25.81-10.89c0,0-3.73-3.14-3.73-4.53s.73-1.61,0-3.07-2.26-1.75-3-3.73S82.61,86.6,82.61,85.8s-3.14-2-2.74-3.55,1.32-3.07.55-3.84-1-.51-2.12.58.44.36-2.92,1.9S64.26,87.26,60.46,87.7Z"/></g></g></svg>