<svg xmlns="http://www.w3.org/2000/svg" viewBox="0 0 195.06 344.15"><defs><style>.cls-1{fill:#fff;}</style></defs><title>Asset 2</title><g id="Layer_2" data-name="Layer 2"><g id="Layer_1-2" data-name="Layer 1"><path d="M66.79,6.66s4.85-8.92,8.4-6.11,30.2,58.28,31.32,59.59,5.07,13.41,6.94,17.53,27.34,44.21,31.45,54.49,30.28,70.84,32.15,75.51,13.45,34,13.27,34.58.75.93,1.68-.19,3.93-.19,2.8,1.12-2.05,3.55-3,3.93a26,26,0,0,0-4.3,3c-1.12.93-9.72,8.41-11.77,10.47s-14.21,12.15-17.57,14.2-13.83,8.79-15.14,10.09S132.19,294.2,131.26,295s-3,9-4.11,12.9-1.3,10.65-2.24,11.59-.75,3,.19,3,29.9,2.06,32.71,2.06,16.63.18,17.57,1.87.38,2.8-1.5,3.18-7.1,13.27-8.41,14.2-164.86,0-164.86,0-2.24-1.87,1.87-4.3,4.3-4.86,5.8-5,12.33-3.55,15.7-4.67,5.61-1.87,7.85-1.87,4.3-.37,5.61-.37,2.43-.56,1.87-2.06-3.36-9.72-2.06-12.34,4.86-9,6.36-9.91,4.29-.19,4.29-.93a3,3,0,0,0-.17-1.81c-.41-1,.41-6.24,3.39-8s7.73.13,7.87,1.9,1.08,3.67,2,3.8,3.66,1.49,1.9,1.49-4.21-.27-4.21-.27l.55,1.36c.27.68.68,1.22-.27,1.22s-.68.54-.68,1,.54-.41,0,.41-.28,2.17-1.09,2.31a3.8,3.8,0,0,1-1.63-.14,2.46,2.46,0,0,0,.68,1.77,12.45,12.45,0,0,1,2.17,4.21c.14,1.09,1.63,1.09,3,1s42.07-22.25,42.07-22.25l6.25-2.71L98.62,239.77,81.92,169.61l-7.5-56L68.32,54Z"/><path class="cls-1" d="M117.61,299.34a3.28,3.28,0,0,0,2.31-.68c.82-.82,8.55-6.11,8.55-6.11s1.22.27.81,1.09a11.34,11.34,0,0,0-.68,2.31L119,304.5Z"/><path class="cls-1" d="M130.64,292.15a30.2,30.2,0,0,1,3-3.12l6.92-3.39s-8.28,7.87-9,7.6A2,2,0,0,1,130.64,292.15Z"/><path class="cls-1" d="M119.92,304l8-6.38s-5,18.32-5.56,18.86-3.26-8.82-3.26-9.77A9.29,9.29,0,0,1,119.92,304Z"/><path class="cls-1" d="M64.69,311.15l45.19-23.21v1.22l-38,20.63a27.15,27.15,0,0,0-3.26.67A29.26,29.26,0,0,1,64.69,311.15Z"/><path class="cls-1" d="M67.67,316l.32-.17,5.79-3.09s-.68,1.49.14,1.63.54,1.77-.27,2S78.39,311,78.39,311s10.46-4.48,11.26-5.29.95-1.9-.95-1.22-11.13,5-11.13,5l-1.5-.41s-.27-.14.82-1.22,33.65-17.78,33.65-17.78,1.63,6.51,1.76,7.33-.13,1.63.82,1.36,2,8.55,2,8.55L100,319.15a3.25,3.25,0,0,1-1.62-.81c-1.09-.81-2.58-.68-2.58-.27s-.81,1.08-.81-.68,0-1.77-2.17-1.77-3.93,1.36-5.29,1.77a1.63,1.63,0,0,1-1.91-.41s.27-1-1.09-1-6,1-7.33,1-7.19-.13-8.28-.27S67.67,316,67.67,316Z"/><path class="cls-1" d="M77.58,320a12.08,12.08,0,0,0,2.44.4c.95,0,.54,3.39.54,3.8s-1.9.54-2.44.54S77.58,320,77.58,320Z"/><path class="cls-1" d="M95.36,321.33s-.68-1.5.14-1.63.68-1.08.82-.13a6.63,6.63,0,0,1,0,1.77Z"/><path class="cls-1" d="M97.67,322.68s1.49-1.9,2.58-1.9,4.07,2,4.07,2Z"/><path class="cls-1" d="M101.33,319.43l14.11-11.26,3.66,13.43a2.31,2.31,0,0,1-2.17,1.09c-1.49-.14-8.55.54-9.5-.41S101.33,319.43,101.33,319.43Z"/></g></g></svg>