<svg xmlns="http://www.w3.org/2000/svg" viewBox="0 0 106.01 161.06"><defs><style>.cls-1{fill:#ff7f00;}</style></defs><title>Asset 19</title><g id="Layer_2" data-name="Layer 2"><g id="Layer_1-2" data-name="Layer 1"><path d="M76.18,19.08s.93,1.14,1.35,1.62a3.66,3.66,0,0,0,2.07.91,32.35,32.35,0,0,1,6.64,2.55c.91.72,1.39,1.18,1.72,1.18a36.18,36.18,0,0,1,5.73,3.5c.33.49.21.77.21.77a8.46,8.46,0,0,1,2.48,3.79A28.12,28.12,0,0,1,98.23,39a8.6,8.6,0,0,0,1.16,3.65,42.22,42.22,0,0,1,3.5,8.29c.44,2,1.35,5,1.49,5.57a41.71,41.71,0,0,1,1.51,5.78c.19,1.86.37,5.69-1.28,7s-2.18,1.74-2.92,1.93-.79.46-.79.77a38.54,38.54,0,0,1-1.35,7A24.4,24.4,0,0,1,96,85.16a45.75,45.75,0,0,0-3.11,3.41c-.44.68-3.2,4.81-4.39,5.8s-4.69,4.15-5.18,4.74-2.92,3.25-3.76,3.95S75,108,74.69,108.19s0,.72.42.91,1.25,0,1.7.28A18.71,18.71,0,0,0,79.5,111a4.11,4.11,0,0,1,2.09.37A17.76,17.76,0,0,0,86,113.13c.63,0,1.44,0,1.42-.09s.35-1.83,1-1.74a3.28,3.28,0,0,1,1.93,1.07c.44.54,1,1.11,1.37,1a12.15,12.15,0,0,1,4.81.32c1.51.6,3.25,1.6,3.5,3.39a13.49,13.49,0,0,1-.9,6.18,21.34,21.34,0,0,0-1.76,4.53,16.32,16.32,0,0,0,0,3.85A13,13,0,0,1,96,138.29c-1.41,2.69-5.15,7.31-8.29,7.82s-5.94-.11-6.13-2.79a8.83,8.83,0,0,1,.84-4.85,3.37,3.37,0,0,0,.25-1.72c0-.62-.12-2.92,0-3.64a16.28,16.28,0,0,0-.33-2.79,3.84,3.84,0,0,1,0-1.16,2.79,2.79,0,0,0-.63-1.86c-.51-.7-1.79-1.9-1.55-2.28s.33-.63.09-.95-.79-.91-.79-1.16-.56-.86-1.21-1-2.28-1.11-3.3-1.16-2.83-.28-3.2-.28-.51.07-.56-.23-.84-.49-1.51-.65-3.85-1.19-4.2-1.21-.35.7-1,.74a3.35,3.35,0,0,1-3.06-.74c-1.42-1.16-2.62-2-2.95-2.32s-.3-.19-.3-.19S60,120.07,60,121.51s.3,3,.3,3,.56,1.42.81,2.09,2.88,5.64,3,6.55,2.06,4.13,2.41,4.69.83,1.14,1.07,1.55a1.58,1.58,0,0,0,1.23.67c.23-.07.77-1.16,1.09-1.18s.86.86.79,1.39,1.14,2.81,1.46,2.81,1,.9,1.07,1.11,1.39,1.09,1.53,1.65.3.81.67.91,1.09,1.9,1.09,2.14,1.18.67.93,1.3a10.86,10.86,0,0,1-4.9,4.62c-3,1.37-8.4,3.44-9.63,3.83s-7.77,2.41-9,2.37-9.1.3-9.36-.81-.37-2.58.12-2.74a3.12,3.12,0,0,0,1.25-.86,4.25,4.25,0,0,1,1.88-1,8,8,0,0,0,3-1.42,22,22,0,0,1,2.6-2.79A4.35,4.35,0,0,0,55,149.76a1.57,1.57,0,0,1,.81-1.14,1.7,1.7,0,0,0,1-1.39c0-.6-.21-1.32.07-1.58s.81-.49.49-1.09a2.25,2.25,0,0,1-.26-1.49,9.6,9.6,0,0,0-1-2.53c-.44-.93-2.9-5.11-3.27-5.71a17.49,17.49,0,0,0-1.11-1.51c-.28-.37-2.34-2.46-2.18-2.88s.23-.42.09-.83a35.44,35.44,0,0,0-2.18-3.32,43.09,43.09,0,0,1-3.67-6.83c-.49-1.6-1.46-4-1.58-4.85a8.7,8.7,0,0,0-.79-2.46,18.33,18.33,0,0,1-1.32-4.09,8.81,8.81,0,0,1,0-4,13.84,13.84,0,0,1,1.86-3.62,6.93,6.93,0,0,0,1.44-2.34A4.32,4.32,0,0,1,43.89,96a3.46,3.46,0,0,0,.9-2c0-.53-2.34-2.62-2.37-3.39a15.06,15.06,0,0,0-1.16-3.74,6.3,6.3,0,0,1-.42-2.09c0-.6-1-3.85-.07-4,0,0,3.1-.85,3.34-1.41s1.25-2.73,1.93-2.77,5.14-1.57,5.22-2.09,1.45-3.37,2.57-3.53a4.27,4.27,0,0,0,2.61-2.25c.08-.52.64-3.17,1.81-3.49a17.52,17.52,0,0,0,4-2c.72-.52.6-.84.6-.84s-2.77-1.48-3.49-1.73-2.65.08-3.69-.52-4.66-1.81-5.18-4-1-4.22-.48-5.86,1.24-2.93,1.41-3.49a10.55,10.55,0,0,0,.36-1.65,8.76,8.76,0,0,0-2.25,2.93c-.4,1.08-2.13,4.9-3.13,7.19s-2.49,6.51-3.25,7.27a6.69,6.69,0,0,0-1.69,2.89,14.77,14.77,0,0,1-1.21,4.78c-.8,1.57-2.57,5.5-4.94,8a44.6,44.6,0,0,0-6,7.63c-2.17,3.33-3.05,5.22-4.18,6.91A19.88,19.88,0,0,0,23,96a19.77,19.77,0,0,0,1.08,2.57,9.43,9.43,0,0,1,.56,3.21c0,.4,0,1.29,0,1.73a11.72,11.72,0,0,0,.76,2.65c.2.36,1,1.61.36,1.85a2,2,0,0,1-2.13-.16c-.6-.56-.52-.8-.92-1.73s-.2-1.53-.6-1.65-.84.16-1.61.24-.8.28-1,.64a7.87,7.87,0,0,1-.68,1.49,4.09,4.09,0,0,0-.6,2.29,3.84,3.84,0,0,1-.64,2.41c-.32.16-.6,0-.6.44s-1.08,3.37-1.85,3.45-.76,0-.84-.32-.8.44-1,.92-1.85.88-1.77.32.88-1.37.88-1.89a15.61,15.61,0,0,1,.68-3,10.67,10.67,0,0,1,.68-2.57,10.58,10.58,0,0,0,1.17-3.37,30.09,30.09,0,0,1,1.29-5.22A41.46,41.46,0,0,0,17.94,95c.24-1.29,5.1-13.85,5.78-15.46s3.21-7.87,4.06-9.48,3.21-6.26,4.46-7.43a6.6,6.6,0,0,0,2-3.29,73.7,73.7,0,0,1,3.09-9.6,47.31,47.31,0,0,1,2.73-4.3,2.68,2.68,0,0,0,.6-1.65,66.87,66.87,0,0,1,1.81-7.59c.48-1.2,2.61-5,5.66-6.46s3.9-1.89,4-2.17a2.73,2.73,0,0,1,1.17-1c.6-.32.92-.4.92-.72a1.82,1.82,0,0,1,1.53-1.17,20.76,20.76,0,0,0,4.06-1.25,16.36,16.36,0,0,1,1.61-.64c.2-.08,0-.6-.08-2s-.24-2.13-.2-2.45.08-.44-.28-.2-.76.28-1.36-.4-.72-2.61-1-3.05A2.94,2.94,0,0,1,58,12.43a.91.91,0,0,1,1.13-.76c.36.08.52,0,.48-.48s.2-6.06,3-8.59S69-.86,72,.94s6.31,5.94,5.9,8.43a18.2,18.2,0,0,0-.36,2.89s.72.48.48,1-.44,1.73-.64,2.09a13.24,13.24,0,0,0-.44,2.21s0,.68-.32.84S76.18,19.08,76.18,19.08Z"/><circle class="cls-1" cx="13.02" cy="134.64" r="13.02"/></g></g></svg>