<svg xmlns="http://www.w3.org/2000/svg" viewBox="0 0 224.86 139.71"><title>Asset 18</title><g id="Layer_2" data-name="Layer 2"><g id="Layer_1-2" data-name="Layer 1"><path d="M66.86,52.51a16.44,16.44,0,0,0-5,13c.52,8.33,2.4,19.63.77,20.6s-7.84,3.91-10.24,4-2.51,1.63-3,4.61-2.24,13.55-5.77,17.75-2.38,6.69-3,7.25a2.71,2.71,0,0,1-2.89,0c-.92-.54-2.21.69-2.64,3.43s-1.56,7.69-.11,7.43,3.24-2.28,4.29-2.8a7.79,7.79,0,0,0,2.8-1.77c.84-1,2.09-1,1.33-.27a3.52,3.52,0,0,0-.91,2.91c.18.78.12.9-1.07.82s-2.76.47-2.94,1.35S36,139,37.47,139.51s2.84.19,5-1.33S48.14,132,49.21,131s3.24-6.61,4.23-10.65,1.18-7.82,2.94-9.25,6-7.56,8.68-9.75,6-6.6,7-7.54A21.51,21.51,0,0,1,80.58,89c4.8-1.52,9-3.79,11.58-8.66s3.3-7.5,6.36-6.16,14.85,4.45,28.32,2.87,25.25-4.35,34.25-5.7,21.61-2,21-.23-4.27,4.44-6.26,5.59a25.1,25.1,0,0,0-3.51,2.48,1.31,1.31,0,0,1-1.35-.4c-.58-.66-1.32-2.94-2.29-3S161,79,160.85,81.48s1.08,1.77,1.08,1.77-1.56,1.37-.37,2.11,5.08,1.33,10,1.53,5.73,1,8.44-2.86,9.17-10.39,9.39-13.71-.21-6.16-2.77-6.43-9.46-3.14-9.46-3.14a7.84,7.84,0,0,0,1.31-3c.09-1.24,1.14-2.37,1.72-3.63a39.76,39.76,0,0,0,1.34-7.26c.07-1.06,1.57-4.79,3.56-6s5.43-3.24,7.29-4.36,4.95-2.7,5.63-1.62a16.33,16.33,0,0,0,4.58,4.72,26.45,26.45,0,0,1,6.84,6.26c1.42,2.14,2.87,3.09,3.35,3.84s0,3.12.56,3.51,3.27,1.11,3.33,1.47,4.13.86,5-.1.53-2.5,2-3.34,1.29-1.34.47-4.38-4-11.59-4.64-15-.27-3.85-1.65-7.82-3.79-6.54-2-7.8,5.42-4.44,5.94-5.39.2-1-1.81-.21-7.47,2.48-9.24,2.14-7.2-.31-11.66-.88-13.13.4-16.43,1.07a15.42,15.42,0,0,1-5.29.49c-2.67,0-4.5,0-6.19-.06s-2.41.73-4,1.15a4.38,4.38,0,0,1-3.58-.38c-.37-.43-.55-1.77.5-2.1s1.82-.55,1.83-.81l0-.27a3.79,3.79,0,0,0,2.13-.53c.66-.58.16-1.77-.93-2l-1.1-.25s-.12-4.11-2.36-6-6-3.21-8.77-1.49a10.86,10.86,0,0,0-4,4.54s-6.67.48-10.19,1.76-7.89,2.63-10,2.17-3.53-1.17-5.5-1.71-2.57-.22-6.64,0-6,.53-6.85.43.08.76,1,1.54,4.46,5.21,3.72,5.64a6.32,6.32,0,0,1-3.27.94c-1.06-.12-1.11.59-1.22,1s1,.29,1.36,1,1.6,1.31,2.13,2.06l.53.75s0,3.3,1.82,5.29,4.94,4.75,4.94,4.75a3.93,3.93,0,0,0-1.21,1.48c-.28.78-1.1,1.08-1.52,1.32a14.87,14.87,0,0,1-8.38-.57c-3.2-1.46-4.33-.56-3.82.5s1.52,1.31.75,2.15.09,2.63.09,2.63-3.08,1.35-3.25,1.92l-.17.57s-8-.28-11.77,0-7.67,2.11-10.13,2.26-2.78.88-7.34,1.82a58.79,58.79,0,0,0-6.8,1.72s-9.86-.4-11.74,1.7a31.14,31.14,0,0,1-6.32,5.14c-1.86,1.17-5.54,7.42-7.71,10.57s-1.55,7.69-2.13,9.66,1.48,4.51-2.18,8.59-9.33,7.48-5.29,5.79,6.36-.55.86,1.17-10.14,2.34-3,2.25,5.21.71-2.2,1.59-11,1.13-6,1.06,8.92,1.9,1.25,1.91-14.3-.08-7.1.19,13.65.39,5.7,1.37-12,1-8,1.73,10.83-.65,3.9.93-11.14,3.34-6.79,2.88,12.43-2.68,3,1S-.78,110,7.83,107.84s18.84-5.77,7.17-.67-21.31,9.47-9.88,5,21.16-8.37,11.75-3S3.52,118.11,12.34,113s14.24-10.84,10-5.47-5.73,8.35.15,1.7,5.77-6.25,8.26-7.46,6.33-2,8-4.31S52.2,84.24,53.6,76.85s1.44-8.1,3.15-12.26S57.17,55.7,59,54.4s3.55-2.43,5.51-2.48S66.86,52.51,66.86,52.51Z"/></g></g></svg>