<svg xmlns="http://www.w3.org/2000/svg" viewBox="0 0 132.73 145.79"><title>Asset 17</title><g id="Layer_2" data-name="Layer 2"><g id="Layer_1-2" data-name="Layer 1"><path d="M79.93,66.36a39.59,39.59,0,0,1,4-4.3c1.88-1.62,5.71-4.5,6.7-6.23S94.07,50,94.91,48.4s4.61-6.81,5.6-8.17,2.2-3.61,3.35-4.71,7.54-7.75,8.8-9.11,5.45-5.81,7-8,1.26-2.57,1-3.19a9.46,9.46,0,0,1-.31-3.72,10.13,10.13,0,0,0,.16-2.72,6.08,6.08,0,0,1,.68-2.15c.26-.53.47-1.1.47-1.1s.36-.37.58-.16A3.31,3.31,0,0,1,123,6.55c.05.31.53-.68,1.36-.79l2.51-.31a2.64,2.64,0,0,1,.63,1.15c.16.68.21,1.41.42,1.36s.63.27,1-.57.79-1.52,1.2-2.31,1-3,1.36-3.88S132.3,0,132.56,0s.16.94.05,1.15a5.36,5.36,0,0,0-.16,1.36,2.34,2.34,0,0,1-.26,1.26,5.12,5.12,0,0,0-.26,2,11.2,11.2,0,0,1-1.42,3.61,5.06,5.06,0,0,0-1,1.94c0,.26-.26.36-.73.84s-2.73,3.93-3,4.29-.94,2.51-1.52,3.09-6.08,8.64-7,10.32a76.46,76.46,0,0,1-7,8.64,11.29,11.29,0,0,0-2.51,3.88c-.58,1.42-1.89,4.25-2.62,6s-6.23,14-7.91,16.5-4.56,7-5.5,8.28-2,4.35-2.62,5.6-1.57,6.08-2,7a17.88,17.88,0,0,0-.89,2.09.88.88,0,0,1,.26.73A9.14,9.14,0,0,0,86,90.25c0,.42-.42,3.72-.63,5s-.94,9.9-1.62,11.52-1.21,5.5-.31,7,3.3,6.08,3.56,7.7,1.25,5,2.14,5,10.79-5.29,19.38-4.24,9.79,3.25,10.27,6.29-.47,5.5-1.78,6.28a8.37,8.37,0,0,0-2.2,1.83c-.68.68-9.58,5.87-11.42,6.08a11.58,11.58,0,0,0-3.19.84s-.11.84-.11,1.21-.42.26-1.2.21a13.8,13.8,0,0,1-3.61-.63c-1-.42-2.2-.16-3.77-.16s-8,1.1-10.27,1.47a29.45,29.45,0,0,1-7.7-.42c-1.46-.26-10.95.37-12.25-.1s-20.11.58-25.3-2.25-13.62-8.59-14.56-11.26-1.68-5.92,1.89-8.43,6.39-1.31,8.9-.84,9.9,3.14,12,3.82,3,.53,3.3-.26,0-5.19,1.21-7.23,3.19-4.77,3.35-8.22-2.25-15.14-2.2-17.65-2-7.49-2.57-9.64a26.68,26.68,0,0,0-5.45-9.69,98,98,0,0,1-10-14.3c-2-3.82-5-8.91-5.55-10.06s-.58-2.36-1.47-3.14a35.85,35.85,0,0,1-3.67-4.87c-.89-1.36-3.4-4.4-4.66-7S12.1,23.78,11.1,22.42a35.27,35.27,0,0,1-3-4.14c-.57-1.21-2.72-4.09-3-4.66A10.52,10.52,0,0,0,3.67,11C3,10.27,1.52,6.29,1.15,5.87S.47,5.13.68,5l.21-.16A13.86,13.86,0,0,1,0,2.88c0-.26,0-.53.26-.53a.42.42,0,0,0,.37-.21s-.21-1,.31-1,1.42,1.57,1.73,2S3.82,5.4,4.4,6.08,5.71,8.8,6.34,8.75s.79-.63.79-1.36.37-1.63,1-1.63,2.41.16,2.93.68l.52.52s.11-1,.47-1,.52.1.52.52,1.52,1.68,1.62,1.94A14.15,14.15,0,0,1,14.82,11a4.62,4.62,0,0,1-.26,2.2,18.37,18.37,0,0,0-.47,4.35,5.75,5.75,0,0,0,.58,3.35C15.45,22.05,25,34.52,26,36.19s4.45,7.75,5.6,8.9,8.23,7.54,9.8,9.9,2.36,4.35,3,4.35,1.73-1.47,1.94-1.68,0-2.88.73-4,1.26-2.51.68-3.35-.1-5,1-6.86,6.7-9,8.33-10.21,5.92-3.51,7-2.46,3.51.63,4.19.63a4,4,0,0,1,2.57,2.78c.16,1.25,2.67,2.78,3.25,2.78s4.51,5.5,4.92,6.6,1.2,6.81.79,8.59-1.26,7-1.52,7.65-3.3,5-3.72,5.08.52,1,1.15,1.26S78.51,67.72,79.93,66.36Z"/></g></g></svg>