<svg xmlns="http://www.w3.org/2000/svg" viewBox="0 0 222.57 201.43"><defs><style>.cls-1{fill:#fff;}</style></defs><title>Asset 16</title><g id="Layer_2" data-name="Layer 2"><g id="Layer_1-2" data-name="Layer 1"><path d="M21.73,4.76s.75.74-9.62-1.94S-2.18-1.33,1.16,1.65,7.64,7.83,9,9a47.67,47.67,0,0,0,5.46,3.64c.86.55,1.87,1.43,4.13,4.57s7.33,7.8,9.1,10,6.16,6,8,10.07,5.18,14.33,5.4,14.53,4.81,8,5.31,8.77,15.32,28.8,15.32,28.8,8,13.45,11.66,22.17l1.47,2.46s-3.62,2.08-1,4.78c0,0-.19.64,4.35,2l7.65,2.35,12,6.48s-1.09,1.39-2.2,2.52a39.61,39.61,0,0,0-3.46,4.82,7.54,7.54,0,0,0-1.51,5.8c.49,3.5.12,6.76,1,8a25.51,25.51,0,0,1,1.91,3.77,28.61,28.61,0,0,0,2.18,3.59c.35.27,1,1.3.49,1.67s-1.21,1-.52,1.87.26,1.8,1.32,3.2,2.32,1.67,2.55,2.3a7.12,7.12,0,0,0,4.14,4.08,27.68,27.68,0,0,0,7,1.68c.49,0,3.83-.81,3.83-.81a13.25,13.25,0,0,1,.26,3.46c-.23.87.91,2.73,1.16,3a11.55,11.55,0,0,1,.79,1.59l-.57.43a5.63,5.63,0,0,0,0,2.51A22,22,0,0,0,109,186.7c-2.94,2.37-4.57,4.13-2.51,4.75s8.3.56,8.63.41,1,6.28.61,7.53.24,2.45,1.2,1.9,3.9-3.5,4-6.42a12.52,12.52,0,0,0-.08-3.35s14.67-2.76,18.33-3.41,27.59-6.88,28.18-7.06,23.1-7.76,29.37-11.21,17.84-10.71,22.39-16.17,3.39-5.6,2.94-5.68-.44-.41-1.8.26-11,4.19-11.93,4.58-19.94,6.51-20.59,6.65-15.9,4.57-15.9,4.57a7.69,7.69,0,0,0-1.93-3.29c-1.69-1.91-21.72-27.24-25.15-31.27s-9-11-9-11a4.93,4.93,0,0,0,.49-3.87c-.69-2-1.79-4.5-3.69-5.61s-6.7-1.08-6.7-1.08S74.58,56.16,73.82,55.6,21.73,4.76,21.73,4.76Z"/><path class="cls-1" d="M134.39,116.84s.39-.26-.1-2.1-.83-3.2-1.58-3.72a6.37,6.37,0,0,0-3.85-1.23c-1.51.15-1.18.14-1.18.14Z"/><path class="cls-1" d="M79.7,119.3s-3.43-2.56-3.45-3a22,22,0,0,0-1.11,1.93c-.06.25.85.58,1.93.85a19.09,19.09,0,0,1,1.92.61C79.14,119.74,79.48,119.93,79.7,119.3Z"/><path class="cls-1" d="M116.81,137.87s-.15,2.41-.14,2.87.06,1.66.06,1.66a46,46,0,0,1-4.8.69c-.62-.08-2.69-.29-2.69-.29l-1.72,0s.85-1.27.77-1.51.38-1.16.38-1.16,1,.32,1-.75-.31-1.49-.14-1.8.4-.09.66-.66a4.24,4.24,0,0,0,.18-1.63Z"/><path class="cls-1" d="M111.91,151l.33,1.25s2.72-1.06,3.89-.88a2.69,2.69,0,0,1,2.35,1.94,9.4,9.4,0,0,1,.26,1.77s-.3,1,1.65-.88c0,0,3.84-2.38,4.43-2.62s3.2-1.87,3.61-1.95a14.22,14.22,0,0,0,2.32-.52,2.33,2.33,0,0,1,2.34.66c.71.74,1.45,1.91,1.57,2s3.28,3.32,4.15,4.15,2.86,4.92,3.16,5.49,2.46,5,3.4,5.62a4.6,4.6,0,0,0,1.49.71,3,3,0,0,1,1.21-.16c.46.1,1.74.44,1.74.44s1.18-.48,2.21,1.92c0,0,15.33-4.51,16.34-4.67,0,0-2.45-.83-4.69-1.75s-3.61-2.43-3.71-3.55a14.6,14.6,0,0,1,0-2s-18.85-8.91-19-9-18.74-8.65-18.88-8.77.36,5,.22,5.66.47,1.28-2,2.25a33.07,33.07,0,0,1-5.47,2.1Z"/><path class="cls-1" d="M142.93,172.66a7.51,7.51,0,0,1-.54-1.85,5.69,5.69,0,0,0-1.14-2.85,33.43,33.43,0,0,1-3.38-2.94c-.21-.37-2.48-1.25-3.22-2.27s-2.44-4.65-2.6-4.74-.28-1.19-1.67.69-5.25,6.21-6.08,7.06-5.64,5.12-5.93,5.17.73,3.51.73,3.51a6,6,0,0,1,.72,1.53,8.94,8.94,0,0,0,1.13,2,13.64,13.64,0,0,1,2.91,1.22S142.33,172.8,142.93,172.66Z"/></g></g></svg>