<svg xmlns="http://www.w3.org/2000/svg" viewBox="0 0 253.28 133.53"><defs><style>.cls-1{fill:#fff;}</style></defs><title>Asset 14</title><g id="Layer_2" data-name="Layer 2"><g id="Layer_1-2" data-name="Layer 1"><path d="M238.44,80l2-17s-1.32-1.36-2.19-.92-2.4,17-2.4,17a4.26,4.26,0,0,1-2.11,1.08,15.45,15.45,0,0,0-5,.85c-1.24.63-5.18-1.57-6.55-.88s-2.71,3.57-3.2,3.83a33.14,33.14,0,0,1-3.28,1.52c-.68.19,0,3,.53,3.48s2.38,1.6,1.83,2.66a16.66,16.66,0,0,1-4.39,4c-.56.13-5.68-2.25-7-2.37S198.37,90,197.75,90s-6.86-1.81-8.18-2.23a31.15,31.15,0,0,0-8.17-1.92c-5.36-.7-12.59-2-15.08-2s-10.71-.16-11.09-.9-3.88-2.08-5.75-2.38-7.64-3.11-7.75-3.54-3.67.47-1.8,1.39,5.88,3.25,5.88,3.25.45,1.8-.55,1.37S137.7,79,137.7,79s-1.38-.55-1.3.82,3.38,2.65,3.38,2.65L143.42,85s.14,1.18-.74.69-5.89-4.18-6.7-4.24-2.24-.1-2.62-.54-8.8-2.23-11-3.27a88.54,88.54,0,0,1-9.83-6.08c-.63-.62-.65-3.42-.66-4.35s-1.6-5.28-3.75-8.56-1.73-5.21-1.73-5.21a2.14,2.14,0,0,0-.77-2.42,21.79,21.79,0,0,1-4-5.63c-.26-.81-.77-2.73,0-4s.36-2.06,1.35-2.56,3.27-3.39,2-4.94-2.69-1.28-4.57-2.82-11-7.81-13.84-9S77,18.67,76.72,18.36s-1.12.26-1.12.26S62,10.39,61.76,9.9s-6.33-4.74-7.45-4.79a46.37,46.37,0,0,1-7.05-2.18C46.26,2.5,40.13,0,40.13,0s-.68.5.08,1.37a27.81,27.81,0,0,0,3,2.53s6.31,2.56,8.18,3.17,13.33,8.35,14.72,9.83,11,9.55,12,10.29,3.39,3,4,3,.89,1.42,1.2,2a30.52,30.52,0,0,0,2.14,3.28,7.84,7.84,0,0,0,1,.74,24.47,24.47,0,0,1,2.65,4.27c.83,1.92,4.4,12,4.4,12s-2.8,1-2.72,2,1,.43,1.74,0a1.33,1.33,0,0,1,1.93.42c.38.74,1.31,7.15,1.56,7.64s-.43.38-2.12.14-4.49-.83-4.49-.83a5.21,5.21,0,0,0-1.94-.73c-1-.12-3.31-.66-6.24-1.19s-6.19-2.62-6.32-3.49.41-3.18-.1-4.17-1.46-2.85-4.94-2-14.48,2.55-18.21,3.52-8,3.62-8.87,4.06-8.71.39-10.58.09-16-2.79-17.27-3.21a11.55,11.55,0,0,0-3.43-.28S4,50.81,3.34,50.38.42,50.47.49,52.15s0,3.11,0,3.11-1.28,3.62.17,4.92,13.14,7,16.5,7.82,13.65,2.25,18.19,1.65,15.11-1.94,17.16-2.83,6.21-1.61,7.4-1.12,1.63,1.67,1.95,2,.75.24,1.8-.45,3.79-.53,5.79,0,7.8,1.49,8.55,2.35,1,2.92,1.72,4.28.59,3,1.14,2.23-.21-2.86.28-3.74a8,8,0,0,1,1.11-1.5,27.73,27.73,0,0,1,5.18,2.2c2.82,1.53,11.69,5.44,12.5,5.8s.15,2.43.41,4.17-.31,7.35,1.82,8.76,6.08,4.87,7.83,5.85,10.45,5.76,10.89,6c0,0,12.12,4.44,15.8,5.53s12,2.76,13.66,3.18,11.07,6.07,15.76,7.58,13.86,4.49,17,5.21,15.64,1.23,17.63.53,2.49-.33,3.11,0a3.58,3.58,0,0,0,3.3,0c1.68-.7,8.73-5.24,9.48-5.62s1.22-2.5,3-2,2.4,3.46,3.09,4.21a1.89,1.89,0,0,0,1.56.61s3.6,5.82,4.54,6.43,4.33,4.2,6.39,4.24,3.79-.53,4.65-2.22,5.08-10.25,5.44-11.38a6.89,6.89,0,0,1,2-3.07c.62-.32.12-.37,1.36-1.32s3.29-1.52,3.76-3.64,1.51-5-.24-6.29a7.41,7.41,0,0,1-2.14-2s1.9-3.32,2.21-3.94-.27-2.36-.9-3a5.59,5.59,0,0,0-2.06-1,4.85,4.85,0,0,0,.33-4.86c-1.33-2.6-4.86-7.37-6.36-8.16Z"/><path class="cls-1" d="M242.86,108.56l-2.11,1.08a8.63,8.63,0,0,1-3.68-.15c-1.37-.55-1.82-1.73-3.56-.84s-3.6.9-2.53,3,3.3,7.07,3.55,7.56.89,2.36,1.88,1.85,2.4-2.63,3.76-4,1.59-3.31,2.2-4.56a20.37,20.37,0,0,0,1.09-3.06Z"/><path class="cls-1" d="M191,99.11s-5.13-3-5.38-3.5-2.87-1-4.37-.9-6.67-1.13-7.3-1.43-.87.13-.17,1.5,2.32,1.79,3.08,3.27a5.47,5.47,0,0,0,2.33,2.41c1,.74,1.63,1.36,2.13,1.1a11.82,11.82,0,0,1,3-1.52A34.55,34.55,0,0,1,191,99.11Z"/></g></g></svg>