<svg xmlns="http://www.w3.org/2000/svg" viewBox="0 0 135.76 145.21"><title>Asset 13</title><g id="Layer_2" data-name="Layer 2"><g id="Layer_1-2" data-name="Layer 1"><path d="M134.53,110.88c.37-2.07-.6-7-1.2-8.77s-.41-2-2.94-1.75-6,1.93-6.66,1.93-1,1.42-1,1.42-3.54.5-4.46.18-1.88-.55-1.88-.28-.6-.18-.83,0-.6.09-.74.23-.44-.8-.76-.48a1.34,1.34,0,0,1-.85.32l-1.56-.16V104s-5.7-1-7.81-1.52a15.18,15.18,0,0,0-6.89,0c-1.65.55-5.26,1-5.74.55a5.07,5.07,0,0,1-.55-4.64c.87-1.65.23-6.2.23-6.2l.48-.49-.25-.89,5.42-2s-1-4.82-1.74-6-2.16-2.34-1.93-3,3-4.41,1.93-5.47l.55-.37s.37-6.25-.37-7a4.61,4.61,0,0,1-.83-3.08c0-.92-1.49-1.86-2.11-2.48s-2.94-1.24-1.61-3.63,2.71-7.35,2.11-9.55A15.74,15.74,0,0,1,92,44.5s1.77-.11,2.25-.6S97.57,46,98,45.56l1.2.41.27-1.38a22.86,22.86,0,0,1,3.77,3.86c.87,1.47,1.79,3.12,2.85,3.63a2.33,2.33,0,0,1,1.38,1.84,4.2,4.2,0,0,0,.69,2.3c.53.53,1.08,1.22,1.26,1.4s.92.12.92.12a2.13,2.13,0,0,0,.37,1c.29.29,1.13.29,1.13.29s-1.15.83-1.15,1.15a1,1,0,0,0,.29.62s-1.41.91-1.23,1.41a.82.82,0,0,0,1.31.39c.44-.44,2-1.5,2.27-1.79a7.15,7.15,0,0,0,.71-1s1.61-.85,1.45-1.45-.39-1.15-.87-1c0,0,1.32-1.11.92-1.52s-.78-.85-.78-.85,1.1-1.52.55-2.07a2.24,2.24,0,0,0-1.75-.55,4.76,4.76,0,0,1-1.93-.37,4.74,4.74,0,0,1-1.17-2.9,13.81,13.81,0,0,0-2-5.69c-1-1.52-2.18-3.22-3.15-3.56A3.84,3.84,0,0,1,104,39.1l.39-.23a21.36,21.36,0,0,1-2.64-3.37,2.38,2.38,0,0,0-1-1.52,7.67,7.67,0,0,1-2-2.69c-.32-.87-.44-1.47-1.49-2a14,14,0,0,0-3.79-1.38c-.73,0-.92.12-1.22-.76S89.52,25,89.35,24.79s-.76-1.19-1.54-1.54-3.08-1.65-3.67-1.9a6,6,0,0,0-1.86-.55,3.87,3.87,0,0,1-1.4-.62l-.22.22a4.54,4.54,0,0,1-.72-2.29,22,22,0,0,0,.14-2.5s2.48-2,2.48-3.38S82.46,9,81.29,9.64c0,0,1-5-1-6.57S75.45-.74,73,.24s-5.21,2.66-5.53,4.82a30.15,30.15,0,0,0-.32,4S65.9,8,65.9,9.5s.11,4.16.64,4.45.71,0,.71,0-.48,2.32.28,3.08a2.88,2.88,0,0,1,1,2c0,.48,0,1.16,0,1.16a7.24,7.24,0,0,0-2,.86c-.4.4-2.15.4-2.88.4s-.95.92-1.47,1.44-3.67,1.17-5,2.51-1.16,3.12-2.08,3.49-.61,1.35-.61,2.08-1.22,2-1.84,2.57.55,1.29-.61,1.29a1.43,1.43,0,0,0-1.47,1.59c0,.67-.31,2.88-.31,2.88s-2.14,2.27-2.93,2.27-4.5,1-4.77,2.11c0,0-.51-.78-1.2-.78h-3A4.14,4.14,0,0,0,37,41.47c-.67-.27-2.08-.12-2.08.77,0,0-3.93-5.22-4.66-5.94A11.11,11.11,0,0,1,29,34.76l-.19.18A38.91,38.91,0,0,1,25,28.85c-1.29-2.79-6.07-15.06-7.81-17.91-3-5-6.68-8.64-9.37-10S1.25-.5.34,4.08C-.6,8.81.22,13.76,5.3,19.7s8.2,7.47,10.41,8.51S24,33,26.25,36c0,0,0,.86,1.41,2.27a23.67,23.67,0,0,1,3,4.41s-.83.06-.83.79a1.26,1.26,0,0,0,1,1.38,1,1,0,0,0-.34,1.1,1.19,1.19,0,0,0,.95.86,1.43,1.43,0,0,0-.12,1.1c.18.61,1.1.8,1.1.8s-.26.38.28.92,2.24.37,2.24.37a1.72,1.72,0,0,0,1.44.58,1.56,1.56,0,0,0,1.41-.68.73.73,0,0,0,1.07.49c.86-.37,2.82-.31,3.25.12s.55-.09.55-.09,4.07,1,5.57.77a9.53,9.53,0,0,0,4.1-2C52.92,48.51,55,46.8,55,46.8s1,.7,1.38,0,3.92-6.16,3.92-6.16,1,.67.86,1.13.71,1,.92,1.56,1.44,1.78,1.44,2.82.43,2.27.43,3.12.86,1.66.43,3.13-1,3.19.61,4.1,2,2.94,2,4.16.4,4.26,1,4.84a2.3,2.3,0,0,1,.31,2.82c-.61,1.35-.67,2.14.06,2.88s1.38,1.56.55,2.39a3.25,3.25,0,0,0-.67,2.33,5.67,5.67,0,0,1-.92,1.41c-.52.52-2.51,1.65-2.08,2.08s-.61.37-.61.74-.46.25-.46.83-.4.46-.4.89-1.9,2.94-2.51,2.94-.61.74-.61.74-5.76,6.31-6.06,7.65a7.9,7.9,0,0,1-1.29,3.37,7.81,7.81,0,0,0-1.47,4.16,43.51,43.51,0,0,1-1.9,8.88c-.67,1.53-3.18,6.55-3.8,8.51s-1.78,4.66-1.78,4.66a.84.84,0,0,0-.93.64c-.28.78-1.86,1.61-1.86,2.37s-2,3.28-2.27,3.6-.6,1.56-.74,1.7l-.78.78a2.29,2.29,0,0,0-1.1-.46c-.5,0-1,1.29-1,1.29s-1.1.69-.55-1.52a17.93,17.93,0,0,0,.23-5.19s-.62-.28-.62.62a6.76,6.76,0,0,1,0,2.46,15.75,15.75,0,0,0-.3,3.22s-1.82.67-1.24,1.24a1.74,1.74,0,0,0,1.19.55v.55a6.28,6.28,0,0,0-2,1c-.57.57-1.17.62-1.75,1.19a18.1,18.1,0,0,1-1.88,1.29c-.23.23-3.12,1.15-4.36,1.61s-2.57,1.75-2.57,2.71,1.79,2.39,5.24,2.39,5.65.87,7.58,0,4-1.29,5.23-.83,6.34.5,7.3-.46,1.38-1.15,1-2.8a46.84,46.84,0,0,1-.92-6.38.78.78,0,0,0-.78-.83S49,130.95,49,130.4s1.17-1,.83-1.38,1.4-2.09,1.4-2.09l-.37-.37s7-7,8.25-10.91,2.21-8.77,3.31-11.12,3.58-5.33,5.6-6.29a42.51,42.51,0,0,0,4.92-3v.37l1.19-1s2.11,6.2,2.71,8,3.49,9.23,5.28,10.61,6.25,1,8.31,1S94.15,113,95.62,113s7.26-.18,9.46-1a26,26,0,0,1,6.29-1l0,.55a4.42,4.42,0,0,0,2.25.14c.74-.32,1,.28,1.61,0s.74,0,1.2,0,1,.14,1.33.14.23.74.74.37,1.15.18,1.42-.09,1.52.32,1.52.32-.6.69.23,1a1.7,1.7,0,0,1,1.06,1.65,7,7,0,0,0,1.38,3.17c.71.71.69-.23.69-.78a8.75,8.75,0,0,0-.41-1.79s3.67,2.76,4.32,4.87,1.38,6.06,2.57,6.06,4.46-3.4,4.46-7.35S134.16,112.94,134.53,110.88ZM19,27.64A2.92,2.92,0,0,0,21,25.25c.11-.54,1.7,4.59,2.62,5.51C23.59,30.77,20.56,28.1,19,27.64Z"/></g></g></svg>