<svg xmlns="http://www.w3.org/2000/svg" viewBox="0 0 80.4 147.63"><title>Asset 12</title><g id="Layer_2" data-name="Layer 2"><g id="Layer_1-2" data-name="Layer 1"><path d="M80.4,33c0-3.85-2.7-11.25-3-12.65s-2-5.65-1.8-6S74.65,13,74.29,13s-.9-.9-.9-1.35a2.08,2.08,0,0,0-.9-1.45c-.45-.25-4,.4-4.2.55a9.1,9.1,0,0,1-2.85.5.67.67,0,0,0-.75.35,7.12,7.12,0,0,0-.8.2c-.5.15-.9.85-.9.85H62c-.45,0-1,.7-1,.7a2.52,2.52,0,0,0-1.4-.3c-.7.1.15,1.55-.15,1.7a48.18,48.18,0,0,1-5.75,1.6c-.5,0-1,.4-1.15,0a4.3,4.3,0,0,1,0-1.6c.1-.5.1-1.55.65-1.35s1.15-.4,1.2-1-.5-4.1-.25-4.3-.2-1-.4-1.5-.75-2.7-1-3.5A7.39,7.39,0,0,0,49.19.24c-1.45-.5-1.1-.05-2.65-.1S44.34,1,43,1.74a4.86,4.86,0,0,0-2.1,3.5,10,10,0,0,1-.55,3.4c-.4,1,.35,1.8.3,2.2s.2,1.65.2,2.25,1.35,1.15,1.75,1.3.55,1.6-.5,1.65-.7-1.4-.7-1.4-.4.15-.6,1.2.5,1.15.8,1.45-.35.6-.9.75-1.15.85-1.85.9-.5,2-.5,2-31.8,9.4-34.8,10.1-2.8,1.4-3.1,2.6-.7,2.8-.2,3.15,2.6-.4,3.15-.85-.1-4.05.2-4,9.65-3,9.65-3L38,22c-.5.55-.2,3.75-.35,4.3s1.05,5,1.05,5a19.69,19.69,0,0,1,1,5.55c-.1,1.6,1.1,6.8,1.8,7.55s.7,1.75.65,3.1,1.1,3,1.35,3.65a37.11,37.11,0,0,1,.55,4.15l-.55.45c-.55.45-.5,1.75-1.1,2.45s-1.1,2.8-1.7,3.55-1.35,4.7-1.6,6.05-1.2,4.8-1.3,5.7,1.1,2.3,1,2.85,0,3.3-.15,4.65a53.37,53.37,0,0,0,.25,6.6,9.88,9.88,0,0,1-.1,3.8c-.35,1.35-.35,3.45-.55,4.85a30.3,30.3,0,0,0,.4,7.4c.4,1.25-.1,1.15-1.2,2.55s-.55,3.2-1,3.75-.95,4.85-.95,5.85-.6,8.3-1.5,8.75a5.11,5.11,0,0,0-1.7,2.6l-.18.24a1.58,1.58,0,0,0-.22,1,4.68,4.68,0,0,0-.17,2.33c0,1.08.91,1.89.59,3.56-.36,1.91.65,1.45.65,1.45a20.31,20.31,0,0,1,.18,4.17c-.09.87-.5.87,1.24,4.86s5,2.89,6.74,2.43,1.1-3.39,1.05-4.54a20.21,20.21,0,0,0-1.83-5,1.33,1.33,0,0,1-.16-.44c.11,0,.18,0,.18-.07s-.05-.33-.08-.57a.34.34,0,0,1,.29-.2c.41,0,.14-.64,0-.69s-.09-1-.09-1.47,1.51-1.69,1.51-1.69a7.54,7.54,0,0,0,1.48-1.25l0-.08s2.14-12.18,2.58-13.6,1.25-5.3,1.8-5.9.6-.6.6-1.4.15-1,.8-2,1-2.15,1.8-3.4.45-3.35.45-4.35a12,12,0,0,1,.8-3.75A35.59,35.59,0,0,0,53.19,92s.25,4.25-.25,5.9.15,6.9-.2,8.35-.55,13.2-.55,13.2S50.61,132.8,50,135.3h-.09a4.88,4.88,0,0,0-.39,1.6,1.32,1.32,0,0,0,0,.2,1.25,1.25,0,0,0,0,.21,2.15,2.15,0,0,0,.23.58,6.21,6.21,0,0,1,.2,2.7,2.29,2.29,0,0,0-.29,1c0,.26,0,.64.26.5s.29.14.15.23a2.28,2.28,0,0,0-1.54,1.17c-.6,1.06-4.81.49-5.18,1.69a6.37,6.37,0,0,0-.23,1.55.85.85,0,0,0,.87.82H59.58a.85.85,0,0,0,.87-.82.77.77,0,0,0-.06-.3,3.89,3.89,0,0,0-.08-1.55c0-.35,0-.29.12-.55s.29-.26.06-.52-.32-.38-.09-.87,1.17-1.28.93-2.33a8.71,8.71,0,0,1-.14-.93c0-.18,0-.36,0-.5a15.15,15.15,0,0,1-.05-2.1c0-.65,1.9-8.25,2.4-9.9s1.85-12.4,1.85-12.6a13.6,13.6,0,0,1,.75-3.35c.35-.45.5-2.85.95-3.9a11.66,11.66,0,0,0,.7-4.25c-.05-1.3.6-10.4.7-12.25s1.15-10.65,1.7-12.3.7-8.25.7-9-.2-4.1-.2-5.4-1.5-2.3-1.5-2.7-.35-.7-.6-1.2-.75-3.55-.85-3.75a14.87,14.87,0,0,1,.1-2,2.72,2.72,0,0,0-.65-1.5,3.5,3.5,0,0,1-.8-1.9,34.74,34.74,0,0,0-1.05-4,20.56,20.56,0,0,1-.6-3c0-.7-.25-2.8-.25-2.8a23.86,23.86,0,0,1,2.8-.35,5.77,5.77,0,0,1,2.2.45c.85.3,2-.1,2-1s1-2.3,1.3-2.1a16.52,16.52,0,0,0,5.5-.35C80.6,37.49,80.4,36.89,80.4,33Zm-7.15-6.75c-.2,2.9-.35,4.9-.35,4.9s-.05-.85-1.55-.85a9.19,9.19,0,0,1-3.7-1c-1.1-.45-4-1.45-5-1.7s-.9-.65-2.35-1.2-1.7-1-1.6-1.5.5-1.75.5-1.75,6.65-1.95,7.25-2.35,2.25-1.55,2.4-2.6.65-1,.9-1a13.79,13.79,0,0,1,2.35-.3c.15.15.45.25.45.65S73.45,23.39,73.25,26.29Z"/></g></g></svg>