<svg xmlns="http://www.w3.org/2000/svg" viewBox="0 0 142.66 163.48"><defs><style>.cls-1{fill:#fff;}</style></defs><title>Asset 11</title><g id="Layer_2" data-name="Layer 2"><g id="Layer_1-2" data-name="Layer 1"><path d="M57,17.93a6,6,0,0,1-2.09.43c-.86-.06-2-1.48-1-1.73s.61-.43-.18-.43-1-.74-2.9-1.11-2.15-1.42-1.72-2,.55-.68,1.48-.68,1.66-.62,1-1a1.47,1.47,0,0,0-1.23-.25c-.31,0-1.23-1.11-2-1.66s-.49-1.85-.49-1.85a3.14,3.14,0,0,0-2,.06,9.19,9.19,0,0,1-2.34,1c-.43,0-1.36-.31-1.42-1S42,6.17,42.31,6s.8-.49-.06-.74-2-.74-1.35-1.66,1.91-.37,1.91-.37-.62-.8.06-1.23S44,2.41,44,2.41a4.38,4.38,0,0,0,.74.12c.25,0,.68.37.86.37s1.17.06,2,.06,1.85-.37,2.28.18,1,.43,2.4,1.11A8.77,8.77,0,0,1,54.94,6.6l.25.18s0-.55.86.25,1.85,2.09,1.36,2.22l-.5.12-.06.55s2.28.19,2.46,1.23.37,2,.37,2,9.48,2.4,11.21,3.08,6.4,2.59,7.57,3.27a35,35,0,0,0,3.39,2.09h1.42s.49-1.23,0-1.48-.92-1.17-.62-1.6a5.8,5.8,0,0,0,.12-3.08,9.14,9.14,0,0,1-1.17-1.91c-.18-.68-.92-2.53-.12-1.42s.92,1.11.86-.06-.18-.8-.18-1.91-.25-2.34,0-1.79.55-.92.74-1.36,1.17-.74,1.85-1.23,1.91.12,2.15-.92-.61-2-.25-2.59.12,1.48.8,1.6.18-.92,1.11-1.6S90,2.23,90,1.12s-.18-1.54.25-.61.49,1.29,1.29.68a3.06,3.06,0,0,1,2.09-.8c.93-.06.93-.56.56.61s-1.54,2.22.49,1.42,2-1.29,3.39-.31,2.4,1.42.12,1,.31.8,1.29,1.11a3.61,3.61,0,0,1,2,3.39c0,1.66.8,3.51.92,4.8s.12,2.4.12,3.14,1.11,3.14.68,3.75-.55-.12-.55.8V21a4.19,4.19,0,0,1,3,1.17c1.11,1.23,1.23,1.73,4.31,2.65s6.16,6.4,6.16,6.65,3.26,4.25,3.69,4.74a5.45,5.45,0,0,1,.31,3.57c-.37.62-.93,1.17-1,3.69s-1.11,6.46-.49,8.38a10.74,10.74,0,0,1,.68,4.06,17.38,17.38,0,0,1-.31,3.26c-.19,1.17,1.79,1.72,2,3.57s-.8,2.53-.74,3.14a4.16,4.16,0,0,0,.5,1.35s1.29-1.35,1.41.25.49,6.09,0,6.09h-.49s5.11,6.59,2.09,14-5.79,9.05-5.79,9.05l-2.46,1.54a22.08,22.08,0,0,1-1.6,3.57c-.86,1.42-1.17-.06-1.17.13s-.8,4.62-.37,5.79.25,6,.12,6.89-.55.81-.55.81-.8,5-1,5.6-3.39,9.91-3.39,9.91l-1.36,3.7.25.31s.31.06-.37.73a2.67,2.67,0,0,0-.86,1.6,5.55,5.55,0,0,1-.31,1l29.14.21s1.94-.42,4.72,4,5.31,7.59,3.2,8.6-22.76,8.43-38.77,10.28S69,163.48,69,163.48s-17.79-.17-30.85-2.78-21.33-4.63-25.54-6.07-4.89-1.77-4.89-1.77l-.51-.25a7.92,7.92,0,0,1-2.61.08c-.76-.25-.17-3.12-.17-3.12s-4.21-6-4.13-6.41S-1,140.8,1.7,140.8s28.07-1.35,28.07-1.35a13.2,13.2,0,0,1,3.29-1.1,9.35,9.35,0,0,0,2.11-.34s-.08-1.52.84-2.11,1.85.34,2,.76,1,1,1,1l.67,1.1,6-.25A46,46,0,0,1,48,134c.42-.42,1.26-1.26,1.6-1.09l.34.17s4.64-12.64,5.82-14.75,6.83-9.44,7.59-10.87,2.19-2.78,2.28-3.46A11.7,11.7,0,0,1,68,99.67,6.92,6.92,0,0,0,69.55,97L69,96.72s5.48-9.95,8.26-12.48,4.72-4.89,5.14-6.57,1.35-3,2.28-3,1.52,0,1.1-1-1.85-2.19-1.85-3.2.17-2.44.17-2.44l-.33-4s-3.12.51-4,.08a4.43,4.43,0,0,1-1.6-1.52L75.37,57s-3.37.17-1.77-3a11,11,0,0,1,2.11-1.18,5.94,5.94,0,0,1,2.7.59,6.81,6.81,0,0,0,2.61.33,1.51,1.51,0,0,0,.84-.25s1.18-2.28.93-3.12-.84-1.52-.25-2S83,46.65,82.7,46a20.62,20.62,0,0,1-1.35-3.88A20.74,20.74,0,0,1,81.78,37c.34-1.1,1.94-2,.25-3s-1.52-1.6-2.11-1.77a21.11,21.11,0,0,1-5.23-2.36,23.79,23.79,0,0,0-6.32-3A22.6,22.6,0,0,1,62.14,23C61.63,22.37,57,17.93,57,17.93Z"/><path class="cls-1" d="M57.19,138.18H85.37s.33-1.64,2.49-1.45a16.81,16.81,0,0,0,2.7.13s1.38-2.5,2.69-1.58.92,1.12.92,1.12,1.25-.46,1.71-.13.66,1.18,1,1.18h.33a72.85,72.85,0,0,0,.66-8c-.13-1.84-1.18-9.72-.92-11.56a7.92,7.92,0,0,1,1.05-3,63,63,0,0,0,.92-8.34c-.13-2.1-.66-6-.39-7.1l.26-1.12s-9.4,4.47-10.84,5.26-5.32,2.43-6.7,3.55a4.26,4.26,0,0,1-2.82,1s-4.34,3.55-4.86,4.47a31.41,31.41,0,0,0-3.22,7.62c-.85,3.48-2.89,6.7-4.4,7.82A58.26,58.26,0,0,0,57.19,138.18Z"/></g></g></svg>