<svg xmlns="http://www.w3.org/2000/svg" viewBox="0 0 78.64 125.64"><title>Asset 1</title><g id="Layer_2" data-name="Layer 2"><g id="Layer_1-2" data-name="Layer 1"><path d="M78.51,111.95a6.38,6.38,0,0,0-.87-4.64c-1.16-1.67-5-3.62-7.1-4.78a24.17,24.17,0,0,1-3.84-2.68,17.79,17.79,0,0,0-2.9-2,2.81,2.81,0,0,1-1.45-.94c-.43-.51-.29-.8-1.38-1.16a28.86,28.86,0,0,1-4-1.81A5.7,5.7,0,0,1,54.54,92c-1.52-1.67-3.26-3.84-4.49-5.5s-2.39-3-3.48-4.63-2.9-4.71-3.33-5.58a51.12,51.12,0,0,1-1.67-5.21c-.8-2.61-1.45-3.62-1.09-4.64a14,14,0,0,1,2.1-3.57,11.85,11.85,0,0,0,2.51-4.49,9.43,9.43,0,0,0-.48-5.24,39.37,39.37,0,0,0-3-5.61c-.83-1.35-2-3-3.62-5.59s-3.69-6.13-3.69-6.71a6,6,0,0,1,1-2.54,20.59,20.59,0,0,0,1.45-2.82c.43-.94,1-3,1.59-3.19a12.7,12.7,0,0,1,3-.43c.72,0,1.88.22,2.46-.36a2.34,2.34,0,0,0,.58-2.1c-.15-.65-.22-1.38.15-1.59s.36-.51.36-.87-.32-.81,0-1.16a1.15,1.15,0,0,0,0-1.09c-.15-.22-.58-.8-.22-.94a4.55,4.55,0,0,0,1.09-.63.92.92,0,0,0,0-1.47A13.12,13.12,0,0,1,44,14c-.58-.87-1.09-1.45-.94-2.17a7.32,7.32,0,0,0-.36-3.62C42.16,7,42.31,4.85,39,2.9S33.26,0,29.85,0,24.13.29,22,2.39a14.55,14.55,0,0,0-3,3.77,4.5,4.5,0,0,1-1.38,1.52.84.84,0,0,0-.8-.65c-.65,0-.94.72-1.38.72s-3,0-4.27,1.09S7.77,12,7.12,14.19s-1.45,7.46-.8,9.56A78.72,78.72,0,0,1,8.64,31.5a14,14,0,0,1,.07,6.74c-.72,2.68-.29,4.13-2,5.36s-2.1,2.17-3.11,2.46.15.44,1.09.29,2.83-1.88,3-1.09a7.85,7.85,0,0,0,.36,2c.29.58.14-3.33.58-3.77s.65,2,.65,3-.07,1.81.44,1.88.51-2.25.72-3.69,1.23-3.55,1.45-2.68a7.69,7.69,0,0,1-.36,3.62c-.36.8-1.09,1.81-.8,2.32s.51-.15,1.09-1.37a14.66,14.66,0,0,0,1.38-3.19c.22-1.09,1.09-2.25,1.74-5s.72-4.35,1.66-4.35a1.7,1.7,0,0,0,2-1.16c.51-1.09,1.38-1.3-.72-2.68a5.73,5.73,0,0,1-2.54-4.85c.15-.94,1.74.22,2.68.51s2,.51,2.39-.07-.22-.22-1.81-.87-2.1-2.32-3.11-4.63A16.32,16.32,0,0,1,14.22,15c-.14-1.23-.44-2.1-.07-2.68s1.38-1.59,1.67-1.37.51,1.23.87,1.23.8-1,1.16-.51.22,2,.07,3.11a6,6,0,0,0,1.19,3.91,11.18,11.18,0,0,0,2.64,3c.73.58,2.75,1.09,2.68,2.17s.07,3.4-1,4.71-2.61,2.9-3.62,4.06S17,35.73,16.45,37.4a33,33,0,0,0-1.36,4.9c-.22,1.59-.51,3.84-.58,4.92s-.29,2.32-.29,2.32a15.87,15.87,0,0,0,.51,4,24.48,24.48,0,0,1,.94,4.27s.94,4.2,1.3,5.72a37.21,37.21,0,0,1,.58,6.3,37.49,37.49,0,0,1-.22,6.88c-.43,2-1,4.13-1.45,4.27s0,1.16,0,1.52-.58.87-.94,1.74-.07,1.81-.36,2-1,.79-.94,1.37a4,4,0,0,1-.36,3A47.43,47.43,0,0,0,9.73,99a20.85,20.85,0,0,0-.29,8.33c.58,3,.94,4.2,1.66,5.43s2,2.68,1.67,2.68a9.39,9.39,0,0,0-2.9.58,33.61,33.61,0,0,0-6.59,3.4,25.29,25.29,0,0,0-2.39,2.32c-.43.36-1.16,1.16-.8,2a2.83,2.83,0,0,0,2.46,1.66,43.46,43.46,0,0,0,5.36.14c1.52,0,1.81-.14,3.62-.07a22.9,22.9,0,0,0,2.9.14c1.88,0,4-.07,5.58-.22a29.32,29.32,0,0,1,3.77.22c1.3,0,3.4-.22,6.15-.22s5.14-.22,7.31-.36,5.65.14,8.18.14,6.73,0,9.49-.14,7.31-.29,9.78-.43,8-.87,9.34-1.74,3.29-2.48,3.84-4.06a7.59,7.59,0,0,0,.72-4C78.37,112.6,78.29,112.53,78.51,111.95ZM43.61,100.6c-2-.73-4.71-1.33-6.45-2.41s.47-9.21.47-9.21,5.1,4.11,6.08,5a57.64,57.64,0,0,0,5.34,4.08c2.25,1.62,3.24,2.78,3.24,5C52.3,104.44,46.23,101.54,43.61,100.6Z"/></g></g></svg>