<svg xmlns="http://www.w3.org/2000/svg" viewBox="0 0 179.52 167.83"><title>Asset 2</title><g id="Layer_2" data-name="Layer 2"><g id="Layer_1-2" data-name="Layer 1"><path d="M177.6,125.45a19.55,19.55,0,0,0-2.5,0,17.26,17.26,0,0,0-2.26.39s-.89.54-.59.09a4,4,0,0,0,.84-1.56,18.06,18.06,0,0,0-.3-3.73c-.12-1.35-.2-2.69-.2-3.89,0,0,0-2.23.08-2.61s.4-.72.36-1.48a1.6,1.6,0,0,0-1.6-1.49,6.13,6.13,0,0,0-2.68,1.55c-.52.46-2.86,3.35-3.44,3.66a13.51,13.51,0,0,1-2.21,1.31,19.47,19.47,0,0,0-3.89,1.29,13.6,13.6,0,0,1-4.42,1.64c-1.57.14-3.37-.09-4.22-.81s-3.28-2.44-4.13-3.15-2.49-1.93-3.12-2.61-2-2.72-3.31-4.06-3-3.32-4-4-2.41-1.44-2.94-2.34a18.51,18.51,0,0,1-1.57-5.13c-.25-1.72-.66-5.34-.73-6.7s-.31-5-.34-6.44-.22-7.31-.18-8.51.29-7.07.34-8.21a37.93,37.93,0,0,0-.76-7.18,65.94,65.94,0,0,0-2-6.68c-.67-1.38-1.9-3.21-3.24-3.85a59.31,59.31,0,0,0-7.05-2c-2.25-.59-5.39-1.35-6.66-1.72s-4-1.42-5.13-1.69-3.85-1.1-3.94-1.64-.1-3-.1-4.06a5.31,5.31,0,0,1,.4-2.68,9.93,9.93,0,0,0,1.09-2.93c.12-.82.35-2.57.68-2.58a1.91,1.91,0,0,0,1.39-.4c.52-.46.73-1.67.92-2.11a6.68,6.68,0,0,0,.71-2,4.38,4.38,0,0,1,.23-1.75,8.88,8.88,0,0,0,.8-2.21c0-.71-.21-1.07-.6-1.22s-1,.43-1-.32a7.43,7.43,0,0,1,.09-2.5,28.69,28.69,0,0,0,.23-7.94,14.05,14.05,0,0,0-3.33-6.66A13.09,13.09,0,0,0,95,.07a15.08,15.08,0,0,0-6.12.67c-3,1-5,2-6.37,4.33a16.94,16.94,0,0,0-2.74,8.77s-.08,5.76,0,6.84,0,1.36-.37,1.27a.9.9,0,0,0-1.16.66,3.38,3.38,0,0,0,.37,1.77,10.83,10.83,0,0,1,.56,2.41A7.83,7.83,0,0,0,79.94,29c.13.26-.14,1.36.37,2s1.39.58,1.46.9a24.68,24.68,0,0,0,.83,3.38,12.09,12.09,0,0,1,.94,2.28c0,.59.2,1.73.25,2.75s-.08,2.56-.1,3.26.13,1.51-.46,1.65a15.42,15.42,0,0,0-2.46.73c-1.33.5-2.66,1-3.54,1.34-1,.42-2.36,1-4.17,1.67s-5.45,1.69-7.91,2.37a8.45,8.45,0,0,0-4.62,3c-1.12,1.25-3.66,4.64-4.16,7.6s-1.21,8-.91,9.6.89,6.57,1,9.28A104.74,104.74,0,0,1,56.31,92c-.24,1.64-1,12.21-1.27,13.09a4.34,4.34,0,0,1-1.17,2.45c-.83.7-2.3,1.64-3.24,2.34s-6.11,5.53-7,6.55A73.06,73.06,0,0,1,36,122.32a69.61,69.61,0,0,1-6.1,3.68,6.66,6.66,0,0,1-3.87.74c-1-.28-1.81-1.53-2.82-2s-3-.93-3.77-1.43a29,29,0,0,1-3.33-3.52c-.92-1-2.44-3-3.1-3.2a1.41,1.41,0,0,0-1.82.53c-.25.39-.25,1.34-.46,1.54-.39.38-.11,0-.32.23-.41.45-.31,2.4-.58,3.39s-1.23,3.43-1.39,4.42-.46,1.65-.22,2.18a39.4,39.4,0,0,0,1.61,3.71c.35.42.79.51-.08.55s-1.6.52-2.36.56-2.81.23-4.1.41S.16,135.39,0,136.46c-.1.75.08,1.48.73,1.34s2.42-1.29,2.46-.63-.36,1.43.61,1.38,1.51-.19,2.16-.22,1.09.1,1.58.08,1.16,0,1.33.19-.15,1.06.29,1.2a3.4,3.4,0,0,0,1.65,0c.37-.13.57-.52,1-.6a15,15,0,0,1,2.09-.54,21.54,21.54,0,0,0,3-.27c1.35-.23,2-.43,3.28-.55a13.82,13.82,0,0,0,3.27-.71c.58-.25,1.91-.81,1.44-.4a20.94,20.94,0,0,0-2.43,3.33,9.16,9.16,0,0,0-.4,4.85,12.7,12.7,0,0,0,2.25,5.63,30.18,30.18,0,0,0,5.54,5.24c1.51,1,5.6,2.26,7.7,3s7.91,2.85,10.87,3.45,4.22,1.73,4.85,2.46-.09.38,1.29,1.83,1.15,1.35,2.73,1.32,3.22-.71,4.35-.77,4.28-1.15,5.85-1.34,3.5-.51,5.12-.65,1.6-.52,3-.37,2.73.34,4.81.56,4.88.94,6.51,1.07,6.11.6,7.74.68,5.6.25,7.12.17,4.46.15,6.09.17a41.83,41.83,0,0,0,5.35-.49c1.35-.18,3.24-.28,4.76-.36a37.76,37.76,0,0,1,5.47-.29c1.64.19,4.61,1,6.08,1s4.29,0,5.44-.66,1.38-2.73,2-3.69a3.65,3.65,0,0,0,.2-3.43c-.54-1-2.67-2.19-1.55-2.58a43.09,43.09,0,0,0,5.19-2.6c1.68-1,2.84-1.78,4.08-1.95a7.3,7.3,0,0,0,4.79-1.88,23.94,23.94,0,0,0,3.94-4.49,25.28,25.28,0,0,0,3-6.56c.42-1.38,1.33-3.54.8-5.36s-1.66-3.76-1-3.64,1.72.67,2.71.94a8.94,8.94,0,0,1,1.7.45c.61.29,1.14,1,2.07,1.2s1.1.27,1.63.08,1-.87,1.47-.89a5.88,5.88,0,0,0,1.35-.18c.48-.13.61-.53,1.11-.54a1.77,1.77,0,0,0,1.07-.28,2,2,0,0,1,1-.6,14.21,14.21,0,0,0,1.7-.74c.53-.19.85-.37,1.65-.63a10.06,10.06,0,0,1,2-.7c.6,0,1.06-.43,1.84-.1s1.07.65,1.42.14a1.52,1.52,0,0,0,0-1.79C178.82,126,178.42,125.52,177.6,125.45ZM15.48,126.93a16.25,16.25,0,0,1-1.51,2.9c-.27.38-1,.85-1.07.27s-.48-2.22-.57-2.65a7,7,0,0,1,.16-2.54c.24-1,.26-1.9.7-1.92s.68.62.68.62S15.72,126.12,15.48,126.93Zm54.69-12.59a59.18,59.18,0,0,1-1.33,9.07c-.67,2.42-1.48,5-1.85,6.06s-.85,4.05-1.18,4.72-3.85.3-5,.36-4.61-.59-6.72-.84-5.82-.64-7.43-.7-4.54-.31-5.56-.4-3.2-.2-3-.5a5.52,5.52,0,0,1,2.34-1,37.15,37.15,0,0,0,4.39-1.89c1.49-.66,3.81-1.79,5.65-2.61a27.47,27.47,0,0,0,4.34-2.75l1.53-1.09,5-3.66a26,26,0,0,0,4-3.1c.54-.75,1.92-6.32,1.92-6.32s.49-1.69.79-2.94.91-4.82,1-6.35.46-2.41.49-3.13.7-.33.93,1.11.35,4,.47,6.27S70.34,112.06,70.17,114.34Zm71.68,12.14a39.46,39.46,0,0,0-7.35,1.18,30.43,30.43,0,0,0-5.65,1.68,36.07,36.07,0,0,0-4.44,2.6c-1.4.87-1.38,1.23-2.36,1.86a2.26,2.26,0,0,1-1.19-1.89c-.05-1-.83-2.75-1.2-4.95a16.19,16.19,0,0,0-.71-2.27c-.84-2.38-.4-3.73-.83-6.46s.1-6.41-.22-8.31a106.72,106.72,0,0,1,.12-12c.12-.44.69,1.29.73,2.08s.91,3.57,1,4.57,1.16,4.13,1.54,5.93a6.89,6.89,0,0,0,2,3.22s4.47,3.89,5.89,4.83,5.24,3.27,6.35,3.8,5.85,2.59,6.8,2.9,3.39,1.12,3.4,1.41S144.1,126.51,141.86,126.48Zm27.54-7.37a18,18,0,0,1-.19,3.26c-.1.73-.39.82-.8,1.27s-.5,1.47-.86,1.49-.8-1.4-1-2a3.61,3.61,0,0,1,.19-1.89,7.33,7.33,0,0,1,1.41-2.17s.81-1,1.17-1.07S169.3,118.61,169.4,119.11Z"/></g></g></svg>