<svg xmlns="http://www.w3.org/2000/svg" viewBox="0 0 135.55 122.25"><title>Asset 3</title><g id="Layer_2" data-name="Layer 2"><g id="Layer_1-2" data-name="Layer 1"><path d="M89.79,62.36a19,19,0,0,1-4,2.79,42.28,42.28,0,0,1-5.37,2.05c-1.92.51-3.13,1.37-5.66,1.88s-2.57,1.28-4.6,1.48-2.89.54-4.31.54-2.33-.3-3.14-.2a14.5,14.5,0,0,1-2.73.4c-1.32,0-3.14.2-5,.3S48.4,73,47.79,72.83s-1.12.16-2.23.26-2.13,0-3.24,0-5.47-.6-7.29-.81-5,.3-8.1.3-7.59.61-9,.61-2.22-.45-3.13-.35a28,28,0,0,1-3,.15,19,19,0,0,1-3.37.11,13.38,13.38,0,0,0-3.73-.74,4.4,4.4,0,0,0-2.84,1.52C1.2,74.74.08,75.14,0,75.56c-.09.6.34,2.65,1.64,2.47a6.17,6.17,0,0,1,3.22.56c.78.23,4.33-.66,4.94-.56s.89.79,1.79,1.37,1.48.92,2.39.61,1.42-1.21,2.53-1.31a45.52,45.52,0,0,1,5.26.3,46.52,46.52,0,0,1,5.67,1.42c.19.06,1.34.17,1.42.71.1.71.36,1.71.4,2.42.1,1.82.1,3.24.1,3.24s3.43-.46,5-.46c0,0,3.23-.17,5-.47s3.47-.49,5-.69a42.5,42.5,0,0,1,5.16-.51c1.62,0,6.28-.1,8.1-.1s5.57.41,7.29.51,5.67,1,6.48,1.11,2.81.92,3.22,1.73.52,4.52.52,5.84.1,8.32.1,8.32.45,5.3-.16,5.4-2.33-.11-2.63,1a25.82,25.82,0,0,1-.79,3.58c-.26.51-1.1,1.56-1.1,2.37s1.23,1.22,1.64,1.22.28,1.28,1,2.41a8.83,8.83,0,0,0,2.58,2.63,10.09,10.09,0,0,0,4.37,1.42A6.09,6.09,0,0,0,84,120.5a6,6,0,0,0,1.29-3.24c0-.91.13-2.23.13-3.34a24.28,24.28,0,0,1,1-5.46,20.56,20.56,0,0,0,1-4.15,44.5,44.5,0,0,1,.74-5.19,6.91,6.91,0,0,0,.84-2.26,4.08,4.08,0,0,1,.34-2.17,15.64,15.64,0,0,1,1.52-2.83c.71-.81,1.42-1.52,2.13-2.23S95,89,95.17,88.42A2,2,0,0,1,96.28,87c.6-.2,1.21.05,1.82-.56s1-1.57,2.18-2.07,2.28-1.32,3.09-1.32,1.21-.31,2.94-.41,4.15-.71,4.05.21a38.73,38.73,0,0,0,.3,4.55,46.51,46.51,0,0,0,1.11,6.17c.4,1.42,1.11,4.45,1.21,5.06s.35,3.49.35,4.91a30.14,30.14,0,0,0,.51,5.11c.31,1.52,1.32,6.65,1.52,8s.71,3.24,1.75,4,3.54,1,4.35,1.06c1.09.05,1.52.51,2.23.51s1.37-.13,1.44-.43-.18-.43.84-.43,2.91-.12,3.52-.08c.8.05,1.11-.63.6-.83s-.43-.56-1-.66-2.6-.33-3.52-.43a15.6,15.6,0,0,1-3.24-.71c-.94-.33-2.33-.1-2.83-1.42a17.15,17.15,0,0,1-.51-6.48c.2-2.63.51-6.28.71-7.49a13.46,13.46,0,0,0-.51-5.06,5.6,5.6,0,0,1-.61-2.63c0-1-.2-5.26-.3-6.68a8,8,0,0,1,.5-3.54,12.81,12.81,0,0,0,.91-5.67c-.2-2.63-.41-5.16-.41-6.48s-.2-4,.41-4.66A11.06,11.06,0,0,1,123.31,67a10.09,10.09,0,0,1,3.74-.51c.91.2,1.42-.3,2.13-.61s1.9-.67,1.8-1.08,1.14-1.21,2.25-2.32,3.4-4.65,1.72-7.63c-1.38-2.45-3.34-3.85-6.07-3.54a10.24,10.24,0,0,0-4.76,1.92s-.81-.4-1.12-.2a14.05,14.05,0,0,0-2.23,2.12c-.4.61-.1,1.62-.4,2.13a4.88,4.88,0,0,1-2.84,1.31c-1.42.3-2.13.71-3.24-.51a10.23,10.23,0,0,1-2.63-4.56,21.6,21.6,0,0,0-1.72-5.67c-.91-1.62-1.52-2.33-1.82-4.25s-.4-4.45-1-6a5.06,5.06,0,0,1-.61-2.94,22.55,22.55,0,0,0,0-5.87,71.54,71.54,0,0,1-1.32-9,33.09,33.09,0,0,1,.2-6.17c.2-.51,1.42-1.42,2-2.43s1.2-1.54,1.61-2.35,1.15-1.17,1.16-1.41c0-.5-.23-1-1.15-.6s-1.82,2.43-2.53,2-.56-.4-.86-1.57A35.14,35.14,0,0,1,105,3a6.83,6.83,0,0,0-.58-2.49c-.23-.24-.42-.36-.64-.19s-.28.87-.18,1.43.21,2.61.21,2.61.11,1.3-.24,1.3-.56-2.23-.73-2.78-.51-1.79-.71-2.31-.5-.68-.85-.53-.19,1-.09,1.57.51,2.18.51,2.18.66,2,.45,2.08S101.44,5,101,3.54s-.63-2.61-1.3-2.32c-.52.22-.28.85-.18,1.4a12,12,0,0,0,.57,2.07,14.62,14.62,0,0,1,.78,2.15c-.05.15,0,.7-.33.29s-.71-1.42-1.11-2-.75-1.5-1.21-1.16.15,1.56.39,2.1A21.92,21.92,0,0,1,99.93,8.6a22,22,0,0,0,.25,2.43c.15.56.4,1.47.56,1.87a13.77,13.77,0,0,1,0,2.88c-.05.86-.31,4.1-.31,4.66V25c0,.81-.1,4.1-.1,4.76s.1,3.24.1,3.75.05,1.57.05,2.48.15,4.25.1,5.06.05,2.93.1,4.2a30.86,30.86,0,0,0,.61,4.35c.2.86.91,3.34.4,3.85s-1.14,1.31-1.6,1.82A6.83,6.83,0,0,1,97.8,57c-.86.3-1.3,1.08-1.85,1.38s-1.38.39-1.94.95-.45.9-1.06,1a2.51,2.51,0,0,0-1.42.79C90.92,61.61,89.79,62.36,89.79,62.36Z"/></g></g></svg>