<svg xmlns="http://www.w3.org/2000/svg" viewBox="0 0 100.56 91.31"><title>Asset 4</title><g id="Layer_2" data-name="Layer 2"><g id="Layer_1-2" data-name="Layer 1"><path d="M43.79,18.9a14.26,14.26,0,0,0-3.25-.19,30.06,30.06,0,0,0-3.44,1.4c-.89.38-1.91,1.59-2.93,1.91a16.39,16.39,0,0,1-3.05,1.15,14.53,14.53,0,0,0-3.56,1.15c-.45.25-.25.13-1.59.19a19.81,19.81,0,0,0-4.71.57c-1.34.45-2.93,1.08-4,1.34a21.58,21.58,0,0,1-2.61.76c-1.27.19-2.48.7-3.5.89s-.83.19-2.74.51a21.7,21.7,0,0,0-4,1c-1.08.38-2.37.65-2.95.91S0,30.93,0,31.32A.59.59,0,0,0,.55,32a.91.91,0,0,1,.69.22,1.32,1.32,0,0,0,.92.21,2,2,0,0,0,.61-.06s-.43.27-.16.57S3,33,3.37,33a13.87,13.87,0,0,0,1.72-.44c.57-.13,1.27-.13,2.17-.26a8.71,8.71,0,0,0,2.16-.64c.64-.25,1-1.08,1.4-1.08s2.86.06,4,.06a24.4,24.4,0,0,0,4.33,0c1.59-.25,3.12-.57,3.88-.7s2-.7,2.55-.7,1.72-.08,2.87-.08a19.6,19.6,0,0,0,4.12-.34,30,30,0,0,0,4.6-1.49c.83-.38,2-1.27,2.61-1.27s1.27,1.72,1.59,2.35A16.93,16.93,0,0,1,42.58,32c.25,1.27.19,2.42.38,2.74a3.37,3.37,0,0,1,.51,1.46,2.34,2.34,0,0,0,.25,1.15c.13.25.76,1.08.76,1.53s-.32,1-.25,1.15.38.89.06,1.14S44,42.45,44,42.71a6.64,6.64,0,0,1-.83,1.91,24.49,24.49,0,0,0-1.78,2.87,7.62,7.62,0,0,1-1.27,2.61c-.76.89-2.2,1.88-3.09,3s-3.44,3.75-4.39,5.16A58.12,58.12,0,0,1,28.63,63a35.53,35.53,0,0,1-3,2.58c-1.15,1-3.1,3.25-4,3.95s-2.94,2.77-4,3.77c-.87.79-3.21,3-4,3.89l-3.17,3.48c-.57.64-1.5,1.77-1.88,2.22A18.14,18.14,0,0,1,6.67,85c-.57.44-1.38,1.48-1.89,2S4,88,3.7,88.26s-1.17,1.17-1.13,1.48.4.64.54.78c.36.36.72-.12,1.1.25s.49.2.9.2c.6,0,.5.43,1.1.31S7,90.7,7.49,90a5.34,5.34,0,0,1,1.12-1.29c.24-.17.92-.24,1.13-.5.37-.48-.19-1.35.32-1.73s1.08-1,1.59-1.27,1.59-1.15,2.67-1.85,2.55-1.85,3.31-2.35,1.81-1.78,2.64-2.42,2.86-2,3.63-2.67a27,27,0,0,1,3.15-2.29c1.08-.64,2.12-1.08,3-1.67a29.67,29.67,0,0,0,3.56-2.62,35,35,0,0,1,4.2-3.25c1.14-.7,3.44-2.26,4.58-2.77s3.91-2,5-2.48,3.8-1.05,4.65-1.34a11.67,11.67,0,0,1,4.58.25s3.95,1,4.9,1.21,3.37.38,5,.64,4.26.51,6,.83,4.58,1,4.58,1.21-.67,3.28-.92,4.17a29.44,29.44,0,0,0-.67,4.39c0,.7.32,4,.45,5.06s.51,5.22.45,6-.7,2.23-.76,2.86-.67,2.14.25,2.61,3.37.13,4.46-.06a7.89,7.89,0,0,1,3,0,31.66,31.66,0,0,0,4.2.57c.83,0,2.71.45,3-.06.37-.67-.41-1-.59-1.17a7.51,7.51,0,0,0-1-.38,5.74,5.74,0,0,0-1.17-.42A17.83,17.83,0,0,1,85.25,86a13.29,13.29,0,0,1-2.76-1.63,2.57,2.57,0,0,1-1-2.48,25.06,25.06,0,0,1,.64-5.54c.45-1.72,1.65-5.92,1.72-6.81a41.07,41.07,0,0,1,.64-4.65c.25-1,.38-5.41-.19-6.37a10.56,10.56,0,0,0-3.88-3.37A49.81,49.81,0,0,0,74,52.37c-1.4-.44-4.59-1.15-6.2-1.55A39.71,39.71,0,0,0,63.21,50c-.45,0-1.78-.13-1.78-.7s.19-1-.19-1.53a3,3,0,0,1-.32-2c.06-.89.25-3.18.19-4.39S60.92,36,61,34.88a6.45,6.45,0,0,1,.38-2.55,6.13,6.13,0,0,0,.7-2.93c0-1.34-.45-1.59-.19-2s.7-1.08,1-1.53a4.9,4.9,0,0,1,.83-1.08,7.79,7.79,0,0,1,2.42-1.15,16.53,16.53,0,0,0,2.68-.89A27.47,27.47,0,0,0,72,20.68c.83-.57,1.85-1.59,2.61-2.16s1.91-1.72,2.35-2.1A7.46,7.46,0,0,1,79.37,15c1.34-.51,1.85-.51,3.05-1.08a26.59,26.59,0,0,0,3.31-1.65c1-.64,1.78-1.15,2.61-1.78s1.53-1,2-1.4a2.07,2.07,0,0,1,1.4-.64,8.06,8.06,0,0,0,2.1-.64c.83-.32,1.15-.7,1.78-1A10.72,10.72,0,0,0,97.58,6c.44-.32.81-.53.7-.9s-1-.25-.76-.38a6.34,6.34,0,0,0,1.43-1.21,4.51,4.51,0,0,1,.63-.95c.53-.49.91-.71.95-.88.08-.33,0-.59-.4-.59A5.55,5.55,0,0,0,98.21,2a20.84,20.84,0,0,1-2.67,1.34,19.6,19.6,0,0,0-3.05,1.72s-2,1.15-2.74,1.4a15.1,15.1,0,0,0-2.8,1,12.76,12.76,0,0,1-2.67,1.21C83.32,9,80.33,10,79,10.43a9.77,9.77,0,0,0-2.55,1.46,10.81,10.81,0,0,1-1.78,1.27c-.7.25-2,.57-3.18,1.08S69,15.65,68,16.1,67,17.18,65.82,17.18a23.38,23.38,0,0,0-3.69.51,8.12,8.12,0,0,0-2.8,1c-.38.32-1.27,1.21-1.91.83s-1.78-1-2.16-1.27a3,3,0,0,1-.64-1.91c0-.64,0-1.08.32-1.08a7.44,7.44,0,0,0,2-.23c.41-.19.69-.87.88-1.77l.11-.52c.1-.48.14-.66.19-.86s-.05-1.1.19-1.21.64-.15.64-.53-.7-1.06-.83-1.63a5.24,5.24,0,0,1,.13-2.23,6,6,0,0,0-.7-3.37,5.89,5.89,0,0,0-2-1.85,10.6,10.6,0,0,0-2.4-.86,6,6,0,0,0-3.92.22,8.14,8.14,0,0,0-3.34,3.37,6.8,6.8,0,0,0-.64,3.12c0,1,.7,2.29.38,2.29S45.37,9,44.78,9A.86.86,0,0,0,44,10c.17.46.74.37.74.75s0,.7-.89,1.15-1.63.93-1.75,1.61c-.16.91.1,1.16.35,1.06s.64-.32.38.38-.76,1.08-.19,1.91.76,1,1.34.76,1-1,1.34-.78,1.05-.27,1.29-.71,1-.54.89-1.23c-.1-1-.78-1.48-.84-1.86s0-1,.51-.89.06.7.38.76,1.15,0,1,.32-.25,1.27-.45,1.85A5.11,5.11,0,0,1,47,17.19a4.83,4.83,0,0,1-1.91,1,1.76,1.76,0,0,0-.83.38A1.38,1.38,0,0,1,43.79,18.9Z"/></g></g></svg>