<svg xmlns="http://www.w3.org/2000/svg" viewBox="0 0 76.25 75.29"><title>Asset 1</title><g id="Layer_2" data-name="Layer 2"><g id="Í_ã_1" data-name="Í¼²ã_1"><path d="M76.24,14.77c0-.19-.28-.32-.58-.32a18.78,18.78,0,0,0-2.67.73l-1,.73L69.84,19l-2.67.61-.38,2.69H70a4.19,4.19,0,0,1,1.32-.48c.54,0,.8-.87.81-.91l.35-.71.43-.43a2.71,2.71,0,0,0,1.58-.26.39.39,0,0,0,.18-.31s0,0,0,0c0-.3-.51-.51-.56-.53l-.73-.24h-.76l.08-.42,1.48.11.76-.24.12,0-.32-.42a4.11,4.11,0,0,1,.62.1.25.25,0,0,0,.25,0c.18-.15.12-.58.1-.67v0l-.23-.17.18-.05a.51.51,0,0,0,.35-.35.67.67,0,0,0-.2-.52l0,0-.73-.07c.32-.13.65-.26.85-.36S76.26,14.85,76.24,14.77Zm-1.45,3-.6.2-1.39-.11.33-.6v0l1.39.11Zm.78-.87a1.35,1.35,0,0,1,0,.19.42.42,0,0,1-.06.27s0,0-.08,0a18.93,18.93,0,0,0-2.24-.24l.13-.23.28-.31a7.52,7.52,0,0,0,1.65.09Zm.16-1a.5.5,0,0,1,.14.29.21.21,0,0,1,0,0c0,.09-.1.16-.24.22a1.4,1.4,0,0,1-.31.07l-.08-.06-.06.08a7.31,7.31,0,0,1-1.42-.08l.41-.47.55-.2Zm-1-.29h-.11v.05l-.52.19s0,0-.88,1l-.61,1.1s0,0-.13.62l0,.11h1l.69.23c.16.07.43.24.45.39v0s0,.09-.11.16a2.74,2.74,0,0,1-1.5.22h0l-.51.51-.38.74c-.07.23-.3.79-.64.79a3.82,3.82,0,0,0-1.37.49H67l.34-2.36,2.62-.59L72.13,16l.94-.7a20.31,20.31,0,0,1,2.59-.7c.24,0,.39.09.41.19s-.06.17-.21.24S75.1,15.38,74.69,15.54Z"/><path d="M63.53,18.5c-.49-.08-1.2-.72-2.16-.84s-.84.36-1.2.36-.72-.36-1.44-.6-1.08-.12-1.8-.36a5.42,5.42,0,0,1-1.68-.72c-.48-.36-.84-.12-1.32,0s-1.8.72-2.4.84a4.62,4.62,0,0,1-2.16-.72,23.33,23.33,0,0,0-2.52-1.68c-.36,0-3.24-.6-3.84-.6,0,0-.63.09-3.72-.84L38.12,13l.09-.15.32-.64a3.79,3.79,0,0,0,1.16.5.55.55,0,0,0,.51-.57c.05-3,.06-3.1.06-3.1A1.88,1.88,0,0,0,41,8.78a8.33,8.33,0,0,0,.52-2.59,4.08,4.08,0,0,1,.09-.6c.26-.16.31-.5-.06-1.11A9.06,9.06,0,0,0,35.75.06a4.78,4.78,0,0,0-3,.66c-1,.52-2.15,1.15-2.42,1.92a29.24,29.24,0,0,0-.76,3.84c-.09.46-.12,1-.22,1.47l0,.2a3,3,0,0,1-.11.39c-.23.57-.49.36-.48.92L27.45,11l-.19-.28a11.39,11.39,0,0,1-2,.36c-.48,0-3-.48-3.6-.48a23.63,23.63,0,0,0-5.16,2.16s-.6.48-4.8,7.09a15.71,15.71,0,0,0,.12,2.52s.12.6.84,3.12a19.27,19.27,0,0,0,.24,2.64c.12.48,0,2.64.36,3.12s2.45.09,2.91,0v0l2.18,1.45,1.1.37H20l0,.27a1.12,1.12,0,0,0-.36.72s0,.36-1.32,1.8l-.6,1.32-3.84,3-3,2.28c-3.72,4-4.08,4.32-4.08,4.32a22.43,22.43,0,0,1-2.52,2.4c-.6.36-.6.6-1.56,1.2s.12,1.08.12,1.44c0,0,0,.36.72,6.25A5.7,5.7,0,0,1,4,59.57s0,.36.84.84C6.12,62,6.6,62.09,6.6,62.09H6.51a9.28,9.28,0,0,1-.42,3c-.37.12-3.26,2.09-3.38,2.17S-.35,69,0,70.17a2.24,2.24,0,0,0,1.44,1.35,2.87,2.87,0,0,0,2.78-.59l1.8-1.4c.6-.47.88-.74,1.27-.74.69,0,3-.34,3.32-.76a17.63,17.63,0,0,0,0-3.63l0,0,0,0c0-1.1-.11-2.12-.13-2.5h-.09a8.72,8.72,0,0,0,1.44-1.68L12,58c.84-1.56.72-1.92.72-1.92a8,8,0,0,0-.6-1.2,4.65,4.65,0,0,1,.36-1.2s.24-.48,10.09-5.88l1.32.36c3.36-2.4,3.84-2.4,3.84-2.4a44.11,44.11,0,0,1,5.76,1.8l7.09,6.72a24,24,0,0,0,2.16,2.88,7.72,7.72,0,0,0,2.52,1.32,5.36,5.36,0,0,1,1.2,1.44,2.48,2.48,0,0,1,0,1.08l3.12,3.36.12.6s.12.6,1.2.48l-.08.05,1.2,1.8v2.11l-.24,1.18,0,.13.16-.06s.22,0,1.24.51A13.69,13.69,0,0,1,55.78,73s0,0,1.93,1.57a3.4,3.4,0,0,0,2,.73,2.76,2.76,0,0,0,.88-.75s0,0,.14-1.49v0l-2.07-2.31c-.88-1-2.81-2.71-3-3a20.48,20.48,0,0,1-.59-3.44H55s0-.21,0-.36l.12-2.4V59.81l-.6-1.92-1.68-1.2.48-1.2-.24-1.2L52,52.6l-1-.36L49.36,50c-1.7-2.31-1.8-3.12-1.8-3.12a33.69,33.69,0,0,0-2.88-4c-.36-.48-3.12-3.48-3.24-3.84s-1.92-2.4-1.56-3a4,4,0,0,0,.36-1.92L37.11,34l.36-.84a2.9,2.9,0,0,0,1.92-.84c.6-.72.48-1.8.84-2.28A10.15,10.15,0,0,0,41,28c.24-.6,1.08-3,1.44-3s4.08,0,4.44-.12,2.76.48,3.24.48,1.92.36,2.76.36a7.54,7.54,0,0,1,2.76.84c.36.24,3.84-.24,4.56-.24s4.8,1,5.4.36c0,0,.6-.6,1.68-7.56C64,18.62,63.53,18.5,63.53,18.5Zm-53,49.43c-.2.31-2.4.68-3.17.68-.46,0-.75.29-1.39.79L4.15,70.79a2.72,2.72,0,0,1-2.62.56A2.06,2.06,0,0,1,.2,70.11c-.28-.83,1.8-2.16,2.6-2.66S5.87,65.4,6.15,65.3c.08,0,.14-.14.2-.3a2.82,2.82,0,0,0,4.15-.41A18.55,18.55,0,0,1,10.49,67.93Zm0-3.59a2.71,2.71,0,0,1-4.08.48,16.17,16.17,0,0,0,.29-2.71,15.49,15.49,0,0,0,3.66-.21C10.4,62.62,10.45,63.48,10.49,64.33Zm7.13-36.07h-1A6.53,6.53,0,0,1,17.62,28.26Zm1.84,4.68-1.05-.35-2.12-1.42a4.28,4.28,0,0,1-.47-1.73c0-.79.42-1,.43-1h2.24l.72.37,0,1,0,0,0,0-.63,0H18l.41.65.82.32.23.06.51.81v0l-1.5-.5-.06.17,1.57.52,0,.56-1.57-.57-.06.17,1.64.6,0,.3Zm-.15-2.31h0l-.75-.3L18.3,30h.2l.57,0,.1.09v.33Zm.63-7.57c-.44.33-.68,4.83-.72,5.55l-.69-.34h-.06l-.1-.4-.84-4.21.48-.72.24-.84A2.78,2.78,0,0,1,17.89,21s0-.36,1.56,0C20.42,22.7,19.94,23.06,19.94,23.06ZM55.53,67.79c.24.37,2.9,2.91,3,3l2,2.25-.12,1.4s-.46.54-.78.64a3.28,3.28,0,0,1-1.84-.71L55.9,72.83A13.79,13.79,0,0,0,53.24,71,5.29,5.29,0,0,0,52,70.5l.21-1.07V68.18c1,.66,1.67.15,2.31-.34a4.22,4.22,0,0,1,.85-.55A1.85,1.85,0,0,0,55.53,67.79Zm-1-2.21c.27-.11.4-.46.45-.82.08.62.22,1.67.36,2.36a4.23,4.23,0,0,0-.92.59c-.65.5-1.21.93-2.12.32l-.08.12v-.89s-1-1.47-1.17-1.79A14.92,14.92,0,0,0,54.52,65.57ZM30.74,42.28H28.82L29,17.12l2.82.42Zm6.89-28.81-.24.42a3,3,0,0,1-.73,1c-.29.2-.29.2-.4.19h-.21a2.43,2.43,0,0,1-.79-.39,1.43,1.43,0,0,0-.5-.26l-.45,0-.57-.06-.19.14-1,.63,0,0-.21.15-.36,1.44-3-.24V14.54l-1-1.08-.58-2.31h0l1.38-1.6.17,0c.71.64,1-.43,1.18-1s.24-1.68.76-2.12c1.18-1,2.1,2.43,1.11,3.09a5.48,5.48,0,0,0,1,.93c.27-1.38.8-3.11,2.09-3.8.49-.26,1.18-.18,1.26-.74.12-.82-.84-1.29.13-1.91,1.35-.86,2.25.8,3.3,1.37a2.43,2.43,0,0,0,1.48.32,3.6,3.6,0,0,0-.07.52,9.64,9.64,0,0,1-.44,2.45,2,2,0,0,1-.74.22h-.08L40,12.13c0,.13-.08.39-.33.39A4.18,4.18,0,0,1,38.53,12l-.08-.05-.4.81S38,12.75,37.63,13.47Z"/><path d="M31.36,6.63c-.47.05-.56.42-.66.78l0,.08c-.18.67-.36,1.48-.12,1.78a.32.32,0,0,0,.28.12V9.21a.14.14,0,0,1-.13-.05c-.14-.18-.09-.73.15-1.62l0-.08c.1-.37.17-.61.5-.64a.66.66,0,0,1,.64.46l.18,0A.84.84,0,0,0,31.36,6.63Z"/><path d="M31.47,8.6l0,.13.17.06,0-.15a1.11,1.11,0,0,1,.15-.36l-.11-.15A.94.94,0,0,0,31.47,8.6Z"/><path d="M38.75,8.91l.13.11L39,9h0l.09-.16-.2-.09c-.43-.48-1.43-.36-1.94-.29v0l-.21,0v.18l.74,0,.32,0a2.62,2.62,0,0,1,.81.22Z"/></g></g></svg>