<svg xmlns="http://www.w3.org/2000/svg" viewBox="0 0 48.59 116.59"><title>Asset 1z</title><g id="Layer_2" data-name="Layer 2"><g id="Vector_Graphics" data-name="Vector Graphics"><path d="M14.3,7.5A6.75,6.75,0,0,0,14.53,9a3.13,3.13,0,0,0,.6,1.37c.6.67-.79-.28-.63-.22-.44-.17-1,.22-1.38.36-.93.35-1.85.74-2.79,1.08-2.35.89-3.41,2.89-5,4.7-1.3,1.46-3,2.87-3.86,4.62C.82,22.1-.63,24.06.31,25.31S4,26.72,5.53,26.84a11.92,11.92,0,0,0,3.34-.18c.57-.12,1.88-.82,2.41-.56-.18,1.61-1.87,2.58-2,4.15a5.25,5.25,0,0,0,.71,2.62,15.43,15.43,0,0,1,1,3.41c.2,1.1.35,2.2.52,3.3.12.8.88,2.71.41,3.42s-1.32.53-1.28,1.53a5.26,5.26,0,0,0,.29,1.89c.22.49.69-.68.28.62a11.45,11.45,0,0,0-.69,2,11.72,11.72,0,0,0-.26,3.74c.31,1.19-.24,2.44-.31,3.66a43,43,0,0,1-.51,4.51c-.25,1.48-.4,3-.51,4.48a16.87,16.87,0,0,1-.22,3.72c-.67,2.34-.67,4.77-1.13,7.1.33.08.4.38.78.31.72-.13,1-.13,1.15.65.35,1.8-.1,3.78.17,5.63.21,1.38,2.6,6.93.6,7.38.31.09.47-.1.77,0,0,1.69-.85,3.51-1,5.24a8,8,0,0,1-.29,2c-.23.67-.87.61-.82,1.45s0,1.67,0,2.51c.08,1,0,1-.55,1.82-1,1.4-.44,3.19-1.17,4.65-.63,1.25-2.78,1.22-3.86,1.7A2.52,2.52,0,0,0,2,111.77a10.22,10.22,0,0,0,4.89.41c1.78-.12,2.76-.18,4-1.44,1-1,1.19.22,2.53.44,1.08.17,4.17.42,4-1.1-.14-1.16.45-2.48,0-3.67-.2-.48.52-1.4.63-1.94a7.2,7.2,0,0,1,.7-2.22c.36-.47.15-1.27.14-1.81a18.38,18.38,0,0,1,.44-2.81c.27-2,.45-4,.61-6.07A52.5,52.5,0,0,1,20.86,86,16.8,16.8,0,0,0,21,82.79a7.2,7.2,0,0,1,.07-2.49c.64.05,1.42,3.2,1.66,3.83.52,1.38,1.12,2.74,1.65,4.13s1.17,3.06,1.91,4.51,1.9,2.75,2.23,4.34c.27,1.3,1.1,2.31,1.1,3.68,0,1.22-.64,2.25.06,3.42s1.37.62,1.53,2.13a6.47,6.47,0,0,1,.25,1.44c-.07.49-.81.49-.72.9,1.09.34.89.53.36,1.54a6.64,6.64,0,0,1-1.66,2c-.64.55-1.63,1.06-1.87,1.93-.1.35.21.79-.08,1.09s-.43.73,0,.9c2.19.76,5,.23,7.21,0a2.36,2.36,0,0,0,1.51-.46c.22-.25.29-.65.6-.83.62-.37,1.59.15,2.37-.32s1-3.29.24-3.71c.06-1.22,1.28-3.07.46-4.27-.32-.47.68-1.27.83-1.69.31-.91-.92-1-.87-1.94.14-2.19-.61-4.59-1-6.79a37.6,37.6,0,0,0-1.49-6.49,66.27,66.27,0,0,1-2-6.49,20.69,20.69,0,0,0-2.26-6.1c-.47-.77-.29-2.48-.4-3.4-.17-1.48-.08-2.94-.19-4.42-.17-2.25-1-4.58-.47-6.79a7.67,7.67,0,0,0,.18-3.57,28.36,28.36,0,0,1-.28-3.77,29.64,29.64,0,0,0-1.23-6.86c-.35-1.12-.35-2.42-1-3.41-.56-.79-1.13-1.2-1.14-2.36,0-.55-.18-1-.22-1.53.24-.09.86-.23.56-.6s.07-.78,0-1.18-.38-.68-.48-1.06.21-.61.5-.87.21-.91.32-1.43a9.78,9.78,0,0,1,.44-1.36c.17-.49.69-.66.86-1.06s0-.88.31-1.44a7,7,0,0,0,.63-1.47c.21-.67,1.07-.69,1.21-1.57s.79-1.47,1-2.39.47-1.33,1.38-1.24c1.92.19,3.5,1,5.48.83a18.77,18.77,0,0,0,4-.72c1.08-.31,3-.6,3.65-1.59,1.24-1.82-.38-4.2-.86-6a28.52,28.52,0,0,0-3.14-7.17C43.2,9,42.66,6.51,40.58,6.1c-1.47-.3-4.15-.84-5.43-.05-1,.58-.16,3.81.4,4.42.4.45-.46.88.08,1.3.59.26,1.6-.82,2-1.16a5.7,5.7,0,0,1,1.82-1c.53-.22,1,1.76,1.08,2.1.67,2.31,1.77,4.75,1.82,7.2,0,2-2.57.22-3.68,0-2.37-.55-4.69-2.07-7.14-2.13-.86,0-1.75.69-2.57.51a3.71,3.71,0,0,1-2-1.81,8.11,8.11,0,0,1,0-3.69c.26.61,1.44.77.21,1.47.11.22.6-1.48,1.35-.7l-.24-.24a1.47,1.47,0,0,0,1-.21c-1.56.31-1.46-.47-1.58-1.63-.08-.75.64-.84.8-1.46a5.58,5.58,0,0,0,.19-2.42c-.23-1.23-1.34-2.17-1.88-3.32A5.52,5.52,0,0,0,23.37.38,7.07,7.07,0,0,0,20.9,0a4.23,4.23,0,0,0-1.15.09c-.2.06-.3.34-.45.34a5.26,5.26,0,0,0-3.14.71A4.19,4.19,0,0,0,14,4.73a10.59,10.59,0,0,1,.2,1.66c-.08.45-.63.56-.78,1.05a1,1,0,0,1,.6-.55c-.21.88-1,1.3-.84,2.34a1.91,1.91,0,0,1,.72-1.63,4.2,4.2,0,0,0-.2,1.55c.14-.48-.06-1.36.58-1.65m2.13,5a8.57,8.57,0,0,0,3.38,4.86c-1.68,1.31-4.6-.59-6.61.08a15.07,15.07,0,0,0-2.91,1.76c-1,.62-2.24,1-3.32,1.63a11.23,11.23,0,0,1,1.27-3.38,8.52,8.52,0,0,1,1.5-2.72c.86-.85,1.12-.38,1.9,0s1.57-.15,2.27-.29c-.22,1.72,2.5.33,1.13-.68.26-.18,1.06-.21,1-.65s-.7-1.49-.61-1.73c.24-.69.92.78,1,1.08" style="fill-rule:evenodd"/></g></g></svg>