<svg xmlns="http://www.w3.org/2000/svg" viewBox="0 0 46.25 100.01"><title>Asset 2</title><g id="Layer_2" data-name="Layer 2"><g id="Í_ã_1" data-name="Í¼²ã_1"><path d="M44.05,14.2a3.91,3.91,0,0,0-2-1.54l-2.2-1.54-1.67-.26L37.35,9.3h.14l-1-2.74L36,3.81l-.56-1L33.08.57A7.86,7.86,0,0,0,31.45.16,12.76,12.76,0,0,0,30,0a10.36,10.36,0,0,0-1.67.56l-1.72.86L26.13,2,25.42,3.2l-.56.66-.41,2.08a.82.82,0,0,0,.22.18h0l0,.87a.17.17,0,0,0,0,0,10.06,10.06,0,0,0,.79,3l.55.3s.43.84.43.84v0c0,.07,0,.3,0,.58a1.7,1.7,0,0,0-.7.42c-.2.16-.4.33-.53.33s-.37.24-.56.5a1.94,1.94,0,0,1-.37.42c-.41.27-.53.67-.1,3.55l.35,1h0l1.07,4.43-1.42,1.1-1.32-.44-9.67-2a19.22,19.22,0,0,0-4.62-1.43.83.83,0,0,0-.46.1h0l-1.52-.51s0,0-1.9-2.71c0-.11-.43-1.24-.86-1.24a5,5,0,0,0-1.24.31.46.46,0,0,0-.54.23l-.51.81-.81,1s-.12,1-.12,1L0,19.28l0,0v0c0,.14.43,1.35.85,1.46a2.46,2.46,0,0,0,.94,0s0,0,2.08,1.31a5.81,5.81,0,0,0,1.55.62l1.13,0v0L7,23.1l.88.66,2.42,2c13.3,4.83,14,4.61,14,4.61.34-.11,2-.76,3.49-1.36l2.32,3.42a8.87,8.87,0,0,0-.21,1.24l-.33,1.54-.33,1.21-.33.88-2.09-.22-3.74-.66-3.3-.55-1.36,0A77.18,77.18,0,0,0,9,36.11s-4.4.55-3.69,6.11l.88,2.53.33,3.73.88,7.26L9.21,66.18l1.87.11a16.26,16.26,0,0,0,2.81-.07l-.09,2.59,0,.36a7.71,7.71,0,0,1-.14,3.57A14.2,14.2,0,0,0,13,75.42a6.83,6.83,0,0,1-.33,1.37,3.75,3.75,0,0,1-.18.37,1.71,1.71,0,0,0,0,1.81A2,2,0,0,0,13.63,80a1.7,1.7,0,0,0,1.27,0A34.38,34.38,0,0,0,18,77.58s0,0,3-5.49c.11-.21,3-5.2,2.84-5.92s-1.39-1.62-1.44-1.66L20,63.28h0l-.21-1-.11-2.2C18.44,56.73,17.57,56,17.57,56c-.88-.77-.55-8.48.22-8.13,0,0,.77.33,8.24,3.74-.55,9.67-.66,10-.66,10-.11.33.11,4.84.11,5.72,0,0,0,.88,2.09,18.79L27,88.6c.33.49.55.49.55.49a12.62,12.62,0,0,1,.69,2.9c-.62-.11-3-.49-3.29-.2s-1.16,2.06-.31,3c.48.54,2.19,1.1,3.7,1.59a9.92,9.92,0,0,1,2.19.85c.42.42,3.65,2.87,4.21,2.76.38-.08,3.53-1,3.7-1.4a.12.12,0,0,0,0-.11c-.16-.24-1.18-4.42-1.57-6.07L37,91.9c.33-1.21-.55-4.39-.55-5.16,0,0,0-.77-1.87-15.61.33-3.41.44-4.07.44-4.07.07-.66-.88-1.76-.22-2.42,0,0,.66-.66,3.74-10.33,3.52-2.64,3.74-3.08,3.74-3.08s.22-.44,1.87-5.93a2.11,2.11,0,0,0,.44-1,28.4,28.4,0,0,1-.22-3.41s.11-.66,1.65-9.45l.11-8.57c0-3.63.11-4.17.11-4.17C46.26,18.15,44.49,15.08,44.05,14.2ZM6.6,22.64l-1.16,0A6.11,6.11,0,0,1,4,22L1.83,20.69a3,3,0,0,1-.93,0c-.3-.08-.64-1-.76-1.35l.58-.58v-.07h0a2.78,2.78,0,0,1,.71-.89c.19-.14.24-.17.42-.08A8.16,8.16,0,0,1,3,18.6l.06-.06a8.14,8.14,0,0,0-1.18-.89c-.23-.12-.31-.06-.5.08a2.58,2.58,0,0,0-.66.77c0-.31.08-.79.08-.79s0,0,.8-1l.09-.14a19.19,19.19,0,0,1,2.4,1.48L4.18,18a19.42,19.42,0,0,0-2.41-1.49l.38-.6a.38.38,0,0,1,.44-.18h0a1,1,0,0,1,.24.19l.16.14a9.27,9.27,0,0,1,1.55,1.26l.07,0A10.16,10.16,0,0,0,3,16l-.15-.13a2.08,2.08,0,0,0-.19-.16,4.83,4.83,0,0,1,1.12-.27c.26,0,.6.72.75,1.18l1.93,2.75,1.48.5C7.18,20.41,6.72,22.14,6.6,22.64ZM20.09,63.87l-.1-.44,2.25,1.18s1.19.9,1.39,1.59-2,4.37-2.83,5.83L17.86,77.5a36.4,36.4,0,0,1-3,2.41,1.56,1.56,0,0,1-1.17,0,1.87,1.87,0,0,1-1.08-1,1.61,1.61,0,0,1,0-1.71l.18-.38a6.74,6.74,0,0,0,.33-1.4,14.41,14.41,0,0,1,.68-2.66A7.79,7.79,0,0,0,14,69.15l0-.34.09-2.6S18,65.73,20.09,63.87ZM24.62,18l-.35-1.05c-.45-3-.28-3.23.06-3.46a1.91,1.91,0,0,0,.39-.44c.17-.23.34-.46.5-.46s.35-.16.58-.35a1.75,1.75,0,0,1,.65-.4s0,.56,0,1.27a.46.46,0,0,0,.52.26,3.26,3.26,0,0,0,.67-.18L28,14l.41.58.31.31h0a.37.37,0,0,1-.17.29c-.29.17-.83,0-.89-.05s0-.33.06-.82c0-.16-.47-.75-.57-.86l-.06.05a3.33,3.33,0,0,1,.55.81c-.07,1.08-.08,1.09-.08,1.09a6.77,6.77,0,0,1-.63.29c-.14,0-.37-.16-.47-.26a7.32,7.32,0,0,0,0-1c0-.06,0-.14-1.36-1.06l0,.07a15.49,15.49,0,0,1,1.33,1,6.87,6.87,0,0,1,0,1.05h0a.36.36,0,0,1-.05.17l-.15,0a1.34,1.34,0,0,1-.62-.16c-.06-.07,0-.23.06-.28l0,0-.74-.5,0,.07.68.46a.45.45,0,0,0-.07.22.16.16,0,0,0,0,.12,1.32,1.32,0,0,0,.68.19l.21-.06s0,0,.06-.16c.11.11.34.29.5.24a3.72,3.72,0,0,0,.67-.33,2,2,0,0,0,0-.22,1.29,1.29,0,0,0,.94,0,.43.43,0,0,0,.19-.31l1,1h.19c-.17.19-1.25,1.08-1.94,1.63h0Zm4.07,1.65L28,17.56h0a23.46,23.46,0,0,0,2-1.69h1.49Zm3.24,11.29-.12-3.57,2-2.21.37,5.54-1.35,7.39-3.08-.49ZM36,94.21c.42-.25.58-.77.79-1.54.27,1.15,1.35,5.61,1.53,5.88,0,.26-2.9,1.19-3.61,1.33-.46.09-3.57-2.19-4.1-2.72a9.24,9.24,0,0,0-2.24-.88c-1.42-.46-3.18-1-3.64-1.55-.77-.86,0-2.54.3-2.86a10.11,10.11,0,0,1,3.22.25l.06.33C30.53,94.65,31,95,31,95a3.12,3.12,0,0,0,1.43.44A21.69,21.69,0,0,0,36,94.21Zm1.76-83.42c-3.08,3.41-3.52,3.51-3.52,3.51l-.9.21.47-.68a11.54,11.54,0,0,0,.77-1.75,5,5,0,0,0-.46-1.5l-.11,0a4.71,4.71,0,0,1,.45,1.44,12,12,0,0,1-.75,1.71l-.53.78-.91.2-.7,1-.11.08H29.73s-1.28-1.3-1.28-1.3l-.4-.55-.3-.85,0-.06-.06,0a3.23,3.23,0,0,1-.69.2.34.34,0,0,1-.39-.17h0s0-.13,0-1.95c0,0,0,0-.46-.89,0,0,0,0-.58-.33a11,11,0,0,1-.73-2.82.32.32,0,0,1,0-.05l0-.86a.6.6,0,0,0,.27-.06,12.23,12.23,0,0,0,1.32-.71c.51-.31.61-.56,1.37-.51s.81,0,1,.36.51,2.48.91,2.54a5.43,5.43,0,0,0,.91,0,7.66,7.66,0,0,1,1.88,2.73s.1.56,1.37-.25c-1.16-2.18-1-2.59-1-2.59.15-.4.71-1.06,1-1.06s.1-.81.86-.36,1.52,1.32,1.22,2.13c0,0-.3.81.76,1l.59-.07.83,1.51Z"/><path d="M28.54,9.66a3.23,3.23,0,0,0-1.61.33l0,.07a3.06,3.06,0,0,1,1.41-.32l.17,0Z"/><path d="M28.62,9.79l-.55.08-.17,0-.61.2-.46.16,0,.08.46-.16a4.57,4.57,0,0,1,1.56-.36V9.74a2.27,2.27,0,0,0-.26,0Z"/><path d="M28.62,9.71h-.08v0h-.17l-.32,0-.28.06a2.46,2.46,0,0,0-.92.29l0,.06a2.43,2.43,0,0,1,.88-.27l.12,0a3.72,3.72,0,0,1,.72-.13Z"/></g></g></svg>