<svg xmlns="http://www.w3.org/2000/svg" viewBox="0 0 51.46 116.59"><title>Asset 2z</title><g id="Layer_2" data-name="Layer 2"><g id="Vector_Graphics" data-name="Vector Graphics"><path d="M43.62,110.22l-.48-.08c0,2.12.9,5.25-1.64,6.14-1.32.46-3.26.59-3.87-.94s.55-4,.53-5.72c0-2.58,1.2-5,1.24-7.61a24,24,0,0,1-5-.4c0,.53.73,1,1,1.49a4,4,0,0,1,.84,2.18c0,1-1,1.8-1.4,2.71a7.09,7.09,0,0,0-.08,3c-1.85.32-1.06-1.49-1-2.71h-.08v-.08c-.39,0-1.52,1.73-1.81,2.11-.6.79-.53,1.62-1,2.42-.8,1.42-4.11.92-5.39.81-2-.16-.77-1.51.17-2.4a10.67,10.67,0,0,0,3.09-4,10.14,10.14,0,0,0,1-5,4.35,4.35,0,0,0-.42-1.74c-.45-.27-1,0-1.52-.16-.65-.19-.76-.56-1.51-.56A7.91,7.91,0,0,0,24.12,99c-1-.09.4-1.45-.62-1.51a6.2,6.2,0,0,1-2.35-.4c-.9-.44-.4-2.13-.35-2.91.16-2.3.19-4.59.34-6.88.17-2.45,0-5.09.54-7.49,0-2.47.13-4.94.19-7.4s-.25-5.18.29-7.59a47,47,0,0,0,.9-7.55,68.86,68.86,0,0,1,1.27-8.08,11.62,11.62,0,0,1,1.25-3.48,11.05,11.05,0,0,0,.85-3.51,3.25,3.25,0,0,1,.44-1.64,3.74,3.74,0,0,0,.86-1.17q0-2.24-.08-4.47c-.26,0-1.17,1.14-1.48,1.38-.56.44-1.05,1-1.58,1.43A6.5,6.5,0,0,1,22.72,39c-1.06.41-1.46.32-2.16-.54A32.55,32.55,0,0,1,15,28.27a39,39,0,0,0-2.45-5.05c-.76-1.5-.94-3.33-2.07-4.62C10,18,10,17.75,9.16,17.91c-.52.1-.38.43-.65.56-.49.23-.28-.49-.85.13-.59,0-.85,0-.64-.48-.41,0-.73.09-1.12.09,0,.24.13.21.16.48-.68.4-1.44.28-1-.4a6.35,6.35,0,0,0-1.51.16c0,.14.2.11.32.16-.23.62-1.45.78-1.12-.09-.57,0-1.13.15-1.7.2-1,.08-.91,0-1-1.07H.08a19.45,19.45,0,0,1,3.31-.36l2-.17L6.7,17a.42.42,0,0,1,.24-.4c.27.18.3-.07.54-.12.5-.11.32.3.66.36,1.26.25,1-2.07,2.08-.56.37-.22.2-.24.56.16.16-.31.66-1,1-1.07s.74.81.91.59,0-.8.58-.92a.41.41,0,0,1,.62.24c.43.41.38,0,.78-.17,1.14-.46,1.68,1.27,2.61-.21.64-1,2.41,0,2.79-.57.83-1.25,1.34.87,1.87,1-.14-1.05.73-.27,1.09-.13.94.37.82-.46,1.39-.51s.29.31.8.34.8-.16,1.25-.15a20,20,0,0,0,2.62-.22c1.39-.12,3.12.16,3.06-1.56-.43-.66.18-2,.36-2.58.36-1.28.67-2.49.94-3.77C34.18,3.19,37-.4,41.08,0c2.22.24,3.69,1.09,4.51,3.21a7.48,7.48,0,0,1,.56,2.85c0,1.16.77,1.83,1,2.9.52,2-.26,4-.15,6.08a28.46,28.46,0,0,0,.48,2.86c.21,1.29,1.1,1.05,2,1.66,1.86,1.21,1.79,3.15,1.89,5.13.12,2.27-1.82,5-2.71,7a17.73,17.73,0,0,0-1.41,3.33,14,14,0,0,1-.76,2.7c-1,2.33-.32,4.51.09,6.94.8,4.78,2.18,9.68,1.91,14.56a34.56,34.56,0,0,1,.16,7c0,2.46-.08,4.94-.08,7.4a60.69,60.69,0,0,1-.52,7.58,33.17,33.17,0,0,0-.41,7c.18,1.95-.37,3.94-.27,5.91a19.18,19.18,0,0,0-.09,3.39c0,.56,0,1.12-.05,1.68,0,1.07.1,1.24-1.06,1.23a3.16,3.16,0,0,0-2.15-.24,18.21,18.21,0,0,0-1,3.66c0,1.07-.09,2.11-.12,3.17,0,1.24.52,2,.68,3.14M25,16.2c0,.52-1.33,1.54-1.64,2.13A5.12,5.12,0,0,0,23,21.22a15.11,15.11,0,0,1,1.83,1.64,9.7,9.7,0,0,0,1,.85c.18.13.94.35,1,.41-.26-.27.62-2.34.78-2.69a5.27,5.27,0,0,1,2-2.41c1.49-.79,1.78-1.93,2.4-3.48-.77,0-1.44.21-2.2.22a7.86,7.86,0,0,0-2.34.1,2.33,2.33,0,0,0-.47.31c-.48.26-.45-.18-.81,0-.59.27-.77-.07-1.36,0m-2.79.8c-.06.21-.09.19-.16.4.78.42.57-.4.16-.4m-5.82.48c0,.25.76.8,1,.64.45-.66-.75-.51-1-.64m-5.1.16c0,1.58,1.7,0,0,0M16.35,19v4a33.14,33.14,0,0,0,1.71,3.57,13,13,0,0,0,1.78,3.09c.44.54,1.89,2.59,2.58,2.59.37-1.51,1.55-2.59,2.21-4,.36-.73-2-2.44-2.68-3-1.13-.9-2.06-2-3.1-3S17.75,19.39,16.35,19" style="fill-rule:evenodd"/></g></g></svg>