<svg xmlns="http://www.w3.org/2000/svg" viewBox="0 0 113.81 270.49"><title>Asset 4</title><g id="Layer_2" data-name="Layer 2"><g id="Vector_Graphics" data-name="Vector Graphics"><path d="M2.25,88.26c2.23,3.14,4.82,6.49,7.16,9.2a55.48,55.48,0,0,0,5.24,5.63c2.75,2.44,5.05,5.06,7.93,7.29-.25.85.29,1.25-.26,1.93,1,.79-.37,1.68.39,2.43s2.71-.54,3.06-1.28c2,1.28,3.71,2.86,7.42,2.43-.09,3.91-1.52,7.6-2.17,11.38a129,129,0,0,0-8.82,36.33c-.31,3.75-1.09,7.6-1.15,11.51a13.71,13.71,0,0,1,.12,1.53,8.49,8.49,0,0,1-.64,1.53,29.36,29.36,0,0,0-.51,3.71c-.57,3.31-1.59,7.12-2.31,10.36a31.73,31.73,0,0,0,4.61,1.29c1,3.82.17,9.24.39,14.06.37,8.46,3.32,15.77,3.84,24a54.84,54.84,0,0,1,.13,5.76c-.06,1.18-.47,2.36-.51,3.58a30.24,30.24,0,0,1,.12,3.2,66,66,0,0,1-1.79,7.28c-.31,1.19-.59,2.52-.9,3.71a13.57,13.57,0,0,1-1.66,4.23,6,6,0,0,0-2.56.64,8.44,8.44,0,0,1-1.28,2.82c-1.14.07-1.36-.78-2.43-.77-.29.63-.88,1.43-.65,2.18-.38.42-1.13.47-1.4,1,.06,1.61.72,2.54.64,4,.93,1.67,3.87,1.21,6.39,1.14,3.52-.07,7.48,0,9.46-1.54,1.18-.88,2.36-2.55,1.29-4.22a14.14,14.14,0,0,1,6.65-9c.79,2.66.75,7.15-.25,9.47a1.65,1.65,0,0,0,2.43.12c.14-4.74,0-8.8,1.92-12,.88-1.48,2.22-2.62,2.18-4.6a2.5,2.5,0,0,0-1.92-.76,9.88,9.88,0,0,0-2.17-3.46,5.41,5.41,0,0,0-.76-3.07c0-.62.49-.71.51-1.28a9.58,9.58,0,0,1-1.41-.26c-.73-6.55,0-13.72.5-20.46.11-1.29,0-2.48.13-3.71.24-2.12,1.19-4.05,1.41-6.14.48-4.52-.68-8.58-1.41-12.41,2.32.32,6.23.17,8.32,1.15,3.6-.67,8.28.46,12.78.12.86,4.75-.36,9.23-.13,14.32.34,7.56,1,16.36-2.05,21.75-.28.5-.82.73-1,1.28a6.63,6.63,0,0,0-.13,1.79,40.3,40.3,0,0,1-1.29,5.5c-1,4-.93,7.62-3.07,10.49-.3.39-1,.79-1.28,1.27-.65,1.21-.46,3-1.67,4.1,0,1.65-1.11,3.55.26,4.86.65.62,2.32.7,3.21.77,3.9.28,9.16.14,11.64-2.3s.9-10.61,2.56-13.95c.82-1.66,2.42-3.1,2.55-5.12s-1.2-3.76-1-5.49c-.69.4-1.54-1.28-1.66-1.93-.46-2.46.89-6.87,1.54-8.83,2.89-8.85,7.66-16.47,6.9-28.52,3.47,0,6-1.28,9-1.79,2.56-.42,5.26-.41,7.42-1.65.39-6.07-.32-11.74-.9-18-.2-2.22-.62-4.18-.64-6.39,0-2-.83-4-.9-6-.18-6.16-1.53-12.76-2.3-18.93-.62-4.91-2.08-9.56-2.82-14.7-.63-4.36-.83-8.68-2.43-12.66,3.29.33,5.41-1.21,7.55-3.07,3.77-3.27,7.8-6.76,11.38-10.1,4-3.74,5.93-7.69,9.59-11.9,1.6-1.83,4.09-3.91,2.94-6.9A28,28,0,0,0,110.83,82c-1-1.45-2-2.81-2.81-4a78.13,78.13,0,0,0-5.88-7.8c-2.33-2.53-4.82-4.43-6.65-7-1-1.38-1.84-2.77-2.82-4a42.49,42.49,0,0,0-3.46-3.32c-1.07-1.07-2.07-3-3.07-3.71a7.25,7.25,0,0,0-1.49-.82A2.59,2.59,0,0,0,84,50.9l-2.69-.83-.39-.18a45.75,45.75,0,0,1-5-2.56c.23-1.55,1.21-2.53.77-4.09,1,.25.78.14,1.66.38-.38-.84.23-1.59,1.16-2.3-.73-.89-2-.58-2.3-2,.54-.35,2,.16,1.92-.77-.25,0-.16.35-.51.26s.67-.34.64-.77a6.89,6.89,0,0,1-.77.12c-.45.06-.18.15-.38-.12-.37-.49.55-.42.64-1.28.34-.32-.22-.31-.39-.14.22-.88,1.32-.88,1.41-1.91-2.53,1.31-5.14.2-5.89-1.66a1.81,1.81,0,0,1,1.28.39c.09-.53-1.31-.65-1.54-1.28a12,12,0,0,1-.51-6.78c.6-1.42,1.12-2.38.64-4.1-.32-1.1-1.42-2-1.41-3s.94-1.59.9-2.7c-.09-.55-1.33-1.71-.64-1.78a9.5,9.5,0,0,1-2-2.56,16.28,16.28,0,0,0-2-2.68c-.41-.36,0,.33-.26.25-.54-.17-1.52-1.5-2.17-2a54.15,54.15,0,0,0-6.79-5.23c-.37-.19-1.62-.37-2-.9A7.26,7.26,0,0,1,55.19,0h-.12c-.19.06,0,.14.12.13a23.49,23.49,0,0,0-5.12.64c-.25,0,0-.25.16-.27-1.7-.25-2.55,1.34-3.86,2.18s-3.21.93-4.48,1.79c-1.53,1-2.39,2.83-3.46,4.61-.22-.32-.16-.14-.64-.12-.15.83-1.43,1.29-2,2.17-1,1.45-1.42,3.49-1.92,5.37a.59.59,0,0,0-.13.38c-.06.2-.13,0-.13-.13-.54,4.21-.3,9.82,2.56,12.79a6.39,6.39,0,0,0,0,3.59,1.93,1.93,0,0,1,.62,1c-.13-1.34-1-1.9-.62-3.19.13.43.25-.14.38-.13,0,.32-.2.41-.25.65.18-.06.21-.16.38,0,0,.9.53,1.9.14,2.77.44,2-1.45,5.15-.65,7.59.46,1.41,2,1.51,2.05,3.19-1.93,1.55-6.3,1.29-8.45,3-1.33,1-2.65,2.94-4,4.21-4.15,4-7.43,8.33-11.89,12.4C9.82,68.32,6.8,73.49,3.27,78.41c-1,1.36-3,3.71-3.2,4.85C-.34,85.33,1.14,86.68,2.25,88.26ZM76.81,99.88c.47-6.06,3.77-12.41,4.22-18.66.08-1-.19-2.47,0-3.33a35.74,35.74,0,0,1,1.67-3.71,20.46,20.46,0,0,1,1.91-3.7,41.89,41.89,0,0,0,7.3,9.34c1.19,1.19,2.4,2.67,4,4.09,1.11,1,4,2.8,4.22,4,.26,1.7-2.18,4.56-3.2,5.88a56.8,56.8,0,0,0-3.59,5.49,24.45,24.45,0,0,1-4.22,4.86c-1.08,1.07-3.43,3.82-4.85,4.22-1.95.55-2.83-.69-4.61-1.66-1.05-.58-2.4-1.11-2.81-2S76.67,101.67,76.81,99.88ZM14,84.55c.11-.51,1.39-1.26,2.17-1.93,5.27-4.48,11-9.66,14.07-15.47a24.2,24.2,0,0,1,1,3.32c.21,1.2.05,2.51.25,3.7A13.54,13.54,0,0,1,32.05,76a9.46,9.46,0,0,1-.52,1.66c-1.18,6.53,1.68,10.77,3.07,15.73,1,3.57,2.34,6.81,3.45,10a13,13,0,0,1-4.48,2.3c-.84.19-3.23.4-3.7-.12s.72-2.56-1-2.81c-.77-.08-.87.5-1.53.51A68.26,68.26,0,0,1,16.7,89.92C16,88.76,13.68,86.11,14,84.55ZM36.79,34.24l0-.1s0,.09,0,.15S36.78,34.25,36.79,34.24Z" style="fill-rule:evenodd"/></g></g></svg>