<svg xmlns="http://www.w3.org/2000/svg" viewBox="0 0 51.07 116.59"><title>Asset 5</title><g id="Layer_2" data-name="Layer 2"><g id="Vector_Graphics" data-name="Vector Graphics"><path d="M25.22,1.18c-.51.42-1,1-1.47,1.49.08-.05.15-.12.23-.17a4.48,4.48,0,0,0-1.7,2.71A13.18,13.18,0,0,0,21.67,7c-.18,1.25.12.73-.68,1.21s-.29,2.56,0,3.1.92,3.26,1.72,1.91a12,12,0,0,1,.63,2.11c.18.65-.37.67-.65,1.38a2.88,2.88,0,0,1-2.33,1.66c-.52,0-.79.49-1.28.46a8.26,8.26,0,0,0-2.68.69,14.62,14.62,0,0,0-5.28,2.9c-.46.43-1.84,2.29-2.47,2.29-.89,0-1.31.9-1.73,1.53a9.92,9.92,0,0,1-2.24,1.92L3.18,29.32c-.56.44-.81,1.24-1.43,1.58S-.2,33.58,0,34.49c.07.24,1,.84,1.23,1C2,36,2.78,36.59,3.53,37.16A26.51,26.51,0,0,0,9,40.58c1.24.57,3,1.43,3.52,2.77s.31,2.83.76,4.06c.15.4.56,1.25.44,1.66a6.55,6.55,0,0,0-.37,2.44c.18,1.68-.56,3.4-.67,5.14-.18,2.75-.79,5.63-.31,8.26.15.77-.13,1.56,0,2.33.27,1.21.5,2.45.71,3.67a26.1,26.1,0,0,0,2.31,7.91,7.9,7.9,0,0,1,.92,4.42c0,1.93.58,3.75.59,5.67,0,1-.12,2.08-.08,3.12,0,.72.35,1.4.38,2.13a8.47,8.47,0,0,0,.5,2c.11.34.61,1.09.55,1.44-.13.88-1.18,1.29-1.09,2.37s.74,1.1,1.52,1.45.32.88.67,1.46c.22.38.26,2,.56,2.1.61.2-.24,1.08-.28,1.25-.17.68.2,1.36-1,1.68-.52.15-1.1.31-1.07.95s.85.17,1.22.11c-.7.83-5.85,5.63-2.83,6.2,2,.37,6.77,1.41,6.93-1.74.59-.89,3-1.24,2.94-2.44,0-.55-.15-1.13-.16-1.66a9.65,9.65,0,0,0,.16-2.27c0-.87-.28-2.21.12-2.92.26-.46,0-1.12.2-1.48s.95-.45,1-.9c.13-.76,0-1.5-.95-1.58-.33-.41-.28-.39-.08-1.15A27.49,27.49,0,0,0,27,94.75a3.4,3.4,0,0,0-.41-2.3c-.17-.32-.62-1-.37-1.32.81-1.16-.3-3.27-.65-4.4s.51-2.17.68-3.33c.29-2-.12-4,.21-6a18.33,18.33,0,0,0,.36-5c-.11-.91,0-1.85-.15-2.74,0-.77-.07-1.25.51-.55A7.22,7.22,0,0,1,27.63,71c.23.78.34,1.6.52,2.38a44.88,44.88,0,0,1,.92,5.69c.32,3.07.42,6.17.69,9.25.15,1.69.84,3.3,1,5a12.7,12.7,0,0,0,1,4.29c.45.93,1.95,2.37,1.91,3.47,0,1.37-1.11,2.62-1.23,4-.15,1.76,1.72.9,2.07,1.76s.84.45.46,1.46c-.3.79.34,1,.32,1.64,0,.92-.34,2,.44,2.72a2.24,2.24,0,0,1,1,2.32c0,1.79,2.32,1.65,3.55,1.6s3.9.07,4-1.49a3,3,0,0,0-.71-2.26c-.85-1-1.42-2.21-2.24-3.08.12,0,.16.11.24-.06-.9-.43-.18-1-.65-1.57-.13-.47,0-.53-.49-.83-.16-.1-.34-.46-.23-.62a7.46,7.46,0,0,0,.66-1.94c.17-.56.67-.95.89-1.52a6.91,6.91,0,0,0,.87-2.8,12.11,12.11,0,0,0-.55-4.18,8.17,8.17,0,0,1-.16-2.15c-.1-.85-.25-1.69-.33-2.55-.07-.7.25-.7.44-1.21.3-.84-.29-1.93-.52-2.75-.54-2,.14-3.95-.74-5.92a13.19,13.19,0,0,1-.56-3A16.77,16.77,0,0,1,39.88,76a51.34,51.34,0,0,1,.67-7.46C42.1,76.26,43.49,84,44.94,91.77c.36,2,.72,3.91,1.08,5.86.31,1.7.74,3.32,1.09,5.14s.62,3.39.94,5.08c.38,2.06.45,3.83.63,5.87,0,.27-.21,1.06.09,1.29a2.3,2.3,0,0,0,2.08-.1c.5-.35,0-1.37-.08-1.78-.53-2-1.14-3.58-1.56-5.64-.71-3.59-1.23-7.26-1.88-10.66C45.85,89.19,44.45,81.55,43,73.91Q41.84,67.7,40.7,61.5c.84.14,1.25-1.48,1.11-2.13-.18-.84,1.71-1.44,1.16-2.66-.22-.49-.09-.62-.66-1s-1.34-.79-1.6-1.32c-.25-.76.66-2.54.93-3.26,1-2.59,2.17-4.74,2.43-7.54,0-.24,0-1.15.22-1.23S46,42,46.15,41.73a18.19,18.19,0,0,0-.57-2.89c-.43-2.74-1-5.48-1.5-8.21-.23-1.28-.39-2.56-.62-3.84-.13-.72-.26-1.45-.43-2.16a7.37,7.37,0,0,0-.43-1.45c-1-2.95-2.37-4.95-5.68-5-1.1,0-2.29-.27-3.29-.35-.7-.05-1.27-1.4-1.47-1.95a3.28,3.28,0,0,1,.42-1.68c1,.92,2.39-2.74,2.47-3.42a1.58,1.58,0,0,0-.25-1.33c-.3-.35-.82.14-.78-.51.08-1.16.52-2,0-3.11A5,5,0,0,0,33,4.08c-.15-.14-.53-.28-.57-.51a3,3,0,0,0-1.94-2.2C29.67,1,28.87.61,28.08.22c-1.29-.64-2,.23-2.86,1M19.43,107.8c.1.62-.66,1.13-1.21,1.24-1,.2.61-1.17,1.21-1.24m-10-71.43c1-.26,2.42,1.58,2.58,2.47a11.59,11.59,0,0,1-2.58-2.47" style="fill-rule:evenodd"/></g></g></svg>