<svg xmlns="http://www.w3.org/2000/svg" viewBox="0 0 44.36 116.59"><title>Asset 6</title><g id="Layer_2" data-name="Layer 2"><g id="Vector_Graphics" data-name="Vector Graphics"><path d="M35,19.51c.12.82-.08,1.85.69,2.33a6.2,6.2,0,0,1,1.92,1.87,3.72,3.72,0,0,1-.33,2.51,5.06,5.06,0,0,0-.45,2.63c.07,1.4.31,5.15-1.19,5.91a7.68,7.68,0,0,1-3.63.41,7.21,7.21,0,0,0-3.78.52c0,2.7,1.16,5.74,1.86,8.33.74,2.77,1.46,5.63,2.37,8.34.84,2.5,1.89,5.11,1.13,7.78s-3.39.19-5.11,1A11,11,0,0,0,29,63.66a12.36,12.36,0,0,1,0,2.76c.14,2.16-.06,4.36,0,6.52,0,.93-.45,1.7-.33,2.57.13,1.09.32,2.19.38,3.28.13,2.43.5,4.82.45,7.26A35.2,35.2,0,0,0,32,98.82c.78,2.16,1.28,4.44,1.91,6.59.11.37.09,2.06.49,2.2A5.94,5.94,0,0,1,36.29,109a14.67,14.67,0,0,0,1.64,1.38,10.94,10.94,0,0,0,2.82,1.06c1.29.43,3.14.57,3.56,2.1.3,1.08-1.38.91-2.17.94a26.23,26.23,0,0,1-5-.24,45.89,45.89,0,0,1-4.64-1.2c-.25-.06-1.18-.25-1.2.14s.14.79-.38.77a20,20,0,0,1-3.85-.26c-1.14-.27,0-4.49.09-5.43a2.34,2.34,0,0,0-1.75.51,26.39,26.39,0,0,1-2.21-6.32c-.56-2.77-1-5.57-1.57-8.34C20.68,89,20,83.9,18.81,78.9c-.29-1.28-.55-2.57-.87-3.85s-.48-.82-.88,0c-1,2.27-1.53,4.64-2.45,7a42,42,0,0,0-1.71,6.12c-.64,2.85-1.58,5.63-2.42,8.42-.66,2.19-1.8,4.3-2,6.56a34.2,34.2,0,0,0-.21,4c0,.79-.54,3,0,3.6a6.72,6.72,0,0,0,1.64,1.61A12.2,12.2,0,0,1,12,113.95a5.31,5.31,0,0,1,1.35,2c.2.63-2.46.57-2.78.6a14.28,14.28,0,0,1-6.47-.82c-1-.44-1.31-.77-2.47-.64-.81.09-1.71-.38-1.62-1.23a22,22,0,0,1,.2-3.18c.1-.39.55-1.71.15-2s-.24-.85-.2-1.19c.14-1.25.22-2.47.29-3.74.23-4.16.52-8.35,1-12.5a47.27,47.27,0,0,1,1-5.73,12.92,12.92,0,0,1,1-2.81C3.88,82,5,81.16,5.17,80.39c.29-1.08.15-1.68.83-2.67.38-.56,0-1.39.1-2.08.14-1.74-.22-3.86.26-5.54.17-.56.84-1.32.49-2s-.16-.78,0-1.56c.1-.62-.23-1.17-.06-1.84A10.71,10.71,0,0,0,7,63.07c-.75-.35-.46-1-.52-1.79s0-1.69,0-2.53A33.38,33.38,0,0,1,6.66,55c.1-1.2.85-2.48.7-3.67a15.63,15.63,0,0,1,.05-6.15c.58-1.92-.77-4.76-1.13-6.7-.4-2.16-1.14-4.29-1.73-6.41a22,22,0,0,1-.42-7.84A11.64,11.64,0,0,1,6.87,18.4c.25-.26,2-.8,2-1.13-.08-.53.51-1.31.76-1.85.12-.25.12-.61.39-.77s.5.11.63,0,.4-.26.37-.58c.68-1.28-.11-2.44-.5-3.67s.44-2.53.51-3.74c.09-1.47-.24-3,.54-4.31C12.67.42,15.83-.36,17.8.15A9,9,0,0,1,21.38,1.8a5.29,5.29,0,0,1,1.94,2.93c.19.75.37,2.38-.34,3.09a6.63,6.63,0,0,0-.85,1.56,2.91,2.91,0,0,0,0,1,4,4,0,0,1-.32.75,6.06,6.06,0,0,1-.34,1.67c-.25.41-.48.34-.66.82a9.09,9.09,0,0,1-1.16,2.36c-.29.39-.78.62-.9,1.1s.08,1,.08,1.62c.39.18,1.11-.37,1.45.15a2.47,2.47,0,0,1,.06,2.07c-.47,1.12,1.43,1.33,2.14,2.06.46.46,1.67,2.78,2.29,3s.48-.35,1.12.21c.4.35,1.24.86,1.65.14,1.14-2.12,2.14-4.18,3.08-6.41.38-.89-.91-1.61-1.48-2.12-.75-.66-1.15-1.68-2-2.19-.17-.11-1,.46-.83-.17.08-.22.61-.43.07-.63-.34-.13-.31-1.3-.3-1.65,0-1.25.21-2.76.3-4.09,0-.39.32-1.54,0-1.83s.93-.78,1.4-.28c.29.31.26,1,.39,1.44.3,1,.75.66,1.36,1.27s.48-.19,1.21.13a.92.92,0,0,1,.44,1.2.84.84,0,0,1,1.24.47c.89-.8,1,.46,1.47.75s.77-.07,1.12.57a2.12,2.12,0,0,1,.21,1.59,7.41,7.41,0,0,0-.29,2,16.4,16.4,0,0,0,0,3.2m-6.7-9.09c-.05-1.92,2-.23,1.52,0,0,0-.35-.5-.63-.48a1,1,0,0,0-.88.58l0-.11m1.58.23c0,.1.11,1.35-.26,1.31-.52-.06.23-1.42.26-1.31m-3.18,4.62c-.12.49-.39.25,0,0" style="fill-rule:evenodd"/></g></g></svg>