<svg xmlns="http://www.w3.org/2000/svg" viewBox="0 0 88.66 80.89"><title>Asset 3</title><g id="Layer_2" data-name="Layer 2"><g id="Layer_1-2" data-name="Layer 1"><path d="M88.16,78A11,11,0,0,1,86,77.22,38.64,38.64,0,0,1,82.21,75c-1.42-.95-3.44-1.54-4.5-2.49s-2.49-3-2.13-3,1.42.35,2.25.35a18.62,18.62,0,0,1,3.79.59,10.35,10.35,0,0,0,3.31,0,10.4,10.4,0,0,0,2.94-.25.73.73,0,0,0,0-1.4A5.57,5.57,0,0,1,86,68.27c-.59-.35-1.45-.17-2.64-.88s-2.72-1.3-4-2.13-2.61-.95-2.61-1.89-.47-3.2.36-5S79,53.53,79.6,51.87s2.13-7,2.6-7.94,2.61-5.57,2.61-7.23S83.39,31,81.5,28.54,77,22.38,75.1,20.13s-6.75-7.58-8.65-8.88-3.55-2-4.14-3.08a9.25,9.25,0,0,0-4.38-3.55c-2.13-.83-4-2.13-7.46-3S45,0,42.65,0s-4.38,0-5.57.12-2.37.12-2.37.12h-7a10,10,0,0,0-5.09,1.54C21,2.84,17.55,5.57,16.48,6.16a39.84,39.84,0,0,0-3.91,2,9.12,9.12,0,0,0-2.49,3.2,26.14,26.14,0,0,0-.95,5.57C9,18,8.78,22.26,8.66,23.33s-.83,3-1.06,4.26a29.77,29.77,0,0,1-1.9,5c-.71,1.66-3,8.64-3.32,9.71S1.08,48.44.73,49.62-.1,51.16,0,53.17,1,60.75,1,60.75,2.74,67.5,3.1,68.93a56.55,56.55,0,0,0,1.78,6c.35.59,1.54,2.84,2.25,3s5,.59,6.28.83,4,.47,4.5.12S18.25,78,19,78s2.49.35,3.08,0-.35-.12.59-.36,1-.3,1.06-.95c0,0,.3-.3-.59-.59s-2.19-.48-3.14-.83-3-.71-4.09-1.12a11.4,11.4,0,0,0-2.55-.53,10.08,10.08,0,0,0-1.94-.23A2.3,2.3,0,0,1,10,73a2,2,0,0,1-1-1.72c-.12-1.06-1.1-5.1-1.18-5.86s-.55-3.69-.8-5.24-.65-4.29-.71-5.24,1-3.08,1.33-4.17c.27-.85.59-2.28.89-2.28s.83,3.49,1,4.09,1.36,4.68,1.72,5.68,1.72,5.21,2,5.92A13.14,13.14,0,0,0,13.93,66a6.39,6.39,0,0,0,1.24,1.66c.35.3.12.47,1.42.65s3.91.24,4.62.36,1.78.18,2-.06,0-.41.59-.41h3.26c.77,0,1,0,1.18-.24.32-.35.45-.26.73-.41s.28-.65,0-.72-.44-.09-.59-.35-.47-.18-1.19-.3-2.13-.47-2.78-.59-1-.47-1.83-.42a20.39,20.39,0,0,1-2.84-.06c-.3-.06-1.24.18-1.72-.24s-1.3-3-1.54-4.74-.65-4.68-.77-5.68-.06-4.15-.18-5.39-.58-2.67-.11-2.67.88,1.07,4.43.6a5.65,5.65,0,0,0,5.19-4.6c.08,1,.36,2,.39,2.75.07,1.6-.05,3.3.1,4.53.17,1.4.81,2.24,1,3.61.07.57-.57,2.94,0,3.06A10.69,10.69,0,0,0,28,54a13.85,13.85,0,0,0,.73-2.12,9.65,9.65,0,0,0,.19-5.41,17.79,17.79,0,0,0-1.8-4c-.28-.52-.66-2-1-2.55.17-2.82-.29-5.44-1.92-6.92s-3.28-1.73-2.69-2.68,1.3-2,2-3.2a31.58,31.58,0,0,1,1.66-2.73c.47-.59.57-1,1.28-1.46A6.81,6.81,0,0,0,28,21.12a6.26,6.26,0,0,1,1.55-1.53c.86-.6,1.21-1.38,1.77-1.59a6.27,6.27,0,0,0,1.3-.95c.36-.24,1.07-.71,1.9-1.18s2-1.3,2.37-1.54a4.43,4.43,0,0,1,2.25-.95c.95,0,2.25,0,2.61.83s1.54,4.38,3.2,6.16,3.77,3.49,5.92,3.91c2.55.49,5.09.24,6.16.59s2.84,2.37,3.67,3.32a23.56,23.56,0,0,0,3.43,3.43c1.3.95,4.86,3.67,5.57,4S73,39,73,39.67a15.25,15.25,0,0,1-1.54,3.67c-.47.95-2.37,4.62-2.6,6.27s-.59,6-.59,7-.24,7.7-.24,9,0,3.91-.59,5.09a18.69,18.69,0,0,0-1.78,5.09A2.15,2.15,0,0,0,67.28,78c1.19.35,3.55.35,5.09.83s4.38,1.07,5.68,1.42a15.62,15.62,0,0,0,3.2.12,15.15,15.15,0,0,0,2.13.47,8.27,8.27,0,0,0,1.54-.24,2.54,2.54,0,0,0,1.1,0c.43-.21.35-.43.83-.43a4,4,0,0,0,1.39-.49A1,1,0,0,0,88.16,78Z"/></g></g></svg>