<?xml version="1.0" encoding="utf-8"?>
<!-- Generator: Adobe Illustrator 21.0.2, SVG Export Plug-In . SVG Version: 6.00 Build 0)  -->
<svg version="1.1" id="Layer_1" xmlns="http://www.w3.org/2000/svg" xmlns:xlink="http://www.w3.org/1999/xlink" x="0px" y="0px"
	 viewBox="0 0 94.6 61.1" style="enable-background:new 0 0 94.6 61.1;" xml:space="preserve">
<style type="text/css">
	.st0{stroke:#1D1D1B;}
</style>
<title>Asset 4</title>
<g id="Layer_2">
	<g id="Í_ã_1">
		<path class="st0" d="M70.2,11v0.1l0.2,0.2l0.5,0.6c0.2,0.4,0.6,1,1.5,0.6c0.2-0.6,0.4-0.6,0.9-0.6s0.9-0.1,1.1-0.6l0.1-0.1
			L74.3,11l-0.2-0.3l-0.3-0.2c-0.5,0-1-0.3-1.4-0.8C72,9,71,8.7,70.2,9c-0.4,0.1-0.8,0.2-0.9,0.5s0.2,0.6,0.4,0.8S70.3,10.8,70.2,11
			z"/>
		<path class="st0" d="M88.2,45c-0.2,0.1-0.3,0.3-0.3,0.6v0.1v0.1c0.2,0.2,0.4,0.3,0.7,0.3h0.3c0.7-0.2,0.7-0.6,0.7-0.9v-0.3
			c0-0.1-0.7-1.3-0.7-1.3l-1-0.2c-0.3,0.2-0.4,0.6-0.3,1c0.1,0.3,0.4,0.5,0.8,0.6C88.3,44.8,88.2,45,88.2,45z"/>
		<path class="st0" d="M57.5,47.7h-0.3L57.1,48v0.8c0.2,0.5,0.5,1.2,1.1,1.3c0.7-0.5,0.5-0.9,0.4-1.1s-0.2-0.3-0.1-0.5
			C58.3,47.7,57.9,47.7,57.5,47.7z"/>
		<path class="st0" d="M58.3,52.4c0.3-0.3,0.5-0.7,0.4-1.2l0,0c0-0.2-0.2-0.4-0.4-0.5h-0.1H58c-0.3,0.1-0.6,0.3-0.7,0.7
			c-0.1,0.4,0,0.7,0.3,1C57.8,52.6,58.1,52.6,58.3,52.4z"/>
		<path class="st0" d="M59.4,51.3l-0.1,0.9h0.1l0.2,0.2c0.2,0.3,0.6,0.5,1,0.3c0.3-0.2,0.5-0.6,0.5-1c-0.2-0.5-0.3-1-0.9-1
			C60.1,50.8,59.4,51.3,59.4,51.3z"/>
		<path class="st0" d="M93.8,36.8l-0.3-0.9l0.1-0.3c0.1-0.2,0.2-0.5,0.2-0.7c0-0.3-0.2-0.6-0.5-0.8c-0.4,0.1-0.8,0-1-0.3
			c-0.2-0.4-0.6-0.6-1.1-0.5l-0.2,0v0.9L91,34.6l-0.5-0.4c-0.3-0.3-0.6-0.5-0.9-0.6l-0.3-0.7c-0.1-0.2-0.2-0.5-0.3-0.8
			c0-0.1,0.1-0.2,0.1-0.3c0.5,0.6,1.2,0.9,2,1l0.4,0.1l-0.1-1c0-0.1-1.9-1.6-1.9-1.6l-1.2-0.8c-0.8-0.4-1.5-0.7-2-0.5l-0.3,0.3l0,0
			c0,0,0-0.1,0-0.2s0-0.4,0-0.4c0,0.1,0.5-0.3,0.5-0.3l0.4-0.3c0.2-0.1,0.2-0.3,0.2-0.5c0-0.2-0.2-0.4-0.3-0.5
			c-0.4-0.3-0.9-0.6-1.3-0.3c-0.1,0.2-0.2,0.7-0.3,1c0,0,0-0.1,0-0.1L85,27.4c0.2-0.2,0.3-0.4,0.3-0.6c0-0.4-0.1-0.7-0.3-1L84.7,25
			c-0.3-0.3-0.6-0.5-0.9-0.7c-0.5-0.5-1.3-0.8-2-0.8L81.4,23c-0.2-0.3-0.4-0.5-0.4-0.7c0,0,0-0.1,0-0.1c0,0,0-0.1,0.1-0.1
			c0.4,0.1,0.8-0.2,0.9-0.5c0,0,0-0.1,0-0.1l0.1-0.3c0-0.2,0-0.5,0-0.7l-0.4-1.1L81,19.3c-0.4-0.3-0.5-0.8-0.4-1.3
			c-0.1-0.5-0.5-0.8-0.9-0.8L79.2,17c-0.5-1.1-1.6-0.7-2.4-0.5l-1.2,0.2h-0.2c0-0.1,0-0.1,0-0.2V16c-0.7-0.5-1.2-1.3-1.3-2.2
			l-0.4-1.3c-0.9-0.6-1.3,0-1.5,0.3s-0.3,0.4-0.6,0.4l0,0c-0.1-0.1-0.2-0.3-0.3-0.4l-0.7-1v0.8c0,0.5-0.7,0.9-1.2,1.3L69.5,14
			l-0.7-0.5c0.2-0.1,0.3-0.1,0.5-0.1l1.1-0.3c0.8-1.3,0.1-1.8-0.5-2.1s-0.8-0.5-0.5-1.2c-0.7-1.5-1.8-3.7-4.3-3.4
			c0.2,0-0.9-0.1-0.9-0.1c-0.4,0.1-0.6,0.1-0.7-0.2c0-0.2,0.1-0.3,0.1-0.5V5.6V5.4c-0.4-0.3-0.9-0.4-1.3-0.2H62
			c-0.1,0-0.2,0-0.2-0.5V4.6l-0.1-0.3c-0.2-0.1-0.5-0.2-0.7-0.1c-0.1,0-0.1,0.2-0.2,0.2l-0.2-0.2c-0.2-0.3-0.5-0.8-1.1-0.5l-0.7,0.5
			l-0.3,0.2l0.2-0.2c0,0,0,0,0-0.1c-0.1-0.3-0.2-0.7-0.4-1h-1.3c-0.4,0.2-0.8,0.2-1.2,0c-1.2,0.2-1.3,1.2-1.5,2.1l-0.2,1
			c0.2,1,0.9,0.9,1.5,0.9l0.8,0.1c-0.1,0-0.2,0.4-0.2,0.4c-1.5,0.2-2.6-1.1-3.7-2.4l-1-1.1c0.1,0.1-0.9-1.5-0.9-1.5l-0.8-1
			c-0.5-0.3-1-0.2-1.4,0.1l-0.1-0.3c-0.1-0.3-0.2-0.8-0.8-0.9h-0.4c-0.7-0.1-1.4,0.1-2,0.6l0,0c-0.1-0.3-0.3-0.7-0.9-0.6
			c-0.1,0-1.3,0.2-1.3,0.2c-0.7,0-1.4,0-1.8,0.5c-0.1,0.2-0.2,0.4-0.2,0.6c0,0.3,0.1,0.5,0.1,0.7C41,2.7,41.2,2.9,41.3,3
			c0.2,0.1,0.2,0.1,0.2,0.2s-0.1,0.1-0.1,0.1C41.3,3,41,3,40.8,3c-0.3,0.1-0.4,0.3-0.5,0.5l-0.2,0.3c-0.1,0-0.1,0.1-0.1,0.1L40,3.8
			l-0.3-0.5L39,3l-0.4-0.1c0.2-0.2,0.4-0.2,0.8-0.1c0.4,0.1,0.8,0,1.1-0.3c0.2-0.6,0-1.3-0.5-1.7c-1.2-0.2-2.3,0-3.4,0.6
			c-0.2,0-0.4,0-0.6,0c-0.8,0-1.9,0-2.2,0.9c0.3,0.7,1,1.2,1.8,1.3c-0.1,0,0,0.2-0.3,0.6c-0.3,0-0.7,0-1,0.1l-0.8-0.6l-0.3-0.1
			l-1.1-0.1c-0.6-0.1-1.4-0.3-1.9,0.5l0,0c0,0.2,0.3,0.6,0.5,0.7c-0.3-0.1-0.5-0.2-0.7-0.4c-0.4-0.5-1.1-0.7-1.7-0.4l-0.7-0.5
			l-1.3,0.5l-1.1,0.5c-0.5,0.5-1.2,0.9-1.9,1c-0.9,0.1-1.7,0.6-2.1,1.4l-0.1,0.2l1.6,0.8c-0.1,0.3-0.4,0.4-1,0.6s-1.3,0.3-1.5,1.1
			c0-0.1-0.1-0.1-0.2-0.4l-0.5-0.5c-0.2,0-0.5,0-0.7,0.1c-0.7,0-1.3,0.3-1.7,0.9L17,9.6l0.1,0.1c0.5,0.5,1.2,0.7,1.9,0.6l1.3,0.2
			l0,0c0,0.1,0,0.2,0,0.3L20.3,11c-0.3,0.2-0.4,0.1-0.8-0.2L19,10.4c-0.1,0-0.9,0.1-0.9,0.1c-0.6,0-1.4,0-1.6,0.8
			c0.1,0.8,0.2,1.7,1.1,1.9l0,0C17.4,13,17.3,13,17.1,13l-0.4,0.2l0.2,0.3c0.3,0.2,0.5,0.5,0.6,0.9c0,0.1,0,0.2,0,0.2l-0.3,0.4
			L16.6,15c-0.5-0.2-1-0.2-1.4,0.2c0,0.8-0.3,1.5-0.8,2.1c0.1,0-0.7,0.1-0.7,0.1l-0.6,0.1c-0.2,0-2.3,0.8-2.3,0.8L8.7,19
			c-0.1,0.9,0.4,1,0.8,1.1l0.6,0.3c0-0.1-0.2,0-0.2,0c-0.2,0-0.4,0.2-0.5,0.4c0.1,0.6,0.5,0.6,0.7,0.6s0.3,0.2,0.3,0.5
			c-0.8,0.3-0.8,1.2-0.8,1.9l-0.2,1.2c-0.1,0.3-0.1,0.6,0.1,0.9c0.1,0.3,0.1,0.3,0,0.4l-0.6,1c-0.3,0.4-0.7,0.8-0.4,1.3
			c0.2,0.1,0.5,0.2,0.8,0.2l0.4-0.5c0.1-0.3,0.1-0.3,0.3-0.3c0.9,0,1-0.7,1.1-1.3l0.1-0.5c0.2,0,0.3-0.2,0.3-0.4
			c0-0.2,0-0.3-0.1-0.5c0-0.1-0.1-0.2-0.1-0.2c0,0,0.1-0.1,0.1-0.1l0.4,0.3l0.8-0.4c0.3-0.2,0.4-0.3,0.6-0.3l0.9,0.7L14,26l-0.2,0.3
			l-0.4-0.3c-0.3-0.2-0.6-0.5-0.9-0.4c-0.1,0.1-0.3,0.2-0.4,0.4l-0.4,0.7c0.5,0.7,0.2,1.2-0.6,1.9c-0.1,0.2-0.5,1.2-0.5,1.2
			l-0.6,1.5c-0.3,0.6-0.7,1-1.3,1.3l-1.2,1.1c0.3,1,0,1.4-0.7,2l-1.4,1.7l0.7-0.3l1.7-0.5L9,36.1c-0.1,0.2-0.1,0.3-0.1,0.5
			c0,0.3-0.1,0.5-0.2,0.6l-0.2,0.1l0.1,0.2c0.4,0.7,1.1,1.2,1.8,1.4l0,0l-0.2,0.2l-0.4,0.4c-0.1,0.1-0.1,0.3-0.1,0.4
			c0.1,0.4,0.2,0.7,0.5,0.9c0.1,0.1,0.2,0.3,0.3,0.5l0,0c0,0,0,0.1-0.4,0.2l-0.3,0.1l0.1,0.3c0,0.1,0,0.2,0,0.2
			c0,0.2-0.2,0.3-0.4,0.5l-0.8,0.7c0.1-0.1,0.1-0.1-0.1-0.3l0,0l-0.2-0.2c-0.3-0.2-0.8-0.1-1,0.2c-0.2,0.1-0.2,0.2-0.3,0.2l0-0.1
			v-0.3l0.2-0.6c-0.4-0.4-0.8-0.7-1.2-1l-0.8,0.3c-1.1,0.4-1.9,1.4-2,2.5c0,0.2,0,0.4,0.1,0.6c-0.5,0.4-0.8,1-0.8,1.6
			c-0.1,0.2-0.3,0.3-0.4,0.5c-0.3,0.5-0.5,0.8-0.9,0.8H1.1l-0.1,0.2L1,48l-0.3,1.5l0.7-0.5L2,48.4C2.2,48.1,2.3,48,2.5,48
			s0.3,0.1,0.3,0.5l0.4,0.9l0.2-0.3l0.3-0.3c0,0,0,0,0-0.1l0.2,0.2C4,49,4.8,49.4,4.8,49.4c0.6,0.5,1.5,0.7,2.3,0.6
			c0.1,0,0.9-0.2,0.9-0.2l0.3,0.2c0.1,0.3,0,0.4-0.4,0.7l-0.7,0.7l0.3,0.1l0.3,0.2c0.3,0.2,0.7,0.2,1.1,0.1c0.3-0.1,0.5-0.4,0.6-0.7
			c0.3,0.2,0.5,0.4,0.7,0.7c0.7,0.1,1.4,0.1,2.2,0l1.5-0.1l0,0c0.1,0.1,0.2,0.3,0.3,0.4c0.2,0.4,0.6,0.6,1,0.5h0.2l0.2-0.1l0.1-0.6
			v-0.3c0-0.2,0.1-0.3,0.3-0.3c0.3-0.1,0.6-0.1,0.9,0.1l0.2,0.1l0.1-0.1c0.3-0.3,0.5-0.2,0.8,0c0.4,0.3,0.9,0.3,1.3,0
			c0.8,0.6,1.8,0.8,2.8,0.5l0.5-0.1c0.5,0.3,1.1,0.2,1.6,0s1.2-0.3,1.6,0.2c1.9,0.2,3.7,0.1,5.6-0.2l2.5-0.3c0.3,0.1,0.6,0.6,0.7,1
			c0.5,0.3,0.8,0.2,0.9,0.1c0.2-0.2,0.3-0.6,0.3-0.9c0.2-0.2,0.5-0.2,0.8-0.2c0.2,0.1,0.4,0.3,0.5,0.7l0.1,0.2l1.1-0.2l1.6-0.2
			c0.5-0.4,0.7-0.3,1.1-0.2l0.4,0.1c0.3,0,1.2-0.3,1.2-0.3c0.4,0,0.8-0.2,1.1-0.5c0.3,0.3,0.6,0.6,0.7,1l0.8,1.3c0,0.2,0,1.8,0,1.8
			v1.7c-0.2,0.2-0.3,0.5-0.4,0.8c0.1-0.1-0.7,0.2-0.7,0.2c-0.2,0.2-0.4,0.4-0.6,0.6l-0.4,0.5c-0.5-0.1-1.1-0.1-1.6-0.2
			c-3.9,0.3-10.1,0.2-15.5,0.1c-8.8-0.1-12.4-0.1-13,0.5l-0.1,0.1v0.2L13,60c0.4,0.4,1.6,0.3,3.8,0.2l7.6-0.1
			c0.5,0,13.2,0.9,19.4,0.2l1.4,0.1l2.4-0.1h2l2.3-0.1h1.5l2.9,0.3c0.2,0,5.1-0.3,5.1-0.3l6.2,0.1c5.1,0.2,11.5,0.5,14.6-0.2v-0.5
			L80,59.3l-2.4-0.1c-5.2,0.2-10.3,0.1-15.5-0.2l-8-0.2l0,0c-0.2-0.1-0.5-0.3-0.7-0.4l-1.4-1.1L51.8,57c0-0.1-0.1-0.1-0.1-0.2
			c-0.5-0.4-0.8-0.9-0.8-1.5c0-0.1,0-0.3,0-0.4c-0.1-0.3-0.2-0.7-0.2-1c0.1-1,0.7-1.9,1.5-2.5l0.3-0.3c0,0,0.1,0,0.1,0.1
			c0,0.1,0,0.2-0.1,0.3c-0.1,0.1-0.1,0.3-0.1,0.5c0,0.2,0.1,0.4,0.3,0.6c0.3,0.2,0.7,0.1,0.9-0.2c0-0.1,0.1-0.1,0.1-0.2l0.1-0.2
			c0.1-0.1,0.1-0.2,0.4,0l0.3,0.1l0.3-0.2V51l0.3-1.4v-0.2C55,49.1,55,49,55,48.9s0.3-0.2,0.5-0.3c0.4-0.2,1-0.4,0.8-1.2
			c0-0.1,0-0.2,0.1-0.3c0.3-0.2,0.6-0.2,0.9-0.2c0.4,0,0.8-0.3,0.9-0.7l0.3-0.5c0.4-0.3,1-0.2,1.4,0.2c0.1,0.4-0.1,0.8-0.5,0.9
			L59.3,47v0.2l-0.1,1.5L59,50.3h0.4h0.3l0.6,0c0.4-0.2,0.5-0.7,0.2-1.1c0-0.1-0.1-0.1-0.2-0.2c-0.2-0.3-0.3-0.4-0.2-0.7
			c0.2-0.4,0.7-0.6,1.2-0.4c0.5-0.1,0.7-0.5,0.6-1c0-0.1,0-0.1-0.1-0.2l-0.1-0.4c0,0,0.4-0.2,0.4-0.3s0.2,0.1,0.2,0.1l0,0.6
			l-0.1,0.7c0,0.2,0.2,0.5,0.4,0.6c0.1,0,0.2,0,0.2,0l-0.2,0.1c-0.2,0.2-0.3,0.4-0.2,0.6c0,0.1,0.1,0.5,0.1,0.5
			c0.1,0.7,0.3,1.5,0.8,1.8h0.4c-0.3,0.1-0.5,0.3-0.7,0.6L63,52l0.8,0.9l0.2-0.2l0.5-0.4l0.8,0.4c0.3,0.3,0.7,0.5,1.1,0.4
			s0.5-0.3,0.7-0.8c0.5,0.1,1.1,0.4,1.6,0.6c0.8,0.6,1.8,0.7,2.6,0.3c0.3,0.5,0.8,0.2,1.1,0L73,53c0.5,1,1.8,1.1,3,1
			c0.2-0.1,0.3-0.3,0.3-0.5c0-0.1,0-0.1-0.1-0.2c0.5,0.1,0.9,0.3,1.3,0.6c0.6,0.4,1.4,0.4,2,0c0.6-0.3,0.9-0.4,1.3,0.1l0.1,0.2
			l0.2-0.1c0.6-0.3,0.9-0.9,0.9-1.6c0.1-0.6,0.2-0.9,0.7-1.1c0.1,0.3,0.1,0.6,0.1,0.9v0.5l-0.3-0.1l0,0l-0.5,0.2l0.3,0.8l0.3-0.1
			c0.1,0,0.1-0.1,0.2-0.2l0,0l0.4-0.5l1.7-1.7l0.2,0.3l0.7,1.5l0.3-0.2l0.6-0.7l0.1,0.3c0.4,0.4,1.1,0.5,1.6,0.1l0.7-0.3
			c0.3-0.2,0.3-0.8,0.3-0.8l-0.6-0.4l-0.3-0.1c-0.1-0.2-0.1-0.5,0-0.7c0-0.8-0.2-1.5-1.2-1.6c-0.3,0.2-0.7,0.2-1.1,0h-1.4
			c0,0,0.1,0,0.1-0.1c0-0.2-0.1-0.4-0.2-0.5l-0.9-1L83.5,46c-0.1-0.1-0.2-0.3-0.3-0.5c0-0.1,0-0.1,0.1-0.2c0.6,0,1.2,0.3,1.6,0.7
			l0.3,0.2l0.1-0.2l0.4-1l0.5-1c0.3,0.2,0.7,0.2,0.9-0.1c0,0,0,0,0.1-0.1l0.1-0.2l-0.1-0.3l-0.2-0.1l0.2-0.1l0,0l0,0l0.2-0.1h0.1
			l0,0l0,0c0-1,0.3-1.9,0.9-2.7c0,0.1,0.1,0.1,0.3,0.3s0,0.5-0.2,1l-0.3,0.7l0.3,0.2c0.1,0.2,0.4,0.3,0.7,0.2c0.1-0.1,1-1.3,1-1.3
			c0.6-0.6,1.2-1.2,1-2.1c-0.4-0.3-1-0.3-1.3,0.1c0,0,0,0.1-0.1,0.1l-0.2,0.2l-0.2-0.3l-0.6-0.9c-0.3-0.2-0.7-0.2-1.1,0
			c0-0.1,0.1-0.2,0.1-0.4c0-0.6-0.5-0.8-0.9-1s-0.8-0.4-0.8-0.8c0.1,0.1,0.3,0.1,0.6,0.1h0.6c0.2,0,0.2,0.2,0.2,0.7l0.3,1l0.9,0.1
			c0.1,0.3,0.6,0.3,1,0.3l1.1,0.2l0.1-0.1l0.2-0.6l-0.4-0.6c-0.2-0.1-0.3-0.2-0.3-0.3l0,0l0.6-1.1l0.7-1.1c0.1,0.2,0.2,0.5,0.2,0.8
			v0.6h0.2c0.5,0.1,0.6,0.5,0.6,1l0.4,1.5l0.2-0.3l0.7-0.6L93.8,36.8z M88.9,35.2c0,0,0.3-0.8,0.3-0.8h0.1c0,0,0.1,0.1,0.1,0.3l0,0
			c-0.1,0.5-0.1,0.9-0.3,1.3h-0.1c-0.1-0.1-0.2-0.2-0.3-0.4L88.9,35.2z M85.7,38.7L85.7,38.7c0-0.1-0.1-0.6-0.1-0.6l0.1-0.1h0.2
			l0.1,0.3l0.3,0.6C86,39,85.8,38.9,85.7,38.7z M82,40.1l0.1,0.1l-0.1,0.1l0,0l0,0l0,0L82,40.1z M82.3,33.1c0.2,0.1,0.4,0.1,0.5,0.3
			c0,0,0,0.2,0,0.3h-0.2C82.5,33.7,82.4,33.4,82.3,33.1L82.3,33.1z M82.3,36.6c0.1,0,0.1-0.1,0.2-0.1c0,0,0,0.1,0,0.1
			c0,0.1,0,0.1,0.1,0.2c-0.1,0.1-0.1,0.1-0.2,0.1l0,0C82.4,36.7,82.4,36.7,82.3,36.6L82.3,36.6z M83.3,28.1c0,0,0-0.1,0-0.1
			c0.1,0,0.3,0.3,0.3,0.4l0,0c0,0,0,0-0.1,0.1C83.4,28.4,83.3,28.3,83.3,28.1L83.3,28.1z M81.2,24.4L81.2,24.4l-0.1-0.3L81.2,24.4z
			 M57.4,6c-0.2-0.1-0.3-0.2-0.5-0.3c-0.2-0.3-0.6-0.4-0.9-0.4c0,0,0-0.1,0-0.1l0,0c0-0.1,0.1-0.2,0.2-0.3l0.1-0.2l0.4,0.3L57.4,6z
			 M58.9,5.1c0.3,0.4,0.5,0.8,0.5,1.3c-0.2,0.2-0.7,0-0.9-0.1s0-0.3,0.1-0.7l0,0L58.9,5.1L58.9,5.1z M59.1,9.4
			c0-0.1,0.1-0.3,0.2-0.4c0,0,0.1,0,0.1,0c0,0,0,0.1,0,0.1s0,0.5,0,0.5s0.1,0.1,0.1,0.1l0,0c-0.1,0-0.1,0-0.2,0
			C59.2,9.6,59.1,9.5,59.1,9.4L59.1,9.4z M53.7,50.2l-0.5,0.3L53,50.4c0.2-0.2,0.4-0.4,0.5-0.6c0.2-0.1,0.3-0.1,0.3,0.1
			S53.9,50.1,53.7,50.2L53.7,50.2z M51.8,43.1c0,0.2,0,0.3-0.2,0.3c-0.4,0-0.8,0-1-0.3c0-0.1,0-0.1,0.1-0.2l0.6-0.2l0.6-0.1
			c0,0.1-0.1,0.2-0.1,0.3C51.8,42.9,51.8,43,51.8,43.1z M49,47.6c-0.5-0.2-0.7-0.3-0.8-0.7c0,0,0-0.2,0-0.3c0.3,0.3,0.8,0.4,1.2,0.2
			l0.5-0.1c0.2-0.1,0.5-0.3,0.5-0.3l0,0L49.6,48C49.6,47.9,49,47.6,49,47.6z M48.1,12.5l0.3,0.1l0.7,0.3l0.1,0.2c0,0,0,0.1,0,0.2
			C48.7,13.2,48.3,12.9,48.1,12.5L48.1,12.5z M50.9,7.5c-0.1-0.2-0.3-0.4-0.4-0.5c0,0,0.2,0,0.3,0s0.1,0,0.1,0.2L50.9,7.5z
			 M57.4,25.9c0.1,0,0.1,0.2,0.1,0.2l-0.3,0.2l-0.5-0.1c0,0,0-0.1,0-0.1v-0.3c0.1-0.1,0.4-0.1,0.6-0.1
			C57.3,25.8,57.4,25.9,57.4,25.9L57.4,25.9z M57.5,28.9c0.1,0.1,0.2,0.2,0.4,0.2c0.1,0,0.1,0.1,0.2,0.1h-0.1
			C57.9,29.3,57.5,28.9,57.5,28.9L57.5,28.9z M57.5,31.8c-0.2,0-0.4,0.1-0.6,0.2c0.1-0.3,0.1-0.5,0.2-0.7L57,31.1l0.8,0.6
			C57.8,31.8,57.8,31.8,57.5,31.8L57.5,31.8z M57.6,34.2c0-0.1-0.1-0.1-0.3-0.1s-0.2,0-0.2,0c-0.3-0.3-0.5-0.7-0.5-1.1
			c0-0.3,0.1-0.5,0.2-0.8C57,32.7,57.6,34.2,57.6,34.2L57.6,34.2z M56.9,40.8c0.2-0.3,0.3-0.3,0.3-0.3s0,0.6-0.2,0.8
			c0,0-0.1-0.1-0.1-0.1c0,0,0-0.1,0-0.1C56.8,40.9,56.9,40.9,56.9,40.8L56.9,40.8z M56.8,35.6c0.1,0,0.2,0.1,0.3,0.1h-0.3l-0.8,0.1
			c0.1-0.3-0.2-0.8-0.8-0.8l-0.8-0.2l0.8-0.7l0,0C55.3,35.2,56.1,35.4,56.8,35.6L56.8,35.6z M55.2,36.6c0.1,0,0.2,0,0.3,0
			c0.1,0.1,0.2,0.4,0.2,0.7c0,0,0.1,0.5,0.2,0.7c-0.1,0-0.1,0-0.2,0c-0.1-0.1-0.1-0.4-0.2-0.6C55.4,37.1,55.3,36.9,55.2,36.6
			L55.2,36.6z M49.6,45.4c0.1,0,0.2,0.1,0.2,0.3c-0.2,0.1-0.5,0-0.8-0.1C49.2,45.5,49.5,45.4,49.6,45.4L49.6,45.4z M48.9,38.4
			l0.1-0.1v0.2L48.9,38.4C48.9,38.5,48.9,38.4,48.9,38.4L48.9,38.4z M49.1,38.1L49.1,38.1l0.1,0.2L49.1,38.1z M54.5,24.2
			c0.1-0.1,0.3-0.1,0.4-0.1c0.1,0,0.2,0.1,0.2,0.2s0,0.4,0,0.4h-0.2c-0.1,0-0.2,0-0.3-0.2S54.4,24.3,54.5,24.2z M54.2,33.3l-0.1,0
			H54c0,0,0,0,0,0S54.1,33.3,54.2,33.3z M50.5,19.5l-0.4-0.2c0.2,0.1,1.3,0.4,1.3,0.4c1.1,0.1,1.8,0.3,1.9,1.3
			c-0.3,0-0.5-0.1-0.8-0.4l-1-0.5L50.5,19.5z M52.2,29.4c0.2,0,0.2-0.2,0.3-0.2v0C52.4,29.3,52.4,29.4,52.2,29.4L52.2,29.4z
			 M51.8,27l0.2-0.2l-0.3-0.2L51.2,26v-0.2l0.2-0.6l0.8,1c-0.1,0.3-0.1,0.5-0.1,0.8c0,0.1,0,0.2,0,0.3c0,0.1,0,0.2,0,0.2
			c-0.1,0.1-0.3,0.1-0.6,0c0-0.1,0-0.2,0-0.3l0,0C51.4,27.3,51.8,27,51.8,27z M53.5,22.8c-0.2,0.1-0.4-0.1-0.5-0.3
			c0.2-0.1,0.3-0.2,0.6-0.3c0.2,0,0.4,0,0.5,0.2C54,22.5,54,22.7,53.5,22.8L53.5,22.8z M50,29c0.3,0,0.6,0.1,0.7,0.3
			c0.1,0.1,0.1,0.2,0.1,0.4c0,0.2,0,0.3-0.1,0.4c-0.1,0.3-0.1,0.3-0.2,0.3s0-0.1,0-0.1c0-0.3-0.2-0.6-0.5-0.8l-0.3-0.3L50,29z
			 M53,28.2l0.1,0.1c0.3,0.3,0.7,0.5,1.2,0.4c-0.2,0.2-0.3,0.6-0.5,0.8c-0.2-0.2-0.5-0.4-0.8-0.5l-0.1-0.1
			C52.9,28.6,53,28.4,53,28.2z M49.8,33l0-0.2l0.1,0.2l0,0L49.8,33z M54.5,16.9L54.5,16.9l-0.5-0.2C54.3,16.7,54.4,16.7,54.5,16.9
			L54.5,16.9z M53.8,14.4l0.4,0.8l-0.3,0.3c0,0,0,0-0.1,0s-0.1-0.2-0.1-0.3S53.8,14.5,53.8,14.4L53,13.8l-0.5-0.3
			c-0.3-0.1-0.6-0.1-0.8,0.1c-0.2,0.1-0.3,0.2-0.5,0.1c0-0.1,0.1-0.1,0.4-0.2l0,0l0.4-0.2l0.2-0.7c0,0,0-0.1,0-0.1
			c0-0.3,0-0.3,0.2-0.3c0,0.1,0,0.1,0,0.2c0,0.5,0.4,0.9,1.1,1.3C53.4,13.6,53.8,14.4,53.8,14.4L53.8,14.4z M50,11.4
			c0,0.3,0,0.5,0,0.6c-0.2-0.1-0.4-0.3-0.5-0.5L49,11.2c0-0.1,0.1-0.2,0.3-0.2C49.6,10.9,49.9,11.1,50,11.4L50,11.4z M54.8,20.9
			c-0.2,0-0.4-0.1-0.5-0.3c0-0.2,0.1-0.4,0.3-0.4c0.2,0,0.5,0.1,0.7,0.2c0,0,0,0,0,0.1C55.2,20.6,55.1,20.7,54.8,20.9z M52.9,9.4
			c-0.1,0-0.1-0.1-0.2-0.3c-0.1-0.2-0.2-0.4-0.5-0.5C52,8.2,51.8,8,51.8,7.8l0,0c0.3-0.1,0.5,0.1,0.7,0.4c0.1,0.4,0.5,0.6,0.9,0.7
			C53.2,8.8,53.1,9.2,52.9,9.4z M49.2,4.2L49,4c0.5,0.2,0.9,0.5,1.1,1l0.2,0.3C49.8,5.3,49.5,4.8,49.2,4.2z M48.4,28.6
			c0,0.1,0,0.1-0.1,0.3h-0.2c0,0,0-0.1,0-0.1C48.2,28.8,48.3,28.7,48.4,28.6z M51.8,41.5h-0.2c0.1,0,0.1-0.1,0.1-0.2
			c0-0.1,0-0.1,0-0.2l-0.1-0.5l-0.4,0.1c-0.1,0.1-0.3,0.1-0.5,0.1h-0.4c-0.1-0.1-0.1-0.2-0.1-0.3c0-0.2,0.1-0.4,0.2-0.5l0.1-0.3
			c0,0,0-0.1,0-0.1c0-0.2,0-0.5-0.1-0.7l0.4-1.2l-0.1-0.1l-0.6-0.4c-0.3-0.1-0.5-0.3-0.6-0.6c0-0.1,0.1-0.2,0.1-0.3l0.3-0.7l0.2,0.1
			l0.7,0.1c0.3-0.3,0.4-0.4,0.5-0.4s0.1,0,0.1,0.2s-0.2,0.4-0.2,0.4c-0.2,0.2-0.3,0.5-0.3,0.8c0,0.2,0.1,0.4,0.2,0.5
			c0.3,0.2,0.7,0.1,0.9-0.2c0.1,0,0.2-0.2,0.2-0.2s0.1,0,0.2,0.2s0.4,1,0.4,1l-0.1,0.5c-0.2,0.1-0.4,0.2-0.7,0.3
			c-0.4,0.1-0.9,0.3-0.9,0.9v0.2l0.2,0.1l0.6,0.1c0.4,0,0.6,0.1,0.6,0.3s-0.1,0.5-0.5,0.7L51.8,41.5z M57.5,38.3
			c0.1-0.3,0.3-0.3,0.4-0.3c0.1,0,0.2,0.2,0.2,0.3l0,0l-0.4,0.9C57.4,38.9,57.3,38.5,57.5,38.3z M58.8,7.9L58.8,7.9
			c0,0.1,0,0.1,0,0.1l0,0C58.8,8,58.8,7.9,58.8,7.9c0-0.1,0-0.1,0-0.1C58.7,7.9,58.8,7.9,58.8,7.9z M54.3,11.2h0.2v0.1
			C54.4,11.3,54.3,11.3,54.3,11.2L54.3,11.2z M54.5,47.9c0-0.3-0.1-0.4-0.1-0.5c0,0,0-0.1,0-0.1c0.1-0.1,0.2-0.2,0.3-0.3
			c0.3-0.2,0.5-0.5,0.5-0.8c0-0.1,0-0.2-0.1-0.3c0.2-0.1,0.4-0.2,0.5-0.3c0.3-0.3,0.6-0.6,0.8-0.6s0.2,0.2,0.3,0.4
			c-0.2,0.7-0.7,1.2-1.4,1.4C55.3,46.8,54.5,47.9,54.5,47.9z M66,18.5l0.3,0.2l0,0l-0.1-0.1c-0.1-0.1-0.1-0.1-0.1-0.1l-0.2,0.1
			L66,18.5z M68.4,11.9c-0.2,0-0.4,0-0.5-0.1c-0.2-0.2-0.3-0.6-0.3-1c0,0-0.3-0.8-0.4-1.1c0.1-0.2,0.3-0.2,0.7-0.2h0.3
			c0,0.2,0,0.4,0,0.4c0,0.3-0.1,0.6-0.1,0.9C68,11.2,68.1,11.6,68.4,11.9L68.4,11.9z M78.6,18.6c-0.3-0.1-0.5-0.2-0.8-0.3l-0.4-0.1
			c0.1-0.3,0.1-0.7,0.2-0.8c0.9,0,0.9,0.3,0.9,0.4V18.6z M80.4,51c0,0.3,0,0.3-0.1,0.4s-0.2-0.2-0.3-0.3l0,0c0-0.1,0.1-0.2,0.2-0.3
			C80.3,50.8,80.4,50.9,80.4,51z M64.4,47.1c0-0.1,0.1-0.2,0.2-0.2c0.2,0,0.4,0.1,0.5,0.3l0,0c-0.3,0.2-0.5,0.3-0.7,0.3
			C64.4,47.4,64.4,47.3,64.4,47.1L64.4,47.1z M60.9,33.7l-0.8-0.8l0.2-0.8c0.1,0.1,0.1,0.3,0.2,0.4l1,0.8c0,0,0,0,0,0.1
			c0,0.3,0.4,0.6,0.8,0.7s0.4,0.2,0.5,0.3l0,0c0,0,0,0.2-0.4,0.5l-0.1,0.1c-0.2,0.2-0.3,0.2-0.4,0.2c0,0,0-0.1,0-0.1
			C62,34.3,61.4,34,60.9,33.7z M61.2,7.9L61.2,7.9L61.4,8L61.2,7.9z M63.6,10.6c-0.1,0-0.2,0-0.3-0.2c0-0.1,0.1-0.2,0.2-0.3
			c0.3-0.1,0.5-0.1,0.8,0.1C64,10.4,63.8,10.6,63.6,10.6L63.6,10.6z M63.7,26.7c0,0.1,0,0.1,0,0.2C63.5,27,63.2,27,62.9,27h-0.4
			c0.2-0.4-0.3-0.6-0.7-0.8s-0.4-0.2-0.5-0.3s0-0.2,0.3-0.5c0.2,0,0.4,0.2,0.6,0.6s0.5,1,1.5,0.5C63.6,26.5,63.7,26.6,63.7,26.7
			L63.7,26.7z M61.3,36.9c0,0.1-0.4,0.5-0.4,0.5l-0.3,0.2c0-0.1,0-0.1,0-0.2c0-0.4,0.2-0.7,0.5-0.9l0,0L61.3,36.9z M62.3,31.1
			c-0.1,0.1-0.2,0.1-0.5,0.1l-0.5,0.1c0-0.6-0.5-1-1-1.1l0,0c0-0.1,0-0.2-0.1-0.3c0-0.2-0.1-0.3-0.2-0.5h0.3l0.8,0l0.1,0.5l0.2,0.1
			c0.4,0,0.7,0.2,0.9,0.5C62.4,30.8,62.4,30.9,62.3,31.1L62.3,31.1z M59.6,23C59.6,23,59.6,23,59.6,23c0-0.1,0-0.2,0-0.3l0,0
			l0.2,0.1v0.1C59.8,23,59.8,23,59.6,23z M61.5,27.3C61.5,27.4,61.5,27.4,61.5,27.3l-0.2,0.1v-0.1L61.5,27.3z M61.3,24.4
			c0,0,0-0.1,0-0.1C61.3,24.4,61.3,24.4,61.3,24.4c0,0,0,0.1,0,0.1C61.3,24.5,61.3,24.5,61.3,24.4L61.3,24.4z M62.1,22L62.1,22
			C62.1,22,62.1,22.1,62.1,22C62.2,22.1,62.1,22,62.1,22z M62.4,9.1c-0.1,0.4-0.1,0.4-0.3,0.4s-0.3,0-0.4-0.1
			c0.2-0.3,0.3-0.6,0.4-0.9c0.1,0.1,0.3,0.3,0.3,0.4C62.4,9,62.4,9,62.4,9.1z M62.2,38.7c0.1,0.1,0.1,0.3,0.1,0.5
			c0,0.3-0.1,0.6-0.2,0.8c0,0,0,0-0.1-0.1c0-0.2-0.1-0.3-0.1-0.5C61.8,39.1,61.9,38.9,62.2,38.7z M66.2,18.4l0.2-0.7v-0.1
			c0.2,0.1,0.3,0.2,0.3,0.3c0,0,0,0.1,0,0.1l-0.5,0.6C66.3,18.6,66.3,18.5,66.2,18.4L66.2,18.4z M70.7,19.2c0,0.1,0,0.3,0,0.5
			c0,0.6-0.2,1.1-0.5,1.6c0.1-0.3,0.2-0.6,0.2-1c0-0.3-0.1-0.7-0.3-0.9h0.1L70.7,19.2z M63.8,45.5C63.8,45.5,63.8,45.4,63.8,45.5
			c0.2-0.1,0.5,0.1,0.6,0.3c-0.1,0-0.4,0.1-0.5-0.1C63.8,45.6,63.8,45.6,63.8,45.5C63.8,45.5,63.8,45.5,63.8,45.5z M64.1,38.7
			C64.1,38.8,64.1,38.8,64.1,38.7c0,0.1,0,0.1,0,0.1l-0.3,0.2c0,0-0.1-0.1-0.2-0.3l0,0c0-0.1,0.1-0.2,0.2-0.2
			C64,38.6,64.1,38.6,64.1,38.7C64.1,38.7,64.1,38.7,64.1,38.7z M65.8,30c0,0.1-0.3,0.3-0.4,0.4c-0.2,0-0.4-0.1-0.5-0.2
			c-0.1-0.1-0.1-0.2-0.1-0.3c0,0,0,0,0-0.1l0.5,0.1C65.5,29.8,65.7,29.8,65.8,30z M64.4,40.9c0,0.2-0.1,0.4-0.2,0.5h-0.1L64.4,40.9
			L64.4,40.9z M68.8,16.5l-0.1,0.1c-0.1,0.1-0.3,0-0.4-0.1l-0.1-0.3v-0.4v-0.1c0-0.1,0.1-0.2,0.4-0.3c0.1,0,0.1,0,0.2,0
			c0.1,0.1,0.1,0.4,0.1,0.6C68.8,16.2,68.8,16.4,68.8,16.5L68.8,16.5z M67.8,34.9c0.2-0.1,0.3-0.1,0.5,0c0.1,0,0.1,0.1,0.1,0.1
			s0,0.1,0,0.1c0,0.1,0,0.2-0.1,0.2l-0.2-0.1c-0.3-0.1-0.4-0.1-0.4-0.2l0,0C67.8,35,67.8,34.9,67.8,34.9z M66.7,19
			c0.2,0.1,0.3,0.1,0.5,0.2c0.4,0,0.6,0,0.7,0.3c0,0.1-0.1,0.2-0.1,0.2c0,0-0.1,0-0.2-0.1l0.1,0.1c-0.1-0.3-0.4-0.5-0.7-0.5
			l-0.2-0.1C66.7,19.1,66.7,19,66.7,19z M66.8,27.7l-0.4-0.1l-0.1-0.2c0.1,0.1,0.1,0.1,0.1,0.1c0.3-0.1,0.4-0.1,0.5,0
			c0-0.1,0.1,0.1,0.1,0.1H66.8z M67.2,27.4L67.2,27.4L67.2,27.4v0.3l-0.2,0.2l0,0L67.2,27.4z M67.4,26c-0.3,0.2-0.6,0-1.1-0.3
			l-0.7-0.4l0,0c0-0.2-0.1-0.4-0.2-0.6c-0.2-0.3-0.2-0.7-0.3-1c0-0.1,0-0.1,0-0.2l0.5,0.5l0.5,0.6l0.5,0.5L67.4,26z M65.6,39.8
			L65.6,39.8L65.6,39.8L65.6,39.8z M65.5,39.8L65.5,39.8z M67.6,47.9c0-0.1,0-0.2,0-0.3c0-0.2,0.1-0.3,0.2-0.5l0.2,0l0.2,0.5
			l0.3,0.8l1.1,0.3l-0.3,0.1L69,49l-0.8-0.4l-0.5-0.3C67.6,48.3,67.6,48.1,67.6,47.9C67.6,47.9,67.6,47.9,67.6,47.9L67.6,47.9z
			 M69.8,48.8c0.6,0,1.2,0.1,1.4,0.4l0.1,0.4l-0.1,0.5l0.3,0.3l0.6,0.8c0,0-0.1,0.1-0.1,0.1c-0.2,0-0.5,0-0.7-0.2
			c0.1,0.1-0.8-1.1-0.8-1.1l-1-1.3L69.8,48.8z M70.7,25.2c0.1,0,0.1-0.1,0.1-0.1L71,25c0.7-0.1,1.4,0.3,1.7,0.9
			c-0.2,0.1-0.4,0.3-0.7,0.1C71.8,25.4,71.2,25.3,70.7,25.2L70.7,25.2z M73.9,18.7c0-0.8-0.5-1.6-1.3-1.9L71.8,17l-0.4,1.2l0.5,0.9
			c0.2,0.2,0.4,0.4,0.4,0.6l0,0c0,0.1-0.1,0.1-0.3,0.2c-0.4,0-0.5-0.4-0.7-0.9l-0.5-1c0-0.5-0.3-0.9-0.8-1.1
			c0.1,0.1,0.7-1.1,0.7-1.1l0.5-1.2h0.1c-0.1,0.1-0.2,0.8-0.2,0.8l0.6,0.6c0.4,0,0.8-0.2,0.8-0.6c0.1-0.3,0.2-0.4,0.5-0.3
			c0.5,0.5,0.7,1.2,0.7,1.9l0.1,0.6c0.5,1.3,1.6,2.3,2.9,2.8c0,0.7,0.7,0.8,1.2,0.8l1.1,0.2c0.2,0.1,0.3,0.1,0.3,0.2s0,0.1-0.2,0.3
			l-0.3,0.2h-0.1c0.2,0-0.4-0.5-0.4-0.5c-0.5-0.4-1-0.8-1.6-0.3L76.6,21c-0.5-0.2-0.8-0.3-0.9-0.7c0-0.1-0.1-0.4-0.1-0.4l-0.1-0.4
			l-0.3,0.3l-0.9,0.6L74,19.9l-0.4-0.7C73.6,19,73.8,18.8,73.9,18.7L73.9,18.7z M74.3,23.4L74.3,23.4L74.3,23.4v0.1h-0.1
			C74.2,23.5,74.2,23.4,74.3,23.4L74.3,23.4z M75.8,36.6L75.8,36.6c-0.2,0.1-0.2,0.1-0.4-0.1c-0.1,0,0,0,0.1,0
			C75.6,36.5,75.7,36.5,75.8,36.6L75.8,36.6z M78.7,26.5L78.7,26.5L78.7,26.5L78.7,26.5z M76.1,27.8C76.1,27.7,76.1,27.7,76.1,27.8
			L76.1,27.8c-0.2-0.2-0.3-0.3-0.3-0.4c0,0,0-0.1,0-0.1c0-0.2,0.1-0.4,0.3-0.5c0,0.1,0.1,0.2,0.1,0.3c0,0.1,0,0.2,0,0.3
			S76.1,27.6,76.1,27.8z M77.1,23.3c0.1,0,0.3,0,0.5,0c0.2,0,0.3,0.1,0.4,0.3l-0.1,0.3c0,0-0.1,0.8-0.1,0.8l-0.1-0.1L77.1,23.3z
			 M77.7,31.1C77.7,31.1,77.7,31.1,77.7,31.1c-0.1-0.4-0.2-0.7-0.3-0.9c0-0.5-0.3-1-0.8-1.3l0.1-0.5c0.5,0.5,0.9,1,1.2,1.6
			c0.3,0.7,0.9,1.3,1.5,1.6l-0.2,0.7c-0.2-0.1-0.3-0.2-0.5-0.6S78.4,30.9,77.7,31.1L77.7,31.1z M74.5,21.6L74.5,21.6
			c0,0.1,0.1,0.1,0.1,0.2c0,0.1,0,0.1,0,0.2c0,0.1,0,0.2-0.1,0.3l-0.1,0.1c-0.1-0.1-0.1-0.2-0.1-0.3C74.4,21.8,74.4,21.7,74.5,21.6
			L74.5,21.6z M78.7,47.5h-0.2l-0.1-0.1v-0.3h0.4v0C78.9,47.3,78.9,47.4,78.7,47.5L78.7,47.5L78.7,47.5z M74.2,25.9
			c0-0.1,0.2-0.2,0.3-0.3l0,0c0.1,0.1,0.1,0.1,0.1,0.2c0,0,0,0,0,0c-0.2,0.2-0.2,0.2-0.3,0.2S74.2,26,74.2,25.9L74.2,25.9z
			 M74.9,46.6c0-0.1,0.1-0.2,0.1-0.3c0.2-0.2,0.5-0.1,0.9,0.1c0.1,0,1,0.8,1,0.8l1,1c0.8,0.5,1.6,1.1,1.7,1.9
			c-0.2-0.2-0.5-0.4-0.7-0.6l0,0c-0.3-0.5-0.9-0.7-1.5-0.5c-0.1-0.1-0.3-0.2-0.4-0.3c-0.7-0.3-1.1-0.5-1.1-1.1v-0.3l-0.7-0.5
			C75.1,46.7,75,46.6,74.9,46.6L74.9,46.6z M59.5,43.4c0.4,0.2,1,0.3,1.2,0.7l0,0c0,0.2-0.3,0.4-0.6,0.7c-0.3-0.3-0.6-0.7-0.6-1.1
			C59.5,43.6,59.5,43.5,59.5,43.4z M61.5,41.4c0,0.1-0.1,0.4-0.3,0.4c-0.2,0-0.4-0.1-0.5-0.3c0-0.2,0.2-0.3,0.3-0.3
			C61.2,41.2,61.4,41.3,61.5,41.4L61.5,41.4z M47.6,3.5C47.6,3.5,47.6,3.5,47.6,3.5c-0.1,0.1-0.2,0.1-0.2,0c0,0,0-0.1,0-0.1l0,0
			C47.5,3.4,47.6,3.4,47.6,3.5z M84.4,31.5C84.4,31.4,84.4,31.4,84.4,31.5c0-0.1,0-0.2,0.1-0.3c0.1,0.1,0.2,0.1,0.3,0.2h0.2
			l-0.2,0.1L84.4,31.5L84.4,31.5C84.4,31.5,84.4,31.5,84.4,31.5L84.4,31.5z M86.8,32.5c0,0.2,0,0.5-0.2,0.7l0,0c0,0,0,0-0.1,0
			c-0.3-0.2-0.3-0.8-0.3-1.1C86.5,32.2,86.7,32.3,86.8,32.5L86.8,32.5z M15.8,22.6L15.8,22.6L15.8,22.6z M22.8,50.4l0.1,0.1h-0.1
			V50.4z M22.8,50.6L22.8,50.6L22.8,50.6L22.8,50.6z M16.9,27.2l0.2-0.2c-0.1,0-0.1,0.1-0.1,0.3c0,0.3,0.1,0.6,0.1,0.9
			c0-0.1-0.2,0-0.2,0C17,28,17,27.7,16.9,27.2L16.9,27.2z M16.7,21.6l0.1-0.6l0.5-0.1c0.2,0,0.3-0.1,0.4,0s0.1,0.4,0.1,0.6v0.3
			L18,22h0.7h0.4v0.1c0-0.1-0.2,0-0.2,0c-0.3,0-0.6,0.1-0.7,0.4l0,0c0,0.2,0.1,0.4,0.2,0.6l0,0.1c-0.4-0.2-0.8-0.4-1.2-0.3l-0.9-0.2
			c0.2-0.2,0.4-0.4,0.4-0.7C16.7,21.8,16.7,21.6,16.7,21.6z M17.5,25.2c0.4-0.2,0.9-0.4,1.2-0.2c-0.1,0.2-0.1,0.3-0.1,0.5
			C18.2,25.5,17.8,25.4,17.5,25.2z M18,28.1l0.6-0.5l0.6-0.6l0.1,0.3l0.3,1.1c-0.1,0-0.3,0.1-0.4,0.2c-0.3,0.2-0.5,0.4-0.9,0.3
			s-0.4-0.5-0.4-0.6C17.9,28.2,17.9,28.1,18,28.1z M17,34.9h0.2c0,0,0,0.1,0,0.1L17,34.9L17,34.9z M24.4,32.4L24.4,32.4L24.4,32.4
			c0.1-0.1,0.2-0.1,0.2,0l0,0.1L24.4,32.4z M24.6,32.5L24.6,32.5C24.6,32.4,24.6,32.4,24.6,32.5C24.7,32.4,24.7,32.4,24.6,32.5
			L24.6,32.5z M22.7,36L22.7,36c0.2,0,0.3-0.1,0.5-0.2l0.4-0.2l0.3,0.3v1.3l0.1,0.3l0.3,1h-0.8c0-0.2,0-0.8,0-0.8
			c0-0.2,0.1-0.4,0.1-0.6C23.6,36.7,23.2,36.2,22.7,36L22.7,36z M21.7,35.8H22l0.4,0.3h0.1l-0.2,0.1c-0.3,0.1-0.3,0.1-0.4,0
			S21.7,35.9,21.7,35.8L21.7,35.8z M22.6,26.5L22.6,26.5l0.5-0.1c0.1,0.1,0.1,0.2-0.2,0.5l-0.2,0.3c0,0,0,0-0.1-0.2
			C22.6,26.8,22.5,26.7,22.6,26.5L22.6,26.5z M23.5,25.6c0-0.7-0.7-0.9-1.3-1l-0.7-0.3h0.1c0.3-0.1,0.5-0.3,0.6-0.6
			c-0.1-0.3-0.3-0.5-0.5-0.8l-0.4-0.6l0.1-0.2l0.7,0.7l1.8,1.9c0.3,0.2,0.7,0.2,1,0.1c0.1,0,0.3-0.1,0.4-0.1c0,0,0,0.1,0,0.1
			c0,0.1,0,0.2,0,0.3l-0.6,0.2L23.5,25.6z M22.1,28.2l0.6-0.3l0.1,0.2c0,0.3-0.2,0.6-0.6,0.6c0,0,0,0-0.1,0h-0.4l-0.1-0.1
			c0,0,0-0.1,0-0.1C21.7,28.3,21.8,28.3,22.1,28.2L22.1,28.2z M35.4,19.2c0.1-0.1,0.3-0.2,0.5-0.1c0.2,0,0.3,0.1,0.4,0.3
			c-0.1,0-0.2,0.1-0.2,0.2c-0.2,0.1-0.4,0.1-0.6,0c0,0,0-0.1,0-0.1L35.4,19.2z M45.6,45.3c0.3,0.1,0.5,0.5,0.5,0.9v0.7
			c0,0.6,0,0.9-0.4,1c-0.4-0.1-0.4-0.5-0.5-1.2l0,0l-0.3-1.3C45.1,45.3,45.4,45.3,45.6,45.3z M44.5,43.2c0-0.3,0.2-0.6,0.4-0.8
			c0,0,0,0,0.1,0.1c0.1,0.1,0.2,0.3,0.2,0.5c0,0.1,0,0.1,0,0.2l-0.3,1c0-0.1,0-0.2-0.1-0.3L44.5,43.2l0,0.1
			C44.5,43.3,44.5,43.2,44.5,43.2z M45,40.9c-0.3,0-0.5,0-0.8,0c-0.3,0-0.7,0.1-1,0.3c-0.1-0.3-0.2-0.6-0.5-0.8
			c-0.3-0.2-0.4-0.4-0.4-0.5c0,0,0-0.1,0-0.1c0.1,0,0.2-0.1,0.3-0.1l0.8-0.3C43.7,40.1,44.3,40.7,45,40.9L45,40.9z M39.2,49
			C39,49,39,48.9,39,48.9c0,0,0,0,0-0.1c0.2-0.1,0.4-0.1,0.6-0.2l0.6-0.3l-0.1,0.3l0.5,1.4l0.2,0.1c0,0.1,0,0.2,0,0.3
			c-0.2-0.1-0.3-0.2-0.5-0.3c-0.4-0.1-0.5-0.2-0.5-0.5c0,0,0,0,0,0S39.2,49,39.2,49z M31,44C31,44,31,44,31,44l-0.1-0.1
			C30.9,44,30.9,44,31,44z M29,35.2l0.3-0.1l1.6-0.3c0,0.1,0,0.1,0.1,0.2c0,0.1,0.1,0.1,0.2,0.2H31l-1.4,0.5l-0.2,0.1
			C29.4,35.5,29.2,35.3,29,35.2z M25.8,34.3c0-0.3,0.1-0.5,0.3-0.6l0,0C26,34,25.9,34.1,25.8,34.3L25.8,34.3z M26,38
			c0.2,0.4,0.5,0.7,0.9,0.8c0.1,0.1,0.1,0.2,0.1,0.3c0,0.3-0.1,0.5-0.3,0.8h0.1L26.7,40l-0.4-1.1c-0.2-0.2-0.3-0.5-0.4-0.7
			C25.8,38.1,25.9,38.1,26,38z M28.8,32.4c-0.1,0-0.2,0.1-0.3,0.2c0,0-0.1,0-0.1,0c0,0,0-0.1,0-0.1C28.5,32.5,28.6,32.4,28.8,32.4
			L28.8,32.4z M28.1,24.9l-0.4,0.2l0,0c0,0-0.2-0.1-0.2-0.1c0,0,0,0,0-0.1l0,0c0.1-0.1,0.2-0.2,0.3-0.2h0.2h0.3
			C28.3,24.8,28.2,24.9,28.1,24.9L28.1,24.9z M33.2,7.6c0.1,0.1,0.2,0.2,0.2,0.3v0.1C33.3,7.9,33.3,7.9,33.2,7.6z M43.2,35.3
			l1.2,1.5l-0.1,0.2c-0.3-0.2-0.6-0.4-0.9-0.7l-1.4-0.7c0.1,0-0.1-0.4-0.1-0.4c-0.1-0.4-0.3-0.9-1.1-0.7c0.1-0.1,0.1-0.1,0.1-0.2
			c0-0.2-0.2-0.4-0.4-0.5s-0.4-0.3-0.4-0.5c0,0,0-0.1,0-0.1l0.6-0.4l-0.1-0.9c-0.1-0.2-0.1-0.3-0.2-0.5c0-0.1,0.1-0.1,0.1-0.2
			l0.1,0.1l0.1,1c-0.1,0.5,0.1,1.1,0.4,1.5l1,0.2h-0.1L43.2,35.3z M34.3,41.2L34.3,41.2l0.2,0.2c-0.1,0-0.2,0-0.2,0v0L34.3,41.2
			L34.3,41.2z M31.3,41.5l-0.1,0.2l-0.2-0.1c-0.1-0.1-0.1-0.2,0-0.2c0.1-0.1,0.3-0.1,0.4,0C31.5,41.3,31.5,41.3,31.3,41.5z M32.1,41
			L32,40.6c0-0.5-0.1-1.2-1-1.2c0.1,0,0.1-0.2,0.1-0.2c0.1-0.3,0.6-0.4,1-0.4c0.4,0,0.9-0.1,1.1-0.4c0.1-0.1,0.1-0.2,0.1-0.4
			c0-0.2-0.1-0.4-0.2-0.6c-0.2-0.4-0.7-0.6-1.2-0.4l-0.6-1.8c0.1,0.2,0.3,0.3,0.6,0.2l0.4-0.4c0.1-0.2,0.1-0.2,0.3-0.2
			c0,0,0,0.1,0.1,0.1l0,0c0,0.1-0.1,0.2-0.2,0.3s-0.4,0.3-0.4,0.6c0,0.1,0,0.2,0.1,0.3c0.1,0.1,0.6,0.3,0.6,0.3
			c0.5,0.2,0.9,0.4,0.9,0.8l0,0l-0.1,0.5v0.9l0.6,0.3c-0.1,0,1.3-0.1,1.3-0.1c0.6-0.2,0.9-0.3,1.3,0.1l0.6,0.4
			c0.5,0.4,1.1,0.8,1.8,0.4c-0.3,0.8,0.3,1.4,0.9,2c0.5,0.4,0.9,1,1,1.6c0.2,0.3,0.3,0.5,0.5,0.5s0.5-0.2,0.6-0.4s0.2-0.3,0.3-0.2
			s0.1,0,0.3,0.5v0.1h0c-0.2,0-0.7,0-0.7,0.5c-0.3,0.2-0.1,0.6,0,0.9s0.1,0.3,0.1,0.3s0,0.1-0.3,0.1c-0.4,0-0.5-0.3-0.7-0.8
			l-0.8-1.1c0.1,0.1-0.4-0.6-0.4-0.6l-0.1-0.2l-0.4,0.2c-0.2,0.1-0.3,0.1-0.4,0c0,0.1-0.2-0.3-0.2-0.3l-0.1-0.2
			c0.1,0,0.2-0.1,0.2-0.1l0.6-0.7c-0.2-0.3-0.4-0.6-0.6-0.9c-0.2-0.4-0.4-0.8-0.8-0.9c-0.3,0-0.6,0.1-0.9,0.3
			c-0.2,0.1-0.3,0.3-0.3,0.5c0,0.2,0.1,0.5,0.3,0.7c0.2,0.2,0.3,0.4,0.3,0.6c0,0.1,0,0.1,0,0.2c0-0.1-0.5,0-0.5,0l-0.3-0.6
			c-0.1-0.5-0.3-1.1-1.2-1c0,0,0.1-0.1,0.1-0.1c0-0.1,0-0.1,0-0.2c0-0.4-0.2-0.7-0.5-0.9c-0.4,0.2-0.9,0.1-1.3-0.1
			c-0.3-0.2-0.7-0.3-0.9-0.2s-0.3,0.4-0.3,1c0.2,0.2,0.5,0.5,0.7,0.6L32.6,41L32.1,41z M31.1,25.4l-0.6-0.1L30,25.2
			c0.2-0.1,0.4-0.2,0.7-0.2C30.9,25,31,25.1,31.1,25.4C31.1,25.3,31.1,25.3,31.1,25.4L31.1,25.4z M31.9,31.1
			c-0.3-0.1-0.3-0.3-0.3-0.8v-0.4c0.1,0.1,0.3,0.1,0.5,0.2c0.2,0.1,0.3,0.2,0.3,0.4c0,0,0,0,0,0.1C32.3,30.9,32.1,31,31.9,31.1
			L31.9,31.1z M30.9,32.2c0.3-0.1,0.7,0.1,0.7,0.3l0,0c0,0,0,0.1-0.4,0.3c-0.4,0-0.5-0.1-0.6-0.3C30.6,32.4,30.7,32.2,30.9,32.2
			C30.8,32.2,30.8,32.2,30.9,32.2L30.9,32.2z M33.4,33c0.1,0.1,0.1,0.2,0.1,0.3c-0.2,0.1-0.4,0.1-0.6,0c-0.1,0-0.2-0.1-0.2-0.2l0,0
			C32.9,33,33.1,32.9,33.4,33L33.4,33z M42.6,37.4c0,0.3-0.2,0.4-0.4,0.5s-0.6-0.2-0.9-0.7s-0.6-1-1.3-0.8c-0.2-0.3-0.3-0.7-0.1-1.1
			c0.7-0.4,1.2,0.2,2,1.3L42.6,37.4z M36.6,30.8l0.4-0.2c0.1,0,0.2-0.2,0.3-0.3S38,32,38,32c-0.2-0.1-0.3-0.1-0.5-0.3l0,0l-0.9-0.8
			C36.6,30.9,36.7,30.9,36.6,30.8C36.7,30.8,36.7,30.8,36.6,30.8L36.6,30.8z M38.4,32.3l0.3,0.1c0.1,0,0.4,0,0.4,0.1l0,0l-0.1,0.2
			C38.8,32.6,38.6,32.4,38.4,32.3L38.4,32.3z M37.5,33.3c0.2,0.1,0.5,0.3,0.5,0.3c0.4,0,0.6,0.1,0.8,0.4c0,0.4-0.1,0.9-0.4,1.2
			c-0.2,0-0.3-0.1-0.5-0.5c-0.1-0.2-0.1-0.4-0.1-0.6l0,0c0-0.1,0-0.2,0-0.3C37.7,33.6,37.7,33.4,37.5,33.3L37.5,33.3z M44.1,37.9
			c0,0,0.1,0,0.1,0.2l0.1,0.3l-0.1,0.3l-0.2,0.1c-0.1-0.2-0.1-0.4,0-0.6C44,37.9,44.1,37.9,44.1,37.9L44.1,37.9z M39.3,44.6
			c0.2-0.2,0.4-0.3,0.7-0.3c0.1,0,0.2,0,0.2,0v-0.1l-0.1,0.4c0,0.3,0,0.4-0.3,0.5h-0.6v-0.1C39.2,44.8,39.3,44.7,39.3,44.6
			L39.3,44.6z M36.3,44c0-0.1,0.1-0.2,0.3-0.3h0.1l0.3,0.3c0,0-0.1,0.1-0.1,0.1c-0.2,0.1-0.3,0.1-0.5,0C36.3,44.1,36.3,44.1,36.3,44
			L36.3,44z M41.7,7.2c0,0-0.1,0.1-0.4,0.2s-0.6-0.2-0.7,0.2c0,0.3,0.2,0.7,0.5,0.8c0.2,0.1,0.3,0.2,0.3,0.3s-0.1,0.2-0.3,0.3
			S40.7,9,40.4,8.6S40,8,39.4,8c0-0.1,0.1-0.2,0.1-0.2c0-0.1,0.3-0.1,0.5-0.2c0.4,0,0.8-0.2,1-0.6h0.2l0.5,0.1
			C41.7,7.1,41.7,7.2,41.7,7.2z M40.3,5.7l-0.6,0.4c-0.4,0.4-0.7,0.6-1.1,0.4l0,0c0-0.3-0.1-0.5-0.2-0.8l0.4,0.3L39.5,6
			c0.2-0.3,0.3-0.5,0.5-0.8l0,0c0.2,0.2,0.3,0.2,0.3,0.3C40.3,5.6,40.3,5.7,40.3,5.7z M37.1,27.2l0.5,0.8c0.3,0.7,1.2,1.1,1.9,0.8
			c0.1-0.1,0.3-0.2,0.5-0.2c0.2,0.4,0.2,0.8,0.2,1.2c0,0.2,0,0.4,0,0.6c-0.2,0.1-0.3,0.1-0.5,0.2c-0.1,0.1-0.3,0.2-0.4,0.2
			s-0.1-0.1-0.2-0.2c0.3-0.5-0.3-0.8-0.7-1l-0.3-0.2c0.1,0.1-0.3-0.5-0.3-0.5c-0.6-0.8-1.3-1.6-2.5-1.3c0-0.1-0.1-0.1-0.2-0.2
			c0.1,0.2,0.4,0,0.4,0c0.2-0.1,0.5-0.3,0.3-0.8s-0.7-0.3-1.2-0.3c-0.2,0-0.6,0-0.6,0l0,0c0-0.1,0.1-0.2,0.1-0.3l1.4,0.2l1.1,0.3
			C36.8,26.7,36.9,26.9,37.1,27.2z M31.9,26.9c-0.1-0.1-0.3-0.4-0.3-0.6l0,0c0,0,0-0.1,0.2-0.1s0.2,0,0.3,0.4l0,0
			C32.1,26.8,32,26.9,31.9,26.9L31.9,26.9z M33.9,44l0.5-1c0,0,0.2,0.1,0.3,0.2c0.1,0.1,0.2,0.2,0.3,0.4c0,0.6-0.2,1.2-0.6,1.6
			c-0.4,0-0.7,0-0.9-0.3c0-0.1,0-0.1,0-0.2C33.5,44.5,33.6,44.3,33.9,44L33.9,44z M34.4,46l1.7,0.2c0.6-0.2,1.2,0,1.7,0.3
			c0,0.2-0.2,0.4-0.4,0.5l-0.7,0.5c0.2-0.1-0.8-0.5-0.8-0.5c-0.6-0.4-1.4-0.6-2.1-0.4C33.9,46.5,33.8,46.3,34.4,46L34.4,46z
			 M39.3,47.1c0.4-0.1,0.7-0.4,0.8-0.8l0,0.1c0,0.1,0,0.1,0,0.2c0,0.2-0.1,0.3-0.2,0.4c-0.2,0.2-0.3,0.4-0.4,0.7c0,0,0,0.1,0,0.1
			c-0.3-0.1-0.5-0.2-0.8-0.3L39.3,47.1z M41.3,49.8c0-0.1,0-0.2,0-0.3c0-0.2,0-0.4,0.2-0.5h0.2l0.2,0.5v0.2h-0.2L41.3,49.8z
			 M43,45.6C43,45.6,43,45.6,43,45.6L43,45.6L43,45.6z M43.9,3.2L43.9,3.2l-0.3,0.2l0,0c0,0-0.1-0.1-0.1-0.1l-0.1-0.1l0.1-0.1
			c0.3-0.3,0.3-0.3,0.6-0.2C44.1,3,44.1,3.1,43.9,3.2L43.9,3.2z M43.9,19.2C43.9,19.2,43.9,19.2,43.9,19.2l-0.1,0.1v-0.2
			C43.8,19.2,43.9,19.3,43.9,19.2L43.9,19.2z M45.1,5.4h-0.4l-0.1-0.2C44.8,5.2,45,5.2,45.1,5.4L45.1,5.4z M32.4,5.5
			C32.4,5.5,32.4,5.5,32.4,5.5l0.3-0.1c0,0.1,0,0.1,0,0.2l0,0C32.7,5.5,32.5,5.5,32.4,5.5z M32.5,49.4l0,0.5h-0.3
			c0.1,0,0.1-0.1,0.1-0.2C32.3,49.5,32.4,49.4,32.5,49.4z M37.3,49.8L37.3,49.8c-0.6,0.2-1.2,0.1-1.7-0.1c0.1,0,0.2-0.1,0.4-0.2
			C36.5,49.4,37,49.6,37.3,49.8L37.3,49.8z M42.2,47.2L42.2,47.2c0.1,0,0.2,0,0.2,0s0,0.1,0,0.2h-0.1L42.2,47.2z M42.6,47.5
			l-0.1-0.2c0,0,0,0,0,0C42.6,47.3,42.6,47.4,42.6,47.5L42.6,47.5L42.6,47.5z M35.9,5.7L35.9,5.7C36,5.5,36,5.5,36.1,5.5
			C36,5.6,35.9,5.6,35.9,5.7z M36,6.5L36,7l-0.3,0.2c-0.3-0.3-0.1-1.1,0.1-1.4l0.1-0.1c0,0.1-0.1,0.1,0,0.2
			C35.8,6.1,35.9,6.3,36,6.5L36,6.5z M9.3,35.1c0-0.1,0-0.2,0.1-0.2l0.2-0.1l0.4,0.3c0,0.1-0.1,0.2-0.2,0.5c-0.2,0-0.3,0.1-0.4,0.2
			c0,0,0-0.5,0-0.5S9.3,35.2,9.3,35.1z M11.3,42.5c0.1,0.1,0.3,0.2,0.3,0.3c0.1,0.3-0.1,0.7-0.4,0.8c-0.4,0-0.7-0.1-0.9-0.5
			c0.1-0.1,0.2-0.3,0.4-0.3L11.3,42.5z M14.2,22c0,0,0-0.1,0-0.2c0.1-0.1,0.3-0.1,0.4,0c0.1,0,0.2,0.1,0.2,0.2v0.4
			C14.6,22.3,14.4,22.2,14.2,22L14.2,22z M13.4,27.6L13.4,27.6c0.1-0.2,0.3-0.3,0.5-0.2c0.1,0,0.1,0.1,0.2,0.2c0,0,0,0.1,0,0.1
			c0,0.1,0,0.2-0.1,0.3c0,0-0.1,0.4-0.1,0.4l-0.3,0.3c0-0.1-0.1-0.3-0.2-0.5C13.2,28.1,13.3,27.9,13.4,27.6L13.4,27.6z M11.7,49.8
			c-0.1-0.2-0.8-0.5-0.8-0.5l-0.7-0.3l0,0c0-0.1,0-0.1,0-0.2c0,0,0.3-0.5,0.3-0.5c0.4,0.1,0.9,0.2,1.4,0.2l1.9,0.1l0.2,0.2
			C13.7,48.5,13,49,13,49c-0.4,0.2-0.9,0.5-0.9,1c0,0.2,0.1,0.3,0.1,0.5c-0.2,0.2-0.3,0.2-0.7,0l-0.4-0.1
			C11.5,50.3,11.6,50.1,11.7,49.8L11.7,49.8z M13.9,50.5c0.1-0.2,0.4-0.7,0.6-0.7s0.2,0.1,0.3,0.3c0,0,0,0.1,0,0.1
			c0,0.3-0.4,0.5-0.4,0.5c-0.2,0-0.4-0.1-0.5-0.2L13.9,50.5z M11.2,22.9c0.3-0.1,0.6-0.1,0.9,0c0.2,0.1,0.3,0.2,0.3,0.3
			s-0.2,0.3-0.5,0.5l-0.4,0.2c-0.1,0-0.2-0.1-0.2-0.4C11,23.1,11.1,23,11.2,22.9L11.2,22.9z M7.8,47.9v0.2c0,0-0.1,0-0.1,0
			c0,0-0.1-0.1-0.1-0.2c0,0,0,0,0-0.1L7.8,47.9z M86.8,43.1c-0.2,0-0.2,0-0.2-0.1c0,0,0,0,0-0.1c0,0,0-0.1-0.1-0.1
			c0.1,0.1,0.2,0.2,0.3,0.3L86.8,43.1z M87.5,38.9c0.1,0.1-0.2,0.1-0.5,0.1c0.2,0,0.4-0.1,0.6-0.2L87.5,38.9z M54.3,51.7L54.3,51.7
			L54.3,51.7z M63.8,48c0.2,0.1,0.2,0.4,0.2,0.8l0.4,1.2h-0.3h-0.4l-0.3-0.8l-0.3-1C63.3,48.2,63.6,48.1,63.8,48z M64.4,51.1v-1
			c0.3,0,1.3-0.8,1.3-0.8l0.9-0.7c0.3,0,0.4,0.3,0.6,0.8l0.4,0.9c-0.1,0-0.2,0.2-0.5,0.4L66.1,52c0-0.1,0-0.1-0.1-0.4l-0.4-0.5
			c-0.1,0-0.7,0-0.7,0L64.4,51.1L64.4,51.1z M84.6,50.7l-0.7,0.1c-0.4,0.1-0.7,0.2-0.9,0c0.1-0.1,0.1-0.3,0.1-0.4
			c-0.1-0.6-0.5-1-1-1.2c0-0.1,0-0.2,0-0.2s0-0.1,0-0.1c0-0.2,0-0.3,0.1-0.3h0.2c0.2,0,0.2,0,0.2,0s0,0.8,0,0.8l0.8,0.4
			c0.5,0.1,0.8,0.1,0.9,0.6l0.2,0.3L84.6,50.7z"/>
		<path class="st0" d="M59.3,3.8L59.3,3.8z"/>
		<path class="st0" d="M78.9,47.4c-0.1-0.1-0.1-0.1-0.1-0.1v0l0,0v-0.1l-0.1,0.1h-0.2l0.1,0.1v0h0.1L78.9,47.4L78.9,47.4L78.9,47.4z
			"/>
		<polygon class="st0" points="58.7,5.6 58.7,5.6 58.7,5.6 		"/>
		<polygon class="st0" points="37.5,31.7 37.5,31.7 37.5,31.7 		"/>
		<polygon class="st0" points="45.2,46.7 45.2,46.7 45.2,46.7 		"/>
	</g>
</g>
</svg>
