<?xml version="1.0" encoding="utf-8"?>
<!-- Generator: Adobe Illustrator 21.0.2, SVG Export Plug-In . SVG Version: 6.00 Build 0)  -->
<svg version="1.1" id="Layer_1" xmlns="http://www.w3.org/2000/svg" xmlns:xlink="http://www.w3.org/1999/xlink" x="0px" y="0px"
	 viewBox="0 0 47.2 90.1" style="enable-background:new 0 0 47.2 90.1;" xml:space="preserve">
<style type="text/css">
	.st0{stroke:#1D1D1B;}
</style>
<title>Asset 5</title>
<g id="Layer_2">
	<g id="Í_ã_1">
		<path class="st0" d="M43,2.1c-5.1-2.7-11.9-1.3-17.5-0.1s-7.9,6.3-8.5,9.6s0.6,12.2,0.6,12.2s-1.3,0.1-1.3,1.3
			c0.4,2.3,0.3,4.7-0.4,6.9c-0.3,0.4-2,3.6-4.3,4.6c-3.6,0.2-8.2,1.7-7.9,2.9s-1,29.4-0.9,31.4c0.2,1.6,0,3.2-0.6,4.7
			c-0.1,2.2-0.7,4.4-1.7,6.4C1.1,83.5,2,83,2.7,82.3S5,73.8,5,73.8l0.7-22h0.7c3.9,3,13.2,3.7,13.2,3.7s0.6,15.5,0.4,16.5
			c0.4,0.7,2,0.1,2,0.1s-0.6-16.8-0.3-16.8s3.9,0.1,3.9,0.1s-0.9,33-0.1,33.6c0.7,0.3,1.4,0.4,2.2,0.3c0,0,0.6-30,0.7-34.2
			c2.4,0.4,6.5-1.3,8.5-1.4c0,1,3.4,21.5,4,22.5s2.6,1.3,2.2-0.2C41.6,74.7,39.3,54,39,53s-0.3-10.6-0.3-10.6s2.4,0.6,2.2-1.9
			s0.7-9.6,0.9-11.9s-1.3-1-1.4-1.6s3.6-11.9,5-14.6S48.2,4.8,43,2.1z M17.9,30.1c0.3-2.6,0.6,5.9,0.6,5.9l-3.9,0.1
			C14.6,36.1,17.6,32.6,17.9,30.1L17.9,30.1z M6.2,49.4c-1,1.7-0.2-5.9-0.2-5.9s9.5,2,12.9,1.7c0.2,0.4,0.2,0.8,0.1,1.2
			C19.1,46.4,7.2,47.7,6.2,49.4z M19.4,53.4c0,0-10.1-0.6-11.8-2.6c-1.2-2.3,11.3-2.7,11.3-2.7l0.4-0.3V53.4z M25.7,53.4
			c-1.3,0.1-2.7,0.1-4,0L21.5,48c1.3-0.1,2.7,0,4,0.2C26.3,48.4,25.7,53.5,25.7,53.4L25.7,53.4z M25.8,46.3c-1.5-0.1-3-0.1-4.5,0
			l-0.1-1l4.7,0.1L25.8,46.3z M25.8,36.2c-1.7-0.3-3.3-0.4-5-0.3c0.1-1.6-1-9.3-1.4-13.6s-1.6-10.6,1-14.5c2-4.2,8.6-5,9.6-4.6
			c-1.3,0.3-5.6,2.9-6,6.5s0,10.5,0.7,12.1S26.4,35.9,25.8,36.2L25.8,36.2z M27.5,36.3c0,0-0.7-7-0.6-8.9s-1.9-13.6-1.9-13.6
			c-0.8-4.5,2.2-8.9,6.7-9.8c9.5-2.2,9.3,4.3,9.2,7s-2.7,8.5-5.3,13s-2,13.2-3.2,12.9S27.5,36.4,27.5,36.3L27.5,36.3z M36.1,48.4
			c-2.4-0.9-5-1.6-7.6-1.9l-0.1-1.2c2.6-0.3,5.2-0.7,7.8-1.3C36.6,44.5,36,47.4,36.1,48.4L36.1,48.4z M36,52c-2.3,1.4-5,1.8-7.6,1.3
			l0.1-4.9C28.5,48.4,39.9,49.7,36,52z M39.6,22.6c-2.1,4.6-2.6,15.7-3.3,15.2c-0.6-0.3-1.2-0.5-1.9-0.6c-0.3-0.6,1.4-10.8,2-11.2
			s5.8-13,5.8-13S44.5,4.5,38,2.6c6.9,0.4,5.9,2.9,6.6,4C45.8,7.5,41.8,18,39.6,22.6z"/>
	</g>
</g>
</svg>
