<svg xmlns="http://www.w3.org/2000/svg" viewBox="0 0 75.71 106.75"><title>Asset 2</title><g id="Layer_2" data-name="Layer 2"><g id="Layer_1-2" data-name="Layer 1"><path d="M75.67,56.4c-.16-1.4.09-3-.47-3.15a1.35,1.35,0,0,0-1.45.65,17.37,17.37,0,0,0-1.25,3.67c-.19.92-.67,2.59-1,3.53a6.57,6.57,0,0,1-1.71,2.3,14.45,14.45,0,0,1-2.12,1.84c-1,.74-1.79,1-1.79,2.83,0,1.5,1.22,2.26,1.83,3s.94,1.05.7,2.16-.86,3.69-1,4.92S66.86,82,66.12,82s-1-2.46-1.23-4.55.25-3.69-.25-6.39a26,26,0,0,0-2.09-6.39c-.86-2-3-3.44-3.94-5.9s-1.72-2.21-2.33-4.55a20,20,0,0,1,.12-9c.74-2.09,3.44-7.5,3.81-9.71s.74-7.13,0-9.22S58.5,23.83,57.4,22.6s-2.21-3.44-2.09-4.79S56.54,15,57.4,12.65a14.23,14.23,0,0,0,.78-4.44.5.5,0,0,1,.35,0c.18.06.14.26.35.22s.23-.44.36-.53.56.33.72.57,0,.61,0,1.14a6.82,6.82,0,0,1-.47,2.29c-.41,1-.33,1.56-.92,2-.34.26-.85.62-.66.86s.5.07.86-.14.76-1,.82-.57a2.42,2.42,0,0,1-1,2.08c-.88.6-.51.69-.28,1.14a.72.72,0,0,0,.84.47c.4,0,.45.67.75,1.83s.68,1.64.78,2.11A6.15,6.15,0,0,0,61.26,23c.26.52.35.79.47.57s-.2-.64-.36-1a3.28,3.28,0,0,1-.19-1.53c.08-.37.53.51.64,1.12s.13,1.6.34,1.56.18-.34.16-.8.06-1.48.25-1.3.17,1.84.28,1.59a3.38,3.38,0,0,0,.13-.87c.06-.34.87.38,1.27.43s.89,0,.46-.13-.63-.51-1.35-1-.54-1.12-.88-2.26a5.88,5.88,0,0,1,0-2.86,34.21,34.21,0,0,1,.91-3.31,10.2,10.2,0,0,0-.43-4.05,5.81,5.81,0,0,0-1.8-2.24,3.18,3.18,0,0,0-1.82-.42c-.18,0-.32-.3-.59-.3a.36.36,0,0,0-.33.29A1.5,1.5,0,0,1,58,6.19a5.68,5.68,0,0,0-.64-1.9,8.35,8.35,0,0,0-5.23-4,10,10,0,0,0-5.7.36A9.46,9.46,0,0,0,42,4.29a8.2,8.2,0,0,0-.92,5.11c.25,1.38.92,1.89.55,2.87s-1.11,2.21-.61,2.58,1.48-.25,1.72.74a2.25,2.25,0,0,0,.21.76c.15.2.43.26.51.44s-.11.44-.09.66.28.44.3.7c.08.89.42,2,1.4,2s2.7-.74,3,0a3.35,3.35,0,0,1,0,3.44A29.74,29.74,0,0,1,43.76,29a39.47,39.47,0,0,0-5,6c-1.11,1.72-2,3.32-1.84,4.79s.37,5,.49,6.39.74,4.42.13,5a25.25,25.25,0,0,1-3.81,2.83c-1.11.61-2.09,1.84-3.32,1.35a10.8,10.8,0,0,0-3.44-.74,4.21,4.21,0,0,0-2.21.37c-.67.25-2.09,2-2.58,2.09a5.64,5.64,0,0,0-1.6,1.6c-.61,1-.37,1.1-1.35,1.23a23.86,23.86,0,0,0-5,1.35,11.15,11.15,0,0,0-3.26,1.6A3.48,3.48,0,0,0,10,64.07a9.18,9.18,0,0,0-.25,2.52,20.27,20.27,0,0,1-.49,2.7,62,62,0,0,1-1.35,6.14c-.25.49,0,1.48,1.6,2,0,0,2.21.49,2.21,1.23a36.71,36.71,0,0,0,.74,4.92c.37,1.72,1.1,5.4,1.23,7a57,57,0,0,1,.12,6.39c-.12,1.1-.49,2.7-1.35,3.07s-2.58,1.1-3.81,1.6S6,102.85,4.8,103.28s-3.26,1.66-3.75,1.66-1.29.43-1,1.23,2.4.55,3.44.55,3.69-.92,5.16-1.11,4.06-.49,5.22-.49,2.95,0,4.05.06,2.89.12,3.19-1.1-.31-3.07-.55-4.3a44.77,44.77,0,0,1-.86-5.65c0-1.23-.25-5.1-.12-6.94a51,51,0,0,1,1.11-6.39,36.11,36.11,0,0,0,.43-6.21c-.06-.55-.37-2.27.25-2.27s2.33.19,3.69.12l2.46.18s5.77.86,8.6,1,9.34-.61,10.32.25A45,45,0,0,1,51.25,81c.74,1.47,2.7,5.28,2.95,6.76A27.64,27.64,0,0,0,56.32,94c1,2.09,2.55,5.28,3.66,7.13s2,3.34,3.56,3.93,5.32.58,6.64-1a11.19,11.19,0,0,0,2.11-4.93,70.07,70.07,0,0,0,.83-10.55c-.12-4.05.37-11.67.61-14.13s1-6.39,1.23-7.5.53-5.25.62-7A29.15,29.15,0,0,0,75.67,56.4ZM38.19,60.22c-1.25,0-5,.15-5,.15s1.61-1.54,2.48-1.63a16.12,16.12,0,0,0,2.16-.48S39.44,60.22,38.19,60.22Z"/></g></g></svg>