<svg xmlns="http://www.w3.org/2000/svg" viewBox="0 0 57.88 47.25"><title>Asset 5</title><g id="Layer_2" data-name="Layer 2"><g id="Í_ã_1" data-name="Í¼²ã_1"><path d="M57.68,37.64c-.75-3-3.28-13-10.08-16-.54-3.61-1.13-4.76-2.1-5.56l.26.12s4.87,1.86,8,1.15A2.7,2.7,0,0,0,57,15.48C58-.51,39.29.51,36.91.17S11.06-.85,3.4,8c0,0-7.65,8.84,0,16.84,4.14,1.55,9.11-2.13,9.11-2.13l-1.88,4.86L17,44.84c.92,2.52,6,2.4,6,2.4s5.21-.12,33.13-5.42C57,41.65,58.39,40.47,57.68,37.64Zm-15-31.12s1.2-.32.8,2.16a2.16,2.16,0,0,0-1,1.62l-.33-.18-.7-3.26A9.29,9.29,0,0,0,42.64,6.52ZM40.1,14.78a1.61,1.61,0,1,1-1.74,1.6A1.68,1.68,0,0,1,40.1,14.78Zm-3.73-1.52a1.68,1.68,0,0,1,1.74,1.6,1.75,1.75,0,0,1-3.49,0A1.68,1.68,0,0,1,36.37,13.26Zm3.34,9.42c0,2.65-2.42,4.8-5.41,4.8s-5.41-2.15-5.41-4.8,2.42-4.8,5.41-4.8S39.71,20,39.71,22.68ZM26.44,16.49a1.75,1.75,0,1,1,1.74,1.6A1.67,1.67,0,0,1,26.44,16.49Zm1.06,2.8a1.75,1.75,0,1,1-1.74-1.6A1.68,1.68,0,0,1,27.49,19.29Zm2.8-4.61a1.75,1.75,0,0,1,3.49,0,1.75,1.75,0,0,1-3.49,0Zm3.53-6.83-.23,2.42-9.52,1-.38-2.69C26.42,8.46,30.27,8.19,33.83,7.86ZM16.35,12.79S14.54,10.95,15,11.08A3.25,3.25,0,0,1,17.76,9h.06ZM22.7,22.88a1.75,1.75,0,1,1,1.74,1.6A1.68,1.68,0,0,1,22.7,22.88Zm1.09,3.8a1.87,1.87,0,1,1,1.87,1.71A1.8,1.8,0,0,1,23.79,26.68Zm4.76,4.62a1.72,1.72,0,1,1,1.87-1.71A1.79,1.79,0,0,1,28.55,31.29Zm4.2,1.65a1.72,1.72,0,1,1,1.87-1.71A1.79,1.79,0,0,1,32.75,32.94Zm4.48,0a1.72,1.72,0,1,1,1.87-1.71A1.79,1.79,0,0,1,37.23,32.94Zm4.85-1.26-2.93-4.94,4.44,3.08Z"/></g></g></svg>