<?xml version="1.0" encoding="utf-8"?>
<!-- Generator: Adobe Illustrator 21.0.2, SVG Export Plug-In . SVG Version: 6.00 Build 0)  -->
<svg version="1.1" id="Layer_1" xmlns="http://www.w3.org/2000/svg" xmlns:xlink="http://www.w3.org/1999/xlink" x="0px" y="0px"
	 viewBox="0 0 87.1 58.2" style="enable-background:new 0 0 87.1 58.2;" xml:space="preserve">
<style type="text/css">
	.st0{fill:#1D1D1B;}
</style>
<title>Asset 2</title>
<g id="Layer_2">
	<g id="Í_ã_1">
		<path class="st0" d="M33.9,52c0.3,0,0.6-0.3,0.6-0.6c0-0.3-0.3-0.6-0.6-0.6c-0.3,0-0.6,0.3-0.6,0.6c0,0,0,0,0,0
			C33.3,51.8,33.5,52,33.9,52z M33.9,51.3c0.1,0,0.1,0.1,0.1,0.1s-0.1,0.1-0.1,0.1s-0.1-0.1-0.1-0.1S33.8,51.3,33.9,51.3z"/>
		<path class="st0" d="M32.3,48.3c-0.2,0-0.4,0.2-0.4,0.5c0,0.3,0.2,0.5,0.5,0.5c0.3,0,0.5-0.2,0.5-0.5c0-0.2-0.2-0.4-0.4-0.5
			c0.3,0,0.6-0.3,0.6-0.7c0-0.4-0.3-0.7-0.7-0.7s-0.7,0.3-0.7,0.7c0,0,0,0,0,0C31.8,48,32,48.3,32.3,48.3z M32.4,48.9
			C32.3,48.9,32.3,48.9,32.4,48.9c-0.1-0.1,0-0.1,0-0.1S32.4,48.8,32.4,48.9C32.4,48.9,32.4,48.9,32.4,48.9z M32.5,47.5
			c0.1,0,0.2,0.1,0.2,0.2c0,0.1-0.1,0.2-0.2,0.2c-0.1,0-0.2-0.1-0.2-0.2C32.2,47.6,32.3,47.5,32.5,47.5L32.5,47.5z"/>
		<path class="st0" d="M57,27.9c0.3,0,0.5-0.2,0.5-0.5c0-0.3-0.2-0.5-0.5-0.5s-0.5,0.2-0.5,0.5S56.8,27.9,57,27.9L57,27.9z M57,27.3
			C57.1,27.3,57.1,27.3,57,27.3c0.1,0.1,0,0.1,0,0.1S57,27.4,57,27.3C57,27.3,57,27.3,57,27.3C57,27.3,57,27.3,57,27.3L57,27.3z"/>
		<path class="st0" d="M77.3,16.2c0,0.3,0.2,0.5,0.5,0.5s0.5-0.2,0.5-0.5s-0.2-0.5-0.5-0.5l0,0C77.5,15.7,77.3,15.9,77.3,16.2z
			 M78,16.2c0,0.1-0.1,0.2-0.2,0.2c-0.1,0-0.2-0.1-0.2-0.2c0-0.1,0.1-0.2,0.2-0.2C77.9,15.9,78,16,78,16.2C78,16.1,78,16.2,78,16.2
			L78,16.2z"/>
		<path class="st0" d="M77.6,16.8c-0.4,0-0.7,0.3-0.7,0.7c0,0.4,0.3,0.7,0.7,0.7c0.4,0,0.7-0.3,0.7-0.7v0C78.3,17,78,16.8,77.6,16.8
			z M77.6,17.9c-0.2,0-0.4-0.2-0.4-0.4s0.2-0.4,0.4-0.4s0.4,0.2,0.4,0.4S77.8,17.9,77.6,17.9L77.6,17.9z"/>
		<path class="st0" d="M76,28.5c0,0-0.1,0-0.1,0c0,0,0-0.1,0.1-0.1c0-0.2-0.2-0.4-0.4-0.4c-0.2,0-0.4,0.1-0.4,0.3
			c0,0.2,0.1,0.4,0.3,0.4c0,0,0.1,0,0.1,0c0.1,0,0.1,0,0.1-0.1c0,0,0,0.1,0,0.1c0,0.2,0.2,0.3,0.3,0.3c0.2,0,0.3-0.2,0.3-0.3
			C76.3,28.6,76.2,28.4,76,28.5z M75.4,28.4c0-0.1,0.1-0.1,0.1-0.1c0.1,0,0.1,0.1,0.1,0.1s-0.1,0.1-0.1,0.1l0,0
			C75.5,28.5,75.4,28.5,75.4,28.4z M76,28.9c-0.1,0-0.1,0-0.1-0.1s0-0.1,0.1-0.1c0.1,0,0.1,0,0.1,0.1c0,0,0,0,0,0
			C76.1,28.9,76.1,28.9,76,28.9C76,28.9,76,28.9,76,28.9z"/>
		<path class="st0" d="M43.3,30.4c0.7-0.3,4.2-1,6.3-1.4c1.3-0.2,2.6-0.2,3.9,0c0.9,0.1,1.2,0.1,1.3,0c0.1-0.1,0.1-0.1,0.1-0.2
			c-0.1-0.8,0-1.5,0.3-2.2c0.2-0.7,0.6-1.4,1-2c0.2-0.3,0.3-0.7,0.2-1c-0.2-0.3-0.5-0.6-0.9-0.6c-2.4,0.5-4.8,1.1-7.2,1.9
			c-2.3,0.9-4.4,2.3-6.1,4.1c-0.3,0.4-0.2,0.9,0.1,1.3C42.6,30.5,43,30.6,43.3,30.4z M43.1,28.9c1.5-1.5,3.3-2.7,5.3-3.5
			c2.1-0.7,4.2-1.4,6.4-1.9c0.2,0,0.4,0.2,0.6,0.4c0,0,0,0.1,0,0.1c0,0.1-0.1,0.3-0.1,0.4c-0.4,0.5-0.7,1.2-0.8,1.8
			c-0.2,0.4-0.2,0.9-0.3,1.4c0,0.2,0,0.4,0.1,0.5c-0.3,0-0.6,0-0.9,0c-1.2-0.1-2.5,0-3.7,0.2c-1.9,0.4-5.2,1.2-5.8,1.5
			c-0.3,0.1-0.6-0.1-0.7-0.4C43,29.2,43,29,43.1,28.9L43.1,28.9z M56,23.7c0,0,0,0.1,0,0.1c0,0.1-0.1,0.3-0.2,0.4
			c-0.4,0.7-0.8,1.4-1,2.1c-0.2,0.6-0.3,1.2-0.3,1.9c0,0.1,0,0.3,0,0.4c-0.2,0-0.5,0-0.9-0.1c-1.3-0.2-2.7-0.2-4.1,0l-1.1,0.2
			l1.1-0.2c1.2-0.2,2.4-0.2,3.6-0.2c0.8,0,1,0,1.1-0.1l0,0v-0.1c0-0.2-0.1-0.4-0.1-0.6c0-0.4,0.1-0.9,0.2-1.3
			c0.2-0.6,0.5-1.2,0.8-1.7c0.1-0.1,0.2-0.3,0.2-0.5c0-0.1,0-0.2,0-0.2c-0.1-0.2-0.3-0.3-0.5-0.4l0.5-0.1
			C55.7,23.4,55.9,23.5,56,23.7z M42.6,29.1c0.1-0.1,0.2-0.2,0.3-0.3c-0.2,0.3-0.2,0.6,0,0.9c0.1,0.1,0.2,0.2,0.4,0.3h-0.1
			c-0.2,0.1-0.4,0-0.5-0.2c-0.1-0.1-0.1-0.3-0.2-0.4C42.5,29.2,42.6,29.2,42.6,29.1L42.6,29.1z"/>
		<path class="st0" d="M36.3,36.8c-0.4-0.1-0.8,0.1-0.9,0.5c-0.1,0.4,0.1,0.8,0.5,0.9c0.4,0.1,0.8-0.1,0.9-0.5c0-0.1,0-0.1,0-0.2
			C36.9,37.2,36.6,36.9,36.3,36.8z M36.3,38c-0.2,0-0.3-0.2-0.3-0.5s0.1-0.5,0.3-0.5s0.3,0.2,0.3,0.5S36.5,38,36.3,38L36.3,38z"/>
		<path class="st0" d="M56.8,27.8c-0.4-0.1-0.8,0.1-0.9,0.5c-0.1,0.4,0.1,0.8,0.5,0.9c0.4,0.1,0.8-0.1,0.9-0.5c0-0.1,0-0.1,0-0.2
			C57.3,28.2,57.1,27.9,56.8,27.8C56.8,27.8,56.8,27.8,56.8,27.8z M56.8,29c-0.2,0-0.3-0.2-0.3-0.5s0.1-0.5,0.3-0.5s0.3,0.2,0.3,0.5
			S56.9,29,56.8,29L56.8,29z"/>
		<path class="st0" d="M34.9,41.3c-0.2,0-0.4,0.3-0.4,0.6s0.2,0.6,0.4,0.6s0.4-0.3,0.4-0.6S35.1,41.3,34.9,41.3z M34.9,42.3
			c0,0-0.2-0.1-0.2-0.4s0.1-0.4,0.2-0.4s0.2,0.1,0.2,0.4S35,42.3,34.9,42.3L34.9,42.3z"/>
		<path class="st0" d="M39.5,31.7c-0.3,0-0.5,0.3-0.5,0.8s0.2,0.8,0.5,0.8S40,33,40,32.5S39.8,31.7,39.5,31.7z M39.5,33.1
			c-0.1,0-0.3-0.2-0.3-0.6s0.2-0.6,0.3-0.6s0.3,0.2,0.3,0.6S39.6,33.1,39.5,33.1L39.5,33.1z"/>
		<path class="st0" d="M38.7,32.6c-0.2,0-0.3,0.2-0.3,0.5s0.2,0.5,0.3,0.5S39,33.3,39,33S38.9,32.6,38.7,32.6z M38.7,33.3
			c0,0-0.1-0.1-0.1-0.2s0.1-0.2,0.1-0.2s0.1,0.1,0.1,0.2S38.7,33.3,38.7,33.3L38.7,33.3z"/>
		<path d="M86.4,43.6l0.7,0.1L87,41h-1.7v-0.7h0.1l1.2,0.1v-3.7l0.1-0.2h-0.1l0.1-16.4l-2.2-0.7c0-1.8-0.1-6.9-0.1-6.9h-0.2
			l-11.6,0.2l-1-9.8L45.2,0l0,0L37,1.6c-0.1,0-0.1,0-0.2,0c0,0,0,0.1,0,0.1L34.6,2l-0.3,1.5L34.7,4l0,0c0.1,0.9,0.7,1.6,1.2,1.5
			c0.1,0,0.3-0.1,0.4-0.2v0.1l0.5-0.2c-0.1,0.8-0.5,2.9-0.6,3.2H35c-0.6,0.1-1.1,0.5-1.3,1.1c-0.1,0.4-1.2,6.3-1.2,6.6l0,0
			c0,0.3,0,1.6,0.7,1.9c0.4,0.2,1,0.4,1.3,0.5c0,0.2-0.4,2.8-0.8,5.3C25.8,25,21.5,32,21.5,32v0.1v7.7l-6.7-1.3l0,0l-0.7,0.1L0,50
			v2.5l15.3,5.8l4.5-0.3c0,0-0.1-0.5-0.1-0.7l16.9-1.2l0.3-1l-2.2-6l1.3,0.1l1.3-2.4c0.8,5.7,6,9.8,11.7,9c4.1-0.5,7.4-3.4,8.6-7.3
			h4c2.1,5,7.9,7.4,13,5.3c3.1-1.3,5.3-4.1,5.9-7.4l0.1,0.2l3.8-2.1l0.1-0.3h0.9v-0.5l1.1,0.1L86.4,43.6z M85.7,39.9v-2.2h0.4
			c0,1.3,0,2.1,0,2.2L85.7,39.9z M40.1,37.2c-1.3,1.4-2.2,3.1-2.7,5c0-1,0-1.8,0-1.9c1.4-4.2,4.7-7.7,8.8-9.4l0.1,0.4l2.8,1l0,0
			c0.4,0.1,0.8,0.1,1.3,0.2h22c0.5,0.1,1,0.3,1.5,0.5H48.1C48.1,33,41.1,32.9,40.1,37.2L40.1,37.2z M39.7,38.4l2,1.2l0,0
			c0.1,0,0.2,0.1,0.3,0.2c0,0,0,0.1,0,0.2c0,0.1-0.1,0.2-0.2,0.2c-0.2,0-0.3,0-0.5-0.1l-1.9-1.3L39.7,38.4z M38.5,40.4l2.1,1.3l0,0
			c0.1,0,0.2,0.1,0.3,0.2c0,0,0,0,0,0.1s-0.4,0.1-0.5,0.1l-2.2-1.3C38.4,40.7,38.5,40.5,38.5,40.4L38.5,40.4z M66.3,27.3v-4.7
			l5.5-2.4l-0.4,7h0.1v0.1h-13c0.1-0.8,0.2-1.5,0.2-1.5l7.1-3.1v4.5L66.3,27.3z M77.9,22.3l0.2-0.3L77.9,22.3
			C77.9,22.3,77.9,22.3,77.9,22.3L77.9,22.3z M79.5,18.8L79.5,18.8l0.1,0.1C79.6,18.9,79.6,18.9,79.5,18.8L79.5,18.8z M79.8,19.4
			c-0.2,0.5-0.5,1-0.9,1.4C79.2,20.5,79.5,20,79.8,19.4L79.8,19.4z M79.2,18.6l-0.3-0.3l0,0C79,18.4,79.2,18.5,79.2,18.6L79.2,18.6z
			 M78.9,18.6l0.3,0.3l0,0l0.2,0.2l0,0c0.1,0.1,0.2,0.2,0.2,0.4c-0.4,0.8-0.9,1.6-1.5,2.3C78.4,20.3,78.7,19,78.9,18.6L78.9,18.6z
			 M78.4,18.3l-2.1,7.9v0.1l0.9,1.2c0,0.1-0.1,4.8-0.1,5.5l-3.3-2.2c0-0.2,0.1-3.5,0.1-3.5s2.1-8.6,2.1-8.6l1.7-4l0.3,0.1
			c0,0.2,0.5,2.5,0.6,2.6S78.4,18.3,78.4,18.3L78.4,18.3z M85.3,21.8h1v1h-1V21.8z M85.3,23.1h1v1h-1C85.2,23.8,85.2,23.4,85.3,23.1
			L85.3,23.1z M86.3,24.3c0,3.6,0,8.8-0.1,12.2h-0.5v-1.2l-0.5-0.5c0-0.1,0-6.1,0.1-10.4L86.3,24.3z M58.5,27.8h10.9
			c0.2,0.3,0.3,0.6,0.3,0.9c0,0.3-0.1,0.5-0.2,0.8H58.3C58.3,29,58.4,28.4,58.5,27.8z M70.2,27.8h0.4c0.1,0.3,0.2,0.6,0.2,0.9l0,0
			c0,0.3-0.1,0.6-0.2,0.8h-0.4c0.1-0.3,0.1-0.6,0.1-0.9l0,0C70.4,28.4,70.3,28.1,70.2,27.8L70.2,27.8z M71.5,27.8h0.4
			c0.2,0.3,0.3,0.6,0.3,0.9l0,0c0,0.3-0.1,0.6-0.2,0.8h-0.4c0.1-0.3,0.1-0.6,0.1-0.9l0,0C71.6,28.4,71.5,28.1,71.5,27.8L71.5,27.8z
			 M72,25.4v-0.2l1.1-3L72,25.4z M67.3,30h2v0.7h-2V30z M71.9,30h0.2l0.1-0.1c0.1-0.1,0.1-0.2,0.2-0.3h0.7v1.1h-1.1V30z M72.5,28.3
			h0.6v0.9h-0.6c0-0.1,0.1-0.3,0.1-0.5C72.6,28.6,72.6,28.4,72.5,28.3L72.5,28.3z M84.7,34.6h-0.4v-6.7h0.5
			C84.7,30.7,84.7,33.6,84.7,34.6z M84.7,27.6H84v7h-1.6v-8h2.3C84.7,26.9,84.7,27.2,84.7,27.6L84.7,27.6z M84.7,26.3h-2.5v8.5h2.5
			v0.1l0.5,0.5v1.1l-6.4-0.1l-1.2-2.2c0.1-0.4,2-9.9,2-10l5.1,0C84.8,25,84.8,25.6,84.7,26.3L84.7,26.3z M73.1,27.2v0.6h-0.8
			c0-0.1-0.1-0.2-0.2-0.3c0-0.4,0.2-1.6,0.2-1.7l2.3-6.9l0.5-0.2L73.1,27.2z M72,24.3l0.3-4.3h-0.1l1.7-0.7L72,24.3z M65.5,30v0.6
			h-7.4l0.1-0.6H65.5z M72.4,32h-22c-0.4,0-0.8-0.1-1.2-0.1L46.8,31l0,0h8.6v-0.3h2.1v0.4H66v-1h0.8v1.1h3V30h1.7v1.1h1.8l3.9,2.5
			l-0.1,0.5l1.6,3c-0.9-1.6-2.1-2.9-3.6-4L74.8,33C74.1,32.5,73.3,32.1,72.4,32L72.4,32z M47.6,30.5c1.4-0.4,2.9-0.6,4.4-0.7
			c1-0.1,1.9,0.2,2.7,0.7H47.6z M79.1,37L79,36.8h6.2v0.7h-5.8C79.4,37.4,79.3,37.2,79.1,37z M85.7,36.8h0.5c0,0.2,0,0.4,0,0.6l0,0
			h-0.4L85.7,36.8z M86.2,20.5c0,0,0,0.5,0,1.2h-1c0-0.9,0-1.5,0-1.5l-0.7-0.1v-0.2L86.2,20.5z M84.1,20.5l0.7,0.1
			c0,0.1,0,1.6,0,3.5L79.5,24v0.1l-1.9,9.2l0.1-6l-0.9-1.1l0.8-3.1l0.3-0.5c0.2-0.3,0.5-0.7,0.8-1.1c0.5-0.6,0.9-1.3,1.2-2
			c0.2-0.7-0.8-1.3-1-1.5l0.1-0.5l0,0l-0.6-2.9l-0.8-0.3l0,0h-0.1v0.1h-0.3h-0.1L77,14.4l-1-0.1h-0.1l0,0l-0.6-0.1h-0.1l-2.5,0.9
			v-0.3c0-0.5,0-1.4,0.1-1.6h1.8l2.9,0.3l6.1-0.4h0.3C84,13.4,84.1,20.5,84.1,20.5L84.1,20.5z M32,41.9l-0.8-0.2l-0.5-0.1v-3.5
			c0.7,0.3,1.4,0.6,2.1,1l0.1-0.1v5.2L32,41.9z M33.6,24.8c-0.1,0.8-0.2,1.6-0.3,2.3l-2.6,0.2l-0.1,0c-0.3,0.2-6.5,5.9-7.1,6.5
			c-0.4,0.5-0.6,1.1-0.6,1.8v4.6l-0.4-0.1v-7.6C22.6,32.1,25.5,26.4,33.6,24.8L33.6,24.8z M33.3,29.6l0.5,0.3V31h-1.6l-1-0.1
			l1.7-1.9c0,0.2,0,0.3,0,0.3l0.3,0.1L33,29.5L33.3,29.6z M46.2,8c-0.1,0.3-0.1,0.5-0.1,0.6h-0.2c0.1-0.3,0.1-0.6,0.2-0.9
			C46.1,7.7,46.1,7.9,46.2,8z M45.7,5.5C45.7,5.9,45.9,6.4,46,7c-0.1,0.4-0.2,0.9-0.3,1.5c-0.3-0.1-0.7-0.1-1-0.1
			c0-0.2-0.1-0.5-0.2-0.8c0.2-1,0.4-1.8,0.4-2.1L45.7,5.5z M33.1,28l-1.8,0.5l-1.9,2.3l-1.9-0.1l3.2-2.9l2.4-0.2
			C33.1,27.7,33.1,27.9,33.1,28z M44.6,18L44.6,18c-0.3,0-0.5,0-0.7-0.1v-0.2c0.2,0.1,0.4,0.1,0.6,0.1L44.6,18z M45.6,24
			c-0.8,0.4-1.6,0.8-2.4,1.2v-0.3c0-0.3,0-0.7,0-0.8l0.3-0.3H44v0.1h0.2h0.4h0.6L45.6,24z M34.9,31h-0.3c0-0.3,0-0.8-0.1-1l0.7-0.2
			l1.1,0.1C35.7,30.3,35.3,30.7,34.9,31z M42.4,17c0-0.1,0-0.2,0-0.3c0,0,0-0.1,0.1-0.4v0.1C42.5,16.6,42.4,16.8,42.4,17L42.4,17z
			 M42.6,17.1c0,0.1,0,0.3,0.1,0.4c-0.1,0-0.1-0.1-0.2-0.1C42.6,17.3,42.6,17.1,42.6,17.1L42.6,17.1z M43,17.7
			c0-0.3-0.1-0.5-0.2-0.8c0,0.1,0.1,0.2,0.1,0.2c0.2,0.3,0.5,0.5,0.8,0.6c0,0.1,0,0.2,0,0.2C43.4,17.8,43.2,17.7,43,17.7L43,17.7z
			 M43.5,18.3l-0.2,1.1c-0.1-0.4-0.2-0.8-0.2-1.2C43.2,18.3,43.4,18.3,43.5,18.3L43.5,18.3z M42.8,18.1c0.1,0.7,0.3,1.3,0.4,1.9
			c-0.2,0.7-0.3,1.3-0.4,1.9h-0.7c-0.1-0.4-0.1-0.7-0.2-1.1c0.2-0.9,0.4-1.9,0.6-2.9C42.6,18,42.7,18,42.8,18.1L42.8,18.1z M43,23.5
			L43,23.5L43,23.5z M43,21.9c0.1-0.4,0.2-0.9,0.3-1.3c0.1,0.5,0.2,0.9,0.3,1.3L43,21.9z M41.8,21.9h-0.2c0-0.2,0.1-0.3,0.1-0.5
			C41.8,21.6,41.8,21.7,41.8,21.9L41.8,21.9z M41.4,21.9h-1.1c0-0.3-0.1-0.5-0.1-0.8c0.2-1.2,0.5-2.6,0.8-3.9
			c0.2,1.3,0.5,2.5,0.7,3.6C41.5,21.2,41.5,21.6,41.4,21.9L41.4,21.9z M40.1,21.9L40.1,21.9c0,0,0-0.1,0-0.1S40.1,21.9,40.1,21.9
			L40.1,21.9z M39.8,21.9h-1.2l-0.1-0.5c0.3-1.3,0.5-2.7,0.8-4.1l0.7,3.9L39.8,21.9z M39.8,27.1L40,27l0.4-0.2L39.8,27.1L39.8,27.1z
			 M43.4,20c0.1-0.5,0.2-1,0.3-1.6l0.4,0.1c0,0.2-0.3,1.6-0.5,3C43.6,21,43.5,20.5,43.4,20z M44,17.2c0.1-0.3,0.1-0.7,0.2-1l0.2,1.1
			C44.3,17.3,44.1,17.3,44,17.2z M43.8,17.1c-0.2-0.1-0.4-0.2-0.5-0.4c-0.1-0.1-0.1-0.2-0.1-0.4c0,0,0-0.1,0-0.1l0,0
			c0.1-1,0.3-2.3,0.4-3.4c0.2,0.9,0.3,1.8,0.5,2.7C44,16.1,43.9,16.6,43.8,17.1L43.8,17.1z M43.6,9.5c0,0.1-0.1,0.6-0.2,1.1
			c0-0.1-0.1-0.3-0.1-0.4c0.1-0.3,0.1-0.7,0.3-1C43.7,9,43.8,8.9,44,8.9v0.3C43.8,9.2,43.7,9.3,43.6,9.5z M43.3,11.4
			c-0.1,0.8-0.2,1.6-0.3,2.4l-0.4,2c0-0.1,0-0.1,0-0.2s0-0.2,0-0.3c0.2-1.2,0.4-3.1,0.6-4.5C43.3,11,43.3,11.2,43.3,11.4z
			 M42.3,14.1c-0.1-0.7-0.3-1.3-0.4-2c0.3-1.5,0.6-3,0.8-4.1L43,9.6C42.8,10.6,42.5,12.3,42.3,14.1L42.3,14.1z M42.2,14.9v0.4
			c-0.1,0.6-0.2,1.2-0.2,1.3c0,0.1-0.1,0.3-0.1,0.4c0,0.2,0.1,0.4,0.2,0.6c0,0.1,0.1,0.1,0.2,0.1l-0.5,2.5l-0.7-3.6
			c0.2-1.3,0.5-2.6,0.7-3.8C41.9,13.5,42,14.2,42.2,14.9L42.2,14.9z M40.9,16c-0.3-1.3-0.5-2.5-0.7-3.7l0.7-3.8
			c0.2,1,0.5,2.2,0.7,3.6L40.9,16z M40.8,16.6c-0.3,1.3-0.5,2.7-0.8,3.9c-0.2-1.2-0.5-2.5-0.7-3.8l0.7-3.7
			C40.3,14.1,40.6,15.3,40.8,16.6L40.8,16.6z M39.3,16c-0.3-1.5-0.5-2.9-0.7-3.9l0.7-3.6l0.8,3.7C39.7,13.5,39.5,14.7,39.3,16z
			 M39.1,16.6l-0.8,4.1c-0.3-1.6-0.5-3.1-0.7-3.9c0.3-1.4,0.5-2.8,0.8-4.1C38.6,13.8,38.9,15.2,39.1,16.6L39.1,16.6z M38.2,21.4
			c0,0.2-0.1,0.4-0.1,0.5L37,22c-0.1-0.4-0.1-0.7-0.2-0.9l0.7-3.5C37.7,18.5,38,20,38.2,21.4z M36.8,22L36.8,22
			c-0.1-0.1-0.1-0.2,0-0.3C36.7,21.8,36.8,21.9,36.8,22z M30,30.8l1.6-1.9l1-0.3l-2,2.2L30,30.8z M47.8,15.4l0.2,1.1v0.2l-0.2-1
			C47.8,15.6,47.8,15.5,47.8,15.4z M47.7,15c-0.1-0.6-0.2-1.1-0.2-1.3s0.1-0.4,0.1-0.5l0.2,1.4C47.7,14.8,47.7,14.9,47.7,15z
			 M64.2,5.4l0.4,1.8L64,10l-0.5-2.1l0.5-2.4L64.2,5.4z M57.9,12.1h-0.8L57,11.4l0.5-2.6l0.5,2.5L57.9,12.1z M56.4,12.1h-0.7
			l-0.1-0.7L56.1,9l0.5,2.4L56.4,12.1z M55.1,11.3c0,0.1,0,0.1,0,0.2L55,12.1h-0.8l-0.1-0.4L54.7,9L55.1,11.3z M59.4,12h-0.6
			l-0.2-0.8L59,9l0.5,2.3L59.4,12z M58.4,10.1l-0.5-2.5l0.5-2.3l0.5,2.5L58.4,10.1z M56.8,10.2l-0.5-2.4l0.5-2.6l0.5,2.4L56.8,10.2z
			 M55.5,9.5l-0.4-0.7L55,7.9l0.5-2.4l0.4,2.2L55.5,9.5z M54.3,8.4l-0.4,2.1l0-0.3c0.2-0.9,0.3-1.6,0.4-2L54.3,8.4z M53.7,11.7
			l-0.1,0.4h-0.1c0-0.2,0.1-0.4,0.1-0.6L53.7,11.7z M53.3,12.1h-0.6l0,0l0.6-2.8l0.3,1.6L53.3,12.1z M51.3,15.6c0-0.1,0-0.1,0-0.2
			l0,0C51.3,15.5,51.3,15.6,51.3,15.6L51.3,15.6z M50.8,16.8L50.5,17l-0.2-1.4l0.6-2.8l0.3,2.1C51.1,15.5,50.9,16.1,50.8,16.8
			L50.8,16.8z M50.1,17.2L50.1,17.2l0-0.3L50.1,17.2z M49.6,16.5l-0.1-0.6c0.1-0.4,0.1-0.7,0.2-1.1l0.1,0.7L49.6,16.5z M49.5,17.1
			L49.1,19L49,19.7l-0.1-0.5l0.5-2.7C49.4,16.7,49.5,16.9,49.5,17.1L49.5,17.1z M60,13.5l0.2,1.2L60,15.8V13.5z M60,11.3L60.5,9
			l0.5,2.4l-0.5,2.1L60,11.3z M61.2,12.6l0.5,2.3L61.2,17l-0.5-2.3L61.2,12.6z M62.2,14.3H63l0.1,0.4l-0.5,2.5l-0.5-2.3L62.2,14.3z
			 M62.3,13.8l0.3-1.3l0.3,1.3L62.3,13.8C62.3,13.8,62.3,13.8,62.3,13.8z M63.6,14.3h0.8l0.1,0.4L64,16.9l-0.5-2.2L63.6,14.3z
			 M64.7,13.4l-0.5-2.3l0.6-2.8l0.5,2.4L64.7,13.4z M65.5,11.9l0.4,1.8h-0.7L65.5,11.9z M64.3,13.8h-0.6l0.3-1.5L64.3,13.8z
			 M63.3,13.6l-0.5-2.2L63.3,9l0.5,2.2L63.3,13.6z M62.6,10.2L62.1,8l0.5-2.4l0.5,2.2L62.6,10.2z M62.4,11.4L62,12.8
			c-0.2-0.5-0.3-1.2-0.5-1.9l0.4-1.8L62.4,11.4z M60.2,8.1l-0.4,2l-0.5-2.3l0.5-2.3l0.4,2.1l-0.1,0.1L60.2,8.1z M54.1,7.9
			c-0.1,0.3-0.2,0.9-0.3,1.7l-0.3-1.5l0.2-0.9L54.1,7.9z M53,8.1l-0.5,2.7l-0.1-0.6c0.2-1,0.4-1.9,0.5-2.7L53,8.1z M52.2,12.1
			l-0.1,0.5l-0.5,1.7v-0.2c0.2-0.9,0.3-1.8,0.5-2.6L52.2,12.1z M51.5,13.4l-0.3-2l0.5-2.6l0.3,2L51.5,13.4z M50.9,10l-0.1-0.8
			c0.2-1,0.4-2,0.5-2.7l0.1,0.9L50.9,10z M50.7,11.3l-0.6,2.8L50,13.4c0.2-1,0.4-1.9,0.5-2.8L50.7,11.3z M49.9,12.6l-0.3-2.1
			l0.5-2.7l0.3,2C50.3,10.8,50.1,11.7,49.9,12.6L49.9,12.6z M49.6,14c-0.1,0.4-0.1,0.8-0.2,1.2c-0.1-0.6-0.2-1.2-0.3-1.8l0.3-1.4
			L49.6,14z M49.3,15.8c-0.2,0.9-0.3,1.8-0.5,2.6l-0.3-2l0.5-2.4C49,14.7,49.2,15.3,49.3,15.8L49.3,15.8z M48.4,18.8L48.2,18v-0.1
			L48.4,18.8z M48.5,21.2l-0.2,0.7c0-0.3,0.1-0.5,0.2-0.8L48.5,21.2z M60.2,19.2L60,18.1l0.5-2.3l0.5,2.3l-0.2,1L60.2,19.2z
			 M61.4,18.1l0.4-2.1l0.5,2.4v0.2l-0.7,0.2L61.4,18.1z M62.8,18.5L62.8,18.5l0.5-2.6l0.5,2.2v0.1l0,0L62.8,18.5z M64.3,18l0.5-2.3
			l0.4,2L64.3,18z M65,14.6l0.1-0.4H66v0.1l-0.6,2.7L65,14.6z M65.8,10.7l0.7-3.2l0.4,2.5l-0.6,3.1L65.8,10.7z M66.7,6.3l0.2-0.8h1
			l-0.7,3.3L66.7,6.3z M66.2,6.3l-0.7,3.3L65,7.2l0.3-1.8H66L66.2,6.3z M61.6,8l-0.4,2c-0.1-0.4-0.2-0.8-0.3-1.1l-0.2-1.1V7.7
			l0.7-0.8L61.6,8z M52.6,6l0.2,0.9c-0.1,0.7-0.3,1.5-0.5,2.6l-0.3-2L52.2,6H52.6z M50.7,8.5l-0.3-2l0.1-0.6h0.7
			C51.1,6.6,50.9,7.5,50.7,8.5z M49.8,5.8l0.1,0.7l-0.5,2.7l-0.1-0.9C49.5,6.9,49.7,6.1,49.8,5.8L49.8,5.8z M49.1,10.6l-0.3,1.6
			c-0.1-0.3-0.1-0.6-0.2-0.9L49,9.6L49.1,10.6z M48.7,12.8l-0.4,2.3L48.1,14c0.2-0.8,0.3-1.5,0.4-2.1C48.6,12.2,48.6,12.5,48.7,12.8
			L48.7,12.8z M47.8,17.4l-0.7,3.5L47,19.6c0.2-1.2,0.4-2.3,0.6-3.3C47.7,16.6,47.8,17,47.8,17.4L47.8,17.4z M48.1,18.7
			c0.1,0.6,0.2,1.3,0.3,1.8l-0.5,2.4l-0.4,0.2l-0.1-0.8L48.1,18.7z M65.8,17.5l0.3-1.4v1.3L65.8,17.5z M66.5,14.2v-0.1h0.1
			L66.5,14.2L66.5,14.2z M66.9,13.6h-0.3l0.5-2.5l0.3,1.6L66.9,13.6z M67.4,10l0.8-4.1c0.2,1.6,0.5,4.7,0.5,4.8l-0.9,1.6L67.4,10z
			 M48.6,7.2l0.2,1.7c-0.1,0.5-0.2,1.1-0.3,1.7c-0.1-0.7-0.2-1.3-0.3-1.4L48.6,7.2z M48.1,9.9c0.1,0.4,0.2,0.8,0.3,1.4l-0.4,2
			l-0.2-1.2h-0.1C47.9,11.3,48,10.6,48.1,9.9z M47.3,14.4c0.1,0.3,0.1,0.8,0.2,1.3c-0.2,1-0.4,2.1-0.6,3.2l-0.2-1h-0.1
			C46.9,16.8,47.1,15.6,47.3,14.4z M46.5,19.1l0.2,1.3L46,23.5h0.2l0.5-2.5l0.2,1.2l-0.2,1.2L46,23.7v-0.2l-0.4-0.1
			C45.8,22.8,46.1,21.1,46.5,19.1z M45.2,23.4L45.2,23.4l-1.1-0.2c0-0.1-0.1-0.3-0.1-0.5l0.7-4.1c0.4,2.1,0.7,3.6,0.7,3.8
			C45.3,23,45.2,23.3,45.2,23.4z M44.4,15.6c0.4-2.1,0.9-4.2,1.3-6h0.2c-0.4,2.4-1,5.7-1.2,7.1L44.4,15.6z M44.3,15
			c-0.2-1-0.4-1.9-0.5-2.9c0.1-0.6,0.2-1.2,0.2-1.6s0.1-0.6,0.2-0.9c0.4-0.1,0.9-0.1,1.3,0L44.3,15z M44.2,9.1c0-0.1,0-0.1,0-0.2
			c0.4,0,0.9,0,1.3,0.1c0,0.1,0,0.1,0,0.2C45.1,9,44.6,9,44.2,9.1z M44.4,8.4L44.4,8.4l-0.1-0.2C44.4,8.2,44.4,8.3,44.4,8.4z
			 M43.8,5.4c0.1,0.4,0.3,1.4,0.5,2.2l-0.2,0.8c-0.4,0-0.7,0.2-0.9,0.6c0,0,0,0.1,0,0.1c-0.1-0.6-0.2-1.2-0.3-1.7l0.4-2.1L43.8,5.4z
			 M42.2,5.3c0,0.1,0.2,0.9,0.4,2.1c-0.2,1.1-0.5,2.6-0.8,4.1c-0.3-1.5-0.5-2.7-0.7-3.6c0.2-1.1,0.4-1.9,0.5-2.4l0.1-0.3L42.2,5.3z
			 M40.6,6.9c0,0.2,0.1,0.6,0.2,1.1c-0.2,1.1-0.5,2.3-0.7,3.7c-0.3-1.6-0.6-2.9-0.7-3.7c0.1-0.4,0.1-0.7,0.2-0.8
			C39.9,7.1,40.2,7,40.6,6.9C40.5,6.9,40.6,6.9,40.6,6.9z M39,7.2c0,0.1,0.1,0.4,0.2,0.7c-0.2,0.8-0.4,2.1-0.7,3.6
			c0-0.2-0.1-0.4-0.1-0.6C38.7,8.8,38.9,7.3,39,7.2L39,7.2z M38.2,11.6l0.1,0.5c-0.3,1.3-0.5,2.7-0.8,4.2c0,0,0,0,0,0l0,0
			C37.8,14.5,38,12.9,38.2,11.6L38.2,11.6z M37.4,16.8L37.4,16.8l-0.1,0.3C37.4,17,37.4,17,37.4,16.8L37.4,16.8z M25.1,40.6
			c0-0.5,0.1-1.7,0.1-2.1c1.2-0.5,2.5-0.8,3.8-0.8c0.4,0,0.8,0.1,1.2,0.2v3.6L25.1,40.6z M14.5,39.5L30,42.4L28.3,44l-14.8-3.3h-0.1
			l-0.5,0.2L2,50.2l0.1,1.3L15,56.3V57L1,51.7c0-0.2,0-1.1,0-1.3L14.5,39.5z M2.6,51.1c0-0.2-0.1-0.6-0.1-0.8l10.6-9l0.3-0.2
			l1.1,0.2c0.2,0.6,2.1,5,1.7,6.8c-0.2,0.9-1.1,2.1-4.2,2.8H12c-0.6,0.1-7.6,0.2-9.3,0.2L2.6,51.1z M15,55.8L3.4,51.4
			c2.3,0,8.1,0,8.7-0.2h0.1c3.2-0.6,4.2-2,4.4-2.9c0.4-1.9-1.2-5.9-1.6-6.8l13,2.9L15,55.8z M31,42.2h0.2h0.2L16.9,54.7L31,42.2z
			 M32.9,38.6c-1.2-0.7-2.5-1.2-3.9-1.4c-1.5,0-2.9,0.3-4.2,1l-0.1,0.1v0.1c0,0.1-0.1,1.3-0.1,2.1l-1.3-0.2v-4.8
			c0-0.5,0.2-1,0.5-1.3l0.5-0.4l8.7,0.6L32.9,38.6z M76.7,13.1h2.5l-1.7,0.1L76.7,13.1z M72.3,14.8v0.3l0,0c0,0,0,0.1,0,0.1
			c-1.6,0.5-3.6,1.2-5.8,2c0-0.6,0-2.1,0-2.2l0,0h0.1V15l1.1-1.8h0.2v-0.3l1.3-2.1l-0.6-6.3l-6.8-0.7V3.6l-0.7,0l-8.4-0.9l-0.4,0.6
			l0,0l0,0l-1,1.5l-2,0.4h-0.5v0.2h-0.2l-3,16.3c-0.1-0.8-0.4-2.2-0.7-3.9c0.1-0.1,0.2-0.4,0.3-1.4l0.5-2.8l0.7-4.3h-0.2l-0.4-0.1
			c0-0.1,0-0.1,0-0.2l0.4,0.1l0.3,0.1l1.2-6.4h0.2l-0.1-0.3c-0.3-0.7-0.7-1.4-1.3-1.9l24.7,2.7C71.1,3.7,72.1,12.4,72.3,14.8z
			 M34.9,18.2c0,0-1-0.3-1.5-0.5c-0.3-0.1-0.4-0.9-0.4-1.4c0-0.3,1.1-6.2,1.2-6.5C34.4,9.4,34.6,9.1,35,9h1.6l0.7-3.8l0,0
			C37.7,5,38,4.8,38.3,4.6c0.2-0.4,0.2-0.8,0.2-1.3l0.3,0L38.7,3l0,0L40,2.7l3,0.1c0,1,0.5,1.8,1.1,1.8l0,0c0.9-0.1,1.8-0.3,2.6-0.7
			c0.1-0.1,0.2-0.2,0.3-0.4l-0.3,1.5l-5.4-0.3l-0.1,0.2c-0.2,0.6-0.5,1.1-0.9,1.5c-0.6,0.1-1.1,0.2-1.7,0.3h-0.2l-3.2,20.6l-1.8,1.7
			l-0.1,0c0,0,0-0.3,0.1-0.7h0.1l0.1-1.2c0.5-3.1,1.4-8.9,1.4-8.9L34.9,18.2z M22,32.3L22,32.3L22,32.3L22,32.3L22,32.3z M21.9,40
			L21.9,40h-0.1H21.9z M0.5,52.1v-1.9l3.3-2.6l-3.3,2.7L0.5,52.1l15.1,5.6h-0.3L0.5,52.1z M36.2,55.7l-17.1,1.2l0.1,0.7l-3.4,0.2
			l0.1-1.7l0.1,0.1l15.8-13.6l4.7,12.6C36.3,55.2,36.3,55.5,36.2,55.7z M33.3,45.3L33.3,45.3c0,0,0-8.4,0.1-11.2
			c0-0.1,0-0.2,0.1-0.3l0.1,12.2L33.3,45.3z M37,40.2c0,0-0.1,6.2-0.1,6.3l-1.3,2.2l-1.1,0c-0.1-0.2-0.5-1.3-0.5-1.4
			s-0.1-13.8-0.1-13.9c1.8-3.6,12.3-9,14.1-9.7s8.9-2.6,10.5-3s16-5.3,17.5-5.9H76l0,0l0,0l0.7,0.1l-1.4,3.3l-17,7.3
			c0,0-0.1,1-0.3,2L57.6,30h0.1c0,0,0,0.1,0,0.1h-2.8c-0.9-0.6-1.9-0.8-3-0.8C45.1,29.4,39.1,33.8,37,40.2L37,40.2z M47.7,55.4
			c-5.7-0.1-10.2-4.9-10.1-10.5c0-1.2,0.2-2.4,0.6-3.6l2.1,1.3l0,0c0.4,0.2,0.9,0.1,1.1-0.3c0-0.1,0.1-0.2,0.1-0.3
			c0-0.1,0-0.1,0-0.2c-0.1-0.2-0.3-0.4-0.5-0.5l-2.1-1.3c0.1-0.3,0.3-0.5,0.4-0.8l1.9,1.4l0,0c0.3,0.1,0.6,0.2,0.8,0.1
			c0.2-0.1,0.4-0.2,0.5-0.5c0.1-0.1,0.1-0.2,0.1-0.3c0-0.1,0-0.2-0.1-0.3c-0.1-0.2-0.3-0.4-0.6-0.5L40,38c0.2-0.2,0.4-0.5,0.6-0.7
			l2.1,1c0.3,0.3,0.6,0.4,1,0.4c0.2,0,0.4-0.2,0.5-0.4c0.3-0.6-0.2-1.2-0.5-1.3l0,0l-1.8-0.7c0.2-0.2,0.4-0.3,0.6-0.4l2.3,0.8
			c0.2,0.2,0.4,0.4,0.7,0.5c0.2,0,0.4,0,0.5-0.1c0.3-0.1,0.4-0.4,0.5-0.7c0-0.3-0.2-0.5-0.5-0.7l0,0L44.1,35
			c0.4-0.2,0.9-0.3,1.3-0.4l2.1,1c0.1,0.3,0.4,0.9,0.9,0.8c0.7-0.1,0.8-0.9,0.8-1.3v-0.1l-1.4-0.6c0.6,0,1.1,0.1,1.7,0.2l1,1
			c0,0.1-0.1,0.2-0.1,0.3c0,0.1,0,0.1,0,0.2c0.1,0.2,0.2,0.3,0.4,0.4l0.2-0.4c-0.1,0-0.1-0.1-0.1-0.1c0-0.1,0-0.2,0.1-0.3l0.1-0.2
			L51,35.2l-0.5-0.5c4.4,1.4,7.3,5.5,7.3,10.1C57.9,50.6,53.4,55.3,47.7,55.4z M41,37c0.2-0.2,0.3-0.3,0.5-0.5v0.1l2,0.8
			c0,0,0.4,0.3,0.4,0.5c0,0.1,0,0.1,0,0.2c-0.1,0.1-0.1,0.2-0.2,0.2c-0.2,0-0.5-0.2-0.6-0.3l0,0L41,37z M43.5,35.3l2.3,0.7
			c0.1,0,0.2,0.2,0.2,0.3l0,0c0,0.1-0.1,0.2-0.2,0.3s-0.6-0.3-0.6-0.3v-0.1h-0.1l-2-0.7L43.5,35.3z M46.8,34.4l2,0.9l0,0
			c0,0.2,0,0.6-0.4,0.7c-0.1,0-0.3-0.3-0.4-0.6v-0.1l-1.7-0.8L46.8,34.4z M61.1,47.2H58c0-0.1,0-0.2,0-0.2h3.1
			C61.1,47.1,61.1,47.2,61.1,47.2z M57.8,48c0-0.2,0.1-0.4,0.1-0.6h3.2v-0.1c0.1,0.2,0.2,0.5,0.3,0.7H57.8z M70.7,54.1
			c-5.3-0.1-9.6-4.5-9.5-9.8c0-1.1,0.2-2.2,0.6-3.3l2,1.1l0,0c0.4,0.2,0.8,0,1-0.3c0-0.1,0.1-0.2,0.1-0.3c0-0.1,0-0.1,0-0.2
			c-0.1-0.2-0.3-0.3-0.5-0.4l-2-1.2c0.1-0.2,0.2-0.5,0.4-0.7l1.8,1.3l0,0c0.2,0.1,0.5,0.2,0.8,0.1c0.2-0.1,0.4-0.2,0.5-0.4
			c0.1-0.1,0.1-0.2,0.1-0.3c0-0.1,0-0.2-0.1-0.2c-0.1-0.2-0.3-0.4-0.6-0.4l-1.8-1c0.2-0.2,0.3-0.4,0.5-0.6l1.9,0.9
			c0.2,0.3,0.6,0.4,0.9,0.4c0.2,0,0.4-0.2,0.5-0.4c0.3-0.6-0.2-1.1-0.5-1.3l0,0l-1.7-0.7c0.2-0.1,0.4-0.3,0.6-0.4l2.1,0.7
			c0.2,0.4,0.7,0.6,1.2,0.3c0.3-0.1,0.4-0.4,0.4-0.7c0-0.3-0.2-0.5-0.4-0.7l0,0l-1.7-0.5c0.4-0.2,0.8-0.3,1.2-0.4l2,0.9
			c0.1,0.3,0.4,0.8,0.9,0.8c0.7-0.1,0.8-0.9,0.7-1.3v-0.1L71,34.6c0.5,0,1,0.1,1.5,0.2l1,0.9c0,0.1-0.1,0.2-0.1,0.3
			c0,0.1,0,0.1,0,0.2c0.1,0.2,0.2,0.3,0.4,0.4L74,36c-0.1,0-0.1-0.1-0.1-0.1c0-0.1,0-0.2,0.1-0.2l0.1-0.2l-0.2-0.1L73.5,35
			c5.1,1.7,7.9,7.2,6.2,12.4C78.4,51.3,74.8,54,70.7,54.1L70.7,54.1z M62.1,40.1l1.9,1.2l0,0c0.1,0,0.2,0.1,0.3,0.2c0,0,0,0,0,0.1
			s-0.4,0.1-0.4,0.1l-2-1.2C62,40.4,62.1,40.3,62.1,40.1L62.1,40.1z M63.2,38.3l1.9,1l0,0c0.1,0,0.2,0.1,0.3,0.2c0,0,0,0,0,0.1
			c0,0.1-0.1,0.2-0.2,0.2c-0.1,0-0.3,0-0.4-0.1L63,38.7C63.1,38.5,63.2,38.4,63.2,38.3L63.2,38.3z M64.8,36.6l1.9,0.8
			c0,0,0.4,0.2,0.4,0.5c0,0,0,0.1,0,0.2c-0.1,0.1-0.1,0.1-0.2,0.1s-0.5-0.2-0.6-0.3l0,0L64.4,37L64.8,36.6z M66.7,35.4l2.2,0.7
			c0.1,0,0.2,0.2,0.2,0.3l0,0c0,0.1-0.1,0.2-0.2,0.3s-0.6-0.3-0.6-0.3v-0.1h-0.1l-1.8-0.6C66.5,35.6,66.6,35.5,66.7,35.4L66.7,35.4z
			 M69.9,34.6l1.8,0.8c0,0.2,0,0.5-0.3,0.6c-0.1,0-0.3-0.3-0.4-0.5v-0.1l-1.5-0.7L69.9,34.6z M84,44.2l-3.4,2
			c0.1-0.6,0.2-1.2,0.2-1.8L84,44.2L84,44.2z M84.9,43.7l-4.2,0.3c-0.1-4.7-3.4-8.7-8-9.7l0,0c-0.6-0.1-1.3-0.2-1.9-0.2
			c-5.6,0.1-10.1,4.7-10,10.3c0,0.8,0.1,1.7,0.3,2.5h-3c0.1-0.6,0.2-1.3,0.2-1.9c0.1-5.2-3.5-9.7-8.5-10.8l0,0l0,0
			c-0.7-0.1-1.3-0.2-2-0.2c-2.7,0-5.4,1.1-7.3,3.1c1.3-3.8,7.7-3.7,7.8-3.7h26c0.1,0,0.2,0.1,0.2,0.1l0.3,0.3c1.6,1.2,3,2.7,3.9,4.5
			c0,0.1,0.1,0.1,0.2,0.1c0.1,0,0.2,0,0.6-0.3l0.1-0.1l-0.1-0.2h5.7v2.2h-0.4L84.9,43.7z M85.4,43.1v-1.7h0.5c0,0.3,0,1.4,0.1,1.7
			L85.4,43.1z M86.6,41.5c0,0.3,0,1.3,0,1.7h-0.2l-0.1-1.7L86.6,41.5z"/>
		<path class="st0" d="M35.5,17.8l1.4-8.2l-1.5-0.2l0,0c-0.4,0-0.8,0.2-0.9,0.6c-0.2,0.5-1.2,5.8-1.2,6s-0.2,1.4,0.5,1.6
			c0.5,0.1,1,0.2,1.5,0.2L35.5,17.8z M33.9,17.1c-0.2,0-0.2-0.4-0.2-0.7c0-0.1,0-0.2,0-0.3c0.3-1.5,1.1-5.5,1.2-5.9
			c0.1-0.2,0.3-0.3,0.5-0.3l1,0.1c-0.1,0.4-1.2,6.9-1.2,7.3C34.7,17.2,34.3,17.2,33.9,17.1z"/>
		<path class="st0" d="M58.3,37.2c-0.3,0-0.5,0.2-0.5,0.5c0,0.3,0.2,0.5,0.5,0.5c0.3,0,0.5-0.2,0.5-0.5
			C58.9,37.5,58.6,37.2,58.3,37.2C58.4,37.2,58.4,37.2,58.3,37.2z M58.3,38c-0.1,0-0.3-0.1-0.3-0.3s0.1-0.3,0.3-0.3s0.3,0.1,0.3,0.3
			v0C58.6,37.9,58.5,38,58.3,38C58.4,38,58.4,38,58.3,38L58.3,38z"/>
		<path class="st0" d="M60.9,37.2c-0.3,0-0.5,0.2-0.5,0.5c0,0.3,0.2,0.5,0.5,0.5s0.5-0.2,0.5-0.5c0,0,0,0,0,0
			C61.4,37.4,61.1,37.2,60.9,37.2z M60.9,38c-0.1,0-0.3-0.1-0.3-0.3s0.1-0.3,0.3-0.3s0.3,0.1,0.3,0.3v0C61.1,37.9,61,38,60.9,38
			C60.9,38,60.9,38,60.9,38L60.9,38z"/>
		<path class="st0" d="M49.1,49.7c2.5-0.2,4.5-2.3,4.3-4.9c0.1-2.5-1.8-4.7-4.3-4.8c-2.5,0.2-4.5,2.3-4.3,4.9
			C44.6,47.4,46.6,49.6,49.1,49.7z M49.1,40.2c2.4,0.2,4.2,2.2,4.1,4.6c0.1,2.4-1.7,4.5-4.1,4.6c-2.4-0.2-4.2-2.2-4.1-4.6
			C44.9,42.4,46.7,40.4,49.1,40.2z"/>
		<path class="st0" d="M49.6,38.4c-3.1,0-5.6,2.9-5.6,6.6s2.5,6.5,5.7,6.5s5.6-2.9,5.6-6.5S52.7,38.4,49.6,38.4z M54.8,45
			c0,3.4-2.3,6.1-5.2,6.1s-5.2-2.7-5.2-6.1s2.3-6.1,5.2-6.1S54.8,41.6,54.8,45z M54.6,42.6c-0.6-1.8-2.1-3.3-3.9-3.8
			C52.6,39.3,54,40.7,54.6,42.6z"/>
		<path class="st0" d="M72.1,39.8c-2.5-0.3-4.8,1.6-5,4.1s1.6,4.8,4.1,5c2.5,0.3,4.8-1.6,5-4.1c0-0.2,0-0.3,0-0.5
			C76.3,41.9,74.4,39.9,72.1,39.8z M72.1,48.6c-2.4,0.3-4.5-1.5-4.8-3.8c-0.3-2.4,1.5-4.5,3.8-4.8s4.5,1.5,4.8,3.8
			c0,0.2,0,0.3,0,0.5C76,46.6,74.3,48.5,72.1,48.6z"/>
		<path class="st0" d="M72.6,38.3c-2.9,0-5.3,2.7-5.3,6.1s2.4,6.1,5.3,6.1s5.3-2.7,5.3-6.1S75.5,38.3,72.6,38.3z M77.4,44.5
			c0,3.1-2.2,5.7-4.9,5.7s-4.9-2.5-4.9-5.7s2.2-5.7,4.9-5.7S77.4,41.3,77.4,44.5z"/>
		<path class="st0" d="M50.7,25.1l-0.3,0.3l-2.6,2.4l3.1-0.3L50.7,25.1z M49.1,27.2l1.2-1.1c0,0.4,0.1,0.8,0.1,1L49.1,27.2z"/>
	</g>
</g>
</svg>
