<?xml version="1.0" encoding="utf-8"?>
<!-- Generator: Adobe Illustrator 21.0.2, SVG Export Plug-In . SVG Version: 6.00 Build 0)  -->
<svg version="1.1" id="Layer_1" xmlns="http://www.w3.org/2000/svg" xmlns:xlink="http://www.w3.org/1999/xlink" x="0px" y="0px"
	 viewBox="0 0 69 79.9" style="enable-background:new 0 0 69 79.9;" xml:space="preserve">
<style type="text/css">
	.st0{fill:#020202;}
</style>
<title>Asset 4</title>
<g id="Layer_2">
	<g id="Í_ã_1">
		<path class="st0" d="M3,74c0.8-0.3,1.4-0.9,1.6-1.7l1.3-0.7c1.1-1.8,2.2-3.6,3.5-5.3c2.2-2.5,4.6-4.9,7.1-7.1l0.6,5.3l0.9,0.3
			c0,0,8.3-4.4,14.3-4.4c0.3,0-0.6,13.9-0.6,13.9s1.4,1.7,1.9,2.5c0.7,0.8,1.8,0.9,2.7,0.4c0.5-0.5,1-1.3,0.8-1.9
			c-0.2-0.4-0.4-0.7-0.8-1l0.8-7.3l3.6-5.9l1.4,4.2c0,0-2.1,3.4-2.7,4.2c-0.6,1-0.9,2.2-0.8,3.4c0,0.9,1.4,1.6,2.3,1s0-1.8,0-1.8
			l0.8-0.1c0.2-1,0.8-1.8,1.7-2.3c0.8-0.6,1.7-0.9,2.6-1.1c0,0,0.4-2.4,0.9-4c0.4-1,1-2,1.7-2.9c0.5,2.2,1.2,4.4,2.1,6.5
			c0,0-4.5,6.2-5.5,7.4s-0.9,2.9-1.1,3.6s1.5,1.3,2.9,0.7c0.7-0.3,0.4-1.3,0.4-1.3L49,78c0-0.6,0.3-1.2,0.6-1.7
			c0.6-0.9,4.2-6.1,7.2-7.1c0.7-0.2,1.3-0.5,1.9-0.9c0,0,0-5.3,0.9-7.4s2.8-5.7,2.8-8c0-1,0-1.9-0.1-2.9c0,0,6.3,2.5,5.1,10.4
			s-3.6,6.9-4.2,12.3s0.8,5.1,1.3,4.5c0.4-0.5,0.7-1.1,1-1.8c0,0,0.8-0.5,0.8-1.2s-0.7-1.8-0.8-2.4c0-1.1,0.2-2.2,0.7-3.1
			c0.6-1.4,2.3-5.5,2.5-8S69.2,53,66,50.6c-3.1-2.4-6.3-4.6-9.6-6.5c-2-1-7.3-1.5-8.9-7.9c-0.2-0.8-0.5-3-0.5-3s-5.8-2.5-8-5.4
			s-6.2-7.6-6.7-9.6s-0.6-2.6,0.9-2.8c1.4-0.3,2.7-0.7,4-1.2c0,0-2.4-2.5-5.1-2.6l-2.7-0.1c0,0,0.4-1,0-1.4c-1.1-1-1.8-2.3-2.2-3.8
			c-0.4-2-1.5-6.2-1.5-6.2l-0.8,8.5c0,0-9.5,0.8-12.4,0.1S6,6,4.6,4.3C4.5,4.2,4.4,6.6,10,11.5c-0.9,0.7-2,1.2-3.2,1.3
			c-0.1,0,0,1.4,2.4,1.7c0.2,0.4,0.2,0.9,0,1.3l-5.8,8l3.2,4.3l9.2-1c0,0-1,15.3-3,19.2c-0.1,0.3-1.6,8-1.6,8
			C10.1,57.7,8.4,61,6.2,64c-3.1,3.9-4.7,5.6-4.9,6.2S0,73.6,0,73.6C0.9,74,2,74.2,3,74z"/>
	</g>
</g>
</svg>
