<svg id="Layer_1" data-name="Layer 1" xmlns="http://www.w3.org/2000/svg" viewBox="0 0 448 384"><title>28</title><path d="M125.3,289.3a65.73,65.73,0,1,1-46.1,19.3,64.86,64.86,0,0,1,46.1-19.3m0-28c-51.3,0-93.3,42-93.3,93.3S74,448,125.3,448s93.3-42,93.3-93.3S176.7,261.3,125.3,261.3ZM319.8,127.8a31.84,31.84,0,0,0,32-32A31.5,31.5,0,0,0,320,64a31.9,31.9,0,1,0-.2,63.8Zm66.9,161.5a65.73,65.73,0,1,1-46.1,19.3,64.86,64.86,0,0,1,46.1-19.3m0-28c-51.3,0-93.3,42-93.3,93.3s42,93.3,93.3,93.3,93.3-42,93.3-93.3S438,261.3,386.7,261.3Z" transform="translate(-32 -64)"/><path d="M368,192H320l-29.5-60.1c-5.6-9.3-15.9-15.9-27.1-15.9a32.56,32.56,0,0,0-22.4,9.3l-71.7,69.1a32.56,32.56,0,0,0-9.3,22.4c0,17.4,12.6,23.6,18.5,27.1C224,270.1,240,273,240,286.1V352a16,16,0,0,0,32,0V262c0-13.2-30.4-24-48.3-38l48.9-51.5c18.7,28.5,27.3,51.5,38,51.5H368a16,16,0,0,0,0-32Z" transform="translate(-32 -64)"/></svg>