<svg id="Layer_1" data-name="Layer 1" xmlns="http://www.w3.org/2000/svg" viewBox="0 0 384.06 448.01"><title>30</title><path d="M254.9,293.4A130.63,130.63,0,0,0,386.6,161.6C386,91.7,326.9,32.6,257.1,32A130.63,130.63,0,0,0,125.4,163.8c.6,69.9,59.7,129,129.5,129.6ZM251.2,89.3a73.56,73.56,0,1,1-68.5,68.6,73.56,73.56,0,0,1,68.5-68.6Z" transform="translate(-64.02 -32)"/><path d="M256,308.4a148.36,148.36,0,0,1-108.5-47,4.15,4.15,0,0,0-6.6.7L65.1,394.8a8.23,8.23,0,0,0,7.2,12.3h80.1a8.26,8.26,0,0,1,7.1,4l39,64.9a8.28,8.28,0,0,0,14.6-.8l43-94.6,31.3-68.9a4.08,4.08,0,0,0-4.5-5.7,159.22,159.22,0,0,1-26.9,2.4Zm108.5-47.1A148.59,148.59,0,0,1,312,297.4a3.79,3.79,0,0,0-2.2,2.1l-44.7,97.7a4,4,0,0,0,0,3.4L299,475.1a8.28,8.28,0,0,0,14.6.8l39-64.9a8.26,8.26,0,0,1,7.1-4h80.1a8.26,8.26,0,0,0,7.2-12.3L371.2,261.9a4.37,4.37,0,0,0-6.7-.6Z" transform="translate(-64.02 -32)"/></svg>