<svg id="Layer_1" data-name="Layer 1" xmlns="http://www.w3.org/2000/svg" viewBox="0 0 446 192.2"><title>31</title><path d="M464.5,240.9h-6.2a97.75,97.75,0,0,0-28.5-55.2,91.31,91.31,0,0,0-63.4-25.8,90.39,90.39,0,0,0-56.2,19.4A95.65,95.65,0,0,0,279.7,221a43.79,43.79,0,0,0-23.7-7.3,43,43,0,0,0-23.7,7.3,94.11,94.11,0,0,0-30.5-41.7,90.39,90.39,0,0,0-56.2-19.4,91.56,91.56,0,0,0-63.4,25.6A99.21,99.21,0,0,0,53.7,241H47.5a15,15,0,0,0,0,30h6.2a97.71,97.71,0,0,0,28.5,55.3,91.31,91.31,0,0,0,63.4,25.8c51.3,0,93.1-43,93.1-95.9V256c0-5.9,6.9-14.9,17.3-14.9s17.3,9,17.3,14.9v.1c0,52.9,41.8,95.9,93.1,95.9a90.52,90.52,0,0,0,63.4-25.8,98,98,0,0,0,28.5-55.4h6.2a15,15,0,0,0,0-29.9Z" transform="translate(-33 -159.9)"/></svg>