<svg id="Layer_1" data-name="Layer 1" xmlns="http://www.w3.org/2000/svg" viewBox="0 0 415.8 383.96"><title>36</title><path d="M146,64.1c54.1,0,100,27.9,100,82V446a2,2,0,0,1-3.8.7v-.1c-10.3-34.2-38.2-67.6-82.3-70.5C125.7,373.9,93,389,66.8,413.2a10.78,10.78,0,0,1-6.6,2.9H55.7c-3.7,0-7.6-2.7-7.6-6.1V120.2C48,88.1,91.9,64.1,146,64.1ZM366,64c-54.1,0-100,27.9-100,82V445.9a2,2,0,0,0,3.8.7v-.1c10.3-34.2,39.4-67.9,82.3-70.5,32.9-2,63.9,11,93.1,37.1,1.6,1.4,4.3,2.9,6.6,2.9h4.5c3.7,0,7.6-2.7,7.6-6.1V120C464,88,420.1,64,366,64Z" transform="translate(-48.1 -64)"/></svg>