<svg id="Layer_1" data-name="Layer 1" xmlns="http://www.w3.org/2000/svg" viewBox="0 0 416 304"><title>37</title><path d="M416,196.2C402.2,165.4,367,104,316,104H196c-51,0-84.8,59.4-100,92.2-24,23-48,45.7-48,84.8v76a8,8,0,0,0,6.2,7.8C69.1,368.2,116.4,375,256,375s186.9-6.8,201.8-10.2A8,8,0,0,0,464,357V281C464,242,441.7,217.9,416,196.2ZM190,128H322c40.5,0,62,60,62,70H128C128,188,155,128,190,128ZM112,331.7a32,32,0,1,1,32-32A32,32,0,0,1,112,331.7ZM328,300a16,16,0,0,1-16,16H200a16,16,0,0,1,0-32H312A16,16,0,0,1,328,300Zm72,32a32,32,0,1,1,32-32A32,32,0,0,1,400,332ZM160,384c-47.9,0-96-5-96-5,0,17-.3,29,6,29h85C161.3,408,160,394.8,160,384Zm192,0c48,0,96-5,96-5,0,16,2,29-5,29H357C350.3,408,352,394.5,352,384Z" transform="translate(-48 -104)"/></svg>