<?xml version="1.0" encoding="utf-8"?>
<!-- Generator: Adobe Illustrator 14.0.0, SVG Export Plug-In . SVG Version: 6.00 Build 43363)  -->
<!DOCTYPE svg PUBLIC "-//W3C//DTD SVG 1.1 Tiny//EN" "http://www.w3.org/Graphics/SVG/1.1/DTD/svg11-tiny.dtd">
<svg version="1.1" baseProfile="tiny" id="Capa_1" xmlns="http://www.w3.org/2000/svg" xmlns:xlink="http://www.w3.org/1999/xlink"
	 x="0px" y="0px" width="400px" height="400px" viewBox="0 0 400 400" xml:space="preserve">
<g display="none">
	<path display="inline" d="M309.177,212.536c-0.504-50.657,41.313-74.952,43.181-76.159c-23.496-34.383-60.098-39.093-73.141-39.638
		c-31.148-3.154-60.779,18.339-76.588,18.339c-15.769,0-40.163-17.873-65.997-17.403c-33.951,0.505-65.257,19.741-82.739,50.148
		c-35.274,61.211-9.033,151.891,25.348,201.533c16.801,24.301,36.833,51.593,63.136,50.617c25.329-1.011,34.907-16.39,65.529-16.39
		s39.23,16.39,66.034,15.887c27.257-0.506,44.524-24.765,61.209-49.139c19.292-28.19,27.235-55.483,27.704-56.885
		C362.248,293.172,309.705,273.043,309.177,212.536z M258.812,63.876C272.772,46.939,282.195,23.441,279.625,0
		c-20.108,0.819-44.482,13.395-58.91,30.293c-12.945,14.991-24.277,38.917-21.24,61.889
		C221.923,93.934,244.838,80.774,258.812,63.876z"/>
</g>
<rect x="5.5" y="102.5" fill="#020202" width="389" height="188"/>
</svg>
