<svg id="Icons" xmlns="http://www.w3.org/2000/svg" viewBox="0 0 45 40"><title>29</title><g id="_Group_" data-name=" Group "><path d="M45,12.25H38.68A45.89,45.89,0,0,1,24,9.88,45.73,45.73,0,0,0,9.37,7.5H3a.89.89,0,0,0-1,.79v26a.94.94,0,0,0,1,.79H9.37A46,46,0,0,1,24,37.46a45.62,45.62,0,0,0,14.65,2.38H45A.93.93,0,0,0,46,39V13A.94.94,0,0,0,45,12.25Z" transform="translate(-1.5 -7)" style="fill:#009fd9;stroke:#45413c;stroke-linecap:round;stroke-linejoin:round"/><path id="_Path_" data-name=" Path " d="M14.13,12.33l1.56,2.76L24,10.38v-.5c-1.2-.41-2.43-.76-3.67-1.07Z" transform="translate(-1.5 -7)" style="fill:#fff"/><path id="_Path_2" data-name=" Path 2" d="M21.5,9.11,14.5,13l.75,1.32,8.23-4.65C22.86,9.5,22.18,9.3,21.5,9.11Z" transform="translate(-1.5 -7)" style="fill:#e04122"/><polygon id="_Path_3" data-name=" Path 3" points="0.5 14.33 2.47 14.33 9.78 9.54 8.14 6.64 0.5 11.53 0.5 14.33" style="fill:#fff"/><polygon id="_Path_4" data-name=" Path 4" points="0.5 14.33 0.71 14.33 8.97 9 8.18 7.61 0.5 12.52 0.5 14.33" style="fill:#e04122"/><path id="_Path_5" data-name=" Path 5" d="M24,21.27l-7.5-6.44-2,2.44,6.44,5.52c1,.28,2.1.58,3.12.92Z" transform="translate(-1.5 -7)" style="fill:#fff"/><path id="_Path_6" data-name=" Path 6" d="M24,22.35l-8.31-7-1,1.17,8.08,6.87,1.2.37Z" transform="translate(-1.5 -7)" style="fill:#e04122"/><path id="_Path_7" data-name=" Path 7" d="M2,9.32l7.08,5L11,11.73,5,7.5H3a.89.89,0,0,0-1,.79Z" transform="translate(-1.5 -7)" style="fill:#fff"/><path id="_Path_8" data-name=" Path 8" d="M3,7.5a1,1,0,0,0-1,.78l7.57,5.4.9-1.26L3.57,7.5Z" transform="translate(-1.5 -7)" style="fill:#e04122"/><path id="_Path_9" data-name=" Path 9" d="M24,14.27a45.52,45.52,0,0,0-8.43-1.95V7.92a47,47,0,0,0-5.17-.4v4.4H2v5H10.4v4.4a47,47,0,0,1,5.17.4v-4.4a44.75,44.75,0,0,1,8.43,2Z" transform="translate(-1.5 -7)" style="fill:#fff"/><path id="_Path_10" data-name=" Path 10" d="M24,15.08A44.44,44.44,0,0,0,14.8,13V7.82c-1.18-.14-2.37-.24-3.57-.28v5.21c-1.23-.05-1.14,0-9.23,0v3.42h9.23v5.21a30.31,30.31,0,0,1,3.57.28V16.45A44.45,44.45,0,0,1,24,18.51Z" transform="translate(-1.5 -7)" style="fill:#e04122"/><path id="_Path_11" data-name=" Path 11" d="M24,9.88h0A45.73,45.73,0,0,0,9.37,7.5H3a.89.89,0,0,0-1,.79v26a.94.94,0,0,0,1,.79H9.37A46,46,0,0,1,24,37.46h0a45.62,45.62,0,0,0,14.65,2.38H45A.93.93,0,0,0,46,39V13a.94.94,0,0,0-1-.79H38.68A45.89,45.89,0,0,1,24,9.88Z" transform="translate(-1.5 -7)" style="fill:none;stroke:#45413c;stroke-linecap:round;stroke-linejoin:round"/><polygon id="_Path_12" data-name=" Path 12" points="13.84 24.56 11.98 26.28 12.17 23.76 9.67 23.38 11.76 21.95 10.5 19.76 12.91 20.5 13.84 18.15 14.77 20.5 17.18 19.76 15.92 21.95 18 23.38 15.51 23.76 15.69 26.28 13.84 24.56" style="fill:#fff"/><polygon id="_Path_13" data-name=" Path 13" points="35.96 26.82 35.04 27.68 35.13 26.42 33.88 26.23 34.92 25.51 34.29 24.42 35.5 24.79 35.96 23.61 36.43 24.79 37.63 24.42 37.01 25.51 38.05 26.23 36.8 26.42 36.89 27.68 35.96 26.82" style="fill:#fff"/><polygon id="_Path_14" data-name=" Path 14" points="39.51 19 38.58 19.85 38.67 18.59 37.42 18.41 38.46 17.69 37.83 16.6 39.04 16.97 39.51 15.79 39.97 16.97 41.18 16.6 40.55 17.69 41.59 18.41 40.34 18.59 40.43 19.85 39.51 19" style="fill:#fff"/><polygon id="_Path_15" data-name=" Path 15" points="30.51 14.71 29.8 15.36 29.87 14.41 28.92 14.26 29.71 13.72 29.23 12.89 30.15 13.17 30.51 12.27 30.86 13.17 31.77 12.89 31.3 13.72 32.09 14.26 31.14 14.41 31.21 15.36 30.51 14.71" style="fill:#fff"/><polygon id="_Path_16" data-name=" Path 16" points="36.82 10.27 36.11 10.92 36.18 9.96 35.23 9.82 36.03 9.28 35.55 8.45 36.47 8.73 36.82 7.84 37.17 8.73 38.09 8.45 37.61 9.28 38.4 9.82 37.45 9.96 37.52 10.92 36.82 10.27" style="fill:#fff"/></g><ellipse cx="22.5" cy="38.5" rx="11.5" ry="1.5" style="fill:#45413c;opacity:0.15000000596046448;isolation:isolate"/></svg>