<svg id="Icons" xmlns="http://www.w3.org/2000/svg" viewBox="0 0 45 40"><title>30</title><g id="_Group_" data-name=" Group "><path d="M45,12.25H38.68A45.89,45.89,0,0,1,24,9.88,45.73,45.73,0,0,0,9.37,7.5H3a.89.89,0,0,0-1,.79v26a.94.94,0,0,0,1,.79H9.37A46,46,0,0,1,24,37.46a45.62,45.62,0,0,0,14.65,2.38H45A.93.93,0,0,0,46,39V13A.94.94,0,0,0,45,12.25Z" transform="translate(-1.5 -7)" style="fill:#46b000;stroke:#45413c;stroke-linecap:round;stroke-linejoin:round"/><path id="_Path_" data-name=" Path " d="M24,34.47s-3.55-2.77-7.59-6.11c-3.7-3.06-8-6.33-8-6.33s3.59-2.5,7.93-5S24,12.87,24,12.87s3.42,2.68,7.58,6l8,6.42s-3.8,2.71-8.05,5.19S24,34.47,24,34.47Z" transform="translate(-1.5 -7)" style="fill:#ffe500;stroke:#45413c;stroke-linecap:round;stroke-linejoin:round"/><ellipse id="_Path_2" data-name=" Path 2" cx="24.03" cy="23.67" rx="5.92" ry="6.99" transform="translate(-6.87 0.14) rotate(-15.22)" style="fill:#009fd9"/><path id="_Path_3" data-name=" Path 3" d="M18.22,21.38A7.86,7.86,0,0,0,18,23.09v.59a21.14,21.14,0,0,1,7.57.77A15.62,15.62,0,0,1,29.7,26.3a7.58,7.58,0,0,0,.3-2.05v0a14.82,14.82,0,0,0-4.4-2A21.33,21.33,0,0,0,18.22,21.38Z" transform="translate(-1.5 -7)" style="fill:#fff"/><ellipse id="_Path_4" data-name=" Path 4" cx="19.82" cy="19.16" rx="0.58" ry="0.54" style="fill:#fff"/><ellipse id="_Path_5" data-name=" Path 5" cx="22.83" cy="21.77" rx="0.44" ry="0.41" style="fill:#fff"/><ellipse id="_Path_6" data-name=" Path 6" cx="22.39" cy="20.11" rx="0.44" ry="0.41" style="fill:#fff"/><ellipse id="_Path_7" data-name=" Path 7" cx="26.14" cy="14.33" rx="0.44" ry="0.41" style="fill:#fff"/><ellipse id="_Path_8" data-name=" Path 8" cx="24.03" cy="23.67" rx="5.92" ry="6.99" transform="translate(-6.87 0.14) rotate(-15.22)" style="fill:none;stroke:#45413c;stroke-linecap:round;stroke-linejoin:round"/></g><ellipse cx="22.5" cy="38.5" rx="11.5" ry="1.5" style="fill:#45413c;opacity:0.15000000596046448;isolation:isolate"/></svg>