<svg id="Icons" xmlns="http://www.w3.org/2000/svg" viewBox="0 0 45 40"><title>31</title><path d="M45,12.25H38.68A45.89,45.89,0,0,1,24,9.88,45.73,45.73,0,0,0,9.37,7.5H3a.89.89,0,0,0-1,.79v26a.94.94,0,0,0,1,.79H9.37A46,46,0,0,1,24,37.46a45.62,45.62,0,0,0,14.65,2.38H45A.93.93,0,0,0,46,39V13A.94.94,0,0,0,45,12.25Z" transform="translate(-1.5 -7)" style="fill:#fff;stroke:#45413c;stroke-linecap:round;stroke-linejoin:round"/><path id="_Path_" data-name=" Path " d="M3,35.09H9.37q2.18,0,4.32.21V7.71Q11.55,7.5,9.37,7.5H3a.89.89,0,0,0-1,.79v26A.94.94,0,0,0,3,35.09Z" transform="translate(-1.5 -7)" style="fill:#e04122;stroke:#45413c;stroke-linecap:round;stroke-linejoin:round"/><path id="_Path_2" data-name=" Path 2" d="M45,12.25H38.68c-1.45,0-2.89-.07-4.32-.2V39.63q2.14.21,4.32.21H45A.93.93,0,0,0,46,39V13A.94.94,0,0,0,45,12.25Z" transform="translate(-1.5 -7)" style="fill:#e04122;stroke:#45413c;stroke-linecap:round;stroke-linejoin:round"/><path id="_Path_3" data-name=" Path 3" d="M19.65,27.08l-.3.77a.5.5,0,0,0,.34.62l.1,0,3.81.26V33.1a.54.54,0,0,0,.42.5.33.33,0,0,0,.41-.34V28.91l3.86,1.24a.35.35,0,0,0,.45-.45l-.29-1L33,26.27a.4.4,0,0,0,0-.66l-1-1,.57-2.1a.5.5,0,0,0-.39-.59H32.1l-2.18,0-.46-1a.44.44,0,0,0-.69-.21L26.49,23l1-5.07a.51.51,0,0,0-.44-.57h-.12l-1.08.21-1.57-2.84c-.17-.31-.58-.37-.73-.12l-1.35,2.3-1-.67a.35.35,0,0,0-.58.33l.75,5.18-2-2.92c-.19-.28-.56-.31-.69-.06l-.46.85L16,18.82a.34.34,0,0,0-.47.42l.57,2.32-1,.56a.42.42,0,0,0-.08.59l.08.08Z" transform="translate(-1.5 -7)" style="fill:#e04122"/><ellipse cx="22.5" cy="38.5" rx="11.5" ry="1.5" style="fill:#45413c;opacity:0.15000000596046448;isolation:isolate"/></svg>