<svg id="Icons" xmlns="http://www.w3.org/2000/svg" viewBox="0 0 45 40"><title>32</title><path d="M45,12.25H38.68A45.89,45.89,0,0,1,24,9.88,45.73,45.73,0,0,0,9.37,7.5H3a.89.89,0,0,0-1,.79v26a.94.94,0,0,0,1,.79H9.37A46,46,0,0,1,24,37.46a45.62,45.62,0,0,0,14.65,2.38H45A.93.93,0,0,0,46,39V13A.94.94,0,0,0,45,12.25Z" transform="translate(-1.5 -7)" style="fill:#ff6242;stroke:#45413c;stroke-linecap:round;stroke-linejoin:round"/><path id="_Path_" data-name=" Path " d="M32.28,22.36a46.36,46.36,0,0,1-5-1V15.72a.5.5,0,0,0-.37-.48c-1-.25-4.59-1.4-5.46-1.64a.51.51,0,0,0-.64.49v5.39a46.73,46.73,0,0,0-4.88-1,.51.51,0,0,0-.57.5v5.46a.49.49,0,0,0,.43.49,46.36,46.36,0,0,1,5,1V30.9a.5.5,0,0,0,.37.48c1,.25,4.59,1.4,5.47,1.64a.5.5,0,0,0,.63-.49V27.86a46.73,46.73,0,0,0,4.88,1,.51.51,0,0,0,.57-.5V22.85A.49.49,0,0,0,32.28,22.36Z" transform="translate(-1.5 -7)" style="fill:#fff;stroke:#45413c;stroke-linecap:round;stroke-linejoin:round"/><ellipse cx="22.5" cy="38.5" rx="11.5" ry="1.5" style="fill:#45413c;opacity:0.15000000596046448;isolation:isolate"/></svg>