<svg id="Icons" xmlns="http://www.w3.org/2000/svg" viewBox="0 0 45 40"><title>33</title><path d="M45,12.25H38.68A45.89,45.89,0,0,1,24,9.88,45.73,45.73,0,0,0,9.37,7.5H3a.89.89,0,0,0-1,.79v26a.94.94,0,0,0,1,.79H9.37A46,46,0,0,1,24,37.46a45.62,45.62,0,0,0,14.65,2.38H45A.93.93,0,0,0,46,39V13A.94.94,0,0,0,45,12.25Z" transform="translate(-1.5 -7)" style="fill:#ff6242;stroke:#45413c;stroke-linecap:round;stroke-linejoin:round"/><path id="_Path_" data-name=" Path " d="M8.68,10.66,9.33,12a.39.39,0,0,0,.28.2l1.46.21a.36.36,0,0,1,.2.62l-1.06,1a.4.4,0,0,0-.1.33l.25,1.46a.37.37,0,0,1-.53.38l-1.31-.69a.34.34,0,0,0-.34,0l-1.31.69a.37.37,0,0,1-.53-.38l.26-1.46A.38.38,0,0,0,6.49,14L5.43,13a.36.36,0,0,1,.2-.62l1.47-.21a.35.35,0,0,0,.27-.2L8,10.66a.36.36,0,0,1,.68,0Z" transform="translate(-1.5 -7)" style="fill:#ffe500"/><path id="_Path_2" data-name=" Path 2" d="M16.29,9.89l.27.56a.2.2,0,0,0,.12.08l.61.09a.15.15,0,0,1,.08.26l-.44.43a.17.17,0,0,0,0,.13l.1.62a.15.15,0,0,1-.13.17l-.09,0-.55-.28a.12.12,0,0,0-.14,0l-.54.28a.14.14,0,0,1-.22-.15l.1-.62a.17.17,0,0,0,0-.13L15,10.88a.15.15,0,0,1,.09-.26l.61-.09a.15.15,0,0,0,.11-.08L16,9.89a.15.15,0,0,1,.29,0Z" transform="translate(-1.5 -7)" style="fill:#ffe500"/><path id="_Path_3" data-name=" Path 3" d="M13.35,20l.27.56a.2.2,0,0,0,.12.08l.61.09a.15.15,0,0,1,.08.26l-.44.43a.15.15,0,0,0,0,.13l.1.61a.15.15,0,0,1-.22.16L13.28,22a.17.17,0,0,0-.14,0l-.54.29a.15.15,0,0,1-.22-.16l.1-.61a.15.15,0,0,0,0-.13L12,20.94a.15.15,0,0,1,.09-.26l.61-.09a.15.15,0,0,0,.11-.08l.28-.56a.15.15,0,0,1,.26,0Z" transform="translate(-1.5 -7)" style="fill:#ffe500"/><path id="_Path_4" data-name=" Path 4" d="M16.29,17.28l.27.55a.14.14,0,0,0,.12.08l.61.09a.15.15,0,0,1,.08.26l-.44.43a.18.18,0,0,0,0,.14l.1.61a.15.15,0,0,1-.22.16l-.55-.29a.17.17,0,0,0-.14,0l-.54.29a.15.15,0,0,1-.22-.16l.1-.61a.18.18,0,0,0,0-.14L15,18.26A.15.15,0,0,1,15,18l.61-.09a.12.12,0,0,0,.11-.08l.28-.55a.15.15,0,0,1,.29,0Z" transform="translate(-1.5 -7)" style="fill:#ffe500"/><path id="_Path_5" data-name=" Path 5" d="M17.88,13.44l.28.56a.13.13,0,0,0,.11.08l.61.09a.15.15,0,0,1,.09.26l-.45.43a.18.18,0,0,0,0,.14l.1.61a.15.15,0,0,1-.22.16l-.54-.29a.12.12,0,0,0-.14,0l-.55.29a.16.16,0,0,1-.22-.16L17,15a.18.18,0,0,0,0-.14l-.44-.43a.15.15,0,0,1,.08-.26l.61-.09a.16.16,0,0,0,.12-.08l.27-.56a.15.15,0,0,1,.21,0Z" transform="translate(-1.5 -7)" style="fill:#ffe500"/><ellipse cx="22.5" cy="38.5" rx="11.5" ry="1.5" style="fill:#45413c;opacity:0.15000000596046448;isolation:isolate"/></svg>