<svg id="Icons" xmlns="http://www.w3.org/2000/svg" viewBox="0 0 45.02 40"><title>34</title><path d="M45,12.25H38.68A45.89,45.89,0,0,1,24,9.88,45.73,45.73,0,0,0,9.37,7.5H3a.89.89,0,0,0-1,.79v26a.94.94,0,0,0,1,.79H9.37A46,46,0,0,1,24,37.46a45.62,45.62,0,0,0,14.65,2.38H45A.93.93,0,0,0,46,39V13A.94.94,0,0,0,45,12.25Z" transform="translate(-1.5 -7)" style="fill:#ffe500;stroke:#45413c;stroke-linecap:round;stroke-linejoin:round"/><path id="_Path_" data-name=" Path " d="M2,26.16H9.37A46,46,0,0,1,24,28.53h0a45.62,45.62,0,0,0,14.65,2.38H46V21.18H38.68A45.89,45.89,0,0,1,24,18.81h0A45.73,45.73,0,0,0,9.37,16.43H2Z" transform="translate(-1.5 -7)" style="fill:#ff6242;stroke:#45413c;stroke-linecap:round;stroke-linejoin:round"/><path d="M45,12.25H38.68A45.89,45.89,0,0,1,24,9.88,45.73,45.73,0,0,0,9.37,7.5H3a.89.89,0,0,0-1,.79v8.14H9.37A45.73,45.73,0,0,1,24,18.81a45.89,45.89,0,0,0,14.65,2.37H46V13A.94.94,0,0,0,45,12.25Z" transform="translate(-1.5 -7)" style="fill:#656769;stroke:#45413c;stroke-linecap:round;stroke-linejoin:round"/><ellipse cx="22.5" cy="38.5" rx="11.5" ry="1.5" style="fill:#45413c;opacity:0.15000000596046448;isolation:isolate"/></svg>