<svg id="Icons" xmlns="http://www.w3.org/2000/svg" viewBox="0 0 45.02 40"><title>35</title><g id="_Group_" data-name=" Group "><path d="M45,12.25H38.68A45.89,45.89,0,0,1,24,9.88,45.73,45.73,0,0,0,9.37,7.5H3a.89.89,0,0,0-1,.79v26a.94.94,0,0,0,1,.79H9.37A46,46,0,0,1,24,37.46a45.62,45.62,0,0,0,14.65,2.38H45A.93.93,0,0,0,46,39V13A.94.94,0,0,0,45,12.25Z" transform="translate(-1.5 -7)" style="fill:#fff;stroke:#45413c;stroke-linecap:round;stroke-linejoin:round"/><path d="M45,12.25H38.68A45.89,45.89,0,0,1,24,9.88,45.73,45.73,0,0,0,9.37,7.5H3a.89.89,0,0,0-1,.79v7.79H9.37A45.72,45.72,0,0,1,24,18.45a45.62,45.62,0,0,0,14.65,2.38H46V13A.94.94,0,0,0,45,12.25Z" transform="translate(-1.5 -7)" style="fill:#e04122;stroke:#45413c;stroke-linecap:round;stroke-linejoin:round"/><path d="M38.68,31A45.89,45.89,0,0,1,24,28.67,45.73,45.73,0,0,0,9.37,26.29H2v8a.94.94,0,0,0,1,.79H9.37A46,46,0,0,1,24,37.46a45.62,45.62,0,0,0,14.65,2.38H45A.93.93,0,0,0,46,39V31Z" transform="translate(-1.5 -7)" style="fill:#656769;stroke:#45413c;stroke-linecap:round;stroke-linejoin:round"/><path d="M24.67,22.47l-1.28-.27a.12.12,0,0,0-.15.12v.79a1.33,1.33,0,0,0,.68,1.11.39.39,0,0,0,.21,0,.77.77,0,0,0,.68-.81v-.8A.19.19,0,0,0,24.67,22.47Z" transform="translate(-1.5 -7)" style="fill:#ffaa54"/><path d="M26.76,21.85a.51.51,0,0,0-.53-.47,5.54,5.54,0,0,1-1.29,0c-.13-.68-.35-1.55-.69-1.73-1.16-.62-1.16.25-1.16.25s.3-.25.27.5a1.53,1.53,0,0,1-.18.62,8.67,8.67,0,0,1-1.36-.62.32.32,0,0,0-.52.23L21.08,25a.19.19,0,0,0,.2.18h0l1.42-.63-.24,1.22L22,25.58a.41.41,0,0,0-.59.26.63.63,0,0,0,.39.67,12.31,12.31,0,0,0,2.22.68,10.74,10.74,0,0,0,2.21.26.39.39,0,0,0,.39-.5.65.65,0,0,0-.59-.52h-.48l-.23-1.31,1.41,1.22a.14.14,0,0,0,.23-.08Zm-1.54,1.71a1.19,1.19,0,0,1-1,1.23.51.51,0,0,1-.31-.07,2,2,0,0,1-1-1.67V21.84a.17.17,0,0,1,.16-.18h.06l2,.41a.3.3,0,0,1,.22.27Z" transform="translate(-1.5 -7)" style="fill:#ffaa54"/></g><ellipse cx="22.5" cy="38.5" rx="11.5" ry="1.5" style="fill:#45413c;opacity:0.15000000596046448;isolation:isolate"/></svg>