<svg id="Icons" xmlns="http://www.w3.org/2000/svg" viewBox="0 0 45.05 40"><title>36</title><g id="_Group_" data-name=" Group "><path d="M45,12.25H38.68A45.89,45.89,0,0,1,24,9.88,45.73,45.73,0,0,0,9.37,7.5H3a.89.89,0,0,0-1,.79v26a.94.94,0,0,0,1,.79H9.37A46,46,0,0,1,24,37.46a45.62,45.62,0,0,0,14.65,2.38H45A.93.93,0,0,0,46,39V13A.94.94,0,0,0,45,12.25Z" transform="translate(-1.5 -7)" style="fill:#ffe500;stroke:#45413c;stroke-linecap:round;stroke-linejoin:round"/><path id="_Path_" data-name=" Path " d="M13,26.35c.89.07,1.77.16,2.65.28a1.8,1.8,0,0,0,2-1.79V20.45a47.67,47.67,0,0,0-6.34-.71v4.81A1.8,1.8,0,0,0,13,26.35Z" transform="translate(-1.5 -7)" style="fill:#fff;stroke:#45413c;stroke-linecap:round;stroke-linejoin:round"/><path id="_Path_2" data-name=" Path 2" d="M46,33.33H38.68A45.61,45.61,0,0,1,24,31,45.73,45.73,0,0,0,9.37,28.58H2V34.3a.94.94,0,0,0,1,.79H9.37A46,46,0,0,1,24,37.46a45.62,45.62,0,0,0,14.65,2.38H45A.93.93,0,0,0,46,39Z" transform="translate(-1.5 -7)" style="fill:#e04122;stroke:#45413c;stroke-linecap:round;stroke-linejoin:round"/><path id="_Path_3" data-name=" Path 3" d="M46,13a.94.94,0,0,0-1-.79H38.68A45.89,45.89,0,0,1,24,9.88,45.73,45.73,0,0,0,9.37,7.5H3a.89.89,0,0,0-1,.79V14H9.37A46,46,0,0,1,24,16.38a45.62,45.62,0,0,0,14.65,2.38H46Z" transform="translate(-1.5 -7)" style="fill:#e04122;stroke:#45413c;stroke-linecap:round;stroke-linejoin:round"/><rect id="_Rectangle_" data-name=" Rectangle " x="6.75" y="12.68" width="1.51" height="5.96" style="fill:#fff;stroke:#45413c;stroke-linecap:round;stroke-linejoin:round"/><polygon id="_Path_4" data-name=" Path 4" points="19.27 20.04 17.77 19.65 17.77 13.69 19.27 14.08 19.27 20.04" style="fill:#fff;stroke:#45413c;stroke-linecap:round;stroke-linejoin:round"/><path id="_Path_5" data-name=" Path 5" d="M15.63,26.63a1.8,1.8,0,0,0,2-1.79V23.51c-1-.18-2.07-.33-3.11-.45V26.5Z" transform="translate(-1.5 -7)" style="fill:#e04122;stroke:#45413c;stroke-linecap:round;stroke-linejoin:round"/><path id="_Path_6" data-name=" Path 6" d="M14.57,20c-1.07-.12-2.15-.2-3.23-.25v3a29.08,29.08,0,0,1,3.23.25Z" transform="translate(-1.5 -7)" style="fill:#e04122;stroke:#45413c;stroke-linecap:round;stroke-linejoin:round"/><path id="_Path_7" data-name=" Path 7" d="M13.05,18.3a23.86,23.86,0,0,1,3.18.39s1.31-.43.85-1.36c-.67-1.33-2.49-.55-2.49-.55s-1.41-1.09-2.28-.26S13.05,18.3,13.05,18.3Z" transform="translate(-1.5 -7)" style="fill:#e04122;stroke:#45413c;stroke-linecap:round;stroke-linejoin:round"/><path id="_Path_8" data-name=" Path 8" d="M17.68,22.78a3.44,3.44,0,0,1,3.09.4v2a3.44,3.44,0,0,0-3.09-.4Z" transform="translate(-1.5 -7)" style="fill:#e04122;stroke:#45413c;stroke-linecap:round;stroke-linejoin:round"/><path id="_Path_9" data-name=" Path 9" d="M8.25,21.74a3.44,3.44,0,0,1,3.09.4v2a3.44,3.44,0,0,0-3.09-.4Z" transform="translate(-1.5 -7)" style="fill:#e04122;stroke:#45413c;stroke-linecap:round;stroke-linejoin:round"/></g><ellipse cx="22.5" cy="38.5" rx="11.5" ry="1.5" style="fill:#45413c;opacity:0.15000000596046448;isolation:isolate"/></svg>