<svg id="Icons" xmlns="http://www.w3.org/2000/svg" viewBox="0 0 45 40"><title>37</title><path d="M45,12.25H38.68A45.89,45.89,0,0,1,24,9.88,45.73,45.73,0,0,0,9.37,7.5H3a.89.89,0,0,0-1,.79v26a.94.94,0,0,0,1,.79H9.37A46,46,0,0,1,24,37.46a45.62,45.62,0,0,0,14.65,2.38H45A.93.93,0,0,0,46,39V13A.94.94,0,0,0,45,12.25Z" transform="translate(-1.5 -7)" style="fill:#ff6242;stroke:#45413c;stroke-linecap:round;stroke-linejoin:round"/><path d="M24,9.88A43.57,43.57,0,0,0,16.28,8V35.61A44.44,44.44,0,0,1,24,37.46a43.26,43.26,0,0,0,7.74,1.86V11.73A44.11,44.11,0,0,1,24,9.88Z" transform="translate(-1.5 -7)" style="fill:#fff;stroke:#45413c;stroke-miterlimit:10"/><path d="M9.37,7.5H3a.89.89,0,0,0-1,.79v26a.94.94,0,0,0,1,.79H9.37a46.66,46.66,0,0,1,6.91.52V8A46.66,46.66,0,0,0,9.37,7.5Z" transform="translate(-1.5 -7)" style="fill:#009fd9;stroke:#45413c;stroke-miterlimit:10"/><ellipse cx="22.5" cy="38.5" rx="11.5" ry="1.5" style="fill:#45413c;opacity:0.15000000596046448;isolation:isolate"/></svg>