<svg id="Icons" xmlns="http://www.w3.org/2000/svg" viewBox="0 0 45.05 40"><title>39</title><g id="_Group_" data-name=" Group "><path d="M45,12.25H38.68A45.89,45.89,0,0,1,24,9.88,45.73,45.73,0,0,0,9.37,7.5H3a.89.89,0,0,0-1,.79v26a.94.94,0,0,0,1,.79H9.37A46,46,0,0,1,24,37.46a45.62,45.62,0,0,0,14.65,2.38H45A.93.93,0,0,0,46,39V13A.94.94,0,0,0,45,12.25Z" transform="translate(-1.5 -7)" style="fill:#fff;stroke:#45413c;stroke-linecap:round;stroke-linejoin:round"/><path d="M38.68,32.79A45.62,45.62,0,0,1,24,30.41,46,46,0,0,0,9.37,28H2v3.49H9.37A46,46,0,0,1,24,33.9a45.62,45.62,0,0,0,14.65,2.38H46V32.79Z" transform="translate(-1.5 -7)" style="fill:#009fd9;stroke:#45413c;stroke-linecap:round;stroke-linejoin:round"/><path id="_Path_" data-name=" Path " d="M9.93,7.52H3a.89.89,0,0,0-1,.79v6.06H9.93Z" transform="translate(-1.5 -7)" style="fill:#009fd9;stroke:#45413c;stroke-linecap:round;stroke-linejoin:round"/><path id="_Path_2" data-name=" Path 2" d="M9.93,17.85H2V24.7H9.93Z" transform="translate(-1.5 -7)" style="fill:#009fd9;stroke:#45413c;stroke-linecap:round;stroke-linejoin:round"/><path id="_Path_3" data-name=" Path 3" d="M38.68,19.1A45.62,45.62,0,0,1,24,16.72c-.79-.26-1.59-.5-2.39-.72v3.49c.8.22,1.6.45,2.39.72a45.62,45.62,0,0,0,14.65,2.38H46V19.1Z" transform="translate(-1.5 -7)" style="fill:#009fd9;stroke:#45413c;stroke-linecap:round;stroke-linejoin:round"/><path d="M45,12.25H38.68A45.89,45.89,0,0,1,24,9.88,45,45,0,0,0,13.71,7.7v6.87A46.36,46.36,0,0,1,21.64,16V12.64c.8.22,1.6.46,2.39.72a45.62,45.62,0,0,0,14.65,2.38H46V13A.94.94,0,0,0,45,12.25Z" transform="translate(-1.5 -7)" style="fill:#009fd9;stroke:#45413c;stroke-linecap:round;stroke-linejoin:round"/><path id="_Path_4" data-name=" Path 4" d="M24,27.06a45.89,45.89,0,0,0,14.65,2.37H46V25.94H38.68A45.89,45.89,0,0,1,24,23.57c-.79-.27-1.59-.5-2.39-.73V19.49a45.41,45.41,0,0,0-7.93-1.43v6.85A44.93,44.93,0,0,1,24,27.06Z" transform="translate(-1.5 -7)" style="fill:#009fd9;stroke:#45413c;stroke-linecap:round;stroke-linejoin:round"/></g><ellipse cx="22.5" cy="38.5" rx="11.5" ry="1.5" style="fill:#45413c;opacity:0.15000000596046448;isolation:isolate"/></svg>