<svg id="Icons" xmlns="http://www.w3.org/2000/svg" viewBox="0 0 45.05 40"><title>40</title><g id="_Group_" data-name=" Group "><path d="M45,12.25H38.68A45.89,45.89,0,0,1,24,9.88,45.73,45.73,0,0,0,9.37,7.5H3a.89.89,0,0,0-1,.79v26a.94.94,0,0,0,1,.79H9.37A46,46,0,0,1,24,37.46a45.62,45.62,0,0,0,14.65,2.38H45A.93.93,0,0,0,46,39V13A.94.94,0,0,0,45,12.25Z" transform="translate(-1.5 -7)" style="fill:#fff;stroke:#45413c;stroke-linecap:round;stroke-linejoin:round"/><path id="_Path_" data-name=" Path " d="M2,15.21H9.37A45.73,45.73,0,0,1,24,17.59,45.62,45.62,0,0,0,38.68,20H46V13a.94.94,0,0,0-1-.79H38.68A45.89,45.89,0,0,1,24,9.88,45.73,45.73,0,0,0,9.37,7.5H3a.89.89,0,0,0-1,.79Z" transform="translate(-1.5 -7)" style="fill:#ff8a14;stroke:#45413c;stroke-linecap:round;stroke-linejoin:round"/><path id="_Path_2" data-name=" Path 2" d="M2,34.3a.94.94,0,0,0,1,.79H9.37A46,46,0,0,1,24,37.46a45.62,45.62,0,0,0,14.65,2.38H45A.89.89,0,0,0,46,39V32.13H38.68A45.62,45.62,0,0,1,24,29.75,45.72,45.72,0,0,0,9.37,27.38H2Z" transform="translate(-1.5 -7)" style="fill:#46b000;stroke:#45413c;stroke-linecap:round;stroke-linejoin:round"/><ellipse id="_Path_3" data-name=" Path 3" cx="24.03" cy="23.66" rx="4.26" ry="4.77" transform="translate(-9.17 5.15) rotate(-24.59)" style="fill:none;stroke:#009fd9;stroke-linecap:round;stroke-linejoin:round"/><ellipse id="_Path_4" data-name=" Path 4" cx="24.03" cy="23.66" rx="2.08" ry="2.33" transform="translate(-9.17 5.15) rotate(-24.59)" style="fill:#009fd9"/><line id="_Path_5" data-name=" Path 5" x1="22.53" y1="12" x2="22.53" y2="21.34" style="fill:none;stroke:#009fd9;stroke-linecap:round;stroke-linejoin:round"/><line id="_Path_6" data-name=" Path 6" x1="18.17" y1="16.28" x2="26.88" y2="17.06" style="fill:none;stroke:#009fd9;stroke-linecap:round;stroke-linejoin:round"/><line id="_Path_7" data-name=" Path 7" x1="25.5" y1="13.53" x2="19.59" y2="19.84" style="fill:none;stroke:#009fd9;stroke-linecap:round;stroke-linejoin:round"/><line id="_Path_8" data-name=" Path 8" x1="19.42" y1="13.11" x2="25.5" y2="20.12" style="fill:none;stroke:#009fd9;stroke-linecap:round;stroke-linejoin:round"/></g><ellipse cx="22.5" cy="38.5" rx="11.5" ry="1.5" style="fill:#45413c;opacity:0.15000000596046448;isolation:isolate"/></svg>