<svg id="Icons" xmlns="http://www.w3.org/2000/svg" viewBox="0 0 45.02 40"><title>41</title><g id="_Group_" data-name=" Group "><path d="M45,12.25H38.68A45.89,45.89,0,0,1,24,9.88,45.73,45.73,0,0,0,9.37,7.5H3a.89.89,0,0,0-1,.79v26a.94.94,0,0,0,1,.79H9.37A46,46,0,0,1,24,37.46a45.62,45.62,0,0,0,14.65,2.38H45A.93.93,0,0,0,46,39V13A.94.94,0,0,0,45,12.25Z" transform="translate(-1.5 -7)" style="fill:#fff;stroke:#45413c;stroke-linecap:round;stroke-linejoin:round"/><path id="_Path_" data-name=" Path " d="M2,16.52H9.37A46,46,0,0,1,24,18.89h0a45.62,45.62,0,0,0,14.65,2.38H46V13a.94.94,0,0,0-1-.79H38.68A45.89,45.89,0,0,1,24,9.88h0A45.73,45.73,0,0,0,9.37,7.5H3a.89.89,0,0,0-1,.79Z" transform="translate(-1.5 -7)" style="fill:#e04122;stroke:#45413c;stroke-linecap:round;stroke-linejoin:round"/><path id="_Path_2" data-name=" Path 2" d="M2,34.3a.94.94,0,0,0,1,.79H9.37A46,46,0,0,1,24,37.46h0a45.62,45.62,0,0,0,14.65,2.38H45A.93.93,0,0,0,46,39V30.64H38.68A45.89,45.89,0,0,1,24,28.27h0A45.73,45.73,0,0,0,9.37,25.89H2Z" transform="translate(-1.5 -7)" style="fill:#525252;stroke:#45413c;stroke-linecap:round;stroke-linejoin:round"/><path id="_Path_3" data-name=" Path 3" d="M13.75,23.81a23.08,23.08,0,0,1,6.51,1.27V23.3a1.07,1.07,0,0,0-.67-1.16c-.36-.13-.79,0-.79.49v.56a14.67,14.67,0,0,0-2.71-.54l3.23-2.86" transform="translate(-1.5 -7)" style="fill:none;stroke:#46b000;stroke-linecap:round;stroke-linejoin:round"/><path id="_Path_4" data-name=" Path 4" d="M21.89,20.39V25.2a4.73,4.73,0,0,1,1.38.47" transform="translate(-1.5 -7)" style="fill:none;stroke:#46b000;stroke-linecap:round;stroke-linejoin:round"/><line id="_Path_5" data-name=" Path 5" x1="13.3" y1="16.89" x2="13.3" y2="15.7" style="fill:none;stroke:#46b000;stroke-linecap:round;stroke-linejoin:round"/><path id="_Path_6" data-name=" Path 6" d="M28.92,22.31v5.18a15.23,15.23,0,0,1-3.37-1.07c0-1,.75-1.06,1.06-.75v-1" transform="translate(-1.5 -7)" style="fill:none;stroke:#46b000;stroke-linecap:round;stroke-linejoin:round"/><line id="_Path_7" data-name=" Path 7" x1="26.23" y1="16.59" x2="26.23" y2="20.18" style="fill:none;stroke:#46b000;stroke-linecap:round;stroke-linejoin:round"/><path id="_Path_8" data-name=" Path 8" d="M30.47,22.6v5.22a6.31,6.31,0,0,0,1.63.34" transform="translate(-1.5 -7)" style="fill:none;stroke:#46b000;stroke-linecap:round;stroke-linejoin:round"/><line id="_Path_9" data-name=" Path 9" x1="24.49" y1="15.31" x2="24.49" y2="14.51" style="fill:none;stroke:#46b000;stroke-linecap:round;stroke-linejoin:round"/></g><ellipse cx="22.5" cy="38.5" rx="11.5" ry="1.5" style="fill:#45413c;opacity:0.15000000596046448;isolation:isolate"/></svg>