<svg id="Icons" xmlns="http://www.w3.org/2000/svg" viewBox="0 0 45.02 40"><title>42</title><g id="_Group_" data-name=" Group "><path d="M45,12.25H38.68A45.89,45.89,0,0,1,24,9.88,45.73,45.73,0,0,0,9.37,7.5H3a.89.89,0,0,0-1,.79v26a.94.94,0,0,0,1,.79H9.37A46,46,0,0,1,24,37.46a45.62,45.62,0,0,0,14.65,2.38H45A.93.93,0,0,0,46,39V13A.94.94,0,0,0,45,12.25Z" transform="translate(-1.5 -7)" style="fill:#fff"/><path id="_Path_" data-name=" Path " d="M45,12.25H38.68A45.89,45.89,0,0,1,24,9.88,45.73,45.73,0,0,0,9.37,7.5H3a.89.89,0,0,0-1,.79v6.17H9.37A45.73,45.73,0,0,1,24,16.84a45.62,45.62,0,0,0,14.65,2.38H46V13A.94.94,0,0,0,45,12.25Z" transform="translate(-1.5 -7)" style="fill:#46b000"/><path id="_Path_2" data-name=" Path 2" d="M24,30.5A45.72,45.72,0,0,0,9.37,28.13H2V34.3a.94.94,0,0,0,1,.79H9.37A46,46,0,0,1,24,37.46a45.62,45.62,0,0,0,14.65,2.38H45A.93.93,0,0,0,46,39V32.88H38.68A45.62,45.62,0,0,1,24,30.5Z" transform="translate(-1.5 -7)" style="fill:#e04122"/><path id="_Path_3" data-name=" Path 3" d="M2,15.93H9.37A45.73,45.73,0,0,1,24,18.31a45.61,45.61,0,0,0,14.65,2.37H46" transform="translate(-1.5 -7)" style="fill:none;stroke:#46b000;stroke-linecap:round;stroke-linejoin:round"/><path id="_Path_4" data-name=" Path 4" d="M2,26.76H9.37A45.73,45.73,0,0,1,24,29.14a45.89,45.89,0,0,0,14.65,2.37H46" transform="translate(-1.5 -7)" style="fill:none;stroke:#e04122;stroke-linecap:round;stroke-linejoin:round"/><path d="M45,12.25H38.68A45.89,45.89,0,0,1,24,9.88,45.73,45.73,0,0,0,9.37,7.5H3a.89.89,0,0,0-1,.79v26a.94.94,0,0,0,1,.79H9.37A46,46,0,0,1,24,37.46a45.62,45.62,0,0,0,14.65,2.38H45A.93.93,0,0,0,46,39V13A.94.94,0,0,0,45,12.25Z" transform="translate(-1.5 -7)" style="fill:none;stroke:#45413c;stroke-linecap:round;stroke-linejoin:round"/><g id="_Group_2" data-name=" Group 2"><path id="_Path_5" data-name=" Path 5" d="M22.47,26.36a2.58,2.58,0,0,0,3.32-1.52q0-.12.07-.24a3.17,3.17,0,0,0-.37-2.6" transform="translate(-1.5 -7)" style="fill:none;stroke:#e04122;stroke-linecap:round;stroke-linejoin:round"/><path id="_Path_6" data-name=" Path 6" d="M25.46,26.94a4,4,0,0,1-3.38-3.07,2.67,2.67,0,0,1,.36-2.48" transform="translate(-1.5 -7)" style="fill:none;stroke:#e04122;stroke-linecap:round;stroke-linejoin:round"/><line id="_Path_7" data-name=" Path 7" x1="22.46" y1="14.11" x2="22.46" y2="19.87" style="fill:none;stroke:#e04122;stroke-linecap:round;stroke-linejoin:round"/><path id="_Path_8" data-name=" Path 8" d="M26.42,21.35s2.31,1.59.61,5" transform="translate(-1.5 -7)" style="fill:none;stroke:#e04122;stroke-linecap:round;stroke-linejoin:round"/><path id="_Path_9" data-name=" Path 9" d="M21.5,20.4s-2.31.68-.61,4.75" transform="translate(-1.5 -7)" style="fill:none;stroke:#e04122;stroke-linecap:round;stroke-linejoin:round"/><path id="_Path_10" data-name=" Path 10" d="M23,20.47a5.63,5.63,0,0,0,.94.27,5,5,0,0,0,.94.1" transform="translate(-1.5 -7)" style="fill:none;stroke:#e04122;stroke-linecap:round;stroke-linejoin:round"/></g></g><ellipse cx="22.5" cy="38.5" rx="11.5" ry="1.5" style="fill:#45413c;opacity:0.15000000596046448;isolation:isolate"/></svg>