<svg id="Icons" xmlns="http://www.w3.org/2000/svg" viewBox="0 0 45.05 40"><title>45</title><g id="_Group_" data-name=" Group "><path d="M45,12.25c-6.89,0-12.94.36-21-2.37A45.73,45.73,0,0,0,9.37,7.5H3a.89.89,0,0,0-1,.79v26a.94.94,0,0,0,1,.79H9.37A46,46,0,0,1,24,37.46c7.92,2.69,13.76,2.38,21,2.38A.93.93,0,0,0,46,39V13A.94.94,0,0,0,45,12.25Z" transform="translate(-1.5 -7)" style="fill:#fff;stroke:#45413c;stroke-linecap:round;stroke-linejoin:round"/><path d="M38.68,19.36A45.62,45.62,0,0,1,24,17,45.72,45.72,0,0,0,9.37,14.61H2V28H9.37A45.73,45.73,0,0,1,24,30.36a45.62,45.62,0,0,0,14.65,2.38H46V19.36Z" transform="translate(-1.5 -7)" style="fill:#e04122;stroke:#45413c;stroke-linecap:round;stroke-linejoin:round"/><path id="_Path_" data-name=" Path " d="M45,12.25H38.68A45.89,45.89,0,0,1,24,9.88,45.73,45.73,0,0,0,9.37,7.5H3a.89.89,0,0,0-1,.79v4H9.37A45.73,45.73,0,0,1,24,14.62,45.89,45.89,0,0,0,38.68,17H46V13A.94.94,0,0,0,45,12.25Z" transform="translate(-1.5 -7)" style="fill:#009fd9;stroke:#45413c;stroke-linecap:round;stroke-linejoin:round"/><path d="M38.68,35.1A45.62,45.62,0,0,1,24,32.72,46,46,0,0,0,9.37,30.35H2V34.3a.94.94,0,0,0,1,.79H9.37A46,46,0,0,1,24,37.46a45.48,45.48,0,0,0,14.65,2.38H45A.93.93,0,0,0,46,39v-4Z" transform="translate(-1.5 -7)" style="fill:#009fd9;stroke:#45413c;stroke-linecap:round;stroke-linejoin:round"/><ellipse id="_Path_2" data-name=" Path 2" cx="15.18" cy="21.96" rx="4.61" ry="5.08" transform="translate(-10.31 3.23) rotate(-29.29)" style="fill:#fff"/><path id="_Path_3" data-name=" Path 3" d="M15.59,18.24,16.43,20a.55.55,0,0,0,.35.3l1.88.5a.49.49,0,0,1,.26.82l-1.36,1.16a.42.42,0,0,0-.13.4l.32,1.91a.42.42,0,0,1-.68.41l-1.68-1.09A.47.47,0,0,0,15,24.4l-1.68.68a.52.52,0,0,1-.67-.57L13,22.68a.54.54,0,0,0-.14-.43l-1.36-1.49a.44.44,0,0,1,.26-.77h1.88a.39.39,0,0,0,.35-.21l.84-1.6a.47.47,0,0,1,.79.06Z" transform="translate(-1.5 -7)" style="fill:#e04122"/></g><ellipse cx="22.5" cy="38.5" rx="11.5" ry="1.5" style="fill:#45413c;opacity:0.15000000596046448;isolation:isolate"/></svg>