<svg id="Icons" xmlns="http://www.w3.org/2000/svg" viewBox="0 0 45 40"><title>46</title><g id="_Group_" data-name=" Group "><path d="M45,12.25H38.68A45.89,45.89,0,0,1,24,9.88,45.73,45.73,0,0,0,9.37,7.5H3a.89.89,0,0,0-1,.79v26a.94.94,0,0,0,1,.79H9.37A46,46,0,0,1,24,37.46a45.62,45.62,0,0,0,14.65,2.38H45A.93.93,0,0,0,46,39V13A.94.94,0,0,0,45,12.25Z" transform="translate(-1.5 -7)" style="fill:#fff;stroke:#45413c;stroke-linecap:round;stroke-linejoin:round"/><ellipse id="_Path_" data-name=" Path " cx="23.5" cy="23.67" rx="7.92" ry="9.6" transform="translate(-6.19 -1.16) rotate(-12.88)" style="fill:#ff6242;stroke:#45413c;stroke-linecap:round;stroke-linejoin:round"/><path id="_Path_2" data-name=" Path 2" d="M31.4,26a5,5,0,0,0-3.11-3.2c-3.74-1.19-5.23,4.64-9.37,3.38a5.23,5.23,0,0,1-3.41-3.11c.09,5.16,3.63,9.65,8,10.09C27.49,33.55,30.78,30.44,31.4,26Z" transform="translate(-1.5 -7)" style="fill:#009fd9;stroke:#45413c;stroke-linecap:round;stroke-linejoin:round"/><line id="_Path_3" data-name=" Path 3" x1="7.31" y1="7.86" x2="10.93" y2="2.95" style="fill:none;stroke:#45413c;stroke-linejoin:round"/><line id="_Path_4" data-name=" Path 4" x1="8.67" y1="8.87" x2="12.3" y2="3.96" style="fill:none;stroke:#45413c;stroke-linejoin:round"/><line id="_Path_5" data-name=" Path 5" x1="10.04" y1="9.88" x2="13.67" y2="4.97" style="fill:none;stroke:#45413c;stroke-linejoin:round"/><line id="_Path_6" data-name=" Path 6" x1="10.17" y1="18.8" x2="12.34" y2="24.5" style="fill:none;stroke:#45413c;stroke-linejoin:round"/><line id="_Path_7" data-name=" Path 7" x1="8.58" y1="19.4" x2="9.47" y2="21.74" style="fill:none;stroke:#45413c;stroke-linejoin:round"/><line id="_Path_8" data-name=" Path 8" x1="9.87" y1="22.77" x2="10.75" y2="25.11" style="fill:none;stroke:#45413c;stroke-linejoin:round"/><line id="_Path_9" data-name=" Path 9" x1="7" y1="20.01" x2="9.17" y2="25.71" style="fill:none;stroke:#45413c;stroke-linejoin:round"/><line id="_Path_10" data-name=" Path 10" x1="35.46" y1="7.47" x2="36.33" y2="9.91" style="fill:none;stroke:#45413c;stroke-linejoin:round"/><line id="_Path_11" data-name=" Path 11" x1="36.63" y1="10.77" x2="37.51" y2="13.22" style="fill:none;stroke:#45413c;stroke-linejoin:round"/><line id="_Path_12" data-name=" Path 12" x1="33.86" y1="8.04" x2="35.91" y2="13.79" style="fill:none;stroke:#45413c;stroke-linejoin:round"/><line id="_Path_13" data-name=" Path 13" x1="32.26" y1="8.61" x2="33.13" y2="11.05" style="fill:none;stroke:#45413c;stroke-linejoin:round"/><line id="_Path_14" data-name=" Path 14" x1="33.44" y1="11.92" x2="34.31" y2="14.36" style="fill:none;stroke:#45413c;stroke-linejoin:round"/><line id="_Path_15" data-name=" Path 15" x1="30.02" y1="27.12" x2="31.66" y2="25.12" style="fill:none;stroke:#45413c;stroke-linejoin:round"/><line id="_Path_16" data-name=" Path 16" x1="32.25" y1="24.41" x2="33.89" y2="22.4" style="fill:none;stroke:#45413c;stroke-linejoin:round"/><line id="_Path_17" data-name=" Path 17" x1="31.33" y1="28.2" x2="32.98" y2="26.19" style="fill:none;stroke:#45413c;stroke-linejoin:round"/><line id="_Path_18" data-name=" Path 18" x1="32.64" y1="29.28" x2="34.29" y2="27.27" style="fill:none;stroke:#45413c;stroke-linejoin:round"/><line id="_Path_19" data-name=" Path 19" x1="33.56" y1="25.49" x2="35.2" y2="23.48" style="fill:none;stroke:#45413c;stroke-linejoin:round"/><line id="_Path_20" data-name=" Path 20" x1="34.87" y1="26.56" x2="36.52" y2="24.56" style="fill:none;stroke:#45413c;stroke-linejoin:round"/></g><ellipse cx="22.5" cy="38.5" rx="11.5" ry="1.5" style="fill:#45413c;opacity:0.15000000596046448;isolation:isolate"/></svg>