<svg id="Icons" xmlns="http://www.w3.org/2000/svg" viewBox="0 0 45 40"><title>47</title><g id="_Group_" data-name=" Group "><path d="M45,12.25H38.68A45.89,45.89,0,0,1,24,9.88,45.73,45.73,0,0,0,9.37,7.5H3a.89.89,0,0,0-1,.79v26a.94.94,0,0,0,1,.79H9.37A46,46,0,0,1,24,37.46a45.62,45.62,0,0,0,14.65,2.38H45A.93.93,0,0,0,46,39V13A.94.94,0,0,0,45,12.25Z" transform="translate(-1.5 -7)" style="fill:#ff6242;stroke:#45413c;stroke-linecap:round;stroke-linejoin:round"/><path id="_Path_" data-name=" Path " d="M16.28,35.61A44.44,44.44,0,0,1,24,37.46a43.26,43.26,0,0,0,7.74,1.86V11.73A44.11,44.11,0,0,1,24,9.88,43.57,43.57,0,0,0,16.28,8Z" transform="translate(-1.5 -7)" style="fill:#fff;stroke:#45413c;stroke-miterlimit:10"/><path id="_Path_2" data-name=" Path 2" d="M16.28,8a46.66,46.66,0,0,0-6.91-.5H3a.89.89,0,0,0-1,.79v26a.94.94,0,0,0,1,.79H9.37a46.66,46.66,0,0,1,6.91.52Z" transform="translate(-1.5 -7)" style="fill:#46b000;stroke:#45413c;stroke-miterlimit:10"/><g id="_Group_2" data-name=" Group 2"><path id="_Path_3" data-name=" Path 3" d="M23.79,27.13c-1-.16-1.4-.09-1.62-.55s-.33-.67-.47-.56.14.34,0,.42-1.22-.82-1.38-.61.84.67.79.86-.49.17-.38.34,1.29.06,1.32.35-.67.22-.47.45.79,0,1.27.34a2,2,0,0,0,1.54.36c.48-.13.62-.49,1-.45s.47-.13.3-.27-.15-.19.16-.26.51-.23.2-.26A18.15,18.15,0,0,1,23.79,27.13Z" transform="translate(-1.5 -7)" style="fill:#00dfeb"/><path id="_Path_4" data-name=" Path 4" d="M24,21.42a.87.87,0,0,0,.69-1c0-.86-.85-1.14-.88-1.69s1.15-.45,2.27.56a5.73,5.73,0,0,1,2.1,4.32c-.07,1.77-.4,2-.4,2a3.11,3.11,0,0,0-1.16-1.79,13.8,13.8,0,0,1-1.79-1.53Z" transform="translate(-1.5 -7)" style="fill:#915e3a"/><path id="_Path_5" data-name=" Path 5" d="M25.16,23.5s1,1,1.41,1.36.71.5.69.59a1.62,1.62,0,0,1-1.33.27c-.61-.17-1.46-1.72-1.46-1.72Z" transform="translate(-1.5 -7)" style="fill:#bf8256"/><path id="_Path_6" data-name=" Path 6" d="M24.52,28.42l-1.44-.16a.52.52,0,0,1-.42-.52v-.43a.39.39,0,0,1,.36-.42h.06l1.44.17a.52.52,0,0,1,.43.52V28a.39.39,0,0,1-.36.42Z" transform="translate(-1.5 -7)" style="fill:#ffaa54"/><path id="_Path_7" data-name=" Path 7" d="M23.94,27.39V26.5a1,1,0,0,1-1,0c-.65-.25-.67-.47-.67-.47a1.06,1.06,0,0,1-.86-.1c-.57-.25-.47-.58-.47-.58a.78.78,0,0,1-.84-.47c-.25-.57-.19-1,.2-.88s.8.86.8.86a.81.81,0,0,1,.71.08,2,2,0,0,1,.56.59s0-.28.66-.17a2.2,2.2,0,0,1,1.16.74s.11-.38.85-.23.59.56.59.56.26-.33.53-.3.77.28.67.67-1.07.22-1.07.22a1.41,1.41,0,0,0-.82-.2c-.51,0-.48.69-.48.69Z" transform="translate(-1.5 -7)" style="fill:#00ad85"/><path id="_Path_8" data-name=" Path 8" d="M20.62,19.6a.55.55,0,0,1,.69-.35h0c.24.09.17.25.1.52a.65.65,0,0,1-.41.37S20.5,20.21,20.62,19.6Z" transform="translate(-1.5 -7)" style="fill:#6dd627"/><path id="_Path_9" data-name=" Path 9" d="M21.43,24.5a1,1,0,0,1-.49-.18,2.06,2.06,0,0,1-.69-2.14c0-.36-.41-.55-.41-.56a.26.26,0,0,1-.16-.32.2.2,0,0,1,.24-.15h0a1.15,1.15,0,0,1,.74,1.15,1.59,1.59,0,0,0,.45,1.59.68.68,0,0,0,.83-.07.45.45,0,0,0,.14-.47c-.07-.18-.23-.25-.5-.34a.86.86,0,0,1-.72-.88.93.93,0,0,1,.59-.84c.21-.13.27-.17.26-.28a.39.39,0,0,0,0-.1,1,1,0,0,0-.26,0,1.39,1.39,0,0,1-.56-.07.62.62,0,0,1-.36-.36,1,1,0,0,1,.1-.75.21.21,0,0,1,.29-.08l0,0a.29.29,0,0,1,.09.35.52.52,0,0,0-.07.32,1,1,0,0,0,.43.07.74.74,0,0,1,.61.16.66.66,0,0,1,.18.45.72.72,0,0,1-.47.73c-.22.13-.36.22-.38.47s0,.2.37.32a1.2,1.2,0,0,1,.82.67.92.92,0,0,1-.25,1A1.09,1.09,0,0,1,21.43,24.5Z" transform="translate(-1.5 -7)" style="fill:#6dd627"/><path id="_Path_10" data-name=" Path 10" d="M23.69,29a2.29,2.29,0,0,1-1.28-.51c-.37-.44-1.12-.06-1.12-.06s0,.65,1,.84A1.47,1.47,0,0,0,23.69,29Z" transform="translate(-1.5 -7)" style="fill:#46b000"/><path id="_Path_11" data-name=" Path 11" d="M21.6,28.37a2.74,2.74,0,0,1-.91-1.16c-.12-.56-1-.71-1-.71s-.28.54.53,1.28S21.6,28.37,21.6,28.37Z" transform="translate(-1.5 -7)" style="fill:#46b000"/><path id="_Path_12" data-name=" Path 12" d="M20.12,27.1a2.84,2.84,0,0,1-.51-1.39c.07-.55-.72-1-.72-1s-.44.37.1,1.35S20.12,27.1,20.12,27.1Z" transform="translate(-1.5 -7)" style="fill:#46b000"/><path id="_Path_13" data-name=" Path 13" d="M19,25.28a2.52,2.52,0,0,1,0-1.43c.27-.45-.31-1.22-.31-1.22s-.56.12-.41,1.21A2,2,0,0,0,19,25.28Z" transform="translate(-1.5 -7)" style="fill:#46b000"/><path id="_Path_14" data-name=" Path 14" d="M24,29a1.6,1.6,0,0,1,.87.1c.45.18.27-.31.65-.47a.9.9,0,0,1,.74,0,1.14,1.14,0,0,0,.06.56.64.64,0,0,1-1,.6C24.57,29.45,24.5,29,24,29Z" transform="translate(-1.5 -7)" style="fill:#46b000"/><path id="_Path_15" data-name=" Path 15" d="M26.09,29.12a1.47,1.47,0,0,1,.69-.49c.43-.13,0-.44.23-.84a.91.91,0,0,1,.56-.47,1.2,1.2,0,0,0,.35.46.73.73,0,0,1-.4,1.16C26.8,29.14,26.5,28.78,26.09,29.12Z" transform="translate(-1.5 -7)" style="fill:#46b000"/><path id="_Path_16" data-name=" Path 16" d="M27.66,27.88a1.63,1.63,0,0,1,.52-.71c.36-.26-.1-.44,0-.89a1,1,0,0,1,.39-.65A1.13,1.13,0,0,0,29,26a.8.8,0,0,1,0,1.29C28.33,27.67,28,27.42,27.66,27.88Z" transform="translate(-1.5 -7)" style="fill:#46b000"/><path id="_Path_17" data-name=" Path 17" d="M28.6,26.27a1.83,1.83,0,0,1,.27-.87c.25-.39-.22-.41-.28-.88a1.06,1.06,0,0,1,.18-.77,1,1,0,0,0,.5.17.84.84,0,0,1,.32,1.28C29.15,25.83,28.73,25.71,28.6,26.27Z" transform="translate(-1.5 -7)" style="fill:#46b000"/><polygon id="_Path_18" data-name=" Path 18" points="22.74 23.03 22.19 22.97 22.19 21.72 22.74 21.78 22.74 23.03" style="fill:#fff"/><polygon id="_Path_19" data-name=" Path 19" points="22.19 22.97 21.64 22.91 21.64 21.66 22.19 21.72 22.19 22.97" style="fill:#46b000"/><polygon id="_Path_20" data-name=" Path 20" points="23.28 23.1 22.74 23.03 22.74 21.78 23.28 21.84 23.28 23.1" style="fill:#e04122"/><path id="_Path_21" data-name=" Path 21" d="M23.3,24.07a.92.92,0,0,1-.83-.55c-.21-.55-.8-.54-.9-.27s-.38.71.33,1.07,1.33.53,1.8.21S23.3,24.07,23.3,24.07Z" transform="translate(-1.5 -7)" style="fill:#ffe500"/><path id="_Path_22" data-name=" Path 22" d="M24.64,25.3a.57.57,0,0,1-.54.36c-.38,0-.36.25-.17.43s.52-.11,1,0a1.35,1.35,0,0,1,.67.31.52.52,0,0,0-.17-.66A.8.8,0,0,1,25,25.2Z" transform="translate(-1.5 -7)" style="fill:#ffe500"/><path id="_Path_23" data-name=" Path 23" d="M21.67,20.93s-.65-.44.15-1.33a1.15,1.15,0,0,1,1.92,0c.33.44.12,1.3.66,2A3.59,3.59,0,0,1,25.18,24a3.69,3.69,0,0,1-.27,1.39,5.19,5.19,0,0,1-2-2c-.5-1.18-.64-1.63-.33-2.38S21.74,20.43,21.67,20.93Z" transform="translate(-1.5 -7)" style="fill:#bf8256"/></g></g><ellipse cx="22.5" cy="38.5" rx="11.5" ry="1.5" style="fill:#45413c;opacity:0.15000000596046448;isolation:isolate"/></svg>