<svg id="Icons" xmlns="http://www.w3.org/2000/svg" viewBox="0 0 45.02 40"><title>48</title><g id="_Group_" data-name=" Group "><path d="M45,12.25H38.68A45.89,45.89,0,0,1,24,9.88,45.73,45.73,0,0,0,9.37,7.5H3a.89.89,0,0,0-1,.79v26a.94.94,0,0,0,1,.79H9.37A46,46,0,0,1,24,37.46a45.62,45.62,0,0,0,14.65,2.38H45A.93.93,0,0,0,46,39V13A.94.94,0,0,0,45,12.25Z" transform="translate(-1.5 -7)" style="fill:#fff;stroke:#45413c;stroke-linecap:round;stroke-linejoin:round"/><path id="_Path_" data-name=" Path " d="M2,31.53H9.37A46,46,0,0,1,24,33.9h0a45.62,45.62,0,0,0,14.65,2.38H46V32.79H38.68A45.62,45.62,0,0,1,24,30.41h0A46,46,0,0,0,9.37,28H2Z" transform="translate(-1.5 -7)" style="fill:#ff6242;stroke:#45413c;stroke-linecap:round;stroke-linejoin:round"/><path id="_Path_2" data-name=" Path 2" d="M2,24.68H9.37A45.73,45.73,0,0,1,24,27.06h0a45.89,45.89,0,0,0,14.65,2.37H46V25.94H38.68A45.89,45.89,0,0,1,24,23.57h0A45.73,45.73,0,0,0,9.37,21.19H2Z" transform="translate(-1.5 -7)" style="fill:#ff6242;stroke:#45413c;stroke-linecap:round;stroke-linejoin:round"/><path id="_Path_3" data-name=" Path 3" d="M2,17.83H9.37A45.73,45.73,0,0,1,24,20.21h0a45.62,45.62,0,0,0,14.65,2.38H46V19.1H38.68A45.62,45.62,0,0,1,24,16.72h0A46,46,0,0,0,9.37,14.35H2Z" transform="translate(-1.5 -7)" style="fill:#ff6242;stroke:#45413c;stroke-linecap:round;stroke-linejoin:round"/><path id="_Path_4" data-name=" Path 4" d="M45,12.25H38.68a46.53,46.53,0,0,1-7.49-.6A44.59,44.59,0,0,1,24,9.88a44.57,44.57,0,0,0-9-2A45.91,45.91,0,0,0,9.37,7.5H3a.89.89,0,0,0-1,.79V11H9.37A46,46,0,0,1,24,13.36a45.62,45.62,0,0,0,14.65,2.38H46V13A.94.94,0,0,0,45,12.25Z" transform="translate(-1.5 -7)" style="fill:#ff6242;stroke:#45413c;stroke-linecap:round;stroke-linejoin:round"/><path id="_Path_5" data-name=" Path 5" d="M2,21.76H9.37a46.44,46.44,0,0,1,12.27,1.65V9.15A46.44,46.44,0,0,0,9.37,7.5H3a.89.89,0,0,0-1,.79Z" transform="translate(-1.5 -7)" style="fill:#009fd9;stroke:#45413c;stroke-linecap:round;stroke-linejoin:round"/><path id="_Path_6" data-name=" Path 6" d="M11,19.06a4.34,4.34,0,0,1,0-8.68,4.41,4.41,0,0,1,1.74.37,5.08,5.08,0,0,0-3.2-1.17,5.14,5.14,0,0,0,0,10.28,5.08,5.08,0,0,0,3.22-1.17A4.41,4.41,0,0,1,11,19.06Z" transform="translate(-1.5 -7)" style="fill:#ffe500"/><polygon id="_Path_7" data-name=" Path 7" points="15.66 7.89 17.64 9.24 15.25 9.18 16.05 11.43 14.15 9.97 13.47 12.27 12.8 9.97 10.9 11.43 11.7 9.18 9.31 9.24 11.28 7.89 9.31 6.53 11.7 6.6 10.9 4.34 12.8 5.8 13.47 3.51 14.15 5.8 16.05 4.34 15.25 6.6 17.64 6.53 15.66 7.89" style="fill:#ffe500"/></g><ellipse cx="22.5" cy="38.5" rx="11.5" ry="1.5" style="fill:#45413c;opacity:0.15000000596046448;isolation:isolate"/></svg>