<svg id="Icons" xmlns="http://www.w3.org/2000/svg" viewBox="0 0 45 40"><title>49</title><g id="_Group_" data-name=" Group "><path d="M45,12.25H38.68A45.89,45.89,0,0,1,24,9.88,45.73,45.73,0,0,0,9.37,7.5H3a.89.89,0,0,0-1,.79v26a.94.94,0,0,0,1,.79H9.37A46,46,0,0,1,24,37.46a45.62,45.62,0,0,0,14.65,2.38H45A.93.93,0,0,0,46,39V13A.94.94,0,0,0,45,12.25Z" transform="translate(-1.5 -7)" style="fill:#fff;stroke:#45413c;stroke-linecap:round;stroke-linejoin:round"/><path d="M4.94,8.89A14.87,14.87,0,0,0,2.39,7.67.74.74,0,0,0,2,8.29v26a.94.94,0,0,0,1,.79H9.37a45.62,45.62,0,0,1,14.08,2.19C23.4,37.2,15,25.74,10.78,22.14c3.91.46,11.75,1.53,11.75,1.53A94.62,94.62,0,0,0,4.94,8.89Z" transform="translate(-1.5 -7)" style="fill:#e04122"/><path d="M3.5,9.79c.2.11.42.23.65.38A89.17,89.17,0,0,1,18.41,21.6c-2.48-.33-5.48-.72-7.46-1h-.18a1.5,1.5,0,0,0-1,2.64c2.48,2.13,6.8,7.47,9.82,11.41a47.68,47.68,0,0,0-10.25-1.1H3.5V9.79M2.39,7.67A.74.74,0,0,0,2,8.29v26a.94.94,0,0,0,1,.79H9.37a45.62,45.62,0,0,1,14.08,2.19C23.4,37.2,15,25.74,10.78,22.14c3.91.46,11.75,1.53,11.75,1.53A94.62,94.62,0,0,0,4.94,8.89,14.87,14.87,0,0,0,2.39,7.67Z" transform="translate(-1.5 -7)" style="fill:#009fd9"/><path d="M4.94,8.89A14.87,14.87,0,0,0,2.39,7.67.74.74,0,0,0,2,8.29v26a.94.94,0,0,0,1,.79H9.37a45.62,45.62,0,0,1,14.08,2.19C23.4,37.2,15,25.74,10.78,22.14c3.91.46,11.75,1.53,11.75,1.53A94.62,94.62,0,0,0,4.94,8.89Z" transform="translate(-1.5 -7)" style="fill:none;stroke:#45413c;stroke-linecap:round;stroke-linejoin:round"/><path id="_Path_" data-name=" Path " d="M7.87,19.38a3.2,3.2,0,0,1-3.13-2.56,3.2,3.2,0,1,0,6.25,0A3.18,3.18,0,0,1,7.87,19.38Z" transform="translate(-1.5 -7)" style="fill:#fff"/><polygon id="_Path_2" data-name=" Path 2" points="6.37 9.91 6.81 9.32 6.98 10.04 7.62 9.68 7.48 10.41 8.22 10.34 7.79 10.94 8.49 11.18 7.86 11.56 8.4 12.07 7.66 12.15 7.96 12.83 7.25 12.61 7.24 13.36 6.68 12.87 6.37 13.54 6.06 12.87 5.5 13.36 5.49 12.61 4.78 12.83 5.08 12.15 4.34 12.07 4.88 11.56 4.25 11.18 4.95 10.94 4.52 10.34 5.26 10.41 5.12 9.68 5.76 10.04 5.93 9.32 6.37 9.91" style="fill:#fff"/><polygon id="_Path_3" data-name=" Path 3" points="6.98 19.8 7.85 18.7 7.98 20.1 9.31 19.64 8.66 20.88 10.03 21.21 8.81 21.91 9.78 22.92 8.38 22.86 8.64 24.23 7.5 23.42 6.98 24.72 6.46 23.42 5.32 24.23 5.59 22.86 4.19 22.92 5.16 21.91 3.94 21.21 5.31 20.88 4.66 19.64 5.99 20.1 6.12 18.7 6.98 19.8" style="fill:#fff"/></g><ellipse cx="22.5" cy="38.5" rx="11.5" ry="1.5" style="fill:#45413c;opacity:0.15000000596046448;isolation:isolate"/></svg>