<svg id="Icons" xmlns="http://www.w3.org/2000/svg" viewBox="0 0 45.02 40.5"><title>52</title><g id="_Group_" data-name=" Group "><path d="M45,11.75H38.68A45.89,45.89,0,0,1,24,9.38,45.73,45.73,0,0,0,9.37,7H3a.89.89,0,0,0-1,.79v26a.94.94,0,0,0,1,.79H9.37A46,46,0,0,1,24,37a45.62,45.62,0,0,0,14.65,2.38H45a.93.93,0,0,0,1-.79v-26A.94.94,0,0,0,45,11.75Z" transform="translate(-1.5 -6.5)" style="fill:#e04122;stroke:#45413c;stroke-linecap:round;stroke-linejoin:round"/><path d="M38.68,20.68A45.89,45.89,0,0,1,24,18.31,45.73,45.73,0,0,0,9.37,15.93H2v9.73H9.37A46,46,0,0,1,24,28a45.62,45.62,0,0,0,14.65,2.38H46v-9.7Z" transform="translate(-1.5 -6.5)" style="fill:#009fd9;stroke:#45413c;stroke-linecap:round;stroke-linejoin:round"/><path id="_Path_" data-name=" Path " d="M45,11.75H38.68A45.89,45.89,0,0,1,24,9.38,45.73,45.73,0,0,0,9.37,7H3a.89.89,0,0,0-1,.79v8.14H9.37A45.73,45.73,0,0,1,24,18.31a45.89,45.89,0,0,0,14.65,2.37H46V12.54A.94.94,0,0,0,45,11.75Z" transform="translate(-1.5 -6.5)" style="fill:#fff;stroke:#45413c;stroke-linecap:round;stroke-linejoin:round"/></g><ellipse cx="22.5" cy="39" rx="11.5" ry="1.5" style="fill:#45413c;opacity:0.15000000596046448;isolation:isolate"/></svg>