<svg id="Icons" xmlns="http://www.w3.org/2000/svg" viewBox="0 0 45 40.5"><title>53</title><g id="_Group_" data-name=" Group "><path d="M45,11.75H38.68A45.89,45.89,0,0,1,24,9.38,45.73,45.73,0,0,0,9.37,7H3a.89.89,0,0,0-1,.79v26a.94.94,0,0,0,1,.79H9.37A46,46,0,0,1,24,37a45.62,45.62,0,0,0,14.65,2.38H45a.93.93,0,0,0,1-.79v-26A.94.94,0,0,0,45,11.75Z" transform="translate(-1.5 -6.5)" style="fill:#ff6242;stroke:#45413c;stroke-linecap:round;stroke-linejoin:round"/><path d="M38.68,25.49A45.89,45.89,0,0,1,24,23.12,45.73,45.73,0,0,0,9.37,20.74H2V33.8a.94.94,0,0,0,1,.79H9.37A46,46,0,0,1,24,37a45.62,45.62,0,0,0,14.65,2.38H45a.93.93,0,0,0,1-.79V25.49Z" transform="translate(-1.5 -6.5)" style="fill:#fff;stroke:#45413c;stroke-linecap:round;stroke-linejoin:round"/><path id="_Path_" data-name=" Path " d="M8.46,13.82a4.31,4.31,0,0,1,3.27-4.17,4.71,4.71,0,1,0-2.2,8.88,4.8,4.8,0,0,0,2.2-.54A4.31,4.31,0,0,1,8.46,13.82Z" transform="translate(-1.5 -6.5)" style="fill:#fff"/><path id="_Path_2" data-name=" Path 2" d="M17,9.85l.27.56a.15.15,0,0,0,.11.08l.62.09a.15.15,0,0,1,.08.26l-.44.43a.19.19,0,0,0,0,.14l.11.61a.15.15,0,0,1-.22.16L17,11.89a.17.17,0,0,0-.14,0l-.55.29A.18.18,0,1,1,16,12l.11-.61a.16.16,0,0,0,0-.14l-.44-.43a.15.15,0,0,1,.08-.26l.62-.09a.13.13,0,0,0,.11-.08l.27-.56a.16.16,0,0,1,.23,0Z" transform="translate(-1.5 -6.5)" style="fill:#fff"/><path id="_Path_3" data-name=" Path 3" d="M14.48,16.28l.28.55a.12.12,0,0,0,.11.08l.61.09a.15.15,0,0,1,.09.26l-.45.43a.18.18,0,0,0,0,.14l.11.61a.15.15,0,0,1-.22.16l-.55-.29a.17.17,0,0,0-.14,0l-.55.29a.15.15,0,0,1-.22-.16l.1-.61a.15.15,0,0,0,0-.14l-.44-.43a.15.15,0,0,1,.08-.26l.61-.09a.14.14,0,0,0,.12-.08l.27-.55A.15.15,0,0,1,14.48,16.28Z" transform="translate(-1.5 -6.5)" style="fill:#fff"/><path id="_Path_4" data-name=" Path 4" d="M18.69,17l.27.56a.16.16,0,0,0,.12.08l.61.09a.15.15,0,0,1,.08.26l-.44.43a.18.18,0,0,0,0,.14l.1.61a.16.16,0,0,1-.15.17h-.07L18.62,19a.12.12,0,0,0-.14,0l-.54.29a.15.15,0,0,1-.22-.16l.1-.61a.18.18,0,0,0,0-.14L17.33,18a.15.15,0,0,1,.09-.26l.61-.09a.13.13,0,0,0,.11-.08l.28-.56a.15.15,0,0,1,.27,0Z" transform="translate(-1.5 -6.5)" style="fill:#fff"/><path id="_Path_5" data-name=" Path 5" d="M20.16,13.27l.28.56a.15.15,0,0,0,.11.08l.62.09a.15.15,0,0,1,.08.26l-.44.43a.13.13,0,0,0,0,.13l.11.61a.15.15,0,0,1-.22.16l-.55-.28a.12.12,0,0,0-.14,0l-.55.28a.15.15,0,0,1-.22-.16l.11-.61a.15.15,0,0,0,0-.13l-.44-.43a.15.15,0,0,1,.08-.26l.61-.09a.17.17,0,0,0,.12-.08l.27-.56a.15.15,0,0,1,.21,0Z" transform="translate(-1.5 -6.5)" style="fill:#fff"/><path id="_Path_6" data-name=" Path 6" d="M13.42,12.52l.28.55a.14.14,0,0,0,.11.09l.62.09a.15.15,0,0,1,.08.25l-.44.44a.13.13,0,0,0-.05.13l.11.61a.15.15,0,0,1-.22.16l-.55-.29a.17.17,0,0,0-.14,0l-.55.29a.15.15,0,0,1-.22-.16l.1-.61a.12.12,0,0,0,0-.13l-.44-.44a.15.15,0,0,1,0-.21l.07,0,.61-.09a.16.16,0,0,0,.12-.09l.27-.55a.15.15,0,0,1,.21,0Z" transform="translate(-1.5 -6.5)" style="fill:#fff"/></g><ellipse cx="22.5" cy="39" rx="11.5" ry="1.5" style="fill:#45413c;opacity:0.15000000596046448;isolation:isolate"/></svg>