<svg id="Icons" xmlns="http://www.w3.org/2000/svg" viewBox="0 0 45.05 40.5"><title>55</title><g id="_Group_" data-name=" Group "><path d="M45,11.75H38.68A45.89,45.89,0,0,1,24,9.38,45.73,45.73,0,0,0,9.37,7H3a.89.89,0,0,0-1,.79v26a.94.94,0,0,0,1,.79H9.37A46,46,0,0,1,24,37a45.62,45.62,0,0,0,14.65,2.38H45a.93.93,0,0,0,1-.79v-26A.94.94,0,0,0,45,11.75Z" transform="translate(-1.5 -6.5)" style="fill:#ff6242;stroke:#45413c;stroke-linecap:round;stroke-linejoin:round"/><path d="M38.68,16A45.89,45.89,0,0,1,24,13.64,45.73,45.73,0,0,0,9.37,11.26H2V30.33H9.37A46,46,0,0,1,24,32.7a45.62,45.62,0,0,0,14.65,2.38H46V16Z" transform="translate(-1.5 -6.5)" style="fill:#fff;stroke:#45413c;stroke-linecap:round;stroke-linejoin:round"/><path d="M38.68,21.19A45.89,45.89,0,0,1,24,18.82,45.73,45.73,0,0,0,9.37,16.44H2v8.71H9.37A46,46,0,0,1,24,27.52,45.62,45.62,0,0,0,38.68,29.9H46V21.19Z" transform="translate(-1.5 -6.5)" style="fill:#009fd9;stroke:#45413c;stroke-linecap:round;stroke-linejoin:round"/></g><ellipse cx="22.5" cy="39" rx="11.5" ry="1.5" style="fill:#45413c;opacity:0.15000000596046448;isolation:isolate"/></svg>