<svg id="Icons" xmlns="http://www.w3.org/2000/svg" viewBox="0 0 48 40.51"><title>57</title><g id="_Group_" data-name=" Group "><path id="_Path_" data-name=" Path " d="M24,9.53h0A48.85,48.85,0,0,0,8.37,7H1.61A1,1,0,0,0,.5,7.84V35.59a1,1,0,0,0,1.11.85H8.37A48.85,48.85,0,0,1,24,39h0a48.85,48.85,0,0,0,15.63,2.5h6.76c.61,0,1.11-.37,1.11-.84V12.91a1,1,0,0,0-1.11-.84H39.63A48.58,48.58,0,0,1,24,9.53Z" transform="translate(0 -6.49)" style="fill:#fff;stroke:#45413c;stroke-linecap:round;stroke-linejoin:round"/><path id="_Path_2" data-name=" Path 2" d="M47.5,16.29H39.63A48.85,48.85,0,0,1,24,13.76h0A48.85,48.85,0,0,0,8.37,11.22H.5V7.84A1,1,0,0,1,1.61,7H8.37A48.85,48.85,0,0,1,24,9.53h0a48.58,48.58,0,0,0,15.63,2.54h6.76a1,1,0,0,1,1.11.84Z" transform="translate(0 -6.49)" style="fill:#ff6242;stroke:#45413c;stroke-linecap:round;stroke-linejoin:round"/><path id="_Path_3" data-name=" Path 3" d="M47.5,20.52H39.63A48.85,48.85,0,0,1,24,18h0A48.85,48.85,0,0,0,8.37,15.45H.5v4.22H8.37A48.85,48.85,0,0,1,24,22.21h0a48.85,48.85,0,0,0,15.63,2.53H47.5Z" transform="translate(0 -6.49)" style="fill:#ff6242;stroke:#45413c;stroke-linecap:round;stroke-linejoin:round"/><path id="_Path_4" data-name=" Path 4" d="M47.5,28.83H39.63A48.85,48.85,0,0,1,24,26.3h0A48.85,48.85,0,0,0,8.37,23.76H.5V28H8.37A48.85,48.85,0,0,1,24,30.52h0a48.85,48.85,0,0,0,15.63,2.54H47.5Z" transform="translate(0 -6.49)" style="fill:#ff6242;stroke:#45413c;stroke-linecap:round;stroke-linejoin:round"/><path id="_Path_5" data-name=" Path 5" d="M46.39,41.5c.61,0,1.11-.37,1.11-.84V37.28H39.63A48.85,48.85,0,0,1,24,34.75h0A48.58,48.58,0,0,0,8.37,32.21H.5v3.38a1,1,0,0,0,1.11.85H8.37A48.85,48.85,0,0,1,24,39h0a48.85,48.85,0,0,0,15.63,2.5Z" transform="translate(0 -6.49)" style="fill:#ff6242;stroke:#45413c;stroke-linecap:round;stroke-linejoin:round"/><path id="_Path_6" data-name=" Path 6" d="M19.3,8.22A49.69,49.69,0,0,0,8.37,7H1.61A1,1,0,0,0,.5,7.84V19.67H8.37A49.69,49.69,0,0,1,19.3,20.89Z" transform="translate(0 -6.49)" style="fill:#00b8f0;stroke:#45413c;stroke-linecap:round;stroke-linejoin:round"/><path id="_Path_7" data-name=" Path 7" d="M4.72,9.46l.29.59a.16.16,0,0,0,.12.09l.66.1a.16.16,0,0,1,.09.27L5.4,11a.2.2,0,0,0,0,.15l.11.65a.17.17,0,0,1-.15.18H5.27l-.58-.31a.19.19,0,0,0-.15,0L4,12a.16.16,0,0,1-.23-.17l.11-.65a.17.17,0,0,0,0-.15l-.47-.46a.16.16,0,0,1,.09-.27l.65-.1a.18.18,0,0,0,.13-.09l.29-.59A.16.16,0,0,1,4.72,9.46Z" transform="translate(0 -6.49)" style="fill:#fff"/><path id="_Path_8" data-name=" Path 8" d="M9.52,9.46l.29.59a.18.18,0,0,0,.12.09l.66.1a.16.16,0,0,1,.09.27L10.2,11a.2.2,0,0,0,0,.15l.11.65a.16.16,0,0,1-.23.17l-.59-.31a.19.19,0,0,0-.15,0L8.75,12a.16.16,0,0,1-.23-.17l.11-.65a.2.2,0,0,0,0-.15l-.48-.46a.16.16,0,0,1,.09-.27l.66-.1A.18.18,0,0,0,9,10.08l.29-.59A.16.16,0,0,1,9.52,9.46Z" transform="translate(0 -6.49)" style="fill:#fff"/><path id="_Path_9" data-name=" Path 9" d="M14.29,10.45l.29.59a.16.16,0,0,0,.12.09l.65.09a.16.16,0,0,1,.09.28L15,12a.16.16,0,0,0-.05.14l.12.66a.17.17,0,0,1-.15.18h-.09l-.58-.31a.14.14,0,0,0-.15,0l-.59.31a.16.16,0,0,1-.23-.17l.11-.66a.16.16,0,0,0,0-.14l-.47-.46a.16.16,0,0,1,.09-.28l.65-.09a.16.16,0,0,0,0-.17l.3-.59a.16.16,0,0,1,.29,0Z" transform="translate(0 -6.49)" style="fill:#fff"/><path id="_Path_10" data-name=" Path 10" d="M4.72,14.19l.29.59a.16.16,0,0,0,.12.09l.66.09a.17.17,0,0,1,.09.28l-.48.46a.18.18,0,0,0,0,.14l.11.65a.16.16,0,0,1-.24.17l-.58-.3a.14.14,0,0,0-.15,0l-.59.3a.16.16,0,0,1-.23-.17l.11-.65a.16.16,0,0,0,0-.14l-.47-.46a.17.17,0,0,1,0-.24L4,14.87a.18.18,0,0,0,.13-.09l.29-.59a.16.16,0,0,1,.3,0Z" transform="translate(0 -6.49)" style="fill:#fff"/><path id="_Path_11" data-name=" Path 11" d="M9.52,14.19l.29.59a.18.18,0,0,0,.12.09l.66.09a.17.17,0,0,1,.09.28l-.48.46a.18.18,0,0,0,0,.14l.11.65a.16.16,0,0,1-.23.17l-.59-.3a.14.14,0,0,0-.15,0l-.59.3a.16.16,0,0,1-.23-.17l.11-.65a.18.18,0,0,0,0-.14l-.48-.46a.17.17,0,0,1,0-.24l.66-.09a.18.18,0,0,0,.12-.09l.29-.59a.16.16,0,0,1,.29,0Z" transform="translate(0 -6.49)" style="fill:#fff"/><path id="_Path_12" data-name=" Path 12" d="M14.29,15.17l.29.6a.15.15,0,0,0,.12.08l.65.1a.15.15,0,0,1,.09.27l-.47.47a.15.15,0,0,0-.05.14l.12.65a.17.17,0,0,1-.15.18H14.8l-.58-.31a.19.19,0,0,0-.15,0l-.59.31a.16.16,0,0,1-.23-.17l.11-.65a.15.15,0,0,0,0-.14l-.47-.47A.15.15,0,0,1,13,16l.65-.1a.15.15,0,0,0,.12-.08l.3-.6a.16.16,0,0,1,.23,0Z" transform="translate(0 -6.49)" style="fill:#fff"/></g><ellipse cx="22.5" cy="39.01" rx="11.5" ry="1.5" style="fill:#45413c;opacity:0.15000000596046448;isolation:isolate"/></svg>