<svg id="Calque_1" xmlns="http://www.w3.org/2000/svg" viewBox="0 0 145.98 532.91"><defs><style>.cls-1{fill:#ccc;opacity:0.5;}</style></defs><title>aile54x240cmVersoD</title><path class="cls-1" d="M407.8,14.11l0,495.63L553.31,547l0.47-350.76c0-22-2.65-43.56-9.11-63.62S527.8,89.54,515.7,74c-11.07-14.23-25.2-28.63-41-38.22-18.27-11.11-35.39-19.33-53-20.9l-6.33-.76H407.8Zm8.5,8.67,4.59,0.55H421a80.2,80.2,0,0,1,23.7,6.25A189.35,189.35,0,0,1,470.32,43c16.51,10,30.14,25.22,38.67,36.18,10.21,13.12,20.52,34.07,27.59,56a175.44,175.44,0,0,1,6.65,29.63,230.48,230.48,0,0,1,2.05,31.38l-0.46,339.82L416.34,503.14Z" transform="translate(-407.8 -14.11)"/></svg>
