<svg id="Calque_1" data-name="Calque 1" xmlns="http://www.w3.org/2000/svg" viewBox="0 0 145.98 532.91"><defs><style>.cls-1{fill:#ccc;opacity:0.5;}</style></defs><title>aile54x240cmDashed</title><path class="cls-1" d="M546.12,14.11l-6.33.76c-17.56,1.56-34.68,9.78-53,20.9-15.77,9.59-29.9,24-41,38.22-12.09,15.54-22.52,38.58-29,58.65s-9.11,41.58-9.11,63.62L408.27,547l145.47-37.28,0-495.63h-7.66Zm-0.89,489L416.76,536.07,416.3,196.25a230.48,230.48,0,0,1,2.05-31.38A175.44,175.44,0,0,1,425,135.25c7.06-22,17.38-42.91,27.59-56,8.53-11,22.16-26.14,38.67-36.18a189.35,189.35,0,0,1,25.59-13.44,80.2,80.2,0,0,1,23.7-6.25h0.13l4.59-.55Z" transform="translate(-407.8 -14.11)"/></svg>
