<svg id="aile1" xmlns="http://www.w3.org/2000/svg" viewBox="0 0 115.35 549.34"><defs><style>.cls-1{fill:#ccc;opacity:0.5;}</style></defs><title>aile85x465cmDashed</title><path class="cls-1" d="M543.35,12.76V529.57L441.46,547.21l-0.4-435.9a88.25,88.25,0,0,1,1.71-17.63A74.74,74.74,0,0,1,445,85.24a70.25,70.25,0,0,1,3.27-8.15A114.92,114.92,0,0,1,458.35,60a99.89,99.89,0,0,1,6.37-8,74.16,74.16,0,0,1,6.9-6.9C479,38.7,490.76,29.85,505.12,24A202.81,202.81,0,0,1,527.44,16a107.18,107.18,0,0,1,15.9-3.28m6.53-7.14-1.61.13c-15.13.91-29.89,5.69-45.63,12.16a131.37,131.37,0,0,0-35.3,22.24c-10.42,9-19.4,22.45-25,34.13s-7.85,24.2-7.85,37L434.93,555l114.94-19.89V5.62Z" transform="translate(-434.53 -5.62)"/></svg>
