<svg id="aile1" xmlns="http://www.w3.org/2000/svg" viewBox="0 0 166.45 548.79"><defs><style>.cls-1{fill:#ccc;opacity:0.5;}</style></defs><title>aile85x308cmVersoD</title><path class="cls-1" d="M408.19,23.14c2,0.18,3.92.69,5.94,1A68.54,68.54,0,0,1,426.5,27a249.5,249.5,0,0,1,31.44,12.14c20.56,9.53,38.87,22.16,49.42,32.48,6.48,6.34,11.5,12.75,17.6,22.38a217.1,217.1,0,0,1,15.29,29.32,124.92,124.92,0,0,1,7.65,26.5A134.75,134.75,0,0,1,550,174.61q0,1.29,0,2.62l-0.56,363-141.7-27.56L408.28,25.5Zm-11-16.88,0,516.59,165.71,32.2,0.7-376a186,186,0,0,0-2.77-31.69,152.44,152.44,0,0,0-8.94-30.44,206.67,206.67,0,0,0-15.59-29.19A154.49,154.49,0,0,0,515.09,61c-11-10.79-29.7-25.7-51.33-35.72a279.42,279.42,0,0,0-33.4-13.14,125.86,125.86,0,0,0-31-5.91H397.2Z" transform="translate(-397.2 -6.26)"/></svg>
