<svg id="aile1" xmlns="http://www.w3.org/2000/svg" viewBox="0 0 166.45 548.79"><defs><style>.cls-1{fill:#ccc;opacity:0.5;}</style></defs><title>aile85x308cmDashed</title><path class="cls-1" d="M552.5,25.5l0.55,487.21-141.7,27.56-0.56-363q0-1.32,0-2.62a134.75,134.75,0,0,1,2.09-24.73,124.92,124.92,0,0,1,7.65-26.5,217.1,217.1,0,0,1,15.29-29.32c6.1-9.63,11.12-16,17.6-22.38C464,61.35,482.28,48.72,502.84,39.19A249.5,249.5,0,0,1,534.28,27a68.54,68.54,0,0,1,12.38-2.93c2-.28,3.89-0.8,5.94-1Zm8.93-19.24a125.86,125.86,0,0,0-31,5.91A279.42,279.42,0,0,0,497,25.31C475.4,35.33,456.73,50.24,445.7,61a154.49,154.49,0,0,0-21.26,26.69,206.67,206.67,0,0,0-15.59,29.19,152.44,152.44,0,0,0-8.94,30.44A186,186,0,0,0,397.14,179l0.7,376,165.71-32.2,0-516.59h-2.16Z" transform="translate(-397.14 -6.26)"/></svg>
