<svg id="aile1" xmlns="http://www.w3.org/2000/svg" viewBox="0 0 115.35 549.34"><defs><style>.cls-1{fill:#ccc;opacity:0.5;}</style></defs><title>aile85x465cmVersoD</title><path class="cls-1" d="M441.16,12.76A107.18,107.18,0,0,1,457.06,16,202.81,202.81,0,0,1,479.39,24c14.36,5.9,26.14,14.75,33.5,21.13a74.16,74.16,0,0,1,6.9,6.9,99.89,99.89,0,0,1,6.37,8A114.92,114.92,0,0,1,536.23,77.1a70.25,70.25,0,0,1,3.27,8.15,74.74,74.74,0,0,1,2.24,8.43,88.25,88.25,0,0,1,1.71,17.63L543,547.21,441.16,529.57V12.76m-6.53,522.31L549.57,555,550,111.31c0-12.83-2.29-25.35-7.85-37s-14.54-25.09-25-34.13a131.37,131.37,0,0,0-35.3-22.24c-15.74-6.47-30.5-11.25-45.63-12.16l-1.61-.13V535.07Z" transform="translate(-434.63 -5.62)"/></svg>
