<svg id="goutte" xmlns="http://www.w3.org/2000/svg" viewBox="0 0 263.48 554.31"><defs><style>.cls-1{fill:#ccc;opacity:0.5;}</style></defs><title>goutte72x203cmDashed</title><path class="cls-1" d="M482.77,10.71c-95.42,33.95-104.19,140.9-109.56,208.35l-0.26,338.09h11L635.16,149l1.14-1.94c3.85-120.47-76.91-163.6-153.52-136.34M598.09,142.48l-0.57,20.17L395.1,481.44l0.23-261.49c1.23-15.48,2.78-34.61,5.71-53.77,3.32-21.67,7.86-40,13.89-56.07a169.76,169.76,0,0,1,11.8-25.25A129,129,0,0,1,442.56,63,112.36,112.36,0,0,1,463.21,45a121.09,121.09,0,0,1,27-13.45A108.94,108.94,0,0,1,526.69,25c10.08,0,15.47,2,26.7,6.54,3.9,1.58,9.22,5.06,14.6,9.56a91.84,91.84,0,0,1,13.54,13.82A83.38,83.38,0,0,1,592,72.42,71.65,71.65,0,0,1,597,90c2.19,13.7,1.72,30,1.08,52.5" transform="translate(-372.94 -2.85)"/></svg>
