<svg id="goutte" xmlns="http://www.w3.org/2000/svg" viewBox="0 0 156.26 502.58"><defs><style>.cls-1{fill:#ccc;opacity:0.5;}</style></defs><title>goutte125x460cmVersoD</title><path class="cls-1" d="M520.83,34.13c-42.13-14-71.83.93-98.24,23.33l11.89,40.67,138.18,433,6.1,0.14,0.08-396.4c-2.09-32.23-5.54-83.35-58-100.75m-52.41,9.14A66,66,0,0,1,478.29,40c6.68-1.61,10.93-1.88,18.42-2.1h1.51c5.73,0.05,12,1.29,19.88,3.89A76.22,76.22,0,0,1,533.81,49a63.77,63.77,0,0,1,11.88,9.33,65,65,0,0,1,8.84,11.09,77.83,77.83,0,0,1,6.37,12.5A119.17,119.17,0,0,1,568,109.16c1.39,9.29,2,18.51,2.48,26l0.3,354.12L436.41,66.37l0.48-.41C445.61,58.5,451.22,54.1,460,47.82a43.79,43.79,0,0,1,8.45-4.55" transform="translate(-422.59 -28.71)"/></svg>
