<svg id="goutte" xmlns="http://www.w3.org/2000/svg" viewBox="0 0 212.31 511.94"><defs><style>.cls-1{fill:#ccc;opacity:0.5;}</style></defs><title>goutte106x323cmDashed</title><path class="cls-1" d="M495.76,30.78c-76.93,28.53-83.4,116.59-87.35,172.12l0,333.07,8.9-.07L619.74,143.62l0.91-1.6c2.41-99.16-63.13-134.14-124.9-111.23m94,107.71-0.34,16.6L425.9,473.53l0.39-270c0.91-12.75,2-28.49,4.31-44.28,2.56-17.85,6.12-33,10.9-46.22a141,141,0,0,1,9.4-20.85A106.21,106.21,0,0,1,463.55,74a91.39,91.39,0,0,1,16.6-14.88A97.29,97.29,0,0,1,501.86,47.9a86.71,86.71,0,0,1,29.48-5.65h0.92c7.57,0.06,11.95,1.69,20.7,5.22,3.16,1.27,7.49,4.11,11.86,7.78a74.9,74.9,0,0,1,11,11.29,68.82,68.82,0,0,1,8.6,14.35,59.74,59.74,0,0,1,4.12,14.41c1.85,11.26,1.57,24.65,1.18,43.19" transform="translate(-408.4 -24.03)"/></svg>
