<svg id="goutte" xmlns="http://www.w3.org/2000/svg" viewBox="0 0 190.12 558.51"><defs><style>.cls-1{fill:#ccc;opacity:0.5;}</style></defs><title>goutte75x254cmDashed</title><path class="cls-1" d="M503.43,6.54C434.51,31.1,428.18,108.46,424.3,157.25l0.07,401.92H427v0.19l5.35-.19L613.5,106.57l0.82-1.4,0.08-1.62h0c2-85.92-55.94-116.61-110.93-97M438.74,512.27l1.53-354.38c0.89-11.2,2-25,4.13-38.9,2.4-15.67,5.68-28.94,10-40.56A122.88,122.88,0,0,1,463,60.18a93.32,93.32,0,0,1,11.43-15.85,81.18,81.18,0,0,1,14.92-13,87.41,87.41,0,0,1,19.47-9.73,78.58,78.58,0,0,1,26.37-4.77c7.28,0,11.18,1.45,19.28,4.73A44.38,44.38,0,0,1,565,28.51a66.38,66.38,0,0,1,9.78,10,60.33,60.33,0,0,1,7.59,12.67,51.88,51.88,0,0,1,3.59,12.7,171,171,0,0,1,1,43.41l-0.86,5.9,11.88,0Z" transform="translate(-424.3 -0.85)"/></svg>
