<svg id="goutte" xmlns="http://www.w3.org/2000/svg" viewBox="0 0 190.12 558.51"><defs><style>.cls-1{fill:#ccc;opacity:0.5;}</style></defs><title>goutte75x254cmVersoD</title><path class="cls-1" d="M534.79,6.54c-55-19.6-112.94,11.09-110.93,97h0l0.08,1.62,0.82,1.4,181.19,452.6,5.35,0.19v-0.19h2.6l0.07-401.92C610,108.46,603.71,31.1,534.79,6.54M440.27,113.22l11.88,0-0.86-5.9a171,171,0,0,1,1-43.41,51.88,51.88,0,0,1,3.59-12.7,60.33,60.33,0,0,1,7.59-12.67,66.38,66.38,0,0,1,9.78-10,44.38,44.38,0,0,1,10.55-6.92c8.11-3.28,12-4.73,19.28-4.73a78.58,78.58,0,0,1,26.37,4.77,87.41,87.41,0,0,1,19.47,9.73,81.18,81.18,0,0,1,14.92,13,93.32,93.32,0,0,1,11.43,15.85,122.88,122.88,0,0,1,8.53,18.27c4.35,11.62,7.64,24.89,10,40.56,2.12,13.86,3.24,27.7,4.13,38.9l1.53,354.38Z" transform="translate(-423.8 -0.85)"/></svg>
