<svg id="goutte" xmlns="http://www.w3.org/2000/svg" viewBox="0 0 212.31 511.94"><defs><style>.cls-1{fill:#ccc;opacity:0.5;}</style></defs><title>goutte106x323cmVersoD</title><path class="cls-1" d="M533.36,30.78C471.59,7.88,406.06,42.86,408.47,142l0.91,1.6L611.79,535.9l8.9,0.07,0-333.07c-4-55.53-10.42-143.59-87.35-172.12m-94,107.71c-0.39-18.54-.67-31.94,1.18-43.19a59.74,59.74,0,0,1,4.12-14.41,68.82,68.82,0,0,1,8.6-14.35,74.9,74.9,0,0,1,11-11.29c4.37-3.67,8.7-6.5,11.86-7.78,8.75-3.52,13.13-5.15,20.7-5.22h0.92a86.71,86.71,0,0,1,29.48,5.65A97.29,97.29,0,0,1,549,59.14,91.39,91.39,0,0,1,565.57,74a106.21,106.21,0,0,1,12.66,18.12,141,141,0,0,1,9.4,20.85c4.78,13.25,8.35,28.37,10.9,46.22,2.26,15.78,3.4,31.53,4.31,44.28l0.39,270L439.72,155.09l-0.34-16.6" transform="translate(-408.4 -24.03)"/></svg>
