<svg id="goutte" xmlns="http://www.w3.org/2000/svg" viewBox="0 0 263.48 554.31"><defs><style>.cls-1{fill:#ccc;opacity:0.5;}</style></defs><title>goutte72x203cmVersoD</title><path class="cls-1" d="M526.6,10.71C450-16.54,369.23,26.58,373.08,147.05l1.14,1.94,251.2,408.16h11l-0.26-338.09C630.79,151.61,622,44.66,526.6,10.71M411.28,142.48c-0.64-22.53-1.1-38.81,1.08-52.5a71.65,71.65,0,0,1,5-17.55,83.38,83.38,0,0,1,10.51-17.52,91.84,91.84,0,0,1,13.54-13.82c5.38-4.5,10.7-8,14.6-9.56C467.21,27,472.6,25,482.68,25a108.94,108.94,0,0,1,36.51,6.59,121.09,121.09,0,0,1,27,13.45A112.36,112.36,0,0,1,566.81,63a129,129,0,0,1,15.82,21.91,169.76,169.76,0,0,1,11.8,25.25c6,16.06,10.57,34.4,13.89,56.07,2.93,19.16,4.48,38.29,5.71,53.77l0.23,261.49L411.85,162.65l-0.57-20.17" transform="translate(-372.94 -2.85)"/></svg>
