<svg id="goutte" xmlns="http://www.w3.org/2000/svg" viewBox="0 0 156.26 502.58"><defs><style>.cls-1{fill:#ccc;opacity:0.5;}</style></defs><title>goutte125x460cmDashed</title><path class="cls-1" d="M480.6,34.13c-52.48,17.41-55.93,68.52-58,100.75l0.08,396.4,6.1-.14L567,98.13l11.89-40.67c-26.41-22.4-56.11-37.3-98.24-23.33M533,43.27a43.79,43.79,0,0,1,8.45,4.55C550.21,54.1,555.82,58.5,564.54,66L565,66.37,430.69,489.24,431,135.12c0.48-7.45,1.09-16.68,2.48-26a119.17,119.17,0,0,1,7.05-27.24,77.83,77.83,0,0,1,6.37-12.5,65,65,0,0,1,8.84-11.09A63.77,63.77,0,0,1,467.62,49a76.22,76.22,0,0,1,15.71-7.19c7.84-2.6,14.15-3.83,19.88-3.89h1.51c7.48,0.22,11.74.49,18.42,2.1A66,66,0,0,1,533,43.27" transform="translate(-422.59 -28.71)"/></svg>
